<svg width="60" height="60" viewBox="0 0 60 60" fill="none" xmlns="http://www.w3.org/2000/svg">
<path d="M47 21V18C47 16.9391 46.5786 15.9217 45.8284 15.1716C45.0783 14.4214 44.0609 14 43 14H15C13.9391 14 12.9217 14.4214 12.1716 15.1716C11.4214 15.9217 11 16.9391 11 18V46C11 47.0609 11.4214 48.0783 12.1716 48.8284C12.9217 49.5786 13.9391 50 15 50H22M37 10V18M21 10V18M11 26H21M40 41L37 38.5V34M49 38C49 41.1826 47.7357 44.2348 45.4853 46.4853C43.2348 48.7357 40.1826 50 37 50C33.8174 50 30.7652 48.7357 28.5147 46.4853C26.2643 44.2348 25 41.1826 25 38C25 34.8174 26.2643 31.7652 28.5147 29.5147C30.7652 27.2643 33.8174 26 37 26C40.1826 26 43.2348 27.2643 45.4853 29.5147C47.7357 31.7652 49 34.8174 49 38Z" stroke="white" stroke-width="2.5" stroke-linecap="round" stroke-linejoin="round"/>
</svg>
