<svg width="60" height="60" viewBox="0 0 60 60" fill="none" xmlns="http://www.w3.org/2000/svg">
<path d="M20.5307 36L11.5317 20.28C11.1437 19.6017 10.9612 18.8232 11.0069 18.041C11.0526 17.2587 11.3245 16.5073 11.7888 15.88L14.9731 11.6C15.3415 11.1032 15.8193 10.7 16.3685 10.4223C16.9178 10.1446 17.5235 10 18.1375 10H41.871C42.4851 10 43.0908 10.1446 43.64 10.4223C44.1893 10.7 44.6671 11.1032 45.0355 11.6L48.2 15.88C48.6674 16.5053 48.9428 17.2557 48.992 18.0379C49.0412 18.8202 48.8621 19.5998 48.4769 20.28L39.4779 36M28.0268 29.9999L16.3974 10.3999M31.9822 29.9999L43.6116 10.3999M22.0932 20H37.9155M30.0044 42V38H29.0155M39.8933 40C39.8933 45.5228 35.4659 50 30.0044 50C24.5429 50 20.1154 45.5228 20.1154 40C20.1154 34.4772 24.5429 30 30.0044 30C35.4659 30 39.8933 34.4772 39.8933 40Z" stroke="white" stroke-width="2.5" stroke-linecap="round" stroke-linejoin="round"/>
</svg>
