<svg width="60" height="60" viewBox="0 0 60 60" fill="none" xmlns="http://www.w3.org/2000/svg">
<path d="M32.8341 44.9417C28.7154 43.2042 24.6558 41.3899 20.5912 39.5991C19.7508 39.229 21.134 38.4528 20.0735 38.402C18.6149 38.3323 17.229 38.2193 15.8858 37.6186C14.6255 37.055 12.8382 36.2592 12.1419 35.6127C11.3874 34.912 10.7908 33.802 10.5811 33.3777C10.199 32.6046 9.95972 31.5759 10.0056 30.3252C10.0586 28.8806 10.5723 26.6796 11.0898 24.7569C11.3708 23.7126 11.9942 21.2095 12.2813 20.2861C12.547 19.4317 11.6244 19.6214 11.6775 18.9683C11.8983 16.2526 11.6275 13.9847 11.6926 13.6284C11.6662 12.5962 11.7992 12.0024 12.227 11.474C12.4628 11.1827 13.3444 10.925 13.7358 11.0201C15.5145 11.4521 17.1326 11.8019 18.9472 12.2974C19.209 12.3689 19.3669 12.7679 19.4228 13.0114C19.7567 14.4676 20.437 19.0425 21.0999 21.2041C21.7535 23.3356 22.6501 25.1643 23.6164 27.4701C24.5512 29.7009 25.5202 32.0758 26.4944 34.2008C26.7495 34.7573 27.7083 34.6239 28.4547 35.0389C28.6234 35.1327 29.1027 35.5281 29.3046 35.9927C29.4055 36.2249 29.4694 36.5907 29.7089 36.8262C29.9483 37.0618 30.8605 37.5095 30.9867 37.5662C37.1039 40.313 42.6152 42.8329 48.7142 45.6645C49.9572 46.229 50.2479 47.0565 49.8053 48.2139C49.6105 48.6148 49.3653 49.0422 48.845 49.3206C48.1546 49.6898 47.1345 49.9609 46.3728 49.9371C44.9879 49.8937 43.7822 49.3849 42.5328 48.9803C39.313 47.9375 36.0132 46.2828 32.8341 44.9417Z" stroke="white" stroke-width="2.29217" stroke-linejoin="round"/>
</svg>
