<svg width="60" height="60" viewBox="0 0 60 60" fill="none" xmlns="http://www.w3.org/2000/svg" xmlns:xlink="http://www.w3.org/1999/xlink">
<rect width="60" height="60" fill="url(#pattern0_59_2)" fill-opacity="0.1"/>
<path d="M24.7033 42.5H44.5C47 42.5 46.5 40.5 46.5 40.5L46.2566 39.0399C46.1367 38.3205 46.8025 37.7189 47.5061 37.9108L50.9158 38.8407C51.2967 38.9446 51.6999 38.9334 52.0745 38.8085L52.2141 38.762C52.7173 38.5942 53.1332 38.2335 53.3705 37.759L55.5718 33.3564C55.8112 32.8775 55.631 32.295 55.163 32.035L51.2307 29.8504C48.48 28.3222 45.3185 27.6978 42.1934 28.0655L39.9544 28.3289C39.0371 28.4368 38.2217 28.9638 37.7465 29.7557C37.2753 30.5412 36.469 31.0664 35.5601 31.18L33 31.5C22.5 31.5 24.3381 22.9854 19 19.5C16.3636 17.7787 16 17 13.5 17C11.6579 17 11.3025 17.6974 9.99998 19C9.27968 19.7203 7.78116 19.9218 6.99921 19.9781C6.72379 19.998 6.49005 20.2229 6.45044 20.4962C6.34558 21.2198 6.01873 22.7833 4.99996 25.5C3.85213 28.5609 3.87545 30.1579 3.94966 30.739C3.97184 30.9127 4.06888 31.0612 4.19977 31.1776L6.91467 33.5908C7.77474 34.3553 7.81397 35.686 7.00028 36.4997L6.5 37C4.73223 38.7678 12.5 40.5 20.5 40C22.2359 39.8915 23.2322 41.0945 23.6902 41.8701C23.9047 42.2334 24.2814 42.5 24.7033 42.5Z" stroke="white" stroke-width="1.5"/>
<defs>
<pattern id="pattern0_59_2" patternUnits="userSpaceOnUse" patternTransform="matrix(12 0 0 12 0 0)" preserveAspectRatio="none" viewBox="0 0 12 12" width="1" height="1">
<g id="pattern0_59_2_inner">
<rect y="2" width="3" height="1" fill="#D9D9D9"/>
<rect y="8" width="3" height="1" fill="#D9D9D9"/>
<rect x="6" y="2" width="3" height="1" fill="#D9D9D9"/>
<rect x="6" y="8" width="3" height="1" fill="#D9D9D9"/>
<rect x="5" y="3" width="3" height="1" transform="rotate(180 5 3)" fill="#D9D9D9"/>
<rect x="5" y="9" width="3" height="1" transform="rotate(180 5 9)" fill="#D9D9D9"/>
<rect x="11" y="3" width="3" height="1" transform="rotate(180 11 3)" fill="#D9D9D9"/>
<rect x="11" y="9" width="3" height="1" transform="rotate(180 11 9)" fill="#D9D9D9"/>
<rect x="2" width="1" height="2" fill="#D9D9D9"/>
<rect x="2" y="6" width="1" height="2" fill="#D9D9D9"/>
<rect x="8" width="1" height="2" fill="#D9D9D9"/>
<rect x="8" y="6" width="1" height="2" fill="#D9D9D9"/>
<rect x="3" y="5" width="1" height="2" transform="rotate(180 3 5)" fill="#D9D9D9"/>
<rect x="3" y="11" width="1" height="2" transform="rotate(180 3 11)" fill="#D9D9D9"/>
<rect x="9" y="5" width="1" height="2" transform="rotate(180 9 5)" fill="#D9D9D9"/>
<rect x="9" y="11" width="1" height="2" transform="rotate(180 9 11)" fill="#D9D9D9"/>
</g>
</pattern></defs>
</svg>
