<svg width="60" height="60" viewBox="0 0 60 60" fill="none" xmlns="http://www.w3.org/2000/svg" xmlns:xlink="http://www.w3.org/1999/xlink">
<rect width="60" height="60" fill="url(#pattern0_82_38)" fill-opacity="0.1"/>
<path fill-rule="evenodd" clip-rule="evenodd" d="M17.4195 13.9918C17.9901 13.7872 18.5993 13.7118 19.2027 13.7701C19.9829 13.8468 20.4722 14.0917 21.0347 14.3726C21.1892 14.4498 21.3489 14.5295 21.524 14.6109C21.5663 14.6306 21.6094 14.6508 21.6519 14.6705C22.7589 15.1842 23.9351 15.7228 24.6216 16.9488C24.756 17.1861 24.8707 17.4345 24.9634 17.691L24.9644 17.6929C24.9979 17.7881 25.0313 17.9061 25.064 18.0211C25.1083 18.1769 25.153 18.3356 25.2046 18.4742C25.2588 18.6196 25.3086 18.7098 25.3472 18.7506C25.9824 19.4209 26.7218 19.8779 27.607 19.9967L27.7857 20.0162L27.7964 20.0172L27.8062 20.0181C27.9019 20.0339 28.0666 20.0328 28.2779 20.0084C28.4844 19.9845 28.72 19.9401 28.9497 19.8795C29.18 19.8187 29.3991 19.7431 29.5757 19.6588C29.7599 19.5707 29.8676 19.4867 29.9117 19.4254C30.3058 18.8745 30.8205 18.3526 31.4078 18.1793C31.7108 18.09 32.0316 18.0947 32.3511 18.233C32.6662 18.3694 32.9618 18.6274 33.2359 19.0123C33.3236 19.1355 33.3992 19.3145 33.4585 19.4517C33.4967 19.5399 33.5303 19.6179 33.563 19.6822C34.3877 21.3033 33.4805 22.6631 32.7154 23.8365C32.6085 24.0003 32.5032 24.1615 32.4029 24.3218L32.4019 24.3238C31.8408 25.2097 31.2866 26.1005 30.7408 26.9957L30.7398 26.9976C30.6746 27.1023 30.6012 27.2086 30.5308 27.3111C30.2864 27.667 30.0803 27.9789 30.0494 28.2945C30.033 28.4617 30.0653 28.6644 30.146 28.8453C30.2271 29.0266 30.3462 29.1638 30.482 29.232C30.5604 29.2712 30.7498 29.3275 31.0406 29.3941C31.3218 29.4585 31.6731 29.5268 32.0552 29.5953C32.8194 29.7324 33.6976 29.8683 34.3697 29.9722C34.7219 30.0267 35.02 30.0735 35.2124 30.106L53.4595 33.191C53.6126 33.2165 53.7676 33.2417 53.9244 33.2672C54.4833 33.358 55.0636 33.4522 55.6138 33.5709C55.9679 33.6473 56.2776 33.8671 56.4869 34.1295C56.7157 34.4035 56.8706 34.8026 56.8169 35.1959C56.6133 36.684 56.3506 38.1668 56.0894 39.6431C55.8816 40.8174 55.6744 41.9888 55.4966 43.1617C55.4843 43.2437 55.4801 43.334 55.4751 43.441C55.471 43.5297 55.4666 43.6304 55.4546 43.7301L55.4527 43.7408L55.4507 43.7525C55.441 43.7987 55.4263 43.9032 55.4048 44.066C55.3588 44.4153 55.2865 44.973 55.1646 45.4937C55.1037 45.7539 55.0278 46.0122 54.9351 46.2349C54.8447 46.4519 54.7265 46.6637 54.564 46.8013C54.2201 47.0923 53.8853 47.2175 53.5435 47.2447C53.2155 47.2706 52.8902 47.2044 52.5816 47.1431C52.4062 47.1083 52.2311 47.0742 52.0464 47.0504C51.8829 47.0292 51.7166 47.0008 51.5581 46.9742C51.4982 46.9641 51.4387 46.9544 51.3804 46.9449L45.9937 46.0718C45.8099 46.0426 45.586 46.0034 45.3511 45.9625C44.7909 45.8649 44.168 45.7571 43.7876 45.7252C43.6347 45.7125 43.4593 45.7542 43.2505 45.8453C43.0413 45.9366 42.8211 46.0671 42.5787 46.2115C42.3211 46.3649 42.0385 46.5335 41.7466 46.6578C41.4531 46.7827 41.1328 46.8709 40.7954 46.8521C40.0331 46.8094 39.4557 46.5274 38.8658 46.2418C38.7451 46.1834 38.6236 46.125 38.4986 46.067L36.3365 45.0611C36.1846 44.9905 36.0376 44.9201 35.8951 44.8521C35.1221 44.4832 34.4686 44.1737 33.6158 44.0426C32.528 43.8753 31.439 43.7095 30.3501 43.5445C29.5974 43.4304 28.8438 43.3166 28.0913 43.2017L11.5542 40.6842C11.3347 40.6512 11.1084 40.622 10.8775 40.5924C10.2929 40.5173 9.67284 40.4382 9.09916 40.2808C9.00815 40.2558 8.86958 40.195 8.71439 40.1207C8.55213 40.043 8.35097 39.9404 8.1265 39.8218C7.67676 39.5843 7.12433 39.2776 6.57865 38.9654C6.03293 38.6531 5.4911 38.3337 5.06303 38.0689C4.84933 37.9367 4.66209 37.817 4.51615 37.7183C4.37775 37.6247 4.25584 37.5361 4.19096 37.4703C3.88014 37.1548 3.74007 36.7173 3.74955 36.3004C3.76101 35.8033 3.99979 35.4414 4.31693 35.1646C4.62463 34.8963 5.0239 34.6935 5.38139 34.5103C5.81499 34.2882 6.18395 34.0948 6.41166 33.8443C6.65057 33.5811 6.7947 33.2331 6.95658 32.8326C7.07461 32.5406 7.20306 32.2191 7.3892 31.9371C7.67943 31.4975 8.08294 31.1766 8.44877 30.8834C8.60075 30.7616 8.7449 30.6414 8.88236 30.5191C8.82037 30.3131 8.79179 30.1082 8.80424 29.8746C8.82112 29.5586 8.93828 29.3277 9.11088 29.1509C9.27222 28.9859 9.47824 28.8733 9.64701 28.7799C9.82006 28.684 9.96541 28.6019 10.0826 28.4927C10.1837 28.3983 10.2149 28.3005 10.2134 28.1802C10.2116 28.0417 10.167 27.8856 10.107 27.6842C10.0356 27.4446 9.93522 27.1249 9.99271 26.8121C10.0894 26.2874 10.4022 25.9323 10.6617 25.6324C10.8838 25.3757 11.0669 25.1592 11.1626 24.8834C11.1629 24.8826 11.1647 24.878 11.1665 24.8697C11.1688 24.8593 11.1714 24.8449 11.1744 24.8267C11.1803 24.7896 11.1867 24.7406 11.1929 24.6802C11.2054 24.5594 11.217 24.4005 11.2281 24.2125C11.2502 23.8367 11.2691 23.3518 11.2847 22.8345C11.3159 21.8007 11.3343 20.6427 11.3453 19.9742C11.3484 19.7842 11.3511 19.6326 11.3531 19.5357V19.524L11.355 19.5113C11.481 18.4246 12.0259 17.4296 12.8736 16.7379C13.1462 16.513 14.1355 15.8793 15.1089 15.2867C15.6006 14.9874 16.0967 14.6936 16.5064 14.4615C16.9067 14.2347 17.2486 14.053 17.4195 13.9918ZM21.1548 16.0572C19.9865 15.4561 18.8846 14.9078 17.7574 15.442C17.2509 15.6821 16.7733 15.9894 16.2808 16.3062C15.9826 16.4981 15.6776 16.6935 15.3658 16.8736L15.3638 16.8756C14.0912 17.591 13.4858 18.0427 13.1685 18.6197C12.8484 19.2022 12.7993 19.9473 12.7769 21.3384V21.3404L12.7193 23.6939C12.7171 23.7777 12.716 23.8593 12.7144 23.939C12.7061 24.3583 12.6983 24.7414 12.6148 25.2105C12.5327 25.6699 12.2106 26.0278 11.9624 26.3111C11.7802 26.5192 11.633 26.691 11.5484 26.8668C11.4717 27.0265 11.4514 27.1815 11.5259 27.3697C11.807 28.0788 11.791 28.6069 11.5298 29.0386C11.2864 29.4403 10.848 29.717 10.4351 29.983C10.3842 30.0158 10.3329 30.0493 10.2818 30.0826C10.382 30.403 10.4129 30.7269 10.2505 31.1021C10.0583 31.546 9.6604 31.8334 9.33646 32.0738C9.08024 32.264 8.86167 32.4295 8.70951 32.6314C8.49555 32.9156 8.35391 33.243 8.20072 33.6031C8.00933 34.053 7.79855 34.5572 7.38529 34.9615C6.9982 35.34 6.48372 35.6064 6.03178 35.8424C5.8735 35.925 5.72154 36.0046 5.57865 36.0855L5.57475 36.0875C5.45894 36.1531 5.34406 36.2203 5.27006 36.2965C5.23579 36.3319 5.22256 36.3577 5.2183 36.3717C5.21741 36.3747 5.21649 36.3789 5.21635 36.3834C5.24209 36.4042 5.2801 36.4332 5.33158 36.4693C5.44104 36.546 5.59681 36.648 5.78568 36.7672C6.16312 37.0052 6.66542 37.3075 7.17826 37.608C7.69061 37.9081 8.21282 38.2058 8.63139 38.4361C8.84081 38.5513 9.02391 38.6499 9.16557 38.7222C9.3147 38.7984 9.40042 38.8359 9.42728 38.8443C9.84379 38.9738 10.3204 39.0333 10.8101 39.0933C11.0019 39.1168 11.1961 39.1403 11.3833 39.1685L32.607 42.399C32.7343 42.4184 32.8671 42.437 33.0035 42.4566C33.6825 42.5544 34.4722 42.6675 35.107 42.9L35.4302 43.0269C35.7626 43.1651 36.1156 43.3311 36.4322 43.4801C36.5244 43.5234 36.6142 43.5662 36.6997 43.606L39.0816 44.7144L39.7193 44.9996C40.2772 45.2363 40.6123 45.335 40.8521 45.3521C41.1342 45.3721 41.2877 45.281 41.6216 45.0699C41.9591 44.8565 42.424 44.5638 43.2769 44.2926C43.3606 44.2659 43.4669 44.2606 43.563 44.2603C43.6674 44.2601 43.7923 44.2667 43.9292 44.2779C44.2037 44.3004 44.5436 44.343 44.9009 44.3941C45.6164 44.4965 46.4188 44.6353 46.9419 44.7261L47.3863 44.8023L52.316 45.609C52.3414 45.6127 52.376 45.6178 52.4185 45.6236C52.4939 45.634 52.5898 45.6472 52.6763 45.6607C52.7441 45.6713 52.8197 45.6858 52.8765 45.6998L52.8775 45.6988C52.9284 45.7074 52.9782 45.7174 53.024 45.7261C53.2381 45.7669 53.3716 45.7852 53.4937 45.7506C53.506 45.7161 53.5216 45.6725 53.5367 45.6197C53.5694 45.5045 53.6052 45.3564 53.6421 45.19C53.7159 44.8574 53.7914 44.4613 53.857 44.1197C53.9103 43.8419 53.9587 43.5927 53.9917 43.4517C54.0348 42.8497 54.1676 42.1068 54.2818 41.4625C54.3111 41.297 54.3392 41.1371 54.3648 40.9869L55.0406 37.0396C55.0625 36.9118 55.0851 36.7816 55.1079 36.6509C55.1997 36.1262 55.2926 35.5868 55.356 35.0767C55.3519 35.0695 55.3472 35.0616 55.3404 35.0504C55.338 35.0464 55.3354 35.0414 55.3326 35.0367C55.3296 35.0336 55.3118 35.0163 55.2515 34.9967C55.182 34.9741 55.0974 34.9611 54.9995 34.9468C54.9727 34.9429 54.9435 34.9386 54.9165 34.9342L54.9048 34.9322L54.8931 34.9293C54.8532 34.9187 54.7438 34.9019 54.6363 34.8853L54.5376 34.8697L32.7476 31.1832C32.5536 31.1505 32.3544 31.118 32.1529 31.0855C31.5553 30.9892 30.9301 30.8882 30.3482 30.7554C29.8215 30.6351 29.3151 30.2354 29.0162 29.8189L29.0152 29.8179C28.6453 29.2941 28.4977 28.6445 28.605 28.0123L28.6558 27.7857C28.8029 27.2592 29.1353 26.7485 29.4068 26.3267C29.4654 26.2356 29.5227 26.1479 29.5757 26.0631L31.2847 23.3326C31.3654 23.2038 31.4559 23.0692 31.5464 22.9332C31.8164 22.5276 32.0956 22.1052 32.2632 21.6802C32.4087 21.3112 32.4583 20.9669 32.3609 20.648L32.3101 20.5133C32.283 20.4531 32.2547 20.38 32.2261 20.3082C32.1294 20.065 32.0274 19.8178 31.9058 19.6812C31.8488 19.6173 31.8163 19.6123 31.8091 19.6119C31.8016 19.6117 31.7567 19.6135 31.6695 19.6959C29.7026 22.2186 26.2036 21.973 24.2046 19.689L24.2037 19.6881C23.9791 19.4285 23.8078 19.0428 23.7408 18.7193C23.5321 17.7125 22.8832 16.875 21.9419 16.4468C21.6812 16.3282 21.4167 16.1919 21.1548 16.0572Z" fill="white"/>
<defs>
<pattern id="pattern0_82_38" patternUnits="userSpaceOnUse" patternTransform="matrix(12 0 0 12 0 0)" preserveAspectRatio="none" viewBox="0 0 12 12" width="1" height="1">
<g id="pattern0_82_38_inner">
<rect y="2" width="3" height="1" fill="#D9D9D9"/>
<rect y="8" width="3" height="1" fill="#D9D9D9"/>
<rect x="6" y="2" width="3" height="1" fill="#D9D9D9"/>
<rect x="6" y="8" width="3" height="1" fill="#D9D9D9"/>
<rect x="5" y="3" width="3" height="1" transform="rotate(180 5 3)" fill="#D9D9D9"/>
<rect x="5" y="9" width="3" height="1" transform="rotate(180 5 9)" fill="#D9D9D9"/>
<rect x="11" y="3" width="3" height="1" transform="rotate(180 11 3)" fill="#D9D9D9"/>
<rect x="11" y="9" width="3" height="1" transform="rotate(180 11 9)" fill="#D9D9D9"/>
<rect x="2" width="1" height="2" fill="#D9D9D9"/>
<rect x="2" y="6" width="1" height="2" fill="#D9D9D9"/>
<rect x="8" width="1" height="2" fill="#D9D9D9"/>
<rect x="8" y="6" width="1" height="2" fill="#D9D9D9"/>
<rect x="3" y="5" width="1" height="2" transform="rotate(180 3 5)" fill="#D9D9D9"/>
<rect x="3" y="11" width="1" height="2" transform="rotate(180 3 11)" fill="#D9D9D9"/>
<rect x="9" y="5" width="1" height="2" transform="rotate(180 9 5)" fill="#D9D9D9"/>
<rect x="9" y="11" width="1" height="2" transform="rotate(180 9 11)" fill="#D9D9D9"/>
</g>
</pattern></defs>
</svg>
