<svg width="60" height="60" viewBox="0 0 60 60" fill="none" xmlns="http://www.w3.org/2000/svg" xmlns:xlink="http://www.w3.org/1999/xlink">
<rect width="60" height="60" fill="url(#pattern0_39_29)" fill-opacity="0.1"/>
<path d="M42.7352 37.4567C40.2287 42.47 35.3184 43.2878 29.7174 43.5006C26.1947 43.6345 20.884 41.641 20.884 41.641C15.3049 39.3163 11.683 38.5012 5.54153 34.2021C0.892349 30.9477 2.28705 17.4649 12.5153 17C15.3049 16.9999 15.6543 17 18.5593 17.0001C19.4891 17.0001 20.2146 18.2158 21.3488 18.3949C22.4249 18.5648 23.0623 18.5648 24.1384 18.3949C25.2726 18.2158 25.0682 17 25.998 17.0001C34.7131 17.0005 36.2263 17 46.4546 17.0001C48.7792 17 53.2605 18.7395 54.8232 20.7195C56.0346 22.2545 56.6828 25.3687 56.6828 25.3687C56.6828 25.3687 57.1232 28.2565 56.6828 30.0179C55.8709 33.2658 54.1435 35.1239 51.1038 36.5268C49.7444 37.1542 48.7792 37.4566 47.3844 37.4566C46.1664 37.4566 44.8867 37.2444 44.5949 36.0619C44.4156 35.3351 44.5949 34.6671 45.0598 34.2022C45.0598 34.2022 48.7792 30.9476 51.5687 27.6932C52.0413 27.1418 52.5472 25.8822 52.0336 25.3686C51.5201 24.8551 50.3133 25.4307 49.709 25.8336C46.9195 27.6931 43.2001 30.9478 43.2001 30.9478H31.1122C31.1122 30.9478 27.6085 30.8113 27.8577 32.3424C27.9629 32.9886 29.1432 33.7372 29.7174 33.7372H34.3666C35.4253 33.7372 37.6211 35.1321 37.6211 35.1321C37.6211 35.1321 43.665 35.5969 42.7352 37.4567Z" stroke="white" stroke-width="1.5"/>
<defs>
<pattern id="pattern0_39_29" patternUnits="userSpaceOnUse" patternTransform="matrix(12 0 0 12 0 0)" preserveAspectRatio="none" viewBox="0 0 12 12" width="1" height="1">
<g id="pattern0_39_29_inner">
<rect y="2" width="3" height="1" fill="#D9D9D9"/>
<rect y="8" width="3" height="1" fill="#D9D9D9"/>
<rect x="6" y="2" width="3" height="1" fill="#D9D9D9"/>
<rect x="6" y="8" width="3" height="1" fill="#D9D9D9"/>
<rect x="5" y="3" width="3" height="1" transform="rotate(180 5 3)" fill="#D9D9D9"/>
<rect x="5" y="9" width="3" height="1" transform="rotate(180 5 9)" fill="#D9D9D9"/>
<rect x="11" y="3" width="3" height="1" transform="rotate(180 11 3)" fill="#D9D9D9"/>
<rect x="11" y="9" width="3" height="1" transform="rotate(180 11 9)" fill="#D9D9D9"/>
<rect x="2" width="1" height="2" fill="#D9D9D9"/>
<rect x="2" y="6" width="1" height="2" fill="#D9D9D9"/>
<rect x="8" width="1" height="2" fill="#D9D9D9"/>
<rect x="8" y="6" width="1" height="2" fill="#D9D9D9"/>
<rect x="3" y="5" width="1" height="2" transform="rotate(180 3 5)" fill="#D9D9D9"/>
<rect x="3" y="11" width="1" height="2" transform="rotate(180 3 11)" fill="#D9D9D9"/>
<rect x="9" y="5" width="1" height="2" transform="rotate(180 9 5)" fill="#D9D9D9"/>
<rect x="9" y="11" width="1" height="2" transform="rotate(180 9 11)" fill="#D9D9D9"/>
</g>
</pattern></defs>
</svg>
