<svg width="60" height="60" viewBox="0 0 60 60" fill="none" xmlns="http://www.w3.org/2000/svg" xmlns:xlink="http://www.w3.org/1999/xlink">
<rect width="60" height="60" fill="url(#pattern0_85_171)" fill-opacity="0.1"/>
<path d="M6.83246 48.6164L54.1361 22.3412C54.3932 22.1984 54.625 22.014 54.822 21.7955L55.9946 20.4956C56.3281 20.1258 56.5516 19.67 56.6396 19.1798L56.943 17.4915C56.9809 17.2808 56.9933 17.0664 56.9799 16.8529L56.946 16.3099C56.8479 14.7409 55.4218 13.596 53.8686 13.8393L35.223 16.7613C34.9328 16.8068 34.6521 16.8998 34.3923 17.0367L32.6018 17.9797C32.1846 18.1995 31.833 18.5259 31.5829 18.9257L30.4116 20.7979C29.7625 21.8355 30.0886 23.2036 31.136 23.8368C32.1834 24.47 32.5096 25.8381 31.8605 26.8757L30.4615 29.112C30.2884 29.3887 30.066 29.6313 29.8053 29.8278L29.0131 30.425C28.8716 30.5316 28.7199 30.6239 28.5602 30.7005L16.3739 36.5427C15.9545 36.7438 15.5949 37.0509 15.3308 37.4338L14.1233 39.1839C13.9218 39.476 13.664 39.725 13.3651 39.9163L12.7336 40.3205C12.385 40.5436 11.9893 40.6826 11.5778 40.7265L11.3895 40.7465C10.8675 40.8022 10.3406 40.7027 9.87487 40.4606L9.34686 40.186C9.10161 40.0585 8.88652 39.8782 8.71776 39.6593C8.37642 39.2164 8.24689 38.6438 8.36607 38.0975C8.41261 37.8842 8.49566 37.6806 8.61157 37.4956L13.3663 29.9071C13.6602 29.4381 14.0925 29.072 14.6036 28.8596L15.3951 28.5305C15.6199 28.437 15.8564 28.3748 16.098 28.3454L21.2285 27.7224C21.5802 27.6797 21.9198 27.5675 22.2276 27.3922L22.6804 27.1344C23.0934 26.8992 23.4361 26.558 23.6732 26.146L23.8597 25.8218C24.0926 25.4169 24.2153 24.9579 24.2153 24.4907V24.2011C24.2153 23.7984 24.1242 23.401 23.9488 23.0385L23.8361 22.8057C23.6606 22.443 23.4053 22.1248 23.0894 21.8748L22.6164 21.5007C22.2946 21.2461 21.9185 21.0692 21.5172 20.9836L21.3353 20.9448C20.7999 20.8306 20.2423 20.8837 19.7381 21.0971L11.7396 24.4818C11.5189 24.5752 11.3118 24.6979 11.1238 24.8466L10.3378 25.4684C10.0911 25.6635 9.88077 25.9008 9.71663 26.1692L2.3921 38.1458C2.13568 38.5651 2 39.047 2 39.5384V41.7982C2 42.2379 2.10861 42.6707 2.31617 43.0583L3.83093 45.8869C4.00998 46.2213 4.30936 46.4752 4.66848 46.5972L5.64768 46.9299C6.00423 47.0511 6.16813 47.4622 5.99274 47.7954C5.70911 48.3343 6.30009 48.9121 6.83246 48.6164Z" stroke="white" stroke-width="1.5"/>
<defs>
<pattern id="pattern0_85_171" patternUnits="userSpaceOnUse" patternTransform="matrix(12 0 0 12 0 0)" preserveAspectRatio="none" viewBox="0 0 12 12" width="1" height="1">
<g id="pattern0_85_171_inner">
<rect y="2" width="3" height="1" fill="#D9D9D9"/>
<rect y="8" width="3" height="1" fill="#D9D9D9"/>
<rect x="6" y="2" width="3" height="1" fill="#D9D9D9"/>
<rect x="6" y="8" width="3" height="1" fill="#D9D9D9"/>
<rect x="5" y="3" width="3" height="1" transform="rotate(180 5 3)" fill="#D9D9D9"/>
<rect x="5" y="9" width="3" height="1" transform="rotate(180 5 9)" fill="#D9D9D9"/>
<rect x="11" y="3" width="3" height="1" transform="rotate(180 11 3)" fill="#D9D9D9"/>
<rect x="11" y="9" width="3" height="1" transform="rotate(180 11 9)" fill="#D9D9D9"/>
<rect x="2" width="1" height="2" fill="#D9D9D9"/>
<rect x="2" y="6" width="1" height="2" fill="#D9D9D9"/>
<rect x="8" width="1" height="2" fill="#D9D9D9"/>
<rect x="8" y="6" width="1" height="2" fill="#D9D9D9"/>
<rect x="3" y="5" width="1" height="2" transform="rotate(180 3 5)" fill="#D9D9D9"/>
<rect x="3" y="11" width="1" height="2" transform="rotate(180 3 11)" fill="#D9D9D9"/>
<rect x="9" y="5" width="1" height="2" transform="rotate(180 9 5)" fill="#D9D9D9"/>
<rect x="9" y="11" width="1" height="2" transform="rotate(180 9 11)" fill="#D9D9D9"/>
</g>
</pattern></defs>
</svg>
