<svg width="60" height="60" viewBox="0 0 60 60" fill="none" xmlns="http://www.w3.org/2000/svg" xmlns:xlink="http://www.w3.org/1999/xlink">
<rect width="60" height="60" fill="url(#pattern0_40_214)" fill-opacity="0.1"/>
<mask id="mask0_40_214" style="mask-type:luminance" maskUnits="userSpaceOnUse" x="14" y="18" width="32" height="23">
<path d="M43.75 18.5H16.75C16.1533 18.5 15.581 18.7371 15.159 19.159C14.7371 19.581 14.5 20.1533 14.5 20.75V38.75C14.5 39.3467 14.7371 39.919 15.159 40.341C15.581 40.7629 16.1533 41 16.75 41H43.75C44.3467 41 44.919 40.7629 45.341 40.341C45.7629 39.919 46 39.3467 46 38.75V20.75C46 20.1533 45.7629 19.581 45.341 19.159C44.919 18.7371 44.3467 18.5 43.75 18.5Z" fill="url(#paint0_linear_40_214)"/>
</mask>
<g mask="url(#mask0_40_214)">
<path d="M46 18.5H14.5V41H46V18.5Z" fill="url(#paint1_linear_40_214)"/>
<path d="M46 18.5H14.5V24.5H46V18.5Z" fill="url(#paint2_linear_40_214)"/>
<path d="M46 35H14.5V41H46V35Z" fill="url(#paint3_linear_40_214)"/>
<path d="M46 24.5H14.5V35H46V24.5Z" fill="url(#paint4_linear_40_214)"/>
<path d="M46 26H14.5V33.5H46V26Z" fill="url(#paint5_linear_40_214)"/>
<path d="M30.25 37.25C31.75 37.25 34 34.307 34 29.75C34 25.193 31.75 22.25 30.25 22.25C28.75 22.25 26.5 25.193 26.5 29.75C26.5 34.307 28.75 37.25 30.25 37.25Z" fill="#BC0000"/>
<mask id="mask1_40_214" style="mask-type:luminance" maskUnits="userSpaceOnUse" x="26" y="22" width="8" height="16">
<path d="M30.25 37.25C31.75 37.25 34 34.307 34 29.75C34 25.193 31.75 22.25 30.25 22.25C28.75 22.25 26.5 25.193 26.5 29.75C26.5 34.307 28.75 37.25 30.25 37.25Z" fill="url(#paint6_linear_40_214)"/>
</mask>
<g mask="url(#mask1_40_214)">
<path d="M24.25 38C26.32 38 28 34.307 28 29.75C28 25.193 26.32 21.5 24.25 21.5C22.18 21.5 20.5 25.193 20.5 29.75C20.5 34.307 22.18 38 24.25 38Z" fill="url(#paint7_linear_40_214)"/>
</g>
<mask id="mask2_40_214" style="mask-type:luminance" maskUnits="userSpaceOnUse" x="26" y="22" width="8" height="16">
<path d="M30.25 37.25C31.75 37.25 34 34.307 34 29.75C34 25.193 31.75 22.25 30.25 22.25C28.75 22.25 26.5 25.193 26.5 29.75C26.5 34.307 28.75 37.25 30.25 37.25Z" fill="url(#paint8_linear_40_214)"/>
</mask>
<g mask="url(#mask2_40_214)">
<path d="M36.25 38C38.32 38 40 34.307 40 29.75C40 25.193 38.32 21.5 36.25 21.5C34.18 21.5 32.5 25.193 32.5 29.75C32.5 34.307 34.18 38 36.25 38Z" fill="url(#paint9_linear_40_214)"/>
</g>
<mask id="mask3_40_214" style="mask-type:luminance" maskUnits="userSpaceOnUse" x="26" y="22" width="8" height="16">
<path d="M30.25 37.25C31.75 37.25 34 34.307 34 29.75C34 25.193 31.75 22.25 30.25 22.25C28.75 22.25 26.5 25.193 26.5 29.75C26.5 34.307 28.75 37.25 30.25 37.25Z" fill="url(#paint10_linear_40_214)"/>
</mask>
<g mask="url(#mask3_40_214)">
<path fill-rule="evenodd" clip-rule="evenodd" d="M30.25 32C29.836 32 29.5 30.992 29.5 29.75C29.5 28.508 29.836 27.5 30.25 27.5C30.664 27.5 31 28.508 31 29.75C31 30.992 30.664 32 30.25 32ZM30.25 27.5C29.836 27.5 29.5 26.1575 29.5 24.5C29.5 22.8425 29.836 21.5 30.25 21.5C30.664 21.5 31 22.8425 31 24.5C31 26.1575 30.664 27.5 30.25 27.5ZM30.25 38C29.836 38 29.5 36.6575 29.5 35C29.5 33.3425 29.836 32 30.25 32C30.664 32 31 33.3425 31 35C31 36.6575 30.664 38 30.25 38Z" fill="url(#paint11_linear_40_214)"/>
</g>
</g>
<defs>
<linearGradient id="paint0_linear_40_214" x1="1589.5" y1="18.5" x2="1589.5" y2="2268.5" gradientUnits="userSpaceOnUse">
<stop stop-color="white"/>
<stop offset="1" stop-color="#F0F0F0"/>
</linearGradient>
<linearGradient id="paint1_linear_40_214" x1="1589.5" y1="18.5" x2="1589.5" y2="2268.5" gradientUnits="userSpaceOnUse">
<stop stop-color="white"/>
<stop offset="1" stop-color="#F0F0F0"/>
</linearGradient>
<linearGradient id="paint2_linear_40_214" x1="1589.5" y1="18.5" x2="1589.5" y2="618.5" gradientUnits="userSpaceOnUse">
<stop stop-color="#262626"/>
<stop offset="1" stop-color="#0D0D0D"/>
</linearGradient>
<linearGradient id="paint3_linear_40_214" x1="1589.5" y1="35" x2="1589.5" y2="635" gradientUnits="userSpaceOnUse">
<stop stop-color="#018301"/>
<stop offset="1" stop-color="#006700"/>
</linearGradient>
<linearGradient id="paint4_linear_40_214" x1="1589.5" y1="24.5" x2="1589.5" y2="1074.5" gradientUnits="userSpaceOnUse">
<stop stop-color="white"/>
<stop offset="1" stop-color="#F0F0F0"/>
</linearGradient>
<linearGradient id="paint5_linear_40_214" x1="1589.5" y1="26" x2="1589.5" y2="776" gradientUnits="userSpaceOnUse">
<stop stop-color="#DC0808"/>
<stop offset="1" stop-color="#BC0000"/>
</linearGradient>
<linearGradient id="paint6_linear_40_214" x1="401.5" y1="22.25" x2="401.5" y2="1522.25" gradientUnits="userSpaceOnUse">
<stop stop-color="#262626"/>
<stop offset="1" stop-color="#0D0D0D"/>
</linearGradient>
<linearGradient id="paint7_linear_40_214" x1="395.5" y1="21.5" x2="395.5" y2="1671.5" gradientUnits="userSpaceOnUse">
<stop stop-color="#262626"/>
<stop offset="1" stop-color="#0D0D0D"/>
</linearGradient>
<linearGradient id="paint8_linear_40_214" x1="401.5" y1="22.25" x2="401.5" y2="1522.25" gradientUnits="userSpaceOnUse">
<stop stop-color="#262626"/>
<stop offset="1" stop-color="#0D0D0D"/>
</linearGradient>
<linearGradient id="paint9_linear_40_214" x1="407.5" y1="21.5" x2="407.5" y2="1671.5" gradientUnits="userSpaceOnUse">
<stop stop-color="#262626"/>
<stop offset="1" stop-color="#0D0D0D"/>
</linearGradient>
<linearGradient id="paint10_linear_40_214" x1="401.5" y1="22.25" x2="401.5" y2="1522.25" gradientUnits="userSpaceOnUse">
<stop stop-color="white"/>
<stop offset="1" stop-color="#F0F0F0"/>
</linearGradient>
<linearGradient id="paint11_linear_40_214" x1="104.5" y1="21.5" x2="104.5" y2="1671.5" gradientUnits="userSpaceOnUse">
<stop stop-color="white"/>
<stop offset="1" stop-color="#F0F0F0"/>
</linearGradient>
<pattern id="pattern0_40_214" patternUnits="userSpaceOnUse" patternTransform="matrix(12 0 0 12 0 0)" preserveAspectRatio="none" viewBox="0 0 12 12" width="1" height="1">
<g id="pattern0_40_214_inner">
<rect y="2" width="3" height="1" fill="#D9D9D9"/>
<rect y="8" width="3" height="1" fill="#D9D9D9"/>
<rect x="6" y="2" width="3" height="1" fill="#D9D9D9"/>
<rect x="6" y="8" width="3" height="1" fill="#D9D9D9"/>
<rect x="5" y="3" width="3" height="1" transform="rotate(180 5 3)" fill="#D9D9D9"/>
<rect x="5" y="9" width="3" height="1" transform="rotate(180 5 9)" fill="#D9D9D9"/>
<rect x="11" y="3" width="3" height="1" transform="rotate(180 11 3)" fill="#D9D9D9"/>
<rect x="11" y="9" width="3" height="1" transform="rotate(180 11 9)" fill="#D9D9D9"/>
<rect x="2" width="1" height="2" fill="#D9D9D9"/>
<rect x="2" y="6" width="1" height="2" fill="#D9D9D9"/>
<rect x="8" width="1" height="2" fill="#D9D9D9"/>
<rect x="8" y="6" width="1" height="2" fill="#D9D9D9"/>
<rect x="3" y="5" width="1" height="2" transform="rotate(180 3 5)" fill="#D9D9D9"/>
<rect x="3" y="11" width="1" height="2" transform="rotate(180 3 11)" fill="#D9D9D9"/>
<rect x="9" y="5" width="1" height="2" transform="rotate(180 9 5)" fill="#D9D9D9"/>
<rect x="9" y="11" width="1" height="2" transform="rotate(180 9 11)" fill="#D9D9D9"/>
</g>
</pattern></defs>
</svg>
