<svg width="60" height="60" viewBox="0 0 60 60" fill="none" xmlns="http://www.w3.org/2000/svg" xmlns:xlink="http://www.w3.org/1999/xlink">
<rect width="60" height="60" fill="url(#pattern0_39_41)" fill-opacity="0.1"/>
<mask id="mask0_39_41" style="mask-type:luminance" maskUnits="userSpaceOnUse" x="14" y="18" width="32" height="24">
<path d="M43.5 18.75H16.5C15.9033 18.75 15.331 18.9871 14.909 19.409C14.4871 19.831 14.25 20.4033 14.25 21V39C14.25 39.5967 14.4871 40.169 14.909 40.591C15.331 41.0129 15.9033 41.25 16.5 41.25H43.5C44.0967 41.25 44.669 41.0129 45.091 40.591C45.5129 40.169 45.75 39.5967 45.75 39V21C45.75 20.4033 45.5129 19.831 45.091 19.409C44.669 18.9871 44.0967 18.75 43.5 18.75Z" fill="url(#paint0_linear_39_41)"/>
</mask>
<g mask="url(#mask0_39_41)">
<path d="M45.75 18.75H14.25V41.25H45.75V18.75Z" fill="url(#paint1_linear_39_41)"/>
<path d="M45.75 18.75H14.25V30.75H45.75V18.75Z" fill="url(#paint2_linear_39_41)"/>
<path d="M45.75 30.75H14.25V41.25H45.75V30.75Z" fill="url(#paint3_linear_39_41)"/>
<path fill-rule="evenodd" clip-rule="evenodd" d="M16.5 18.75C15.9033 18.75 15.331 18.9871 14.909 19.409C14.4871 19.831 14.25 20.4033 14.25 21V39C14.25 39.5967 14.4871 40.169 14.909 40.591C15.331 41.0129 15.9033 41.25 16.5 41.25H43.5C44.0967 41.25 44.669 41.0129 45.091 40.591C45.5129 40.169 45.75 39.5967 45.75 39V21C45.75 20.4033 45.5129 19.831 45.091 19.409C44.669 18.9871 44.0967 18.75 43.5 18.75H16.5ZM17.25 20.25C16.8522 20.25 16.4706 20.408 16.1893 20.6893C15.908 20.9706 15.75 21.3522 15.75 21.75V38.25C15.75 38.6478 15.908 39.0294 16.1893 39.3107C16.4706 39.592 16.8522 39.75 17.25 39.75H42.75C43.1478 39.75 43.5294 39.592 43.8107 39.3107C44.092 39.0294 44.25 38.6478 44.25 38.25V21.75C44.25 21.3522 44.092 20.9706 43.8107 20.6893C43.5294 20.408 43.1478 20.25 42.75 20.25H17.25Z" fill="#000F1E" fill-opacity="0.1"/>
</g>
<defs>
<linearGradient id="paint0_linear_39_41" x1="1589.25" y1="18.75" x2="1589.25" y2="2268.75" gradientUnits="userSpaceOnUse">
<stop stop-color="white"/>
<stop offset="1" stop-color="#F0F0F0"/>
</linearGradient>
<linearGradient id="paint1_linear_39_41" x1="1589.25" y1="18.75" x2="1589.25" y2="2268.75" gradientUnits="userSpaceOnUse">
<stop stop-color="white"/>
<stop offset="1" stop-color="#F0F0F0"/>
</linearGradient>
<linearGradient id="paint2_linear_39_41" x1="1589.25" y1="18.75" x2="1589.25" y2="1218.75" gradientUnits="userSpaceOnUse">
<stop stop-color="#EA233B"/>
<stop offset="1" stop-color="#CC162C"/>
</linearGradient>
<linearGradient id="paint3_linear_39_41" x1="1589.25" y1="30.75" x2="1589.25" y2="1080.75" gradientUnits="userSpaceOnUse">
<stop stop-color="white"/>
<stop offset="1" stop-color="#F0F0F0"/>
</linearGradient>
<pattern id="pattern0_39_41" patternUnits="userSpaceOnUse" patternTransform="matrix(12 0 0 12 0 0)" preserveAspectRatio="none" viewBox="0 0 12 12" width="1" height="1">
<g id="pattern0_39_41_inner">
<rect y="2" width="3" height="1" fill="#D9D9D9"/>
<rect y="8" width="3" height="1" fill="#D9D9D9"/>
<rect x="6" y="2" width="3" height="1" fill="#D9D9D9"/>
<rect x="6" y="8" width="3" height="1" fill="#D9D9D9"/>
<rect x="5" y="3" width="3" height="1" transform="rotate(180 5 3)" fill="#D9D9D9"/>
<rect x="5" y="9" width="3" height="1" transform="rotate(180 5 9)" fill="#D9D9D9"/>
<rect x="11" y="3" width="3" height="1" transform="rotate(180 11 3)" fill="#D9D9D9"/>
<rect x="11" y="9" width="3" height="1" transform="rotate(180 11 9)" fill="#D9D9D9"/>
<rect x="2" width="1" height="2" fill="#D9D9D9"/>
<rect x="2" y="6" width="1" height="2" fill="#D9D9D9"/>
<rect x="8" width="1" height="2" fill="#D9D9D9"/>
<rect x="8" y="6" width="1" height="2" fill="#D9D9D9"/>
<rect x="3" y="5" width="1" height="2" transform="rotate(180 3 5)" fill="#D9D9D9"/>
<rect x="3" y="11" width="1" height="2" transform="rotate(180 3 11)" fill="#D9D9D9"/>
<rect x="9" y="5" width="1" height="2" transform="rotate(180 9 5)" fill="#D9D9D9"/>
<rect x="9" y="11" width="1" height="2" transform="rotate(180 9 11)" fill="#D9D9D9"/>
</g>
</pattern></defs>
</svg>
