<svg width="60" height="60" viewBox="0 0 60 60" fill="none" xmlns="http://www.w3.org/2000/svg" xmlns:xlink="http://www.w3.org/1999/xlink">
<rect width="60" height="60" fill="url(#pattern0_43_236)" fill-opacity="0.1"/>
<path d="M9.04404 49H53C55.3314 49 56.708 46.3867 55.3896 44.464L47.7357 33.302C46.9992 32.228 47.0397 30.8015 47.836 29.7711L54.1898 21.5485C54.6809 20.9129 54.7442 20.0452 54.3504 19.3451L51.6469 14.539C50.9384 13.2794 49.6057 12.5 48.1606 12.5H45.6261C44.0318 12.5 42.5897 13.4467 41.9559 14.9096L37.987 24.0684C37.0281 26.2813 35.3018 28.0731 33.126 29.1136L28.8853 31.1418C27.35 31.8761 25.6575 30.4794 26.0871 28.8327L27.7281 22.5422C27.8979 21.8916 27.7293 21.1992 27.2795 20.6994L24.8506 18.0007C23.9613 17.0125 23.3019 15.8396 22.9198 14.5662L22.1604 12.0347C22.0562 11.6874 21.8435 11.3826 21.5534 11.1651C19.9803 9.98522 17.7205 10.9595 17.4985 12.9134L16.2044 24.3013C16.0264 25.8674 13.8629 26.1344 13.3095 24.6586L10.1767 16.3046C9.79899 15.2973 8.69217 14.7693 7.67161 15.1095L3.94934 16.3502C2.88138 16.7062 2.3175 17.8731 2.70221 18.9311L7.13864 31.1313C7.68956 32.6463 8.82698 33.8759 10.2946 34.543L13.8792 36.1724C16.0641 37.1655 16.2562 40.1947 14.2143 41.4559L7.99306 45.2984C6.27876 46.3572 7.02911 49 9.04404 49Z" stroke="white" stroke-width="1.5"/>
<defs>
<pattern id="pattern0_43_236" patternUnits="userSpaceOnUse" patternTransform="matrix(12 0 0 12 0 0)" preserveAspectRatio="none" viewBox="0 0 12 12" width="1" height="1">
<g id="pattern0_43_236_inner">
<rect y="2" width="3" height="1" fill="#D9D9D9"/>
<rect y="8" width="3" height="1" fill="#D9D9D9"/>
<rect x="6" y="2" width="3" height="1" fill="#D9D9D9"/>
<rect x="6" y="8" width="3" height="1" fill="#D9D9D9"/>
<rect x="5" y="3" width="3" height="1" transform="rotate(180 5 3)" fill="#D9D9D9"/>
<rect x="5" y="9" width="3" height="1" transform="rotate(180 5 9)" fill="#D9D9D9"/>
<rect x="11" y="3" width="3" height="1" transform="rotate(180 11 3)" fill="#D9D9D9"/>
<rect x="11" y="9" width="3" height="1" transform="rotate(180 11 9)" fill="#D9D9D9"/>
<rect x="2" width="1" height="2" fill="#D9D9D9"/>
<rect x="2" y="6" width="1" height="2" fill="#D9D9D9"/>
<rect x="8" width="1" height="2" fill="#D9D9D9"/>
<rect x="8" y="6" width="1" height="2" fill="#D9D9D9"/>
<rect x="3" y="5" width="1" height="2" transform="rotate(180 3 5)" fill="#D9D9D9"/>
<rect x="3" y="11" width="1" height="2" transform="rotate(180 3 11)" fill="#D9D9D9"/>
<rect x="9" y="5" width="1" height="2" transform="rotate(180 9 5)" fill="#D9D9D9"/>
<rect x="9" y="11" width="1" height="2" transform="rotate(180 9 11)" fill="#D9D9D9"/>
</g>
</pattern></defs>
</svg>
