<svg width="60" height="60" viewBox="0 0 60 60" fill="none" xmlns="http://www.w3.org/2000/svg" xmlns:xlink="http://www.w3.org/1999/xlink">
<rect width="60" height="60" fill="url(#pattern0_40_233)" fill-opacity="0.1"/>
<mask id="mask0_40_233" style="mask-type:luminance" maskUnits="userSpaceOnUse" x="14" y="18" width="32" height="23">
<path d="M43.75 18.5H16.75C16.1533 18.5 15.581 18.7371 15.159 19.159C14.7371 19.581 14.5 20.1533 14.5 20.75V38.75C14.5 39.3467 14.7371 39.919 15.159 40.341C15.581 40.7629 16.1533 41 16.75 41H43.75C44.3467 41 44.919 40.7629 45.341 40.341C45.7629 39.919 46 39.3467 46 38.75V20.75C46 20.1533 45.7629 19.581 45.341 19.159C44.919 18.7371 44.3467 18.5 43.75 18.5Z" fill="url(#paint0_linear_40_233)"/>
</mask>
<g mask="url(#mask0_40_233)">
<path d="M46 18.5H14.5V41H46V18.5Z" fill="url(#paint1_linear_40_233)"/>
<path d="M46 18.5H14.5V41H46V18.5Z" fill="url(#paint2_linear_40_233)"/>
<path fill-rule="evenodd" clip-rule="evenodd" d="M22 32.0002H34V30.5122C34 30.0922 34.2895 29.8942 34.6795 30.0907L35.5 30.5002V32.0002H37.7425C38.161 32.0002 38.5 32.3212 38.5 32.7577V33.5002C38.5 34.3282 37.8355 35.0002 37.0015 35.0002H34.7425C34.5453 34.9971 34.3571 34.9168 34.2183 34.7766C34.0795 34.6365 34.0012 34.4475 34 34.2502V33.5002H24.2545C23.8375 33.5002 23.2645 33.2662 22.975 32.9752L22 32.0002Z" fill="url(#paint3_linear_40_233)"/>
<path fill-rule="evenodd" clip-rule="evenodd" d="M22 27.878C22 27.6695 22.117 27.383 22.27 27.2285L22.48 27.0215C22.63 26.8715 22.633 26.6315 22.48 26.4785L22.27 26.2715C22.108 26.0925 22.0126 25.8631 22 25.622V24.878C22 24.6695 22.1605 24.5 22.378 24.5H23.122C23.3305 24.5 23.5 24.6605 23.5 24.878V25.622C23.5 25.8305 23.569 25.862 23.674 25.652L24.076 24.848C24.1316 24.7498 24.2104 24.6667 24.3056 24.606C24.4008 24.5453 24.5094 24.5089 24.622 24.5H26.128C26.335 24.5 26.5 24.674 26.5 24.875C26.5 25.082 26.3395 25.25 26.122 25.25H25.378C25.2785 25.2508 25.1832 25.2904 25.1126 25.3605C25.0419 25.4306 25.0015 25.5255 25 25.625C25 25.832 25.1605 26 25.378 26H26.122C26.3305 26 26.5 26.162 26.5 26.3675V28.6325C26.5 28.6817 26.4901 28.7303 26.471 28.7756C26.4519 28.8209 26.4239 28.8619 26.3886 28.8961C26.3534 28.9304 26.3116 28.9573 26.2658 28.9751C26.22 28.9929 26.1711 29.0014 26.122 29H25.378C25.3282 29.0004 25.2789 28.9909 25.2328 28.972C25.1868 28.9532 25.145 28.9254 25.1098 28.8902C25.0746 28.855 25.0468 28.8132 25.0279 28.7671C25.0091 28.7211 24.9996 28.6718 25 28.622V27.878C25 27.6695 25.174 27.5 25.375 27.5C25.582 27.5 25.75 27.326 25.75 27.125C25.7506 27.0753 25.7412 27.026 25.7224 26.9801C25.7036 26.9341 25.6757 26.8924 25.6404 26.8574C25.6052 26.8224 25.5632 26.7949 25.5171 26.7764C25.471 26.758 25.4216 26.749 25.372 26.75H24.628C24.5291 26.7511 24.4345 26.7905 24.364 26.8599C24.2935 26.9292 24.2527 27.0232 24.25 27.122V28.628C24.2492 28.7269 24.2093 28.8215 24.1391 28.8912C24.0688 28.9609 23.9739 29 23.875 29C23.8253 29.0006 23.776 28.9912 23.73 28.9724C23.6841 28.9536 23.6423 28.9257 23.6074 28.8905C23.5724 28.8552 23.5448 28.8133 23.5264 28.7671C23.5079 28.721 23.4989 28.6717 23.5 28.622V27.878C23.4992 27.7785 23.4595 27.6833 23.3894 27.6126C23.3194 27.542 23.2244 27.5016 23.125 27.5C23.0753 27.4994 23.026 27.5088 22.98 27.5276C22.9341 27.5464 22.8923 27.5743 22.8574 27.6095C22.8224 27.6448 22.7948 27.6867 22.7764 27.7329C22.7579 27.779 22.7489 27.8283 22.75 27.878V28.622C22.7492 28.7215 22.7095 28.8167 22.6394 28.8874C22.5694 28.958 22.4744 28.9984 22.375 29C22.3253 29.0006 22.276 28.9912 22.23 28.9724C22.1841 28.9536 22.1423 28.9257 22.1074 28.8905C22.0724 28.8552 22.0448 28.8133 22.0264 28.7671C22.0079 28.721 21.9989 28.6717 22 28.622V27.878Z" fill="url(#paint4_linear_40_233)"/>
<path fill-rule="evenodd" clip-rule="evenodd" d="M34 27.878C34 27.6695 34.117 27.383 34.27 27.2285L34.48 27.0215C34.63 26.8715 34.633 26.6315 34.48 26.4785L34.27 26.2715C34.108 26.0925 34.0126 25.8631 34 25.622V24.878C34 24.6695 34.1605 24.5 34.378 24.5H35.122C35.3305 24.5 35.5 24.6605 35.5 24.878V25.622C35.5 25.8305 35.569 25.862 35.674 25.652L36.076 24.848C36.1316 24.7498 36.2104 24.6667 36.3056 24.606C36.4008 24.5453 36.5094 24.5089 36.622 24.5H38.128C38.3335 24.5 38.5 24.674 38.5 24.875C38.5 25.082 38.3395 25.25 38.122 25.25H37.378C37.2785 25.2508 37.1832 25.2904 37.1126 25.3605C37.0419 25.4306 37.0015 25.5255 37 25.625C37 25.832 37.1605 26 37.378 26H38.122C38.3305 26 38.5 26.162 38.5 26.3675V28.6325C38.5 28.6817 38.4901 28.7303 38.471 28.7756C38.4519 28.8209 38.4239 28.8619 38.3886 28.8961C38.3534 28.9304 38.3116 28.9573 38.2658 28.9751C38.22 28.9929 38.1711 29.0014 38.122 29H37.378C37.3282 29.0004 37.2789 28.9909 37.2328 28.972C37.1868 28.9532 37.145 28.9254 37.1098 28.8902C37.0746 28.855 37.0468 28.8132 37.0279 28.7671C37.0091 28.7211 36.9996 28.6718 37 28.622V27.878C37 27.6695 37.174 27.5 37.375 27.5C37.582 27.5 37.75 27.326 37.75 27.125C37.7506 27.0753 37.7412 27.026 37.7224 26.9801C37.7036 26.9341 37.6757 26.8924 37.6404 26.8574C37.6052 26.8224 37.5632 26.7949 37.5171 26.7764C37.471 26.758 37.4216 26.749 37.372 26.75H36.628C36.5291 26.7511 36.4345 26.7905 36.364 26.8599C36.2935 26.9292 36.2527 27.0232 36.25 27.122V28.628C36.2492 28.7269 36.2093 28.8215 36.1391 28.8912C36.0688 28.9609 35.9739 29 35.875 29C35.8253 29.0006 35.776 28.9912 35.73 28.9724C35.6841 28.9536 35.6423 28.9257 35.6074 28.8905C35.5724 28.8552 35.5448 28.8133 35.5264 28.7671C35.5079 28.721 35.4989 28.6717 35.5 28.622V27.878C35.4992 27.7785 35.4595 27.6833 35.3894 27.6126C35.3194 27.542 35.2244 27.5016 35.125 27.5C35.0753 27.4994 35.026 27.5088 34.98 27.5276C34.9341 27.5464 34.8923 27.5743 34.8574 27.6095C34.8224 27.6448 34.7948 27.6867 34.7764 27.7329C34.7579 27.779 34.7489 27.8283 34.75 27.878V28.622C34.7492 28.7215 34.7095 28.8167 34.6394 28.8874C34.5694 28.958 34.4744 28.9984 34.375 29C34.3253 29.0006 34.276 28.9912 34.23 28.9724C34.1841 28.9536 34.1423 28.9257 34.1074 28.8905C34.0724 28.8552 34.0448 28.8133 34.0264 28.7671C34.0079 28.721 33.9989 28.6717 34 28.622V27.878Z" fill="url(#paint5_linear_40_233)"/>
<path fill-rule="evenodd" clip-rule="evenodd" d="M32.5 25.622C32.5 25.8305 32.383 26.117 32.23 26.2715L32.02 26.4785C31.87 26.6285 31.867 26.8685 32.02 27.0215L32.23 27.2285C32.38 27.3785 32.5 27.6605 32.5 27.878V28.622C32.5004 28.6718 32.4909 28.7211 32.472 28.7671C32.4532 28.8132 32.4254 28.855 32.3902 28.8902C32.355 28.9254 32.3132 28.9532 32.2671 28.972C32.2211 28.9909 32.1718 29.0004 32.122 29H31.378C31.3282 29.0004 31.2789 28.9909 31.2329 28.972C31.1868 28.9532 31.145 28.9254 31.1098 28.8902C31.0746 28.855 31.0468 28.8132 31.028 28.7671C31.0091 28.7211 30.9996 28.6718 31 28.622V27.878C31 27.6695 30.931 27.638 30.826 27.848L30.424 28.652C30.3684 28.7502 30.2895 28.8333 30.1944 28.894C30.0992 28.9547 29.9905 28.9911 29.878 29H28.372C28.2731 28.9992 28.1785 28.9594 28.1088 28.8891C28.0391 28.8189 28 28.7239 28 28.625C28 28.418 28.1605 28.25 28.378 28.25H29.122C29.2215 28.2492 29.3167 28.2096 29.3874 28.1395C29.458 28.0694 29.4984 27.9745 29.5 27.875C29.5006 27.8253 29.4912 27.776 29.4724 27.7301C29.4536 27.6841 29.4257 27.6424 29.3905 27.6074C29.3552 27.5724 29.3133 27.5449 29.2671 27.5264C29.221 27.508 29.1717 27.499 29.122 27.5H28.378C28.329 27.501 28.2802 27.4922 28.2346 27.4743C28.189 27.4563 28.1474 27.4294 28.1122 27.3952C28.0771 27.361 28.049 27.3202 28.0298 27.2751C28.0105 27.23 28.0004 27.1815 28 27.1325V24.8675C28 24.665 28.1605 24.5 28.378 24.5H29.122C29.3305 24.5 29.5 24.6605 29.5 24.878V25.622C29.4992 25.7215 29.4596 25.8167 29.3895 25.8874C29.3194 25.958 29.2245 25.9984 29.125 26C29.0259 26.0012 28.9312 26.0411 28.8611 26.1111C28.7911 26.1812 28.7512 26.2759 28.75 26.375C28.75 26.582 28.9105 26.75 29.128 26.75H29.872C29.9709 26.7489 30.0655 26.7095 30.1359 26.6401C30.2064 26.5708 30.2473 26.4768 30.25 26.378V24.872C30.25 24.6665 30.424 24.5 30.625 24.5C30.832 24.5 31 24.6605 31 24.878V25.622C31 25.8305 31.174 26 31.375 26C31.582 26 31.75 25.8395 31.75 25.622V24.878C31.75 24.6695 31.924 24.5 32.125 24.5C32.332 24.5 32.5 24.6605 32.5 24.878V25.622Z" fill="url(#paint6_linear_40_233)"/>
</g>
<defs>
<linearGradient id="paint0_linear_40_233" x1="1589.5" y1="18.5" x2="1589.5" y2="2268.5" gradientUnits="userSpaceOnUse">
<stop stop-color="white"/>
<stop offset="1" stop-color="#F0F0F0"/>
</linearGradient>
<linearGradient id="paint1_linear_40_233" x1="1589.5" y1="18.5" x2="1589.5" y2="2268.5" gradientUnits="userSpaceOnUse">
<stop stop-color="white"/>
<stop offset="1" stop-color="#F0F0F0"/>
</linearGradient>
<linearGradient id="paint2_linear_40_233" x1="1589.5" y1="18.5" x2="1589.5" y2="2268.5" gradientUnits="userSpaceOnUse">
<stop stop-color="#128C4B"/>
<stop offset="1" stop-color="#0B6C38"/>
</linearGradient>
<linearGradient id="paint3_linear_40_233" x1="847" y1="30.0142" x2="847" y2="528.61" gradientUnits="userSpaceOnUse">
<stop stop-color="white"/>
<stop offset="1" stop-color="#F0F0F0"/>
</linearGradient>
<linearGradient id="paint4_linear_40_233" x1="247" y1="24.5" x2="247" y2="474.5" gradientUnits="userSpaceOnUse">
<stop stop-color="white"/>
<stop offset="1" stop-color="#F0F0F0"/>
</linearGradient>
<linearGradient id="paint5_linear_40_233" x1="259" y1="24.5" x2="259" y2="474.5" gradientUnits="userSpaceOnUse">
<stop stop-color="white"/>
<stop offset="1" stop-color="#F0F0F0"/>
</linearGradient>
<linearGradient id="paint6_linear_40_233" x1="253" y1="24.5" x2="253" y2="474.5" gradientUnits="userSpaceOnUse">
<stop stop-color="white"/>
<stop offset="1" stop-color="#F0F0F0"/>
</linearGradient>
<pattern id="pattern0_40_233" patternUnits="userSpaceOnUse" patternTransform="matrix(12 0 0 12 0 0)" preserveAspectRatio="none" viewBox="0 0 12 12" width="1" height="1">
<g id="pattern0_40_233_inner">
<rect y="2" width="3" height="1" fill="#D9D9D9"/>
<rect y="8" width="3" height="1" fill="#D9D9D9"/>
<rect x="6" y="2" width="3" height="1" fill="#D9D9D9"/>
<rect x="6" y="8" width="3" height="1" fill="#D9D9D9"/>
<rect x="5" y="3" width="3" height="1" transform="rotate(180 5 3)" fill="#D9D9D9"/>
<rect x="5" y="9" width="3" height="1" transform="rotate(180 5 9)" fill="#D9D9D9"/>
<rect x="11" y="3" width="3" height="1" transform="rotate(180 11 3)" fill="#D9D9D9"/>
<rect x="11" y="9" width="3" height="1" transform="rotate(180 11 9)" fill="#D9D9D9"/>
<rect x="2" width="1" height="2" fill="#D9D9D9"/>
<rect x="2" y="6" width="1" height="2" fill="#D9D9D9"/>
<rect x="8" width="1" height="2" fill="#D9D9D9"/>
<rect x="8" y="6" width="1" height="2" fill="#D9D9D9"/>
<rect x="3" y="5" width="1" height="2" transform="rotate(180 3 5)" fill="#D9D9D9"/>
<rect x="3" y="11" width="1" height="2" transform="rotate(180 3 11)" fill="#D9D9D9"/>
<rect x="9" y="5" width="1" height="2" transform="rotate(180 9 5)" fill="#D9D9D9"/>
<rect x="9" y="11" width="1" height="2" transform="rotate(180 9 11)" fill="#D9D9D9"/>
</g>
</pattern></defs>
</svg>
