<svg width="60" height="60" viewBox="0 0 60 60" fill="none" xmlns="http://www.w3.org/2000/svg" xmlns:xlink="http://www.w3.org/1999/xlink">
<rect width="60" height="60" fill="url(#pattern0_60_15)" fill-opacity="0.1"/>
<path d="M14.5 50.5H50.2573C51.053 50.5 51.816 50.1839 52.3786 49.6213L52.6213 49.3787C53.1839 48.8161 53.5 48.053 53.5 47.2573V45.5862C53.5 44.8843 53.746 44.2047 54.1953 43.6656L55.2015 42.4583C55.7033 41.856 55.8876 41.0504 55.6975 40.2899C55.5693 39.777 55.279 39.3192 54.8699 38.9844L50.6151 35.5032C50.212 35.1734 49.9017 34.7444 49.7147 34.2583L47.8403 29.3848C47.6188 28.809 47.5803 28.1788 47.7299 27.5803L47.9104 26.8583C47.9699 26.6203 48 26.376 48 26.1307V13.5C48 11.8431 46.6569 10.5 45 10.5H41.5C40.8509 10.5 40.2193 10.7105 39.7 11.1L38.9432 11.6676C38.6502 11.8873 38.3195 12.0516 37.9673 12.1522L36.0256 12.707C35.3622 12.8965 34.6538 12.8516 34.0196 12.5798L32.2643 11.8276C31.7644 11.6133 31.3328 11.2659 31.0167 10.8233C29.9569 9.33964 27.8233 9.15133 26.52 10.4265L18.2398 18.5278C17.9221 18.8387 17.5392 19.0751 17.1189 19.2199L11.1546 21.2745C10.7239 21.4229 10.3326 21.6674 10.0104 21.9896L7.08757 24.9124C6.7031 25.2969 6.43034 25.7786 6.29846 26.3061L6.09017 27.1393C6.0305 27.378 5.93024 27.6046 5.79376 27.8094L5.5547 28.1679C5.2188 28.6718 5.2188 29.3282 5.5547 29.8321C5.8329 30.2493 6.30125 30.5 6.80278 30.5H22.6683C22.8884 30.5 23.1075 30.4701 23.3196 30.4112L24.6333 30.0463C29.3234 28.7435 33.2423 25.5153 35.4192 21.1615C35.9867 20.0266 37.434 19.6671 38.4665 20.4046L39.2476 20.9626C39.7369 21.3121 40.3233 21.5 40.9246 21.5H41C42.6569 21.5 44 22.8431 44 24.5V29.1548C44 29.3845 44.0198 29.6138 44.0592 29.8401L45.3982 37.5395C45.7141 39.3562 44.3318 41.0253 42.488 41.0532L13.397 41.494C13.1335 41.498 12.8716 41.5367 12.6183 41.6091L10.6745 42.1644C9.92152 42.3796 9.2825 42.8806 8.89396 43.5606L8.81395 43.7006C8.0633 45.0142 8.4083 46.6812 9.61868 47.589L12.7 49.9C13.2193 50.2895 13.8509 50.5 14.5 50.5Z" stroke="white" stroke-width="1.5"/>
<defs>
<pattern id="pattern0_60_15" patternUnits="userSpaceOnUse" patternTransform="matrix(12 0 0 12 0 0)" preserveAspectRatio="none" viewBox="0 0 12 12" width="1" height="1">
<g id="pattern0_60_15_inner">
<rect y="2" width="3" height="1" fill="#D9D9D9"/>
<rect y="8" width="3" height="1" fill="#D9D9D9"/>
<rect x="6" y="2" width="3" height="1" fill="#D9D9D9"/>
<rect x="6" y="8" width="3" height="1" fill="#D9D9D9"/>
<rect x="5" y="3" width="3" height="1" transform="rotate(180 5 3)" fill="#D9D9D9"/>
<rect x="5" y="9" width="3" height="1" transform="rotate(180 5 9)" fill="#D9D9D9"/>
<rect x="11" y="3" width="3" height="1" transform="rotate(180 11 3)" fill="#D9D9D9"/>
<rect x="11" y="9" width="3" height="1" transform="rotate(180 11 9)" fill="#D9D9D9"/>
<rect x="2" width="1" height="2" fill="#D9D9D9"/>
<rect x="2" y="6" width="1" height="2" fill="#D9D9D9"/>
<rect x="8" width="1" height="2" fill="#D9D9D9"/>
<rect x="8" y="6" width="1" height="2" fill="#D9D9D9"/>
<rect x="3" y="5" width="1" height="2" transform="rotate(180 3 5)" fill="#D9D9D9"/>
<rect x="3" y="11" width="1" height="2" transform="rotate(180 3 11)" fill="#D9D9D9"/>
<rect x="9" y="5" width="1" height="2" transform="rotate(180 9 5)" fill="#D9D9D9"/>
<rect x="9" y="11" width="1" height="2" transform="rotate(180 9 11)" fill="#D9D9D9"/>
</g>
</pattern></defs>
</svg>
