<svg width="60" height="60" viewBox="0 0 60 60" fill="none" xmlns="http://www.w3.org/2000/svg" xmlns:xlink="http://www.w3.org/1999/xlink">
<rect width="60" height="60" fill="url(#pattern0_40_224)" fill-opacity="0.1"/>
<mask id="mask0_40_224" style="mask-type:luminance" maskUnits="userSpaceOnUse" x="14" y="18" width="32" height="23">
<path d="M43.75 18.5H16.75C16.1533 18.5 15.581 18.7371 15.159 19.159C14.7371 19.581 14.5 20.1533 14.5 20.75V38.75C14.5 39.3467 14.7371 39.919 15.159 40.341C15.581 40.7629 16.1533 41 16.75 41H43.75C44.3467 41 44.919 40.7629 45.341 40.341C45.7629 39.919 46 39.3467 46 38.75V20.75C46 20.1533 45.7629 19.581 45.341 19.159C44.919 18.7371 44.3467 18.5 43.75 18.5Z" fill="url(#paint0_linear_40_224)"/>
</mask>
<g mask="url(#mask0_40_224)">
<path d="M46 18.5H14.5V41H46V18.5Z" fill="url(#paint1_linear_40_224)"/>
<path d="M46 18.5H14.5V24.5H46V18.5Z" fill="url(#paint2_linear_40_224)"/>
<path d="M46 35H14.5V41H46V35Z" fill="url(#paint3_linear_40_224)"/>
<path d="M46 24.5H14.5V35H46V24.5Z" fill="url(#paint4_linear_40_224)"/>
<path fill-rule="evenodd" clip-rule="evenodd" d="M22.75 29H24.25V29.75H22.75V29Z" fill="#FFEDB1"/>
<path d="M21.8725 31.1895C21.91 31.632 22.309 31.9995 22.75 31.9995C23.191 31.9995 23.59 31.6305 23.6275 31.1895L23.8105 28.9995H21.6895L21.8725 31.1895ZM20.9365 28.992C20.9282 28.8963 20.9403 28.7998 20.9718 28.709C21.0033 28.6182 21.0536 28.5351 21.1194 28.465C21.1852 28.395 21.2651 28.3396 21.3537 28.3024C21.4424 28.2653 21.5379 28.2473 21.634 28.2495H23.866C23.9625 28.2458 24.0586 28.2628 24.148 28.2995C24.2373 28.3361 24.3178 28.3915 24.3839 28.4619C24.45 28.5322 24.5002 28.616 24.5312 28.7075C24.5622 28.7989 24.5732 28.8959 24.5635 28.992L24.3745 31.251C24.3357 31.657 24.1485 32.0344 23.8488 32.3109C23.549 32.5874 23.1578 32.7436 22.75 32.7495C22.3422 32.7436 21.9509 32.5874 21.6512 32.3109C21.3514 32.0344 21.1642 31.657 21.1255 31.251L20.9365 28.992Z" fill="#A41517"/>
<path fill-rule="evenodd" clip-rule="evenodd" d="M21.25 29.75H24.25V30.5H23.5L22.75 32L22 30.5H21.25V29.75Z" fill="#A41517"/>
<path d="M20.5 27.5H19V32.75H20.5V27.5ZM26.5 27.5H25V32.75H26.5V27.5Z" fill="#A41517"/>
<path fill-rule="evenodd" clip-rule="evenodd" d="M21.25 26.75C21.25 26.336 21.571 26 22.0075 26H23.4925C23.911 26 24.25 26.348 24.25 26.75V27.122C24.2508 27.2207 24.2126 27.3157 24.1439 27.3865C24.0751 27.4572 23.9811 27.498 23.8825 27.5H21.6175C21.5683 27.5 21.5196 27.4902 21.4744 27.4711C21.4291 27.4519 21.3881 27.4239 21.3538 27.3887C21.3196 27.3534 21.2927 27.3117 21.2749 27.2659C21.257 27.2201 21.2486 27.1711 21.25 27.122V26.75Z" fill="#A41517"/>
</g>
<defs>
<linearGradient id="paint0_linear_40_224" x1="1589.5" y1="18.5" x2="1589.5" y2="2268.5" gradientUnits="userSpaceOnUse">
<stop stop-color="white"/>
<stop offset="1" stop-color="#F0F0F0"/>
</linearGradient>
<linearGradient id="paint1_linear_40_224" x1="1589.5" y1="18.5" x2="1589.5" y2="2268.5" gradientUnits="userSpaceOnUse">
<stop stop-color="white"/>
<stop offset="1" stop-color="#F0F0F0"/>
</linearGradient>
<linearGradient id="paint2_linear_40_224" x1="1589.5" y1="18.5" x2="1589.5" y2="618.5" gradientUnits="userSpaceOnUse">
<stop stop-color="#DD172C"/>
<stop offset="1" stop-color="#C60B1F"/>
</linearGradient>
<linearGradient id="paint3_linear_40_224" x1="1589.5" y1="35" x2="1589.5" y2="635" gradientUnits="userSpaceOnUse">
<stop stop-color="#DD172C"/>
<stop offset="1" stop-color="#C60B1F"/>
</linearGradient>
<linearGradient id="paint4_linear_40_224" x1="1589.5" y1="24.5" x2="1589.5" y2="1074.5" gradientUnits="userSpaceOnUse">
<stop stop-color="#FFD133"/>
<stop offset="1" stop-color="#FFC500"/>
</linearGradient>
<pattern id="pattern0_40_224" patternUnits="userSpaceOnUse" patternTransform="matrix(12 0 0 12 0 0)" preserveAspectRatio="none" viewBox="0 0 12 12" width="1" height="1">
<g id="pattern0_40_224_inner">
<rect y="2" width="3" height="1" fill="#D9D9D9"/>
<rect y="8" width="3" height="1" fill="#D9D9D9"/>
<rect x="6" y="2" width="3" height="1" fill="#D9D9D9"/>
<rect x="6" y="8" width="3" height="1" fill="#D9D9D9"/>
<rect x="5" y="3" width="3" height="1" transform="rotate(180 5 3)" fill="#D9D9D9"/>
<rect x="5" y="9" width="3" height="1" transform="rotate(180 5 9)" fill="#D9D9D9"/>
<rect x="11" y="3" width="3" height="1" transform="rotate(180 11 3)" fill="#D9D9D9"/>
<rect x="11" y="9" width="3" height="1" transform="rotate(180 11 9)" fill="#D9D9D9"/>
<rect x="2" width="1" height="2" fill="#D9D9D9"/>
<rect x="2" y="6" width="1" height="2" fill="#D9D9D9"/>
<rect x="8" width="1" height="2" fill="#D9D9D9"/>
<rect x="8" y="6" width="1" height="2" fill="#D9D9D9"/>
<rect x="3" y="5" width="1" height="2" transform="rotate(180 3 5)" fill="#D9D9D9"/>
<rect x="3" y="11" width="1" height="2" transform="rotate(180 3 11)" fill="#D9D9D9"/>
<rect x="9" y="5" width="1" height="2" transform="rotate(180 9 5)" fill="#D9D9D9"/>
<rect x="9" y="11" width="1" height="2" transform="rotate(180 9 11)" fill="#D9D9D9"/>
</g>
</pattern></defs>
</svg>
