<svg width="60" height="60" viewBox="0 0 60 60" fill="none" xmlns="http://www.w3.org/2000/svg" xmlns:xlink="http://www.w3.org/1999/xlink">
<rect width="60" height="60" fill="url(#pattern0_40_65)" fill-opacity="0.1"/>
<mask id="mask0_40_65" style="mask-type:luminance" maskUnits="userSpaceOnUse" x="14" y="19" width="32" height="23">
<path d="M43.25 19H16.25C15.6533 19 15.081 19.2371 14.659 19.659C14.2371 20.081 14 20.6533 14 21.25V39.25C14 39.8467 14.2371 40.419 14.659 40.841C15.081 41.2629 15.6533 41.5 16.25 41.5H43.25C43.8467 41.5 44.419 41.2629 44.841 40.841C45.2629 40.419 45.5 39.8467 45.5 39.25V21.25C45.5 20.6533 45.2629 20.081 44.841 19.659C44.419 19.2371 43.8467 19 43.25 19Z" fill="url(#paint0_linear_40_65)"/>
</mask>
<g mask="url(#mask0_40_65)">
<path d="M45.5 19H14V41.5H45.5V19Z" fill="url(#paint1_linear_40_65)"/>
<path d="M45.5 19H14V41.5H45.5V19Z" fill="url(#paint2_linear_40_65)"/>
<path fill-rule="evenodd" clip-rule="evenodd" d="M14 32.5H23V41.5H27.5V32.5H45.5V28H27.5V19H23V28H14V32.5Z" fill="url(#paint3_linear_40_65)"/>
</g>
<defs>
<linearGradient id="paint0_linear_40_65" x1="1589" y1="19" x2="1589" y2="2269" gradientUnits="userSpaceOnUse">
<stop stop-color="white"/>
<stop offset="1" stop-color="#F0F0F0"/>
</linearGradient>
<linearGradient id="paint1_linear_40_65" x1="1589" y1="19" x2="1589" y2="2269" gradientUnits="userSpaceOnUse">
<stop stop-color="white"/>
<stop offset="1" stop-color="#F0F0F0"/>
</linearGradient>
<linearGradient id="paint2_linear_40_65" x1="1589" y1="19" x2="1589" y2="2269" gradientUnits="userSpaceOnUse">
<stop stop-color="#157CBB"/>
<stop offset="1" stop-color="#0E6CA5"/>
</linearGradient>
<linearGradient id="paint3_linear_40_65" x1="1589" y1="19" x2="1589" y2="2269" gradientUnits="userSpaceOnUse">
<stop stop-color="#FFD34D"/>
<stop offset="1" stop-color="#FECB2F"/>
</linearGradient>
<pattern id="pattern0_40_65" patternUnits="userSpaceOnUse" patternTransform="matrix(12 0 0 12 0 0)" preserveAspectRatio="none" viewBox="0 0 12 12" width="1" height="1">
<g id="pattern0_40_65_inner">
<rect y="2" width="3" height="1" fill="#D9D9D9"/>
<rect y="8" width="3" height="1" fill="#D9D9D9"/>
<rect x="6" y="2" width="3" height="1" fill="#D9D9D9"/>
<rect x="6" y="8" width="3" height="1" fill="#D9D9D9"/>
<rect x="5" y="3" width="3" height="1" transform="rotate(180 5 3)" fill="#D9D9D9"/>
<rect x="5" y="9" width="3" height="1" transform="rotate(180 5 9)" fill="#D9D9D9"/>
<rect x="11" y="3" width="3" height="1" transform="rotate(180 11 3)" fill="#D9D9D9"/>
<rect x="11" y="9" width="3" height="1" transform="rotate(180 11 9)" fill="#D9D9D9"/>
<rect x="2" width="1" height="2" fill="#D9D9D9"/>
<rect x="2" y="6" width="1" height="2" fill="#D9D9D9"/>
<rect x="8" width="1" height="2" fill="#D9D9D9"/>
<rect x="8" y="6" width="1" height="2" fill="#D9D9D9"/>
<rect x="3" y="5" width="1" height="2" transform="rotate(180 3 5)" fill="#D9D9D9"/>
<rect x="3" y="11" width="1" height="2" transform="rotate(180 3 11)" fill="#D9D9D9"/>
<rect x="9" y="5" width="1" height="2" transform="rotate(180 9 5)" fill="#D9D9D9"/>
<rect x="9" y="11" width="1" height="2" transform="rotate(180 9 11)" fill="#D9D9D9"/>
</g>
</pattern></defs>
</svg>
