<svg width="24" height="24" viewBox="0 0 24 24" fill="none" xmlns="http://www.w3.org/2000/svg">
<g clip-path="url(#clip0_458_3589)">
<path d="M12 24C18.6274 24 24 18.6274 24 12C24 5.37258 18.6274 0 12 0C5.37258 0 0 5.37258 0 12C0 18.6274 5.37258 24 12 24Z" fill="#F0F0F0"/>
<path d="M9.39137 10.4348H23.8984C23.1314 4.54697 18.0969 0 12 0C11.104 0 10.2313 0.0990469 9.39133 0.285234V10.4348H9.39137Z" fill="#D80027"/>
<path d="M6.26087 10.4348V1.45911C2.96589 3.25695 0.607046 6.55465 0.101593 10.4348H6.26087V10.4348Z" fill="#D80027"/>
<path d="M6.26083 13.5652H0.101593C0.607046 17.4454 2.96589 20.7431 6.26087 22.5409L6.26083 13.5652Z" fill="#D80027"/>
<path d="M9.39133 13.5652V23.7147C10.2313 23.9009 11.104 24 12 24C18.0969 24 23.1314 19.453 23.8984 13.5652H9.39133V13.5652Z" fill="#D80027"/>
</g>
<defs>
<clipPath id="clip0_458_3589">
<rect width="24" height="24" fill="white"/>
</clipPath>
</defs>
</svg>
