<svg width="24" height="24" viewBox="0 0 24 24" fill="none" xmlns="http://www.w3.org/2000/svg">
<g clip-path="url(#clip0_458_2653)">
<path d="M12 24C18.6274 24 24 18.6274 24 12C24 5.37258 18.6274 0 12 0C5.37258 0 0 5.37258 0 12C0 18.6274 5.37258 24 12 24Z" fill="#496E2D"/>
<path d="M14.087 11.4996C13.7924 11.4996 13.5127 11.5584 13.2531 11.6518C13.3953 11.3348 13.4907 10.982 13.4907 10.6053C13.4907 9.1146 12 7.99658 12 7.99658C12 7.99658 10.5094 9.1146 10.5094 10.6053C10.5094 10.982 10.6048 11.3348 10.747 11.6518C10.4873 11.5585 10.2076 11.4996 9.91312 11.4996C8.42245 11.4996 7.30444 12.9903 7.30444 12.9903C7.30444 12.9903 8.42245 14.481 9.91312 14.481C10.7871 14.481 11.5325 13.9688 12.0001 13.5448C12.4677 13.9687 13.2131 14.481 14.0871 14.481C15.5777 14.481 16.6957 12.9903 16.6957 12.9903C16.6957 12.9903 15.5776 11.4996 14.087 11.4996Z" fill="#F0F0F0"/>
<path d="M12 4.69556L12.3079 5.64318H13.3043L12.4983 6.22893L12.806 7.17656L12 6.59081L11.194 7.17656L11.5017 6.22893L10.6957 5.64318H11.6921L12 4.69556Z" fill="#FFDA44"/>
<path d="M8.21095 6.35303L8.80335 6.88637L9.49368 6.48784L9.1695 7.21604L9.76186 7.74948L8.96911 7.66614L8.64492 8.39434L8.47907 7.61467L7.68637 7.53132L8.37665 7.1327L8.21095 6.35303Z" fill="#FFDA44"/>
<path d="M5.43722 9.12668L6.21694 9.29238L6.61551 8.60205L6.69886 9.39475L7.47848 9.5606L6.75033 9.88483L6.83367 10.6775L6.30019 10.0852L5.57203 10.4094L5.97061 9.71903L5.43722 9.12668Z" fill="#FFDA44"/>
<path d="M15.7891 6.35303L15.1967 6.88637L14.5064 6.48784L14.8305 7.21604L14.2382 7.74948L15.0309 7.66614L15.3551 8.39434L15.521 7.61467L16.3137 7.53132L15.6234 7.1327L15.7891 6.35303Z" fill="#FFDA44"/>
<path d="M18.5628 9.12668L17.7831 9.29238L17.3846 8.60205L17.3012 9.39475L16.5216 9.5606L17.2497 9.88483L17.1664 10.6775L17.6999 10.0852L18.428 10.4094L18.0294 9.71903L18.5628 9.12668Z" fill="#FFDA44"/>
<path d="M12 18.6548C13.1841 18.6548 14.2755 18.2597 15.1511 17.595H8.84897C9.7245 18.2597 10.8159 18.6548 12 18.6548Z" fill="#F0F0F0"/>
<path d="M7.2172 15.5244C7.38281 15.9034 7.59281 16.2584 7.83947 16.5842H16.1606C16.4073 16.2585 16.6173 15.9034 16.7829 15.5244H7.2172Z" fill="#F0F0F0"/>
</g>
<defs>
<clipPath id="clip0_458_2653">
<rect width="24" height="24" fill="white"/>
</clipPath>
</defs>
</svg>
