<svg width="24" height="24" viewBox="0 0 24 24" fill="none" xmlns="http://www.w3.org/2000/svg">
<g clip-path="url(#clip0_458_2681)">
<path d="M12 24C18.6274 24 24 18.6274 24 12C24 5.37258 18.6274 0 12 0C5.37258 0 0 5.37258 0 12C0 18.6274 5.37258 24 12 24Z" fill="#F0F0F0"/>
<path d="M11.4783 11.9998H24C24 10.9167 23.8556 9.86754 23.5866 8.86938H11.4783V11.9998Z" fill="#D80027"/>
<path d="M11.4783 5.7391H22.2387C21.5041 4.54041 20.565 3.48089 19.4698 2.60864H11.4783V5.7391Z" fill="#D80027"/>
<path d="M12 24C14.8242 24 17.42 23.0239 19.4699 21.3914H4.53015C6.58004 23.0239 9.17584 24 12 24Z" fill="#D80027"/>
<path d="M1.76128 18.2608H22.2387C22.8285 17.2986 23.2858 16.2467 23.5866 15.1304H0.413391C0.714188 16.2467 1.17155 17.2986 1.76128 18.2608Z" fill="#D80027"/>
<path d="M12 12C12 5.37262 12 4.59131 12 0C5.37262 0 0 5.37262 0 12H12Z" fill="#0052B4"/>
<path d="M7.97973 10.2716C6.34089 10.2716 5.01236 8.94302 5.01236 7.30422C5.01236 5.66543 6.34094 4.33685 7.97973 4.33685C8.49072 4.33685 8.97151 4.46608 9.39128 4.69352C8.73278 4.0496 7.83222 3.6521 6.83842 3.6521C4.82144 3.6521 3.18625 5.28724 3.18625 7.30427C3.18625 9.3213 4.82144 10.9564 6.83842 10.9564C7.83222 10.9564 8.73278 10.5589 9.39128 9.91502C8.97151 10.1424 8.49076 10.2716 7.97973 10.2716Z" fill="#FFDA44"/>
<path d="M8.81595 5.21729L9.34278 6.31894L10.5325 6.04407L9.99973 7.14277L10.9565 7.90153L9.76526 8.17008L9.76859 9.39122L8.81595 8.62725L7.86326 9.39122L7.86654 8.17008L6.67526 7.90153L7.63208 7.14277L7.09925 6.04407L8.28907 6.31894L8.81595 5.21729Z" fill="#FFDA44"/>
</g>
<defs>
<clipPath id="clip0_458_2681">
<rect width="24" height="24" fill="white"/>
</clipPath>
</defs>
</svg>
