<svg width="24" height="24" viewBox="0 0 24 24" fill="none" xmlns="http://www.w3.org/2000/svg">
<g clip-path="url(#clip0_458_3551)">
<path d="M12 24C18.6274 24 24 18.6274 24 12C24 5.37258 18.6274 0 12 0C5.37258 0 0 5.37258 0 12C0 18.6274 5.37258 24 12 24Z" fill="#F0F0F0"/>
<path d="M24 12C24 5.37262 18.6274 0 12 0C9.65251 0 7.46279 0.674766 5.61319 1.83989L8.24349 2.95744L4.69566 4.46484L8.24349 5.9722L4.69566 7.47952L8.24349 8.98678L4.69566 10.4939L8.24349 12.0008L4.69566 13.5082L8.24349 15.0154L4.69566 16.5225L8.24349 18.0297L4.69566 19.537L8.24349 21.0441L5.61437 22.161C7.46373 23.3256 9.65298 24 12 24C18.6274 24 24 18.6274 24 12Z" fill="#751A46"/>
</g>
<defs>
<clipPath id="clip0_458_3551">
<rect width="24" height="24" fill="white"/>
</clipPath>
</defs>
</svg>
