<svg width="24" height="24" viewBox="0 0 24 24" fill="none" xmlns="http://www.w3.org/2000/svg">
<g clip-path="url(#clip0_458_3986)">
<path d="M12 24C18.6274 24 24 18.6274 24 12C24 5.37258 18.6274 0 12 0C5.37258 0 0 5.37258 0 12C0 18.6274 5.37258 24 12 24Z" fill="#F0F0F0"/>
<path d="M3.51468 20.4853C-1.1716 15.7989 -1.1716 8.20098 3.51468 3.51465C3.51435 3.51516 10.4348 12 10.4348 12L3.51468 20.4853Z" fill="black"/>
<path d="M10.4348 12L1.59155 6.02405C1.31737 6.50063 1.07559 6.99806 0.867844 7.51294L5.34483 12L0.867984 16.4874C1.07555 17.0019 1.31709 17.499 1.59108 17.9753L10.4348 12Z" fill="#FFDA44"/>
<path d="M23.8984 10.4348H10.4345L3.5146 3.51489C2.76891 4.26058 2.12105 5.10391 1.59155 6.02411L7.55588 12L1.59108 17.9752C2.12058 18.8956 2.76872 19.7392 3.5146 20.4851L10.4345 13.5652H23.8984C23.9651 13.0529 24 12.5305 24 12C24 11.4695 23.9651 10.9472 23.8984 10.4348Z" fill="#6DA544"/>
<path d="M4.69397 21.5193C6.71752 23.0747 9.2505 24 12 24C17.5443 24 22.2096 20.2397 23.5866 15.1305H11.0828L4.69397 21.5193Z" fill="#0052B4"/>
<path d="M23.5866 8.86955C22.2096 3.76036 17.5443 0 12 0C9.2505 0 6.71752 0.925359 4.69397 2.48077L11.0828 8.86955H23.5866Z" fill="#D80027"/>
</g>
<defs>
<clipPath id="clip0_458_3986">
<rect width="24" height="24" fill="white"/>
</clipPath>
</defs>
</svg>
