<svg width="60" height="60" viewBox="0 0 60 60" fill="none" xmlns="http://www.w3.org/2000/svg" xmlns:xlink="http://www.w3.org/1999/xlink">
<rect width="60" height="60" fill="url(#pattern0_250_22)" fill-opacity="0.1"/>
<path d="M3 9.40883L2.62719 8.75805L2.22251 8.98988L2.25144 9.45537L3 9.40883ZM3.29221 9.24144L3.15989 8.5032L3.03208 8.52611L2.9194 8.59066L3.29221 9.24144ZM3.71547 9.16557L3.69384 8.41589L3.63807 8.4175L3.58315 8.42734L3.71547 9.16557ZM9.45354 9L9.49022 8.2509L9.46108 8.24947L9.43191 8.25031L9.45354 9ZM15.1796 9.28034L15.1429 10.0294L15.1612 10.0303H15.1796V9.28034ZM38.2715 9.28034L38.3565 8.53517L38.3142 8.53034H38.2715V9.28034ZM38.8612 9.34758L39.0188 8.61433L38.9828 8.60659L38.9462 8.60241L38.8612 9.34758ZM39.3789 9.45888L39.5607 8.73125L39.5487 8.72824L39.5366 8.72563L39.3789 9.45888ZM39.9401 9.5991L40.2175 8.90227L40.1707 8.88366L40.1219 8.87147L39.9401 9.5991ZM40.4892 9.81767L40.8776 9.17606L40.8244 9.14385L40.7666 9.12084L40.4892 9.81767ZM41.037 10.1493L41.4433 9.51885L41.4344 9.51312L41.4254 9.50764L41.037 10.1493ZM41.6861 10.5676L42.1788 10.0021L42.1379 9.96654L42.0924 9.93719L41.6861 10.5676ZM56.81 23.7464L57.4145 23.3026C57.3818 23.258 57.3443 23.2173 57.3027 23.181L56.81 23.7464ZM56.9906 24.38L57.7185 24.5608C57.7257 24.5318 57.7311 24.5023 57.7348 24.4727L56.9906 24.38ZM56.8137 24.7762L57.2465 25.3887C57.3066 25.3462 57.3602 25.295 57.4055 25.2369L56.8137 24.7762ZM56.3345 25.0675L56.0375 24.3789C56.0299 24.3821 56.0224 24.3855 56.0149 24.3891L56.3345 25.0675ZM55.7313 25.1665L55.5953 25.904C55.6284 25.9101 55.6618 25.914 55.6953 25.9156L55.7313 25.1665ZM51.0287 24.2995L51.1647 23.562C51.1525 23.5597 51.1401 23.5578 51.1278 23.5561L51.0287 24.2995ZM50.6458 24.2485L50.7448 23.5051C50.7141 23.501 50.6831 23.4988 50.6521 23.4985L50.6458 24.2485ZM48.9511 24.2342L48.9575 23.4842C48.9039 23.4838 48.8504 23.4891 48.7979 23.5L48.9511 24.2342ZM48.7243 24.2816L48.571 23.5474C48.5082 23.5605 48.4473 23.5816 48.3899 23.6102L48.7243 24.2816ZM48.4656 24.4104L48.1312 23.7391C48.0848 23.7622 48.0409 23.7901 48.0002 23.8223L48.4656 24.4104ZM45.0302 27.1289L44.5648 26.5407C44.5546 26.5487 44.5447 26.557 44.535 26.5655L45.0302 27.1289ZM44.8648 27.4783L45.6012 27.6204L45.6012 27.6202L44.8648 27.4783ZM44.86 27.503L45.5794 27.7152C45.5862 27.6921 45.5918 27.6687 45.5964 27.6452L44.86 27.503ZM44.8388 27.941L45.5832 27.8488L45.5831 27.8486L44.8388 27.941ZM44.8424 27.9699L44.0981 28.0621C44.106 28.1258 44.122 28.1882 44.1458 28.2478L44.8424 27.9699ZM47.2106 33.9074L46.514 34.1852C46.5276 34.2193 46.5437 34.2524 46.5621 34.2841L47.2106 33.9074ZM47.4433 34.3078L46.7948 34.6846C46.8077 34.7068 46.8218 34.7284 46.8369 34.7492L47.4433 34.3078ZM47.7023 34.6637L47.0959 35.105C47.1158 35.1324 47.1375 35.1583 47.1609 35.1828L47.7023 34.6637ZM49.3482 36.3802L48.8068 36.8993C48.8261 36.9194 48.8464 36.9383 48.8678 36.9562L49.3482 36.3802ZM52.8214 39.2771L53.3184 38.7154C53.3129 38.7106 53.3074 38.7058 53.3017 38.7011L52.8214 39.2771ZM54.511 40.7722L55.0675 40.2695C55.0488 40.2487 55.0289 40.2291 55.008 40.2106L54.511 40.7722ZM54.9601 41.2694L55.5423 40.7966C55.534 40.7864 55.5255 40.7764 55.5167 40.7666L54.9601 41.2694ZM55.3008 41.7398L55.9712 41.4033C55.9602 41.3814 55.9481 41.36 55.935 41.3393L55.3008 41.7398ZM55.535 42.2562L54.8443 42.5484L54.8451 42.5504L55.535 42.2562ZM55.7313 43.015L56.4811 42.9959C56.4805 42.9747 56.4791 42.9536 56.4768 42.9325L55.7313 43.015ZM55.9133 50.1703L56.6596 50.2448C56.6627 50.2137 56.6638 50.1824 56.663 50.1512L55.9133 50.1703ZM55.8527 50.48L56.5532 50.7478C56.5636 50.7207 56.5723 50.6931 56.5795 50.665L55.8527 50.48ZM55.6903 50.7717L56.241 51.2808C56.2548 51.2659 56.268 51.2503 56.2806 51.2343L55.6903 50.7717ZM55.3833 50.9798L55.4678 51.725C55.5088 51.7203 55.5493 51.7123 55.589 51.701L55.3833 50.9798ZM55.0424 50.9892L54.9747 51.7361C54.9871 51.7373 54.9996 51.7381 55.012 51.7386L55.0424 50.9892ZM54.6874 50.9142L54.4755 51.6336C54.4839 51.6361 54.4924 51.6384 54.5009 51.6406L54.6874 50.9142ZM54.3233 50.6777L53.7287 51.1348C53.7647 51.1817 53.8062 51.2242 53.8523 51.2614L54.3233 50.6777ZM37.8468 29.2456L38.4414 28.7885C38.3898 28.7214 38.3272 28.6636 38.2564 28.6173L37.8468 29.2456ZM37.0866 28.9978L37.1534 28.2508C37.1377 28.2494 37.122 28.2485 37.1062 28.2481L37.0866 28.9978ZM36.456 28.9813L36.4757 28.2316C36.4377 28.2306 36.3998 28.2325 36.3621 28.2372L36.456 28.9813ZM35.7205 28.8822L35.4807 29.5928C35.4854 29.5944 35.4901 29.596 35.4948 29.5974L35.7205 28.8822ZM34.4276 28.247L34.8453 27.624C34.8396 27.6202 34.8338 27.6165 34.828 27.6128L34.4276 28.247ZM33.1178 27.3439L32.6558 27.9347C32.6676 27.9439 32.6797 27.9528 32.6921 27.9613L33.1178 27.3439ZM32.2805 26.689L32.7425 26.0982C32.7374 26.0942 32.7321 26.0902 32.7269 26.0863L32.2805 26.689ZM31.101 26.0263L30.8095 26.7173C30.82 26.7218 30.8307 26.726 30.8414 26.7299L31.101 26.0263ZM29.9669 25.7328L29.8741 26.4771L29.8759 26.4773L29.9669 25.7328ZM29.1706 25.6769L29.1381 24.9275L29.1273 24.9282L29.1706 25.6769ZM13.7715 26.5682L13.6618 27.3101C13.7124 27.3176 13.7637 27.3199 13.8149 27.3169L13.7715 26.5682ZM13.3705 26.5088L12.9113 27.1019C13.0131 27.1807 13.1334 27.2319 13.2607 27.2508L13.3705 26.5088ZM13.0704 26.2765L12.3467 26.4736C12.3895 26.6308 12.4824 26.7698 12.6112 26.8696L13.0704 26.2765ZM12.9813 25.9493L12.2334 26.0053C12.2369 26.053 12.2451 26.1002 12.2576 26.1464L12.9813 25.9493ZM12.4008 18.1889L13.1487 18.133C13.1424 18.0483 13.1217 17.9653 13.0875 17.8875L12.4008 18.1889ZM12.2473 17.8393L12.9341 17.5379C12.8473 17.34 12.6792 17.1892 12.4731 17.1241L12.2473 17.8393ZM11.8459 17.7126L12.0717 16.9974C11.9885 16.9711 11.9013 16.9596 11.8141 16.9633L11.8459 17.7126ZM4.04601 18.043L3.89957 18.7786C3.9582 18.7902 4.01802 18.7949 4.07776 18.7923L4.04601 18.043ZM3.73888 17.9818L3.24224 18.5439C3.34158 18.6316 3.46241 18.6915 3.59243 18.7174L3.73888 17.9818ZM3.54175 17.8076L2.79785 17.9031C2.821 18.0835 2.90887 18.2493 3.04511 18.3697L3.54175 17.8076ZM3.50362 17.5106L2.75507 17.5572C2.75609 17.5735 2.75764 17.5898 2.75973 17.6061L3.50362 17.5106ZM3 9.40883L3.37281 10.0596L3.66501 9.89222L3.29221 9.24144L2.9194 8.59066L2.62719 8.75805L3 9.40883ZM3.29221 9.24144L3.42453 9.97967L3.8478 9.90381L3.71547 9.16557L3.58315 8.42734L3.15989 8.5032L3.29221 9.24144ZM3.71547 9.16557L3.73711 9.91526L9.47518 9.74969L9.45354 9L9.43191 8.25031L3.69384 8.41589L3.71547 9.16557ZM9.45354 9L9.41687 9.7491L15.1429 10.0294L15.1796 9.28034L15.2163 8.53124L9.49022 8.2509L9.45354 9ZM15.1796 9.28034V10.0303H38.2715V9.28034V8.53034H15.1796V9.28034ZM38.2715 9.28034L38.1866 10.0255L38.7762 10.0928L38.8612 9.34758L38.9462 8.60241L38.3565 8.53517L38.2715 9.28034ZM38.8612 9.34758L38.7036 10.0808L39.2213 10.1921L39.3789 9.45888L39.5366 8.72563L39.0188 8.61433L38.8612 9.34758ZM39.3789 9.45888L39.1971 10.1865L39.7583 10.3267L39.9401 9.5991L40.1219 8.87147L39.5607 8.73125L39.3789 9.45888ZM39.9401 9.5991L39.6627 10.2959L40.2118 10.5145L40.4892 9.81767L40.7666 9.12084L40.2175 8.90227L39.9401 9.5991ZM40.4892 9.81767L40.1008 10.4593L40.6486 10.7909L41.037 10.1493L41.4254 9.50764L40.8776 9.17606L40.4892 9.81767ZM41.037 10.1493L40.6307 10.7797L41.2797 11.198L41.6861 10.5676L42.0924 9.93719L41.4433 9.51885L41.037 10.1493ZM41.6861 10.5676L41.1933 11.133L56.3173 24.3119L56.81 23.7464L57.3027 23.181L42.1788 10.0021L41.6861 10.5676ZM56.81 23.7464L56.2054 24.1903C56.2636 24.2695 56.2603 24.2825 56.254 24.2605C56.2526 24.2556 56.2515 24.2506 56.2508 24.2461C56.2501 24.2416 56.25 24.2391 56.25 24.2393C56.25 24.2403 56.2505 24.2538 56.2463 24.2873L56.9906 24.38L57.7348 24.4727C57.7585 24.2829 57.7606 24.0734 57.6961 23.8479C57.6336 23.6294 57.5243 23.4521 57.4145 23.3026L56.81 23.7464ZM56.9906 24.38L56.2627 24.1992C56.2479 24.2586 56.2371 24.3134 56.2336 24.3299C56.229 24.3517 56.2318 24.334 56.2413 24.3081C56.2522 24.2782 56.2635 24.2593 56.265 24.2568C56.265 24.2567 56.2643 24.2579 56.2627 24.2604C56.261 24.2629 56.2585 24.2665 56.2549 24.2715C56.2476 24.2817 56.237 24.2959 56.2218 24.3155L56.8137 24.7762L57.4055 25.2369C57.497 25.1193 57.5897 24.9883 57.65 24.8233C57.6786 24.7451 57.6933 24.6771 57.7011 24.6405C57.71 24.5986 57.712 24.5866 57.7185 24.5608L56.9906 24.38ZM56.8137 24.7762L56.3808 24.1637C56.3083 24.2149 56.2581 24.2534 56.2203 24.2829C56.1996 24.2991 56.1926 24.3047 56.1828 24.3122C56.1758 24.3176 56.1751 24.3179 56.1773 24.3165C56.194 24.305 56.1963 24.3104 56.0375 24.3789L56.3345 25.0675L56.6316 25.7562C56.7871 25.6891 56.9091 25.6336 57.0268 25.5527C57.0762 25.5187 57.1238 25.4806 57.1433 25.4653C57.1687 25.4455 57.1991 25.4222 57.2465 25.3887L56.8137 24.7762ZM56.3345 25.0675L56.0149 24.3891C55.9498 24.4197 55.9263 24.4301 55.9134 24.4351C55.9097 24.4365 55.9263 24.4301 55.9515 24.426C55.9714 24.4228 55.9765 24.4246 55.944 24.4243C55.9079 24.4239 55.8586 24.4217 55.7673 24.4173L55.7313 25.1665L55.6953 25.9156C55.8331 25.9222 56.0164 25.9348 56.1891 25.9071C56.3887 25.8751 56.5492 25.7955 56.6542 25.746L56.3345 25.0675ZM55.7313 25.1665L55.8673 24.4289L51.1647 23.562L51.0287 24.2995L50.8928 25.0371L55.5953 25.904L55.7313 25.1665ZM51.0287 24.2995L51.1278 23.5561L50.7448 23.5051L50.6458 24.2485L50.5467 24.9919L50.9297 25.043L51.0287 24.2995ZM50.6458 24.2485L50.6521 23.4985L48.9575 23.4842L48.9511 24.2342L48.9448 24.9842L50.6394 24.9985L50.6458 24.2485ZM48.9511 24.2342L48.7979 23.5L48.571 23.5474L48.7243 24.2816L48.8775 25.0157L49.1044 24.9684L48.9511 24.2342ZM48.7243 24.2816L48.3899 23.6102L48.1312 23.7391L48.4656 24.4104L48.8001 25.0817L49.0587 24.9529L48.7243 24.2816ZM48.4656 24.4104L48.0002 23.8223L44.5648 26.5407L45.0302 27.1289L45.4956 27.717L48.931 24.9985L48.4656 24.4104ZM45.0302 27.1289L44.535 26.5655C44.4274 26.6601 44.3098 26.7864 44.2286 26.974C44.1664 27.1175 44.1405 27.2729 44.1283 27.3364L44.8648 27.4783L45.6012 27.6202C45.6059 27.5959 45.6093 27.5782 45.6125 27.5625C45.6156 27.5471 45.6176 27.5383 45.6188 27.5332C45.6214 27.5222 45.6179 27.5404 45.6049 27.5704C45.5981 27.5862 45.5894 27.6034 45.5787 27.6212C45.5681 27.639 45.5572 27.6543 45.5473 27.6669C45.5284 27.6907 45.516 27.7003 45.5253 27.6922L45.0302 27.1289ZM44.8648 27.4783L44.1283 27.3362L44.1236 27.3609L44.86 27.503L45.5964 27.6452L45.6012 27.6204L44.8648 27.4783ZM44.86 27.503L44.1406 27.2909C44.1047 27.4126 44.0748 27.5419 44.0706 27.6946C44.0669 27.8255 44.0845 27.9523 44.0945 28.0333L44.8388 27.941L45.5831 27.8486C45.5765 27.7954 45.5732 27.7677 45.5712 27.7459C45.5695 27.7273 45.5702 27.7274 45.57 27.736C45.5697 27.7468 45.5684 27.7557 45.5679 27.7581C45.5679 27.7582 45.5685 27.7551 45.5703 27.748C45.5721 27.7408 45.5749 27.7302 45.5794 27.7152L44.86 27.503ZM44.8388 27.941L44.0945 28.0331L44.0981 28.0621L44.8424 27.9699L45.5867 27.8777L45.5832 27.8488L44.8388 27.941ZM44.8424 27.9699L44.1458 28.2478L46.514 34.1852L47.2106 33.9074L47.9072 33.6295L45.5391 27.692L44.8424 27.9699ZM47.2106 33.9074L46.5621 34.2841L46.7948 34.6846L47.4433 34.3078L48.0918 33.931L47.8591 33.5306L47.2106 33.9074ZM47.4433 34.3078L46.8369 34.7492L47.0959 35.105L47.7023 34.6637L48.3087 34.2223L48.0497 33.8665L47.4433 34.3078ZM47.7023 34.6637L47.1609 35.1828L48.8068 36.8993L49.3482 36.3802L49.8895 35.8611L48.2436 34.1446L47.7023 34.6637ZM49.3482 36.3802L48.8678 36.9562L52.341 39.853L52.8214 39.2771L53.3017 38.7011L49.8286 35.8042L49.3482 36.3802ZM52.8214 39.2771L52.3243 39.8388L54.014 41.3339L54.511 40.7722L55.008 40.2106L53.3184 38.7154L52.8214 39.2771ZM54.511 40.7722L53.9545 41.275L54.4036 41.7722L54.9601 41.2694L55.5167 40.7666L55.0675 40.2695L54.511 40.7722ZM54.9601 41.2694L54.378 41.7422C54.5436 41.9461 54.5791 42.0015 54.6667 42.1403L55.3008 41.7398L55.935 41.3393C55.8176 41.1534 55.7477 41.0494 55.5423 40.7966L54.9601 41.2694ZM55.3008 41.7398L54.6305 42.0762C54.6975 42.2097 54.7275 42.2735 54.7503 42.3252C54.7781 42.3884 54.7919 42.4246 54.8443 42.5484L55.535 42.2562L56.2258 41.964C56.1391 41.759 56.1231 41.7061 55.9712 41.4033L55.3008 41.7398ZM55.535 42.2562L54.8451 42.5504C54.901 42.6813 54.9624 42.8852 54.9859 43.0974L55.7313 43.015L56.4768 42.9325C56.4358 42.5619 56.3331 42.2158 56.2249 41.9621L55.535 42.2562ZM55.7313 43.015L54.9816 43.0341L55.1635 50.1893L55.9133 50.1703L56.663 50.1512L56.4811 42.9959L55.7313 43.015ZM55.9133 50.1703L55.167 50.0958C55.1567 50.1986 55.1545 50.1946 55.1592 50.1748C55.1607 50.1685 55.1626 50.1622 55.1548 50.1892C55.1477 50.2134 55.138 50.2472 55.1259 50.2949L55.8527 50.48L56.5795 50.665C56.5857 50.6404 56.5903 50.6247 56.5949 50.6089C56.5987 50.5959 56.6097 50.5592 56.6192 50.5188C56.6399 50.4308 56.6496 50.3443 56.6596 50.2448L55.9133 50.1703ZM55.8527 50.48L55.1521 50.2122C55.1358 50.2548 55.128 50.2746 55.1228 50.2872C55.1187 50.2968 55.1215 50.2892 55.1294 50.2752C55.1378 50.2601 55.1443 50.2515 55.1415 50.2553C55.1357 50.2632 55.1261 50.2757 55.0999 50.3091L55.6903 50.7717L56.2806 51.2343C56.3179 51.1866 56.3834 51.1058 56.4385 51.0075C56.4913 50.913 56.5276 50.8148 56.5532 50.7478L55.8527 50.48ZM55.6903 50.7717L55.1396 50.2625C55.1225 50.281 55.1076 50.2976 55.0969 50.3095C55.0912 50.3159 55.0872 50.3204 55.0833 50.3246C55.0796 50.3287 55.0772 50.3313 55.0756 50.3331C55.0685 50.3408 55.0825 50.3247 55.1087 50.3044C55.1222 50.294 55.1365 50.2842 55.151 50.2756C55.1653 50.267 55.1774 50.2611 55.1858 50.2572C55.1939 50.2536 55.1981 50.2522 55.1967 50.2526C55.1952 50.2532 55.1894 50.2552 55.1777 50.2585L55.3833 50.9798L55.589 51.701C55.7264 51.6618 55.8798 51.6044 56.0271 51.4904C56.0941 51.4385 56.1437 51.3873 56.1748 51.3538C56.1897 51.3377 56.2043 51.3214 56.2137 51.311C56.2244 51.299 56.2324 51.29 56.241 51.2808L55.6903 50.7717ZM55.3833 50.9798L55.2989 50.2345C55.2278 50.2426 55.1782 50.2497 55.138 50.257C55.1187 50.2606 55.0994 50.2646 55.104 50.2637C55.1099 50.2625 55.1549 50.253 55.2134 50.2506C55.2569 50.2488 55.2917 50.2519 55.282 50.2512C55.2807 50.2512 55.2794 50.2511 55.2728 50.2506C55.2672 50.2502 55.2599 50.2496 55.2511 50.249C55.215 50.2466 55.161 50.2434 55.0729 50.2398L55.0424 50.9892L55.012 51.7386C55.0886 51.7417 55.1287 51.7442 55.1489 51.7455C55.1541 51.7459 55.1586 51.7462 55.1629 51.7465C55.166 51.7468 55.1728 51.7473 55.1781 51.7476C55.1817 51.7479 55.2245 51.7514 55.2746 51.7493C55.3398 51.7467 55.3901 51.7362 55.4041 51.7334C55.4168 51.7308 55.4084 51.7325 55.4069 51.7327C55.4022 51.7336 55.4157 51.7309 55.4678 51.725L55.3833 50.9798ZM55.0424 50.9892L55.1102 50.2423C55.0154 50.2337 55.0371 50.2332 55.0634 50.2398C55.0653 50.2403 55.0644 50.2401 55.0561 50.2377C55.0428 50.234 55.0414 50.2335 55.019 50.2271C54.9842 50.2171 54.9384 50.2043 54.8738 50.1877L54.6874 50.9142L54.5009 51.6406C54.5494 51.6531 54.5814 51.662 54.6056 51.669C54.622 51.6737 54.6629 51.6858 54.6975 51.6945C54.7986 51.7199 54.8847 51.728 54.9747 51.7361L55.0424 50.9892ZM54.6874 50.9142L54.8992 50.1947C54.8702 50.1862 54.8723 50.1851 54.8888 50.1928C54.8981 50.1972 54.9098 50.2033 54.9226 50.2113C54.9355 50.2192 54.9458 50.2266 54.9527 50.232C54.9588 50.2367 54.961 50.2388 54.9562 50.2346C54.95 50.2291 54.9439 50.2236 54.9276 50.2087C54.8973 50.1813 54.8534 50.1418 54.7942 50.094L54.3233 50.6777L53.8523 51.2614C53.878 51.2821 53.897 51.299 53.9196 51.3195C53.9361 51.3346 53.9834 51.3786 54.0348 51.4183C54.1775 51.5287 54.3206 51.588 54.4755 51.6336L54.6874 50.9142ZM54.3233 50.6777L54.9179 50.2206L38.4414 28.7885L37.8468 29.2456L37.2522 29.7027L53.7287 51.1348L54.3233 50.6777ZM37.8468 29.2456L38.2564 28.6173C38.1072 28.5201 37.9472 28.4269 37.7461 28.3602C37.5516 28.2958 37.3571 28.269 37.1534 28.2508L37.0866 28.9978L37.0198 29.7448C37.1857 29.7597 37.2445 29.7742 37.2743 29.7841C37.2976 29.7918 37.333 29.806 37.4372 29.8739L37.8468 29.2456ZM37.0866 28.9978L37.1062 28.2481L36.4757 28.2316L36.456 28.9813L36.4364 29.7311L37.067 29.7476L37.0866 28.9978ZM36.456 28.9813L36.3621 28.2372C36.2643 28.2496 36.1783 28.2402 35.9461 28.167L35.7205 28.8822L35.4948 29.5974C35.7862 29.6894 36.1242 29.7791 36.5499 29.7254L36.456 28.9813ZM35.7205 28.8822L35.9602 28.1715C35.541 28.0301 35.2033 27.8641 34.8453 27.624L34.4276 28.247L34.01 28.8699C34.4807 29.1855 34.9384 29.4099 35.4807 29.5928L35.7205 28.8822ZM34.4276 28.247L34.828 27.6128C34.3393 27.3043 34.0189 27.0542 33.5436 26.7264L33.1178 27.3439L32.6921 27.9613C33.09 28.2357 33.51 28.5546 34.0272 28.8812L34.4276 28.247ZM33.1178 27.3439L33.5799 26.7531L32.7425 26.0982L32.2805 26.689L31.8184 27.2798L32.6558 27.9347L33.1178 27.3439ZM32.2805 26.689L32.7269 26.0863C32.2864 25.7601 31.9617 25.5444 31.3605 25.3226L31.101 26.0263L30.8414 26.7299C31.2588 26.8839 31.455 27.0109 31.8341 27.2917L32.2805 26.689ZM31.101 26.0263L31.3924 25.3352C30.8853 25.1214 30.5029 25.0428 30.058 24.9884L29.9669 25.7328L29.8759 26.4773C30.2202 26.5194 30.461 26.5703 30.8095 26.7173L31.101 26.0263ZM29.9669 25.7328L30.0597 24.9886C29.8046 24.9568 29.5479 24.9098 29.1381 24.9276L29.1706 25.6769L29.2031 26.4262C29.457 26.4152 29.5651 26.4385 29.8741 26.4771L29.9669 25.7328ZM29.1706 25.6769L29.1273 24.9282L13.7282 25.8194L13.7715 26.5682L13.8149 27.3169L29.214 26.4257L29.1706 25.6769ZM13.7715 26.5682L13.8813 25.8263L13.4803 25.7669L13.3705 26.5088L13.2607 27.2508L13.6618 27.3101L13.7715 26.5682ZM13.3705 26.5088L13.8296 25.9158L13.5295 25.6835L13.0704 26.2765L12.6112 26.8696L12.9113 27.1019L13.3705 26.5088ZM13.0704 26.2765L13.794 26.0795L13.7049 25.7523L12.9813 25.9493L12.2576 26.1464L12.3467 26.4736L13.0704 26.2765ZM12.9813 25.9493L13.7292 25.8934L13.1487 18.133L12.4008 18.1889L11.6529 18.2449L12.2334 26.0053L12.9813 25.9493ZM12.4008 18.1889L13.0875 17.8875L12.9341 17.5379L12.2473 17.8393L11.5606 18.1407L11.714 18.4903L12.4008 18.1889ZM12.2473 17.8393L12.4731 17.1241L12.0717 16.9974L11.8459 17.7126L11.6201 18.4278L12.0215 18.5545L12.2473 17.8393ZM11.8459 17.7126L11.8141 16.9633L4.01427 17.2937L4.04601 18.043L4.07776 18.7923L11.8776 18.4619L11.8459 17.7126ZM4.04601 18.043L4.19246 17.3074L3.88533 17.2463L3.73888 17.9818L3.59243 18.7174L3.89957 18.7786L4.04601 18.043ZM3.73888 17.9818L4.23551 17.4198L4.03838 17.2456L3.54175 17.8076L3.04511 18.3697L3.24224 18.5439L3.73888 17.9818ZM3.54175 17.8076L4.28565 17.7122L4.24752 17.4151L3.50362 17.5106L2.75973 17.6061L2.79785 17.9031L3.54175 17.8076ZM3.50362 17.5106L4.25218 17.4641L3.74856 9.3623L3 9.40883L2.25144 9.45537L2.75507 17.5572L3.50362 17.5106Z" fill="white"/>
<defs>
<pattern id="pattern0_250_22" patternUnits="userSpaceOnUse" patternTransform="matrix(12 0 0 12 0 0)" preserveAspectRatio="none" viewBox="0 0 12 12" width="1" height="1">
<g id="pattern0_250_22_inner">
<rect y="2" width="3" height="1" fill="#D9D9D9"/>
<rect y="8" width="3" height="1" fill="#D9D9D9"/>
<rect x="6" y="2" width="3" height="1" fill="#D9D9D9"/>
<rect x="6" y="8" width="3" height="1" fill="#D9D9D9"/>
<rect x="5" y="3" width="3" height="1" transform="rotate(180 5 3)" fill="#D9D9D9"/>
<rect x="5" y="9" width="3" height="1" transform="rotate(180 5 9)" fill="#D9D9D9"/>
<rect x="11" y="3" width="3" height="1" transform="rotate(180 11 3)" fill="#D9D9D9"/>
<rect x="11" y="9" width="3" height="1" transform="rotate(180 11 9)" fill="#D9D9D9"/>
<rect x="2" width="1" height="2" fill="#D9D9D9"/>
<rect x="2" y="6" width="1" height="2" fill="#D9D9D9"/>
<rect x="8" width="1" height="2" fill="#D9D9D9"/>
<rect x="8" y="6" width="1" height="2" fill="#D9D9D9"/>
<rect x="3" y="5" width="1" height="2" transform="rotate(180 3 5)" fill="#D9D9D9"/>
<rect x="3" y="11" width="1" height="2" transform="rotate(180 3 11)" fill="#D9D9D9"/>
<rect x="9" y="5" width="1" height="2" transform="rotate(180 9 5)" fill="#D9D9D9"/>
<rect x="9" y="11" width="1" height="2" transform="rotate(180 9 11)" fill="#D9D9D9"/>
</g>
</pattern></defs>
</svg>
