<svg width="60" height="60" viewBox="0 0 60 60" fill="none" xmlns="http://www.w3.org/2000/svg" xmlns:xlink="http://www.w3.org/1999/xlink">
<rect width="60" height="60" fill="url(#pattern0_59_2)" fill-opacity="0.1"/>
<path d="M25.014 42.5H44.8107C47.3107 42.5 46.8107 40.5 46.8107 40.5L46.5674 39.0399C46.4475 38.3205 47.1132 37.7189 47.8169 37.9108L51.2265 38.8407C51.6074 38.9446 52.0106 38.9334 52.3852 38.8085L52.5248 38.762C53.028 38.5942 53.444 38.2335 53.6812 37.759L55.8825 33.3564C56.122 32.8775 55.9418 32.295 55.4737 32.035L51.5414 29.8504C48.7908 28.3222 45.6292 27.6978 42.5041 28.0655L40.2651 28.3289C39.3479 28.4368 38.5324 28.9638 38.0573 29.7557C37.586 30.5412 36.7798 31.0664 35.8709 31.18L33.3107 31.5C22.8107 31.5 24.6489 22.9854 19.3107 19.5C16.6744 17.7787 16.3107 17 13.8107 17C11.9686 17 11.6133 17.6974 10.3107 19C9.59043 19.7203 8.0919 19.9218 7.30996 19.9781C7.03453 19.998 6.80079 20.2229 6.76119 20.4962C6.65632 21.2198 6.32947 22.7833 5.31071 25.5C4.16287 28.5609 4.18619 30.1579 4.26041 30.739C4.28259 30.9127 4.37963 31.0612 4.51052 31.1776L7.22541 33.5908C8.08548 34.3553 8.12471 35.686 7.31102 36.4997L6.81075 37C5.04298 38.7678 12.8107 40.5 20.8107 40C22.5466 39.8915 23.543 41.0945 24.0009 41.8701C24.2154 42.2334 24.5921 42.5 25.014 42.5Z" stroke="white" stroke-width="1.5"/>
<defs>
<pattern id="pattern0_59_2" patternUnits="userSpaceOnUse" patternTransform="matrix(12 0 0 12 0 0)" preserveAspectRatio="none" viewBox="0 0 12 12" width="1" height="1">
<g id="pattern0_59_2_inner">
<rect y="2" width="3" height="1" fill="#D9D9D9"/>
<rect y="8" width="3" height="1" fill="#D9D9D9"/>
<rect x="6" y="2" width="3" height="1" fill="#D9D9D9"/>
<rect x="6" y="8" width="3" height="1" fill="#D9D9D9"/>
<rect x="5" y="3" width="3" height="1" transform="rotate(180 5 3)" fill="#D9D9D9"/>
<rect x="5" y="9" width="3" height="1" transform="rotate(180 5 9)" fill="#D9D9D9"/>
<rect x="11" y="3" width="3" height="1" transform="rotate(180 11 3)" fill="#D9D9D9"/>
<rect x="11" y="9" width="3" height="1" transform="rotate(180 11 9)" fill="#D9D9D9"/>
<rect x="2" width="1" height="2" fill="#D9D9D9"/>
<rect x="2" y="6" width="1" height="2" fill="#D9D9D9"/>
<rect x="8" width="1" height="2" fill="#D9D9D9"/>
<rect x="8" y="6" width="1" height="2" fill="#D9D9D9"/>
<rect x="3" y="5" width="1" height="2" transform="rotate(180 3 5)" fill="#D9D9D9"/>
<rect x="3" y="11" width="1" height="2" transform="rotate(180 3 11)" fill="#D9D9D9"/>
<rect x="9" y="5" width="1" height="2" transform="rotate(180 9 5)" fill="#D9D9D9"/>
<rect x="9" y="11" width="1" height="2" transform="rotate(180 9 11)" fill="#D9D9D9"/>
</g>
</pattern></defs>
</svg>
