<svg width="60" height="60" viewBox="0 0 60 60" fill="none" xmlns="http://www.w3.org/2000/svg" xmlns:xlink="http://www.w3.org/1999/xlink">
<rect width="60" height="60" fill="url(#pattern0_138_1005)" fill-opacity="0.1"/>
<path fill-rule="evenodd" clip-rule="evenodd" d="M35.9744 20.0001C36.7605 19.9961 37.5688 20.1682 38.3324 20.3789C38.716 20.4848 39.0971 20.6025 39.4622 20.7163C39.83 20.831 40.181 20.9412 40.5178 21.0354C40.764 21.1043 41.0444 21.1996 41.2678 21.2678C41.5089 21.3413 41.7298 21.3992 41.9407 21.4268C42.3412 21.4791 42.7905 21.4706 43.2556 21.4731C46.7844 21.4849 50.2977 21.539 53.8116 21.4827C54.0917 21.4782 54.4609 21.4715 54.8123 21.5223C55.1586 21.5723 55.5665 21.6879 55.8727 21.9898C56.3722 22.4827 56.3133 23.1769 56.2968 23.5428C56.2498 24.5916 56.2699 25.7301 56.1686 26.7896C56.0647 27.8778 55.83 28.9719 55.2451 30.0432L55.2393 30.0528C54.5341 31.2815 53.5739 33.0971 52.5719 34.9231C51.5776 36.7348 50.5427 38.5566 49.7078 39.7489L49.703 39.7557L49.6972 39.7634C49.4649 40.0705 49.1183 40.2241 48.7939 40.2695C48.4702 40.3148 48.1144 40.2604 47.8193 40.0844C47.3562 39.8083 46.9083 39.513 46.4754 39.2303C46.0389 38.9452 45.615 38.6718 45.1827 38.4263C44.3209 37.937 43.4461 37.5715 42.4429 37.4758C42.0003 37.4336 41.5424 37.4339 41.0605 37.4343C37.9198 37.4371 34.8061 37.382 31.6835 37.4363C31.4326 37.4406 31.0373 37.4567 30.7012 37.3071C30.2915 37.1245 30.0555 36.7541 29.9811 36.2351C29.9477 36.0022 29.9312 35.787 29.9888 35.5699C30.0435 35.3641 30.1587 35.1943 30.2481 35.0551C30.8307 34.1482 31.1427 33.5017 31.1649 32.5111V32.3067L31.1398 30.5638C31.0788 29.3786 30.9464 28.2045 30.8362 26.9959C30.8125 26.7363 30.7781 26.3679 30.7186 26.0377C30.6887 25.8721 30.6547 25.7308 30.6183 25.6261C30.6093 25.6002 30.5991 25.5804 30.5923 25.5644C30.5883 25.5637 30.584 25.5631 30.5797 25.5625C30.4884 25.5485 30.3646 25.5386 30.223 25.5335C29.9302 25.5231 29.6566 25.5322 29.4798 25.5306C28.8321 25.5299 28.3988 25.365 28.1311 25.0949C27.9996 24.9622 27.9261 24.8212 27.8872 24.7035C27.8682 24.6459 27.8574 24.5945 27.8516 24.5531C27.8486 24.5324 27.8468 24.5129 27.8458 24.4972C27.8453 24.4896 27.845 24.4823 27.8448 24.476C27.8448 24.4741 27.8448 24.4702 27.8448 24.4702C27.7964 23.9086 27.7881 23.4373 27.7822 23.0618C27.7767 22.7214 27.7694 22.519 27.7513 22.3908C27.7338 22.3931 27.7135 22.3955 27.6906 22.3995C27.586 22.4178 27.449 22.4505 27.2683 22.5017C26.8998 22.6062 26.4249 22.7616 25.7481 22.9664C24.98 23.1987 24.0574 23.3634 23.1491 23.5023C22.2217 23.6441 21.3316 23.7565 20.5501 23.8889C18.2349 24.2812 15.9445 24.4273 13.6082 24.3854C13.3877 24.3814 13.1709 24.3791 12.9883 24.3863C12.9646 24.3873 12.9414 24.3899 12.9199 24.3912C12.9306 24.4194 12.9426 24.4529 12.9604 24.4905C13.0867 24.7569 13.3013 25.0599 13.559 25.4612C13.7963 25.8308 14.0622 26.2752 14.1847 26.7328C14.3135 27.2146 14.2937 27.7578 13.8993 28.2386L13.8868 28.253L13.8733 28.2675C13.1493 29.022 12.0865 28.7605 11.5105 28.2501C11.1906 27.9666 10.8278 27.4672 10.5243 27.0673C10.3627 26.8544 10.2093 26.6571 10.0664 26.4937C9.91837 26.3246 9.80653 26.2212 9.73091 26.1727C9.44998 25.9926 8.96325 25.9346 8.41792 26.0464C7.87647 26.1574 7.41397 26.4087 7.18783 26.6817C6.66866 27.3087 6.38063 28.1062 6.6663 28.897C6.73429 29.0851 6.84342 29.2783 6.97575 29.5063C7.09658 29.7143 7.25056 29.9734 7.33918 30.2302C7.43178 30.4989 7.48139 30.8436 7.30255 31.1875C7.13239 31.5143 6.80782 31.7374 6.40601 31.9028C5.81654 32.1454 5.05561 32.5443 4.27264 32.6624C3.99338 32.7045 3.71113 32.6691 3.47443 32.4995C3.24616 32.3359 3.1344 32.1001 3.07726 31.8961C2.97006 31.5129 3.00022 31.0244 3.01749 30.6833C3.09624 29.1279 3.09223 27.5435 3.04545 25.9808C3.03449 25.6151 3.01862 25.1203 3.0869 24.663C3.15309 24.2201 3.31565 23.6842 3.77039 23.3626C4.49656 22.849 5.52859 22.6147 6.49759 22.4892C7.47801 22.3622 8.49901 22.3359 9.21709 22.2944C10.2527 22.2244 11.2901 22.1828 12.328 22.1701H12.3309C14.0126 22.1595 15.594 22.247 17.1914 22.0563C18.9529 21.8459 20.7205 21.6412 22.4801 21.4326C23.3404 21.3306 24.1658 21.063 25.053 20.7838C25.9238 20.5098 26.8515 20.2258 27.841 20.1505C28.414 20.1068 28.9872 20.1037 29.5444 20.1042C30.1069 20.1046 30.6499 20.1092 31.19 20.0859L31.2015 20.0849C32.7804 20.0539 34.3861 20.008 35.9744 20.0001Z" stroke="white" stroke-width="1.5" stroke-linejoin="round"/>
<defs>
<pattern id="pattern0_138_1005" patternUnits="userSpaceOnUse" patternTransform="matrix(12 0 0 12 0 0)" preserveAspectRatio="none" viewBox="0 0 12 12" width="1" height="1">
<g id="pattern0_138_1005_inner">
<rect y="2" width="3" height="1" fill="#D9D9D9"/>
<rect y="8" width="3" height="1" fill="#D9D9D9"/>
<rect x="6" y="2" width="3" height="1" fill="#D9D9D9"/>
<rect x="6" y="8" width="3" height="1" fill="#D9D9D9"/>
<rect x="5" y="3" width="3" height="1" transform="rotate(180 5 3)" fill="#D9D9D9"/>
<rect x="5" y="9" width="3" height="1" transform="rotate(180 5 9)" fill="#D9D9D9"/>
<rect x="11" y="3" width="3" height="1" transform="rotate(180 11 3)" fill="#D9D9D9"/>
<rect x="11" y="9" width="3" height="1" transform="rotate(180 11 9)" fill="#D9D9D9"/>
<rect x="2" width="1" height="2" fill="#D9D9D9"/>
<rect x="2" y="6" width="1" height="2" fill="#D9D9D9"/>
<rect x="8" width="1" height="2" fill="#D9D9D9"/>
<rect x="8" y="6" width="1" height="2" fill="#D9D9D9"/>
<rect x="3" y="5" width="1" height="2" transform="rotate(180 3 5)" fill="#D9D9D9"/>
<rect x="3" y="11" width="1" height="2" transform="rotate(180 3 11)" fill="#D9D9D9"/>
<rect x="9" y="5" width="1" height="2" transform="rotate(180 9 5)" fill="#D9D9D9"/>
<rect x="9" y="11" width="1" height="2" transform="rotate(180 9 11)" fill="#D9D9D9"/>
</g>
</pattern></defs>
</svg>
