<svg width="60" height="60" viewBox="0 0 60 60" fill="none" xmlns="http://www.w3.org/2000/svg" xmlns:xlink="http://www.w3.org/1999/xlink">
<rect width="60" height="60" fill="url(#pattern0_138_1005)" fill-opacity="0.1"/>
<path fill-rule="evenodd" clip-rule="evenodd" d="M36.0211 20.0001C36.8322 19.996 37.6661 20.1735 38.454 20.391C38.8498 20.5002 39.243 20.6216 39.6197 20.7391C39.9992 20.8574 40.3613 20.971 40.7088 21.0683C40.9628 21.1394 41.2522 21.2377 41.4826 21.308C41.7314 21.3839 41.9593 21.4436 42.1769 21.4721C42.59 21.5261 43.0537 21.5173 43.5335 21.5198C47.1744 21.532 50.7992 21.5878 54.4246 21.5298C54.7137 21.5252 55.0945 21.5182 55.457 21.5706C55.8143 21.6222 56.2352 21.7414 56.5511 22.053C57.0665 22.5615 57.0057 23.2777 56.9888 23.6553C56.9402 24.7374 56.9609 25.912 56.8565 27.0052C56.7492 28.1279 56.5071 29.2567 55.9036 30.362L55.8977 30.372C55.1701 31.6396 54.1794 33.5128 53.1455 35.3968C52.1197 37.2661 51.0519 39.1457 50.1905 40.3759L50.1855 40.3828L50.1796 40.3908C49.9399 40.7076 49.5824 40.8661 49.2476 40.913C48.9137 40.9596 48.5466 40.9036 48.2421 40.722C47.7643 40.4372 47.3022 40.1325 46.8556 39.8408C46.4052 39.5466 45.9678 39.2645 45.5218 39.0113C44.6326 38.5064 43.7301 38.1294 42.6951 38.0306C42.2383 37.987 41.7659 37.9874 41.2688 37.9878C38.0283 37.9906 34.8157 37.9338 31.5941 37.9898C31.3352 37.9943 30.9273 38.0109 30.5806 37.8565C30.1578 37.6681 29.9143 37.286 29.8376 36.7505C29.8032 36.5102 29.7862 36.2881 29.8456 36.0642C29.902 35.8518 30.0209 35.6766 30.1131 35.5331C30.7142 34.5974 31.0361 33.9303 31.059 32.9083V32.6974L31.0331 30.8991C30.9702 29.6763 30.8336 28.4649 30.7198 27.218C30.6954 26.9501 30.6599 26.57 30.5985 26.2294C30.5676 26.0585 30.5326 25.9127 30.495 25.8047C30.4857 25.778 30.4753 25.7575 30.4682 25.741C30.4641 25.7404 30.4597 25.7397 30.4553 25.739C30.361 25.7247 30.2333 25.7144 30.0872 25.7092C29.7851 25.6984 29.5029 25.7079 29.3204 25.7062C28.6521 25.7054 28.2051 25.5353 27.9289 25.2566C27.7932 25.1197 27.7174 24.9743 27.6773 24.8528C27.6577 24.7933 27.6465 24.7403 27.6405 24.6977C27.6375 24.6763 27.6356 24.6562 27.6345 24.64C27.634 24.6321 27.6337 24.6246 27.6335 24.6181C27.6335 24.6161 27.6336 24.614 27.6335 24.6121C27.5835 24.0327 27.575 23.5464 27.5689 23.159C27.5633 22.8078 27.5557 22.599 27.537 22.4667C27.5189 22.4691 27.498 22.4716 27.4744 22.4757C27.3664 22.4946 27.2251 22.5283 27.0387 22.5811C26.6585 22.6889 26.1686 22.8492 25.4702 23.0605C24.6778 23.3003 23.7259 23.4702 22.7887 23.6135C21.8319 23.7598 20.9136 23.8757 20.1072 24.0124C17.7186 24.4171 15.3554 24.5679 12.945 24.5246C12.7175 24.5205 12.4938 24.5181 12.3054 24.5256C12.2809 24.5266 12.257 24.5293 12.2348 24.5306C12.2459 24.5596 12.2582 24.5943 12.2766 24.633C12.4069 24.9079 12.6283 25.2205 12.8942 25.6346C13.139 26.0158 13.4134 26.4744 13.5397 26.9465C13.6726 27.4436 13.6522 28.004 13.2453 28.5001L13.2324 28.515L13.2185 28.5299C12.4715 29.3084 11.375 29.0386 10.7807 28.512C10.4506 28.2195 10.0763 27.7042 9.76316 27.2916C9.59644 27.072 9.43819 26.8684 9.29071 26.6998C9.138 26.5253 9.0226 26.4187 8.94458 26.3686C8.65473 26.1828 8.15256 26.123 7.58991 26.2383C7.03127 26.3529 6.55409 26.6122 6.32077 26.8938C5.78512 27.5407 5.48795 28.3635 5.78269 29.1794C5.85283 29.3735 5.96543 29.5729 6.10196 29.808C6.22662 30.0227 6.38549 30.29 6.47693 30.555C6.57247 30.8322 6.62365 31.1879 6.43913 31.5426C6.26357 31.8799 5.92869 32.11 5.51414 32.2807C4.90595 32.531 4.12087 32.9426 3.31304 33.0644C3.02491 33.1079 2.7337 33.0713 2.4895 32.8963C2.25397 32.7275 2.13866 32.4842 2.07971 32.2737C1.96911 31.8783 2.00022 31.3744 2.01804 31.0225C2.0993 29.4176 2.09516 27.783 2.04689 26.1707C2.03559 25.7933 2.01921 25.2828 2.08966 24.8111C2.15795 24.354 2.32567 23.8012 2.79484 23.4693C3.54407 22.9395 4.60886 22.6977 5.60863 22.5682C6.62016 22.4372 7.67358 22.41 8.41445 22.3673C9.48289 22.295 10.5533 22.2521 11.6241 22.239H11.6271C13.3622 22.228 14.9937 22.3183 16.642 22.1216C18.4593 21.9045 20.283 21.6933 22.0984 21.4781C22.9861 21.3728 23.8377 21.0967 24.7531 20.8087C25.6515 20.526 26.6087 20.233 27.6295 20.1552C28.2208 20.1102 28.8122 20.107 29.387 20.1075C29.9674 20.1079 30.5276 20.1126 31.0848 20.0886L31.0968 20.0876C32.7258 20.0556 34.3824 20.0083 36.0211 20.0001ZM35.3488 21.4204C33.5139 21.4383 31.6784 21.4477 29.8456 21.4582C29.4132 21.4595 29.0084 21.4633 28.6222 21.4761C28.6806 21.5295 28.7364 21.5872 28.7853 21.6531C29.0348 21.9903 29.0861 22.4069 29.0946 22.7422C29.1029 23.0696 29.0674 23.47 29.0578 23.7388C29.051 23.9298 29.0561 24.0763 29.0707 24.1874C29.2096 24.1956 29.3933 24.1944 29.6237 24.1884C29.9161 24.1808 30.2769 24.1702 30.5925 24.2043C30.7517 24.2216 30.9228 24.2528 31.0819 24.3118C31.2393 24.3702 31.4219 24.4699 31.5553 24.6489C31.8645 25.0645 32.0079 25.5189 32.0864 25.9509C32.1614 26.3634 32.1851 26.8194 32.2217 27.1782C32.3444 28.3795 32.4871 29.6176 32.531 30.8564L32.5788 31.8142L32.5798 31.8331V31.8569C32.5797 31.8601 32.5789 31.8649 32.5788 31.8709C32.5785 31.8832 32.5783 31.9015 32.5778 31.9246C32.5767 31.9709 32.5755 32.0374 32.5738 32.1175C32.5703 32.2784 32.5656 32.4949 32.5619 32.7163C32.5581 32.9381 32.5555 33.1638 32.5549 33.3439C32.5546 33.4339 32.5539 33.5106 32.5549 33.5687C32.5561 33.6383 32.5583 33.6546 32.5569 33.6433L32.5619 33.6791L32.5609 33.7139C32.5555 34.2107 32.3921 34.6611 32.1978 35.0497C32.0076 35.4301 31.7597 35.8027 31.5752 36.103C31.5097 36.2096 31.4557 36.3032 31.4121 36.3884C31.5694 36.4068 31.7637 36.423 31.981 36.4312C32.5233 36.4518 33.1462 36.4412 33.5525 36.4342C35.7487 36.3963 37.9627 36.4604 40.1359 36.477H40.1389C41.0447 36.489 42.147 36.4196 43.1426 36.5565C43.9935 36.6736 44.8329 36.9358 45.6013 37.2796C46.1994 37.5471 46.7396 37.9022 47.2425 38.2494C47.7564 38.6042 48.2221 38.9433 48.7195 39.2271C48.7746 39.2585 48.8486 39.2951 48.9154 39.3186C48.947 39.2875 48.9891 39.2473 49.0368 39.1913C49.164 39.0418 49.3214 38.8281 49.5042 38.5607C49.8687 38.0278 50.307 37.3171 50.7555 36.5555C51.6511 35.0347 52.5717 33.3438 53.0083 32.5422C53.4922 31.6538 53.9879 30.7686 54.4753 29.8886C54.6067 29.6211 54.8145 29.2718 54.9756 28.9805C55.1604 28.6465 55.2946 28.3707 55.3407 28.1808C55.4432 27.7568 55.4559 27.0863 55.466 26.4104C55.4814 25.3751 55.5341 24.2705 55.5555 23.2565C55.5583 23.1203 55.5228 23.0892 55.5167 23.0834C55.4949 23.0621 55.4325 23.0225 55.283 22.9949C55.1363 22.9678 54.9564 22.9611 54.7489 22.964C54.5694 22.9666 54.3156 22.9774 54.1342 22.975C50.2215 22.9399 46.2218 23.0471 42.2743 22.8507C41.4733 22.8107 40.5312 22.5234 39.6595 22.24C38.7535 21.9454 37.9137 21.653 37.2177 21.5318C36.5205 21.4104 36.0335 21.4137 35.3488 21.4204ZM10.8851 23.703C9.92313 23.7086 8.97024 23.7259 8.01859 23.7945H8.01362C7.2318 23.8441 6.28828 23.9097 5.4465 24.0571C5.02609 24.1308 4.64483 24.2225 4.33054 24.3366C4.00995 24.4531 3.79709 24.5797 3.67608 24.7006C3.63648 24.7402 3.57629 24.8343 3.52291 25.0199C3.47143 25.199 3.43723 25.4233 3.41748 25.6764C3.37794 26.1835 3.40165 26.7396 3.42046 27.1723C3.4694 28.2976 3.43763 29.4404 3.42643 30.5371C3.42517 30.657 3.41042 30.8045 3.39858 30.93C3.38568 31.0666 3.37386 31.2005 3.36973 31.3288C3.36765 31.3938 3.36826 31.4525 3.37073 31.5039C3.38067 31.5014 3.39112 31.4995 3.40156 31.4969C3.62062 31.4417 3.90051 31.3516 4.18234 31.2472C4.45985 31.1445 4.72756 31.0325 4.9293 30.9369C4.91738 30.919 4.90442 30.8992 4.8915 30.8792L4.88554 30.8703C4.60456 30.4154 4.23675 29.8571 4.05901 29.2282L4.04608 29.1824L4.0421 29.1357L4.00331 28.702L4.00032 28.6722L4.00132 28.6413C4.03465 27.5395 4.32109 26.4217 5.2446 25.5849C5.8636 25.0209 6.77187 24.5873 7.69037 24.4649C8.61321 24.342 9.62928 24.5279 10.341 25.3263C10.477 25.4788 10.6369 25.7253 10.7846 25.9529C10.9441 26.1986 11.1142 26.4628 11.2919 26.7058C11.4723 26.9524 11.6401 27.1484 11.7872 27.2698C11.876 27.3429 11.9268 27.3633 11.9454 27.3692C11.986 27.359 12.0134 27.3498 12.0299 27.3414C12.0462 27.333 12.0525 27.3268 12.0538 27.3255C12.054 27.3253 12.0543 27.3254 12.0548 27.3245C12.0558 27.3222 12.0592 27.313 12.0617 27.2946C12.075 27.1948 12.0392 26.9969 11.9056 26.6959C11.78 26.4131 11.601 26.1095 11.4212 25.8256C11.2556 25.5642 11.0609 25.2775 10.9617 25.1065L10.9458 25.0766C10.8503 24.8836 10.7618 24.6664 10.7289 24.445C10.6949 24.2159 10.7158 23.9456 10.8851 23.703Z" fill="white"/>
<defs>
<pattern id="pattern0_138_1005" patternUnits="userSpaceOnUse" patternTransform="matrix(12 0 0 12 0 0)" preserveAspectRatio="none" viewBox="0 0 12 12" width="1" height="1">
<g id="pattern0_138_1005_inner">
<rect y="2" width="3" height="1" fill="#D9D9D9"/>
<rect y="8" width="3" height="1" fill="#D9D9D9"/>
<rect x="6" y="2" width="3" height="1" fill="#D9D9D9"/>
<rect x="6" y="8" width="3" height="1" fill="#D9D9D9"/>
<rect x="5" y="3" width="3" height="1" transform="rotate(180 5 3)" fill="#D9D9D9"/>
<rect x="5" y="9" width="3" height="1" transform="rotate(180 5 9)" fill="#D9D9D9"/>
<rect x="11" y="3" width="3" height="1" transform="rotate(180 11 3)" fill="#D9D9D9"/>
<rect x="11" y="9" width="3" height="1" transform="rotate(180 11 9)" fill="#D9D9D9"/>
<rect x="2" width="1" height="2" fill="#D9D9D9"/>
<rect x="2" y="6" width="1" height="2" fill="#D9D9D9"/>
<rect x="8" width="1" height="2" fill="#D9D9D9"/>
<rect x="8" y="6" width="1" height="2" fill="#D9D9D9"/>
<rect x="3" y="5" width="1" height="2" transform="rotate(180 3 5)" fill="#D9D9D9"/>
<rect x="3" y="11" width="1" height="2" transform="rotate(180 3 11)" fill="#D9D9D9"/>
<rect x="9" y="5" width="1" height="2" transform="rotate(180 9 5)" fill="#D9D9D9"/>
<rect x="9" y="11" width="1" height="2" transform="rotate(180 9 11)" fill="#D9D9D9"/>
</g>
</pattern></defs>
</svg>
