<svg width="60" height="60" viewBox="0 0 60 60" fill="none" xmlns="http://www.w3.org/2000/svg" xmlns:xlink="http://www.w3.org/1999/xlink">
<rect width="60" height="60" fill="url(#pattern0_176_57)" fill-opacity="0.1"/>
<path d="M6.57478 4.13129C7.78589 3.25969 9.3672 3.05037 10.2286 3.01402C11.5937 2.95643 13.2574 3.01386 13.4291 4.42698C13.6008 5.8401 13.3257 7.42945 12 7.51386C11.5605 7.54184 11.1084 7.34321 10.8981 7.25082L10.891 7.24771C10.6771 7.15373 10.4704 7.02189 10.2286 6.87607C9.78118 6.6062 9.19017 6.26595 8.5 6.51407C7.99969 6.69412 7.68622 7.0859 7.63375 7.53975C7.58195 7.98966 7.79265 8.44499 8.2164 8.74836L8.21768 8.74964C8.98481 9.29165 11.9461 10.8588 14.5706 12.4705C15.2306 12.8758 16.2643 13.5023 16.2643 13.5023L32.6924 22.9601C32.7391 23.0005 32.809 23.1287 32.8416 23.4812C32.8564 23.6414 32.8613 23.8093 32.8685 23.9961C32.8754 24.1729 32.8841 24.3713 32.911 24.5554C32.9857 25.1905 33.2671 25.8734 33.633 26.4691C34.0029 27.0711 34.4901 27.635 35.0148 28.0033C36.227 28.8539 37.7033 29.1276 39.1386 29.2223C39.86 29.2699 40.5899 29.2728 41.286 29.274L41.3491 29.2741C42.0285 29.2752 42.6718 29.2762 43.2728 29.3122C43.5773 29.3305 43.9592 29.3297 44.2662 29.3401C44.5989 29.3515 44.9094 29.3753 45.1881 29.4373C45.4648 29.499 45.6881 29.594 45.8614 29.7309C46.0214 29.8574 46.16 30.0395 46.2561 30.3202C46.2568 30.3384 46.2587 30.3621 46.2592 30.3905C46.2605 30.4758 46.2597 30.5879 46.2582 30.7059C46.2553 30.9257 46.248 31.1942 46.2478 31.2745C46.2461 31.6155 46.249 31.9571 46.2561 32.298L46.2913 33.3205C46.3465 34.5692 46.7356 38.1999 46.7975 39.4276C46.865 40.9001 46.9165 42.3738 46.9508 43.8474L46.9798 45.3207C46.9863 45.979 46.9855 46.638 46.9778 47.2964C46.9716 47.7382 46.9217 48.5233 47.0254 49.0746C47.1126 49.5362 47.3843 49.9975 47.7091 50.3577C48.0329 50.7167 48.4712 51.0445 48.9521 51.1641C49.8867 51.3964 50.8348 51.5405 51.7593 51.6759C52.6917 51.8124 53.5977 51.9393 54.4868 52.1349C54.697 52.1811 54.9344 52.2283 55.1673 52.2931C55.413 52.3614 55.5714 52.429 55.6418 52.4812L55.7547 52.5774C55.9909 52.8129 56.0468 53.1243 55.9639 53.5234C55.8646 54.0008 55.5736 54.5167 55.272 54.9015C54.6746 55.6635 53.661 56.3518 52.7652 56.4906C52.3063 56.542 51.6587 56.5093 51.2114 56.3893L51.0311 56.3314C50.393 56.079 49.7844 55.697 49.1199 55.312C47.3468 54.2835 45.6076 53.1975 43.9447 52.015L43.2373 51.5022C43.0353 51.353 42.8698 51.1327 42.71 50.8436C42.5361 50.529 42.4261 50.252 42.2439 49.8862C42.082 49.5615 41.8647 49.113 41.6472 48.6673L41.6534 48.6694L41.1324 47.6148C40.5314 46.3979 39.9471 45.1724 39.3807 43.9394L38.8203 42.7039C38.4969 41.9707 38.1688 41.2702 37.9243 40.5566C37.7821 40.1411 37.7777 39.7146 37.7399 39.1495C37.6923 38.4442 37.6549 37.6187 37.4778 36.8564C37.3807 36.4387 37.142 35.8741 36.848 35.2766C36.5483 34.6677 36.1717 33.9854 35.7759 33.3205C34.9961 32.0105 34.0994 30.6954 33.5374 30.1342C33.024 29.6217 32.4026 29.2278 31.7194 28.9824L31.7153 28.9814L31.5464 28.9287C31.1297 28.8128 30.5629 28.7445 29.9554 28.7002C29.2445 28.6484 28.4207 28.6264 27.5977 28.6206C25.9664 28.6091 24.2602 28.6596 23.4698 28.663H23.4656C22.3775 28.6749 21.2899 28.6258 20.2068 28.5223C20.0995 28.3103 20.0422 28.098 19.9944 27.8772C19.9393 27.6223 19.8798 27.2172 19.7003 26.8961C19.5496 26.627 19.2704 26.4563 19.0663 26.3492C18.8401 26.2304 18.5715 26.1236 18.3288 26.0276L18.291 26.0127C18.0511 25.9178 17.8317 25.8311 17.643 25.7402C17.4348 25.6399 17.3281 25.5629 17.2867 25.5169L17.2629 25.491L17.2359 25.4673C16.0433 24.4501 15.0305 23.2231 13.9975 21.9718L13.9667 21.9345L13.9647 21.9356C13.9209 21.8764 13.8678 21.8074 13.8269 21.7588C13.762 21.6816 13.7192 21.6325 13.6839 21.5903L8.41448 15.1399C7.30086 13.7742 5.89895 11.9683 4.75787 10.6012L4.62631 10.4431L4.61285 10.441C4.1315 9.86407 3.40759 8.99196 3 8.43426C3.00132 8.40774 3.00253 8.38168 3.00414 8.35672C3.76718 7.33961 4.54358 6.33172 5.33277 5.33471L5.33381 5.33368C5.64841 4.93335 6.02707 4.52546 6.57478 4.13129Z" stroke="white" stroke-width="1.5" stroke-linejoin="round"/>
<defs>
<pattern id="pattern0_176_57" patternUnits="userSpaceOnUse" patternTransform="matrix(12 0 0 12 0 0)" preserveAspectRatio="none" viewBox="0 0 12 12" width="1" height="1">
<g id="pattern0_176_57_inner">
<rect y="2" width="3" height="1" fill="#D9D9D9"/>
<rect y="8" width="3" height="1" fill="#D9D9D9"/>
<rect x="6" y="2" width="3" height="1" fill="#D9D9D9"/>
<rect x="6" y="8" width="3" height="1" fill="#D9D9D9"/>
<rect x="5" y="3" width="3" height="1" transform="rotate(180 5 3)" fill="#D9D9D9"/>
<rect x="5" y="9" width="3" height="1" transform="rotate(180 5 9)" fill="#D9D9D9"/>
<rect x="11" y="3" width="3" height="1" transform="rotate(180 11 3)" fill="#D9D9D9"/>
<rect x="11" y="9" width="3" height="1" transform="rotate(180 11 9)" fill="#D9D9D9"/>
<rect x="2" width="1" height="2" fill="#D9D9D9"/>
<rect x="2" y="6" width="1" height="2" fill="#D9D9D9"/>
<rect x="8" width="1" height="2" fill="#D9D9D9"/>
<rect x="8" y="6" width="1" height="2" fill="#D9D9D9"/>
<rect x="3" y="5" width="1" height="2" transform="rotate(180 3 5)" fill="#D9D9D9"/>
<rect x="3" y="11" width="1" height="2" transform="rotate(180 3 11)" fill="#D9D9D9"/>
<rect x="9" y="5" width="1" height="2" transform="rotate(180 9 5)" fill="#D9D9D9"/>
<rect x="9" y="11" width="1" height="2" transform="rotate(180 9 11)" fill="#D9D9D9"/>
</g>
</pattern></defs>
</svg>
