<svg width="60" height="60" viewBox="0 0 60 60" fill="none" xmlns="http://www.w3.org/2000/svg" xmlns:xlink="http://www.w3.org/1999/xlink">
<rect width="60" height="60" fill="url(#pattern0_2021_456)" fill-opacity="0.1"/>
<path fill-rule="evenodd" clip-rule="evenodd" d="M14.2402 3.01325L14.457 3.04743L14.4824 3.05231L14.5068 3.06012C14.5686 3.07833 14.6305 3.09774 14.6923 3.11774C15.5017 3.37787 16.1291 3.89576 16.5263 4.67145C16.9979 5.59284 16.8853 6.66111 16.5078 7.56012C16.1297 8.46012 15.4524 9.27825 14.6562 9.72516C14.1148 10.0287 13.4474 10.0208 12.8828 9.9195C12.3034 9.81553 11.7358 9.5966 11.3222 9.36872C11.035 9.21039 10.7472 9.01759 10.5146 8.87555C10.3155 8.75397 10.125 8.64917 9.92279 8.56598C9.95819 8.59497 9.99728 8.6276 10.0419 8.66071C10.2897 8.84434 10.6298 9.05183 10.998 9.25543C11.736 9.6635 12.5234 10.0228 12.7734 10.1177C13.184 10.2737 13.616 10.375 14.0927 10.4937C14.5565 10.6092 15.058 10.7406 15.538 10.9576C16.0426 11.1857 16.5236 11.5052 16.9365 11.7564L18.8759 12.939C21.0606 14.2709 23.3284 15.6658 25.4404 17.1402C26.1427 17.6305 26.9356 18.2228 27.7206 18.8218L29.956 20.5445L29.996 20.5748C30.1437 20.6712 30.3314 20.8066 30.4999 20.9312L31.0419 21.3267L31.0458 21.3297C31.8437 21.8899 32.649 22.5043 33.4023 23.1109C33.5231 23.2082 33.9408 23.5212 34.2509 23.7769C34.4199 23.9162 34.5922 24.0665 34.7353 24.2095C34.8623 24.3365 35.023 24.512 35.1025 24.7007C35.4049 25.4206 35.4036 26.1787 35.4638 26.7125C35.5266 27.2687 35.6493 27.7312 36.1113 28.1793C36.1973 28.2627 36.2784 28.3497 36.3496 28.4263C36.4236 28.5061 36.4888 28.5758 36.5556 28.6412C36.6543 28.7377 36.7457 28.813 36.8417 28.8687L36.9394 28.9175L36.9648 28.9293C37.2332 29.0624 37.5346 29.1916 37.7763 29.2447C39.6171 29.6109 41.4317 29.5355 43.4228 29.5738C44.2492 29.5897 45.199 29.6067 46.0224 29.9039C46.8904 30.2172 47.6103 30.8369 47.9833 31.9849L48.0117 32.0914C48.0344 32.2009 48.0434 32.3192 48.0488 32.4166C48.0568 32.562 48.0579 32.7271 48.0566 32.8853C48.0552 33.0444 48.0514 33.2054 48.0478 33.3443C48.044 33.4871 48.0409 33.6015 48.041 33.6783C48.0443 34.2001 48.0575 34.7224 48.081 35.2437C48.1903 37.8195 48.3624 40.2792 48.4267 42.9068C48.4511 43.8455 48.4626 44.7851 48.4619 45.7242V45.7281C48.457 46.3153 48.4345 46.8135 48.4345 47.3746C48.4347 47.6559 48.5356 47.8125 48.8105 48.0836C49.7511 48.2957 50.768 48.4287 51.8144 48.5826C52.8956 48.7416 54.0029 48.9245 55.0009 49.2545L55.2646 49.3521C55.8613 49.5982 56.3217 49.9796 56.6425 50.6275C57.0497 51.4502 57.0475 52.2373 56.7705 53.0591C56.2214 54.686 55.0148 55.8747 53.5371 56.606C52.3484 57.1944 50.8493 57.1893 49.6494 56.7808C49.2771 56.6542 48.6134 56.3099 47.8544 55.8814C47.0795 55.4439 46.1612 54.8936 45.2587 54.3267C44.3562 53.7599 43.4642 53.1728 42.7421 52.6646C42.129 52.2331 41.595 51.8288 41.2968 51.5318L41.1845 51.4117C40.8886 51.0682 40.5606 50.4452 40.2783 49.8687C40.132 49.57 39.9889 49.2643 39.8603 48.9888C39.7306 48.7112 39.6166 48.4664 39.5234 48.2779L39.1396 47.5015L39.0468 47.315L39.0497 47.3043C38.3537 45.892 37.6833 44.4663 37.041 43.0289C36.7422 42.3548 36.2447 41.2511 35.999 40.5162L35.9941 40.5006L35.9902 40.4849C35.839 39.9142 35.7926 39.3345 35.7597 38.7935C35.726 38.2381 35.7061 37.7312 35.621 37.234C35.4655 36.3277 34.9636 35.5518 34.4335 34.6343C33.778 33.4996 33.2083 32.4273 32.3701 31.5474C31.687 30.8304 30.8949 30.8065 29.7226 30.7486H29.7197C28.235 30.6669 26.7402 30.7252 25.204 30.7496C23.6799 30.7737 22.1277 30.7637 20.5878 30.5328C20.1054 30.4604 19.7767 30.068 19.5869 29.7798C19.3786 29.4635 19.2294 29.1067 19.1464 28.8638C19.0611 28.614 19.0277 28.4316 19.0146 28.2379C18.3989 27.9957 17.7493 27.8053 17.0537 27.192C15.297 25.643 13.7377 23.5798 12.3105 21.8365L12.3085 21.8345L5.10639 12.9439L4.9726 12.7798L4.97358 12.7701C4.46437 12.1424 3.89965 11.4709 3.39838 10.8277C3.02422 10.3476 2.93915 9.80649 3.03803 9.25348C3.08204 9.00387 3.17222 8.76412 3.30365 8.54743C3.41381 8.36595 3.55432 8.18797 3.65229 8.05817C4.43172 7.02515 5.23286 6.01089 6.02729 4.99958C6.29056 4.66438 6.59256 4.27095 7.04193 3.96735C7.39713 3.72746 7.86862 3.65419 8.11127 3.60114L8.13275 3.59625L8.15424 3.59333C10.0801 3.34729 12.0349 3.19532 13.9433 3.00446C14.0385 2.99495 14.1461 3.00195 14.2402 3.01325ZM14.0507 5.00348C12.3826 5.15672 10.7229 5.28705 9.081 5.49274L8.37397 5.58649C8.34927 5.58996 8.27507 5.60687 8.18061 5.63922C8.13725 5.65408 8.09644 5.67041 8.06244 5.68512C8.05711 5.68743 8.05153 5.68983 8.04682 5.69196C7.75719 5.99375 7.50063 6.34409 7.20404 6.72223L7.20307 6.72321C6.45906 7.66495 5.7271 8.61697 5.00775 9.5777C5.00624 9.60128 5.00509 9.6259 5.00385 9.65094C5.3881 10.1777 6.07056 11.0015 6.52436 11.5464L6.53705 11.5484L6.66108 11.6978C7.73683 12.9891 9.05848 14.6949 10.1083 15.9849L15.0761 22.0777C15.1094 22.1176 15.1497 22.164 15.2109 22.2369C15.2494 22.2828 15.2995 22.3479 15.3408 22.4039L15.3427 22.4029C16.3266 23.597 17.2892 24.7695 18.4247 25.7398L18.4501 25.7623L18.4726 25.7867C18.5117 25.8302 18.6122 25.9028 18.8085 25.9976C18.9957 26.0879 19.2149 26.1739 19.455 26.2691C19.6838 26.3598 19.937 26.4606 20.1503 26.5728C20.3427 26.674 20.606 26.8353 20.748 27.0894C20.9173 27.3927 20.9734 27.7754 21.0253 28.0162C21.0704 28.2248 21.1243 28.4252 21.2255 28.6256C22.2466 28.7233 23.272 28.7697 24.2978 28.7584H24.3017C25.0468 28.7552 26.6554 28.7075 28.1933 28.7183C28.9692 28.7238 29.7458 28.7446 30.416 28.7935C30.9887 28.8353 31.5231 28.8999 31.916 29.0093L32.0751 29.0591L32.079 29.0601C32.7231 29.2919 33.3089 29.664 33.7929 30.148C34.3227 30.6782 35.1681 31.9204 35.9033 33.1578C36.2764 33.7858 36.6315 34.4303 36.914 35.0054C37.1912 35.5698 37.4161 36.1031 37.5078 36.4976C37.6747 37.2177 37.7099 37.9974 37.7548 38.6636C37.7905 39.1974 37.7946 39.6003 37.9287 39.9927C38.1592 40.6668 38.4685 41.3285 38.7734 42.0211L39.3017 43.1881C39.8356 44.3527 40.3865 45.5103 40.9531 46.6597L41.4443 47.6558L41.4384 47.6539C41.6435 48.0749 41.8484 48.4985 42.0009 48.8052C42.1727 49.1507 42.2765 49.4124 42.4404 49.7095C42.5911 49.9826 42.7471 50.1907 42.9374 50.3316L43.6044 50.816C45.172 51.9329 46.8117 52.9588 48.4833 53.9302C49.1097 54.2939 49.6836 54.6547 50.2851 54.8931L50.455 54.9478C50.8767 55.0612 51.4873 55.0921 51.9199 55.0435C52.7644 54.9125 53.72 54.2623 54.2831 53.5425C54.5676 53.1791 54.8418 52.6918 54.9355 52.2408C55.0136 51.8638 54.961 51.5697 54.7382 51.3472L54.6318 51.2564C54.5654 51.2071 54.4161 51.1432 54.1845 51.0787C53.9649 51.0175 53.7411 50.9729 53.5429 50.9293C52.7048 50.7445 51.8506 50.6246 50.9716 50.4957C50.1 50.3678 49.2062 50.2317 48.3251 50.0123C47.8718 49.8993 47.4586 49.5896 47.1533 49.2506C46.8471 48.9104 46.5909 48.4746 46.5087 48.0386C46.4109 47.5178 46.458 46.7763 46.4638 46.359C46.4711 45.7371 46.4719 45.1146 46.4658 44.4927L46.4384 43.1011C46.4061 41.7092 46.3575 40.3172 46.2939 38.9263C46.2355 37.7667 46.1437 36.5316 46.0917 35.3521L46.0585 34.3863C46.0518 34.0642 46.0491 33.7416 46.0507 33.4195C46.0509 33.3437 46.0578 33.09 46.0605 32.8824C46.0619 32.771 46.0627 32.665 46.0615 32.5845C46.061 32.5577 46.0593 32.5353 46.0585 32.5181C45.9679 32.253 45.8373 32.081 45.6865 31.9615C45.523 31.8321 45.3125 31.7424 45.0517 31.6841C44.789 31.6255 44.4962 31.603 44.1826 31.5923C43.8932 31.5825 43.5331 31.5832 43.246 31.566C42.6619 31.5309 42.0354 31.531 41.373 31.5298C40.7167 31.5288 40.0287 31.526 39.3486 31.481C37.9954 31.3916 36.6036 31.1331 35.4609 30.3297C34.9662 29.9817 34.5069 29.4491 34.1581 28.8804C33.8132 28.3178 33.5479 27.6727 33.4775 27.0728C33.4521 26.8989 33.4439 26.7116 33.4374 26.5445C33.4306 26.3681 33.426 26.2095 33.4121 26.0582C33.3813 25.7253 33.3154 25.6041 33.2714 25.566C31.9053 24.3894 30.4438 23.3735 28.9648 22.2867L28.9482 22.2906L28.7724 22.15C28.4737 21.9112 28.0859 21.616 27.6913 21.317C27.2996 21.0201 26.9002 20.7189 26.5888 20.4742C23.7382 18.2335 20.6336 16.3494 17.5087 14.4381L15.9121 13.4634C15.3243 13.1053 14.9529 12.8458 14.3955 12.6548L14.3925 12.6539C14.1097 12.5556 13.8107 12.4812 13.4872 12.4019C13.1716 12.3246 12.8295 12.2418 12.499 12.1304L12.4951 12.1285C11.1276 11.654 9.80841 10.9277 8.6435 10.1031L8.64154 10.1011C7.99806 9.63957 7.6781 8.94679 7.75678 8.26227C7.83645 7.57174 8.31247 6.97567 9.07221 6.70172C10.1203 6.32421 11.0177 6.84189 11.6972 7.2525C12.0643 7.47436 12.3783 7.67495 12.7031 7.81793C13.0176 7.95633 13.3012 8.02063 13.5839 7.98883C13.691 7.97677 13.8328 7.91572 13.997 7.77301C14.1591 7.63208 14.318 7.4315 14.456 7.19586C14.7425 6.70643 14.8735 6.17573 14.8359 5.86579C14.8034 5.59982 14.6635 5.35771 14.4492 5.19684C14.4188 5.17408 14.3191 5.11332 14.2011 5.06012C14.1452 5.03491 14.0972 5.01663 14.0624 5.00641C14.0581 5.00514 14.0541 5.00436 14.0507 5.00348Z" fill="white"/>
<defs>
<pattern id="pattern0_2021_456" patternUnits="userSpaceOnUse" patternTransform="matrix(12 0 0 12 0 0)" preserveAspectRatio="none" viewBox="0 0 12 12" width="1" height="1">
<g id="pattern0_2021_456_inner">
<rect y="2" width="3" height="1" fill="#D9D9D9"/>
<rect y="8" width="3" height="1" fill="#D9D9D9"/>
<rect x="6" y="2" width="3" height="1" fill="#D9D9D9"/>
<rect x="6" y="8" width="3" height="1" fill="#D9D9D9"/>
<rect x="5" y="3" width="3" height="1" transform="rotate(180 5 3)" fill="#D9D9D9"/>
<rect x="5" y="9" width="3" height="1" transform="rotate(180 5 9)" fill="#D9D9D9"/>
<rect x="11" y="3" width="3" height="1" transform="rotate(180 11 3)" fill="#D9D9D9"/>
<rect x="11" y="9" width="3" height="1" transform="rotate(180 11 9)" fill="#D9D9D9"/>
<rect x="2" width="1" height="2" fill="#D9D9D9"/>
<rect x="2" y="6" width="1" height="2" fill="#D9D9D9"/>
<rect x="8" width="1" height="2" fill="#D9D9D9"/>
<rect x="8" y="6" width="1" height="2" fill="#D9D9D9"/>
<rect x="3" y="5" width="1" height="2" transform="rotate(180 3 5)" fill="#D9D9D9"/>
<rect x="3" y="11" width="1" height="2" transform="rotate(180 3 11)" fill="#D9D9D9"/>
<rect x="9" y="5" width="1" height="2" transform="rotate(180 9 5)" fill="#D9D9D9"/>
<rect x="9" y="11" width="1" height="2" transform="rotate(180 9 11)" fill="#D9D9D9"/>
</g>
</pattern></defs>
</svg>
