<svg width="60" height="60" viewBox="0 0 60 60" fill="none" xmlns="http://www.w3.org/2000/svg" xmlns:xlink="http://www.w3.org/1999/xlink">
<rect width="60" height="60" fill="url(#pattern0_184_942)" fill-opacity="0.1"/>
<path fill-rule="evenodd" clip-rule="evenodd" d="M27.7426 43.3435C23.2174 45.4266 18.6543 47.4286 14.1375 49.5283C12.8715 50.1168 11.6798 50.9409 10.3939 51.4082C9.96601 51.5637 9.39372 51.5608 8.99619 51.3966C8.64498 51.2516 8.28512 50.8677 8.1477 50.4807C7.36629 48.2801 6.7782 46.1552 6.35377 43.8536C6.20188 43.03 6.45583 41.5677 6.6741 40.7568C7.80272 36.5636 8.93619 32.808 10.2147 28.6246C10.3508 28.1796 10.8045 27.8299 11.1821 27.61C11.5371 27.4033 12.0463 27.3009 12.4783 27.3419C13.7821 27.4656 15.1215 28.0459 16.3907 28.049C16.8908 28.0502 17.4161 27.7011 17.7861 27.3547C18.3654 26.8126 18.8697 26.0932 19.2386 25.3836C19.4388 24.9985 19.5135 24.5013 19.4933 24.0705C19.4768 23.7206 19.2724 23.3755 19.1285 23.0415C18.7181 22.089 18.3048 21.3834 17.9482 20.4968C17.7893 20.102 18.0317 19.545 18.3354 19.3269C18.6079 19.1311 19.0597 18.9363 19.3707 19.0152C19.7466 19.1106 20.1579 19.4879 20.3962 19.85C20.9825 20.7411 21.4627 21.7713 21.8446 22.7747C21.9854 23.1448 22.0073 23.5753 21.9644 23.9704C21.7923 25.559 21.2429 27.1612 21.1997 28.7257C21.1851 29.254 21.4924 29.8036 21.7911 30.2489C22.2827 30.9819 22.8602 31.7134 23.5728 32.178C24.1334 32.5434 24.9441 32.7233 25.6173 32.6949C26.3802 32.6628 27.1298 32.3995 27.8199 32.0383C29.0876 31.3748 30.1975 30.2759 31.4843 29.6646C32.3962 29.2313 33.4624 29.071 34.475 28.9456C35.574 28.8095 36.7287 28.6744 37.819 28.8803C40.8721 29.4569 43.8631 30.6044 46.9051 31.2931C47.4088 31.4072 47.9988 31.4103 48.3929 31.209C48.693 31.0557 48.9558 30.5863 48.9879 30.2292C49.0182 29.8923 48.812 29.4622 48.4919 29.206C43.3402 25.084 38.4366 21.2291 33.4803 16.9085C33.2318 16.6919 33.019 16.132 33.0028 15.8089C32.9861 15.4764 33.0548 15.1145 33.1835 14.8016C33.7807 13.3497 34.3674 12.0964 35.0764 10.7252C35.3144 10.2648 35.942 9.78143 36.3977 9.54833C36.9686 9.25626 37.5977 9.03545 38.2367 9.00405C38.8372 8.97454 39.4884 9.1063 40.0115 9.40002C40.7145 9.7947 41.2936 10.4325 41.8834 11.0294C42.5261 11.6798 43.0589 12.5354 43.7829 13.0403C44.3448 13.432 45.1173 13.6736 45.7964 13.6939C46.6015 13.718 47.4147 13.2652 48.2355 13.1735C48.7733 13.1134 49.4403 12.9841 49.8721 13.2386C50.4434 13.5754 51.008 14.2968 51.2448 14.9474C51.4885 15.6171 51.4341 16.5247 51.195 17.1453C51.0184 17.6035 50.4846 17.9309 50.0043 18.1399C49.7108 18.2677 49.2599 18.1123 48.9434 18.1914C48.6514 18.2645 48.3134 18.4333 48.1166 18.6657C47.2597 19.6779 46.3878 20.7193 45.9082 21.908C45.6609 22.5209 45.89 23.3599 46.2125 23.9436C46.6482 24.7322 47.2458 25.5173 47.9711 26.1143C49.3105 27.2168 50.7292 27.8948 51.9472 29.0624C52.4175 29.5132 52.7845 30.3558 52.8435 31.0168C52.901 31.6604 52.9198 32.4327 52.6907 32.9901C52.3968 33.7057 51.9059 34.2856 51.2253 34.641C50.48 35.0301 49.5729 35.1463 48.6889 35.1244C48.1103 35.1101 47.5559 34.7517 46.9848 34.7368C46.4717 34.7233 45.9235 34.8938 45.4452 35.1165C39.554 37.8599 33.6533 40.6227 27.7426 43.3435Z" stroke="white" stroke-width="1.5" stroke-linejoin="round"/>
<defs>
<pattern id="pattern0_184_942" patternUnits="userSpaceOnUse" patternTransform="matrix(12 0 0 12 0 0)" preserveAspectRatio="none" viewBox="0 0 12 12" width="1" height="1">
<g id="pattern0_184_942_inner">
<rect y="2" width="3" height="1" fill="#D9D9D9"/>
<rect y="8" width="3" height="1" fill="#D9D9D9"/>
<rect x="6" y="2" width="3" height="1" fill="#D9D9D9"/>
<rect x="6" y="8" width="3" height="1" fill="#D9D9D9"/>
<rect x="5" y="3" width="3" height="1" transform="rotate(180 5 3)" fill="#D9D9D9"/>
<rect x="5" y="9" width="3" height="1" transform="rotate(180 5 9)" fill="#D9D9D9"/>
<rect x="11" y="3" width="3" height="1" transform="rotate(180 11 3)" fill="#D9D9D9"/>
<rect x="11" y="9" width="3" height="1" transform="rotate(180 11 9)" fill="#D9D9D9"/>
<rect x="2" width="1" height="2" fill="#D9D9D9"/>
<rect x="2" y="6" width="1" height="2" fill="#D9D9D9"/>
<rect x="8" width="1" height="2" fill="#D9D9D9"/>
<rect x="8" y="6" width="1" height="2" fill="#D9D9D9"/>
<rect x="3" y="5" width="1" height="2" transform="rotate(180 3 5)" fill="#D9D9D9"/>
<rect x="3" y="11" width="1" height="2" transform="rotate(180 3 11)" fill="#D9D9D9"/>
<rect x="9" y="5" width="1" height="2" transform="rotate(180 9 5)" fill="#D9D9D9"/>
<rect x="9" y="11" width="1" height="2" transform="rotate(180 9 11)" fill="#D9D9D9"/>
</g>
</pattern></defs>
</svg>
