<svg width="60" height="60" viewBox="0 0 60 60" fill="none" xmlns="http://www.w3.org/2000/svg" xmlns:xlink="http://www.w3.org/1999/xlink">
<rect width="60" height="60" fill="url(#pattern0_184_942)" fill-opacity="0.1"/>
<path fill-rule="evenodd" clip-rule="evenodd" d="M28.2027 44.492C23.6776 46.575 19.1145 48.577 14.5977 50.6767C13.3316 51.2652 12.1399 52.0893 10.8541 52.5566C10.4262 52.7121 9.85386 52.7092 9.45633 52.5451C9.10513 52.4 8.74527 52.0161 8.60785 51.6291C7.82643 49.4286 7.23834 47.3037 6.81391 45.0021C6.66202 44.1784 6.91597 42.7161 7.13425 41.9052C8.26286 37.712 9.39633 33.9564 10.6749 29.773C10.8109 29.328 11.2646 28.9783 11.6422 28.7585C11.9973 28.5517 12.5065 28.4493 12.9384 28.4903C14.2422 28.614 15.5816 29.1944 16.8509 29.1975C17.3509 29.1987 17.8762 28.8495 18.2463 28.5032C18.8255 27.961 19.3299 27.2416 19.6987 26.532C19.8989 26.1469 19.9737 25.6498 19.9534 25.2189C19.937 24.8691 19.7325 24.5239 19.5886 24.1899C19.1783 23.2374 18.765 22.5318 18.4083 21.6453C18.2494 21.2504 18.4919 20.6935 18.7956 20.4753C19.068 20.2796 19.5198 20.0847 19.8309 20.1637C20.2068 20.2591 20.6181 20.6363 20.8563 20.9984C21.4427 21.8895 21.9228 22.9197 22.3047 23.9232C22.4455 24.2932 22.4674 24.7238 22.4246 25.1189C22.2524 26.7074 21.703 28.3096 21.6598 29.8742C21.6452 30.4025 21.9525 30.952 22.2512 31.3974C22.7428 32.1303 23.3203 32.8619 24.0329 33.3264C24.5935 33.6918 25.4043 33.8717 26.0775 33.8434C26.8404 33.8113 27.5899 33.548 28.28 33.1868C29.5478 32.5232 30.6577 31.4243 31.9444 30.813C32.8564 30.3798 33.9226 30.2194 34.9351 30.094C36.0341 29.958 37.1889 29.8228 38.2791 30.0287C41.3322 30.6053 44.3232 31.7528 47.3653 32.4416C47.869 32.5556 48.4589 32.5588 48.853 32.3575C49.1532 32.2041 49.4159 31.7347 49.448 31.3777C49.4783 31.0407 49.2722 30.6106 48.952 30.3545C43.8003 26.2325 38.8967 22.3776 33.9404 18.057C33.6919 17.8404 33.4791 17.2804 33.4629 16.9573C33.4462 16.6248 33.5149 16.2629 33.6436 15.95C34.2408 14.4981 34.8275 13.2448 35.5365 11.8737C35.7746 11.4132 36.4021 10.9299 36.8578 10.6968C37.4288 10.4047 38.0579 10.1839 38.6968 10.1525C39.2974 10.123 39.9485 10.2547 40.4717 10.5485C41.1747 10.9431 41.7537 11.5809 42.3435 12.1778C42.9863 12.8283 43.519 13.6838 44.2431 14.1887C44.8049 14.5804 45.5775 14.822 46.2566 14.8423C47.0616 14.8664 47.8749 14.4136 48.6957 14.3219C49.2334 14.2619 49.9004 14.1326 50.3322 14.3871C50.9035 14.7239 51.4681 15.4452 51.7049 16.0958C51.9487 16.7656 51.8943 17.6731 51.6551 18.2937C51.4786 18.7519 50.9448 19.0794 50.4645 19.2884C50.1709 19.4161 49.7201 19.2607 49.4036 19.3399C49.1115 19.4129 48.7736 19.5818 48.5768 19.8142C47.7198 20.8263 46.848 21.8677 46.3684 23.0564C46.1211 23.6693 46.3501 24.5083 46.6726 25.092C47.1083 25.8806 47.706 26.6657 48.4312 27.2627C49.7707 28.3653 51.1893 29.0433 52.4074 30.2109C52.8776 30.6616 53.2447 31.5042 53.3037 32.1653C53.3611 32.8088 53.3799 33.5811 53.1509 34.1386C52.8569 34.8541 52.3661 35.434 51.6854 35.7894C50.9402 36.1785 50.033 36.2947 49.149 36.2728C48.5705 36.2585 48.016 35.9002 47.445 35.8852C46.9319 35.8717 46.3837 36.0422 45.9054 36.265C40.0141 39.0083 34.1135 41.7711 28.2027 44.492Z" stroke="white" stroke-width="1.5" stroke-linejoin="round"/>
<defs>
<pattern id="pattern0_184_942" patternUnits="userSpaceOnUse" patternTransform="matrix(12 0 0 12 0 0)" preserveAspectRatio="none" viewBox="0 0 12 12" width="1" height="1">
<g id="pattern0_184_942_inner">
<rect y="2" width="3" height="1" fill="#D9D9D9"/>
<rect y="8" width="3" height="1" fill="#D9D9D9"/>
<rect x="6" y="2" width="3" height="1" fill="#D9D9D9"/>
<rect x="6" y="8" width="3" height="1" fill="#D9D9D9"/>
<rect x="5" y="3" width="3" height="1" transform="rotate(180 5 3)" fill="#D9D9D9"/>
<rect x="5" y="9" width="3" height="1" transform="rotate(180 5 9)" fill="#D9D9D9"/>
<rect x="11" y="3" width="3" height="1" transform="rotate(180 11 3)" fill="#D9D9D9"/>
<rect x="11" y="9" width="3" height="1" transform="rotate(180 11 9)" fill="#D9D9D9"/>
<rect x="2" width="1" height="2" fill="#D9D9D9"/>
<rect x="2" y="6" width="1" height="2" fill="#D9D9D9"/>
<rect x="8" width="1" height="2" fill="#D9D9D9"/>
<rect x="8" y="6" width="1" height="2" fill="#D9D9D9"/>
<rect x="3" y="5" width="1" height="2" transform="rotate(180 3 5)" fill="#D9D9D9"/>
<rect x="3" y="11" width="1" height="2" transform="rotate(180 3 11)" fill="#D9D9D9"/>
<rect x="9" y="5" width="1" height="2" transform="rotate(180 9 5)" fill="#D9D9D9"/>
<rect x="9" y="11" width="1" height="2" transform="rotate(180 9 11)" fill="#D9D9D9"/>
</g>
</pattern></defs>
</svg>
