<svg width="60" height="60" viewBox="0 0 60 60" fill="none" xmlns="http://www.w3.org/2000/svg" xmlns:xlink="http://www.w3.org/1999/xlink">
<rect width="60" height="60" fill="url(#pattern0_217_3)" fill-opacity="0.1"/>
<path d="M29.4047 31.3099C29.4047 31.3099 51.9439 44.4616 52.348 44.6579C52.7521 44.8541 53.087 44.9234 53.3641 44.3923C53.6297 43.8496 56.6434 38.4804 56.8166 38.2032C56.9898 37.9377 57.2207 37.8337 56.551 37.3603C55.8697 36.8869 50.3966 33.4345 49.2188 32.834C48.0411 32.222 39.3464 27.3609 39.1501 27.257C38.9423 27.153 38.8845 27.0838 38.5728 27.5225C38.2725 27.9613 36.275 31.0674 36.1364 31.4138C35.9979 31.7486 35.663 31.8526 35.2935 31.6447C34.924 31.4369 32.5569 30.0282 32.0489 29.7857C31.5408 29.5548 29.2777 28.7349 28.9775 28.6079C28.6772 28.4694 28.2038 28.4694 27.9613 28.9428C27.7304 29.4162 27.7881 29.7511 27.257 29.5894C26.7143 29.4162 20.1558 27.5225 19.6477 27.4302C19.1397 27.3262 18.9549 27.3147 18.7702 27.3378C18.5854 27.3493 18.2275 26.9798 18.5854 26.518C18.5854 26.518 20.8024 23.308 20.9063 23.1579C21.0102 23.0078 21.0795 22.7191 20.9294 22.5575C20.7793 22.4073 20.7793 22.1995 20.7677 22.0956C20.7562 21.9917 20.7447 21.7838 20.5945 21.6106C20.4444 21.449 20.3059 21.1834 20.202 21.091C20.098 20.9986 20.0172 20.6176 20.2135 20.4213C20.4213 20.2135 20.6176 19.8555 20.6985 19.7401C20.7793 19.6246 20.8486 19.3706 20.6523 19.2089C20.4444 19.0473 18.4238 17.6501 17.0035 16.9111C15.5833 16.1721 13.2393 15.2137 12.9968 15.1098C12.7543 15.0059 11.9807 14.9366 11.5419 15.0867C11.1032 15.2368 7.99709 16.3915 7.76615 16.4723C7.53522 16.5532 7.30428 16.634 7.09644 16.8534C6.84242 17.0612 5.21433 18.6085 4.85638 18.8741C4.49844 19.1396 3.45923 19.8555 3.28603 19.9479C3.11283 20.0518 2.93963 20.0518 3.02046 20.4906C3.10128 20.9294 3.79409 24.2895 3.87491 25.0285C3.95574 25.7674 4.27905 27.6726 4.30214 27.9729C4.32523 28.2615 4.38297 28.7927 5.06422 28.6772C5.74548 28.5617 8.02018 28.0768 8.40122 28.0306C8.78226 27.9844 9.54435 27.7766 10.6297 28.0306C11.7151 28.2846 13.8628 28.7811 14.29 28.862C14.7173 28.9543 15.5486 28.862 16.0105 28.6772C16.4839 28.4925 17.5693 28.123 17.8002 28.0306C18.0312 27.9382 18.6893 27.7997 19.2436 27.9498C19.7978 28.0999 25.9407 29.7626 26.3448 29.8896C26.7489 30.0166 27.4302 30.2476 27.7189 30.3746C27.9844 30.5131 29.2315 31.229 29.4047 31.3099Z" stroke="white" stroke-width="1.5" stroke-miterlimit="10" stroke-linecap="round" stroke-linejoin="round"/>
<defs>
<pattern id="pattern0_217_3" patternUnits="userSpaceOnUse" patternTransform="matrix(12 0 0 12 0 0)" preserveAspectRatio="none" viewBox="0 0 12 12" width="1" height="1">
<g id="pattern0_217_3_inner">
<rect y="2" width="3" height="1" fill="#D9D9D9"/>
<rect y="8" width="3" height="1" fill="#D9D9D9"/>
<rect x="6" y="2" width="3" height="1" fill="#D9D9D9"/>
<rect x="6" y="8" width="3" height="1" fill="#D9D9D9"/>
<rect x="5" y="3" width="3" height="1" transform="rotate(180 5 3)" fill="#D9D9D9"/>
<rect x="5" y="9" width="3" height="1" transform="rotate(180 5 9)" fill="#D9D9D9"/>
<rect x="11" y="3" width="3" height="1" transform="rotate(180 11 3)" fill="#D9D9D9"/>
<rect x="11" y="9" width="3" height="1" transform="rotate(180 11 9)" fill="#D9D9D9"/>
<rect x="2" width="1" height="2" fill="#D9D9D9"/>
<rect x="2" y="6" width="1" height="2" fill="#D9D9D9"/>
<rect x="8" width="1" height="2" fill="#D9D9D9"/>
<rect x="8" y="6" width="1" height="2" fill="#D9D9D9"/>
<rect x="3" y="5" width="1" height="2" transform="rotate(180 3 5)" fill="#D9D9D9"/>
<rect x="3" y="11" width="1" height="2" transform="rotate(180 3 11)" fill="#D9D9D9"/>
<rect x="9" y="5" width="1" height="2" transform="rotate(180 9 5)" fill="#D9D9D9"/>
<rect x="9" y="11" width="1" height="2" transform="rotate(180 9 11)" fill="#D9D9D9"/>
</g>
</pattern></defs>
</svg>
