<svg width="60" height="60" viewBox="0 0 60 60" fill="none" xmlns="http://www.w3.org/2000/svg" xmlns:xlink="http://www.w3.org/1999/xlink">
<rect width="60" height="60" fill="url(#pattern0_184_971)" fill-opacity="0.1"/>
<path fill-rule="evenodd" clip-rule="evenodd" d="M41.5551 3.00299C41.628 3.00422 41.6836 3.02558 41.7026 3.03327C41.7406 3.04873 41.7741 3.06775 41.7983 3.08307C41.848 3.11456 41.9013 3.156 41.9536 3.19928C42.0602 3.28771 42.1956 3.41328 42.3491 3.56257C42.658 3.863 43.0601 4.28091 43.4897 4.74616C44.3476 5.6752 45.334 6.8129 45.9282 7.61335C46.2625 8.06375 46.008 8.53475 45.977 8.62507C45.9287 8.76574 45.8686 8.90184 45.7563 9.04303C45.6493 9.17741 45.506 9.30223 45.3149 9.44342C45.1423 9.57094 44.9716 9.69934 44.7973 9.82917C44.6696 9.92443 44.6425 9.99382 44.6372 10.0274C44.632 10.0615 44.636 10.1376 44.7299 10.2706C45.153 10.8691 45.5788 11.4662 46.0043 12.0645C47.1203 13.6335 48.2298 15.2037 49.351 16.7657C50.4115 18.2431 51.3155 19.8104 52.0522 21.4747C52.6015 22.7156 53.0495 24.0008 53.396 25.3018C53.5933 26.0432 53.7616 26.7781 53.9038 27.5421C54.2003 29.1355 54.2911 30.2633 54.2983 31.2432C54.3018 31.7252 54.2865 32.1909 54.1723 32.7188C54.058 33.2467 53.8479 33.8235 53.477 34.5391C53.0145 35.4316 51.993 37.4064 51.4663 38.4512C51.5591 38.4755 51.6632 38.5034 51.769 38.5294C52.0809 38.6058 52.4333 38.7451 52.6626 38.8643C52.7164 38.8923 52.7925 38.9506 52.8344 38.9825C52.8897 39.0245 52.9509 39.0729 52.9926 39.1055C53.0913 39.1826 53.145 39.2852 53.1713 39.3507C53.1862 39.3876 53.1979 39.4281 53.2055 39.4688C53.2106 39.4958 53.2245 39.5728 53.2016 39.6592C52.856 40.9599 51.2964 47.214 50.8071 49.1153C50.3664 50.8274 49.8638 52.6484 49.4174 54.3516C49.1083 55.5303 47.9408 56.3196 46.7495 56.1739C45.8717 56.0662 45.1457 55.4978 44.811 54.7276C44.6854 54.4386 44.6107 54.1174 44.6127 53.7774C44.6155 53.3453 44.7665 52.9522 44.8793 52.6368C45.1624 51.8457 45.4261 51.0983 45.7094 50.3048C45.8472 49.9189 45.9898 49.5227 46.1323 49.128C46.2748 48.7332 46.4169 48.3386 46.5542 47.9542C46.6209 47.7672 46.677 47.612 46.7221 47.4395C46.7522 47.3246 46.7283 47.2502 46.6958 47.2042C46.6607 47.1548 46.5868 47.0991 46.4526 47.0782C46.0778 47.0199 45.6148 46.9427 45.227 46.6192C44.7246 46.2001 44.4961 45.6073 44.6186 44.9581C44.8166 43.9105 45.0417 42.8519 45.2504 41.8145C45.4054 41.0443 45.5524 40.2926 45.6997 39.5401C45.8469 38.7877 45.9941 38.0333 46.1499 37.2608C46.4819 35.6141 46.7793 34.1233 47.1118 32.4757C47.3066 31.5099 47.5834 30.1972 47.7651 29.2637C47.7926 29.1225 47.8287 28.9723 47.8618 28.837C47.8958 28.6975 47.926 28.5751 47.9458 28.4737C47.9669 28.3652 47.9975 28.2387 48.0249 28.1241C48.0534 28.0047 48.0796 27.8946 48.0961 27.8018C48.099 27.786 48.0992 27.7718 48.0991 27.7608L48.0961 27.7335C46.9816 25.2931 44.9914 21.186 43.6665 18.9864C43.659 18.9832 43.6494 18.9794 43.6372 18.9747C43.5751 18.9508 43.5189 18.9297 43.4614 18.9112C43.232 18.8373 42.9864 18.7516 42.7485 18.669C42.1687 18.4678 41.3439 18.221 40.5737 17.9747C40.1928 17.8529 39.8263 17.732 39.52 17.6192C39.2226 17.5097 38.9525 17.3978 38.7827 17.2921C38.3458 17.0196 38.0043 16.7644 37.7377 16.4317C37.4688 16.096 37.294 15.7041 37.1469 15.1876C37.0385 14.8066 36.9421 14.4341 36.8461 14.0674C36.7498 13.6992 36.6532 13.3352 36.5444 12.9649C36.4894 12.7778 36.3454 12.6871 36.1186 12.6202C36.0675 12.6052 36.0298 12.6033 35.9956 12.6085C35.96 12.6139 35.9064 12.63 35.8305 12.6798C35.7212 12.7515 35.629 12.8027 35.5532 12.8458C35.4777 12.8887 35.411 12.9281 35.3315 12.9854C32.6407 14.9254 29.9495 16.8652 27.2592 18.8057C25.0295 20.414 22.7991 22.0257 20.5688 23.6339C18.4334 25.1736 16.2969 26.7129 14.1596 28.2501C13.4539 28.7577 12.3691 29.4906 11.6254 29.9454C10.6462 30.544 9.54266 30.7112 8.43111 30.2969C7.08029 29.7934 6.24936 28.7859 5.96333 27.3819C5.75344 26.3514 5.4784 25.223 5.27974 24.168C5.14859 23.4715 4.96343 22.5663 5.0063 21.7706C5.04121 21.1246 5.19361 20.6781 5.42232 20.1163C5.89237 18.9617 6.70472 18.1221 7.69185 17.4542C7.97351 17.2636 8.24815 17.0577 8.52779 16.8458C8.80542 16.6353 9.09123 16.4165 9.38423 16.21C10.2115 15.6272 11.3728 15.6643 12.1918 16.2501C12.9904 16.8214 13.4932 17.8732 13.2094 18.8575C13.1793 18.9618 13.1323 19.0917 13.0493 19.2325L13.0502 19.2335L12.1909 20.9034C11.8932 21.5099 11.6143 22.082 11.3149 22.6895C11.2401 22.8415 11.2109 22.9699 11.2143 23.0645C11.2174 23.1479 11.2449 23.209 11.3061 23.2618C11.3887 23.3328 11.4299 23.3347 11.4477 23.334C11.4788 23.3328 11.5497 23.3166 11.6821 23.2208C12.7502 22.4468 13.917 21.6244 15.0815 20.8048C16.2469 19.9845 17.411 19.1657 18.476 18.3965C20.7905 16.725 23.1108 15.0583 25.4262 13.3897C27.9073 11.6018 30.3887 9.81288 32.8686 8.0235C33.7138 7.41363 34.5738 6.77954 35.4614 6.20124C37.6884 4.75031 39.2611 3.82388 40.3208 3.28034C40.5417 3.167 40.8287 3.09448 41.0512 3.0528C41.1659 3.03134 41.2738 3.01638 41.3608 3.00788C41.4039 3.00368 41.4461 3.00094 41.4829 3.00007C41.4958 2.99977 41.5229 3.00046 41.5551 3.00299ZM41.2485 4.59089C40.5742 4.92561 38.3743 6.09051 36.5336 7.3194C36.1658 7.56501 35.8275 7.82849 35.4487 8.10163C32.8379 9.98403 30.2259 11.866 27.6157 13.7491C25.2217 15.4761 22.8265 17.2076 20.4321 18.9346C17.9809 20.7027 15.203 22.7455 12.7534 24.5225C12.0323 25.0454 11.1756 25.1034 10.3842 24.626C10.0103 24.4003 9.76271 24.0135 9.6479 23.6143C9.53312 23.215 9.5381 22.7572 9.72408 22.3682C10.0103 21.7701 10.3084 21.1741 10.5981 20.584L11.5551 18.5518C11.7251 18.1721 11.5798 17.7277 11.2729 17.4805C11.0897 17.3331 10.8509 17.3035 10.6196 17.3878C10.4587 17.4464 10.3819 17.4796 10.2807 17.5479C10.0308 17.7166 9.75415 17.9181 9.46431 18.1299C9.17661 18.3402 8.87599 18.5615 8.5854 18.7628C8.02476 19.1511 7.53694 19.5539 7.20161 20.087C6.65816 20.9511 6.32578 21.9032 6.50044 22.8165C6.78601 24.3096 7.03766 25.8772 7.51607 27.3419C7.76594 28.1063 8.40744 28.6072 9.18697 28.7911C9.96966 28.9755 10.8621 28.8304 11.5581 28.3282C13.0222 27.271 14.4867 26.2113 15.9516 25.1544C17.9766 23.6933 20.0025 22.2323 22.0288 20.7725C24.0018 19.3511 25.9724 17.936 27.9448 16.5147C30.3108 14.8098 32.6757 13.1023 35.0415 11.3965C36.1446 10.6016 37.7372 11.1295 38.1186 12.4415C38.2325 12.8333 38.3386 13.2273 38.4438 13.6163C38.5494 14.0065 38.6541 14.3931 38.768 14.7755C38.8591 15.0812 38.9706 15.2848 39.1137 15.4532C39.2614 15.6268 39.4571 15.7809 39.7465 15.9737C39.8092 16.0154 39.9748 16.0915 40.2495 16.1983C40.512 16.3004 40.8442 16.4196 41.2153 16.5479C41.9498 16.8019 42.8479 17.0976 43.6059 17.3653C44.0321 17.5158 44.5333 17.6621 44.8598 18.1993C45.9328 19.9645 47.4089 22.8845 48.5659 25.1583L49.5903 27.1505L49.604 27.1758L49.6127 27.2032C49.648 27.3099 49.6867 27.4928 49.6792 27.6583C49.676 27.7252 49.6589 27.8207 49.6411 27.9092C49.6212 28.0081 49.5932 28.134 49.561 28.2784C49.496 28.5696 49.4096 28.9451 49.3188 29.3702C49.2095 29.8814 49.0782 30.4342 48.9614 30.921C48.8434 31.4123 48.7419 31.8304 48.6909 32.084C48.5678 32.6955 48.4603 33.2821 48.352 33.8712C48.2439 34.4593 48.1351 35.0511 48.0112 35.669C47.8069 36.6874 47.5995 37.7095 47.395 38.7266C47.1466 39.9621 46.8988 41.1979 46.6508 42.4337C46.4668 43.351 46.2804 44.265 46.101 45.1807C46.0696 45.342 46.1497 45.477 46.3344 45.5206C46.4727 45.5531 46.6114 45.5817 46.7495 45.6065C47.5945 45.7581 48.2451 46.4461 48.2153 47.3428C48.2024 47.7248 48.051 48.1061 47.9555 48.3848C47.6894 49.1613 47.4026 49.9361 47.1293 50.7012C46.8191 51.5698 46.5154 52.459 46.1889 53.3321C45.9796 53.8931 46.259 54.4865 46.7739 54.6563C47.2972 54.8286 47.8733 54.5171 48.021 53.9473C48.3395 52.7158 48.6519 51.4849 48.9692 50.251C49.4544 48.3642 49.9407 46.4772 50.4272 44.5909C50.5074 44.28 51.3859 40.8477 51.603 39.9971C51.5006 39.9442 51.3564 39.8832 51.1909 39.8223C51.0131 39.7569 50.8257 39.695 50.6674 39.6436C50.5221 39.5965 50.3754 39.5499 50.309 39.5225C50.2407 39.4942 50.157 39.4376 50.0913 39.3839C50.022 39.3272 49.9244 39.2351 49.8588 39.1173C49.786 38.9863 49.7609 38.8515 49.7583 38.7413C49.756 38.6445 49.7704 38.5209 49.8256 38.42L50.2612 37.6661C50.7716 36.7993 51.4888 35.5931 52.229 34.0557C52.7035 33.0699 52.7861 32.3885 52.7797 31.6817C52.7663 30.2066 52.6823 29.2176 52.4682 28.3106C52.2215 27.2656 51.834 25.8546 51.4917 24.671C51.3207 24.0798 51.1612 23.5465 51.0376 23.1465C50.9757 22.9467 50.9229 22.7808 50.8823 22.6583C50.862 22.597 50.8447 22.5474 50.8315 22.5108C50.819 22.4762 50.8129 22.4613 50.812 22.459C50.5088 21.8278 49.4197 19.62 48.5971 18.4327C47.589 16.9776 46.5506 15.6351 45.5063 14.1807C44.8089 13.2096 44.003 12.1609 43.3217 11.1651C43.1182 10.8675 42.9847 10.4612 42.9868 10.0919C42.9899 9.58121 43.2351 9.03962 43.7163 8.67682C43.9315 8.51461 44.1755 8.32798 44.3911 8.16315C44.456 8.11349 44.4816 8.08084 44.4926 8.06452C44.4986 8.05566 44.5007 8.04593 44.5063 8.03327C43.5327 6.74697 41.9167 5.24672 41.2856 4.59674C41.2828 4.59616 41.2797 4.59531 41.2768 4.59479C41.2657 4.59278 41.256 4.59168 41.2485 4.59089Z" fill="white"/>
<defs>
<pattern id="pattern0_184_971" patternUnits="userSpaceOnUse" patternTransform="matrix(12 0 0 12 0 0)" preserveAspectRatio="none" viewBox="0 0 12 12" width="1" height="1">
<g id="pattern0_184_971_inner">
<rect y="2" width="3" height="1" fill="#D9D9D9"/>
<rect y="8" width="3" height="1" fill="#D9D9D9"/>
<rect x="6" y="2" width="3" height="1" fill="#D9D9D9"/>
<rect x="6" y="8" width="3" height="1" fill="#D9D9D9"/>
<rect x="5" y="3" width="3" height="1" transform="rotate(180 5 3)" fill="#D9D9D9"/>
<rect x="5" y="9" width="3" height="1" transform="rotate(180 5 9)" fill="#D9D9D9"/>
<rect x="11" y="3" width="3" height="1" transform="rotate(180 11 3)" fill="#D9D9D9"/>
<rect x="11" y="9" width="3" height="1" transform="rotate(180 11 9)" fill="#D9D9D9"/>
<rect x="2" width="1" height="2" fill="#D9D9D9"/>
<rect x="2" y="6" width="1" height="2" fill="#D9D9D9"/>
<rect x="8" width="1" height="2" fill="#D9D9D9"/>
<rect x="8" y="6" width="1" height="2" fill="#D9D9D9"/>
<rect x="3" y="5" width="1" height="2" transform="rotate(180 3 5)" fill="#D9D9D9"/>
<rect x="3" y="11" width="1" height="2" transform="rotate(180 3 11)" fill="#D9D9D9"/>
<rect x="9" y="5" width="1" height="2" transform="rotate(180 9 5)" fill="#D9D9D9"/>
<rect x="9" y="11" width="1" height="2" transform="rotate(180 9 11)" fill="#D9D9D9"/>
</g>
</pattern></defs>
</svg>
