<svg width="60" height="60" viewBox="0 0 60 60" fill="none" xmlns="http://www.w3.org/2000/svg" xmlns:xlink="http://www.w3.org/1999/xlink">
<rect width="60" height="60" fill="url(#pattern0_184_971)" fill-opacity="0.1"/>
<path fill-rule="evenodd" clip-rule="evenodd" d="M41.5551 3.00299C41.628 3.00422 41.6836 3.02558 41.7026 3.03327C41.7406 3.04873 41.7741 3.06775 41.7983 3.08307C41.848 3.11456 41.9013 3.156 41.9536 3.19928C42.0602 3.28771 42.1956 3.41328 42.3491 3.56257C42.658 3.863 43.0601 4.28091 43.4897 4.74616C44.3476 5.6752 45.334 6.8129 45.9282 7.61335C46.2625 8.06375 46.008 8.53475 45.977 8.62507C45.9287 8.76574 45.8686 8.90184 45.7563 9.04303C45.6493 9.17741 45.506 9.30223 45.3149 9.44342C45.1423 9.57094 44.9716 9.69934 44.7973 9.82917C44.6696 9.92443 44.6425 9.99382 44.6372 10.0274C44.632 10.0615 44.636 10.1376 44.7299 10.2706C45.153 10.8691 45.5788 11.4662 46.0043 12.0645C47.1203 13.6335 48.2298 15.2037 49.351 16.7657C50.4115 18.2431 51.3155 19.8104 52.0522 21.4747C52.6015 22.7156 53.0495 24.0008 53.396 25.3018C53.5933 26.0432 53.7616 26.7781 53.9038 27.5421C54.2003 29.1355 54.2911 30.2633 54.2983 31.2432C54.3018 31.7252 54.2865 32.1909 54.1723 32.7188C54.058 33.2467 53.8479 33.8235 53.477 34.5391C53.0145 35.4316 51.993 37.4064 51.4663 38.4512C51.5591 38.4755 51.6632 38.5034 51.769 38.5294C52.0809 38.6058 52.4333 38.7451 52.6626 38.8643C52.7164 38.8923 52.7925 38.9506 52.8344 38.9825C52.8897 39.0245 52.9509 39.0729 52.9926 39.1055C53.0913 39.1826 53.145 39.2852 53.1713 39.3507C53.1862 39.3876 53.1979 39.4281 53.2055 39.4688C53.2106 39.4958 53.2245 39.5728 53.2016 39.6592C52.856 40.9599 51.2964 47.214 50.8071 49.1153C50.3664 50.8274 49.8638 52.6484 49.4174 54.3516C49.1083 55.5303 47.9408 56.3196 46.7495 56.1739C45.8717 56.0662 45.1457 55.4978 44.811 54.7276C44.6854 54.4386 44.6107 54.1174 44.6127 53.7774C44.6155 53.3453 44.7665 52.9522 44.8793 52.6368C45.1624 51.8457 45.4261 51.0983 45.7094 50.3048C45.8472 49.9189 45.9898 49.5227 46.1323 49.128C46.2748 48.7332 46.4169 48.3386 46.5542 47.9542C46.6209 47.7672 46.677 47.612 46.7221 47.4395C46.7522 47.3246 46.7283 47.2502 46.6958 47.2042C46.6607 47.1548 46.5868 47.0991 46.4526 47.0782C46.0778 47.0199 45.6148 46.9427 45.227 46.6192C44.7246 46.2001 44.4961 45.6073 44.6186 44.9581C44.8166 43.9105 45.0417 42.8519 45.2504 41.8145C45.4054 41.0443 45.5524 40.2926 45.6997 39.5401C45.8469 38.7877 45.9941 38.0333 46.1499 37.2608C46.4819 35.6141 46.7793 34.1233 47.1118 32.4757C47.3066 31.5099 47.5834 30.1972 47.7651 29.2637C47.7926 29.1225 47.8287 28.9723 47.8618 28.837C47.8958 28.6975 47.926 28.5751 47.9458 28.4737C47.9669 28.3652 47.9975 28.2387 48.0249 28.1241C48.0534 28.0047 48.0796 27.8946 48.0961 27.8018C48.099 27.786 48.0992 27.7718 48.0991 27.7608L48.0961 27.7335C46.9816 25.2931 44.9914 21.186 43.6665 18.9864C43.659 18.9832 43.6494 18.9794 43.6372 18.9747C43.5751 18.9508 43.5189 18.9297 43.4614 18.9112C43.232 18.8373 42.9864 18.7516 42.7485 18.669C42.1687 18.4678 41.3439 18.221 40.5737 17.9747C40.1928 17.8529 39.8263 17.732 39.52 17.6192C39.2226 17.5097 38.9525 17.3978 38.7827 17.2921C38.3458 17.0196 38.0043 16.7644 37.7377 16.4317C37.4688 16.096 37.294 15.7041 37.1469 15.1876C37.0385 14.8066 36.9421 14.4341 36.8461 14.0674C36.7498 13.6992 36.6532 13.3352 36.5444 12.9649C36.4894 12.7778 36.3454 12.6871 36.1186 12.6202C36.0675 12.6052 36.0298 12.6033 35.9956 12.6085C35.96 12.6139 35.9064 12.63 35.8305 12.6798C35.7212 12.7515 35.629 12.8027 35.5532 12.8458C35.4777 12.8887 35.411 12.9281 35.3315 12.9854C32.6407 14.9254 29.9495 16.8652 27.2592 18.8057C25.0295 20.414 22.7991 22.0257 20.5688 23.6339C18.4334 25.1736 16.2969 26.7129 14.1596 28.2501C13.4539 28.7577 12.3691 29.4906 11.6254 29.9454C10.6462 30.544 9.54266 30.7112 8.43111 30.2969C7.08029 29.7934 6.24936 28.7859 5.96333 27.3819C5.75344 26.3514 5.4784 25.223 5.27974 24.168C5.14859 23.4715 4.96343 22.5663 5.0063 21.7706C5.04121 21.1246 5.19361 20.6781 5.42232 20.1163C5.89237 18.9617 6.70472 18.1221 7.69185 17.4542C7.97351 17.2636 8.24815 17.0577 8.52779 16.8458C8.80542 16.6353 9.09123 16.4165 9.38423 16.21C10.2115 15.6272 11.3728 15.6643 12.1918 16.2501C12.9904 16.8214 13.4932 17.8732 13.2094 18.8575C13.1793 18.9618 13.1323 19.0917 13.0493 19.2325L13.0502 19.2335L12.1909 20.9034C11.8932 21.5099 11.6143 22.082 11.3149 22.6895C11.2401 22.8415 11.2109 22.9699 11.2143 23.0645C11.2174 23.1479 11.2449 23.209 11.3061 23.2618C11.3887 23.3328 11.4299 23.3347 11.4477 23.334C11.4788 23.3328 11.5497 23.3166 11.6821 23.2208C12.7502 22.4468 13.917 21.6244 15.0815 20.8048C16.2469 19.9845 17.411 19.1657 18.476 18.3965C20.7905 16.725 23.1108 15.0583 25.4262 13.3897C27.9073 11.6018 30.3887 9.81288 32.8686 8.0235C33.7138 7.41363 34.5738 6.77954 35.4614 6.20124C37.6884 4.75031 39.2611 3.82388 40.3208 3.28034C40.5417 3.167 40.8287 3.09448 41.0512 3.0528C41.1659 3.03134 41.2738 3.01638 41.3608 3.00788C41.4039 3.00368 41.4461 3.00094 41.4829 3.00007C41.4958 2.99977 41.5229 3.00046 41.5551 3.00299Z" stroke="white" stroke-width="1.5" stroke-linecap="square" stroke-linejoin="round"/>
<defs>
<pattern id="pattern0_184_971" patternUnits="userSpaceOnUse" patternTransform="matrix(12 0 0 12 0 0)" preserveAspectRatio="none" viewBox="0 0 12 12" width="1" height="1">
<g id="pattern0_184_971_inner">
<rect y="2" width="3" height="1" fill="#D9D9D9"/>
<rect y="8" width="3" height="1" fill="#D9D9D9"/>
<rect x="6" y="2" width="3" height="1" fill="#D9D9D9"/>
<rect x="6" y="8" width="3" height="1" fill="#D9D9D9"/>
<rect x="5" y="3" width="3" height="1" transform="rotate(180 5 3)" fill="#D9D9D9"/>
<rect x="5" y="9" width="3" height="1" transform="rotate(180 5 9)" fill="#D9D9D9"/>
<rect x="11" y="3" width="3" height="1" transform="rotate(180 11 3)" fill="#D9D9D9"/>
<rect x="11" y="9" width="3" height="1" transform="rotate(180 11 9)" fill="#D9D9D9"/>
<rect x="2" width="1" height="2" fill="#D9D9D9"/>
<rect x="2" y="6" width="1" height="2" fill="#D9D9D9"/>
<rect x="8" width="1" height="2" fill="#D9D9D9"/>
<rect x="8" y="6" width="1" height="2" fill="#D9D9D9"/>
<rect x="3" y="5" width="1" height="2" transform="rotate(180 3 5)" fill="#D9D9D9"/>
<rect x="3" y="11" width="1" height="2" transform="rotate(180 3 11)" fill="#D9D9D9"/>
<rect x="9" y="5" width="1" height="2" transform="rotate(180 9 5)" fill="#D9D9D9"/>
<rect x="9" y="11" width="1" height="2" transform="rotate(180 9 11)" fill="#D9D9D9"/>
</g>
</pattern></defs>
</svg>
