<svg width="60" height="60" viewBox="0 0 60 60" fill="none" xmlns="http://www.w3.org/2000/svg" xmlns:xlink="http://www.w3.org/1999/xlink">
<rect width="60" height="60" fill="url(#pattern0_148_1624)" fill-opacity="0.1"/>
<path d="M37.4786 47.3121C37.524 47.34 37.5692 47.3678 37.6142 47.3954M44.7466 43.2575C43.739 42.891 42.7337 42.5253 41.7246 42.1735C41.342 42.0401 40.9511 41.9187 40.5545 41.7962L40.473 41.771C40.1052 41.6575 39.7303 41.5418 39.3594 41.4149C38.5678 41.1441 37.7782 40.8497 36.9945 40.5575L36.7528 40.4674C35.8875 40.1451 35.0271 39.8269 34.1648 39.5422L34.1483 39.5368L34.1309 39.5307C33.5179 39.3022 32.8575 39.0858 32.1728 38.8614L32.0757 38.8295C31.3521 38.5923 30.6026 38.3443 29.87 38.0657C28.4985 37.544 27.159 36.9043 26.1168 35.9889L26.1027 35.977L25.9229 35.8128L25.9137 35.8037L24.901 34.8527C24.4745 34.4523 23.9807 33.9853 23.4966 33.5108C23.0168 33.0405 22.5472 32.564 22.17 32.1469C21.9704 31.9262 21.8054 31.7311 21.6779 31.5668C21.5927 31.4571 21.5012 31.3312 21.4275 31.2045L21.3606 31.0776L21.3271 31.0063L21.3195 30.9785C21.1468 30.5561 21.1161 30.0887 21.237 29.6483L21.2434 29.6234L21.2524 29.5985L21.2895 29.4881L21.2963 29.4672L21.304 29.4468C21.51 28.9178 21.7943 28.5513 22.1602 28.3512C22.5265 28.1519 22.9238 28.1462 23.2974 28.23L23.5714 28.3072C23.8433 28.3985 24.1096 28.5287 24.3564 28.6624C24.5542 28.7696 24.7653 28.8939 24.9597 29.0084C25.0363 29.0534 25.1103 29.097 25.1799 29.1374L25.2997 29.206C26.1398 29.6887 26.9899 30.1657 27.8395 30.6303C31.5782 32.7063 35.3083 34.8046 39.0243 36.9208C39.2764 37.0637 39.5607 37.2286 39.8676 37.4067C40.5529 37.8042 41.3514 38.2675 42.1587 38.6983C43.3368 39.3269 44.4753 39.854 45.2523 40C46.0709 40.1538 47.3564 40.0587 48.7045 39.8681C49.8692 39.7035 51.0487 39.4731 51.9434 39.2984C52.0744 39.2728 52.1993 39.2484 52.3172 39.2256L53.1253 39.0778C53.4238 39.0197 53.6848 38.9566 53.8663 38.8902L53.916 38.8717C54.4095 38.6783 54.8548 38.3082 55.2416 37.84C55.64 37.3576 55.9627 36.7901 56.2005 36.2595C56.6269 35.3071 56.531 34.4361 56.1344 33.4238L56.125 33.4015L56.1181 33.3793C55.7149 32.1718 54.9689 31.3511 53.8126 30.8139C53.4069 30.6254 52.8162 30.5295 52.195 30.5443C51.6535 30.5572 51.1244 30.6542 50.7143 30.8171L50.546 30.8903C49.9586 31.1758 49.3461 31.5855 48.7055 32.029C48.6156 32.0912 48.5253 32.1541 48.4344 32.2173C47.8851 32.5993 47.3187 32.9932 46.7569 33.3224C46.4974 33.4745 46.2128 33.6929 45.8878 33.9438L45.8594 33.9657C45.5497 34.2049 45.2086 34.4682 44.8511 34.6962C44.1278 35.1573 43.262 35.521 42.3231 35.2317L42.2568 35.2108L42.1956 35.181C41.6995 34.943 41.0953 34.5984 40.4974 34.2433L38.8345 33.2438L17.838 20.8903C16.8532 20.3063 16.0361 19.8099 15.4209 19.3289C14.8061 18.8481 14.3529 18.3537 14.1388 17.7596C13.9214 17.1563 13.9704 16.5057 14.2369 15.7558C14.5013 15.0122 14.9913 14.1415 15.694 13.0744C16.4961 11.8564 17.1076 10.6942 17.154 9.67236C17.1763 9.17656 17.0644 8.71629 16.7712 8.2904C16.4776 7.86431 15.9866 7.44988 15.2137 7.07474L15.187 7.0621C13.7043 6.37053 11.9646 5.79132 10.4128 6.07266C9.79234 6.18519 9.13689 6.42601 8.49406 6.66221C8.38148 6.70357 8.26928 6.74479 8.15773 6.78516C7.28305 7.10163 6.61962 7.36767 6.07476 7.75518C5.54226 8.13393 5.10792 8.64157 4.72414 9.46881C4.55021 9.84382 4.38957 10.6305 4.26587 11.676C4.14419 12.7045 4.06286 13.9385 4.02466 15.1742C3.98648 16.4096 3.99197 17.6412 4.04538 18.6659L4.0947 19.3955C4.1523 20.0704 4.2342 20.5787 4.33428 20.8546C4.70866 21.8805 5.53124 22.5859 6.55604 23.0605C7.20167 23.3594 7.91791 23.5026 8.66443 23.6519L8.84497 23.6881C9.63377 23.847 10.4656 24.029 11.1577 24.461C11.9048 24.9273 12.638 25.7099 13.302 26.5104C13.6369 26.9141 13.9604 27.3305 14.2655 27.7252C14.4184 27.9231 14.5665 28.1146 14.7089 28.297L15.1195 28.8122L15.1527 28.8521L23.0868 38.4798C23.4714 38.9523 23.8378 39.4281 24.2018 39.9008C24.8957 40.8018 25.5805 41.6909 26.362 42.5203C26.5462 42.7159 26.7201 42.9315 26.8828 43.133C26.9442 43.2092 27.0042 43.2835 27.0624 43.3539C27.2728 43.6083 27.4843 43.8388 27.731 44.0311L27.7626 44.0556L27.7925 44.0832C28.7985 45.0163 29.8201 45.118 30.9443 45.1145C31.0874 45.114 31.2334 45.1116 31.3819 45.1091C32.3823 45.0926 33.4978 45.0742 34.6051 45.639L35.0772 45.8895C35.8475 46.3105 36.6918 46.8289 37.4786 47.3121C37.8417 47.5351 38.1931 47.7509 38.5188 47.9458C40.9675 49.4212 43.4302 50.8761 45.904 52.309C46.1705 52.464 46.4397 52.6276 46.7115 52.7928C47.5233 53.2864 48.36 53.7951 49.2283 54.1351C50.3695 54.582 51.4917 54.7045 52.5866 54.1151L52.7607 54.0113C53.1698 53.7445 53.5792 53.3168 53.8539 52.8296L53.963 52.6183C54.1922 52.1258 54.2511 51.6333 54.088 51.2217C53.9735 50.9336 53.7777 50.7214 53.5225 50.5123C53.4151 50.4243 53.3038 50.3418 53.183 50.2521L53.1039 50.1933C52.9915 50.1095 52.8879 50.0284 52.7908 49.9477L52.5757 49.7698L52.4958 49.5038C52.4129 49.23 52.3717 48.9771 52.3461 48.7285C52.3341 48.6113 52.3253 48.5011 52.3165 48.3918M52.3165 48.3918C52.3148 48.3699 52.313 48.3479 52.3112 48.3259M48.3859 44.5568C48.5976 44.63 48.8151 44.6963 49.0281 44.7601C49.0585 44.7692 49.0888 44.7783 49.119 44.7874C49.2157 44.8163 49.3111 44.8448 49.4043 44.8734C49.7355 44.975 50.0495 45.0804 50.345 45.2186C51.3865 45.7144 52.1065 46.7028 52.2618 47.8458C52.2885 48.0423 52.3024 48.216 52.3165 48.3918M45.0493 43.3676C46.1577 43.7706 47.2688 44.1717 48.3859 44.5568C48.6278 44.6404 48.8774 44.7151 49.119 44.7874M45.0493 43.3676C44.9484 43.3309 44.8475 43.2942 44.7466 43.2575M45.0493 43.3676L44.7466 43.2575M11.3106 23.9839C11.3132 23.9855 11.3154 23.9878 11.3179 23.9894M30.4672 38.7059L30.4627 38.7046" stroke="white" stroke-width="1.5" stroke-linejoin="round"/>
<defs>
<pattern id="pattern0_148_1624" patternUnits="userSpaceOnUse" patternTransform="matrix(12 0 0 12 0 0)" preserveAspectRatio="none" viewBox="0 0 12 12" width="1" height="1">
<g id="pattern0_148_1624_inner">
<rect y="2" width="3" height="1" fill="#D9D9D9"/>
<rect y="8" width="3" height="1" fill="#D9D9D9"/>
<rect x="6" y="2" width="3" height="1" fill="#D9D9D9"/>
<rect x="6" y="8" width="3" height="1" fill="#D9D9D9"/>
<rect x="5" y="3" width="3" height="1" transform="rotate(180 5 3)" fill="#D9D9D9"/>
<rect x="5" y="9" width="3" height="1" transform="rotate(180 5 9)" fill="#D9D9D9"/>
<rect x="11" y="3" width="3" height="1" transform="rotate(180 11 3)" fill="#D9D9D9"/>
<rect x="11" y="9" width="3" height="1" transform="rotate(180 11 9)" fill="#D9D9D9"/>
<rect x="2" width="1" height="2" fill="#D9D9D9"/>
<rect x="2" y="6" width="1" height="2" fill="#D9D9D9"/>
<rect x="8" width="1" height="2" fill="#D9D9D9"/>
<rect x="8" y="6" width="1" height="2" fill="#D9D9D9"/>
<rect x="3" y="5" width="1" height="2" transform="rotate(180 3 5)" fill="#D9D9D9"/>
<rect x="3" y="11" width="1" height="2" transform="rotate(180 3 11)" fill="#D9D9D9"/>
<rect x="9" y="5" width="1" height="2" transform="rotate(180 9 5)" fill="#D9D9D9"/>
<rect x="9" y="11" width="1" height="2" transform="rotate(180 9 11)" fill="#D9D9D9"/>
</g>
</pattern></defs>
</svg>
