<svg width="60" height="60" viewBox="0 0 60 60" fill="none" xmlns="http://www.w3.org/2000/svg" xmlns:xlink="http://www.w3.org/1999/xlink">
<rect width="60" height="60" fill="url(#pattern0_148_1624)" fill-opacity="0.1"/>
<path fill-rule="evenodd" clip-rule="evenodd" d="M8.56545 18.0169C9.41318 17.9554 10.116 18.062 10.6846 18.3352C11.261 18.6122 11.6622 19.043 11.9287 19.5618C12.4428 20.5625 12.4586 21.8991 12.3799 23.1516C12.3117 24.2373 12.3238 25.0209 12.4268 25.593C12.528 26.155 12.7079 26.4678 12.9434 26.6682C13.19 26.8781 13.5646 27.0235 14.1719 27.1116C14.7791 27.1996 15.5512 27.222 16.5488 27.2376L37.5674 27.4934C38.5705 27.5062 39.945 27.5716 40.8467 27.5061C41.3227 27.3994 41.6663 27.0237 41.9776 26.4309C42.1331 26.1346 42.2654 25.8149 42.4014 25.4876C42.5323 25.1724 42.6715 24.8368 42.8311 24.5588C43.1378 24.0245 43.4134 23.4257 43.708 22.8088C43.9966 22.2047 44.3036 21.5834 44.6602 21.0608C44.9746 20.6 45.4717 20.1772 45.9942 19.8616C46.5149 19.547 47.1178 19.3038 47.667 19.2571C48.978 19.1456 50.1067 19.5106 51.0938 20.3919C51.925 21.0609 52.5363 21.8493 52.6533 23.0315C52.7077 23.5821 52.7115 24.2204 52.6045 24.8411C52.498 25.4589 52.2752 26.0924 51.8486 26.5979L51.8477 26.5969C51.6979 26.7745 51.4902 26.967 51.2842 27.1448L50.7344 27.6077C50.1279 28.1299 49.2188 28.9282 48.2793 29.6575C47.3548 30.3751 46.3392 31.076 45.5215 31.3596C44.7455 31.6288 43.5498 31.7205 42.4082 31.7542C41.2531 31.7882 40.0536 31.7627 39.2764 31.7659C35.5885 31.7731 31.8996 31.7999 28.2119 31.8469C27.3706 31.8631 26.529 31.87 25.6875 31.8684L25.6846 31.8694C25.3542 31.8709 25.0916 31.8581 24.7686 31.8655C24.4652 31.8725 24.2081 31.8982 24.0069 31.9602C23.8115 32.0205 23.7088 32.102 23.6524 32.1936C23.5944 32.288 23.5357 32.474 23.5908 32.843L23.6104 32.9417C23.6687 33.1682 23.8065 33.3677 24 33.5032L24.002 33.5051C24.1058 33.5784 24.3908 33.7005 24.8535 33.8518C25.2925 33.9953 25.8307 34.1462 26.3858 34.2913C26.9435 34.4371 27.5068 34.5739 27.9961 34.6907L29.1621 34.969L29.3672 35.0149C30.3994 35.2253 31.564 35.1484 32.7842 34.9563C33.4315 34.8544 34.0819 34.7219 34.7276 34.5891C35.3624 34.4586 35.9961 34.3268 36.5986 34.2278C37.3833 34.0681 38.1779 33.9352 38.9639 33.8059C39.7525 33.6762 40.532 33.5505 41.3008 33.4026C41.6433 33.3367 41.9849 33.2595 42.336 33.1809C42.6844 33.1029 43.0424 33.0234 43.4024 32.9563C44.4061 32.7693 45.4125 32.5969 46.4141 32.4241C47.417 32.251 48.4155 32.0769 49.4102 31.8879C49.696 31.834 49.9683 31.7652 50.2813 31.6946C50.5832 31.6265 50.9075 31.5613 51.2451 31.5335H51.2481C52.5108 31.4375 53.736 31.9851 54.5069 32.9895C54.68 33.2149 54.8479 33.4746 54.9629 33.635C55.0686 33.7825 55.1747 33.9116 55.3067 34.0364C55.4 34.0527 55.4981 34.0674 55.6045 34.0803C55.7513 34.0982 55.9244 34.1166 56.0918 34.1448C56.4362 34.2027 56.8254 34.3105 57.1856 34.5979C57.7891 35.0798 57.9956 35.8377 58 36.5217C58.0044 37.2112 57.8077 37.9308 57.4805 38.4563C56.7411 39.6428 55.583 40.1058 54.4111 40.2786C53.2674 40.4472 51.9962 40.3509 51.0166 40.344C48.5451 40.3308 46.0736 40.2964 43.6026 40.2405C42.3685 40.2163 40.891 40.1335 39.7393 40.1887C38.7514 40.2362 38.0475 40.7325 37.1338 41.259C36.2386 41.7749 35.2044 42.261 33.75 41.9231C33.3968 41.8726 33.0758 41.766 32.7901 41.6585C32.476 41.5402 32.2306 41.4341 31.957 41.3508C30.4914 40.9047 29.0617 40.2275 27.7178 39.7092L17.6113 35.884L17.6094 35.8831C17.2625 35.7504 16.8771 35.5893 16.4834 35.426C16.0866 35.2614 15.6765 35.0934 15.2666 34.9397C14.4343 34.6277 13.6535 34.3971 13.0322 34.3733C12.4951 34.3527 11.9273 34.5209 11.252 34.7454C10.6067 34.9599 9.86087 35.2273 9.08498 35.2942C7.98266 35.3892 6.82694 35.1983 5.89162 34.4085C5.52968 34.1024 5.06002 33.46 4.58009 32.7141C4.08629 31.9466 3.54287 31.0066 3.0342 30.0501C2.52564 29.0937 2.04755 28.1133 1.68654 27.2639C1.33533 26.4375 1.06523 25.6698 1.02248 25.1702C0.945128 24.2659 1.06887 23.5575 1.37111 22.9036C1.66449 22.2688 2.11576 21.7106 2.63185 21.1028C3.04863 20.6119 3.55573 19.9751 4.11134 19.5081C5.3561 18.4618 7.12706 18.1373 8.55959 18.0178L8.56545 18.0169ZM8.80373 19.9973C7.63298 20.0719 6.79734 20.2548 6.09865 20.6223C5.4038 20.9879 4.79848 21.5608 4.13185 22.4944L4.12209 22.5081L4.11134 22.5208C3.99016 22.6685 3.8279 22.8198 3.70705 22.9358C3.56915 23.0682 3.47376 23.1652 3.41798 23.2424L3.41701 23.2415C2.87226 23.9959 2.89682 25.2183 3.32228 26.1497C3.53214 26.6089 3.78628 27.0657 4.0508 27.5588C4.31047 28.043 4.57599 28.5558 4.78127 29.0911C4.86817 29.3177 5.01561 29.5725 5.19435 29.8635C5.36031 30.1338 5.55847 30.4443 5.70314 30.7376L5.98927 31.2669C6.28125 31.7915 6.59717 32.2904 6.97658 32.679C7.46434 33.1784 8.02521 33.4659 8.76369 33.387C9.39723 33.3191 9.9966 33.0698 10.708 32.8079C11.3903 32.5567 12.163 32.3009 13.0137 32.3528C14.6544 32.4191 15.5868 33.0004 16.8438 33.4739L16.8477 33.4758L20.9893 35.0745L30.7998 38.7727C31.4051 38.9953 31.9861 39.2631 32.4912 39.4661C33.018 39.6778 33.5426 39.8556 34.1611 39.9573C34.876 40.0747 35.3012 39.9695 35.6817 39.7825C35.8877 39.6812 36.0879 39.5521 36.3301 39.3919C36.5663 39.2356 36.838 39.0537 37.1563 38.8762L37.1592 38.8743C37.8326 38.504 38.5775 38.2825 39.3438 38.2239L39.3467 38.2229C40.4841 38.141 42.3564 38.2349 43.5078 38.2512L50.2051 38.3206H50.209C50.9672 38.3342 51.9079 38.3267 52.7022 38.3508C53.6728 38.3803 54.5492 38.332 55.1533 38.0325C55.4389 37.8909 55.6517 37.6985 55.7901 37.4329C55.9306 37.1626 56.0162 36.775 55.9736 36.2102C55.9727 36.1982 55.9703 36.1864 55.9688 36.1751C55.9401 36.1637 55.898 36.1499 55.8379 36.136C55.7187 36.1084 55.5772 36.0899 55.4063 36.0696C55.2469 36.0506 55.0552 36.0292 54.8809 35.9934C54.713 35.9589 54.4988 35.8999 54.3184 35.7717C53.8166 35.4152 53.5002 35.0486 53.2637 34.7131C53.1489 34.5504 53.0517 34.3924 52.9697 34.2629C52.8842 34.1278 52.8157 34.0229 52.7442 33.9338C52.6169 33.7753 52.4835 33.6682 52.2432 33.6028C51.9755 33.5299 51.5514 33.5037 50.835 33.5881C50.1834 33.6649 49.5313 33.8046 48.8633 33.9592C48.2033 34.112 47.5177 34.2818 46.835 34.4055L33.7764 36.7571L33.7666 36.759C32.8394 36.9068 31.7597 37.0557 30.7803 37.0413C29.1553 37.0173 27.5499 36.5879 26.0762 36.2581C24.8325 36.009 23.6734 35.687 22.5684 34.8469C22.3323 34.6674 22.1108 34.4742 21.9385 34.22C21.7617 33.9592 21.6559 33.6654 21.6006 33.3098C21.3719 31.8373 22.0652 30.199 23.8086 29.9104C24.1194 29.859 24.4877 29.8474 24.8291 29.8469C25.0027 29.8467 25.1771 29.8495 25.3399 29.8518C25.5043 29.8542 25.6562 29.8554 25.793 29.8547L28.9082 29.8381L39.2871 29.7649C40.2311 29.7578 41.257 29.79 42.3018 29.7542C43.3384 29.7186 44.318 29.6166 45.1094 29.3606C45.6048 29.2003 46.2064 28.7682 46.8623 28.2258C47.4783 27.7164 48.1565 27.0955 48.7002 26.7092L48.7012 26.7083C49.9954 25.7891 50.9037 24.9222 50.7471 23.4905C50.6257 22.4754 49.8603 21.6798 48.9307 21.3733C48.0141 21.0712 47.0201 21.2672 46.3945 22.137C45.899 22.8261 45.5063 23.5936 45.1289 24.4026C44.7595 25.1945 44.3932 26.0511 43.9746 26.8499C43.7035 27.3926 43.4113 28.0034 42.9854 28.4807C42.5352 28.9851 41.9389 29.3433 41.085 29.4212C39.9641 29.5234 38.7262 29.4297 37.6699 29.4085C35.6828 29.3732 33.6955 29.3476 31.708 29.3323C27.8052 29.3038 23.9023 29.2547 20 29.1858L16.336 29.1467C15.2591 29.1379 13.9446 29.2032 12.8692 28.8635C12.3111 28.6872 11.7879 28.396 11.3711 27.9153C10.9547 27.4351 10.6737 26.7995 10.542 25.9827C10.4882 25.6488 10.4814 25.3173 10.4834 25.011C10.4855 24.6902 10.496 24.4197 10.4873 24.137C10.4625 23.6464 10.4911 23.0796 10.501 22.5725C10.5114 22.0395 10.5023 21.5499 10.4209 21.135C10.3399 20.7222 10.1974 20.441 9.98634 20.2649C9.78104 20.0939 9.43363 19.9579 8.80373 19.9973Z" fill="white"/>
<defs>
<pattern id="pattern0_148_1624" patternUnits="userSpaceOnUse" patternTransform="matrix(12 0 0 12 0 0)" preserveAspectRatio="none" viewBox="0 0 12 12" width="1" height="1">
<g id="pattern0_148_1624_inner">
<rect y="2" width="3" height="1" fill="#D9D9D9"/>
<rect y="8" width="3" height="1" fill="#D9D9D9"/>
<rect x="6" y="2" width="3" height="1" fill="#D9D9D9"/>
<rect x="6" y="8" width="3" height="1" fill="#D9D9D9"/>
<rect x="5" y="3" width="3" height="1" transform="rotate(180 5 3)" fill="#D9D9D9"/>
<rect x="5" y="9" width="3" height="1" transform="rotate(180 5 9)" fill="#D9D9D9"/>
<rect x="11" y="3" width="3" height="1" transform="rotate(180 11 3)" fill="#D9D9D9"/>
<rect x="11" y="9" width="3" height="1" transform="rotate(180 11 9)" fill="#D9D9D9"/>
<rect x="2" width="1" height="2" fill="#D9D9D9"/>
<rect x="2" y="6" width="1" height="2" fill="#D9D9D9"/>
<rect x="8" width="1" height="2" fill="#D9D9D9"/>
<rect x="8" y="6" width="1" height="2" fill="#D9D9D9"/>
<rect x="3" y="5" width="1" height="2" transform="rotate(180 3 5)" fill="#D9D9D9"/>
<rect x="3" y="11" width="1" height="2" transform="rotate(180 3 11)" fill="#D9D9D9"/>
<rect x="9" y="5" width="1" height="2" transform="rotate(180 9 5)" fill="#D9D9D9"/>
<rect x="9" y="11" width="1" height="2" transform="rotate(180 9 11)" fill="#D9D9D9"/>
</g>
</pattern></defs>
</svg>
