<svg width="60" height="60" viewBox="0 0 60 60" fill="none" xmlns="http://www.w3.org/2000/svg" xmlns:xlink="http://www.w3.org/1999/xlink">
<rect width="60" height="60" fill="url(#pattern0_39_43)" fill-opacity="0.1"/>
<path d="M10.9705 38.7223H52.9705C56.9705 38.7223 57.4705 35.7223 57.4705 35.2223V30.2223C57.4705 27.2223 57.4705 26.0883 55.9705 25.2223C55.9705 25.2223 51.9705 23.7582 49.9705 23.2223C47.9861 22.6906 47.4784 23.7063 46.9822 24.6989L46.9705 24.7223C46.4705 25.7223 46.9705 27.7223 49.9705 28.2223C51.7875 28.5251 52.4705 30.3802 52.4705 32.2223C52.4705 35.2223 49.4705 33.2223 49.4705 33.2223L33.9705 23.7223C31.4705 22.2789 29.9705 22.7223 28.4705 24.2223L25.4705 28.2223C25.4705 28.2223 23.4705 31.7223 23.4705 33.2223C23.4705 34.7223 22.575 35.2223 21.4705 35.2223H18.4705C16.8603 35.2223 14.4705 34.2223 14.4705 34.2223L9.97047 31.2223C9.15813 30.6807 8.47047 30.7223 8.47047 29.2223C8.47047 28.095 9.49416 27.7223 10.4705 27.7223H15.9705C15.9705 27.7223 18.2797 27.9037 19.4705 27.2222C20.6083 26.5711 21.4705 25.8938 21.4705 24.7222C21.4705 23.5507 20.7208 22.2223 19.4705 22.2223C14.9705 22.2222 11.4705 21.7222 7.73842 22.2223C4.45407 22.6624 1.26979 24.9419 1.73841 28.2223C2.08989 30.6826 3.85059 32.0332 6.23842 32.7223C7.97046 33.2222 9.23842 34.2223 9.23842 35.7223C9.23842 37.0751 9.47046 38.7222 10.9705 38.7223Z" stroke="white" stroke-width="1.5"/>
<defs>
<pattern id="pattern0_39_43" patternUnits="userSpaceOnUse" patternTransform="matrix(12 0 0 12 0 0)" preserveAspectRatio="none" viewBox="0 0 12 12" width="1" height="1">
<g id="pattern0_39_43_inner">
<rect y="2" width="3" height="1" fill="#D9D9D9"/>
<rect y="8" width="3" height="1" fill="#D9D9D9"/>
<rect x="6" y="2" width="3" height="1" fill="#D9D9D9"/>
<rect x="6" y="8" width="3" height="1" fill="#D9D9D9"/>
<rect x="5" y="3" width="3" height="1" transform="rotate(180 5 3)" fill="#D9D9D9"/>
<rect x="5" y="9" width="3" height="1" transform="rotate(180 5 9)" fill="#D9D9D9"/>
<rect x="11" y="3" width="3" height="1" transform="rotate(180 11 3)" fill="#D9D9D9"/>
<rect x="11" y="9" width="3" height="1" transform="rotate(180 11 9)" fill="#D9D9D9"/>
<rect x="2" width="1" height="2" fill="#D9D9D9"/>
<rect x="2" y="6" width="1" height="2" fill="#D9D9D9"/>
<rect x="8" width="1" height="2" fill="#D9D9D9"/>
<rect x="8" y="6" width="1" height="2" fill="#D9D9D9"/>
<rect x="3" y="5" width="1" height="2" transform="rotate(180 3 5)" fill="#D9D9D9"/>
<rect x="3" y="11" width="1" height="2" transform="rotate(180 3 11)" fill="#D9D9D9"/>
<rect x="9" y="5" width="1" height="2" transform="rotate(180 9 5)" fill="#D9D9D9"/>
<rect x="9" y="11" width="1" height="2" transform="rotate(180 9 11)" fill="#D9D9D9"/>
</g>
</pattern></defs>
</svg>
