<svg width="60" height="60" viewBox="0 0 60 60" fill="none" xmlns="http://www.w3.org/2000/svg" xmlns:xlink="http://www.w3.org/1999/xlink">
<rect width="60" height="60" fill="url(#pattern0_82_38)" fill-opacity="0.1"/>
<path fill-rule="evenodd" clip-rule="evenodd" d="M16.6704 13.2408C17.241 13.0362 17.8502 12.9608 18.4536 13.0191C19.2338 13.0958 19.7231 13.3407 20.2856 13.6217C20.4401 13.6988 20.5998 13.7785 20.7749 13.8599C20.8172 13.8796 20.8603 13.8998 20.9028 13.9195C22.0098 14.4333 23.186 14.9718 23.8725 16.1978C24.0069 16.4351 24.1216 16.6836 24.2143 16.94L24.2153 16.942C24.2488 17.0371 24.2822 17.1551 24.3149 17.2701C24.3592 17.426 24.4039 17.5846 24.4555 17.7232C24.5097 17.8687 24.5595 17.9588 24.5981 17.9996C25.2333 18.6699 25.9727 19.127 26.8579 19.2457L27.0366 19.2652L27.0473 19.2662L27.0571 19.2672C27.1528 19.2829 27.3175 19.2818 27.5288 19.2574C27.7353 19.2335 27.9709 19.1891 28.2006 19.1285C28.4309 19.0677 28.65 18.9921 28.8266 18.9078C29.0108 18.8198 29.1185 18.7357 29.1626 18.6744C29.5567 18.1235 30.0714 17.6016 30.6587 17.4283C30.9617 17.339 31.2825 17.3438 31.602 17.482C31.9171 17.6184 32.2127 17.8765 32.4868 18.2613C32.5745 18.3846 32.6501 18.5635 32.7094 18.7008C32.7476 18.7889 32.7812 18.8669 32.8139 18.9312C33.6386 20.5523 32.7314 21.9121 31.9663 23.0855C31.8594 23.2494 31.7541 23.4105 31.6538 23.5709L31.6528 23.5728C31.0917 24.4587 30.5375 25.3495 29.9917 26.2447L29.9907 26.2467C29.9255 26.3514 29.8521 26.4576 29.7817 26.5601C29.5373 26.916 29.3312 27.228 29.3003 27.5435C29.2839 27.7107 29.3162 27.9135 29.3969 28.0943C29.478 28.2757 29.5971 28.4129 29.7329 28.481C29.8113 28.5202 30.0007 28.5766 30.2915 28.6431C30.5727 28.7075 30.924 28.7758 31.3061 28.8443C32.0703 28.9814 32.9485 29.1173 33.6206 29.2213C33.9728 29.2758 34.2709 29.3225 34.4633 29.3551L52.7104 32.44C52.8635 32.4655 53.0185 32.4907 53.1753 32.5162C53.7342 32.607 54.3145 32.7012 54.8647 32.8199C55.2188 32.8963 55.5285 33.1161 55.7378 33.3785C55.9666 33.6525 56.1215 34.0516 56.0678 34.4449C55.8642 35.933 55.6015 37.4158 55.3403 38.8922C55.1325 40.0665 54.9253 41.2378 54.7475 42.4107C54.7352 42.4928 54.731 42.583 54.726 42.69C54.7219 42.7787 54.7175 42.8794 54.7055 42.9791L54.7036 42.9898L54.7016 43.0015C54.6919 43.0477 54.6772 43.1522 54.6557 43.315C54.6097 43.6643 54.5374 44.222 54.4155 44.7427C54.3546 45.0029 54.2787 45.2612 54.186 45.484C54.0956 45.7009 53.9774 45.9127 53.8149 46.0504C53.471 46.3413 53.1362 46.4666 52.7944 46.4937C52.4664 46.5197 52.1411 46.4534 51.8325 46.3922C51.6571 46.3574 51.482 46.3233 51.2973 46.2994C51.1338 46.2782 50.9675 46.2499 50.809 46.2232C50.7491 46.2131 50.6896 46.2034 50.6313 46.1939L45.2446 45.3209C45.0608 45.2916 44.8369 45.2524 44.602 45.2115C44.0418 45.1139 43.4189 45.0061 43.0385 44.9742C42.8856 44.9615 42.7102 45.0032 42.5014 45.0943C42.2922 45.1857 42.072 45.3161 41.8296 45.4605C41.572 45.6139 41.2894 45.7825 40.9975 45.9068C40.704 46.0317 40.3837 46.1199 40.0463 46.1011C39.284 46.0584 38.7066 45.7764 38.1167 45.4908C37.996 45.4324 37.8745 45.374 37.7495 45.316L35.5874 44.3101C35.4355 44.2395 35.2885 44.1692 35.146 44.1011C34.373 43.7322 33.7195 43.4227 32.8667 43.2916C31.7789 43.1243 30.6899 42.9586 29.601 42.7935C28.8483 42.6794 28.0947 42.5656 27.3422 42.4508L10.8051 39.9332C10.5856 39.9002 10.3593 39.871 10.1284 39.8414C9.54381 39.7664 8.92374 39.6872 8.35006 39.5299C8.25905 39.5048 8.12048 39.444 7.96529 39.3697C7.80303 39.292 7.60187 39.1894 7.3774 39.0709C6.92766 38.8334 6.37523 38.5267 5.82955 38.2144C5.28383 37.9022 4.742 37.5827 4.31393 37.3179C4.10023 37.1858 3.91299 37.066 3.76705 36.9674C3.62865 36.8738 3.50674 36.7852 3.44186 36.7193C3.13104 36.4039 2.99097 35.9663 3.00045 35.5494C3.01191 35.0523 3.25069 34.6904 3.56783 34.4136C3.87553 34.1453 4.2748 33.9425 4.63229 33.7593C5.06589 33.5372 5.43485 33.3438 5.66256 33.0933C5.90147 32.8302 6.0456 32.4821 6.20748 32.0816C6.32551 31.7896 6.45396 31.4681 6.6401 31.1861C6.93033 30.7466 7.33384 30.4256 7.69967 30.1324C7.85165 30.0106 7.9958 29.8905 8.13326 29.7681C8.07127 29.5621 8.04269 29.3572 8.05514 29.1236C8.07202 28.8076 8.18918 28.5767 8.36178 28.4C8.52312 28.2349 8.72914 28.1224 8.89791 28.0289C9.07096 27.933 9.21631 27.8509 9.33346 27.7418C9.43461 27.6473 9.4658 27.5495 9.46432 27.4293C9.46251 27.2908 9.41789 27.1347 9.35787 26.9332C9.28651 26.6936 9.18612 26.3739 9.24361 26.0611C9.34033 25.5365 9.65308 25.1813 9.91256 24.8814C10.1347 24.6247 10.3178 24.4082 10.4135 24.1324C10.4135 24.1324 10.4156 24.127 10.4174 24.1187C10.4197 24.1083 10.4223 24.0939 10.4253 24.0758C10.4312 24.0386 10.4376 23.9896 10.4438 23.9293C10.4563 23.8085 10.4679 23.6495 10.479 23.4615C10.5011 23.0857 10.52 22.6008 10.5356 22.0836C10.5668 21.0497 10.5852 19.8918 10.5962 19.2232C10.5993 19.0333 10.602 18.8816 10.604 18.7847V18.773L10.6059 18.7603C10.7319 17.6737 11.2768 16.6786 12.1245 15.9869C12.3971 15.762 13.3864 15.1283 14.3598 14.5357C14.8515 14.2364 15.3476 13.9426 15.7573 13.7105C16.1576 13.4838 16.4995 13.3021 16.6704 13.2408Z" stroke="white" stroke-width="1.5"/>
<defs>
<pattern id="pattern0_82_38" patternUnits="userSpaceOnUse" patternTransform="matrix(12 0 0 12 0 0)" preserveAspectRatio="none" viewBox="0 0 12 12" width="1" height="1">
<g id="pattern0_82_38_inner">
<rect y="2" width="3" height="1" fill="#D9D9D9"/>
<rect y="8" width="3" height="1" fill="#D9D9D9"/>
<rect x="6" y="2" width="3" height="1" fill="#D9D9D9"/>
<rect x="6" y="8" width="3" height="1" fill="#D9D9D9"/>
<rect x="5" y="3" width="3" height="1" transform="rotate(180 5 3)" fill="#D9D9D9"/>
<rect x="5" y="9" width="3" height="1" transform="rotate(180 5 9)" fill="#D9D9D9"/>
<rect x="11" y="3" width="3" height="1" transform="rotate(180 11 3)" fill="#D9D9D9"/>
<rect x="11" y="9" width="3" height="1" transform="rotate(180 11 9)" fill="#D9D9D9"/>
<rect x="2" width="1" height="2" fill="#D9D9D9"/>
<rect x="2" y="6" width="1" height="2" fill="#D9D9D9"/>
<rect x="8" width="1" height="2" fill="#D9D9D9"/>
<rect x="8" y="6" width="1" height="2" fill="#D9D9D9"/>
<rect x="3" y="5" width="1" height="2" transform="rotate(180 3 5)" fill="#D9D9D9"/>
<rect x="3" y="11" width="1" height="2" transform="rotate(180 3 11)" fill="#D9D9D9"/>
<rect x="9" y="5" width="1" height="2" transform="rotate(180 9 5)" fill="#D9D9D9"/>
<rect x="9" y="11" width="1" height="2" transform="rotate(180 9 11)" fill="#D9D9D9"/>
</g>
</pattern></defs>
</svg>
