<svg width="60" height="60" viewBox="0 0 60 60" fill="none" xmlns="http://www.w3.org/2000/svg" xmlns:xlink="http://www.w3.org/1999/xlink">
<rect width="60" height="60" fill="url(#pattern0_184_960)" fill-opacity="0.1"/>
<path d="M4.00321 3.08157C4.00623 3.05546 4.00909 3.02979 4.01342 3.00546L4.01375 3C4.09547 2.99978 4.20786 3.0134 4.34299 3.04526C4.61896 3.11041 4.90785 3.2283 5.07222 3.31218C7.04801 4.32104 10.927 6.71698 10.927 6.71698C10.927 6.71698 11.0472 6.87502 11.1193 6.97969C11.2807 7.21388 11.3582 7.36844 11.4933 7.60424C11.7491 8.05038 12.0525 8.60389 12.2716 8.9001C12.6036 9.38862 13.7627 10.938 14.1619 11.6075C14.5603 12.2755 14.9584 12.9643 15.2911 13.5451C15.6206 14.1202 15.8925 14.6002 16.0344 14.8367C16.4401 15.513 16.8911 16.1818 17.3185 16.8199C18.0066 17.8472 18.8158 18.8208 19.5356 19.7555C19.6061 19.847 19.6569 19.9471 19.7525 20.1205C19.8032 20.2126 19.869 20.3244 19.9524 20.4385L19.947 20.4897L20.1013 20.6712C20.8721 21.5819 21.6717 22.4678 22.4989 23.3262L22.502 23.3297C22.6675 23.4985 22.8408 23.6603 23.0039 23.8126L23.0269 23.8341C23.1995 23.9953 23.3612 24.1465 23.5121 24.301C25.3005 26.1555 27.1346 27.9649 29.0117 29.7273L29.0158 29.7319L34.8997 35.1345L34.9018 35.1357L36.8986 36.9574C37.6054 37.6104 38.3405 38.2434 39.0673 38.8693L39.116 38.9112C39.861 39.5529 40.5985 40.188 41.3053 40.8407C42.0279 41.5082 42.7801 42.1359 43.5104 42.754C44.2448 43.3755 44.9622 43.9913 45.6392 44.6527L45.7255 44.738L45.8399 44.7789C45.8523 44.7834 45.8957 44.8053 45.9758 44.864C46.0573 44.9237 46.1214 44.9791 46.2178 45.0552L46.282 45.1051L46.3584 45.1361C46.8048 45.3129 47.2017 45.452 47.6722 45.5833C48.1272 45.71 48.6729 45.7736 49.2252 45.817C49.7713 45.86 50.395 45.8868 50.956 45.9235C51.5352 45.9615 52.0845 46.0127 52.5643 46.1037C53.0504 46.1959 53.4201 46.3215 53.6671 46.4832C53.8177 46.5819 54.0442 46.8422 54.3148 47.2844C54.5734 47.707 54.8356 48.2336 55.077 48.7887C55.5165 49.7996 55.862 50.8478 56 51.458C55.7224 51.951 55.0781 52.904 54.3754 53.8517C53.9871 54.3752 53.5919 54.8827 53.2497 55.2903C52.9605 55.6348 52.7343 55.8732 52.5926 56C50.4188 55.6929 48.1931 55.1289 46.0089 54.6488C46.0089 54.6488 43.9642 54.4898 42.6617 54.321C38.9211 53.8363 35.2965 53.3208 33.2335 52.2245C32.5731 51.8735 31.8716 51.3314 31.182 50.8434L31.1777 50.841L30.4524 50.331C29.7318 49.8165 29.0214 49.2862 28.3222 48.7423C27.2712 47.91 26.2402 47.0388 25.1939 46.1645C24.1492 45.2916 23.0901 44.4172 22.0003 43.5915C21.6553 43.3301 21.2932 43.0886 20.9567 42.8604C20.6143 42.6282 20.2934 42.4064 20 42.1675C19.4195 41.6947 18.4284 39.8306 18.2006 39.1138L18.1868 39.0691L17.9759 38.3931C17.7803 37.7387 17.6364 37.1344 17.6046 36.4534C17.5961 36.2679 17.615 36.1365 17.6392 36.0543C17.6723 36.0722 17.7162 36.0975 17.7675 36.1378L17.8734 36.2275C18.49 36.8211 19.0316 37.4827 19.6301 38.1672L20.2634 38.8809C20.901 39.5896 21.5534 40.2852 22.2196 40.9665L22.2217 40.9688C23.4778 42.2417 25.0913 43.6503 26.5398 44.6966C27.4361 45.3407 28.3526 45.9565 29.2874 46.542L29.2906 46.5444C30.1329 47.0662 31.007 47.5576 31.8711 48.041C32.7388 48.5264 33.5964 49.0026 34.4229 49.5018C35.9428 50.4435 35.9364 50.4628 37.4827 51.376C38.0524 51.7124 38.6295 51.7631 39.1601 51.5439C39.6539 51.3396 40.0349 50.9302 40.3277 50.498L40.3338 50.4885C40.8224 49.7353 41.3698 48.8296 41.3596 47.7175C41.3522 46.9355 40.979 46.4158 40.5286 46.0414C40.3138 45.8629 40.0781 45.7131 39.863 45.5833C39.6363 45.4464 39.4422 45.336 39.255 45.2108C38.1396 44.4649 38.4306 44.8022 37.3321 44.2017L30.1556 40.2276C29.7211 39.9816 29.281 39.7179 28.8334 39.451C28.387 39.1848 27.9323 38.9161 27.4819 38.6683L25.5483 37.5926C24.9525 37.2531 24.3632 36.9054 23.7779 36.5366C23.5831 36.4139 23.2818 36.2476 23.0281 36.1018C22.7501 35.9421 22.5273 35.8056 22.4145 35.7137C20.0207 33.7636 18.4146 31.2396 17.1093 28.369C16.9877 28.0722 16.8358 27.7582 16.7084 27.4819C16.5722 27.1863 16.4561 26.9149 16.3809 26.6585C15.3966 23.3044 14.7099 19.6038 13.2627 16.2803C13.1199 15.9524 12.9165 15.4896 12.6814 15.0447C12.4534 14.613 12.1657 14.141 11.843 13.8295L11.7264 13.7161L11.5662 13.6844L11.3455 13.6513C10.8262 13.6016 10.2847 13.7315 9.78557 13.9037C9.20831 14.1031 8.58928 14.3956 8.01283 14.6562C7.41899 14.9248 6.85776 15.1651 6.33488 15.3027C5.91825 15.4123 5.56485 15.4435 5.26578 15.3955C5.20565 15.2182 5.15415 14.9727 5.11641 14.6695C5.06182 14.2307 5.04672 13.8458 5.00819 13.455L5.00736 13.4506L4.68006 10.333L4.6802 10.3308L4.5003 8.68667C4.44145 8.14101 4.3846 7.59296 4.33111 7.03001C4.20468 5.70001 3.96986 4.31951 4.00321 3.08157Z" stroke="white" stroke-width="1.5" stroke-linejoin="round"/>
<defs>
<pattern id="pattern0_184_960" patternUnits="userSpaceOnUse" patternTransform="matrix(12 0 0 12 0 0)" preserveAspectRatio="none" viewBox="0 0 12 12" width="1" height="1">
<g id="pattern0_184_960_inner">
<rect y="2" width="3" height="1" fill="#D9D9D9"/>
<rect y="8" width="3" height="1" fill="#D9D9D9"/>
<rect x="6" y="2" width="3" height="1" fill="#D9D9D9"/>
<rect x="6" y="8" width="3" height="1" fill="#D9D9D9"/>
<rect x="5" y="3" width="3" height="1" transform="rotate(180 5 3)" fill="#D9D9D9"/>
<rect x="5" y="9" width="3" height="1" transform="rotate(180 5 9)" fill="#D9D9D9"/>
<rect x="11" y="3" width="3" height="1" transform="rotate(180 11 3)" fill="#D9D9D9"/>
<rect x="11" y="9" width="3" height="1" transform="rotate(180 11 9)" fill="#D9D9D9"/>
<rect x="2" width="1" height="2" fill="#D9D9D9"/>
<rect x="2" y="6" width="1" height="2" fill="#D9D9D9"/>
<rect x="8" width="1" height="2" fill="#D9D9D9"/>
<rect x="8" y="6" width="1" height="2" fill="#D9D9D9"/>
<rect x="3" y="5" width="1" height="2" transform="rotate(180 3 5)" fill="#D9D9D9"/>
<rect x="3" y="11" width="1" height="2" transform="rotate(180 3 11)" fill="#D9D9D9"/>
<rect x="9" y="5" width="1" height="2" transform="rotate(180 9 5)" fill="#D9D9D9"/>
<rect x="9" y="11" width="1" height="2" transform="rotate(180 9 11)" fill="#D9D9D9"/>
</g>
</pattern></defs>
</svg>
