<svg width="60" height="60" viewBox="0 0 60 60" fill="none" xmlns="http://www.w3.org/2000/svg" xmlns:xlink="http://www.w3.org/1999/xlink">
<rect width="60" height="60" fill="url(#pattern0_184_960)" fill-opacity="0.1"/>
<path fill-rule="evenodd" clip-rule="evenodd" d="M5.94663 6.01175C6.69847 6.09258 7.41359 6.35513 8.07358 6.65726C8.70627 6.94692 9.39368 7.32714 9.94565 7.59574C10.191 7.7151 10.4496 7.83107 10.722 7.95511C10.9914 8.07778 11.2726 8.20795 11.5492 8.34867C12.1002 8.62906 12.6618 8.96747 13.1234 9.42386C13.4059 9.7033 13.6193 10.0348 13.7992 10.335C13.9894 10.6525 14.1351 10.9209 14.3128 11.167C14.8449 11.9036 15.5043 12.714 16.0482 13.5049C17.0145 14.9102 17.8574 16.2956 18.8441 17.627C20.0339 19.2323 21.3821 20.8063 22.7953 22.2061C24.3206 23.717 25.9759 25.1127 27.6263 26.5245C27.9444 26.7966 28.2549 27.0769 28.5589 27.3526C28.8646 27.6297 29.1647 27.9025 29.4701 28.1661C29.8708 28.5119 30.2529 28.7943 30.6908 29.1553L38.5804 35.5586L43.3773 39.3243C43.8494 39.692 44.3712 40.1462 44.9847 40.6094C45.5894 41.0659 46.1414 41.4158 46.5375 41.5293C47.2712 41.7394 48.0824 41.7355 48.9847 41.7168C49.8592 41.6988 50.8266 41.6674 51.7445 41.8799L51.9779 41.9395C52.502 42.0876 52.8946 42.2987 53.2308 42.6065C53.5946 42.9397 53.8713 43.3697 54.1791 43.8448C54.4121 44.1859 54.9051 45.1149 55.308 46.0108C55.514 46.4689 55.7046 46.9386 55.8304 47.335C55.8929 47.5321 55.9441 47.7253 55.9701 47.8975C55.9922 48.0442 56.0136 48.2728 55.9251 48.4776C55.4187 49.6508 53.8846 51.9983 53.0433 53.0489C52.7516 53.4132 52.3315 53.7141 52.0101 53.9151L51.8812 53.9961L51.7289 53.9903C51.4759 53.9804 51.2394 53.9476 51.0248 53.9151C50.8034 53.8815 50.6121 53.8489 50.4125 53.8301C49.16 53.7125 47.9398 53.5168 46.7171 53.291C45.9123 53.1424 45.0836 53.0471 44.2445 52.9356C44.0485 52.9095 43.8533 52.8659 43.681 52.8262C43.5011 52.7848 43.3458 52.7479 43.1957 52.7237C42.8526 52.6811 42.5156 52.6204 42.1927 52.5596C41.8594 52.4968 41.5441 52.4347 41.2289 52.3858C40.2858 52.2398 39.2341 52.0996 38.2689 51.9053L38.2591 51.9034L38.2494 51.9004C36.7252 51.5296 34.6799 51.182 33.1449 50.376C30.9143 49.2046 28.6702 47.7328 26.6732 46.1953C26.4272 46.006 26.1697 45.8306 25.8988 45.6455C25.632 45.4634 25.3511 45.2715 25.0833 45.0606C23.9659 44.1802 22.8194 43.3768 21.6146 42.6241C20.7816 42.1152 19.58 41.4544 18.9681 40.3545C18.6942 39.8621 18.3957 39.1371 18.182 38.3994C17.9721 37.6746 17.8233 36.866 17.9046 36.2276C17.9951 35.5189 18.4438 35.1142 18.8441 34.835L18.9505 34.7608L19.0804 34.7481C19.347 34.7228 19.6212 34.7034 19.8949 34.7647C20.0217 34.7931 20.1402 34.8375 20.2542 34.8955C18.6718 33.158 17.4439 31.0352 16.4808 28.962C16.1014 28.145 15.7925 26.9576 15.5414 26.1817L15.5404 26.1787C15.2147 25.1512 14.8706 24.1297 14.5082 23.1153L14.14 22.1036C13.7418 21.0328 13.3292 20.1025 12.7503 19.1377C12.563 18.8255 12.4751 18.6446 12.3441 18.4532C11.7072 18.6575 11.0351 19.0538 10.2494 19.4678C9.38893 19.9211 8.39948 20.3882 7.35874 20.3682C6.61943 20.3537 5.9408 19.8071 5.79331 19.0557C5.56572 17.8957 5.40057 16.6485 5.20054 15.5205L4.96616 14.1827C4.73571 12.844 4.51838 11.5027 4.31577 10.1592L4.31675 10.1582C4.14995 9.08637 3.93641 8.3676 4.01792 7.12504L4.02866 6.9639L4.13218 6.83988C4.27814 6.66587 4.45457 6.45794 4.71909 6.29007C5.09756 6.05005 5.52527 5.96657 5.94663 6.01175ZM5.64683 7.69047C5.64433 7.71237 5.6432 7.7354 5.64194 7.75882C5.68001 8.86356 5.96327 10.0807 6.1478 11.2588C6.2259 11.7575 6.30614 12.2427 6.38804 12.7256L6.63706 14.1807V14.1827L7.09702 16.9424L7.098 16.9463C7.15344 17.2924 7.18782 17.6345 7.26011 18.0225C7.31008 18.2906 7.36907 18.5065 7.43198 18.6612C7.69937 18.6877 8.01053 18.6408 8.37339 18.5205C8.82879 18.3696 9.31252 18.125 9.82358 17.8536C10.3197 17.59 10.8517 17.2959 11.3519 17.0869C11.7844 16.9064 12.2566 16.7613 12.7191 16.7774L12.9164 16.795L13.0599 16.8145L13.1693 16.9092C13.472 17.1692 13.7524 17.5741 13.9779 17.9463C14.2103 18.33 14.4156 18.7312 14.5599 19.0157C16.0226 21.8982 16.8326 25.1579 17.8871 28.0928C17.9677 28.3171 18.0852 28.5527 18.222 28.8086C18.3499 29.0478 18.5015 29.3193 18.6253 29.5772C19.9377 32.0639 21.4973 34.2254 23.723 35.833C23.8279 35.9088 24.0326 36.0183 24.2875 36.1455C24.52 36.2616 24.7958 36.3934 24.975 36.4922C25.5132 36.789 26.054 37.0669 26.6 37.337L28.3705 38.1905C28.7827 38.3868 29.1999 38.6016 29.6097 38.8145C30.0205 39.028 30.4245 39.239 30.8226 39.4346L37.3929 42.586C38.3982 43.0614 39.5131 43.5092 40.5414 44.1133C40.7139 44.2147 40.8918 44.3025 41.1 44.4121C41.2974 44.5161 41.5143 44.6368 41.7142 44.7842C42.1334 45.0933 42.4921 45.5361 42.5414 46.2325C42.6112 47.2227 42.176 48.0593 41.7845 48.7569L41.7796 48.7657C41.544 49.1665 41.2291 49.552 40.8031 49.7608C40.3453 49.9849 39.8316 49.971 39.3089 49.7022C37.8901 48.9725 36.5038 48.2224 35.1068 47.4659C34.3478 47.0659 33.5626 46.6881 32.7679 46.3028C31.9766 45.919 31.1759 45.5286 30.4017 45.1094L30.3988 45.1075C29.5392 44.6366 28.6943 44.1376 27.8656 43.6123C26.5261 42.7588 25.0208 41.5913 23.8392 40.5254L23.8373 40.5235C23.2103 39.9526 22.5947 39.3683 21.9916 38.7715L21.3919 38.17C20.8247 37.5926 20.3091 37.0326 19.7308 36.5371L19.6322 36.4629C19.5845 36.4299 19.5443 36.4097 19.514 36.3955C19.4971 36.47 19.4875 36.5881 19.5052 36.753C19.5705 37.358 19.7309 37.8886 19.9398 38.461L20.1634 39.0518L20.1781 39.0909C20.4189 39.7172 20.8424 40.1542 21.3822 40.544C21.6549 40.7409 21.9511 40.9211 22.2669 41.1094C22.5773 41.2945 22.9111 41.49 23.2308 41.7041C24.2407 42.3807 25.2261 43.1023 26.1986 43.8233C27.1726 44.5454 28.1329 45.2657 29.1087 45.9502C29.7575 46.3969 30.4153 46.8307 31.0814 47.25L31.7513 47.6651L31.7552 47.667C32.3924 48.0643 33.043 48.5092 33.6468 48.7862C35.5331 49.651 37.5593 50.0834 39.639 50.4346L41.7337 50.7715L41.7367 50.7725L45.6449 51.4229C47.6047 51.7322 49.6059 52.1139 51.5472 52.2696C51.6657 52.1489 51.853 51.9243 52.0902 51.6016C52.3708 51.2199 52.693 50.7463 53.0082 50.2588C53.5786 49.3764 54.0969 48.4923 54.3158 48.0381C54.1602 47.502 53.7972 46.5868 53.3529 45.71C53.1089 45.2286 52.848 44.7736 52.596 44.4112C52.3323 44.0319 52.1175 43.8122 51.9789 43.7325C51.7513 43.6018 51.4172 43.5099 50.9818 43.4541C50.5521 43.3991 50.0631 43.3833 49.5482 43.3809C49.0495 43.3786 48.4959 43.3885 48.0101 43.3799C47.5188 43.3712 47.0322 43.3441 46.6224 43.2559C46.1987 43.1645 45.8397 43.0621 45.4349 42.9287L45.3656 42.9053L45.306 42.8643C45.2166 42.8018 45.1568 42.7559 45.0814 42.7071C45.0072 42.6591 44.9676 42.642 44.9564 42.6387L44.8529 42.6084L44.7718 42.5371C44.1364 41.9846 43.4677 41.4749 42.7835 40.961C42.1032 40.4499 41.4031 39.9315 40.7269 39.376C40.0654 38.8327 39.3777 38.3068 38.683 37.7754C37.9907 37.246 37.2897 36.7107 36.6136 36.1553L34.7464 34.6407L34.7445 34.6397L29.2406 30.1455L29.2367 30.1416C27.4786 28.6733 25.7561 27.1607 24.0716 25.6055C23.9296 25.4761 23.7782 25.3501 23.6166 25.2159C23.4577 25.0839 23.2874 24.943 23.1244 24.795L23.1214 24.792C22.3422 24.0721 21.586 23.3262 20.8539 22.5567L20.7074 22.4034L20.7093 22.3575C20.6293 22.2603 20.5649 22.1642 20.515 22.085C20.4209 21.9357 20.3705 21.8492 20.3031 21.7715C19.6148 20.9778 18.8452 20.1543 18.18 19.2764C17.7668 18.7311 17.331 18.1597 16.9349 17.5791C16.7964 17.3761 16.5295 16.9633 16.2064 16.4688C15.8801 15.9693 15.4901 15.3772 15.1009 14.8037C14.7109 14.2289 14.3248 13.679 14.0042 13.2618C13.8435 13.0525 13.7054 12.8835 13.5951 12.7647C13.5399 12.7052 13.4969 12.664 13.4671 12.6387C13.4601 12.6327 13.4544 12.628 13.4505 12.625L13.3607 12.5909L13.2796 12.4942C13.0695 12.2422 12.7707 11.7655 12.5199 11.3819C12.3873 11.1791 12.2631 10.9925 12.1546 10.8457C12.1006 10.7726 12.0544 10.7143 12.0169 10.6719C11.976 10.6256 11.9613 10.616 11.9701 10.6221C10.4135 9.54148 8.40518 8.69793 6.60093 7.90629C6.45083 7.84048 6.18864 7.75111 5.94077 7.70804C5.8194 7.68699 5.71916 7.68095 5.64683 7.68558V7.69047ZM22.5013 36.9834C22.7589 37.2513 23.0148 37.5133 23.2796 37.7666C24.2727 38.7163 25.2761 39.6537 26.3294 40.4991C27.4567 41.4064 28.643 42.2368 29.8783 42.9834L30.5326 43.3575C31.8591 44.0877 33.2846 44.7221 34.6898 45.416L35.39 45.7686L35.3919 45.7696C35.8518 46.009 36.3112 46.2506 36.7689 46.4942L38.14 47.2315C38.7414 47.5594 39.3342 47.8943 39.9261 48.167C40.0086 48.205 40.0604 48.2157 40.1039 48.2198C40.1236 48.2216 40.146 48.2204 40.1722 48.2198C40.6311 47.6855 40.8477 47.0374 40.9076 46.291C40.8388 46.1817 40.78 46.1197 40.722 46.086C39.338 45.2816 37.8734 44.6452 36.3929 43.9307L36.391 43.9297L27.225 39.4473L27.222 39.4463C25.8317 38.7558 24.3104 38.0713 22.9183 37.2705L22.9085 37.2657L22.6976 37.125C22.6313 37.0788 22.5658 37.0312 22.5013 36.9834Z" fill="white"/>
<defs>
<pattern id="pattern0_184_960" patternUnits="userSpaceOnUse" patternTransform="matrix(12 0 0 12 0 0)" preserveAspectRatio="none" viewBox="0 0 12 12" width="1" height="1">
<g id="pattern0_184_960_inner">
<rect y="2" width="3" height="1" fill="#D9D9D9"/>
<rect y="8" width="3" height="1" fill="#D9D9D9"/>
<rect x="6" y="2" width="3" height="1" fill="#D9D9D9"/>
<rect x="6" y="8" width="3" height="1" fill="#D9D9D9"/>
<rect x="5" y="3" width="3" height="1" transform="rotate(180 5 3)" fill="#D9D9D9"/>
<rect x="5" y="9" width="3" height="1" transform="rotate(180 5 9)" fill="#D9D9D9"/>
<rect x="11" y="3" width="3" height="1" transform="rotate(180 11 3)" fill="#D9D9D9"/>
<rect x="11" y="9" width="3" height="1" transform="rotate(180 11 9)" fill="#D9D9D9"/>
<rect x="2" width="1" height="2" fill="#D9D9D9"/>
<rect x="2" y="6" width="1" height="2" fill="#D9D9D9"/>
<rect x="8" width="1" height="2" fill="#D9D9D9"/>
<rect x="8" y="6" width="1" height="2" fill="#D9D9D9"/>
<rect x="3" y="5" width="1" height="2" transform="rotate(180 3 5)" fill="#D9D9D9"/>
<rect x="3" y="11" width="1" height="2" transform="rotate(180 3 11)" fill="#D9D9D9"/>
<rect x="9" y="5" width="1" height="2" transform="rotate(180 9 5)" fill="#D9D9D9"/>
<rect x="9" y="11" width="1" height="2" transform="rotate(180 9 11)" fill="#D9D9D9"/>
</g>
</pattern></defs>
</svg>
