<svg width="60" height="60" viewBox="0 0 60 60" fill="none" xmlns="http://www.w3.org/2000/svg" xmlns:xlink="http://www.w3.org/1999/xlink">
<rect width="60" height="60" fill="url(#pattern0_250_19)" fill-opacity="0.1"/>
<path d="M3.6357 30.5323C3.53276 30.3362 3.37835 29.9151 3.30972 29.7075C3.24681 29.5114 3.14959 29.1134 3.11528 28.9058C3.08096 28.6982 3.04665 28.2829 3.03521 28.0753C3.01805 27.8273 2.99518 27.3255 3.0009 27.0775C3.00661 26.841 3.03521 26.3739 3.07524 26.1432C3.11528 25.9067 3.24109 25.4395 3.32116 25.2088C3.40122 24.9781 3.59567 24.5225 3.69289 24.3033C3.77296 24.1188 3.95597 23.7612 4.05319 23.5824C4.21332 23.294 4.55646 22.7173 4.7509 22.4462C4.95679 22.1578 5.38571 21.6041 5.60875 21.3331C5.82035 21.0793 6.28931 20.6064 6.51807 20.3699C6.74682 20.1334 7.22722 19.6778 7.47314 19.4586C7.71333 19.2395 8.17085 18.8473 8.4282 18.6512C8.71987 18.4262 9.36612 17.9821 9.66922 17.7803C9.98948 17.5726 10.63 17.1574 10.9617 16.9728C11.2877 16.7883 11.9682 16.4595 12.3114 16.3096C12.5973 16.1827 13.175 15.9577 13.4666 15.8539C13.7812 15.7443 14.4103 15.554 14.7305 15.4675C15.0222 15.3868 15.617 15.2368 15.9143 15.1791C16.1831 15.1272 16.7322 15.0465 17.0067 15.0061C17.2926 14.9657 18.1562 14.8677 18.1562 14.8677C18.1562 14.8677 19.3514 14.7408 19.7461 14.712C20.2836 14.6716 21.3588 14.6081 21.8964 14.5793C22.3997 14.5562 23.4119 14.5159 23.9209 14.5043C24.3384 14.4986 25.1734 14.4986 25.5908 14.5043C26.0598 14.5043 27.4724 14.5216 27.4724 14.5216L31.1726 14.6197C31.1726 14.6197 36.4626 14.8158 38.2298 14.8907C38.836 14.9196 40.0427 14.983 40.6432 15.0234C41.2322 15.0638 42.4104 15.1388 42.9937 15.1964C43.5713 15.2483 44.7208 15.3868 45.2927 15.4617C45.8131 15.5309 46.8597 15.6636 47.3744 15.7674C47.8205 15.8597 48.6898 16.0962 49.1244 16.223C50.5771 16.6498 51.8981 17.2554 53.2021 18.0283C54.0999 18.5589 55.0035 19.251 55.6727 20.0584C56.1473 20.6352 56.5305 21.3561 56.7364 22.0713C57.0338 23.1037 57.0395 24.1361 56.948 25.1973C56.8851 25.9528 56.7478 26.7026 56.5362 27.4293C56.4447 27.7523 56.216 28.3867 56.0901 28.6982C55.9643 29.0269 55.5411 29.9959 55.5411 29.9959L54.5174 32.3836C54.5174 32.3836 53.8369 34.0216 53.5909 34.558C53.488 34.7829 53.2707 35.2328 53.1506 35.4519C52.9847 35.7576 52.4414 36.6516 52.4414 36.6516C52.4414 36.6516 48.2037 43.7629 48.198 43.7687C47.5574 44.8415 46.6481 45.6085 45.3671 45.4874C44.8409 45.4413 44.2805 45.2106 43.8744 44.8703C42.9537 44.1032 42.6963 42.869 42.9308 41.727C42.9765 41.5021 43.1252 41.0753 43.2053 40.8619C43.2911 40.6369 43.5885 39.9852 43.5885 39.9852C43.7772 39.6046 43.9602 39.2181 44.1489 38.8375C44.5435 38.0243 44.9439 37.211 45.3385 36.3921C45.7045 35.6423 46.0648 34.8983 46.4308 34.1485C46.7625 33.4622 47.0542 32.747 47.2143 31.9972C47.3115 31.5473 47.3458 31.0917 47.3859 30.6303C47.4659 29.6902 47.546 28.7443 47.6203 27.8042C47.6547 27.389 47.6947 26.9737 47.7176 26.5584C47.7576 25.7106 47.4488 25.0416 46.9627 24.4764C46.5051 23.9457 45.939 23.7093 45.1955 23.5017C44.881 23.4094 42.7135 22.9653 41.9528 22.798C41.0321 22.5962 40.1113 22.4001 39.1906 22.1982C38.4014 22.0252 37.6064 21.8521 36.8172 21.6849C36.1481 21.5407 35.4904 21.3965 34.8098 21.3273C34.1236 21.2581 33.4258 21.2235 32.7338 21.2235C31.9503 21.2235 31.1668 21.2177 30.3833 21.2177C29.4397 21.2177 28.5018 21.2119 27.5582 21.2119C26.7575 21.2119 25.9569 21.2062 25.1505 21.2062C23.9895 21.2004 22.8286 21.2408 21.6791 21.4484C20.9756 21.5753 20.2951 21.8291 19.6546 22.1521C19.2485 22.3597 18.8539 22.5962 18.4764 22.8499C17.6701 23.3978 17.0009 24.1418 16.5663 25.0127C16.5663 25.0127 15.4969 27.2217 15.0222 27.9542C14.5475 28.6866 13.5181 30.0939 11.9968 30.9648C10.4756 31.8357 9.05157 32.4874 7.77052 32.6374C6.62101 32.7701 5.49437 32.4009 4.79094 31.853C4.09322 31.2993 3.6357 30.5323 3.6357 30.5323Z" stroke="white" stroke-width="1.5" stroke-miterlimit="10"/>
<defs>
<pattern id="pattern0_250_19" patternUnits="userSpaceOnUse" patternTransform="matrix(12 0 0 12 0 0)" preserveAspectRatio="none" viewBox="0 0 12 12" width="1" height="1">
<g id="pattern0_250_19_inner">
<rect y="2" width="3" height="1" fill="#D9D9D9"/>
<rect y="8" width="3" height="1" fill="#D9D9D9"/>
<rect x="6" y="2" width="3" height="1" fill="#D9D9D9"/>
<rect x="6" y="8" width="3" height="1" fill="#D9D9D9"/>
<rect x="5" y="3" width="3" height="1" transform="rotate(180 5 3)" fill="#D9D9D9"/>
<rect x="5" y="9" width="3" height="1" transform="rotate(180 5 9)" fill="#D9D9D9"/>
<rect x="11" y="3" width="3" height="1" transform="rotate(180 11 3)" fill="#D9D9D9"/>
<rect x="11" y="9" width="3" height="1" transform="rotate(180 11 9)" fill="#D9D9D9"/>
<rect x="2" width="1" height="2" fill="#D9D9D9"/>
<rect x="2" y="6" width="1" height="2" fill="#D9D9D9"/>
<rect x="8" width="1" height="2" fill="#D9D9D9"/>
<rect x="8" y="6" width="1" height="2" fill="#D9D9D9"/>
<rect x="3" y="5" width="1" height="2" transform="rotate(180 3 5)" fill="#D9D9D9"/>
<rect x="3" y="11" width="1" height="2" transform="rotate(180 3 11)" fill="#D9D9D9"/>
<rect x="9" y="5" width="1" height="2" transform="rotate(180 9 5)" fill="#D9D9D9"/>
<rect x="9" y="11" width="1" height="2" transform="rotate(180 9 11)" fill="#D9D9D9"/>
</g>
</pattern></defs>
</svg>
