<svg width="60" height="60" viewBox="0 0 60 60" fill="none" xmlns="http://www.w3.org/2000/svg" xmlns:xlink="http://www.w3.org/1999/xlink">
<rect width="60" height="60" fill="url(#pattern0_217_4)" fill-opacity="0.1"/>
<path d="M43.7223 17.1078C43.7223 17.1078 40.954 21.5751 40.954 21.5788C40.5439 22.2598 39.9617 22.7468 39.1415 22.67C38.8046 22.6407 38.4458 22.4942 38.1858 22.2781C37.5962 21.7911 37.263 20.9489 37.5816 20.2825C38.2737 18.8398 40.0789 15.2806 40.3645 14.6324C40.6501 13.9843 40.5146 13.1275 40.1961 12.2853C39.8995 11.5016 39.0609 10.718 38.6435 10.3152C38.6435 10.3152 37.1641 8.94209 36.6662 8.55394C36.1682 8.1658 35.1612 7.41514 34.1103 6.90982C33.0593 6.4045 31.5617 5.92481 30.1739 5.59526C28.7898 5.2657 26.3876 5.02403 25.6333 5.03501C25.0328 5.04234 23.6633 5.25472 22.7442 5.91749C21.8251 6.58027 21.4516 6.96475 21.0671 7.63119C20.6827 8.29762 20.2542 9.56092 20.2176 10.2091C20.1773 10.8572 20.3238 11.3588 20.4556 11.6884C20.5875 12.0143 21.0525 12.7723 21.0525 12.7723C21.2759 13.0652 21.5395 13.3472 21.8141 13.5852C22.1181 13.8488 22.4183 14.1125 22.7222 14.3798C23.1141 14.724 23.5059 15.0645 23.8977 15.4087C24.3298 15.7859 24.7618 16.1667 25.1939 16.5439C25.6187 16.9137 26.0434 17.2872 26.4645 17.657C26.8307 17.9793 27.1969 18.2978 27.5631 18.6201C27.823 18.8471 28.083 19.0741 28.343 19.3012C28.4492 19.3927 28.5517 19.4842 28.6579 19.5758C28.6579 19.5758 28.9216 19.8065 29.0058 19.887C29.0864 19.9603 29.2438 20.0994 29.3207 20.1763C29.3939 20.2532 29.5331 20.4143 29.6027 20.4949C29.6759 20.5828 29.8883 20.8611 29.8883 20.8611L32.4112 24.1822L43.7736 39.6238C43.7736 39.6238 44.0189 39.9936 44.0922 40.1181C44.1654 40.239 44.2972 40.4916 44.3631 40.6161C44.4327 40.7553 44.5682 41.0336 44.6304 41.1727C44.6854 41.3045 44.7879 41.5719 44.8318 41.7073C44.8868 41.8611 44.9856 42.176 45.0296 42.3335C45.0662 42.4653 45.1321 42.7363 45.1541 42.8718C45.1724 42.9743 45.187 43.1794 45.1943 43.2855C45.2017 43.3954 45.2053 43.6261 45.2053 43.7323C45.2017 43.8641 45.1834 44.1168 45.1687 44.2486C45.1504 44.3914 45.1101 44.6697 45.0808 44.8088C45.0515 44.937 44.971 45.175 44.9234 45.3178C44.8868 45.4313 44.7916 45.651 44.7476 45.7609C44.6963 45.8781 44.5975 46.1161 44.5389 46.2296C44.484 46.3394 44.3558 46.5555 44.2899 46.6617C44.2203 46.7752 44.0665 46.9986 43.986 47.1084C43.8981 47.2219 43.7077 47.438 43.6088 47.5442C43.5026 47.6577 43.1657 47.9872 43.1657 47.9872L38.1931 52.5095L34.4581 55.8124C33.5976 56.5484 33.085 56.7388 32.4881 56.9072C31.8912 57.0757 30.7634 57.0134 30.0128 56.7315C29.2621 56.4495 28.4419 55.7245 28.0281 55.2961C27.6107 54.8676 26.0801 53.2198 26.0801 53.2198L23.147 50.0671C23.147 50.0671 22.7991 49.6606 22.6856 49.5215C22.5831 49.3933 22.3854 49.1297 22.2902 48.9979C22.2023 48.877 22.0302 48.6353 21.9533 48.5072C21.88 48.39 21.7409 48.1447 21.675 48.0202C21.6127 47.903 21.4809 47.643 21.426 47.5258C21.3637 47.394 21.2576 47.1523 21.199 47.0169C21.1477 46.896 21.0635 46.647 21.0159 46.5225C20.9719 46.4017 20.8474 46.0355 20.8474 46.0355L20.0016 42.5569C20.0016 42.5569 19.6757 41.202 19.5439 40.5539C19.401 39.8472 19.5072 39.1734 19.6684 38.8255C19.91 38.3019 20.3568 37.998 20.8914 37.5293C21.4223 37.0606 22.5355 36.2037 22.5355 36.2037C22.5355 36.2037 25.8787 33.4465 26.4792 32.8752C27.0797 32.304 27.347 31.9964 27.5155 31.4728C27.6839 30.9418 27.4898 30.1472 27.4898 30.1472C27.4459 30.0374 27.2848 29.7188 27.2189 29.6199C27.0907 29.4259 26.622 28.9022 26.622 28.9022L23.9123 25.9545C23.9123 25.9545 20.8694 22.6846 19.8661 21.5861C18.3867 19.9676 13.9853 15.0682 13.9853 15.0682C13.9853 15.0682 13.0882 14.1088 12.8099 13.7683C12.6964 13.6291 12.4913 13.3362 12.4071 13.1787C12.3412 13.0542 12.2423 12.7869 12.1984 12.6551C12.1581 12.5306 12.0959 12.2779 12.0739 12.1461C12.0519 12.0143 12.03 11.7506 12.0226 11.6188C12.0117 11.4614 11.997 11.1428 12.0007 10.9853C12.0043 10.8352 12.0226 10.5386 12.0483 10.3921C12.0739 10.242 12.1545 9.94541 12.2057 9.79894C12.257 9.65247 12.3815 9.36319 12.4437 9.22404C12.495 9.10687 12.6122 8.87984 12.6744 8.76632C12.777 8.58324 12.9967 8.21706 13.1212 8.04496C13.253 7.86188 13.5276 7.51035 13.6704 7.33825C13.8059 7.17713 14.1062 6.87687 14.2526 6.72674C14.3991 6.5766 14.7067 6.28733 14.8642 6.14818C15.0179 6.00903 15.3109 5.76004 15.4757 5.63554C15.6624 5.49273 16.0762 5.21078 16.2703 5.08261C16.4753 4.95079 16.8854 4.68715 17.0978 4.56997C17.3065 4.4528 17.7423 4.24408 17.962 4.14887C18.1451 4.06831 18.5149 3.92551 18.7017 3.85959C18.9031 3.79002 19.3058 3.66918 19.5109 3.61426C19.6976 3.56299 20.0785 3.46779 20.2689 3.43117C20.441 3.39821 20.7925 3.34695 20.9683 3.32132C21.1514 3.29569 21.7043 3.23344 21.7043 3.23344C21.7043 3.23344 22.4696 3.15288 22.7222 3.13457C23.0664 3.10894 23.7549 3.06866 24.0991 3.05035C24.4213 3.0357 25.0694 3.01007 25.3953 3.00275C25.6626 2.99908 26.1972 2.99908 26.4645 3.00275C26.7648 3.00275 27.6693 3.01373 27.6693 3.01373L30.0384 3.07598C30.0384 3.07598 33.4255 3.20048 34.557 3.24808C34.9451 3.26639 35.7178 3.30667 36.1022 3.3323C36.4794 3.35794 37.2337 3.40554 37.6072 3.44216C37.9771 3.47511 38.7131 3.56299 39.0792 3.6106C39.4125 3.65454 40.0826 3.73876 40.4121 3.80467C40.6977 3.86326 41.2543 4.01339 41.5326 4.09394C42.4627 4.36491 43.3085 4.7494 44.1434 5.24007C44.7183 5.57695 45.2969 6.01636 45.7253 6.529C45.7253 6.529 46.8128 7.78132 47.0655 8.53197C47.3182 9.28263 47.6001 10.4837 47.1277 11.4174C46.7213 12.245 43.7223 17.1078 43.7223 17.1078Z" stroke="white" stroke-width="1.5" stroke-miterlimit="10"/>
<defs>
<pattern id="pattern0_217_4" patternUnits="userSpaceOnUse" patternTransform="matrix(12 0 0 12 0 0)" preserveAspectRatio="none" viewBox="0 0 12 12" width="1" height="1">
<g id="pattern0_217_4_inner">
<rect y="2" width="3" height="1" fill="#D9D9D9"/>
<rect y="8" width="3" height="1" fill="#D9D9D9"/>
<rect x="6" y="2" width="3" height="1" fill="#D9D9D9"/>
<rect x="6" y="8" width="3" height="1" fill="#D9D9D9"/>
<rect x="5" y="3" width="3" height="1" transform="rotate(180 5 3)" fill="#D9D9D9"/>
<rect x="5" y="9" width="3" height="1" transform="rotate(180 5 9)" fill="#D9D9D9"/>
<rect x="11" y="3" width="3" height="1" transform="rotate(180 11 3)" fill="#D9D9D9"/>
<rect x="11" y="9" width="3" height="1" transform="rotate(180 11 9)" fill="#D9D9D9"/>
<rect x="2" width="1" height="2" fill="#D9D9D9"/>
<rect x="2" y="6" width="1" height="2" fill="#D9D9D9"/>
<rect x="8" width="1" height="2" fill="#D9D9D9"/>
<rect x="8" y="6" width="1" height="2" fill="#D9D9D9"/>
<rect x="3" y="5" width="1" height="2" transform="rotate(180 3 5)" fill="#D9D9D9"/>
<rect x="3" y="11" width="1" height="2" transform="rotate(180 3 11)" fill="#D9D9D9"/>
<rect x="9" y="5" width="1" height="2" transform="rotate(180 9 5)" fill="#D9D9D9"/>
<rect x="9" y="11" width="1" height="2" transform="rotate(180 9 11)" fill="#D9D9D9"/>
</g>
</pattern></defs>
</svg>
