<svg width="60" height="60" viewBox="0 0 60 60" fill="none" xmlns="http://www.w3.org/2000/svg" xmlns:xlink="http://www.w3.org/1999/xlink">
<rect width="60" height="60" fill="url(#pattern0_82_144)" fill-opacity="0.1"/>
<path d="M7.64797 17.9008L32.5244 16.4927L55.1288 12.3408C56.1868 12.1465 57.2091 12.8239 57.4424 13.8741L57.5632 14.4176C57.8132 15.5426 57.0632 16.6456 55.9251 16.8266L17.0693 23.0082C15.1581 23.3123 13.5109 24.5195 12.6455 26.2504L8.01266 35.5161C7.70526 36.1308 7.70526 36.8545 8.01266 37.4693C8.33313 38.1102 8.94765 38.5531 9.65704 38.6545L10.842 38.8238C11.6166 38.9344 12.4068 38.8397 13.1333 38.5491L13.5452 38.3843C14.187 38.1276 14.7513 37.709 15.1831 37.1692L15.9056 36.2661C16.3092 35.7616 16.5555 35.1496 16.614 34.5063L16.7591 32.9104C16.9275 31.058 17.8948 29.3709 19.4084 28.2898C20.144 27.7643 20.9827 27.401 21.8691 27.2237L34.1423 24.7691C34.9711 24.6033 35.8146 24.9765 36.2495 25.7013L39.6029 31.2902C41.2248 33.9934 38.1137 37.0485 35.4404 35.3777L34.5193 34.802C34.1905 34.5965 33.8385 34.4307 33.4706 34.3081L33.2654 34.2397C31.843 33.7655 30.2844 33.9366 28.9988 34.708C28.6837 34.8971 28.393 35.124 28.1332 35.3839L26.1514 37.3656C25.0783 38.4387 23.7948 39.2781 22.3816 39.8311L3.13411 47.3628C2.41795 47.643 1.6667 47.0437 1.78078 46.2832L5.78312 19.6009C5.92365 18.664 6.70216 17.9543 7.64797 17.9008Z" stroke="white" stroke-width="1.5"/>
<defs>
<pattern id="pattern0_82_144" patternUnits="userSpaceOnUse" patternTransform="matrix(12 0 0 12 0 0)" preserveAspectRatio="none" viewBox="0 0 12 12" width="1" height="1">
<g id="pattern0_82_144_inner">
<rect y="2" width="3" height="1" fill="#D9D9D9"/>
<rect y="8" width="3" height="1" fill="#D9D9D9"/>
<rect x="6" y="2" width="3" height="1" fill="#D9D9D9"/>
<rect x="6" y="8" width="3" height="1" fill="#D9D9D9"/>
<rect x="5" y="3" width="3" height="1" transform="rotate(180 5 3)" fill="#D9D9D9"/>
<rect x="5" y="9" width="3" height="1" transform="rotate(180 5 9)" fill="#D9D9D9"/>
<rect x="11" y="3" width="3" height="1" transform="rotate(180 11 3)" fill="#D9D9D9"/>
<rect x="11" y="9" width="3" height="1" transform="rotate(180 11 9)" fill="#D9D9D9"/>
<rect x="2" width="1" height="2" fill="#D9D9D9"/>
<rect x="2" y="6" width="1" height="2" fill="#D9D9D9"/>
<rect x="8" width="1" height="2" fill="#D9D9D9"/>
<rect x="8" y="6" width="1" height="2" fill="#D9D9D9"/>
<rect x="3" y="5" width="1" height="2" transform="rotate(180 3 5)" fill="#D9D9D9"/>
<rect x="3" y="11" width="1" height="2" transform="rotate(180 3 11)" fill="#D9D9D9"/>
<rect x="9" y="5" width="1" height="2" transform="rotate(180 9 5)" fill="#D9D9D9"/>
<rect x="9" y="11" width="1" height="2" transform="rotate(180 9 11)" fill="#D9D9D9"/>
</g>
</pattern></defs>
</svg>
