<svg width="60" height="60" viewBox="0 0 60 60" fill="none" xmlns="http://www.w3.org/2000/svg" xmlns:xlink="http://www.w3.org/1999/xlink">
<rect width="60" height="60" fill="url(#pattern0_250_17)" fill-opacity="0.1"/>
<path d="M53.1666 19.7059C54.3382 20.7608 55.3033 22.0785 55.9596 23.5122V23.516C56.641 25.0038 57 26.6499 57 28.2787C57 29.1462 56.9054 30.0118 56.7182 30.8504C56.5348 31.6696 56.2626 32.4695 55.9075 33.2269C55.5601 33.9708 55.1315 34.6779 54.6335 35.329C53.8923 36.299 52.8983 37.1897 51.6764 37.978C50.6978 38.6079 49.5802 39.1469 48.1576 39.6744L40.0179 42.6093C39.2149 42.8991 38.5277 43.1213 37.7827 43.2662C36.9855 43.4208 36.2057 43.5 35.4645 43.5H24.4139C23.6727 43.5 22.8929 43.4227 22.0957 43.2662C21.3507 43.1213 20.6635 42.8991 19.8605 42.6093L11.4158 39.5643C11.331 39.5334 11.2443 39.5006 11.1576 39.4678L11.1571 39.4677C9.84265 38.9672 8.66714 38.3374 7.66343 37.5993C6.59408 36.8129 5.68301 35.87 4.95339 34.7958C4.32607 33.8741 3.84158 32.8694 3.51151 31.8106C3.17179 30.7229 3 30.0601 3 28.4294C3 26.7987 3.35323 25.1757 4.02302 23.7324C4.67737 22.32 5.65406 21.0371 6.84501 20.0189C8.09194 18.9543 9.64191 18.1428 11.4544 17.6037C13.4406 17.0144 15.4615 16.9352 17.5269 16.9024C17.7442 16.8985 17.9611 16.8952 18.1778 16.8918C18.3978 16.8884 18.6177 16.885 18.8375 16.8811L40.6278 16.5295C40.67 16.5288 40.7124 16.528 40.7548 16.5271C40.8406 16.5254 40.9267 16.5237 41.0119 16.5237C41.2281 16.5217 41.4501 16.5179 41.6701 16.514C42.3438 16.5005 43.0696 16.4908 43.8088 16.514C44.5481 16.5372 45.2623 16.5855 45.9321 16.6628C46.4629 16.7246 46.9783 16.8038 47.4589 16.8985C47.9801 17.0009 48.4819 17.1265 48.951 17.2714C50.4816 17.7448 51.9003 18.564 53.1666 19.7059Z" stroke="white" stroke-width="1.5"/>
<defs>
<pattern id="pattern0_250_17" patternUnits="userSpaceOnUse" patternTransform="matrix(12 0 0 12 0 0)" preserveAspectRatio="none" viewBox="0 0 12 12" width="1" height="1">
<g id="pattern0_250_17_inner">
<rect y="2" width="3" height="1" fill="#D9D9D9"/>
<rect y="8" width="3" height="1" fill="#D9D9D9"/>
<rect x="6" y="2" width="3" height="1" fill="#D9D9D9"/>
<rect x="6" y="8" width="3" height="1" fill="#D9D9D9"/>
<rect x="5" y="3" width="3" height="1" transform="rotate(180 5 3)" fill="#D9D9D9"/>
<rect x="5" y="9" width="3" height="1" transform="rotate(180 5 9)" fill="#D9D9D9"/>
<rect x="11" y="3" width="3" height="1" transform="rotate(180 11 3)" fill="#D9D9D9"/>
<rect x="11" y="9" width="3" height="1" transform="rotate(180 11 9)" fill="#D9D9D9"/>
<rect x="2" width="1" height="2" fill="#D9D9D9"/>
<rect x="2" y="6" width="1" height="2" fill="#D9D9D9"/>
<rect x="8" width="1" height="2" fill="#D9D9D9"/>
<rect x="8" y="6" width="1" height="2" fill="#D9D9D9"/>
<rect x="3" y="5" width="1" height="2" transform="rotate(180 3 5)" fill="#D9D9D9"/>
<rect x="3" y="11" width="1" height="2" transform="rotate(180 3 11)" fill="#D9D9D9"/>
<rect x="9" y="5" width="1" height="2" transform="rotate(180 9 5)" fill="#D9D9D9"/>
<rect x="9" y="11" width="1" height="2" transform="rotate(180 9 11)" fill="#D9D9D9"/>
</g>
</pattern></defs>
</svg>
