<svg width="60" height="60" viewBox="0 0 60 60" fill="none" xmlns="http://www.w3.org/2000/svg" xmlns:xlink="http://www.w3.org/1999/xlink">
<rect width="60" height="60" fill="url(#pattern0_250_16)" fill-opacity="0.1"/>
<path d="M26.7071 43.1191C20.8992 44.6467 12.3453 46.9846 6.51623 48.4296C6.12997 48.5253 5.71785 48.5098 5.32251 48.4635C4.93631 48.4183 4.53815 48.3438 4.19701 48.1581C3.91492 48.0045 3.71186 47.7323 3.51489 47.4794C3.35593 47.2754 3.21429 47.0481 3.13972 46.8008C3.04085 46.4729 2.98552 46.1247 3.0033 45.7828C3.02025 45.4568 3.10669 45.1301 3.24204 44.8327C3.38382 44.5212 3.56998 44.2171 3.82184 43.9844C4.06055 43.7639 4.36355 43.606 4.6745 43.5094C7.06549 42.7666 9.48787 42.1271 11.905 41.4734C14.047 40.8942 16.2195 40.4271 18.3511 39.8108C18.5389 39.7564 18.7254 39.6368 18.8285 39.4714C18.945 39.2848 18.9938 39.0445 18.965 38.8267C18.9338 38.591 18.8167 38.3598 18.658 38.182C16.5589 35.8299 14.3058 33.6166 12.212 31.2598C12.0468 31.0739 11.905 30.8292 11.905 30.5812C11.905 30.3123 12.0431 30.0446 12.212 29.8347C12.3755 29.6313 12.6079 29.4635 12.86 29.3935C13.123 29.3205 13.4189 29.343 13.6785 29.4275C14.027 29.5408 14.3284 29.7681 14.6335 29.9704C16.3074 31.0807 17.909 32.2995 19.613 33.3636C20.053 33.6384 20.5398 33.8557 21.0454 33.9744C21.5665 34.0967 22.1147 34.1179 22.6484 34.0762C25.4521 33.8572 28.2543 33.5882 31.0385 33.194C31.3108 33.1554 31.5603 32.9802 31.7548 32.7868C31.9274 32.615 32.0321 32.3765 32.0958 32.1421C32.1492 31.9455 32.152 31.727 32.0958 31.5313C31.9896 31.1613 31.7795 30.8291 31.6183 30.4794C31.2792 29.7433 30.8901 29.0284 30.5952 28.2738C30.4901 28.005 30.4299 27.7138 30.4246 27.4255C30.4184 27.0832 30.4574 26.7339 30.5611 26.4075C30.6652 26.0795 30.8429 25.775 31.0385 25.4913C31.2437 25.1939 31.4695 24.8996 31.7548 24.6769C32.0589 24.4396 32.4039 24.2311 32.7779 24.134C33.2075 24.0225 33.6663 24.1101 34.1081 24.0662C34.4633 24.0308 34.8309 24.0206 35.1654 23.8965C35.5143 23.7671 35.857 23.5816 36.1204 23.3197C36.4503 22.9914 36.6883 22.5772 36.9048 22.166C37.0666 21.8586 37.2187 21.5278 37.2459 21.1819C37.2772 20.7832 37.1972 20.3754 37.0753 19.9943C36.9551 19.6183 36.7202 19.2884 36.5296 18.9424C36.0721 18.1119 35.5245 17.3278 35.1313 16.4653C35.0177 16.2162 35.0237 15.9245 35.029 15.651C35.0351 15.3311 35.06 15.0031 35.1654 14.7009C35.2574 14.4369 35.4207 14.1957 35.6088 13.9883C35.9483 13.6137 36.3146 13.2533 36.7343 12.9703C37.3449 12.5586 38.0028 12.2133 38.6783 11.9184C39.1231 11.7243 39.5939 11.5639 40.0767 11.5112C40.4411 11.4715 40.8169 11.5421 41.1681 11.6469C41.6214 11.7822 42.0748 11.9561 42.4641 12.2238C42.8609 12.4966 43.1481 12.9006 43.4873 13.2418C44.194 13.9525 44.9401 14.6271 45.6019 15.3795C45.8988 15.7171 46.1589 16.094 46.3522 16.4993C46.5833 16.984 46.6951 17.5166 46.8638 18.0262C47.0021 18.4441 47.0873 18.8825 47.2731 19.2817C47.3753 19.5014 47.4931 19.7625 47.7164 19.8586C47.9671 19.9664 48.2745 19.9062 48.535 19.8246C49.5137 19.5181 50.4102 18.9741 51.3999 18.7049C51.8829 18.5735 52.4022 18.5886 52.9006 18.637C53.3452 18.6802 53.7876 18.7975 54.1966 18.9763C54.5488 19.1303 54.8579 19.3738 55.1516 19.621C55.4523 19.8742 55.7461 20.1469 55.9701 20.4693C56.2853 20.9231 56.5438 21.4183 56.7546 21.9284C56.8877 22.2507 56.9718 22.5986 56.9933 22.9464C57.0178 23.343 56.973 23.7452 56.891 24.134C56.7787 24.6663 56.6101 25.1875 56.4135 25.6949C56.2452 26.1292 56.0644 26.5667 55.7996 26.9504C55.5355 27.3331 55.1787 27.6444 54.8446 27.9684C53.8367 28.9456 52.7252 29.8196 51.7751 30.8526C51.6052 31.0373 51.4736 31.3227 51.5363 31.5652C51.5965 31.7981 51.8809 31.9069 52.082 32.0403C52.2935 32.1805 52.5749 32.2107 52.7641 32.3796C52.9195 32.5182 53.0389 32.7173 53.0711 32.9225C53.1 33.1068 53.0523 33.3201 52.9347 33.4654C52.7063 33.7474 52.3639 33.915 52.082 34.1441C50.8746 35.1252 49.7376 36.1978 48.4668 37.0962C47.9981 37.4274 47.4519 37.6562 46.8979 37.8087C39.2689 39.909 34.3598 41.1064 26.7071 43.1191Z" stroke="white" stroke-width="1.5" stroke-linejoin="round"/>
<defs>
<pattern id="pattern0_250_16" patternUnits="userSpaceOnUse" patternTransform="matrix(12 0 0 12 0 0)" preserveAspectRatio="none" viewBox="0 0 12 12" width="1" height="1">
<g id="pattern0_250_16_inner">
<rect y="2" width="3" height="1" fill="#D9D9D9"/>
<rect y="8" width="3" height="1" fill="#D9D9D9"/>
<rect x="6" y="2" width="3" height="1" fill="#D9D9D9"/>
<rect x="6" y="8" width="3" height="1" fill="#D9D9D9"/>
<rect x="5" y="3" width="3" height="1" transform="rotate(180 5 3)" fill="#D9D9D9"/>
<rect x="5" y="9" width="3" height="1" transform="rotate(180 5 9)" fill="#D9D9D9"/>
<rect x="11" y="3" width="3" height="1" transform="rotate(180 11 3)" fill="#D9D9D9"/>
<rect x="11" y="9" width="3" height="1" transform="rotate(180 11 9)" fill="#D9D9D9"/>
<rect x="2" width="1" height="2" fill="#D9D9D9"/>
<rect x="2" y="6" width="1" height="2" fill="#D9D9D9"/>
<rect x="8" width="1" height="2" fill="#D9D9D9"/>
<rect x="8" y="6" width="1" height="2" fill="#D9D9D9"/>
<rect x="3" y="5" width="1" height="2" transform="rotate(180 3 5)" fill="#D9D9D9"/>
<rect x="3" y="11" width="1" height="2" transform="rotate(180 3 11)" fill="#D9D9D9"/>
<rect x="9" y="5" width="1" height="2" transform="rotate(180 9 5)" fill="#D9D9D9"/>
<rect x="9" y="11" width="1" height="2" transform="rotate(180 9 11)" fill="#D9D9D9"/>
</g>
</pattern></defs>
</svg>
