<svg width="60" height="60" viewBox="0 0 60 60" fill="none" xmlns="http://www.w3.org/2000/svg" xmlns:xlink="http://www.w3.org/1999/xlink">
<rect width="60" height="60" fill="url(#pattern0_176_61)" fill-opacity="0.1"/>
<path d="M44.1936 40.5166C44.241 40.5163 44.2884 40.516 44.3359 40.5156M33.7994 38.1312C37.1533 38.3684 40.4775 38.4645 43.8007 37.8303C45.0569 37.5905 46.6387 37.2457 47.7698 36.5697C48.3186 36.2416 48.6547 35.7123 48.9235 35.1472L48.9457 35.054C49.1165 34.3116 49.0827 33.5775 49.0092 32.826C48.9206 32.5692 48.8298 32.3094 48.6874 32.0767L48.4144 31.7337C47.9175 31.2472 47.2232 30.9515 46.5261 31.0108C46.1908 31.0394 45.7487 31.1447 45.3111 31.2278C44.8691 31.3117 44.4029 31.3826 43.9457 31.4787C43.2671 31.6211 42.4991 31.7813 41.7494 31.7941C41.0009 31.8067 40.2753 31.6713 39.6728 31.2204C39.4262 31.0357 39.1838 30.7017 38.9764 30.3313C38.4501 29.3918 38.2201 28.3666 38.1308 27.303C38.095 26.8768 38.0564 26.4211 37.9624 26.0002C37.8208 25.3674 37.5516 24.8062 36.9685 24.5332C36.0441 24.1014 34.8588 24.4043 33.8373 24.661C32.3858 25.0257 30.9741 25.2232 29.4801 24.982C28.0366 24.749 26.4473 24.6022 24.9934 24.8317C23.5939 25.0537 21.492 26.7684 20.1035 26.0616C19.8799 25.9477 19.6834 25.7561 19.6145 25.5102C19.436 24.8726 19.5523 24.4008 19.8262 24.0453C20.1034 23.6858 20.5479 23.4359 21.037 23.2536C24.3337 22.025 27.777 21.46 31.1683 20.6171L31.7145 20.4731C33.6176 19.9422 35.5193 19.2324 37.4977 19.0273C38.1683 18.9578 38.8265 19.0062 39.4167 19.3459C40.7445 20.1103 41.7601 21.3043 42.8089 22.3984C43.6881 23.3005 44.59 24.178 45.5333 25.0138L46.3515 25.7219C48.3081 27.3849 50.6453 28.6921 52.7518 30.0794C53.8742 30.8186 55.0757 31.5023 56.0774 32.4302C56.5016 32.8234 56.7441 33.386 56.9411 33.9194C56.9925 34.2155 57.0128 34.4509 56.9919 34.6793C56.7355 37.4734 51 39.8335 48.3974 40.2806C47.5 40.3335 45.9641 40.4922 45.9641 40.4922C45.4216 40.4922 44.8785 40.5119 44.3359 40.5156C40.236 40.5436 36.1389 40.5669 32.0387 40.5288M32.739 40.5353C32.5055 40.5331 32.2721 40.531 32.0387 40.5288M32.0387 40.5288C29.8265 40.5082 27.6143 40.4891 25.402 40.4891C23.8104 40.5296 22.1913 40.5569 20.6084 40.3621C19.751 40.3884 18.8947 40.3297 18.0375 40.3261C15.4402 40.3152 12.8383 40.3088 10.2411 40.3102C9.1014 40.3108 7.76166 40.292 6.60854 39.9027C5.45836 39.5142 4.49743 38.7593 4.10535 37.2852C3.85655 36.3496 4.07784 35.5761 4.46204 34.7196L4.5446 34.5502C4.73835 34.1721 4.97184 33.8891 5.24845 33.6717C5.71412 33.306 6.30484 33.1587 6.85832 32.9742C9.25868 32.199 11.7482 31.7682 14.2091 31.2744C17.6247 30.589 21.0134 29.7768 24.4304 29.0983C25.0765 28.9699 25.7499 28.7543 26.4139 28.8273C26.7002 28.8588 26.9688 28.9512 27.2225 29.1395L27.4109 29.3004C27.5971 29.4807 27.7775 29.7215 27.9518 30.0403C28.6141 31.2524 29.0967 32.5572 29.6442 33.8241C29.9832 34.5842 30.3473 35.3303 30.7344 36.0606C31.3055 37.1355 31.7153 37.6307 32.2511 37.8705L32.4575 37.9488C32.8216 38.0643 33.2365 38.0914 33.7994 38.1312M33.7994 38.1312C33.77 38.1291 33.7409 38.127 33.7123 38.125M38.1308 27.303C38.133 27.3293 38.1352 27.3555 38.1374 27.3815M33.7578 24.6809C33.7842 24.6743 33.8107 24.6677 33.8373 24.661" stroke="white" stroke-width="1.5"/>
<defs>
<pattern id="pattern0_176_61" patternUnits="userSpaceOnUse" patternTransform="matrix(12 0 0 12 0 0)" preserveAspectRatio="none" viewBox="0 0 12 12" width="1" height="1">
<g id="pattern0_176_61_inner">
<rect y="2" width="3" height="1" fill="#D9D9D9"/>
<rect y="8" width="3" height="1" fill="#D9D9D9"/>
<rect x="6" y="2" width="3" height="1" fill="#D9D9D9"/>
<rect x="6" y="8" width="3" height="1" fill="#D9D9D9"/>
<rect x="5" y="3" width="3" height="1" transform="rotate(180 5 3)" fill="#D9D9D9"/>
<rect x="5" y="9" width="3" height="1" transform="rotate(180 5 9)" fill="#D9D9D9"/>
<rect x="11" y="3" width="3" height="1" transform="rotate(180 11 3)" fill="#D9D9D9"/>
<rect x="11" y="9" width="3" height="1" transform="rotate(180 11 9)" fill="#D9D9D9"/>
<rect x="2" width="1" height="2" fill="#D9D9D9"/>
<rect x="2" y="6" width="1" height="2" fill="#D9D9D9"/>
<rect x="8" width="1" height="2" fill="#D9D9D9"/>
<rect x="8" y="6" width="1" height="2" fill="#D9D9D9"/>
<rect x="3" y="5" width="1" height="2" transform="rotate(180 3 5)" fill="#D9D9D9"/>
<rect x="3" y="11" width="1" height="2" transform="rotate(180 3 11)" fill="#D9D9D9"/>
<rect x="9" y="5" width="1" height="2" transform="rotate(180 9 5)" fill="#D9D9D9"/>
<rect x="9" y="11" width="1" height="2" transform="rotate(180 9 11)" fill="#D9D9D9"/>
</g>
</pattern></defs>
</svg>
