<svg width="60" height="60" viewBox="0 0 60 60" fill="none" xmlns="http://www.w3.org/2000/svg" xmlns:xlink="http://www.w3.org/1999/xlink">
<rect width="60" height="60" fill="url(#pattern0_2021_466)" fill-opacity="0.1"/>
<path fill-rule="evenodd" clip-rule="evenodd" d="M36.624 19.0294C37.326 18.9567 38.1264 18.9944 38.8759 19.4259C39.6265 19.858 40.2924 20.4459 40.8925 21.0402C41.1941 21.3388 41.4867 21.6471 41.7675 21.9435C41.9093 22.093 42.0479 22.2394 42.1845 22.382L42.5908 22.799L42.5937 22.8019C43.2604 23.4761 43.9471 24.1252 44.6513 24.7491L45.3613 25.3644L45.3642 25.3663C47.127 26.8732 49.1939 28.0189 51.2207 29.3536C52.1991 29.998 53.404 30.6889 54.3925 31.6046C54.8257 32.0061 55.1359 32.6147 55.3271 33.1007L55.4013 33.3009L55.4228 33.3595L55.4336 33.422C55.4878 33.7326 55.5176 34.0286 55.4892 34.339C55.4605 34.653 55.3757 34.9416 55.25 35.2472L55.2421 35.2667L55.2334 35.2843C54.7478 36.3029 53.8986 37.0578 53.0459 37.6437C52.6233 37.934 52.1735 38.1994 51.7431 38.4406L50.5546 39.0939C50.0862 39.3565 49.3932 39.6435 48.707 39.8615C48.069 40.064 47.3417 40.2347 46.7627 40.2345C46.2168 40.3198 45.0889 40.4401 44.5039 40.4298L43.8828 40.4435C43.2527 40.4529 42.6042 40.451 42.0224 40.462C36.5371 40.5664 31.0177 40.4238 25.5664 40.4269C24.4545 40.4552 22.2815 40.4676 21.083 40.3107C20.3258 40.3325 19.4139 40.2793 18.748 40.2765C16.3525 40.2665 13.9534 40.2605 11.5586 40.2618C10.5216 40.2624 9.15686 40.2514 7.95015 39.8439C6.69114 39.4187 5.56863 38.548 5.12398 36.8761C4.82418 35.7487 5.11506 34.8283 5.49703 33.9767L5.59078 33.7823C5.81676 33.3413 6.10215 32.987 6.45699 32.7081C6.84557 32.4027 7.28221 32.216 7.73433 32.0841C10.1494 31.2519 12.6717 30.8195 15.0615 30.34C16.6264 30.0259 18.1908 29.6812 19.7636 29.3361C21.3342 28.9914 22.913 28.6461 24.4941 28.3322C24.7952 28.2724 25.1787 28.1829 25.4912 28.129C25.824 28.0716 26.1926 28.0302 26.5673 28.0714C26.9565 28.1142 27.3425 28.2451 27.7031 28.5128C28.0554 28.7745 28.348 29.1406 28.6005 29.6027C29.1173 30.5483 29.499 31.5228 29.8935 32.463C30.2809 33.3868 30.7081 34.2894 31.1728 35.1661C31.6934 36.146 31.9647 36.3787 32.1923 36.4806C32.3218 36.5385 32.4929 36.5779 32.79 36.6085C33.1239 36.643 33.4246 36.6529 33.9599 36.6993C36.7847 36.9443 39.6138 36.9142 42.372 36.3878C42.9014 36.2868 43.4304 36.1709 43.9375 36.0245L44.4365 35.8673C44.7365 35.7474 45.0264 35.6456 45.2334 35.5675C45.4667 35.4795 45.6334 35.407 45.7734 35.3234C46.0035 35.1858 46.2286 34.9772 46.4892 34.4327C46.6231 33.8508 46.6109 33.3971 46.541 32.7296C46.4416 32.4382 46.3684 32.2974 46.291 32.1993C46.2112 32.0984 46.0868 31.9891 45.792 31.8234C45.3204 31.5584 45.006 31.6885 44.0644 31.8673C43.6053 31.9545 43.243 32.007 42.8203 32.0958C42.2073 32.2245 41.4243 32.3921 40.6435 32.4054C39.8541 32.4188 38.9848 32.2766 38.2343 31.715C37.8703 31.4424 37.5802 31.0154 37.373 30.6456C37.1555 30.2573 36.9782 29.8388 36.8652 29.5001C36.7152 29.0526 36.6091 28.5882 36.5507 28.1154C36.5162 27.835 36.4931 27.5032 36.4677 27.2306C36.4405 26.9384 36.4079 26.6717 36.3545 26.4327C36.2442 25.9396 36.0822 25.7251 35.8789 25.63C35.5805 25.4906 35.1673 25.4708 34.6162 25.5577C34.0372 25.6491 33.5478 25.8063 32.9423 25.9396C31.5131 26.2542 30.6805 26.3505 29.1816 26.1085C27.9434 25.9086 26.5055 25.8377 25.2949 25.9708C24.7661 26.0547 24.2282 26.2932 23.5654 26.5841C22.9415 26.858 22.1962 27.1829 21.4062 27.2657L21.3691 27.2697H21.333C21.0144 27.2718 20.6362 27.2022 20.2949 27.0284C19.9482 26.8519 19.5796 26.5331 19.4365 26.0216C19.212 25.2196 19.3441 24.5178 19.7685 23.9669C20.1589 23.4604 20.7344 23.1632 21.2402 22.9747C24.3373 21.8205 27.6286 21.2727 30.6738 20.5157C31.3204 20.3551 31.9573 20.1509 32.6357 19.9425C33.3034 19.7374 34.0034 19.5317 34.7246 19.3907L35.6113 19.1993C35.9407 19.1299 36.291 19.0639 36.624 19.0294ZM37.958 20.8878C37.6254 20.7479 37.1757 20.7176 36.7236 20.7755C35.9284 20.8775 35.148 21.0706 34.3427 21.296C33.5555 21.5164 32.7073 21.7782 31.8632 21.9855L31.8642 21.9865L28.5214 22.8146L28.5146 22.8165C27.2647 23.1128 26.0225 23.3128 24.958 23.6642C24.7187 23.7432 24.3096 23.8472 23.8945 23.9581C23.4585 24.0746 22.9693 24.2108 22.5058 24.3673C22.0356 24.5261 21.6278 24.6943 21.3398 24.8654C21.1964 24.9506 21.1079 25.0215 21.0605 25.0714C21.0535 25.0788 21.048 25.085 21.0439 25.09C21.0068 25.3232 21.0214 25.438 21.0361 25.4874C21.0558 25.4926 21.0902 25.4997 21.1435 25.5021C21.2526 25.507 21.4011 25.493 21.5888 25.4532C21.9667 25.3732 22.3998 25.2117 22.8056 25.0392C23.0051 24.9544 23.1901 24.8708 23.3525 24.797L23.7744 24.6124C24.2515 24.4249 24.7454 24.2921 25.248 24.2159C26.5399 24.0203 28.0898 24.2259 29.2451 24.4034C30.4116 24.5826 31.1183 24.5853 32.2539 24.3107L33.1171 24.0851C33.4433 24.0004 33.7943 23.9144 34.1289 23.8527C34.8098 23.7271 35.6187 23.6563 36.3476 23.9113L36.3603 23.9161L36.372 23.921C37.3658 24.3075 37.8098 25.1209 38.0205 25.9034C38.2178 26.6367 38.2479 27.5123 38.3066 28.0939C38.343 28.4551 38.4805 28.9868 38.6943 29.4738C38.9238 29.9965 39.1643 30.2904 39.3076 30.3741C39.7845 30.6525 40.4417 30.705 41.2666 30.6075C41.6686 30.56 42.0811 30.4813 42.498 30.3947C42.9029 30.3105 43.333 30.2146 43.7177 30.1486C43.8739 30.1217 44.0282 30.0878 44.2158 30.049C44.3947 30.012 44.5969 29.9723 44.8056 29.9464C45.1734 29.9008 45.601 29.8923 46.0449 30.0294L46.2363 30.0978L46.248 30.1027L46.2607 30.1085C46.7358 30.3204 47.1209 30.5871 47.4394 30.9435C47.7524 31.2937 47.972 31.6979 48.1582 32.1417L48.1748 32.1808L48.1865 32.2208C48.3357 32.7284 48.4182 33.1899 48.3945 33.674C48.3708 34.1575 48.2433 34.6129 48.0449 35.1105L48.04 35.1212L48.0351 35.1329C47.1186 37.226 45.053 37.5228 43.7177 37.8702C40.5267 38.7006 37.2094 38.7227 34.0351 38.4728C33.6802 38.4448 33.2018 38.4217 32.75 38.3615C32.2899 38.3001 31.7788 38.1923 31.3105 37.962L31.3017 37.9581L31.2939 37.9532C30.8527 37.7226 30.541 37.3822 30.3066 37.0548C30.0803 36.7386 29.8875 36.3765 29.7363 36.1105C28.9063 34.6508 28.2811 32.9946 27.6289 31.5656C27.3501 30.9548 27.1818 30.4933 26.9218 30.1417C26.8064 29.9857 26.703 29.8987 26.6103 29.8517C26.5265 29.8092 26.409 29.7772 26.2187 29.7999C24.8181 29.9675 23.4726 30.3253 22.0048 30.6515L21.997 30.6534C20.6824 30.9312 19.3886 31.1948 18.1035 31.5089C17.0557 31.7651 15.9264 31.904 14.9687 32.0851L14.9697 32.0861C13.3109 32.4021 11.6615 32.7788 10.0244 33.215L10.0234 33.214C9.32144 33.4069 8.70152 33.5261 8.12008 33.7804C7.57611 34.0183 7.19488 34.3278 6.99117 34.8156C6.41821 36.188 6.87997 37.4002 8.01558 37.9894C8.98377 38.4915 10.0819 38.4975 11.372 38.5138C11.9266 38.5001 12.5 38.4996 13.0703 38.5011L14.7656 38.5079L23.0254 38.5148C23.7977 38.5227 24.5766 38.5443 25.3496 38.6007C25.4496 38.608 25.6487 38.6135 25.8857 38.6222C25.9961 38.6262 26.1111 38.6307 26.2109 38.6368C26.2676 38.6403 26.3421 38.6473 26.415 38.6564L38.1738 38.7355L42.1523 38.7325L43.0693 38.6984C43.3591 38.6871 43.697 38.6777 43.9394 38.6886C44.1002 38.6641 44.2698 38.6553 44.4003 38.6495C44.5895 38.6412 44.718 38.6387 44.8261 38.629L45.5468 38.5626C45.7948 38.5411 46.0488 38.5218 46.2978 38.5128C46.6275 38.499 47.1118 38.4436 47.5937 38.3517C48.0884 38.2573 48.5117 38.1374 48.7558 38.0187C49.6137 37.6012 50.6267 37.1263 51.5576 36.5402C52.4717 35.9646 53.2232 35.3298 53.6494 34.6261C53.7376 34.3811 53.7519 34.1964 53.747 33.8419C53.619 33.3506 53.3262 32.9611 52.9052 32.5968C52.6704 32.3936 52.424 32.218 52.163 32.0441L51.3339 31.4982C50.5668 30.9756 49.7802 30.4834 48.9785 29.9796C48.1813 29.4787 47.3704 28.967 46.5781 28.4171L46.5761 28.4161C45.3241 27.5438 44.1194 26.5889 42.9687 25.5577C42.3196 24.9823 41.2941 23.8701 40.3515 22.9191C39.8641 22.4272 39.3866 21.9649 38.956 21.5948C38.5093 21.211 38.1716 20.9777 37.958 20.8878Z" fill="white"/>
<defs>
<pattern id="pattern0_2021_466" patternUnits="userSpaceOnUse" patternTransform="matrix(12 0 0 12 0 0)" preserveAspectRatio="none" viewBox="0 0 12 12" width="1" height="1">
<g id="pattern0_2021_466_inner">
<rect y="2" width="3" height="1" fill="#D9D9D9"/>
<rect y="8" width="3" height="1" fill="#D9D9D9"/>
<rect x="6" y="2" width="3" height="1" fill="#D9D9D9"/>
<rect x="6" y="8" width="3" height="1" fill="#D9D9D9"/>
<rect x="5" y="3" width="3" height="1" transform="rotate(180 5 3)" fill="#D9D9D9"/>
<rect x="5" y="9" width="3" height="1" transform="rotate(180 5 9)" fill="#D9D9D9"/>
<rect x="11" y="3" width="3" height="1" transform="rotate(180 11 3)" fill="#D9D9D9"/>
<rect x="11" y="9" width="3" height="1" transform="rotate(180 11 9)" fill="#D9D9D9"/>
<rect x="2" width="1" height="2" fill="#D9D9D9"/>
<rect x="2" y="6" width="1" height="2" fill="#D9D9D9"/>
<rect x="8" width="1" height="2" fill="#D9D9D9"/>
<rect x="8" y="6" width="1" height="2" fill="#D9D9D9"/>
<rect x="3" y="5" width="1" height="2" transform="rotate(180 3 5)" fill="#D9D9D9"/>
<rect x="3" y="11" width="1" height="2" transform="rotate(180 3 11)" fill="#D9D9D9"/>
<rect x="9" y="5" width="1" height="2" transform="rotate(180 9 5)" fill="#D9D9D9"/>
<rect x="9" y="11" width="1" height="2" transform="rotate(180 9 11)" fill="#D9D9D9"/>
</g>
</pattern></defs>
</svg>
