<svg width="60" height="60" viewBox="0 0 60 60" fill="none" xmlns="http://www.w3.org/2000/svg" xmlns:xlink="http://www.w3.org/1999/xlink">
<rect width="60" height="60" fill="url(#pattern0_248_7862)" fill-opacity="0.1"/>
<path d="M28.159 25.12L35.9928 19.1578L40.8088 14.9818C42.6632 13.1405 44.7329 11.4279 46.5873 9.56544C47.8138 8.29695 49.0799 7.04536 50.2852 5.79798C50.9933 5.2788 52.8272 2.36954 53.6566 2.52717C54.5035 2.76722 54.1592 3.45726 53.8926 4.8826C53.626 6.30795 52.0876 16.255 51.8873 16.5294C51.5478 16.9637 46.7205 21.3833 46.3707 21.4668C46.0209 21.5504 45.1969 20.7357 44.1244 20.7786C43.0519 20.8215 42.2703 21.8544 42.1552 23.4703C41.8854 24.997 41.5655 26.047 40.7818 26.6569C40.5816 26.8226 39.9414 26.8417 39.9414 26.8417L37.0334 26.9461C35.7867 26.9118 35.3073 27.3556 34.5966 28.1383C33.8117 29.0264 33.6047 30.1082 33.6889 31.078C33.7731 32.0478 34.007 32.4918 34.1849 32.9682C34.3667 33.4549 34.4458 33.9621 34.3912 34.3989C34.3377 34.8275 33.825 35.5694 33.2399 36.2983C32.8912 36.7326 32.8267 36.9166 32.6479 37.4009C32.4201 38.018 32.9227 39.2191 32.8282 40.0405C32.6324 41.7425 31.8712 42.3805 30.7182 44.4258C29.8755 45.9207 29.4718 47.1581 29.3589 47.9602C29.3099 48.3083 29.1803 49.9444 30.2818 51.1503C30.7931 51.71 31.1618 52.1665 32.6892 53.4914C33.7258 54.3904 35.1377 55.4268 34.9356 56.0273C34.6874 56.7648 33.91 56.5061 32.4708 56.3266C31.3425 56.1859 19.8603 54.2948 12.1899 53.0474C8.16394 52.3927 6.41906 52.2848 6.20538 51.7401C5.99169 51.1953 8.62209 48.3213 10.1152 46.2331C11.1068 44.8464 11.8496 43.5662 12.2617 43.4563C13.0659 43.242 13.9536 43.7803 15.5926 44.3576C16.1727 44.5715 17.3248 45.0339 18.7781 45.6526C19.873 46.1188 20.155 46.3804 21.2679 46.3395C22.4854 46.3632 23.6348 45.9085 24.029 45.564C24.3992 45.2405 24.9316 44.6286 25.1712 44.2785C25.4155 43.9216 26.2422 43.189 26.2529 42.1701C26.2636 41.154 25.9922 39.7184 25.521 39.248C25.1302 38.8577 19.277 35.446 19.1127 35.0702C18.9006 34.5848 19.9175 34.2908 20.4343 34.0532C20.8294 33.8715 21.5332 33.9805 21.9914 34.1262C22.4267 34.2646 23.0968 34.4649 23.3394 34.5935C23.7031 34.7864 24.3877 35.403 24.6661 35.7062C24.8251 35.8794 25.0108 35.9476 25.3418 35.9419C25.839 35.9334 26.3317 35.6418 26.9826 35.316C27.5896 34.9536 28.3259 34.6937 27.9927 33.9645C28.0312 33.7088 26.7474 32.9604 25.3766 32.2813C24.0485 31.6235 23.8531 31.6789 22.9916 31.334C22.6115 31.1819 21.1156 30.8209 21.0352 30.4732C20.9548 30.1254 24.9605 27.5207 28.159 25.12Z" stroke="white" stroke-width="1.5" stroke-linejoin="round"/>
<defs>
<pattern id="pattern0_248_7862" patternUnits="userSpaceOnUse" patternTransform="matrix(12 0 0 12 0 0)" preserveAspectRatio="none" viewBox="0 0 12 12" width="1" height="1">
<g id="pattern0_248_7862_inner">
<rect y="2" width="3" height="1" fill="#D9D9D9"/>
<rect y="8" width="3" height="1" fill="#D9D9D9"/>
<rect x="6" y="2" width="3" height="1" fill="#D9D9D9"/>
<rect x="6" y="8" width="3" height="1" fill="#D9D9D9"/>
<rect x="5" y="3" width="3" height="1" transform="rotate(180 5 3)" fill="#D9D9D9"/>
<rect x="5" y="9" width="3" height="1" transform="rotate(180 5 9)" fill="#D9D9D9"/>
<rect x="11" y="3" width="3" height="1" transform="rotate(180 11 3)" fill="#D9D9D9"/>
<rect x="11" y="9" width="3" height="1" transform="rotate(180 11 9)" fill="#D9D9D9"/>
<rect x="2" width="1" height="2" fill="#D9D9D9"/>
<rect x="2" y="6" width="1" height="2" fill="#D9D9D9"/>
<rect x="8" width="1" height="2" fill="#D9D9D9"/>
<rect x="8" y="6" width="1" height="2" fill="#D9D9D9"/>
<rect x="3" y="5" width="1" height="2" transform="rotate(180 3 5)" fill="#D9D9D9"/>
<rect x="3" y="11" width="1" height="2" transform="rotate(180 3 11)" fill="#D9D9D9"/>
<rect x="9" y="5" width="1" height="2" transform="rotate(180 9 5)" fill="#D9D9D9"/>
<rect x="9" y="11" width="1" height="2" transform="rotate(180 9 11)" fill="#D9D9D9"/>
</g>
</pattern></defs>
</svg>
