<svg width="60" height="60" viewBox="0 0 60 60" fill="none" xmlns="http://www.w3.org/2000/svg" xmlns:xlink="http://www.w3.org/1999/xlink">
<rect width="60" height="60" fill="url(#pattern0_217_6)" fill-opacity="0.1"/>
<path d="M20.8585 37.5524C21.0643 37.5596 21.2853 37.5674 21.4845 37.5744L21.9397 37.5902L22.077 37.5951C22.0861 37.5954 22.0941 37.5956 22.1008 37.5958M22.077 37.5951L22.1008 37.5958M14.6885 32.5889C14.8252 32.6054 14.9673 32.6225 15.1035 32.6389C15.4034 32.6749 15.6906 32.7093 15.9148 32.7355C16.8265 32.8465 16.9703 32.8589 17.3882 32.8105C18.1734 32.7255 18.8499 32.4777 19.5321 32.0314C19.9387 31.77 20.4843 31.2666 20.7646 30.9006L20.8781 30.7525C20.9159 30.7007 20.9554 30.6434 20.9986 30.5698C21.0817 30.4281 21.1802 30.2281 21.3373 29.8815C21.6368 29.2208 22.1657 27.986 23.228 25.506L23.3973 25.1108C23.3973 25.1108 23.8648 23.8984 24.2673 23.1732C24.3901 22.9521 24.5962 22.6153 24.5962 22.6153C24.8872 22.3197 25.184 22.2484 25.41 22.1941C25.459 22.1823 25.5046 22.1713 25.5462 22.159C26.253 21.9526 27.0385 22.1154 27.6101 22.5817C27.629 22.5969 27.6477 22.6112 27.6668 22.6258C27.7273 22.6721 27.7913 22.7211 27.8748 22.8098C27.9792 22.9209 28.1106 23.0949 28.253 23.3747C28.2654 23.4173 28.2794 23.4944 28.2905 23.6067C28.2941 23.6432 28.2978 23.6858 28.3017 23.7299C28.3087 23.8102 28.3161 23.8957 28.3241 23.9583C28.3588 24.2086 28.3581 24.3896 28.2767 24.6861C28.1898 25.0027 28.0131 25.4411 27.6852 26.203C27.5277 26.5676 27.371 26.9328 27.2464 27.223C27.1309 27.4921 27.043 27.697 27.0087 27.7751C26.4838 28.996 25.8556 30.451 25.4978 31.2739C25.2096 31.9332 25.0482 32.3103 24.9606 32.5686C24.8658 32.8479 24.8519 33.0048 24.8519 33.2174C24.8519 33.6958 24.9843 34.1027 25.2657 34.5022L25.3625 34.6286C25.6037 34.9182 25.9476 35.1758 26.2602 35.2665C26.3035 35.2793 26.3523 35.2854 26.3767 35.2882C26.4154 35.2927 26.4638 35.2969 26.5189 35.3011C26.63 35.3095 26.7791 35.318 26.9544 35.3268C27.3055 35.3443 27.7707 35.3622 28.2727 35.3781L35.5321 35.621C37.7052 35.6961 39.7029 35.7099 40.3256 35.6398C40.5744 35.6153 41.1679 35.5395 41.6488 35.4719L43.381 35.2369L44.8978 35.0275C45.2714 34.9751 45.5276 34.9375 45.7076 34.908C45.8862 34.8788 46.0044 34.8547 46.0917 34.829C46.1414 34.8145 46.1808 34.7998 46.2142 34.7846L46.3041 34.7372L46.4048 34.6691C46.5035 34.5931 46.596 34.4962 46.6714 34.4014C46.7481 34.3051 46.8223 34.1928 46.8768 34.0795L46.9252 33.963C46.9863 33.7825 46.997 33.6183 46.9509 33.3714C46.9085 33.1447 46.8133 32.8262 46.6556 32.3296L46.6517 32.3175C46.4826 31.7892 46.3792 31.4662 46.2636 31.2621C46.1978 31.146 46.1224 31.0564 46.0246 30.9816C45.9351 30.9132 45.834 30.8632 45.7412 30.8187C45.5234 30.716 44.3185 30.1971 43.9291 30.0405L42.425 29.3976C40.6279 28.6263 40.4527 28.5564 40.1122 28.5138C39.4222 28.4232 38.7228 28.6391 38.232 29.0974C38.0956 29.2245 37.9919 29.3438 37.8893 29.5339C37.8415 29.6224 37.794 29.7258 37.7422 29.8509L37.5694 30.2992C37.3516 30.8852 37.091 31.5553 36.8731 32.0965C36.7643 32.3669 36.6668 32.604 36.5907 32.7819C36.5526 32.871 36.5199 32.9441 36.4949 32.9982C36.4741 33.0432 36.4605 33.0685 36.4564 33.0762C36.2389 33.3976 35.7654 33.743 35.3346 33.8751C35.2675 33.8965 35.0697 33.9301 34.9178 33.9413C34.6684 33.9642 34.6423 33.9655 32.9912 33.6628C32.7077 33.6109 32.1065 33.5033 31.657 33.4238C30.7776 33.2686 30.2107 33.1646 29.8419 33.089C29.4599 33.0107 29.3217 32.9675 29.2731 32.9438C29.254 32.9347 29.1983 32.8998 29.1191 32.8382C29.0447 32.7804 28.966 32.7118 28.9028 32.6486C28.5267 32.2724 28.3446 31.7932 28.3745 31.2729L28.3833 31.0823C28.3854 31.0427 28.3889 31.0174 28.3991 30.9806C28.4171 30.9161 28.4639 30.8128 28.6223 30.5777C28.7807 30.3427 29.0305 30.0048 29.4282 29.4816L31.1218 27.2705C31.3182 27.0121 31.5601 26.6958 31.7736 26.4166C31.9466 26.1903 32.1014 25.988 32.1992 25.8593C32.3701 25.6354 32.5844 25.3811 32.7423 25.2125L32.8835 25.0713C33.0339 24.9282 33.403 24.6218 33.7812 24.4145C34.0621 24.2606 34.3407 24.1528 34.5376 24.0896C35.2225 23.8702 36.1003 23.802 36.8465 23.9139C37.0446 23.9457 37.5706 24.0862 38.1362 24.2654C38.6071 24.4153 39.1098 24.5751 39.3262 24.6437L39.3894 24.6634C39.5523 24.7151 40.2236 24.9297 40.8796 25.1404L40.9026 25.1478C42.0821 25.5308 42.5094 25.6695 42.9373 25.8068C43.1804 25.8847 43.4238 25.9623 43.8053 26.0838C44.8566 26.4187 46.9576 27.088 52.9975 29.0233C53.5178 29.1913 54.1038 29.3325 54.8284 29.4806C55.3883 29.5925 55.6831 29.668 55.8999 29.765C56.1048 29.8567 56.2532 29.9735 56.5072 30.2094C56.8957 30.5702 57 31.0296 57 31.1969C56.9998 31.8293 56.5255 32.4493 55.9345 32.6091L55.7478 32.6387C55.6483 32.6518 55.5116 32.6679 55.338 32.6861C55.1709 32.7036 54.9759 32.7227 54.7573 32.7424L54.0364 32.8036C53.3973 32.8562 53.1374 32.9045 52.7704 33.0742C52.4274 33.2356 52.1623 33.4403 51.9656 33.7536C51.8231 33.9806 51.725 34.2519 51.6486 34.5782L51.5785 34.9229C51.4791 35.4833 51.4067 35.8607 51.3464 36.1237C51.2863 36.3857 51.2415 36.5156 51.2042 36.5928L51.1252 36.7389C50.7373 37.4048 50.117 37.8365 49.3861 37.9585L49.2281 37.9802C49.2249 37.9804 49.2076 37.9811 49.1699 37.9822C49.1314 37.9834 49.0801 37.985 49.0208 37.9862C48.9019 37.9886 48.7518 37.991 48.604 37.9931C48.488 37.9947 48.3736 37.9961 48.2776 37.9972L48.2031 37.998C48.1719 37.9984 48.1437 37.9986 48.1195 37.9987L48.0737 37.999C48.0647 37.9991 48.0567 37.9994 48.05 37.9996L48.0372 38L22.1264 37.5961H22.1135L22.1008 37.5958M20.8585 37.5524L21.4845 37.5744M10.0864 32.0393C9.82084 32.0078 9.41728 31.9582 9.00483 31.9075C8.68848 31.8686 8.36651 31.829 8.09651 31.7963C5.6391 31.4992 5.55975 31.502 5.09936 31.5969C4.95521 31.6264 4.68765 31.7204 4.48314 31.8171C4.33406 31.8888 4.24709 31.9382 4.16614 31.9978C4.12435 32.0286 4.08189 32.0639 4.03184 32.1094L3.85211 32.2822C3.10892 33.0333 2.83253 34.0602 3.09961 35.0858L3.14207 35.228C3.37382 35.9322 3.92043 36.5137 4.63324 36.7982C5.03246 36.9571 5.35086 37.0124 6.37623 37.0599C6.72396 37.0731 7.19609 37.0947 7.60719 37.1136C7.81761 37.1233 8.01205 37.1322 8.16564 37.1389C10.7794 37.266 12.0952 37.3107 17.8266 37.4578C18.6829 37.4778 19.8464 37.5129 20.4179 37.5368L20.8585 37.5524M7.60719 37.1136C7.5558 37.1112 7.50346 37.1088 7.45053 37.1064C7.08 37.0894 6.6805 37.0714 6.37623 37.0599M9.00483 31.9075C9.15895 31.9264 9.31362 31.9454 9.45835 31.9631C9.70057 31.9928 9.92032 32.0196 10.0864 32.0393M15.9148 32.7355C15.5888 32.6974 15.1263 32.6417 14.6885 32.5889C14.3946 32.5535 14.1131 32.5196 13.8854 32.4925C13.3163 32.4249 12.4209 32.3172 11.8955 32.2536C11.5447 32.211 11.0633 32.1544 10.6429 32.1049C10.435 32.0804 10.2419 32.0577 10.0864 32.0393M43.8053 26.0838C43.9611 26.1334 44.1398 26.1904 44.3511 26.2577M22.1264 37.5961L22.1254 37.5971" stroke="white" stroke-width="1.5"/>
<defs>
<pattern id="pattern0_217_6" patternUnits="userSpaceOnUse" patternTransform="matrix(12 0 0 12 0 0)" preserveAspectRatio="none" viewBox="0 0 12 12" width="1" height="1">
<g id="pattern0_217_6_inner">
<rect y="2" width="3" height="1" fill="#D9D9D9"/>
<rect y="8" width="3" height="1" fill="#D9D9D9"/>
<rect x="6" y="2" width="3" height="1" fill="#D9D9D9"/>
<rect x="6" y="8" width="3" height="1" fill="#D9D9D9"/>
<rect x="5" y="3" width="3" height="1" transform="rotate(180 5 3)" fill="#D9D9D9"/>
<rect x="5" y="9" width="3" height="1" transform="rotate(180 5 9)" fill="#D9D9D9"/>
<rect x="11" y="3" width="3" height="1" transform="rotate(180 11 3)" fill="#D9D9D9"/>
<rect x="11" y="9" width="3" height="1" transform="rotate(180 11 9)" fill="#D9D9D9"/>
<rect x="2" width="1" height="2" fill="#D9D9D9"/>
<rect x="2" y="6" width="1" height="2" fill="#D9D9D9"/>
<rect x="8" width="1" height="2" fill="#D9D9D9"/>
<rect x="8" y="6" width="1" height="2" fill="#D9D9D9"/>
<rect x="3" y="5" width="1" height="2" transform="rotate(180 3 5)" fill="#D9D9D9"/>
<rect x="3" y="11" width="1" height="2" transform="rotate(180 3 11)" fill="#D9D9D9"/>
<rect x="9" y="5" width="1" height="2" transform="rotate(180 9 5)" fill="#D9D9D9"/>
<rect x="9" y="11" width="1" height="2" transform="rotate(180 9 11)" fill="#D9D9D9"/>
</g>
</pattern></defs>
</svg>
