<svg width="60" height="60" viewBox="0 0 60 60" fill="none" xmlns="http://www.w3.org/2000/svg" xmlns:xlink="http://www.w3.org/1999/xlink">
<rect width="60" height="60" fill="url(#pattern0_250_14)" fill-opacity="0.1"/>
<path d="M30.3892 32.999C38.685 29.2557 46.9724 25.4944 55.2492 21.7107C55.4926 21.5994 55.7327 21.4744 55.9472 21.3155C56.1433 21.1702 56.3167 20.994 56.4707 20.8058C56.5923 20.6572 56.6903 20.4884 56.7673 20.3133C56.8485 20.1287 56.9046 19.9326 56.9418 19.7348C56.9826 19.5181 57 19.2966 57 19.0762C57 18.8919 56.9972 18.7024 56.9418 18.5264C56.8597 18.2653 56.7446 18.0107 56.5928 17.7818C56.4313 17.5382 56.2439 17.3024 56.0112 17.1232C55.7817 16.9465 55.5096 16.8201 55.2318 16.7338C54.9554 16.6479 54.6606 16.6053 54.3709 16.6135C54.1109 16.6208 53.8475 16.6775 53.6089 16.7796C53.3219 16.9024 53.0496 17.0706 52.8179 17.2778C50.9171 18.9773 49.0962 20.7614 47.2224 22.4896C47.0756 22.6249 46.9181 22.749 46.757 22.8676C46.5029 23.0547 46.245 23.2376 45.9776 23.4059C45.5505 23.675 45.1239 23.9474 44.6747 24.1791C44.0716 24.4903 43.4496 24.7654 42.825 25.0325C42.6361 25.1133 42.4357 25.1659 42.2376 25.2215C42.0069 25.2862 41.7767 25.3578 41.5396 25.3933C41.3285 25.4249 41.1132 25.4161 40.8998 25.4219C40.072 25.4447 39.2431 25.4365 38.4161 25.4792C38.206 25.49 37.9905 25.509 37.7937 25.5823C35.2798 26.5185 32.8073 27.5598 30.2962 28.5032C30.0961 28.5783 29.8817 28.6218 29.668 28.6349C29.4102 28.6507 29.1453 28.6496 28.8944 28.5891C28.6466 28.5293 28.4068 28.4219 28.1964 28.2798C27.9986 28.1462 27.8256 27.9709 27.6904 27.7758C27.5422 27.562 27.419 27.3233 27.3588 27.0714C27.2002 26.4075 27.1316 25.7255 27.0389 25.0497C26.9726 24.5664 26.973 24.0742 26.8819 23.5949C26.4589 21.3711 26.0141 19.1503 25.4975 16.9457C25.4555 16.7664 25.3409 16.6039 25.2125 16.4703C25.0616 16.3133 24.8788 16.1783 24.6774 16.0923C24.5025 16.0176 24.3037 15.9957 24.1132 16.0007C23.9303 16.0054 23.7452 16.0476 23.578 16.1209C23.4339 16.1842 23.3007 16.282 23.2 16.4016C23.0786 16.5456 22.9777 16.7139 22.9266 16.8941C22.8648 17.1119 22.8582 17.3441 22.8684 17.5699C22.9901 20.2613 23.2116 22.9478 23.3221 25.6396C23.3301 25.833 23.2804 26.027 23.2232 26.2123C23.1459 26.4629 23.0527 26.7121 22.9208 26.9396C22.7695 27.2006 22.5896 27.4487 22.3798 27.667C22.2441 27.8082 22.0743 27.9192 21.8971 28.0049C20.4954 28.6822 19.0804 29.3336 17.651 29.9521C17.5062 30.0148 17.3434 30.0323 17.1856 30.0438C16.9749 30.0592 16.7618 30.0543 16.5516 30.0323C14.952 29.8652 13.3591 29.6377 11.7588 29.4768C11.4211 29.4428 11.0802 29.4387 10.7409 29.4481C10.5301 29.454 10.3218 29.4951 10.1127 29.5226C8.67954 29.7109 7.23734 29.8435 5.81427 30.0953C5.52509 30.1465 5.21643 30.2319 4.99995 30.4275C4.3749 30.9923 3.86817 31.6735 3.34223 32.3289C3.24492 32.4502 3.19175 32.6016 3.13865 32.747C3.08457 32.8952 3.03831 33.0486 3.02232 33.2052C2.99925 33.4312 2.98654 33.6623 3.02232 33.8867C3.16545 34.7844 3.40287 35.6655 3.55745 36.5613C3.60667 36.8466 3.63473 37.1368 3.63306 37.4261C3.63084 37.8109 3.60201 38.1965 3.54581 38.5773C3.45444 39.1965 3.26334 39.7999 3.191 40.4215C3.1561 40.7214 3.15317 41.0331 3.2259 41.3264C3.29957 41.6234 3.44758 41.9035 3.62143 42.1568C3.98388 42.685 4.36768 43.2066 4.82546 43.6573C4.99406 43.8234 5.23409 43.9149 5.46528 43.9723C5.63097 44.0135 5.82113 44.0124 5.97713 43.9437C14.1395 40.35 22.2609 36.6668 30.3892 32.999Z" stroke="white" stroke-width="1.5" stroke-linejoin="round"/>
<defs>
<pattern id="pattern0_250_14" patternUnits="userSpaceOnUse" patternTransform="matrix(12 0 0 12 0 0)" preserveAspectRatio="none" viewBox="0 0 12 12" width="1" height="1">
<g id="pattern0_250_14_inner">
<rect y="2" width="3" height="1" fill="#D9D9D9"/>
<rect y="8" width="3" height="1" fill="#D9D9D9"/>
<rect x="6" y="2" width="3" height="1" fill="#D9D9D9"/>
<rect x="6" y="8" width="3" height="1" fill="#D9D9D9"/>
<rect x="5" y="3" width="3" height="1" transform="rotate(180 5 3)" fill="#D9D9D9"/>
<rect x="5" y="9" width="3" height="1" transform="rotate(180 5 9)" fill="#D9D9D9"/>
<rect x="11" y="3" width="3" height="1" transform="rotate(180 11 3)" fill="#D9D9D9"/>
<rect x="11" y="9" width="3" height="1" transform="rotate(180 11 9)" fill="#D9D9D9"/>
<rect x="2" width="1" height="2" fill="#D9D9D9"/>
<rect x="2" y="6" width="1" height="2" fill="#D9D9D9"/>
<rect x="8" width="1" height="2" fill="#D9D9D9"/>
<rect x="8" y="6" width="1" height="2" fill="#D9D9D9"/>
<rect x="3" y="5" width="1" height="2" transform="rotate(180 3 5)" fill="#D9D9D9"/>
<rect x="3" y="11" width="1" height="2" transform="rotate(180 3 11)" fill="#D9D9D9"/>
<rect x="9" y="5" width="1" height="2" transform="rotate(180 9 5)" fill="#D9D9D9"/>
<rect x="9" y="11" width="1" height="2" transform="rotate(180 9 11)" fill="#D9D9D9"/>
</g>
</pattern></defs>
</svg>
