<svg width="60" height="60" viewBox="0 0 60 60" fill="none" xmlns="http://www.w3.org/2000/svg" xmlns:xlink="http://www.w3.org/1999/xlink">
<rect width="60" height="60" fill="url(#pattern0_250_13)" fill-opacity="0.1"/>
<path d="M5.02833 31.2996V31.2996ZM38.579 32.2369C38.6465 32.4901 38.7209 32.7687 38.7879 32.9675C38.9227 33.3772 39.129 34.0773 39.3467 34.8162C39.6332 35.7887 39.9396 36.8286 40.1292 37.363L40.1795 37.3902C40.2007 37.4016 40.2215 37.4128 40.2255 37.4149C40.2262 37.4238 40.2273 37.4359 40.2286 37.4502C40.2365 37.5385 40.2522 37.7129 40.2316 37.7475C40.1785 37.8373 39.9487 37.924 39.8527 37.9517C39.1106 38.165 38.3618 38.3663 37.6159 38.5669C37.5279 38.5905 37.44 38.6142 37.3522 38.6378L33.4844 39.7002L26.7955 41.5382C26.3855 41.6505 25.9755 41.7641 25.5654 41.8777C24.852 42.0753 24.1377 42.2731 23.423 42.4642C23.3314 42.4886 23.2222 42.5075 23.1257 42.497C23.0298 42.4841 22.9832 42.4065 22.9364 42.3286C22.9042 42.2749 22.8719 42.2211 22.8233 42.1881C22.4751 41.9521 22.1197 41.7269 21.7643 41.5018C21.4775 41.3202 21.1904 41.1383 20.9075 40.9509C20.8895 40.9391 20.8716 40.9271 20.8536 40.9152C20.719 40.8256 20.5842 40.7359 20.4391 40.6635L20.4094 40.6489C20.0067 40.7928 19.4756 40.9435 18.9906 41.0811C18.7994 41.1354 18.6155 41.1875 18.4494 41.2365L15.8204 42.034C15.725 42.0624 15.4287 42.1406 15.3452 42.0969C15.2711 41.9479 15.1682 41.5671 15.0923 41.286C15.0686 41.1984 15.0476 41.1205 15.0308 41.0623C14.8027 40.2827 14.5787 39.502 14.3588 38.7201L13.5137 35.7889C13.4772 35.6615 13.4348 35.5214 13.391 35.3767C13.2935 35.0546 13.1891 34.7095 13.1268 34.4303C13.0965 34.3369 13.0387 34.1337 12.9703 33.8935C12.82 33.3657 12.6189 32.6592 12.5479 32.5463C12.3766 32.5165 11.2271 32.86 10.635 33.037C10.5036 33.0762 10.3995 33.1073 10.3398 33.1243L5.61018 34.4802C5.53193 34.5023 5.42461 34.5346 5.30101 34.5717C4.84672 34.7083 4.17267 34.9109 3.91529 34.9182C3.83667 34.8738 3.75447 34.585 3.70397 34.4076C3.69093 34.3618 3.68 34.3234 3.67179 34.2986C3.53038 33.8845 3.39687 33.4678 3.27134 33.0487C3.25298 32.9891 3.22617 32.9155 3.19646 32.8338C3.08651 32.5317 2.93678 32.1203 3.02845 31.9078C3.1742 31.7814 4.3773 31.4688 5.02833 31.2996M55.1895 17.804C55.1857 17.6897 55.182 17.5752 55.1623 17.518C55.0759 17.4915 55.0115 17.4994 54.9289 17.5095C54.9168 17.511 54.9043 17.5125 54.8913 17.514C54.3875 17.6343 53.8784 17.7792 53.3732 17.923C53.1596 17.9838 52.9467 18.0444 52.7352 18.1028L48.6908 19.2207L36.265 22.6578L25.8797 25.5318L22.638 26.4249L5.36959 31.2099C5.29775 31.2296 5.17758 31.2608 5.02833 31.2996M54.9289 17.5095C54.9228 17.5103 54.9167 17.511 54.9104 17.5118M55.1901 17.8215C55.1899 17.8157 55.1897 17.8098 55.1895 17.804M55.1895 17.804C55.1926 17.8974 55.1956 17.9908 55.2074 18.0523C55.2844 18.4524 55.3686 18.8532 55.4559 19.2508L57 26.6325C56.8162 26.7602 50.8862 28.4236 50.8862 28.4236C50.8862 28.4236 49.2969 28.8741 48.5163 29.0793C47.813 29.2737 40.1606 31.4406 39.4598 31.6441C39.3639 31.6719 39.262 31.6998 39.1583 31.7282C38.9307 31.7906 38.6944 31.8554 38.4948 31.9257C38.5207 32.0182 38.549 32.1244 38.5787 32.2358M38.5787 32.2358L38.579 32.2369C38.5697 32.202 38.5605 32.1676 38.5515 32.1339C38.5604 32.1672 38.5695 32.2012 38.5787 32.2358ZM39.3467 34.8162C39.3331 34.77 39.3195 34.724 39.306 34.6781C39.3194 34.7236 39.3329 34.7694 39.3464 34.8152L39.3467 34.8162Z" stroke="white" stroke-width="1.5"/>
<defs>
<pattern id="pattern0_250_13" patternUnits="userSpaceOnUse" patternTransform="matrix(12 0 0 12 0 0)" preserveAspectRatio="none" viewBox="0 0 12 12" width="1" height="1">
<g id="pattern0_250_13_inner">
<rect y="2" width="3" height="1" fill="#D9D9D9"/>
<rect y="8" width="3" height="1" fill="#D9D9D9"/>
<rect x="6" y="2" width="3" height="1" fill="#D9D9D9"/>
<rect x="6" y="8" width="3" height="1" fill="#D9D9D9"/>
<rect x="5" y="3" width="3" height="1" transform="rotate(180 5 3)" fill="#D9D9D9"/>
<rect x="5" y="9" width="3" height="1" transform="rotate(180 5 9)" fill="#D9D9D9"/>
<rect x="11" y="3" width="3" height="1" transform="rotate(180 11 3)" fill="#D9D9D9"/>
<rect x="11" y="9" width="3" height="1" transform="rotate(180 11 9)" fill="#D9D9D9"/>
<rect x="2" width="1" height="2" fill="#D9D9D9"/>
<rect x="2" y="6" width="1" height="2" fill="#D9D9D9"/>
<rect x="8" width="1" height="2" fill="#D9D9D9"/>
<rect x="8" y="6" width="1" height="2" fill="#D9D9D9"/>
<rect x="3" y="5" width="1" height="2" transform="rotate(180 3 5)" fill="#D9D9D9"/>
<rect x="3" y="11" width="1" height="2" transform="rotate(180 3 11)" fill="#D9D9D9"/>
<rect x="9" y="5" width="1" height="2" transform="rotate(180 9 5)" fill="#D9D9D9"/>
<rect x="9" y="11" width="1" height="2" transform="rotate(180 9 11)" fill="#D9D9D9"/>
</g>
</pattern></defs>
</svg>
