<svg width="60" height="60" viewBox="0 0 60 60" fill="none" xmlns="http://www.w3.org/2000/svg" xmlns:xlink="http://www.w3.org/1999/xlink">
<rect width="60" height="60" fill="url(#pattern0_2021_439)" fill-opacity="0.1"/>
<path fill-rule="evenodd" clip-rule="evenodd" d="M18.3246 43.0101C17.8375 43.3296 16.057 44.3663 15.542 44.6748L12.1478 46.712L9.52153 48.2924C8.01302 49.199 5.28247 50.9605 3.51782 49.7076C1.94011 48.5876 2.07521 46.3339 2.05552 44.6258C2.04217 43.4678 1.9012 42.198 2.12788 41.0428C2.86622 37.6716 5.46837 34.7379 8.27609 32.8629C9.93508 31.8053 11.2092 31.6684 12.6904 30.0878C13.977 28.811 14.4096 27.1564 15.1688 25.5589C15.8458 24.1345 16.8754 22.1547 18.3912 21.462C18.7479 21.299 19.5817 21.311 19.9969 21.3116C21.8015 21.314 23.6142 21.445 25.4185 21.4952C26.3585 21.5228 26.9906 21.6111 27.9389 21.4565C28.6278 21.3497 29.2962 21.1375 29.9202 20.8273C30.4622 20.5538 31.3549 19.9337 31.871 19.5568C33.3172 18.5005 35.2549 17.1136 36.4684 15.8183C36.8481 15.416 37.172 14.9645 37.4313 14.4759C37.698 13.9782 37.7988 13.597 37.9839 13.0721C38.4216 11.8298 38.6712 10.6511 39.4494 9.56011C40.378 8.25777 41.749 7.74002 43.3085 8.12356C44.2253 8.3737 45.2 8.74286 46.1221 9.0504C48.0713 9.71023 50.0273 10.3493 51.9903 10.9674C52.4093 11.0976 52.8065 11.2164 53.2324 11.3286C54.0836 11.553 54.9913 11.5809 55.7168 12.117C56.5037 12.6984 56.7961 13.802 56.9396 14.7266C57.2051 16.4339 56.5705 18.2988 55.523 19.6489C54.6562 20.7662 53.3938 21.5472 52.2461 22.3923L37.8796 32.9857C37.181 33.5007 34.5828 35.3455 34.1831 35.8949L34.1566 35.9317C34.8605 36.8324 34.7154 37.7362 33.9326 38.5408C33.1837 39.3104 32.3684 40.0161 31.5733 40.7374L28.2311 43.7529C27.2437 44.642 26.2319 45.544 25.3023 46.4949C24.1044 47.7206 22.9787 49.0418 21.8193 50.305C21.3019 50.8594 20.8207 51.4552 20.2737 51.9806C19.7668 52.4676 18.9968 52.6645 18.3357 52.3983C17.9267 52.2377 17.6006 51.9182 17.4322 51.5123C16.9308 50.2875 17.9892 49.2536 18.7125 48.4154L19.9469 46.9853C22.2035 44.3719 24.3512 41.7644 26.9526 39.4851C27.4587 39.0418 28.0956 38.5155 28.3572 37.8931C28.1542 37.5147 27.9293 37.3886 27.5163 37.5543C26.6712 37.8934 25.7909 38.5149 25.0154 38.9838L21.1808 41.2843C20.7328 41.5526 20.2847 41.8212 19.8371 42.0901C19.3313 42.3943 18.8249 42.6972 18.3246 43.0101ZM19.2035 40.7442C18.8425 40.9611 16.3395 42.4426 16.3395 42.4426C16.3395 42.4426 10.3101 46.0912 7.28348 47.8944C6.64068 48.2775 5.10565 48.9523 4.40615 48.5264C4.02573 48.2949 3.73118 47.6086 3.6538 47.1856C3.49074 46.2949 3.56484 45.3268 3.52203 44.4202C3.49773 43.5701 3.4083 42.0885 3.58678 41.2868C4.22849 38.4041 6.70867 35.6572 9.12329 34.0811C9.78128 33.6517 10.7802 33.2399 11.4784 32.864C12.3063 32.4183 13.1179 31.8055 13.7575 31.1281C14.3335 30.5128 14.8275 29.8256 15.2275 29.0837C15.4587 28.6497 15.6399 28.1861 15.8349 27.7349C16.3234 26.6052 16.7895 25.4835 17.4555 24.4424C17.7768 23.94 18.3543 23.0854 18.8989 22.8556C19.5733 22.571 25.8984 23.0526 27.3877 22.9936C27.8208 22.9765 28.2665 22.9031 28.6893 22.8087C29.3985 22.6518 30.0847 22.4043 30.7306 22.0724C31.2598 21.7974 32.1506 21.1867 32.6604 20.8142C34.2181 19.6764 36.3542 18.1508 37.6462 16.7338C38.0828 16.2487 38.4569 15.7109 38.7599 15.133C39.5125 13.7134 39.6925 11.9918 40.5281 10.6113C41.0991 9.66808 41.974 9.23746 43.0539 9.57015C44.121 9.89885 45.1766 10.2781 46.2372 10.6392C48.0301 11.2394 49.8289 11.8225 51.633 12.3884C52.0702 12.522 52.493 12.6418 52.9327 12.7664L53.0337 12.795C53.5766 12.9487 54.3283 12.9715 54.7823 13.2621C55.2053 13.533 55.3615 14.3263 55.4566 14.8094L55.4631 14.8424C55.7218 16.1516 55.1464 17.7539 54.3283 18.7733C53.6081 19.6705 52.4184 20.4264 51.4655 21.1278L37.0157 31.7795C36.0942 32.4581 33.5722 34.1787 33.0105 34.9812C32.691 35.4379 32.545 36.0568 32.8096 36.5744C32.9072 36.7656 33.0592 36.9594 33.097 37.1731C33.0667 37.4195 31.2401 39.0374 30.9452 39.3017L27.3023 42.5896C26.1938 43.5904 25.0549 44.5893 24.0249 45.6716C22.4263 47.3509 20.9276 49.1338 19.3303 50.8141C19.2378 50.9115 19.0534 51.0684 18.9194 51.0622C18.4593 50.7804 19.5378 49.7347 19.7423 49.4982L21.0396 47.997C22.677 46.0999 24.2698 44.17 26.0388 42.3974C26.5258 41.9091 27.0177 41.4608 27.5188 40.9851C28.2332 40.2844 29.1221 39.682 29.5829 38.7704C30.3908 37.1712 28.8591 35.6484 27.2278 36.0968C26.4022 36.3236 25.7496 36.7993 25.0337 37.2364L23.581 38.114L19.2035 40.7442Z" fill="white"/>
<defs>
<pattern id="pattern0_2021_439" patternUnits="userSpaceOnUse" patternTransform="matrix(12 0 0 12 0 0)" preserveAspectRatio="none" viewBox="0 0 12 12" width="1" height="1">
<g id="pattern0_2021_439_inner">
<rect y="2" width="3" height="1" fill="#D9D9D9"/>
<rect y="8" width="3" height="1" fill="#D9D9D9"/>
<rect x="6" y="2" width="3" height="1" fill="#D9D9D9"/>
<rect x="6" y="8" width="3" height="1" fill="#D9D9D9"/>
<rect x="5" y="3" width="3" height="1" transform="rotate(180 5 3)" fill="#D9D9D9"/>
<rect x="5" y="9" width="3" height="1" transform="rotate(180 5 9)" fill="#D9D9D9"/>
<rect x="11" y="3" width="3" height="1" transform="rotate(180 11 3)" fill="#D9D9D9"/>
<rect x="11" y="9" width="3" height="1" transform="rotate(180 11 9)" fill="#D9D9D9"/>
<rect x="2" width="1" height="2" fill="#D9D9D9"/>
<rect x="2" y="6" width="1" height="2" fill="#D9D9D9"/>
<rect x="8" width="1" height="2" fill="#D9D9D9"/>
<rect x="8" y="6" width="1" height="2" fill="#D9D9D9"/>
<rect x="3" y="5" width="1" height="2" transform="rotate(180 3 5)" fill="#D9D9D9"/>
<rect x="3" y="11" width="1" height="2" transform="rotate(180 3 11)" fill="#D9D9D9"/>
<rect x="9" y="5" width="1" height="2" transform="rotate(180 9 5)" fill="#D9D9D9"/>
<rect x="9" y="11" width="1" height="2" transform="rotate(180 9 11)" fill="#D9D9D9"/>
</g>
</pattern></defs>
</svg>
