<svg width="60" height="60" viewBox="0 0 60 60" fill="none" xmlns="http://www.w3.org/2000/svg" xmlns:xlink="http://www.w3.org/1999/xlink">
<rect width="60" height="60" fill="url(#pattern0_176_49)" fill-opacity="0.1"/>
<path fill-rule="evenodd" clip-rule="evenodd" d="M18.8451 41.9819C18.3723 42.2919 16.6441 43.2982 16.1443 43.5977L12.8498 45.575L10.3006 47.1091C8.83641 47.989 6.18606 49.6987 4.47324 48.4826C2.94187 47.3955 3.073 45.208 3.05389 43.5501C3.04093 42.4261 2.9041 41.1936 3.12413 40.0723C3.84078 36.8001 6.36651 33.9526 9.09176 32.1327C10.702 31.1061 11.9387 30.9733 13.3764 29.4391C14.6252 28.1998 15.0451 26.5938 15.7821 25.0432C16.4391 23.6606 17.4386 21.739 18.9098 21.0666C19.256 20.9084 20.0653 20.92 20.4683 20.9206C22.22 20.923 23.9794 21.0501 25.7307 21.0989C26.6431 21.1256 27.2566 21.2113 28.1771 21.0613C28.8457 20.9577 29.4945 20.7517 30.1002 20.4506C30.6263 20.1851 31.4928 19.5833 31.9937 19.2174C33.3974 18.1921 35.2782 16.8459 36.456 15.5887C36.8246 15.1982 37.139 14.7599 37.3906 14.2857C37.6496 13.8026 37.7474 13.4326 37.927 12.9231C38.3519 11.7174 38.5942 10.5732 39.3495 9.51429C40.2508 8.2502 41.5816 7.74765 43.0953 8.11993C43.9851 8.36272 44.9312 8.72104 45.8262 9.01955C47.7181 9.66 49.6168 10.2803 51.5221 10.8802C51.9288 11.0066 52.3143 11.1219 52.7277 11.2309C53.5539 11.4486 54.435 11.4757 55.1391 11.9961C55.9029 12.5604 56.1867 13.6316 56.326 14.529C56.5837 16.1862 55.9677 17.9963 54.951 19.3068C54.1097 20.3912 52.8843 21.1493 51.7704 21.9696L37.8259 32.2518C37.1478 32.7517 34.6258 34.5424 34.2379 35.0756L34.2121 35.1114C34.8954 35.9856 34.7546 36.8628 33.9947 37.6438C33.2678 38.3908 32.4764 39.0758 31.7048 39.7759L28.4607 42.7029C27.5023 43.5659 26.5202 44.4413 25.6179 45.3643C24.4552 46.554 23.3626 47.8364 22.2372 49.0625C21.735 49.6006 21.2679 50.179 20.737 50.6889C20.2449 51.1616 19.4976 51.3527 18.8559 51.0944C18.459 50.9384 18.1424 50.6283 17.9789 50.2344C17.4923 49.0455 18.5196 48.042 19.2217 47.2284L20.4198 45.8403C22.6101 43.3036 24.6948 40.7727 27.2197 38.5604C27.7109 38.1301 28.3292 37.6193 28.583 37.0151C28.386 36.6478 28.1677 36.5255 27.7668 36.6863C26.9466 37.0154 26.0922 37.6186 25.3394 38.0738L21.6175 40.3067C21.1826 40.5671 20.7477 40.8278 20.3132 41.0889C19.8223 41.3841 19.3308 41.6781 18.8451 41.9819Z" stroke="white" stroke-width="1.5" stroke-linejoin="round"/>
<defs>
<pattern id="pattern0_176_49" patternUnits="userSpaceOnUse" patternTransform="matrix(12 0 0 12 0 0)" preserveAspectRatio="none" viewBox="0 0 12 12" width="1" height="1">
<g id="pattern0_176_49_inner">
<rect y="2" width="3" height="1" fill="#D9D9D9"/>
<rect y="8" width="3" height="1" fill="#D9D9D9"/>
<rect x="6" y="2" width="3" height="1" fill="#D9D9D9"/>
<rect x="6" y="8" width="3" height="1" fill="#D9D9D9"/>
<rect x="5" y="3" width="3" height="1" transform="rotate(180 5 3)" fill="#D9D9D9"/>
<rect x="5" y="9" width="3" height="1" transform="rotate(180 5 9)" fill="#D9D9D9"/>
<rect x="11" y="3" width="3" height="1" transform="rotate(180 11 3)" fill="#D9D9D9"/>
<rect x="11" y="9" width="3" height="1" transform="rotate(180 11 9)" fill="#D9D9D9"/>
<rect x="2" width="1" height="2" fill="#D9D9D9"/>
<rect x="2" y="6" width="1" height="2" fill="#D9D9D9"/>
<rect x="8" width="1" height="2" fill="#D9D9D9"/>
<rect x="8" y="6" width="1" height="2" fill="#D9D9D9"/>
<rect x="3" y="5" width="1" height="2" transform="rotate(180 3 5)" fill="#D9D9D9"/>
<rect x="3" y="11" width="1" height="2" transform="rotate(180 3 11)" fill="#D9D9D9"/>
<rect x="9" y="5" width="1" height="2" transform="rotate(180 9 5)" fill="#D9D9D9"/>
<rect x="9" y="11" width="1" height="2" transform="rotate(180 9 11)" fill="#D9D9D9"/>
</g>
</pattern></defs>
</svg>
