<svg width="60" height="60" viewBox="0 0 60 60" fill="none" xmlns="http://www.w3.org/2000/svg" xmlns:xlink="http://www.w3.org/1999/xlink">
<rect width="60" height="60" fill="url(#pattern0_250_12)" fill-opacity="0.1"/>
<path d="M6.57956 46.2759C10.6669 44.673 14.8531 42.8996 19.0765 41.0929C21.7692 39.9409 24.0538 39.0486 26.4857 38.059C27.9613 37.5382 28.4983 37.3317 29.1874 37.101C29.7939 36.898 30.641 36.6201 31.3229 37.0421C31.9506 37.4305 32.0153 38.3648 33.3587 37.23C39.2945 33.8517 45.7085 30.5816 51.9695 27.255C53.3739 26.5089 54.786 25.6019 55.8825 24.5168C56.4001 24.0046 56.6394 23.1827 56.8118 22.4631C57.0144 21.6179 57.0635 20.8204 56.9096 20.0183C56.8352 19.6306 56.3052 18.9721 55.9314 18.7714C52.5716 16.9674 49.2867 15.3936 45.8067 13.8084C45.2434 13.5518 44.5823 13.4319 44.0214 13.5394C43.3921 13.6601 42.5965 14.1498 42.1872 14.6885C41.3085 15.8449 40.8811 17.1628 40.1329 18.4536C39.8702 18.9068 39.6151 19.414 39.2036 19.7249C38.213 20.4734 37.2344 21.1304 36.1222 21.7297C34.5117 22.5973 32.7273 23.3435 31.0354 23.8811C30.2654 24.1258 29.3591 24.1238 28.5409 23.9789C26.2287 23.5696 24.1766 22.9715 21.8889 22.5609C20.9682 22.3957 20.5373 22.6554 20.2014 22.9521C19.1376 23.8919 18.3241 24.9867 17.444 26.1712L17.4379 26.1793C16.6248 27.2736 16.0407 28.5495 15.1146 29.5043C14.4756 30.1631 13.5998 30.6377 12.7424 31.0201C11.4803 31.583 10.0554 31.8163 8.82949 32.4381C7.83806 32.941 6.88142 33.621 6.09044 34.394C5.43037 35.039 4.88736 35.8625 4.47635 36.6921C4.03955 37.5739 3.71151 38.5538 3.54703 39.5282C3.27131 41.1616 2.94104 42.6533 3.009 44.2956C3.04116 45.0725 3.62762 45.7473 4.01169 46.0315C4.68361 46.5286 5.59435 46.6623 6.57956 46.2759Z" stroke="white" stroke-width="1.5"/>
<defs>
<pattern id="pattern0_250_12" patternUnits="userSpaceOnUse" patternTransform="matrix(12 0 0 12 0 0)" preserveAspectRatio="none" viewBox="0 0 12 12" width="1" height="1">
<g id="pattern0_250_12_inner">
<rect y="2" width="3" height="1" fill="#D9D9D9"/>
<rect y="8" width="3" height="1" fill="#D9D9D9"/>
<rect x="6" y="2" width="3" height="1" fill="#D9D9D9"/>
<rect x="6" y="8" width="3" height="1" fill="#D9D9D9"/>
<rect x="5" y="3" width="3" height="1" transform="rotate(180 5 3)" fill="#D9D9D9"/>
<rect x="5" y="9" width="3" height="1" transform="rotate(180 5 9)" fill="#D9D9D9"/>
<rect x="11" y="3" width="3" height="1" transform="rotate(180 11 3)" fill="#D9D9D9"/>
<rect x="11" y="9" width="3" height="1" transform="rotate(180 11 9)" fill="#D9D9D9"/>
<rect x="2" width="1" height="2" fill="#D9D9D9"/>
<rect x="2" y="6" width="1" height="2" fill="#D9D9D9"/>
<rect x="8" width="1" height="2" fill="#D9D9D9"/>
<rect x="8" y="6" width="1" height="2" fill="#D9D9D9"/>
<rect x="3" y="5" width="1" height="2" transform="rotate(180 3 5)" fill="#D9D9D9"/>
<rect x="3" y="11" width="1" height="2" transform="rotate(180 3 11)" fill="#D9D9D9"/>
<rect x="9" y="5" width="1" height="2" transform="rotate(180 9 5)" fill="#D9D9D9"/>
<rect x="9" y="11" width="1" height="2" transform="rotate(180 9 11)" fill="#D9D9D9"/>
</g>
</pattern></defs>
</svg>
