<svg width="60" height="60" viewBox="0 0 60 60" fill="none" xmlns="http://www.w3.org/2000/svg" xmlns:xlink="http://www.w3.org/1999/xlink">
<rect width="60" height="60" fill="url(#pattern0_217_8)" fill-opacity="0.1"/>
<path fill-rule="evenodd" clip-rule="evenodd" d="M23.4153 39.4571C16.9832 39.4542 10.7403 39.3741 4.33148 39.3755C3.73612 39.3756 3.4059 39.1288 3.18558 38.8759C3.01681 38.6821 2.96775 38.3084 3.01977 38.0353C3.08304 37.7032 3.27555 37.4139 3.47124 37.1203C3.79433 36.6357 4.13605 36.2137 4.40758 35.7008C4.91422 34.7438 5.32696 33.7116 5.6613 32.6746C6.17718 31.0745 6.53252 29.5258 6.99436 27.97C7.23319 27.1655 8.13649 27.0234 8.75755 26.9155C11.5374 26.4325 14.1664 26.1448 17.0044 26.0169C17.3655 26.0007 17.9173 26.1158 18.1262 26.3628C18.3929 26.6779 18.5904 27.2586 18.5274 27.6789C18.4607 28.1233 18.1466 28.639 17.7733 28.9206C17.2676 29.3019 16.5905 29.5177 15.9384 29.6435C14.1472 29.9889 12.6733 30.2531 10.9602 30.6208C10.5964 30.6989 10.0521 31.0523 9.84053 31.3344C9.61981 31.6287 9.46952 32.0873 9.49468 32.4584C9.52716 32.9375 9.754 33.4666 10.0737 33.8008C10.3881 34.1295 10.8532 34.5261 11.9025 34.2786C15.3786 33.4557 18.506 32.8062 22.1183 31.9829C23.0944 31.7604 23.5504 31.8708 24.2892 32.0644C29.8662 33.5265 37.6944 35.5505 44.7028 37.2927C45.926 37.5968 46.4248 37.1676 46.8031 36.6973C47.0967 36.3324 47.3898 35.6095 47.3388 35.1312C47.2731 34.5152 47.1581 33.837 46.8151 33.3132C46.3655 32.6265 45.646 31.888 44.7203 31.6562C39.5851 30.3732 34.1145 29.0019 29.8376 27.7752C28.1661 27.2957 28.0992 24.6887 29.5257 23.8148C30.9613 22.9354 32.685 21.7079 34.4076 20.7788C34.986 20.4668 35.757 20.5941 36.6442 20.9156C37.8015 21.335 39.0479 21.9958 40.0162 22.5584C40.8141 23.022 41.7045 22.4659 41.2765 21.6385C40.7868 20.6917 41.2448 19.6837 42.8695 20.0942C43.9178 20.3591 45.3773 21.6621 46.1984 22.7745C46.6258 23.3537 46.9849 23.9716 47.156 24.6505C47.4172 25.6864 47.3219 27.2912 47.724 28.196C48.0136 28.8476 48.4031 29.1118 49.6405 29.1148C50.785 29.1178 52.0291 28.7774 53.1587 29.065C54.3492 29.3682 55.4845 30.0585 56.2035 31.0198C56.8535 31.8887 57.078 33.2939 56.9768 34.3869C56.8583 35.6651 56.2828 37.1494 55.3153 37.9653C54.7606 38.4331 53.2835 39.626 51.6982 39.6376C50.6466 39.6456 26.3047 39.4583 23.4153 39.4571Z" stroke="white" stroke-width="1.5" stroke-linejoin="round"/>
<defs>
<pattern id="pattern0_217_8" patternUnits="userSpaceOnUse" patternTransform="matrix(12 0 0 12 0 0)" preserveAspectRatio="none" viewBox="0 0 12 12" width="1" height="1">
<g id="pattern0_217_8_inner">
<rect y="2" width="3" height="1" fill="#D9D9D9"/>
<rect y="8" width="3" height="1" fill="#D9D9D9"/>
<rect x="6" y="2" width="3" height="1" fill="#D9D9D9"/>
<rect x="6" y="8" width="3" height="1" fill="#D9D9D9"/>
<rect x="5" y="3" width="3" height="1" transform="rotate(180 5 3)" fill="#D9D9D9"/>
<rect x="5" y="9" width="3" height="1" transform="rotate(180 5 9)" fill="#D9D9D9"/>
<rect x="11" y="3" width="3" height="1" transform="rotate(180 11 3)" fill="#D9D9D9"/>
<rect x="11" y="9" width="3" height="1" transform="rotate(180 11 9)" fill="#D9D9D9"/>
<rect x="2" width="1" height="2" fill="#D9D9D9"/>
<rect x="2" y="6" width="1" height="2" fill="#D9D9D9"/>
<rect x="8" width="1" height="2" fill="#D9D9D9"/>
<rect x="8" y="6" width="1" height="2" fill="#D9D9D9"/>
<rect x="3" y="5" width="1" height="2" transform="rotate(180 3 5)" fill="#D9D9D9"/>
<rect x="3" y="11" width="1" height="2" transform="rotate(180 3 11)" fill="#D9D9D9"/>
<rect x="9" y="5" width="1" height="2" transform="rotate(180 9 5)" fill="#D9D9D9"/>
<rect x="9" y="11" width="1" height="2" transform="rotate(180 9 11)" fill="#D9D9D9"/>
</g>
</pattern></defs>
</svg>
