<svg width="60" height="60" viewBox="0 0 60 60" fill="none" xmlns="http://www.w3.org/2000/svg" xmlns:xlink="http://www.w3.org/1999/xlink">
<rect width="60" height="60" fill="url(#pattern0_250_10)" fill-opacity="0.1"/>
<path fill-rule="evenodd" clip-rule="evenodd" d="M50.0092 24.356C51.9188 24.5659 53.6826 25.4687 54.9757 26.8982H54.9755C56.2811 28.3416 57 30.2082 57 32.1543C57 36.4804 53.4737 40 49.1392 40H13.3503C10.6437 40 8.06826 38.9117 6.09858 36.9356C4.21483 35.0458 3.08728 32.5049 3.00521 29.9642C2.95983 28.5623 3.21106 27.2017 3.75176 25.9199C4.26928 24.6932 5.02375 23.6012 5.99411 22.6745C8.01458 20.7448 10.7493 19.7848 13.4963 20.0407L13.5034 20.0415L14.1758 20.1125L50.0092 24.356Z" stroke="white" stroke-width="1.5"/>
<defs>
<pattern id="pattern0_250_10" patternUnits="userSpaceOnUse" patternTransform="matrix(12 0 0 12 0 0)" preserveAspectRatio="none" viewBox="0 0 12 12" width="1" height="1">
<g id="pattern0_250_10_inner">
<rect y="2" width="3" height="1" fill="#D9D9D9"/>
<rect y="8" width="3" height="1" fill="#D9D9D9"/>
<rect x="6" y="2" width="3" height="1" fill="#D9D9D9"/>
<rect x="6" y="8" width="3" height="1" fill="#D9D9D9"/>
<rect x="5" y="3" width="3" height="1" transform="rotate(180 5 3)" fill="#D9D9D9"/>
<rect x="5" y="9" width="3" height="1" transform="rotate(180 5 9)" fill="#D9D9D9"/>
<rect x="11" y="3" width="3" height="1" transform="rotate(180 11 3)" fill="#D9D9D9"/>
<rect x="11" y="9" width="3" height="1" transform="rotate(180 11 9)" fill="#D9D9D9"/>
<rect x="2" width="1" height="2" fill="#D9D9D9"/>
<rect x="2" y="6" width="1" height="2" fill="#D9D9D9"/>
<rect x="8" width="1" height="2" fill="#D9D9D9"/>
<rect x="8" y="6" width="1" height="2" fill="#D9D9D9"/>
<rect x="3" y="5" width="1" height="2" transform="rotate(180 3 5)" fill="#D9D9D9"/>
<rect x="3" y="11" width="1" height="2" transform="rotate(180 3 11)" fill="#D9D9D9"/>
<rect x="9" y="5" width="1" height="2" transform="rotate(180 9 5)" fill="#D9D9D9"/>
<rect x="9" y="11" width="1" height="2" transform="rotate(180 9 11)" fill="#D9D9D9"/>
</g>
</pattern></defs>
</svg>
