<svg width="60" height="60" viewBox="0 0 60 60" fill="none" xmlns="http://www.w3.org/2000/svg" xmlns:xlink="http://www.w3.org/1999/xlink">
<rect width="60" height="60" fill="url(#pattern0_85_171)" fill-opacity="0.1"/>
<path d="M6.83246 47.5383L54.1361 21.2631C54.3932 21.1202 54.625 20.9359 54.822 20.7174L55.9946 19.4174C56.3281 19.0476 56.5516 18.5919 56.6396 18.1017L56.943 16.4133C56.9809 16.2027 56.9933 15.9883 56.9799 15.7748L56.946 15.2318C56.8479 13.6627 55.4218 12.5178 53.8686 12.7612L35.223 15.6832C34.9328 15.7286 34.6521 15.8217 34.3923 15.9586L32.6018 16.9016C32.1846 17.1214 31.833 17.4478 31.5829 17.8476L30.4116 19.7198C29.7625 20.7574 30.0886 22.1255 31.136 22.7587C32.1834 23.3919 32.5096 24.76 31.8605 25.7976L30.4615 28.0338C30.2884 28.3106 30.066 28.5532 29.8053 28.7496L29.0131 29.3469C28.8716 29.4535 28.7199 29.5458 28.5602 29.6224L16.3739 35.4646C15.9545 35.6656 15.5949 35.9728 15.3308 36.3557L14.1233 38.1057C13.9218 38.3979 13.664 38.6469 13.3651 38.8382L12.7336 39.2424C12.385 39.4655 11.9893 39.6044 11.5778 39.6483L11.3895 39.6684C10.8675 39.7241 10.3406 39.6246 9.87487 39.3824L9.34686 39.1079C9.10161 38.9803 8.88652 38.8001 8.71776 38.5811C8.37642 38.1383 8.24689 37.5656 8.36607 37.0194C8.41261 36.8061 8.49566 36.6025 8.61157 36.4175L13.3663 28.8289C13.6602 28.3599 14.0925 27.9939 14.6036 27.7814L15.3951 27.4524C15.6199 27.3589 15.8564 27.2967 16.098 27.2673L21.2285 26.6443C21.5802 26.6016 21.9198 26.4894 22.2276 26.3141L22.6804 26.0563C23.0934 25.8211 23.4361 25.4798 23.6732 25.0678L23.8597 24.7437C24.0926 24.3387 24.2153 23.8797 24.2153 23.4125V23.123C24.2153 22.7203 24.1242 22.3228 23.9488 21.9604L23.8361 21.7275C23.6606 21.3649 23.4053 21.0467 23.0894 20.7967L22.6164 20.4225C22.2946 20.168 21.9185 19.9911 21.5172 19.9055L21.3353 19.8667C20.7999 19.7524 20.2423 19.8056 19.7381 20.019L11.7396 23.4037C11.5189 23.4971 11.3118 23.6198 11.1238 23.7684L10.3378 24.3902C10.0911 24.5854 9.88077 24.8227 9.71663 25.0911L2.3921 37.0677C2.13568 37.4869 2 37.9689 2 38.4603V40.7201C2 41.1598 2.10861 41.5926 2.31617 41.9802L3.83093 44.8088C4.00998 45.1431 4.30936 45.397 4.66848 45.5191L5.64768 45.8518C6.00423 45.973 6.16813 46.3841 5.99274 46.7173C5.70911 47.2562 6.30009 47.834 6.83246 47.5383Z" stroke="white" stroke-width="1.5"/>
<defs>
<pattern id="pattern0_85_171" patternUnits="userSpaceOnUse" patternTransform="matrix(12 0 0 12 0 0)" preserveAspectRatio="none" viewBox="0 0 12 12" width="1" height="1">
<g id="pattern0_85_171_inner">
<rect y="2" width="3" height="1" fill="#D9D9D9"/>
<rect y="8" width="3" height="1" fill="#D9D9D9"/>
<rect x="6" y="2" width="3" height="1" fill="#D9D9D9"/>
<rect x="6" y="8" width="3" height="1" fill="#D9D9D9"/>
<rect x="5" y="3" width="3" height="1" transform="rotate(180 5 3)" fill="#D9D9D9"/>
<rect x="5" y="9" width="3" height="1" transform="rotate(180 5 9)" fill="#D9D9D9"/>
<rect x="11" y="3" width="3" height="1" transform="rotate(180 11 3)" fill="#D9D9D9"/>
<rect x="11" y="9" width="3" height="1" transform="rotate(180 11 9)" fill="#D9D9D9"/>
<rect x="2" width="1" height="2" fill="#D9D9D9"/>
<rect x="2" y="6" width="1" height="2" fill="#D9D9D9"/>
<rect x="8" width="1" height="2" fill="#D9D9D9"/>
<rect x="8" y="6" width="1" height="2" fill="#D9D9D9"/>
<rect x="3" y="5" width="1" height="2" transform="rotate(180 3 5)" fill="#D9D9D9"/>
<rect x="3" y="11" width="1" height="2" transform="rotate(180 3 11)" fill="#D9D9D9"/>
<rect x="9" y="5" width="1" height="2" transform="rotate(180 9 5)" fill="#D9D9D9"/>
<rect x="9" y="11" width="1" height="2" transform="rotate(180 9 11)" fill="#D9D9D9"/>
</g>
</pattern></defs>
</svg>
