<svg width="60" height="60" viewBox="0 0 60 60" fill="none" xmlns="http://www.w3.org/2000/svg" xmlns:xlink="http://www.w3.org/1999/xlink">
<rect width="60" height="60" fill="url(#pattern0_217_9)" fill-opacity="0.1"/>
<path d="M13.5279 8.65847C14.4341 8.2589 16.6123 7.83788 18.5946 8.06289C20.9957 8.33543 35.7252 10.3726 35.7252 10.3726C35.7252 10.3726 36.6901 10.6442 36.77 11.172C36.85 11.6999 37.0484 12.0073 35.844 13.1641C34.8696 14.1002 33.5396 14.4375 33.4614 15.4683C33.4614 15.4683 32.9826 24.9504 38.6407 34.3864C44.0277 43.3708 56.1587 49.6426 56.1587 49.6426C56.1587 49.6426 57.1565 50.0344 56.9788 50.6379C56.7708 51.3444 56.1694 50.9015 54.4659 50.349C52.7987 49.8082 42.8273 45.9914 42.8273 45.9914C42.8273 45.9914 41.705 45.7114 40.8094 43.9571C39.9139 42.2029 36.7823 36.3775 36.7823 36.3775C36.7823 36.3775 36.4679 34.8953 34.8762 35.6762C33.2847 36.4571 32.7221 36.9022 32.2314 38.4163C31.7406 39.9306 31.0607 41.3832 28.9921 40.7966C26.9234 40.2099 15.5754 35.9884 15.5754 35.9884C15.5754 35.9884 12.3444 34.8577 13.566 30.4432C14.7875 26.0286 15.4463 23.5442 15.4463 23.5442C15.4463 23.5442 15.6992 22.7438 15.5358 22.0176C15.3674 21.2689 14.4773 20.7098 14.4773 20.7098C14.4773 20.7098 13.4849 20.1741 12.6878 21.1495C12.0161 21.9716 10.2781 24.1803 10.2781 24.1803C10.2781 24.1803 9.96318 24.3292 10.3329 25.6568C10.7026 26.9845 10.7515 27.7533 10.5035 28.567C10.2555 29.3807 9.56343 31.274 9.56343 31.274C9.56343 31.274 9.13941 32.4856 7.96581 32.0896C6.79221 31.6936 4.02816 30.7115 4.02816 30.7115C4.02816 30.7115 2.08382 30.1285 3.54272 27.3935C4.79337 25.0492 6.26686 22.1863 6.26686 22.1863C6.26686 22.1863 13.0795 8.85622 13.5279 8.65847Z" stroke="white" stroke-width="1.5"/>
<defs>
<pattern id="pattern0_217_9" patternUnits="userSpaceOnUse" patternTransform="matrix(12 0 0 12 0 0)" preserveAspectRatio="none" viewBox="0 0 12 12" width="1" height="1">
<g id="pattern0_217_9_inner">
<rect y="2" width="3" height="1" fill="#D9D9D9"/>
<rect y="8" width="3" height="1" fill="#D9D9D9"/>
<rect x="6" y="2" width="3" height="1" fill="#D9D9D9"/>
<rect x="6" y="8" width="3" height="1" fill="#D9D9D9"/>
<rect x="5" y="3" width="3" height="1" transform="rotate(180 5 3)" fill="#D9D9D9"/>
<rect x="5" y="9" width="3" height="1" transform="rotate(180 5 9)" fill="#D9D9D9"/>
<rect x="11" y="3" width="3" height="1" transform="rotate(180 11 3)" fill="#D9D9D9"/>
<rect x="11" y="9" width="3" height="1" transform="rotate(180 11 9)" fill="#D9D9D9"/>
<rect x="2" width="1" height="2" fill="#D9D9D9"/>
<rect x="2" y="6" width="1" height="2" fill="#D9D9D9"/>
<rect x="8" width="1" height="2" fill="#D9D9D9"/>
<rect x="8" y="6" width="1" height="2" fill="#D9D9D9"/>
<rect x="3" y="5" width="1" height="2" transform="rotate(180 3 5)" fill="#D9D9D9"/>
<rect x="3" y="11" width="1" height="2" transform="rotate(180 3 11)" fill="#D9D9D9"/>
<rect x="9" y="5" width="1" height="2" transform="rotate(180 9 5)" fill="#D9D9D9"/>
<rect x="9" y="11" width="1" height="2" transform="rotate(180 9 11)" fill="#D9D9D9"/>
</g>
</pattern></defs>
</svg>
