<svg width="60" height="60" viewBox="0 0 60 60" fill="none" xmlns="http://www.w3.org/2000/svg" xmlns:xlink="http://www.w3.org/1999/xlink">
<rect width="60" height="60" fill="url(#pattern0_250_8)" fill-opacity="0.1"/>
<path d="M43.9419 28.132C46.615 29.4935 47.3397 29.8717 49.0728 30.7826C51.3231 32.0657 53.0587 33.3488 53.8664 34.632C57.6809 39.4248 57.7142 41.9344 55.5658 43.1265C53.33 44.1727 51.2196 42.9359 49.1761 40.4784L45.8453 36.1108L42.0726 31.7087C39.615 29.4193 37.0414 29.1821 34.3914 30.2987L31.5704 31.5711C29.3734 32.7447 27.8947 32.898 26.7782 33.05C22.8651 33.4277 18.0911 33.1521 12.6392 32.3621C9.87367 31.952 7.40176 30.9475 5.50181 28.7855L4.44817 27.6161C2.22151 25.3284 2.52899 21.9014 5.60378 21.2194C7.91637 20.7102 8.59229 22.7678 9.78426 24.2802C11.2559 25.8515 13.1686 27.1387 15.6981 28.0288C16.9365 28.379 17.9143 28.0374 18.3832 26.3437C18.9043 24.6349 18.8778 24.5258 19.9466 23.4548C21.3416 22.0617 25.3173 21.2488 30.1769 20.6347C32.0141 20.5857 33.2946 20.1899 33.8816 19.3623L35.479 17.5739C36.3286 16.4904 37.9935 16.1242 39.1837 16.9549C40.9101 18.7274 41.3045 21.8477 41.3929 25.2776C41.5038 26.7772 42.3275 27.3061 43.9419 28.132Z" stroke="white" stroke-width="1.5" stroke-miterlimit="22.9256"/>
<defs>
<pattern id="pattern0_250_8" patternUnits="userSpaceOnUse" patternTransform="matrix(12 0 0 12 0 0)" preserveAspectRatio="none" viewBox="0 0 12 12" width="1" height="1">
<g id="pattern0_250_8_inner">
<rect y="2" width="3" height="1" fill="#D9D9D9"/>
<rect y="8" width="3" height="1" fill="#D9D9D9"/>
<rect x="6" y="2" width="3" height="1" fill="#D9D9D9"/>
<rect x="6" y="8" width="3" height="1" fill="#D9D9D9"/>
<rect x="5" y="3" width="3" height="1" transform="rotate(180 5 3)" fill="#D9D9D9"/>
<rect x="5" y="9" width="3" height="1" transform="rotate(180 5 9)" fill="#D9D9D9"/>
<rect x="11" y="3" width="3" height="1" transform="rotate(180 11 3)" fill="#D9D9D9"/>
<rect x="11" y="9" width="3" height="1" transform="rotate(180 11 9)" fill="#D9D9D9"/>
<rect x="2" width="1" height="2" fill="#D9D9D9"/>
<rect x="2" y="6" width="1" height="2" fill="#D9D9D9"/>
<rect x="8" width="1" height="2" fill="#D9D9D9"/>
<rect x="8" y="6" width="1" height="2" fill="#D9D9D9"/>
<rect x="3" y="5" width="1" height="2" transform="rotate(180 3 5)" fill="#D9D9D9"/>
<rect x="3" y="11" width="1" height="2" transform="rotate(180 3 11)" fill="#D9D9D9"/>
<rect x="9" y="5" width="1" height="2" transform="rotate(180 9 5)" fill="#D9D9D9"/>
<rect x="9" y="11" width="1" height="2" transform="rotate(180 9 11)" fill="#D9D9D9"/>
</g>
</pattern></defs>
</svg>
