<svg width="60" height="60" viewBox="0 0 60 60" fill="none" xmlns="http://www.w3.org/2000/svg" xmlns:xlink="http://www.w3.org/1999/xlink">
<rect width="60" height="60" fill="url(#pattern0_217_10)" fill-opacity="0.1"/>
<path d="M48.6347 57C48.6347 57 6.96465 57 5.68619 57C4.40774 57 4.00012 56.333 4.00012 55.703C4.00012 55.0731 4.14835 54.684 4.87095 54.0725C5.61208 53.4611 7.46491 52.1641 8.2431 51.6453C9.02128 51.1265 11.7635 49.9407 14.5057 49.9407C17.2478 49.9407 25.7338 49.9407 26.6231 49.9407C27.5125 49.9407 29.3468 49.144 29.3468 47.2541C29.3468 45.3642 27.6607 44.6787 27.0863 44.3822C26.512 44.0858 23.1584 42.7888 22.6396 42.5294C22.1022 42.27 21.0647 41.8995 20.7867 40.1949C20.5088 38.4903 17.2849 23.3712 17.0996 22.3336C16.9143 21.296 16.729 19.7582 16.7661 18.5353C16.8032 17.3124 16.8217 16.6825 16.8217 16.1081C16.8217 15.5337 16.8402 15.1817 16.377 14.8297C15.9138 14.4776 9.72536 10.0494 8.89159 9.32676C8.05781 8.60416 7.31668 7.64068 7.68725 5.6211C8.05781 3.60152 9.85506 3.15684 12.3564 3.02715C14.8577 2.87892 17.1923 3.37918 18.4151 3.52741C19.638 3.69416 22.7693 4.1759 23.3251 4.28707C23.881 4.37971 24.1589 4.49088 24.4183 4.78733C24.6777 5.08378 24.548 5.49141 24.548 5.8805C24.548 6.26959 24.3812 6.93661 24.8815 7.34423C25.3817 7.75185 30.4585 11.5872 31.0885 11.9763C31.7184 12.3654 32.7004 12.7915 33.6083 12.2728C34.5162 11.754 37.314 10.1235 37.7586 9.90113C38.2033 9.67879 39.667 9.60468 40.3155 10.2532C40.964 10.9017 43.558 15.2929 43.8915 16.071C44.225 16.8492 45.3367 18.4797 45.8925 18.9429C46.4484 19.4061 48.2086 20.1658 49.8205 20.6661C51.4325 21.1663 52.4701 21.4257 53.2112 21.7036C53.9709 21.9816 55.6569 22.908 55.6384 25.0387C55.6199 27.1695 54.6008 44.7158 54.5638 45.3457C54.5267 45.9757 54.0635 46.828 52.5071 46.6056C50.9693 46.3833 46.5966 45.6051 43.3356 45.5866C41.3902 45.5681 40.4638 46.6983 40.5008 47.9211C40.5379 48.9402 41.2605 50.0704 42.8168 50.0704C46.2446 50.0704 48.505 50.0704 50.3764 50.0704C52.2477 50.0704 53.4335 51.9418 53.4335 53.4796C53.4335 55.2954 52.2292 56.9629 50.2652 56.9629C49.8391 57 48.6347 57 48.6347 57Z" stroke="white" stroke-width="1.5" stroke-miterlimit="10"/>
<defs>
<pattern id="pattern0_217_10" patternUnits="userSpaceOnUse" patternTransform="matrix(12 0 0 12 0 0)" preserveAspectRatio="none" viewBox="0 0 12 12" width="1" height="1">
<g id="pattern0_217_10_inner">
<rect y="2" width="3" height="1" fill="#D9D9D9"/>
<rect y="8" width="3" height="1" fill="#D9D9D9"/>
<rect x="6" y="2" width="3" height="1" fill="#D9D9D9"/>
<rect x="6" y="8" width="3" height="1" fill="#D9D9D9"/>
<rect x="5" y="3" width="3" height="1" transform="rotate(180 5 3)" fill="#D9D9D9"/>
<rect x="5" y="9" width="3" height="1" transform="rotate(180 5 9)" fill="#D9D9D9"/>
<rect x="11" y="3" width="3" height="1" transform="rotate(180 11 3)" fill="#D9D9D9"/>
<rect x="11" y="9" width="3" height="1" transform="rotate(180 11 9)" fill="#D9D9D9"/>
<rect x="2" width="1" height="2" fill="#D9D9D9"/>
<rect x="2" y="6" width="1" height="2" fill="#D9D9D9"/>
<rect x="8" width="1" height="2" fill="#D9D9D9"/>
<rect x="8" y="6" width="1" height="2" fill="#D9D9D9"/>
<rect x="3" y="5" width="1" height="2" transform="rotate(180 3 5)" fill="#D9D9D9"/>
<rect x="3" y="11" width="1" height="2" transform="rotate(180 3 11)" fill="#D9D9D9"/>
<rect x="9" y="5" width="1" height="2" transform="rotate(180 9 5)" fill="#D9D9D9"/>
<rect x="9" y="11" width="1" height="2" transform="rotate(180 9 11)" fill="#D9D9D9"/>
</g>
</pattern></defs>
</svg>
