<svg width="60" height="60" viewBox="0 0 60 60" fill="none" xmlns="http://www.w3.org/2000/svg" xmlns:xlink="http://www.w3.org/1999/xlink">
<rect width="60" height="60" fill="url(#pattern0_176_59)" fill-opacity="0.1"/>
<path d="M45.8188 9.6976C45.8006 9.70616 45.7824 9.71475 45.764 9.72338M37.0665 11.6832C37.2265 11.6616 37.3894 11.6438 37.5537 11.6258L37.5954 11.6212C37.7692 11.6022 37.9495 11.5822 38.1117 11.5593C38.596 11.4909 39.0828 11.4405 39.5909 11.3878C39.9203 11.3536 40.2587 11.3186 40.6113 11.2771C41.4758 11.1753 42.3741 11.0393 43.2116 10.786C44.0403 10.5353 44.9688 10.0979 45.764 9.72338M54.6537 9.5369C54.6898 9.48196 54.726 9.42717 54.7622 9.37238C54.9107 9.14782 55.0592 8.92323 55.1995 8.68828C55.3924 8.36514 55.5347 8.07844 55.6056 7.83935C55.6998 7.52139 55.6886 7.17666 55.5772 6.86449C55.4309 6.44468 55.1606 6.20145 54.8469 6.08482C54.5191 5.96298 54.0999 5.96529 53.6726 6.13834C53.1333 6.35684 52.6011 6.60214 52.0552 6.85375C51.812 6.96582 51.5662 7.07913 51.3158 7.19189L46.3219 9.46271C46.1463 9.54334 45.9591 9.63152 45.764 9.72338M34.999 13.4496C35.0001 13.4436 35.0011 13.4377 35.0022 13.4318C35.0095 13.3902 35.0165 13.3501 35.0234 13.3118C35.076 13.019 35.1169 12.838 35.1787 12.6905C35.2686 12.4763 35.4451 12.2155 36.2522 11.8626C36.4259 11.7902 36.7038 11.732 37.0665 11.6832C37.2015 11.665 37.3385 11.6495 37.4767 11.6342C37.5023 11.6314 37.528 11.6286 37.5537 11.6258M37.8563 26.6978C37.8859 26.5923 37.8882 26.5842 37.9186 26.4749C38.0482 26.0083 38.1803 25.5126 38.2607 25.0688L38.3058 24.8233L38.1946 24.5997C37.7315 23.6701 37.2183 22.8178 36.7386 22.0214L36.6793 21.9228C36.177 21.0884 35.7176 20.3187 35.3519 19.5334C34.6367 17.9979 34.2882 16.4254 34.8104 14.3685C34.899 14.0195 34.9542 13.7053 34.999 13.4496C35.0075 13.4015 35.0155 13.3556 35.0234 13.3118M37.9186 26.4749C37.8977 26.5501 37.8769 26.6244 37.8563 26.6978M37.8563 26.6978C37.847 26.7311 37.8656 26.6649 37.8563 26.6978ZM37.8563 26.6978C37.7558 27.0564 37.6335 27.492 37.5597 27.7971L37.3992 28.4624L36.7213 28.3648C35.9095 28.2477 35.5789 28.2189 35.2711 28.2515C34.9635 28.2841 34.6565 28.3787 33.9306 28.6024L33.8093 28.6398L25.9811 31.0774C25.5447 31.2105 25.1037 31.3421 24.6624 31.4739C23.668 31.7706 22.6716 32.068 21.7217 32.3839L21.2673 32.535L20.9378 32.1866C20.6895 31.9244 20.5126 31.8666 20.4069 31.854C20.2907 31.8402 20.1348 31.8666 19.9084 31.9872C19.6772 32.1104 19.4292 32.3009 19.1434 32.5434C19.0638 32.611 18.9777 32.6859 18.8884 32.7635C18.6856 32.9398 18.4653 33.1315 18.2599 33.2905C17.283 34.0469 16.3093 34.8698 15.372 35.6925C14.3403 36.7119 13.1117 38.1931 12.3509 39.3978C11.8891 40.1291 11.46 40.943 11.0268 41.7648C10.8158 42.165 10.6038 42.5671 10.3865 42.9625C10.2471 43.2163 10.1046 43.4914 9.95622 43.778C9.49177 44.675 8.96935 45.684 8.30143 46.4978C8.09706 46.7468 7.83707 46.9957 7.57947 47.224L6.87011 47.8252L5.2415 49.1978C5.17538 49.2535 5.11121 49.307 5.04964 49.3583M54.7622 9.37238C54.7071 9.45571 54.6518 9.53941 54.5971 9.62326L52.3442 13.0337C52.2603 13.1604 52.1642 13.298 52.0622 13.444C51.7633 13.8719 51.4136 14.3726 51.171 14.8858L51.0209 15.2027L51.1678 15.5217C51.2845 15.775 51.4366 16.0269 51.5802 16.2563C51.6345 16.343 51.6868 16.4251 51.7376 16.505M51.6943 16.4368C51.7088 16.4598 51.7233 16.4825 51.7376 16.505M24.4353 44.9237C25.3052 44.6617 26.194 44.394 27.0619 44.1724C27.3294 44.1041 27.648 44.0881 27.8899 44.0801C27.9976 44.0765 28.0934 44.0744 28.1797 44.0726C28.3214 44.0695 28.4386 44.067 28.5468 44.0591L30.8239 43.8996C33.1093 43.7341 35.3924 43.5051 37.417 42.8019C39.9893 41.9085 42.5942 40.776 45.0899 39.6129C45.5424 39.402 46.1209 39.099 46.6566 38.7514C47.2062 38.3948 47.6511 38.0294 47.8938 37.7084C47.8962 37.7046 47.9166 37.6715 47.9379 37.5866C47.9602 37.4978 47.9762 37.3823 47.9841 37.2414C47.9969 37.0124 47.987 36.7836 47.9771 36.5565C47.9744 36.4929 47.9716 36.4295 47.9694 36.3662V36.1899C47.9874 35.7915 48.1225 35.4732 48.3345 35.2046C48.4409 35.0699 48.5586 34.9583 48.6546 34.8709C48.6966 34.8326 48.7325 34.8006 48.7659 34.7708C48.8212 34.7215 48.8698 34.6781 48.9285 34.6222C49.1822 34.3806 49.4212 34.1673 49.6495 33.9635C50.0247 33.6286 50.3712 33.3193 50.7082 32.9516C51.0558 32.5553 51.2412 32.0792 51.3473 31.5056C51.4267 31.076 51.4556 30.6484 51.4874 30.1776C51.5005 29.9838 51.5141 29.7822 51.5319 29.5706L52.2266 21.3163C52.2469 21.0736 52.2691 20.8298 52.2913 20.5863C52.3728 19.6937 52.4538 18.8056 52.4333 17.9961C52.4268 17.7413 52.287 17.4042 52.0073 16.9373C51.9187 16.7895 51.8304 16.6507 51.7376 16.505M51.4874 30.1776C51.489 30.1534 51.4907 30.129 51.4923 30.1045M24.3295 44.9555C24.3648 44.9449 24.4 44.9343 24.4353 44.9237M5.04964 49.3583C4.76143 49.5984 4.52232 49.7976 4.32645 50.0278C4.10925 50.2832 4.0044 50.5148 4.0001 50.7802C3.99399 51.1398 4.19678 51.5574 4.62342 52.0689C4.82792 52.314 5.05992 52.5532 5.30131 52.7961L5.4142 52.9094C5.61415 53.1098 5.82305 53.3192 5.99914 53.5159C6.26046 53.8076 6.75594 54.0191 7.10726 53.9986C7.49519 53.9759 7.63619 53.9656 7.80404 53.8759C8.30104 53.6102 8.7979 53.2194 9.32026 52.8086C9.43814 52.7158 9.55734 52.6221 9.67819 52.5285L13.4013 49.6008C13.5041 49.5195 13.621 49.4259 13.7469 49.3251C14.3794 48.8185 15.2546 48.1175 15.8789 47.7549C16.5901 47.3419 17.4261 47.0317 18.2347 46.7717C18.6419 46.6408 19.0521 46.5193 19.4446 46.4044L19.6132 46.3551C19.9475 46.2575 20.2664 46.1643 20.5674 46.0697L20.5873 46.0623L20.6083 46.0571C21.0408 45.948 21.4247 45.8273 21.8322 45.6992C22.1254 45.607 22.4308 45.511 22.7753 45.4128C23.3132 45.2617 23.8707 45.0937 24.4353 44.9237M5.4142 52.9094C5.4392 52.9344 5.46434 52.9596 5.48953 52.9849M5.06177 49.3482C5.05772 49.3516 5.05367 49.3549 5.04964 49.3583M5.04964 49.3583C5.03163 49.3733 5.0138 49.3882 4.99617 49.4029" stroke="white" stroke-width="1.5" stroke-linejoin="round"/>
<defs>
<pattern id="pattern0_176_59" patternUnits="userSpaceOnUse" patternTransform="matrix(12 0 0 12 0 0)" preserveAspectRatio="none" viewBox="0 0 12 12" width="1" height="1">
<g id="pattern0_176_59_inner">
<rect y="2" width="3" height="1" fill="#D9D9D9"/>
<rect y="8" width="3" height="1" fill="#D9D9D9"/>
<rect x="6" y="2" width="3" height="1" fill="#D9D9D9"/>
<rect x="6" y="8" width="3" height="1" fill="#D9D9D9"/>
<rect x="5" y="3" width="3" height="1" transform="rotate(180 5 3)" fill="#D9D9D9"/>
<rect x="5" y="9" width="3" height="1" transform="rotate(180 5 9)" fill="#D9D9D9"/>
<rect x="11" y="3" width="3" height="1" transform="rotate(180 11 3)" fill="#D9D9D9"/>
<rect x="11" y="9" width="3" height="1" transform="rotate(180 11 9)" fill="#D9D9D9"/>
<rect x="2" width="1" height="2" fill="#D9D9D9"/>
<rect x="2" y="6" width="1" height="2" fill="#D9D9D9"/>
<rect x="8" width="1" height="2" fill="#D9D9D9"/>
<rect x="8" y="6" width="1" height="2" fill="#D9D9D9"/>
<rect x="3" y="5" width="1" height="2" transform="rotate(180 3 5)" fill="#D9D9D9"/>
<rect x="3" y="11" width="1" height="2" transform="rotate(180 3 11)" fill="#D9D9D9"/>
<rect x="9" y="5" width="1" height="2" transform="rotate(180 9 5)" fill="#D9D9D9"/>
<rect x="9" y="11" width="1" height="2" transform="rotate(180 9 11)" fill="#D9D9D9"/>
</g>
</pattern></defs>
</svg>
