<svg width="60" height="60" viewBox="0 0 60 60" fill="none" xmlns="http://www.w3.org/2000/svg" xmlns:xlink="http://www.w3.org/1999/xlink">
<rect width="60" height="60" fill="url(#pattern0_2021_464)" fill-opacity="0.1"/>
<path fill-rule="evenodd" clip-rule="evenodd" d="M35.4462 12.5097C35.952 12.2988 36.7951 12.2585 37.3476 12.1805C38.8423 11.9693 40.5511 11.9185 41.9889 11.4836C42.8896 11.2112 43.923 10.6867 44.7964 10.2857L49.4461 8.17124C50.1768 7.8422 50.9226 7.48037 51.6641 7.17998C52.7434 6.7428 53.9516 7.09995 54.3609 8.27451C54.5144 8.70487 54.5272 9.17291 54.3972 9.61121C54.2154 10.2245 53.7265 10.914 53.3717 11.4585L51.2748 14.6319C50.9212 15.166 50.5067 15.6876 50.2321 16.2685C50.5872 17.0391 51.4509 17.9741 51.4731 18.8464C51.4987 19.8558 51.3633 20.9972 51.2787 22.0129L50.6325 29.6939C50.5281 30.9325 50.5664 32.2557 49.6921 33.2488C49.1705 33.8194 48.5542 34.3111 47.9945 34.8441C47.6224 35.1983 47.297 35.3751 47.3192 35.9347C47.3361 36.4117 47.4069 37.2351 47.1071 37.6314C46.5062 38.4261 45.1219 39.2029 44.2352 39.6161C41.9033 40.7029 39.4548 41.7677 37.0285 42.6104C34.406 43.5212 31.3428 43.6115 28.5961 43.817C28.2382 43.8432 27.6688 43.818 27.3359 43.903C26.0027 44.2433 24.6879 44.6799 23.362 45.0523C22.6719 45.2492 22.0163 45.4838 21.3281 45.6574C19.9873 46.0789 18.2985 46.4722 17.1072 47.1642C16.4667 47.5362 15.4949 48.3428 14.8823 48.8268L11.4133 51.5537C10.8402 51.9976 10.2052 52.5322 9.56998 52.8717C9.2553 53.0399 8.96499 53.0482 8.63342 53.0677C8.07448 53.1005 7.41171 52.8023 7.03917 52.3862C6.32236 51.5854 4.97943 50.5561 5.00024 49.3613C5.01509 48.4438 5.7714 47.8996 6.40448 47.3659L7.92015 46.0887C8.32061 45.7511 8.83429 45.3436 9.16195 44.9443C9.92734 44.0118 10.4512 42.8166 11.0308 41.7618C11.6225 40.6849 12.2273 39.4412 12.8805 38.407C13.6245 37.2289 14.8099 35.8017 15.8049 34.8211C16.6883 34.0453 17.6117 33.2643 18.5421 32.544C19.5827 31.7383 20.7153 30.2622 21.9717 31.5892C23.2588 31.1612 24.6496 30.7655 25.9524 30.3682L33.2361 28.1C34.6847 27.6539 34.7619 27.6056 36.2516 27.8206C36.4369 27.0547 36.7587 26.0772 36.8957 25.3212C35.1594 21.8352 32.6255 19.5267 33.6945 15.316C34.0556 13.8944 33.7534 13.2462 35.4462 12.5097ZM36.0917 14.2467C34.7625 14.6693 35.3364 18.4172 35.6417 19.2192C35.8407 19.7414 36.1669 20.2925 36.4364 20.7748C36.9328 21.6579 37.4346 22.5379 37.9422 23.4145C38.1983 23.8504 38.6905 24.5768 38.7283 25.066C38.793 25.9034 38.4472 26.7678 38.2412 27.5523C38.1063 28.0662 38.0042 28.6243 37.6486 29.041C37.4042 29.3274 37.0669 29.5392 36.6967 29.6152C35.9889 29.7606 35.2617 29.3851 34.5667 29.61C31.404 30.6338 28.2191 31.5873 25.0418 32.5645C24.0591 32.863 23.0884 33.1834 22.1073 33.4813C21.944 33.5309 21.7722 33.5492 21.6024 33.5264C21.288 33.4841 21.014 33.3075 20.7847 33.0972C19.5422 34.1093 18.2538 35.0849 17.0912 36.192C16.3322 36.9148 15.6417 37.702 15.0345 38.556C13.8419 40.2334 12.9388 42.119 11.9794 43.9303C11.5974 44.6514 11.2059 45.3823 10.681 46.0125C9.59299 47.3188 8.10095 48.2023 6.89752 49.3902C7.14927 49.7055 8.31422 51.1761 8.61902 51.2183C9.32885 51.079 9.9614 50.3457 10.5073 49.9205L13.8344 47.2991C14.554 46.731 15.3579 46.0561 16.1368 45.5935C17.599 44.725 19.2939 44.3913 20.8948 43.8713C22.9437 43.3214 24.9848 42.5713 27.0472 42.0824C27.5821 41.9556 28.6359 41.9785 29.2155 41.942C30.5545 41.8568 31.8908 41.7324 33.2226 41.5689C33.9194 41.4768 35.3179 41.249 35.9734 41.0266C37.2642 40.5886 38.5381 40.0938 39.7923 39.5613C40.9535 39.0682 42.4797 38.4701 43.7925 37.7779C44.3861 37.4649 44.9729 37.1206 45.496 36.6976C45.4835 36.3026 45.4593 35.9054 45.4961 35.5109C45.5346 35.0994 45.6524 34.7041 45.8867 34.3623C46.0988 34.0527 46.3899 33.7998 46.6659 33.5488C47.1733 33.0873 47.7055 32.651 48.1805 32.1552C48.9551 31.3472 48.7582 29.8801 48.8409 28.9083L49.5089 20.96C49.5724 20.1925 49.7678 19.3743 49.4717 18.6306C49.3667 18.3668 49.2093 18.1464 49.0404 17.9211C48.7338 17.5121 48.4744 17.0446 48.4171 16.529C48.2947 15.4282 49.166 14.459 49.7291 13.6115C50.4592 12.5054 51.1787 11.3916 51.9265 10.2973C52.0858 10.0642 52.7918 9.24099 52.5792 8.86064C52.5254 8.86432 52.4365 8.88825 52.3232 8.92678C51.5339 9.19522 50.7829 9.58829 50.027 9.93262L46.0165 11.754C44.737 12.3426 43.4649 12.9978 42.0964 13.3611C40.7421 13.7205 39.3358 13.7805 37.9532 13.9676C37.3366 14.051 36.6898 14.0566 36.0917 14.2467Z" fill="white"/>
<defs>
<pattern id="pattern0_2021_464" patternUnits="userSpaceOnUse" patternTransform="matrix(12 0 0 12 0 0)" preserveAspectRatio="none" viewBox="0 0 12 12" width="1" height="1">
<g id="pattern0_2021_464_inner">
<rect y="2" width="3" height="1" fill="#D9D9D9"/>
<rect y="8" width="3" height="1" fill="#D9D9D9"/>
<rect x="6" y="2" width="3" height="1" fill="#D9D9D9"/>
<rect x="6" y="8" width="3" height="1" fill="#D9D9D9"/>
<rect x="5" y="3" width="3" height="1" transform="rotate(180 5 3)" fill="#D9D9D9"/>
<rect x="5" y="9" width="3" height="1" transform="rotate(180 5 9)" fill="#D9D9D9"/>
<rect x="11" y="3" width="3" height="1" transform="rotate(180 11 3)" fill="#D9D9D9"/>
<rect x="11" y="9" width="3" height="1" transform="rotate(180 11 9)" fill="#D9D9D9"/>
<rect x="2" width="1" height="2" fill="#D9D9D9"/>
<rect x="2" y="6" width="1" height="2" fill="#D9D9D9"/>
<rect x="8" width="1" height="2" fill="#D9D9D9"/>
<rect x="8" y="6" width="1" height="2" fill="#D9D9D9"/>
<rect x="3" y="5" width="1" height="2" transform="rotate(180 3 5)" fill="#D9D9D9"/>
<rect x="3" y="11" width="1" height="2" transform="rotate(180 3 11)" fill="#D9D9D9"/>
<rect x="9" y="5" width="1" height="2" transform="rotate(180 9 5)" fill="#D9D9D9"/>
<rect x="9" y="11" width="1" height="2" transform="rotate(180 9 11)" fill="#D9D9D9"/>
</g>
</pattern></defs>
</svg>
