<svg width="60" height="60" viewBox="0 0 60 60" fill="none" xmlns="http://www.w3.org/2000/svg" xmlns:xlink="http://www.w3.org/1999/xlink">
<rect width="60" height="60" fill="url(#pattern0_250_6)" fill-opacity="0.1"/>
<path d="M34.6011 42.3809L45.6122 42.2621C45.6122 42.2621 47.0045 42.2346 47.6513 42.072C48.2982 41.9093 48.902 41.6001 49.4505 41.3116C49.999 41.0231 50.5253 40.7221 50.9379 40.3611C51.3504 40.0002 51.6967 39.5676 51.9214 39.1968C52.1462 38.826 52.2401 38.5467 52.3293 38.1988C52.4342 37.7894 52.4826 37.3618 52.4732 36.9395C52.4665 36.6348 52.4056 36.3309 52.3293 36.0365C52.2529 35.7422 52.0174 35.1811 52.0174 35.1811L50.9763 32.5237C50.9763 32.5237 50.8677 32.2445 51.0089 31.9639C51.15 31.6833 51.3581 31.4994 51.6003 31.38C51.8425 31.2607 51.9669 31.2006 52.4422 31.1904C52.9175 31.1802 53.3229 31.1703 53.7678 31.1681C54.2126 31.1659 54.4578 31.1474 55.0481 31.1497C55.4814 31.1376 55.7386 31.1069 56.3541 31.062C56.7309 31.0261 56.8686 30.7902 56.973 30.5095C57.0147 30.2982 57.0184 24.65 56.909 24.0275C56.7996 23.4051 56.5775 22.7366 56.2936 22.1373C56.0365 21.5946 55.7219 21.0677 55.3208 20.6189C54.9183 20.1686 54.3682 19.8203 53.9126 19.4748C53.4569 19.1293 53.03 18.838 52.4732 18.6194C51.9164 18.4007 50.602 18.2154 50.602 18.2154L46.3559 17.5026C46.3559 17.5026 45.5613 17.4885 45.2044 17.5263C44.8475 17.5642 44.5736 17.5975 44.2208 17.7164C43.8681 17.8354 43.3313 18.0841 43.1173 18.2629C42.9033 18.4418 42.9075 18.4676 42.8534 18.6194C42.7994 18.7711 42.8295 19.1421 42.8295 19.1421L43.0694 23.1103C43.0694 23.1103 43.0577 23.3849 42.9974 23.4667C42.9371 23.5486 42.7815 23.5855 42.7815 23.5855C42.7815 23.5855 41.8123 23.5908 41.558 23.6806C41.3037 23.7703 40.9619 23.9244 40.7424 24.0845C40.5228 24.2447 40.3897 24.4121 40.2626 24.631C40.1355 24.85 40.1167 25.05 40.0707 25.2963C40.0246 25.5427 40.0707 26.1042 40.0707 26.1042C40.0789 27.0001 40.0825 27.9156 40.0551 28.8518C40.0325 29.2054 40.0892 29.7283 39.9175 29.9161C39.7458 30.1038 39.1507 30.0053 38.7648 30.011C38.1165 30.0233 37.3345 29.9691 36.5202 30.0011L18.6721 30.0249C18.6721 30.0249 12.3773 29.9841 12.0094 29.9981C11.6416 30.012 11.5268 30.1121 11.4164 30.2301C11.3018 30.337 11.1465 30.6715 11.0185 30.8954C10.9283 31.0818 10.7328 31.2329 10.5478 31.3104C10.3482 31.3939 9.86682 31.4029 9.26827 31.3793C8.66972 31.3557 5.02214 31.4031 5.02214 31.4031C5.02214 31.4031 4.44092 31.5873 4.18251 31.7357C3.92411 31.8841 3.68446 32.0493 3.48682 32.2822C3.28919 32.5152 3.09416 32.8321 3.03102 33.1139C2.96788 33.3957 3.00984 33.5953 3.079 33.898C3.14817 34.2007 3.48682 34.896 3.48682 34.896C3.48682 34.896 4.1143 36.3232 4.51837 36.8207C4.92243 37.3182 5.39397 37.6495 5.78981 37.8899C6.18564 38.1304 6.45136 38.2126 6.82135 38.3176C7.19134 38.4227 7.4872 38.4766 7.99683 38.5077C8.50646 38.5389 9.27931 38.4214 9.73699 38.4624C10.1947 38.5034 10.488 38.5766 10.7316 38.6914C10.9753 38.8063 11.2143 38.9809 11.3729 39.1948C11.5314 39.4087 11.5913 39.6603 11.6585 39.9897C11.7258 40.3192 11.6716 41.089 11.6716 41.089C11.6716 41.089 11.6526 41.6284 11.6364 41.8583C11.6177 42.1248 11.4487 42.3401 11.8298 42.4505C12.2109 42.5609 17.2567 42.4521 17.2567 42.4521L34.6011 42.3809Z" stroke="white" stroke-width="1.5"/>
<defs>
<pattern id="pattern0_250_6" patternUnits="userSpaceOnUse" patternTransform="matrix(12 0 0 12 0 0)" preserveAspectRatio="none" viewBox="0 0 12 12" width="1" height="1">
<g id="pattern0_250_6_inner">
<rect y="2" width="3" height="1" fill="#D9D9D9"/>
<rect y="8" width="3" height="1" fill="#D9D9D9"/>
<rect x="6" y="2" width="3" height="1" fill="#D9D9D9"/>
<rect x="6" y="8" width="3" height="1" fill="#D9D9D9"/>
<rect x="5" y="3" width="3" height="1" transform="rotate(180 5 3)" fill="#D9D9D9"/>
<rect x="5" y="9" width="3" height="1" transform="rotate(180 5 9)" fill="#D9D9D9"/>
<rect x="11" y="3" width="3" height="1" transform="rotate(180 11 3)" fill="#D9D9D9"/>
<rect x="11" y="9" width="3" height="1" transform="rotate(180 11 9)" fill="#D9D9D9"/>
<rect x="2" width="1" height="2" fill="#D9D9D9"/>
<rect x="2" y="6" width="1" height="2" fill="#D9D9D9"/>
<rect x="8" width="1" height="2" fill="#D9D9D9"/>
<rect x="8" y="6" width="1" height="2" fill="#D9D9D9"/>
<rect x="3" y="5" width="1" height="2" transform="rotate(180 3 5)" fill="#D9D9D9"/>
<rect x="3" y="11" width="1" height="2" transform="rotate(180 3 11)" fill="#D9D9D9"/>
<rect x="9" y="5" width="1" height="2" transform="rotate(180 9 5)" fill="#D9D9D9"/>
<rect x="9" y="11" width="1" height="2" transform="rotate(180 9 11)" fill="#D9D9D9"/>
</g>
</pattern></defs>
</svg>
