<svg width="60" height="60" viewBox="0 0 60 60" fill="none" xmlns="http://www.w3.org/2000/svg" xmlns:xlink="http://www.w3.org/1999/xlink">
<rect width="60" height="60" fill="url(#pattern0_250_7)" fill-opacity="0.1"/>
<path d="M33.2309 42.8403L48.7116 42.6805C48.7116 42.6805 49.7111 42.6152 50.2643 42.4752C50.8174 42.3352 51.4186 42.1197 51.9996 41.8134C52.5806 41.5072 53.2134 41.0542 53.7121 40.6268C54.2107 40.1995 54.5732 39.8157 54.9907 39.2805C55.4082 38.7453 55.8827 38.0056 56.178 37.4094C56.4734 36.8132 56.6654 36.2233 56.7945 35.7436C56.9236 35.264 57 34.557 57 34.557L56.9315 25.4295C56.9315 25.4295 56.919 24.7292 56.8402 24.3114C56.7613 23.8936 56.6494 23.4736 56.4292 22.9423C56.2089 22.4109 55.8333 21.723 55.4702 21.1624C55.1071 20.6018 54.7932 20.1146 54.26 19.5879C53.7269 19.0612 52.8658 18.4273 52.2507 18.0819C51.6357 17.7364 51.2474 17.619 50.6524 17.4429C50.0574 17.2669 49.822 17.1788 48.6888 17.055C47.5556 16.9312 41.6562 17.055 41.6562 17.055L11.2199 17.1691C11.2199 17.1691 10.0757 17.321 9.46173 17.5114C8.84778 17.7017 8.11884 18.0179 7.5666 18.3329C7.01436 18.6478 6.58229 18.9809 6.15095 19.3597C5.71961 19.7385 5.37819 20.0881 4.98647 20.5919C4.59475 21.0958 4.14343 21.7925 3.84482 22.3946C3.54621 22.9968 3.31431 23.6516 3.18266 24.1745C3.05102 24.6973 3 25.498 3 25.498V34.5342C3 34.5342 3.15876 35.7871 3.31966 36.3369C3.48056 36.8867 3.67006 37.3334 3.93615 37.8201C4.20224 38.3069 4.56662 38.7932 4.91797 39.2349C5.26932 39.6766 5.61798 40.073 6.03679 40.4671C6.45559 40.8612 6.98555 41.3007 7.4296 41.5852C7.87365 41.8698 8.1315 41.9869 8.66258 42.2013C9.19366 42.4158 9.92231 42.6801 10.6262 42.8174C11.3301 42.9548 12.8638 43 12.8638 43L25.97 42.8631L33.2309 42.8403Z" stroke="white" stroke-width="1.5"/>
<defs>
<pattern id="pattern0_250_7" patternUnits="userSpaceOnUse" patternTransform="matrix(12 0 0 12 0 0)" preserveAspectRatio="none" viewBox="0 0 12 12" width="1" height="1">
<g id="pattern0_250_7_inner">
<rect y="2" width="3" height="1" fill="#D9D9D9"/>
<rect y="8" width="3" height="1" fill="#D9D9D9"/>
<rect x="6" y="2" width="3" height="1" fill="#D9D9D9"/>
<rect x="6" y="8" width="3" height="1" fill="#D9D9D9"/>
<rect x="5" y="3" width="3" height="1" transform="rotate(180 5 3)" fill="#D9D9D9"/>
<rect x="5" y="9" width="3" height="1" transform="rotate(180 5 9)" fill="#D9D9D9"/>
<rect x="11" y="3" width="3" height="1" transform="rotate(180 11 3)" fill="#D9D9D9"/>
<rect x="11" y="9" width="3" height="1" transform="rotate(180 11 9)" fill="#D9D9D9"/>
<rect x="2" width="1" height="2" fill="#D9D9D9"/>
<rect x="2" y="6" width="1" height="2" fill="#D9D9D9"/>
<rect x="8" width="1" height="2" fill="#D9D9D9"/>
<rect x="8" y="6" width="1" height="2" fill="#D9D9D9"/>
<rect x="3" y="5" width="1" height="2" transform="rotate(180 3 5)" fill="#D9D9D9"/>
<rect x="3" y="11" width="1" height="2" transform="rotate(180 3 11)" fill="#D9D9D9"/>
<rect x="9" y="5" width="1" height="2" transform="rotate(180 9 5)" fill="#D9D9D9"/>
<rect x="9" y="11" width="1" height="2" transform="rotate(180 9 11)" fill="#D9D9D9"/>
</g>
</pattern></defs>
</svg>
