<svg width="60" height="60" viewBox="0 0 60 60" fill="none" xmlns="http://www.w3.org/2000/svg" xmlns:xlink="http://www.w3.org/1999/xlink">
<rect width="60" height="60" fill="url(#pattern0_250_5)" fill-opacity="0.1"/>
<path d="M47.1031 35.6853L34.4081 35.7697L32.4851 35.7879L26.4926 35.8244L18.874 35.8792L16.3405 35.8988C15.0315 35.9021 13.4908 35.966 12.448 35.0358C11.2603 33.9763 10.2815 32.2016 10.0645 30.626C9.91824 29.5637 10.5622 28.8967 11.1796 28.1487L12.3443 26.7459L17.5417 20.5106L19.1494 18.5824C19.8239 17.7762 20.5107 17.077 20.7497 16.0104C21.0355 14.7713 20.4607 13.541 20.0071 12.4121C19.6539 11.5546 19.2967 10.517 18.6027 9.87131C17.9532 9.26704 16.6509 9.43834 16.1135 10.1104C15.6746 10.6593 15.7671 11.6427 15.7839 12.3126L15.8357 14.5056C15.8524 15.3287 15.9242 16.4828 15.6782 17.2704C15.5481 17.6871 15.0275 18.3518 14.7593 18.7313C14.2589 19.4335 13.7542 20.1326 13.2451 20.8287C12.5791 21.7494 11.9138 22.6819 11.2343 23.5986C10.857 24.1075 10.3204 24.5455 9.74996 24.8635C7.94603 25.8692 4.23258 25.4174 3.26761 27.4991C2.94843 28.1877 2.97149 29.4746 3.04946 30.2438C3.08534 30.5977 3.17792 31.2466 3.22784 31.6315C3.37947 32.8007 3.43335 34.7875 4.42287 35.5822C4.71616 35.8175 5.12666 35.9569 5.49708 36.0178C6.48946 36.1809 8.10421 35.8994 8.30267 37.2363C8.4835 38.4546 7.56702 40.5449 8.68042 41.4026C9.12834 41.7477 10.0097 42.0793 10.5896 41.9828C11.8347 41.7757 12.6664 40.3582 13.7926 39.8458C14.0782 39.7158 14.4801 39.645 14.7808 39.7047C15.3329 39.8148 16.0936 40.1038 16.6218 40.3087C18.5475 41.0557 20.6212 41.7978 22.2978 43.0139C23.4775 43.8693 24.3475 44.9822 25.0658 46.2284C25.4591 46.9107 25.7762 47.5814 26.3631 48.1309C26.6631 48.4117 27.0753 48.5748 27.4833 48.5992C28.3223 48.6492 29.2711 48.6133 30.1163 48.5995L34.5342 48.5425L38.2787 48.5002C40.1217 48.4769 41.508 48.6639 42.6908 46.9832C43.4028 45.9709 43.9269 44.9468 44.4188 43.8148C44.9829 42.6618 45.3015 41.2499 46.1402 40.2667C46.5138 39.8289 47.2838 39.5598 47.8154 39.5003C50.0416 39.2517 51.7535 39.7611 52.103 42.2198C52.1523 42.5664 52.1137 42.89 51.8776 43.187C51.3572 43.7423 50.4698 44.3478 49.8486 44.8074L46.8427 47.028C46.3684 47.3773 45.7568 47.7543 45.4122 48.217C44.9368 48.8777 45.4293 49.7115 45.9788 50.1386C46.2795 50.3723 46.7927 50.5639 47.1624 50.4799C47.8834 50.3156 48.7775 49.6521 49.3869 49.2602L51.6721 47.7974L54.2722 46.1325C54.7454 45.8293 55.2421 45.4833 55.7222 45.1929C56.8784 44.4941 56.6519 43.1015 56.8269 41.9416C56.9139 41.3655 57.0389 40.6992 56.9883 40.1204C56.8681 39.0191 55.4963 37.9654 54.6542 37.3221C53.9156 36.7579 52.6948 35.9456 51.7789 35.7334C51.2719 35.6159 50.2214 35.6596 49.6467 35.6654L47.1031 35.6853Z" stroke="white" stroke-width="1.5"/>
<defs>
<pattern id="pattern0_250_5" patternUnits="userSpaceOnUse" patternTransform="matrix(12 0 0 12 0 0)" preserveAspectRatio="none" viewBox="0 0 12 12" width="1" height="1">
<g id="pattern0_250_5_inner">
<rect y="2" width="3" height="1" fill="#D9D9D9"/>
<rect y="8" width="3" height="1" fill="#D9D9D9"/>
<rect x="6" y="2" width="3" height="1" fill="#D9D9D9"/>
<rect x="6" y="8" width="3" height="1" fill="#D9D9D9"/>
<rect x="5" y="3" width="3" height="1" transform="rotate(180 5 3)" fill="#D9D9D9"/>
<rect x="5" y="9" width="3" height="1" transform="rotate(180 5 9)" fill="#D9D9D9"/>
<rect x="11" y="3" width="3" height="1" transform="rotate(180 11 3)" fill="#D9D9D9"/>
<rect x="11" y="9" width="3" height="1" transform="rotate(180 11 9)" fill="#D9D9D9"/>
<rect x="2" width="1" height="2" fill="#D9D9D9"/>
<rect x="2" y="6" width="1" height="2" fill="#D9D9D9"/>
<rect x="8" width="1" height="2" fill="#D9D9D9"/>
<rect x="8" y="6" width="1" height="2" fill="#D9D9D9"/>
<rect x="3" y="5" width="1" height="2" transform="rotate(180 3 5)" fill="#D9D9D9"/>
<rect x="3" y="11" width="1" height="2" transform="rotate(180 3 11)" fill="#D9D9D9"/>
<rect x="9" y="5" width="1" height="2" transform="rotate(180 9 5)" fill="#D9D9D9"/>
<rect x="9" y="11" width="1" height="2" transform="rotate(180 9 11)" fill="#D9D9D9"/>
</g>
</pattern></defs>
</svg>
