<svg width="60" height="60" viewBox="0 0 60 60" fill="none" xmlns="http://www.w3.org/2000/svg" xmlns:xlink="http://www.w3.org/1999/xlink">
<rect width="60" height="60" fill="url(#pattern0_250_4)" fill-opacity="0.1"/>
<path d="M43.6463 42.692C47.2115 41.6935 50.8084 40.7778 54.3398 39.6897C54.9226 39.5101 55.269 39.2546 55.7768 38.9245C56.2184 38.6374 56.5076 38.2953 56.7818 37.8736C56.974 37.578 57.0347 37.1184 56.9816 36.7728C56.9348 36.4679 56.7137 36.1502 56.4819 35.9222C55.7643 35.2161 54.9731 34.7127 54.3277 33.9707C54.0737 33.6786 54.1564 33.3947 54.1723 33.0144C54.1898 32.5941 54.4387 32.1661 54.622 31.7634C55.0384 30.8484 55.7176 29.7716 55.9888 28.8314C56.1506 28.2705 55.9992 27.6259 55.9389 27.03C55.8826 26.475 55.8299 25.8963 55.639 25.3787C55.4301 24.8121 55.0995 24.269 54.7396 23.7775C54.1834 23.018 53.6298 22.1883 52.8907 21.6258C51.9641 20.9207 50.7818 20.3725 49.6366 20.0984C45.6559 19.1457 41.6106 18.1895 37.55 17.2725C31.5667 15.9211 25.6719 14.3187 19.6816 13.0632C19.2259 12.9677 18.7074 12.9774 18.2825 13.1132C17.9245 13.2276 17.4635 13.6016 17.2624 13.9199C16.9471 14.4189 16.782 15.0685 16.6627 15.6713C16.4156 16.9199 16.0681 18.1853 15.9687 19.4565C15.9182 20.1034 16.0653 20.8079 16.213 21.4257C16.3485 21.9922 16.6908 22.5283 17.0125 23.0269C17.3904 23.6124 17.7507 24.2649 18.3117 24.6782C22.6643 27.8843 27.314 30.7629 31.7536 33.8852C32.2943 34.2656 32.8961 34.6596 33.2527 35.1862C33.5624 35.6437 33.6664 36.2741 33.7524 36.8375C33.8496 37.475 33.9366 38.1662 33.8023 38.789C33.6201 39.6339 33.2409 40.4953 32.8029 41.2409C32.5746 41.6295 32.2091 41.9992 31.8035 42.1916C30.9432 42.5997 29.954 42.8257 29.0052 43.0423C27.6887 43.3428 26.3383 43.6275 25.0077 43.7428C24.606 43.7776 24.312 43.7804 23.9674 43.5988C23.7671 43.4932 23.5771 43.3115 23.4314 43.1136C23.3674 43.0265 23.3119 42.9364 23.2678 42.8482C23.1622 42.6366 23.1579 42.3304 23.2179 42.0976C23.2911 41.8133 23.5052 41.5562 23.6676 41.297C24.0382 40.7056 24.5464 40.1706 24.8169 39.5456C24.9795 39.1699 24.8978 38.5736 24.8078 38.1885C24.7146 37.7897 24.3974 37.4028 24.1082 37.0877C23.831 36.7856 23.3589 36.58 22.9852 36.461C22.626 36.3465 22.1526 36.3861 21.7859 36.511C21.3198 36.6697 21.1423 37.0075 20.7694 37.347C20.043 38.0083 19.4607 38.8384 18.7706 39.5487C18.2615 40.0726 17.6401 40.5491 17.0125 40.8906C16.1077 41.3831 15.0281 41.6127 14.0144 41.8914C13.3291 42.0798 12.7438 42.2348 12.11 42.1325C11.7111 42.068 11.2898 41.5907 11.1106 41.2318C10.99 40.9902 11.1205 40.667 11.2635 40.4195C11.4869 40.0331 11.9406 39.6746 12.2806 39.348C13.5729 38.1067 14.8115 37.1509 15.9132 35.7867C16.3606 35.2328 16.5186 34.4377 16.6627 33.7351C16.7684 33.2201 16.7709 32.6485 16.6627 32.1339C16.5044 31.3809 16.1407 30.6371 15.6866 30.0383C15.1413 29.3194 14.2762 28.7898 13.4879 28.287C11.2947 26.8883 9.01389 25.6867 6.72434 24.4755C6.3655 24.2857 5.86794 24.1285 5.52507 24.2253C5.21834 24.3119 4.92825 24.6982 4.77552 25.0259C4.11208 26.4495 3.73073 27.7204 3.27089 29.2317C3.08112 29.8554 2.9461 30.5386 3.02105 31.1832C3.22926 32.9738 3.71858 34.7821 4.27938 36.5019C4.7846 38.0513 5.60183 39.3581 6.44877 40.743C6.9177 41.5098 7.5732 42.2325 8.29764 42.7445C8.989 43.2332 9.8247 43.5797 10.6609 43.7984C14.2886 44.7473 17.8664 45.4592 21.5482 46.3003C22.8722 46.6028 24.1557 46.9701 25.5074 46.9953C26.8374 47.0201 28.2071 46.9529 29.5049 46.645C34.2534 45.5185 38.9332 44.012 43.6463 42.692Z" stroke="white" stroke-width="1.5"/>
<defs>
<pattern id="pattern0_250_4" patternUnits="userSpaceOnUse" patternTransform="matrix(12 0 0 12 0 0)" preserveAspectRatio="none" viewBox="0 0 12 12" width="1" height="1">
<g id="pattern0_250_4_inner">
<rect y="2" width="3" height="1" fill="#D9D9D9"/>
<rect y="8" width="3" height="1" fill="#D9D9D9"/>
<rect x="6" y="2" width="3" height="1" fill="#D9D9D9"/>
<rect x="6" y="8" width="3" height="1" fill="#D9D9D9"/>
<rect x="5" y="3" width="3" height="1" transform="rotate(180 5 3)" fill="#D9D9D9"/>
<rect x="5" y="9" width="3" height="1" transform="rotate(180 5 9)" fill="#D9D9D9"/>
<rect x="11" y="3" width="3" height="1" transform="rotate(180 11 3)" fill="#D9D9D9"/>
<rect x="11" y="9" width="3" height="1" transform="rotate(180 11 9)" fill="#D9D9D9"/>
<rect x="2" width="1" height="2" fill="#D9D9D9"/>
<rect x="2" y="6" width="1" height="2" fill="#D9D9D9"/>
<rect x="8" width="1" height="2" fill="#D9D9D9"/>
<rect x="8" y="6" width="1" height="2" fill="#D9D9D9"/>
<rect x="3" y="5" width="1" height="2" transform="rotate(180 3 5)" fill="#D9D9D9"/>
<rect x="3" y="11" width="1" height="2" transform="rotate(180 3 11)" fill="#D9D9D9"/>
<rect x="9" y="5" width="1" height="2" transform="rotate(180 9 5)" fill="#D9D9D9"/>
<rect x="9" y="11" width="1" height="2" transform="rotate(180 9 11)" fill="#D9D9D9"/>
</g>
</pattern></defs>
</svg>
