<svg width="60" height="60" viewBox="0 0 60 60" fill="none" xmlns="http://www.w3.org/2000/svg" xmlns:xlink="http://www.w3.org/1999/xlink">
<rect width="60" height="60" fill="url(#pattern0_250_2)" fill-opacity="0.1"/>
<path d="M35.4954 39.5481C29.4934 41.4494 23.5035 43.3897 17.4794 45.2201C17.0066 45.3638 16.5097 45.4226 16.0174 45.4668C15.5907 45.5051 15.1576 45.5167 14.7322 45.4668C14.2521 45.4104 13.7709 45.3163 13.3173 45.1497C12.7302 44.934 12.1676 44.6487 11.6313 44.3277C11.3056 44.1327 11.0113 43.8832 10.747 43.6113C10.5277 43.3857 10.3572 43.1159 10.1928 42.848C8.02215 39.3102 5.84022 35.7785 3.74338 32.1968C3.50735 31.7936 3.31772 31.357 3.20102 30.905C3.06784 30.3892 3.00607 29.8523 3.00058 29.3197C2.99421 28.7027 3.03972 28.0801 3.16565 27.476C3.27732 26.9402 3.48098 26.4241 3.70801 25.9259C3.92699 25.4453 4.16384 24.9615 4.49798 24.5519C4.88728 24.0747 5.34806 23.6478 5.8539 23.2954C6.46917 22.8666 7.14003 22.5107 7.83471 22.2267C8.35587 22.0137 8.91771 21.9067 9.4736 21.8157C24.6287 19.3346 39.7836 16.8495 54.9616 14.5113C55.2503 14.4669 55.5544 14.5597 55.8223 14.6757C56.1093 14.8 56.3968 14.9697 56.5887 15.2159C56.7941 15.4795 56.9045 15.8157 56.966 16.1437C57.0288 16.4785 56.9925 16.8269 56.9542 17.1653C56.9213 17.4569 56.8511 17.7457 56.7538 18.0226C56.63 18.3749 56.4796 18.7201 56.294 19.0443C56.1124 19.3613 55.9145 19.6769 55.6573 19.9368C55.3542 20.2428 55.008 20.5134 54.6315 20.7236C54.2844 20.9173 53.9038 21.0692 53.5114 21.1346C42.228 23.0158 30.9055 24.6602 19.6253 26.56C19.2942 26.6158 18.9844 26.7917 18.7174 26.9945C18.4275 27.2147 18.1482 27.4485 17.9392 27.7461C17.7519 28.0129 17.6311 28.3615 17.5384 28.6738C17.4624 28.9295 17.4735 29.2063 17.4912 29.4723C17.5092 29.7428 17.5407 30.0204 17.6445 30.2709C17.7763 30.5893 17.9941 30.8657 18.1868 31.1516C19.1577 32.5922 19.9857 33.9787 21.0755 35.3323C21.3388 35.6592 21.8145 35.9531 22.1956 36.1308C22.5022 36.2738 22.8386 36.3575 23.1742 36.4009C23.9946 36.5071 24.8298 36.321 25.6149 36.0838C34.4703 33.4091 43.216 30.384 52.0611 27.6756C52.2342 27.6226 52.6614 27.6507 53.0162 27.7532C53.3101 27.8381 53.6011 27.9562 53.8533 28.129C54.1006 28.2984 54.3394 28.5046 54.49 28.7631C54.7172 29.1531 54.8771 29.5885 54.9616 30.0314C55.0291 30.3853 55.0009 30.6795 54.938 31.0342C54.8698 31.4194 54.7364 31.7944 54.5725 32.1498C54.4237 32.4726 54.2339 32.7804 54.0066 33.0541C53.7973 33.3061 53.5533 33.5372 53.2756 33.7117C52.9289 33.9294 52.5448 34.0893 52.1555 34.2167C46.596 36.0355 41.0718 37.7816 35.4954 39.5481Z" stroke="white" stroke-width="1.5"/>
<defs>
<pattern id="pattern0_250_2" patternUnits="userSpaceOnUse" patternTransform="matrix(12 0 0 12 0 0)" preserveAspectRatio="none" viewBox="0 0 12 12" width="1" height="1">
<g id="pattern0_250_2_inner">
<rect y="2" width="3" height="1" fill="#D9D9D9"/>
<rect y="8" width="3" height="1" fill="#D9D9D9"/>
<rect x="6" y="2" width="3" height="1" fill="#D9D9D9"/>
<rect x="6" y="8" width="3" height="1" fill="#D9D9D9"/>
<rect x="5" y="3" width="3" height="1" transform="rotate(180 5 3)" fill="#D9D9D9"/>
<rect x="5" y="9" width="3" height="1" transform="rotate(180 5 9)" fill="#D9D9D9"/>
<rect x="11" y="3" width="3" height="1" transform="rotate(180 11 3)" fill="#D9D9D9"/>
<rect x="11" y="9" width="3" height="1" transform="rotate(180 11 9)" fill="#D9D9D9"/>
<rect x="2" width="1" height="2" fill="#D9D9D9"/>
<rect x="2" y="6" width="1" height="2" fill="#D9D9D9"/>
<rect x="8" width="1" height="2" fill="#D9D9D9"/>
<rect x="8" y="6" width="1" height="2" fill="#D9D9D9"/>
<rect x="3" y="5" width="1" height="2" transform="rotate(180 3 5)" fill="#D9D9D9"/>
<rect x="3" y="11" width="1" height="2" transform="rotate(180 3 11)" fill="#D9D9D9"/>
<rect x="9" y="5" width="1" height="2" transform="rotate(180 9 5)" fill="#D9D9D9"/>
<rect x="9" y="11" width="1" height="2" transform="rotate(180 9 11)" fill="#D9D9D9"/>
</g>
</pattern></defs>
</svg>
