<svg width="60" height="60" viewBox="0 0 60 60" fill="none" xmlns="http://www.w3.org/2000/svg" xmlns:xlink="http://www.w3.org/1999/xlink">
<rect width="60" height="60" fill="url(#pattern0_184_936)" fill-opacity="0.1"/>
<path d="M36.3578 36.6325C35.4422 33.5714 33.9551 30.707 32.7927 27.7309C29.7429 20.4004 26.5838 13.1077 23.6024 5.75361C23.0146 3.7323 25.1696 2.73605 26.8261 3.06026C29.6768 3.07515 32.5428 2.95176 35.3839 3.05347C37.564 3.7347 36.3793 6.15851 34.8389 6.79023C33.0456 7.84335 31.7638 9.82527 32.1751 11.9696C32.343 14.7457 32.0098 17.7177 33.3368 20.2744C34.5537 22.8704 37.5136 23.4108 40.0656 23.6699C44.443 24.2704 48.6625 24.8223 52.912 25.5698C56.7075 26.8761 57.02 32.8382 53.7619 34.916C45.3712 41.7914 36.9806 48.6667 28.5899 55.5421C27.0926 56.4815 26.166 55.8535 25.9463 54.7591C25.7854 53.9577 26.2363 52.9062 26.6542 52.0368C27.7131 49.8243 29.2218 46.8401 30.5898 44.1111C31.0955 42.2205 30.7809 39.9918 29.3855 38.5854C27.4414 35.9678 25.3699 33.4439 23.3008 30.8971C21.0151 28.9873 17.6013 29.8505 15.9447 32.1597C14.4881 34.1172 14.1109 36.6282 13.199 38.8617C12.4678 40.569 12.2676 42.6062 10.9625 43.9809C9.50216 45.0369 7.93187 43.9618 6.80413 42.9738C5.78034 41.9806 3.82861 41.4365 4.01208 39.712C4.57469 37.5554 5.88283 35.6661 6.77755 33.6289C8.04654 31.186 9.12895 28.633 10.5243 26.2648C11.9868 24.5638 14.3325 24.182 16.4403 24.5632C18.2532 24.8159 20.1344 24.7967 21.925 25.145C22.1739 25.1934 22.3423 25.2276 22.5507 25.3298C22.7592 25.432 22.9839 25.591 23.1347 25.7393C24.1838 26.771 24.9868 28.0813 25.9788 29.1779C28.5279 32.281 30.998 35.4546 33.598 38.5123C34.8937 39.4448 36.8116 38.2702 36.3578 36.6325Z" stroke="white" stroke-width="1.5"/>
<defs>
<pattern id="pattern0_184_936" patternUnits="userSpaceOnUse" patternTransform="matrix(12 0 0 12 0 0)" preserveAspectRatio="none" viewBox="0 0 12 12" width="1" height="1">
<g id="pattern0_184_936_inner">
<rect y="2" width="3" height="1" fill="#D9D9D9"/>
<rect y="8" width="3" height="1" fill="#D9D9D9"/>
<rect x="6" y="2" width="3" height="1" fill="#D9D9D9"/>
<rect x="6" y="8" width="3" height="1" fill="#D9D9D9"/>
<rect x="5" y="3" width="3" height="1" transform="rotate(180 5 3)" fill="#D9D9D9"/>
<rect x="5" y="9" width="3" height="1" transform="rotate(180 5 9)" fill="#D9D9D9"/>
<rect x="11" y="3" width="3" height="1" transform="rotate(180 11 3)" fill="#D9D9D9"/>
<rect x="11" y="9" width="3" height="1" transform="rotate(180 11 9)" fill="#D9D9D9"/>
<rect x="2" width="1" height="2" fill="#D9D9D9"/>
<rect x="2" y="6" width="1" height="2" fill="#D9D9D9"/>
<rect x="8" width="1" height="2" fill="#D9D9D9"/>
<rect x="8" y="6" width="1" height="2" fill="#D9D9D9"/>
<rect x="3" y="5" width="1" height="2" transform="rotate(180 3 5)" fill="#D9D9D9"/>
<rect x="3" y="11" width="1" height="2" transform="rotate(180 3 11)" fill="#D9D9D9"/>
<rect x="9" y="5" width="1" height="2" transform="rotate(180 9 5)" fill="#D9D9D9"/>
<rect x="9" y="11" width="1" height="2" transform="rotate(180 9 11)" fill="#D9D9D9"/>
</g>
</pattern></defs>
</svg>
