<svg width="60" height="60" viewBox="0 0 60 60" fill="none" xmlns="http://www.w3.org/2000/svg" xmlns:xlink="http://www.w3.org/1999/xlink">
<rect width="60" height="60" fill="url(#pattern0_184_936)" fill-opacity="0.1"/>
<path d="M35.8962 36.6325C34.9806 33.5714 33.4935 30.707 32.3312 27.7309C29.2814 20.4004 26.1223 13.1077 23.1408 5.75361C22.553 3.7323 24.7081 2.73605 26.3645 3.06026C29.2152 3.07515 32.0812 2.95176 34.9224 3.05347C37.1024 3.7347 35.9178 6.15851 34.3774 6.79023C32.584 7.84335 31.3023 9.82527 31.7136 11.9696C31.8814 14.7457 31.5483 17.7177 32.8753 20.2744C34.0922 22.8704 37.0521 23.4108 39.6041 23.6699C43.9814 24.2704 48.201 24.8223 52.4504 25.5698C56.2459 26.8761 56.5585 32.8382 53.3003 34.916C44.9097 41.7914 36.519 48.6667 28.1283 55.5421C26.6311 56.4815 25.7045 55.8535 25.4848 54.7591C25.3239 53.9577 25.7748 52.9062 26.1926 52.0368C27.2516 49.8243 28.7603 46.8401 30.1283 44.1111C30.634 42.2205 30.3194 39.9918 28.924 38.5854C26.9798 35.9678 24.9083 33.4439 22.8392 30.8971C20.5535 28.9873 17.1397 29.8505 15.4832 32.1597C14.0265 34.1172 13.6494 36.6282 12.7374 38.8617C12.0063 40.569 11.806 42.6062 10.5009 43.9809C9.04061 45.0369 7.47032 43.9618 6.34258 42.9738C5.31879 41.9806 3.36706 41.4365 3.55053 39.712C4.11314 37.5554 5.42128 35.6661 6.31601 33.6289C7.58499 31.186 8.6674 28.633 10.0627 26.2648C11.5253 24.5638 13.871 24.182 15.9787 24.5632C17.7917 24.8159 19.6729 24.7967 21.4635 25.145C21.7123 25.1934 21.8807 25.2276 22.0892 25.3298C22.2976 25.432 22.5224 25.591 22.6731 25.7393C23.7222 26.771 24.5252 28.0813 25.5172 29.1779C28.0664 32.281 30.5364 35.4546 33.1365 38.5123C34.4322 39.4448 36.35 38.2702 35.8962 36.6325Z" stroke="white" stroke-width="1.5"/>
<defs>
<pattern id="pattern0_184_936" patternUnits="userSpaceOnUse" patternTransform="matrix(12 0 0 12 0 0)" preserveAspectRatio="none" viewBox="0 0 12 12" width="1" height="1">
<g id="pattern0_184_936_inner">
<rect y="2" width="3" height="1" fill="#D9D9D9"/>
<rect y="8" width="3" height="1" fill="#D9D9D9"/>
<rect x="6" y="2" width="3" height="1" fill="#D9D9D9"/>
<rect x="6" y="8" width="3" height="1" fill="#D9D9D9"/>
<rect x="5" y="3" width="3" height="1" transform="rotate(180 5 3)" fill="#D9D9D9"/>
<rect x="5" y="9" width="3" height="1" transform="rotate(180 5 9)" fill="#D9D9D9"/>
<rect x="11" y="3" width="3" height="1" transform="rotate(180 11 3)" fill="#D9D9D9"/>
<rect x="11" y="9" width="3" height="1" transform="rotate(180 11 9)" fill="#D9D9D9"/>
<rect x="2" width="1" height="2" fill="#D9D9D9"/>
<rect x="2" y="6" width="1" height="2" fill="#D9D9D9"/>
<rect x="8" width="1" height="2" fill="#D9D9D9"/>
<rect x="8" y="6" width="1" height="2" fill="#D9D9D9"/>
<rect x="3" y="5" width="1" height="2" transform="rotate(180 3 5)" fill="#D9D9D9"/>
<rect x="3" y="11" width="1" height="2" transform="rotate(180 3 11)" fill="#D9D9D9"/>
<rect x="9" y="5" width="1" height="2" transform="rotate(180 9 5)" fill="#D9D9D9"/>
<rect x="9" y="11" width="1" height="2" transform="rotate(180 9 11)" fill="#D9D9D9"/>
</g>
</pattern></defs>
</svg>
