<svg width="60" height="60" viewBox="0 0 60 60" fill="none" xmlns="http://www.w3.org/2000/svg" xmlns:xlink="http://www.w3.org/1999/xlink">
<rect width="60" height="60" fill="url(#pattern0_242_3697)" fill-opacity="0.1"/>
<path d="M19.5593 43.9999C28.2743 43.9994 37.2263 44 47.4546 43.9999C57.6828 43.535 59.0775 30.0522 54.4284 26.7978C48.2869 22.4988 44.665 21.6837 39.0859 19.359C39.0859 19.359 33.7776 17.4599 30.2525 17.4993C26.9048 17.5367 21.884 19.359 21.884 19.359C16.3049 21.6837 12.683 22.4988 6.54154 26.7979C1.89235 30.0523 3.28706 43.5351 13.5153 44C16.3049 44.0001 16.6543 43.9999 19.5593 43.9999Z" stroke="white" stroke-width="1.5"/>
<defs>
<pattern id="pattern0_242_3697" patternUnits="userSpaceOnUse" patternTransform="matrix(12 0 0 12 0 0)" preserveAspectRatio="none" viewBox="0 0 12 12" width="1" height="1">
<g id="pattern0_242_3697_inner">
<rect y="2" width="3" height="1" fill="#D9D9D9"/>
<rect y="8" width="3" height="1" fill="#D9D9D9"/>
<rect x="6" y="2" width="3" height="1" fill="#D9D9D9"/>
<rect x="6" y="8" width="3" height="1" fill="#D9D9D9"/>
<rect x="5" y="3" width="3" height="1" transform="rotate(180 5 3)" fill="#D9D9D9"/>
<rect x="5" y="9" width="3" height="1" transform="rotate(180 5 9)" fill="#D9D9D9"/>
<rect x="11" y="3" width="3" height="1" transform="rotate(180 11 3)" fill="#D9D9D9"/>
<rect x="11" y="9" width="3" height="1" transform="rotate(180 11 9)" fill="#D9D9D9"/>
<rect x="2" width="1" height="2" fill="#D9D9D9"/>
<rect x="2" y="6" width="1" height="2" fill="#D9D9D9"/>
<rect x="8" width="1" height="2" fill="#D9D9D9"/>
<rect x="8" y="6" width="1" height="2" fill="#D9D9D9"/>
<rect x="3" y="5" width="1" height="2" transform="rotate(180 3 5)" fill="#D9D9D9"/>
<rect x="3" y="11" width="1" height="2" transform="rotate(180 3 11)" fill="#D9D9D9"/>
<rect x="9" y="5" width="1" height="2" transform="rotate(180 9 5)" fill="#D9D9D9"/>
<rect x="9" y="11" width="1" height="2" transform="rotate(180 9 11)" fill="#D9D9D9"/>
</g>
</pattern></defs>
</svg>
