<svg width="60" height="60" viewBox="0 0 60 60" fill="none" xmlns="http://www.w3.org/2000/svg" xmlns:xlink="http://www.w3.org/1999/xlink">
<rect width="60" height="60" fill="url(#pattern0_217_11)" fill-opacity="0.1"/>
<path d="M32.9801 42.4521C32.672 42.4495 32.363 42.4538 32.0561 42.4272C28.3837 42.1083 24.7424 41.994 21.0733 41.6342C18.7151 41.4029 17.3263 41.3248 14.9794 41.0286C14.7539 41.0001 14.5201 40.9318 14.3301 40.8163C14.1163 40.6862 13.9204 40.4941 13.7682 40.2918C13.5549 40.0084 12.9982 39.339 12.6942 38.8058C12.4571 38.3899 12.2167 38.086 12.0449 37.8443C11.7506 37.43 11.3402 37.0477 10.9522 36.7266C10.6159 36.4483 10.2187 36.2082 9.80339 36.0648C9.0119 35.7914 7.4742 35.3914 6.6503 35.1407C5.7093 34.8544 4.74631 34.6151 3.82813 34.2791C3.59747 34.1947 3.34111 33.8974 3.19127 33.7171C3.0539 33.5519 3.02252 33.2681 3.00396 33.0491C2.9809 32.777 3.06357 32.3496 3.12259 32.075C3.49601 30.3379 3.90621 28.2428 4.17154 27.18C4.23952 26.9076 4.59655 26.2698 4.75845 26.0436C4.92122 25.8161 5.71831 25.1624 5.94476 24.9946C7.10026 24.1385 7.5795 23.6583 8.74195 22.8093C8.95312 22.6551 9.15104 22.4675 9.30389 22.2599C9.42992 22.0887 9.51078 21.8765 9.57861 21.673C9.64398 21.4769 9.65206 21.2625 9.70349 21.0611C9.75196 20.8713 9.76135 20.6449 9.87831 20.4992C10.0486 20.287 10.3157 20.1216 10.5651 19.9872C10.9027 19.8052 11.2693 19.661 11.639 19.5501C13.1299 19.1032 15.0099 18.7369 16.5216 18.3638C17.2701 18.1791 18.0368 18.0725 18.7944 17.9267C20.3512 17.6271 22.2633 17.4203 23.8268 17.165C24.7358 17.0166 25.7075 16.9442 26.624 16.9028C27.0895 16.8817 27.5667 16.9395 28.0226 17.0276C28.3201 17.0852 28.622 17.1929 28.8842 17.3398C29.1048 17.4634 29.3129 17.6425 29.4712 17.8393C29.6375 18.0463 29.845 18.2974 29.9332 18.5511C30.1531 19.184 30.2526 19.8636 30.4701 20.4992C30.623 20.9458 30.695 21.188 30.9072 21.6105C31.1445 22.083 31.2652 22.6474 31.5441 23.0966C31.8105 23.5257 32.0284 23.9403 32.3308 24.3453C32.7401 24.8935 33.1483 25.4475 33.6045 25.9562C34.089 26.4964 34.5211 27.1845 35.0531 27.6795C35.5992 28.1876 36.0354 28.7486 36.6265 29.2029C37.7628 30.0764 38.919 30.9365 40.123 31.7129C41.1459 32.3726 42.2307 32.9405 43.3073 33.5111C44.2411 34.0061 45.087 34.5432 46.0295 35.0221C46.881 35.4547 47.7281 35.897 48.5645 36.3582C50.8 37.5911 52.8754 38.7314 55.0954 39.9921C55.5436 40.2466 56.0223 40.4749 56.4191 40.7913C56.6383 40.9661 56.8437 41.2137 56.9436 41.4656C57.0269 41.6757 57.0024 41.9471 56.9686 42.1774C56.94 42.3717 56.8756 42.5936 56.7563 42.7393C56.6508 42.8683 56.459 42.944 56.2942 43.0016C56.1135 43.0647 55.914 43.1036 55.7198 43.1015C52.097 43.062 48.8188 42.7759 45.1929 42.7269C41.1223 42.6718 37.0509 42.487 32.9801 42.4521Z" stroke="white" stroke-width="1.5"/>
<defs>
<pattern id="pattern0_217_11" patternUnits="userSpaceOnUse" patternTransform="matrix(12 0 0 12 0 0)" preserveAspectRatio="none" viewBox="0 0 12 12" width="1" height="1">
<g id="pattern0_217_11_inner">
<rect y="2" width="3" height="1" fill="#D9D9D9"/>
<rect y="8" width="3" height="1" fill="#D9D9D9"/>
<rect x="6" y="2" width="3" height="1" fill="#D9D9D9"/>
<rect x="6" y="8" width="3" height="1" fill="#D9D9D9"/>
<rect x="5" y="3" width="3" height="1" transform="rotate(180 5 3)" fill="#D9D9D9"/>
<rect x="5" y="9" width="3" height="1" transform="rotate(180 5 9)" fill="#D9D9D9"/>
<rect x="11" y="3" width="3" height="1" transform="rotate(180 11 3)" fill="#D9D9D9"/>
<rect x="11" y="9" width="3" height="1" transform="rotate(180 11 9)" fill="#D9D9D9"/>
<rect x="2" width="1" height="2" fill="#D9D9D9"/>
<rect x="2" y="6" width="1" height="2" fill="#D9D9D9"/>
<rect x="8" width="1" height="2" fill="#D9D9D9"/>
<rect x="8" y="6" width="1" height="2" fill="#D9D9D9"/>
<rect x="3" y="5" width="1" height="2" transform="rotate(180 3 5)" fill="#D9D9D9"/>
<rect x="3" y="11" width="1" height="2" transform="rotate(180 3 11)" fill="#D9D9D9"/>
<rect x="9" y="5" width="1" height="2" transform="rotate(180 9 5)" fill="#D9D9D9"/>
<rect x="9" y="11" width="1" height="2" transform="rotate(180 9 11)" fill="#D9D9D9"/>
</g>
</pattern></defs>
</svg>
