<svg width="60" height="60" viewBox="0 0 60 60" fill="none" xmlns="http://www.w3.org/2000/svg" xmlns:xlink="http://www.w3.org/1999/xlink">
<rect width="60" height="60" fill="url(#pattern0_184_958)" fill-opacity="0.1"/>
<path d="M23.77 55.8702C24.4213 55.9986 25.0736 56.0052 25.7367 55.9981C29.039 55.9626 32.4021 55.9823 35.6663 55.6463C36.7512 55.5346 37.8029 55.1747 38.8002 54.7189C41.7683 53.3625 44.5288 51.9273 47.4026 50.3857C47.7481 50.2004 48.1591 49.8602 48.346 49.5383C48.5428 49.1993 48.6677 48.7087 48.6018 48.3231C48.5184 47.8346 48.3748 47.32 48.0582 46.916C47.7566 46.5312 47.3025 46.1113 46.859 45.9566C46.3858 45.7915 45.6442 45.8479 45.212 46.1005C44.2584 46.6581 43.6434 47.6952 42.7017 48.387C41.5541 49.2302 40.3004 49.9982 38.9921 50.5616C37.3796 51.256 35.6393 51.6479 33.9394 51.9847C33.3794 52.0956 32.7036 51.9444 32.1965 51.7129C31.7229 51.4966 31.1514 50.8041 31.0133 50.2898C29.9149 46.1991 29.3359 42.3073 28.5029 38.0898C28.3669 37.3985 28.5147 36.6136 28.7588 35.9791C28.9411 35.505 29.3401 35.0487 29.7821 34.7639C32.5167 33.002 35.1296 31.5069 38.0487 30.063C39.095 29.5455 40.7959 29.1031 41.9502 28.8958C46.0192 28.165 49.6973 27.6756 53.8144 26.993C54.6093 26.8612 55.3637 26.1955 55.8771 25.6179C56.2164 25.2361 56.3811 24.6536 56.4367 24.1309C56.4877 23.6516 56.548 22.6803 56.1329 21.9883C52.4348 15.8219 48.7888 10.6752 44.7164 4.79948C44.5036 4.49256 43.8438 4.15738 43.4692 4.12792C41.9464 4.00815 40.3986 4 38.8642 4C38.0961 4 36.9146 4.00987 36.1939 4.25583C33.3542 5.22507 30.9823 6.4883 28.1832 7.64562C26.5478 8.32177 24.843 8.85414 23.2584 9.62833C22.0502 10.2186 20.978 11.2 19.7247 11.627C18.0999 12.1806 16.4903 12.1212 14.8479 12.4425C14.5458 12.5016 14.0815 12.7982 14.0804 13.3539C14.0794 13.8543 14.4532 14.3537 14.4641 14.8889C14.4745 15.3984 14.1915 16.2235 13.7606 16.5518C12.7882 17.2926 11.9486 17.7675 10.8505 18.2947C9.81671 18.7909 8.66572 18.9542 7.65255 19.4779C6.76829 19.9349 5.94942 20.6258 5.36604 21.3967C4.75553 22.2034 4.27353 23.1979 4.21479 24.2108C4.17528 24.8919 4.49254 25.8606 4.91833 26.4174C7.26407 29.4849 9.87732 32.0704 12.3855 35.0837C12.8407 35.6307 13.3229 36.3566 13.3448 37.0025C13.3656 37.6144 12.9095 38.31 12.5134 38.8573C9.66893 42.7871 6.65403 46.2179 3.79906 50.0659C3.30171 50.7363 3.26321 51.3296 3.62317 51.7449C3.94101 52.1115 5.2153 52.0392 6.00562 52.2086C12.3152 53.5609 17.3202 54.5985 23.77 55.8702Z" stroke="white" stroke-width="1.5" stroke-linejoin="round"/>
<defs>
<pattern id="pattern0_184_958" patternUnits="userSpaceOnUse" patternTransform="matrix(12 0 0 12 0 0)" preserveAspectRatio="none" viewBox="0 0 12 12" width="1" height="1">
<g id="pattern0_184_958_inner">
<rect y="2" width="3" height="1" fill="#D9D9D9"/>
<rect y="8" width="3" height="1" fill="#D9D9D9"/>
<rect x="6" y="2" width="3" height="1" fill="#D9D9D9"/>
<rect x="6" y="8" width="3" height="1" fill="#D9D9D9"/>
<rect x="5" y="3" width="3" height="1" transform="rotate(180 5 3)" fill="#D9D9D9"/>
<rect x="5" y="9" width="3" height="1" transform="rotate(180 5 9)" fill="#D9D9D9"/>
<rect x="11" y="3" width="3" height="1" transform="rotate(180 11 3)" fill="#D9D9D9"/>
<rect x="11" y="9" width="3" height="1" transform="rotate(180 11 9)" fill="#D9D9D9"/>
<rect x="2" width="1" height="2" fill="#D9D9D9"/>
<rect x="2" y="6" width="1" height="2" fill="#D9D9D9"/>
<rect x="8" width="1" height="2" fill="#D9D9D9"/>
<rect x="8" y="6" width="1" height="2" fill="#D9D9D9"/>
<rect x="3" y="5" width="1" height="2" transform="rotate(180 3 5)" fill="#D9D9D9"/>
<rect x="3" y="11" width="1" height="2" transform="rotate(180 3 11)" fill="#D9D9D9"/>
<rect x="9" y="5" width="1" height="2" transform="rotate(180 9 5)" fill="#D9D9D9"/>
<rect x="9" y="11" width="1" height="2" transform="rotate(180 9 11)" fill="#D9D9D9"/>
</g>
</pattern></defs>
</svg>
