<svg width="60" height="60" viewBox="0 0 60 60" fill="none" xmlns="http://www.w3.org/2000/svg" xmlns:xlink="http://www.w3.org/1999/xlink">
<rect width="60" height="60" fill="url(#pattern0_184_958)" fill-opacity="0.1"/>
<path d="M23.3854 55.8702C24.0367 55.9986 24.689 56.0052 25.3522 55.9981C28.6544 55.9626 32.0175 55.9823 35.2817 55.6463C36.3666 55.5346 37.4183 55.1747 38.4156 54.7189C41.3837 53.3625 44.1442 51.9273 47.018 50.3857C47.3635 50.2004 47.7745 49.8602 47.9614 49.5383C48.1582 49.1993 48.2831 48.7087 48.2173 48.3231C48.1338 47.8346 47.9902 47.32 47.6736 46.916C47.372 46.5312 46.9179 46.1113 46.4744 45.9566C46.0012 45.7915 45.2596 45.8479 44.8275 46.1005C43.8738 46.658 43.2588 47.6952 42.3171 48.387C41.1695 49.2301 39.9158 49.9982 38.6075 50.5616C36.9951 51.256 35.2547 51.6479 33.5548 51.9847C32.9949 52.0956 32.319 51.9444 31.812 51.7129C31.3383 51.4966 30.7668 50.8041 30.6287 50.2898C29.5303 46.1991 28.9513 42.3073 28.1184 38.0898C27.9824 37.3985 28.1302 36.6136 28.3742 35.9791C28.5565 35.505 28.9555 35.0487 29.3975 34.7639C32.1321 33.002 34.745 31.5069 37.6641 30.063C38.7104 29.5455 40.4113 29.1031 41.5656 28.8958C45.6346 28.165 49.3127 27.6756 53.4298 26.993C54.2247 26.8612 54.9791 26.1955 55.4925 25.6179C55.8318 25.2361 55.9965 24.6536 56.0521 24.1309C56.1031 23.6516 56.1634 22.6803 55.7483 21.9883C52.0503 15.8219 48.4043 10.6752 44.3318 4.79948C44.1191 4.49256 43.4592 4.15738 43.0846 4.12792C41.5618 4.00815 40.014 4 38.4796 4C37.7115 4 36.53 4.00987 35.8093 4.25583C32.9696 5.22507 30.5977 6.4883 27.7986 7.64562C26.1632 8.32177 24.4585 8.85414 22.8738 9.62833C21.6656 10.2186 20.5935 11.2 19.3401 11.627C17.7153 12.1806 16.1057 12.1212 14.4633 12.4425C14.1612 12.5016 13.6969 12.7982 13.6958 13.3539C13.6948 13.8543 14.0686 14.3537 14.0795 14.8889C14.0899 15.3984 13.807 16.2235 13.376 16.5518C12.4036 17.2926 11.5641 17.7675 10.4659 18.2947C9.43212 18.7909 8.28114 18.9542 7.26796 19.4779C6.38371 19.9349 5.56484 20.6258 4.98145 21.3967C4.37095 22.2034 3.88895 23.1979 3.83021 24.2108C3.7907 24.8919 4.10796 25.8606 4.53375 26.4174C6.87949 29.4849 9.49274 32.0704 12.0009 35.0837C12.4561 35.6307 12.9384 36.3566 12.9602 37.0025C12.981 37.6144 12.5249 38.31 12.1288 38.8573C9.28435 42.7871 6.26945 46.2179 3.41448 50.0659C2.91712 50.7363 2.87863 51.3296 3.23859 51.7449C3.55643 52.1115 4.83071 52.0392 5.62104 52.2086C11.9306 53.5609 16.9356 54.5985 23.3854 55.8702Z" stroke="white" stroke-width="1.5" stroke-linejoin="round"/>
<defs>
<pattern id="pattern0_184_958" patternUnits="userSpaceOnUse" patternTransform="matrix(12 0 0 12 0 0)" preserveAspectRatio="none" viewBox="0 0 12 12" width="1" height="1">
<g id="pattern0_184_958_inner">
<rect y="2" width="3" height="1" fill="#D9D9D9"/>
<rect y="8" width="3" height="1" fill="#D9D9D9"/>
<rect x="6" y="2" width="3" height="1" fill="#D9D9D9"/>
<rect x="6" y="8" width="3" height="1" fill="#D9D9D9"/>
<rect x="5" y="3" width="3" height="1" transform="rotate(180 5 3)" fill="#D9D9D9"/>
<rect x="5" y="9" width="3" height="1" transform="rotate(180 5 9)" fill="#D9D9D9"/>
<rect x="11" y="3" width="3" height="1" transform="rotate(180 11 3)" fill="#D9D9D9"/>
<rect x="11" y="9" width="3" height="1" transform="rotate(180 11 9)" fill="#D9D9D9"/>
<rect x="2" width="1" height="2" fill="#D9D9D9"/>
<rect x="2" y="6" width="1" height="2" fill="#D9D9D9"/>
<rect x="8" width="1" height="2" fill="#D9D9D9"/>
<rect x="8" y="6" width="1" height="2" fill="#D9D9D9"/>
<rect x="3" y="5" width="1" height="2" transform="rotate(180 3 5)" fill="#D9D9D9"/>
<rect x="3" y="11" width="1" height="2" transform="rotate(180 3 11)" fill="#D9D9D9"/>
<rect x="9" y="5" width="1" height="2" transform="rotate(180 9 5)" fill="#D9D9D9"/>
<rect x="9" y="11" width="1" height="2" transform="rotate(180 9 11)" fill="#D9D9D9"/>
</g>
</pattern></defs>
</svg>
