<svg width="60" height="60" viewBox="0 0 60 60" fill="none" xmlns="http://www.w3.org/2000/svg" xmlns:xlink="http://www.w3.org/1999/xlink">
<rect width="60" height="60" fill="url(#pattern0_246_34)" fill-opacity="0.1"/>
<path d="M12.6272 13.2554C12.6445 13.2518 12.6681 13.2855 12.7002 13.3312C12.7151 13.3525 12.7319 13.3765 12.7508 13.4005C12.6607 13.3568 12.62 13.3007 12.6272 13.2554ZM12.6272 13.2554C12.6459 13.1378 12.9879 13.093 13.6265 13.5274C14.3195 14.0071 15.0035 14.2907 15.2224 14.3439C15.7027 14.4607 16.1991 14.2025 16.3093 13.412C16.3817 13.1019 16.6412 13.0006 17.3646 13C17.8662 12.9996 18.0246 13.0174 18.5982 13.1389C20.328 13.5052 21.6712 14.6982 22.1342 16.2794C22.3226 16.9231 22.3239 16.9425 22.353 19.6158C22.3678 20.9686 22.3895 22.1372 22.4014 22.2127C22.4489 22.5148 22.5764 22.6527 22.8516 22.6995C22.9876 22.7227 24.0992 22.7123 26.5281 22.6651C45.6988 22.2931 47.4583 22.2549 48.0004 22.1984C48.1656 22.1812 48.2771 22.1787 48.3704 22.1766C48.5511 22.1725 48.6632 22.17 48.9652 22.065C49.6394 21.8306 50.097 21.5549 50.5196 21.1286C51.2401 20.4016 51.4198 19.7596 51.142 18.9039C50.9758 18.3916 50.8471 18.1434 50.3407 17.1661C50.3049 17.0972 50.2673 17.0245 50.2276 16.9479C49.7808 16.0849 49.7294 15.9336 49.677 15.6863C49.5631 15.1497 49.6941 14.6431 49.8486 14.358C50.2869 13.7826 50.9604 13.6349 51.3883 13.9795C51.4283 14.0151 51.4649 14.047 51.4996 14.0772C51.8595 14.3909 52.0258 14.5359 54.032 17.1282C55.1569 18.714 56.1537 20.1357 56.247 20.2875C56.583 20.8339 56.8004 21.3811 56.9329 22.013C57.0029 22.3468 57.0035 22.3721 56.9978 24.6823C56.9963 25.2953 56.9785 26.3172 56.9549 27.664M56.8324 41.1903C56.8327 41.288 56.833 41.377 56.8333 41.4582C56.836 42.1799 56.8363 42.2812 56.796 42.3628C56.7894 42.3762 56.7817 42.389 56.7728 42.4039C56.7515 42.4394 56.723 42.4868 56.6852 42.5816C56.6563 42.654 55.687 43.6232 55.5414 43.6913C55.4211 43.7655 55.3021 43.8593 55.2771 43.8996C55.1452 44.0263 54.9061 44.4355 54.8895 44.7721C54.8854 44.8554 54.8831 44.9426 54.8809 45.0295C54.8718 45.386 54.8627 45.739 54.7247 45.8127C54.7099 45.8206 54.7051 45.8263 54.7015 45.8307C54.7004 45.8319 54.6995 45.833 54.6985 45.834C54.6885 45.8438 54.6692 45.8442 54.4618 45.8493C54.1899 45.856 53.5951 45.8705 52.2749 45.9243C51.0661 45.9736 48.4819 45.9703 45.6905 45.9669C44.3888 45.9652 43.042 45.9636 41.7686 45.9671C37.7641 45.9783 33.9593 45.9922 33.3134 45.9978C32.6675 46.0035 30.2366 45.9976 27.9115 45.9846C23.6924 45.9611 22.5322 45.9331 21.8519 45.8385C19.9801 45.5781 17.9884 44.8614 15.307 43.4834C14.4407 43.0382 12.785 42.1175 10.8132 40.9844C10.0054 40.5202 9.04353 39.8696 7.25008 38.5742C5.43992 37.2668 4.60262 36.7947 3.64195 36.5398C3.23733 36.4324 3 36.267 3 36.0924C3 35.8993 3.49481 33.7334 3.73617 32.8701C4.0644 31.6961 4.27654 31.3025 4.86326 30.7788C5.43555 30.2681 6.23134 29.8546 7.61903 29.3469C9.68137 28.5925 11.4673 27.3311 11.9698 26.274C12.2537 25.6768 12.4163 24.9052 12.5213 23.6568C12.544 23.3865 12.5604 21.5987 12.5684 18.496C12.5825 16.7076 12.5812 15.5081 12.5803 14.714C12.579 13.5676 12.5787 13.2656 12.6272 13.2554M56.9549 27.664C56.9579 27.4956 56.9607 27.3323 56.9635 27.1743C56.9607 27.3321 56.9579 27.4953 56.9549 27.6634V27.664ZM56.8324 41.1903C56.8327 41.2875 56.833 41.376 56.8333 41.4568L56.8333 41.4499C56.833 41.371 56.8327 41.2847 56.8324 41.1903C56.8158 35.631 56.9005 30.7782 56.9549 27.664M45.6905 45.9669C45.865 45.9671 46.0386 45.9673 46.2112 45.9675C46.0388 45.9673 45.8649 45.9671 45.6905 45.9669ZM51.6073 14.4566L51.6079 14.4574C51.7142 14.5656 51.6988 14.5366 51.6073 14.4566Z" stroke="white" stroke-width="1.5"/>
<defs>
<pattern id="pattern0_246_34" patternUnits="userSpaceOnUse" patternTransform="matrix(12 0 0 12 0 0)" preserveAspectRatio="none" viewBox="0 0 12 12" width="1" height="1">
<g id="pattern0_246_34_inner">
<rect y="2" width="3" height="1" fill="#D9D9D9"/>
<rect y="8" width="3" height="1" fill="#D9D9D9"/>
<rect x="6" y="2" width="3" height="1" fill="#D9D9D9"/>
<rect x="6" y="8" width="3" height="1" fill="#D9D9D9"/>
<rect x="5" y="3" width="3" height="1" transform="rotate(180 5 3)" fill="#D9D9D9"/>
<rect x="5" y="9" width="3" height="1" transform="rotate(180 5 9)" fill="#D9D9D9"/>
<rect x="11" y="3" width="3" height="1" transform="rotate(180 11 3)" fill="#D9D9D9"/>
<rect x="11" y="9" width="3" height="1" transform="rotate(180 11 9)" fill="#D9D9D9"/>
<rect x="2" width="1" height="2" fill="#D9D9D9"/>
<rect x="2" y="6" width="1" height="2" fill="#D9D9D9"/>
<rect x="8" width="1" height="2" fill="#D9D9D9"/>
<rect x="8" y="6" width="1" height="2" fill="#D9D9D9"/>
<rect x="3" y="5" width="1" height="2" transform="rotate(180 3 5)" fill="#D9D9D9"/>
<rect x="3" y="11" width="1" height="2" transform="rotate(180 3 11)" fill="#D9D9D9"/>
<rect x="9" y="5" width="1" height="2" transform="rotate(180 9 5)" fill="#D9D9D9"/>
<rect x="9" y="11" width="1" height="2" transform="rotate(180 9 11)" fill="#D9D9D9"/>
</g>
</pattern></defs>
</svg>
