<svg width="60" height="60" viewBox="0 0 60 60" fill="none" xmlns="http://www.w3.org/2000/svg" xmlns:xlink="http://www.w3.org/1999/xlink">
<rect width="60" height="60" fill="url(#pattern0_217_12)" fill-opacity="0.1"/>
<path d="M49.0421 20.0915L48.353 19.7954C48.3259 19.8585 48.3076 19.9251 48.2986 19.9932L49.0421 20.0915ZM49.3706 19.3271L48.8622 18.7757C48.7847 18.8471 48.7231 18.9341 48.6815 19.031L49.3706 19.3271ZM49.7949 18.9795L50.1986 19.6116L50.1986 19.6116L49.7949 18.9795ZM50.2309 18.7687L50.4786 19.4766L50.4786 19.4766L50.2309 18.7687ZM50.747 18.6518L50.681 17.9047L50.6809 17.9047L50.747 18.6518ZM51.2961 18.6773L51.4203 17.9376L51.4202 17.9376L51.2961 18.6773ZM51.8035 18.8267L52.0728 18.1267V18.1267L51.8035 18.8267ZM52.2197 19.0267L51.7821 19.6359L51.7822 19.6359L52.2197 19.0267ZM52.5526 19.3679L51.94 19.8006L51.94 19.8006L52.5526 19.3679ZM52.7773 19.8252L53.465 19.526V19.526L52.7773 19.8252ZM53.0024 20.4159L52.3298 20.7477L52.3298 20.7477L53.0024 20.4159ZM53.2848 20.8739L53.8599 20.3925L53.8599 20.3925L53.2848 20.8739ZM53.7508 21.2904L53.3234 21.9068L53.3235 21.9068L53.7508 21.2904ZM54.2421 21.5481L54.4897 20.8401L54.4897 20.8401L54.2421 21.5481ZM54.6691 21.6301L54.6038 22.3773V22.3773L54.6691 21.6301ZM55.1328 21.623L55.2201 22.3679H55.2201L55.1328 21.623ZM55.8459 21.4649L56.0449 22.1881C56.1062 22.1712 56.1651 22.1466 56.2201 22.1149L55.8459 21.4649ZM56.1523 21.2885L56.5265 21.9385C56.586 21.9042 56.6406 21.8619 56.6886 21.8128L56.1523 21.2885ZM57 20.4213L57.5363 20.9455C57.7087 20.7692 57.7834 20.5193 57.736 20.2773L57 20.4213ZM23.0541 44.3333L23.5917 43.8103C23.4998 43.7158 23.3846 43.6472 23.2576 43.6114L23.0541 44.3333ZM22.7313 44.2422L22.9348 43.5204C22.9048 43.5119 22.8744 43.5054 22.8436 43.5007L22.7313 44.2422ZM21.4032 43.9542L21.654 43.2474L21.654 43.2474L21.4032 43.9542ZM20.3705 43.4318L20.7737 42.7994L20.7737 42.7994L20.3705 43.4318ZM19.5278 42.7685L20.0378 42.2186L20.0378 42.2186L19.5278 42.7685ZM18.9113 42.0962L19.5072 41.6407L19.5072 41.6407L18.9113 42.0962ZM18.4544 41.3722L19.1268 41.04L19.1268 41.0399L18.4544 41.3722ZM18.0683 40.3303L17.3432 40.5222V40.5222L18.0683 40.3303ZM17.8952 39.2756L17.1463 39.3161L17.1463 39.3161L17.8952 39.2756ZM17.9379 38.4928L17.1961 38.3827C17.1946 38.3923 17.1934 38.402 17.1923 38.4116L17.9379 38.4928ZM18.072 37.7778L18.7965 37.9718L18.7965 37.9718L18.072 37.7778ZM18.3207 37.07L19.0027 37.382L19.0027 37.382L18.3207 37.07ZM18.6462 36.5022L19.2792 36.9043C19.2828 36.8986 19.2864 36.8929 19.2899 36.8871L18.6462 36.5022ZM19.0949 35.813L18.4995 35.3568L18.4995 35.3569L19.0949 35.813ZM19.5937 35.2561L20.1123 35.798L20.1123 35.798L19.5937 35.2561ZM20.2346 34.731L20.664 35.3459H20.664L20.2346 34.731ZM20.9256 34.3235L20.591 33.6523L20.591 33.6523L20.9256 34.3235ZM21.508 34.0827L21.2661 33.3727L21.2661 33.3727L21.508 34.0827ZM22.1233 33.916L21.9772 33.1804L21.9772 33.1804L22.1233 33.916ZM23.0304 33.7995L23.0092 33.0498V33.0498L23.0304 33.7995ZM23.8466 33.8576L23.9545 33.1154H23.9545L23.8466 33.8576ZM24.7113 34.049L24.5226 34.7748C24.5274 34.7761 24.5323 34.7773 24.5371 34.7784L24.7113 34.049ZM38.6572 37.38L38.4829 38.1096L38.495 38.1123L38.6572 37.38ZM43.4606 38.4437L43.6409 37.7157C43.6349 37.7142 43.6288 37.7128 43.6228 37.7115L43.4606 38.4437ZM49.84 40.0235L50.0788 39.3125C50.0595 39.306 50.04 39.3003 50.0203 39.2955L49.84 40.0235ZM50.5483 40.2613L50.3095 40.9723C50.3218 40.9764 50.3342 40.9802 50.3467 40.9837L50.5483 40.2613ZM51.5303 40.4613L51.4875 41.2101H51.4875L51.5303 40.4613ZM52.2958 40.3946L52.461 41.1262H52.461L52.2958 40.3946ZM52.9198 40.1617L53.299 40.8087L53.2991 40.8087L52.9198 40.1617ZM53.4108 39.7456L52.8509 39.2465L52.8509 39.2465L53.4108 39.7456ZM53.7273 39.271L54.3877 39.6265L54.3877 39.6265L53.7273 39.271ZM53.9273 38.7973L53.21 38.5782L53.21 38.5782L53.9273 38.7973ZM54.0127 38.3609L53.2655 38.2962V38.2962L54.0127 38.3609ZM54.0018 37.8317L54.7424 37.713V37.713L54.0018 37.8317ZM53.8104 37.2074L54.4977 36.9071L54.4977 36.9071L53.8104 37.2074ZM53.5689 36.7916L54.1949 36.3786C54.1779 36.3528 54.1594 36.3282 54.1394 36.3048L53.5689 36.7916ZM49.1804 31.6493L49.7509 31.1624C49.7469 31.1577 49.7428 31.1531 49.7387 31.1485L49.1804 31.6493ZM48.7871 31.1796L49.3937 30.7385L49.3937 30.7385L48.7871 31.1796ZM48.3808 30.5125L47.6965 30.8195C47.7051 30.8386 47.7145 30.8575 47.7247 30.8758L48.3808 30.5125ZM48.0647 29.7219L48.7817 29.502L48.7817 29.502L48.0647 29.7219ZM47.865 28.8065L48.6087 28.7093V28.7093L47.865 28.8065ZM47.8231 27.8829L47.0734 27.8601L47.0734 27.8603L47.8231 27.8829ZM47.9231 26.9421L47.1831 26.8199C47.1823 26.8249 47.1815 26.8298 47.1808 26.8348L47.9231 26.9421ZM48.992 20.4706L49.732 20.5928C49.7333 20.5848 49.7344 20.5769 49.7355 20.5689L48.992 20.4706ZM37.6762 11.0166L37.4709 10.2952L37.4671 10.2963L37.6762 11.0166ZM7.41241 19.802L7.20332 19.0818C7.07216 19.1198 6.95389 19.193 6.86127 19.2934L7.41241 19.802ZM25.6332 51.1771L25.3354 51.8654C25.6758 52.0127 26.0727 51.8891 26.2692 51.5746L25.6332 51.1771ZM26.48 49.822L27.116 50.2195C27.1291 50.1987 27.141 50.1772 27.152 50.1552L26.48 49.822ZM26.7542 48.9138L27.5027 48.867L27.5027 48.867L26.7542 48.9138ZM26.3212 47.9389L25.6762 48.3215V48.3215L26.3212 47.9389ZM25.3276 46.6392L25.8959 46.1497C25.8843 46.1363 25.8722 46.1232 25.8597 46.1106L25.3276 46.6392ZM23.8684 45.1703L23.3308 45.6933L23.3363 45.6989L23.8684 45.1703ZM56.3895 17.3003L57.1256 17.1563C57.1234 17.1451 57.1209 17.134 57.1182 17.1229L56.3895 17.3003ZM55.9786 15.8182L55.2701 16.0642V16.0642L55.9786 15.8182ZM55.3311 14.2767L55.9927 13.9234L55.9927 13.9234L55.3311 14.2767ZM54.5779 13.1351L55.1741 12.6801V12.6801L54.5779 13.1351ZM53.8955 12.358L53.355 12.8779L53.355 12.8779L53.8955 12.358ZM52.9655 11.4752L52.4845 12.0506L52.4845 12.0506L52.9655 11.4752ZM52.0831 10.8276L52.5027 10.206L52.5027 10.206L52.0831 10.8276ZM50.7532 10.0044L50.4167 10.6747V10.6747L50.7532 10.0044ZM49.4116 9.47443L49.6395 8.75988L49.6395 8.75988L49.4116 9.47443ZM48.5056 9.25159L48.6519 8.51599L48.6519 8.51599L48.5056 9.25159ZM46.9637 9.01638L46.9157 9.76485V9.76485L46.9637 9.01638ZM45.4929 9.05084L45.4149 8.3049V8.3049L45.4929 9.05084ZM44.0449 9.32162L44.2029 10.0549L44.2123 10.0527L44.0449 9.32162ZM42.3505 9.68679L42.1924 8.95363C42.1766 8.95705 42.1608 8.96098 42.1452 8.96542L42.3505 9.68679ZM6.68054 20.595L6.1294 20.0864C6.06097 20.1605 6.0082 20.2477 5.97426 20.3427L6.68054 20.595ZM6.3959 21.5969L7.13824 21.7038V21.7038L6.3959 21.5969ZM6.37679 23.6564L7.12201 23.741C7.1268 23.6987 7.128 23.6561 7.12557 23.6137L6.37679 23.6564ZM6.04046 26.6197L6.73246 26.9089C6.75978 26.8435 6.77769 26.7746 6.78568 26.7043L6.04046 26.6197ZM5.75919 27.2927L6.31858 27.7923C6.37418 27.73 6.419 27.6589 6.45119 27.5819L5.75919 27.2927ZM5.21799 27.8987L5.69904 28.4741C5.72695 28.4508 5.75314 28.4254 5.77738 28.3983L5.21799 27.8987ZM4.5191 28.483L4.98269 29.0726C4.98858 29.0679 4.9944 29.0632 5.00015 29.0584L4.5191 28.483ZM4.03184 28.8661L3.56825 28.2766C3.52882 28.3076 3.4926 28.3425 3.46013 28.3807L4.03184 28.8661ZM3.58727 29.3897L3.01555 28.9043C2.98078 28.9453 2.95051 28.9898 2.92526 29.0372L3.58727 29.3897ZM3.25243 30.0186L2.59043 29.6661C2.57917 29.6872 2.56893 29.7089 2.55974 29.731L3.25243 30.0186ZM3.07117 30.4553L2.37847 30.1678C2.35284 30.2295 2.33558 30.2944 2.32715 30.3607L3.07117 30.4553ZM3 31.0152L2.25599 30.9206C2.25151 30.9558 2.24954 30.9913 2.25009 31.0267L3 31.0152ZM3.01311 31.8695L2.2632 31.881C2.26421 31.9471 2.27397 32.0128 2.29221 32.0764L3.01311 31.8695ZM3.17079 32.419L2.44989 32.6258C2.45844 32.6556 2.46883 32.6849 2.481 32.7134L3.17079 32.419ZM3.41236 32.9849L2.72257 33.2793C2.7376 33.3145 2.75531 33.3486 2.77555 33.3811L3.41236 32.9849ZM3.7281 33.4924L3.09129 33.8886C3.11808 33.9316 3.14918 33.9719 3.1841 34.0087L3.7281 33.4924ZM4.15394 33.9411L3.60994 34.4574C3.65154 34.5012 3.69829 34.5398 3.74916 34.5725L4.15394 33.9411ZM6.46629 35.4235L6.06151 36.0549C6.0677 36.0588 6.07394 36.0627 6.08024 36.0665L6.46629 35.4235ZM8.41382 36.5927L8.91282 36.0328C8.87785 36.0017 8.84003 35.9738 8.79987 35.9497L8.41382 36.5927ZM8.73742 36.8811L9.39269 36.5163C9.35188 36.443 9.29905 36.377 9.23641 36.3212L8.73742 36.8811ZM8.99621 37.3459L9.71528 37.1327C9.69964 37.08 9.67825 37.0291 9.65149 36.9811L8.99621 37.3459ZM9.15501 37.8815L9.90463 37.8577C9.90259 37.7935 9.89232 37.7299 9.87407 37.6683L9.15501 37.8815ZM9.17598 38.5407L9.90268 38.7262C9.92013 38.6578 9.92784 38.5873 9.9256 38.5168L9.17598 38.5407ZM9.0801 38.9164L9.75245 39.2487C9.77564 39.2018 9.79386 39.1525 9.8068 39.1018L9.0801 38.9164ZM8.91868 39.2429L9.48426 39.7355C9.52658 39.6869 9.56247 39.633 9.59103 39.5753L8.91868 39.2429ZM8.45875 39.771L8.82964 40.4229C8.90304 40.3811 8.96886 40.3273 9.02433 40.2636L8.45875 39.771ZM8.08946 39.9811L8.2645 40.7104C8.3331 40.694 8.39903 40.6679 8.46035 40.633L8.08946 39.9811ZM7.43252 40.1388L7.25746 39.4095L7.24722 39.4121L7.43252 40.1388ZM6.90817 40.2725L6.72287 39.5458C6.66396 39.5608 6.60711 39.5829 6.55354 39.6117L6.90817 40.2725ZM6.35049 40.5718L5.99586 39.9109C5.90899 39.9575 5.83216 40.0208 5.76977 40.0972L6.35049 40.5718ZM5.90142 41.1212L5.32071 40.6466C5.24398 40.7405 5.19116 40.8515 5.16676 40.9703L5.90142 41.1212ZM5.76809 41.7703L5.03343 41.6194C5.01121 41.7275 5.01315 41.8393 5.03911 41.9466L5.76809 41.7703ZM5.89281 42.286L5.16383 42.4623C5.18929 42.5676 5.23724 42.6661 5.30438 42.751L5.89281 42.286ZM6.12428 42.5789L5.53584 43.0439C5.59074 43.1134 5.65749 43.1726 5.73302 43.2188L6.12428 42.5789ZM7.0063 43.1182L6.61505 43.7581C6.64503 43.7764 6.67625 43.7926 6.7085 43.8066L7.0063 43.1182ZM49.0421 20.0915L49.7312 20.3876L50.0597 19.6232L49.3706 19.3271L48.6815 19.031L48.353 19.7954L49.0421 20.0915ZM49.3706 19.3271C49.8789 19.8785 49.8789 19.8785 49.8789 19.8786C49.8789 19.8786 49.8789 19.8786 49.8789 19.8786C49.8788 19.8786 49.8788 19.8786 49.8788 19.8787C49.8788 19.8787 49.8788 19.8787 49.8788 19.8787C49.8788 19.8787 49.8788 19.8786 49.8789 19.8785C49.8792 19.8783 49.8797 19.8778 49.8804 19.8772C49.8819 19.8758 49.8843 19.8736 49.8875 19.8707C49.894 19.8648 49.9038 19.8559 49.9161 19.8448C49.941 19.8225 49.9754 19.792 50.0137 19.7591C50.1018 19.6835 50.1715 19.6289 50.1986 19.6116L49.7949 18.9795L49.3912 18.3475C49.2642 18.4286 49.1218 18.5478 49.0362 18.6213C48.9877 18.663 48.9449 18.7009 48.9143 18.7284C48.8989 18.7422 48.8864 18.7536 48.8775 18.7617C48.873 18.7658 48.8694 18.7691 48.8669 18.7714C48.8656 18.7726 48.8645 18.7735 48.8638 18.7743C48.8634 18.7746 48.863 18.7749 48.8628 18.7752C48.8627 18.7753 48.8625 18.7754 48.8624 18.7755C48.8624 18.7755 48.8624 18.7755 48.8623 18.7756C48.8623 18.7756 48.8623 18.7756 48.8623 18.7756C48.8622 18.7757 48.8622 18.7757 49.3706 19.3271ZM49.7949 18.9795L50.1986 19.6116C50.2833 19.5575 50.3781 19.5117 50.4786 19.4766L50.2309 18.7687L49.9832 18.0608C49.7789 18.1322 49.5786 18.2278 49.3912 18.3475L49.7949 18.9795ZM50.2309 18.7687L50.4786 19.4766C50.6019 19.4334 50.7138 19.4077 50.813 19.3989L50.747 18.6518L50.6809 17.9047C50.4288 17.927 50.1928 17.9874 49.9832 18.0608L50.2309 18.7687ZM50.747 18.6518L50.813 19.3989C50.9216 19.3893 51.0428 19.3953 51.1719 19.4169L51.2961 18.6773L51.4202 17.9376C51.188 17.8986 50.9374 17.8821 50.681 17.9047L50.747 18.6518ZM51.2961 18.6773L51.1719 19.4169C51.2714 19.4336 51.3851 19.4694 51.5343 19.5267L51.8035 18.8267L52.0728 18.1267C51.8928 18.0575 51.6685 17.9793 51.4203 17.9376L51.2961 18.6773ZM51.8035 18.8267L51.5343 19.5267C51.7022 19.5913 51.7509 19.6134 51.7821 19.6359L52.2197 19.0267L52.6572 18.4176C52.4385 18.2605 52.1922 18.1726 52.0728 18.1267L51.8035 18.8267ZM52.2197 19.0267L51.7822 19.6359C51.8337 19.6729 51.889 19.7284 51.94 19.8006L52.5526 19.3679L53.1652 18.9352C53.0329 18.7479 52.8638 18.566 52.6572 18.4176L52.2197 19.0267ZM52.5526 19.3679L51.94 19.8006C51.9798 19.8569 51.9951 19.9072 52.0896 20.1245L52.7773 19.8252L53.465 19.526C53.4241 19.4318 53.3214 19.1564 53.1652 18.9352L52.5526 19.3679ZM52.7773 19.8252L52.0896 20.1245C52.1164 20.1861 52.1379 20.2509 52.1767 20.3645C52.2109 20.4648 52.2596 20.6053 52.3298 20.7477L53.0024 20.4159L53.675 20.0841C53.652 20.0375 53.6302 19.9792 53.5962 19.8798C53.5668 19.7936 53.5223 19.6576 53.465 19.526L52.7773 19.8252ZM53.0024 20.4159L52.3298 20.7477C52.4162 20.9229 52.5358 21.1475 52.7097 21.3553L53.2848 20.8739L53.8599 20.3925C53.8036 20.3252 53.7473 20.2306 53.675 20.084L53.0024 20.4159ZM53.2848 20.8739L52.7097 21.3553C52.8961 21.578 53.1111 21.7596 53.3234 21.9068L53.7508 21.2904L54.1781 20.674C54.048 20.5839 53.941 20.4893 53.8599 20.3925L53.2848 20.8739ZM53.7508 21.2904L53.3235 21.9068C53.5156 22.04 53.7407 22.1673 53.9946 22.2561L54.2421 21.5481L54.4897 20.8401C54.3944 20.8068 54.2899 20.7516 54.178 20.674L53.7508 21.2904ZM54.2421 21.5481L53.9946 22.2561C54.2174 22.334 54.4346 22.3625 54.6038 22.3773L54.6691 21.6301L54.7344 20.883C54.6149 20.8725 54.5404 20.8579 54.4897 20.8401L54.2421 21.5481ZM54.6691 21.6301L54.6038 22.3773C54.8095 22.3952 55.0168 22.3917 55.2201 22.3679L55.1328 21.623L55.0454 20.8781C54.9417 20.8903 54.8367 20.8919 54.7344 20.883L54.6691 21.6301ZM55.1328 21.623L55.2201 22.3679C55.3916 22.3478 55.6103 22.2978 55.7571 22.2621C55.8367 22.2428 55.9078 22.2245 55.959 22.211C55.9847 22.2043 56.0057 22.1987 56.0204 22.1947C56.0278 22.1927 56.0336 22.1911 56.0377 22.19C56.0398 22.1895 56.0414 22.189 56.0426 22.1887C56.0432 22.1885 56.0437 22.1884 56.0441 22.1883C56.0443 22.1882 56.0444 22.1882 56.0446 22.1882C56.0446 22.1881 56.0447 22.1881 56.0447 22.1881C56.0448 22.1881 56.0448 22.1881 56.0448 22.1881C56.0448 22.1881 56.0449 22.1881 55.8459 21.4649C55.6469 20.7418 55.6469 20.7418 55.6469 20.7418C55.647 20.7418 55.647 20.7418 55.647 20.7418C55.647 20.7418 55.647 20.7418 55.647 20.7418C55.647 20.7418 55.647 20.7418 55.647 20.7418C55.6469 20.7418 55.6467 20.7419 55.6464 20.742C55.6458 20.7421 55.6448 20.7424 55.6433 20.7428C55.6404 20.7436 55.6359 20.7448 55.6299 20.7464C55.618 20.7497 55.6002 20.7544 55.5779 20.7603C55.5332 20.772 55.4714 20.7879 55.403 20.8045C55.2536 20.8408 55.1157 20.8699 55.0454 20.8781L55.1328 21.623ZM55.8459 21.4649L56.2201 22.1149L56.5265 21.9385L56.1523 21.2885L55.778 20.6386L55.4716 20.815L55.8459 21.4649ZM56.1523 21.2885L56.6886 21.8128L57.5363 20.9455L57 20.4213L56.4637 19.897L55.6159 20.7643L56.1523 21.2885ZM23.0541 44.3333L23.2576 43.6114L22.9348 43.5204L22.7313 44.2422L22.5278 44.9641L22.8506 45.0551L23.0541 44.3333ZM22.7313 44.2422C22.8436 43.5007 22.8437 43.5007 22.8437 43.5007C22.8437 43.5007 22.8437 43.5007 22.8437 43.5007C22.8437 43.5007 22.8437 43.5007 22.8437 43.5007C22.8437 43.5007 22.8436 43.5007 22.8435 43.5007C22.8433 43.5007 22.8428 43.5006 22.8421 43.5005C22.8408 43.5003 22.8386 43.4999 22.8357 43.4995C22.8298 43.4986 22.8207 43.4972 22.8089 43.4953C22.7852 43.4915 22.7503 43.4859 22.7069 43.4787C22.6199 43.4642 22.4998 43.4435 22.3676 43.4183C22.0872 43.3649 21.807 43.3017 21.654 43.2474L21.4032 43.9542L21.1523 44.661C21.4262 44.7582 21.8101 44.8391 22.087 44.8918C22.2335 44.9197 22.3654 44.9425 22.4607 44.9584C22.5085 44.9663 22.5473 44.9726 22.5746 44.9769C22.5882 44.979 22.5989 44.9807 22.6064 44.9819C22.6102 44.9824 22.6131 44.9829 22.6152 44.9832C22.6163 44.9834 22.6171 44.9835 22.6177 44.9836C22.6181 44.9836 22.6183 44.9837 22.6185 44.9837C22.6186 44.9837 22.6187 44.9837 22.6188 44.9838C22.6188 44.9838 22.6189 44.9838 22.6189 44.9838C22.6189 44.9838 22.6189 44.9838 22.7313 44.2422ZM21.4032 43.9542L21.654 43.2474C21.362 43.1438 21.0707 42.9887 20.7737 42.7994L20.3705 43.4318L19.9673 44.0641C20.3208 44.2896 20.7172 44.5066 21.1524 44.6611L21.4032 43.9542ZM20.3705 43.4318L20.7737 42.7994C20.521 42.6382 20.2777 42.441 20.0378 42.2186L19.5278 42.7685L19.0178 43.3184C19.3021 43.5821 19.6172 43.8409 19.9673 44.0641L20.3705 43.4318ZM19.5278 42.7685L20.0378 42.2186C19.8412 42.0362 19.6622 41.8435 19.5072 41.6407L18.9113 42.0962L18.3154 42.5516C18.5297 42.832 18.7685 43.0872 19.0178 43.3184L19.5278 42.7685ZM18.9113 42.0962L19.5072 41.6407C19.3564 41.4434 19.2272 41.2431 19.1268 41.04L18.4544 41.3722L17.782 41.7045C17.9345 42.013 18.1197 42.2955 18.3154 42.5516L18.9113 42.0962ZM18.4544 41.3722L19.1268 41.0399C18.9874 40.758 18.8768 40.4539 18.7933 40.1384L18.0683 40.3303L17.3432 40.5222C17.4493 40.9228 17.5932 41.3223 17.782 41.7045L18.4544 41.3722ZM18.0683 40.3303L18.7933 40.1384C18.7127 39.834 18.6601 39.5308 18.6441 39.235L17.8952 39.2756L17.1463 39.3161C17.1688 39.7319 17.2415 40.1377 17.3432 40.5222L18.0683 40.3303ZM17.8952 39.2756L18.6441 39.2351C18.64 39.1591 18.6466 39.0079 18.6591 38.8434C18.6649 38.768 18.671 38.6998 18.6758 38.6503C18.6782 38.6257 18.6802 38.606 18.6815 38.5928C18.6822 38.5861 18.6828 38.5811 18.6831 38.5779C18.6833 38.5763 18.6834 38.5752 18.6835 38.5745C18.6835 38.5742 18.6835 38.574 18.6835 38.5739C18.6835 38.5738 18.6835 38.5738 18.6835 38.5738C18.6835 38.5738 18.6835 38.5739 18.6835 38.5739C18.6835 38.5739 18.6835 38.5739 18.6835 38.5739C18.6835 38.574 18.6835 38.574 17.9379 38.4928C17.1923 38.4116 17.1923 38.4117 17.1923 38.4117C17.1923 38.4117 17.1923 38.4117 17.1923 38.4118C17.1923 38.4118 17.1923 38.4119 17.1923 38.412C17.1923 38.4121 17.1923 38.4123 17.1922 38.4125C17.1922 38.4129 17.1921 38.4134 17.1921 38.4141C17.1919 38.4154 17.1917 38.4172 17.1915 38.4195C17.191 38.4241 17.1903 38.4306 17.1895 38.4387C17.1878 38.455 17.1855 38.4781 17.1827 38.5065C17.1773 38.5631 17.1701 38.6416 17.1635 38.7293C17.1511 38.8909 17.1363 39.1311 17.1463 39.3161L17.8952 39.2756ZM17.9379 38.4928C18.6798 38.6029 18.6798 38.603 18.6798 38.603C18.6798 38.603 18.6798 38.603 18.6798 38.603C18.6798 38.603 18.6798 38.603 18.6798 38.603C18.6798 38.603 18.6798 38.603 18.6798 38.6029C18.6798 38.6028 18.6798 38.6026 18.6799 38.6022C18.68 38.6015 18.6802 38.6004 18.6804 38.5989C18.6809 38.5958 18.6816 38.591 18.6825 38.5847C18.6845 38.5722 18.6873 38.5537 18.6909 38.5306C18.6982 38.4844 18.7085 38.4206 18.7206 38.3501C18.7465 38.1997 18.775 38.0519 18.7965 37.9718L18.072 37.7778L17.3475 37.5838C17.3063 37.7379 17.2678 37.9476 17.2423 38.0961C17.2287 38.1752 17.2172 38.2462 17.2092 38.2974C17.2051 38.3231 17.2019 38.344 17.1997 38.3587C17.1986 38.366 17.1977 38.3718 17.1971 38.3758C17.1968 38.3779 17.1965 38.3795 17.1964 38.3806C17.1963 38.3812 17.1962 38.3816 17.1962 38.382C17.1961 38.3822 17.1961 38.3823 17.1961 38.3824C17.1961 38.3825 17.1961 38.3825 17.1961 38.3826C17.1961 38.3826 17.1961 38.3826 17.1961 38.3826C17.1961 38.3827 17.1961 38.3827 17.9379 38.4928ZM18.072 37.7778L18.7965 37.9718C18.8535 37.759 18.9205 37.5617 19.0027 37.382L18.3207 37.07L17.6387 36.7579C17.5128 37.033 17.4199 37.3135 17.3475 37.5838L18.072 37.7778ZM18.3207 37.07L19.0027 37.382C19.029 37.3246 19.0906 37.2146 19.1612 37.0964C19.1936 37.0424 19.2235 36.9937 19.2453 36.9585C19.2562 36.941 19.2649 36.927 19.2708 36.9176C19.2738 36.9129 19.276 36.9094 19.2775 36.9071C19.2782 36.906 19.2787 36.9052 19.279 36.9047C19.2791 36.9045 19.2792 36.9043 19.2793 36.9043C19.2793 36.9042 19.2793 36.9042 19.2793 36.9042C19.2793 36.9042 19.2793 36.9043 19.2793 36.9043C19.2793 36.9043 19.2792 36.9043 19.2792 36.9043C19.2792 36.9043 19.2792 36.9043 18.6462 36.5022C18.0131 36.1 18.0131 36.1 18.0131 36.1C18.0131 36.1 18.0131 36.1001 18.013 36.1001C18.013 36.1001 18.013 36.1002 18.013 36.1002C18.0129 36.1003 18.0128 36.1005 18.0127 36.1006C18.0125 36.1009 18.0123 36.1013 18.012 36.1017C18.0114 36.1027 18.0106 36.104 18.0096 36.1056C18.0075 36.1088 18.0046 36.1134 18.001 36.1192C17.9937 36.1308 17.9834 36.1472 17.9708 36.1675C17.9458 36.2078 17.9114 36.2638 17.8737 36.3269C17.8043 36.443 17.7032 36.617 17.6387 36.7579L18.3207 37.07ZM18.6462 36.5022C19.2899 36.8871 19.2899 36.8871 19.2898 36.8871C19.2898 36.8871 19.2898 36.8871 19.2898 36.8871C19.2898 36.8871 19.2898 36.8871 19.2898 36.8871C19.2898 36.8871 19.2899 36.8871 19.2899 36.887C19.29 36.8869 19.2901 36.8866 19.2903 36.8863C19.2907 36.8856 19.2914 36.8845 19.2924 36.8829C19.2942 36.8798 19.297 36.8751 19.3008 36.8689C19.3083 36.8565 19.3193 36.8383 19.3331 36.8156C19.3608 36.7702 19.3994 36.7076 19.4427 36.6387C19.5346 36.4928 19.6303 36.3474 19.6902 36.2692L19.0949 35.813L18.4995 35.3569C18.3927 35.4962 18.2641 35.6954 18.1733 35.8396C18.1253 35.9159 18.0829 35.9847 18.0525 36.0345C18.0373 36.0595 18.025 36.0798 18.0164 36.094C18.0121 36.1012 18.0088 36.1068 18.0064 36.1107C18.0052 36.1127 18.0043 36.1142 18.0036 36.1153C18.0033 36.1159 18.003 36.1163 18.0028 36.1166C18.0027 36.1168 18.0027 36.1169 18.0026 36.117C18.0026 36.1171 18.0025 36.1171 18.0025 36.1172C18.0025 36.1172 18.0025 36.1172 18.0025 36.1172C18.0025 36.1172 18.0025 36.1173 18.6462 36.5022ZM19.0949 35.813L19.6902 36.2692C19.8185 36.1017 19.9601 35.9436 20.1123 35.798L19.5937 35.2561L19.0752 34.7142C18.8672 34.9132 18.6744 35.1287 18.4995 35.3568L19.0949 35.813ZM19.5937 35.2561L20.1123 35.798C20.284 35.6337 20.469 35.482 20.664 35.3459L20.2346 34.731L19.8051 34.1161C19.5472 34.2962 19.3026 34.4966 19.0752 34.7142L19.5937 35.2561ZM20.2346 34.731L20.664 35.3459C20.8492 35.2165 21.0493 35.0998 21.2602 34.9947L20.9256 34.3235L20.591 33.6523C20.3232 33.7858 20.0584 33.9392 19.8051 34.1161L20.2346 34.731ZM20.9256 34.3235L21.2602 34.9947C21.4139 34.9181 21.5779 34.8512 21.7498 34.7926L21.508 34.0827L21.2661 33.3727C21.0404 33.4496 20.8133 33.5415 20.591 33.6523L20.9256 34.3235ZM21.508 34.0827L21.7498 34.7926C21.923 34.7336 22.0968 34.6859 22.2695 34.6516L22.1233 33.916L21.9772 33.1804C21.733 33.2289 21.4952 33.2947 21.2661 33.3727L21.508 34.0827ZM22.1233 33.916L22.2695 34.6516C22.5533 34.5952 22.8089 34.5561 23.0517 34.5492L23.0304 33.7995L23.0092 33.0498C22.6425 33.0602 22.2914 33.1179 21.9772 33.1804L22.1233 33.916ZM23.0304 33.7995L23.0517 34.5492C23.2638 34.5432 23.49 34.5636 23.7386 34.5998L23.8466 33.8576L23.9545 33.1154C23.6633 33.073 23.3423 33.0404 23.0092 33.0498L23.0304 33.7995ZM23.8466 33.8576L23.7386 34.5998C23.8482 34.6157 24.0352 34.6563 24.2157 34.699C24.3015 34.7193 24.3788 34.7384 24.4347 34.7525C24.4626 34.7595 24.4849 34.7651 24.5002 34.769C24.5078 34.771 24.5136 34.7725 24.5174 34.7735C24.5193 34.774 24.5207 34.7743 24.5216 34.7746C24.522 34.7747 24.5223 34.7747 24.5225 34.7748C24.5226 34.7748 24.5226 34.7748 24.5227 34.7748C24.5227 34.7748 24.5227 34.7748 24.5227 34.7748C24.5227 34.7748 24.5226 34.7748 24.5226 34.7748C24.5226 34.7748 24.5226 34.7748 24.7113 34.049C24.9001 33.3231 24.9001 33.3231 24.9 33.3231C24.9 33.3231 24.9 33.3231 24.9 33.3231C24.8999 33.3231 24.8999 33.323 24.8998 33.323C24.8997 33.323 24.8995 33.323 24.8994 33.3229C24.899 33.3228 24.8984 33.3227 24.8978 33.3225C24.8965 33.3222 24.8946 33.3217 24.8923 33.3211C24.8876 33.3199 24.8808 33.3181 24.8722 33.3159C24.8549 33.3115 24.8303 33.3052 24.7999 33.2976C24.7393 33.2824 24.6552 33.2616 24.5613 33.2394C24.3825 33.1971 24.1371 33.1419 23.9545 33.1154L23.8466 33.8576ZM24.7113 34.049L24.5371 34.7784L38.4829 38.1095L38.6572 37.38L38.8314 36.6506L24.8856 33.3195L24.7113 34.049ZM38.6572 37.38L38.495 38.1123L43.2984 39.176L43.4606 38.4437L43.6228 37.7115L38.8193 36.6478L38.6572 37.38ZM43.4606 38.4437L43.2803 39.1718L49.6597 40.7515L49.84 40.0235L50.0203 39.2955L43.6409 37.7157L43.4606 38.4437ZM49.84 40.0235L49.6013 40.7344L50.3095 40.9723L50.5483 40.2613L50.787 39.5503L50.0788 39.3125L49.84 40.0235ZM50.5483 40.2613C50.3467 40.9837 50.3467 40.9837 50.3468 40.9837C50.3468 40.9837 50.3468 40.9837 50.3469 40.9837C50.3469 40.9838 50.347 40.9838 50.3471 40.9838C50.3473 40.9839 50.3475 40.9839 50.3478 40.984C50.3483 40.9841 50.3489 40.9843 50.3498 40.9846C50.3514 40.985 50.3537 40.9856 50.3566 40.9864C50.3623 40.988 50.3703 40.9902 50.3805 40.993C50.4008 40.9985 50.4296 41.0062 50.465 41.0155C50.5356 41.0339 50.6337 41.0588 50.7436 41.0845C50.9453 41.1316 51.2485 41.1964 51.4875 41.2101L51.5303 40.4613L51.573 39.7125C51.4786 39.7071 51.2907 39.6719 51.0849 39.6238C50.9909 39.6019 50.906 39.5803 50.8446 39.5643C50.814 39.5563 50.7895 39.5497 50.7731 39.5453C50.7649 39.543 50.7587 39.5413 50.7547 39.5402C50.7527 39.5397 50.7513 39.5393 50.7505 39.5391C50.7501 39.539 50.7498 39.5389 50.7497 39.5389C50.7497 39.5388 50.7497 39.5388 50.7497 39.5388C50.7497 39.5389 50.7497 39.5389 50.7497 39.5389C50.7498 39.5389 50.7498 39.5389 50.7498 39.5389C50.7498 39.5389 50.7499 39.5389 50.5483 40.2613ZM51.5303 40.4613L51.4875 41.2101C51.8194 41.229 52.1495 41.1965 52.461 41.1262L52.2958 40.3946L52.1306 39.663C51.9424 39.7056 51.7526 39.7228 51.573 39.7125L51.5303 40.4613ZM52.2958 40.3946L52.461 41.1262C52.7226 41.0671 53.0186 40.9731 53.299 40.8087L52.9198 40.1617L52.5405 39.5146C52.4379 39.5748 52.3021 39.6243 52.1306 39.663L52.2958 40.3946ZM52.9198 40.1617L53.2991 40.8087C53.5715 40.649 53.7937 40.4431 53.9707 40.2446L53.4108 39.7456L52.8509 39.2465C52.7424 39.3683 52.6382 39.4574 52.5405 39.5146L52.9198 40.1617ZM53.4108 39.7456L53.9707 40.2446C54.1556 40.0371 54.2883 39.8111 54.3877 39.6265L53.7273 39.271L53.0669 38.9156C52.986 39.0658 52.919 39.1702 52.8509 39.2465L53.4108 39.7456ZM53.7273 39.271L54.3877 39.6265C54.4891 39.4381 54.5783 39.2336 54.6446 39.0163L53.9273 38.7973L53.21 38.5782C53.1762 38.6889 53.1279 38.8021 53.0669 38.9156L53.7273 39.271ZM53.9273 38.7973L54.6446 39.0163C54.7024 38.8271 54.7423 38.6284 54.7599 38.4256L54.0127 38.3609L53.2655 38.2962C53.2575 38.3887 53.2388 38.4839 53.21 38.5782L53.9273 38.7973ZM54.0127 38.3609L54.7599 38.4256C54.7782 38.2146 54.7834 37.9691 54.7424 37.713L54.0018 37.8317L53.2613 37.9504C53.2761 38.0428 53.2776 38.1557 53.2655 38.2962L54.0127 38.3609ZM54.0018 37.8317L54.7424 37.713C54.6952 37.4189 54.6025 37.1469 54.4977 36.9071L53.8104 37.2074L53.1232 37.5076C53.1927 37.6668 53.2395 37.8146 53.2613 37.9504L54.0018 37.8317ZM53.8104 37.2074L54.4977 36.9071C54.4426 36.7809 54.3568 36.6371 54.3053 36.5529C54.2757 36.5045 54.2486 36.4618 54.2289 36.4311C54.219 36.4157 54.2109 36.4031 54.205 36.3941C54.2021 36.3896 54.1997 36.386 54.198 36.3834C54.1972 36.3821 54.1965 36.381 54.1959 36.3802C54.1957 36.3798 54.1954 36.3794 54.1953 36.3792C54.1952 36.379 54.1951 36.3789 54.195 36.3788C54.195 36.3788 54.195 36.3787 54.1949 36.3787C54.1949 36.3787 54.1949 36.3786 54.1949 36.3786C54.1949 36.3786 54.1949 36.3786 53.5689 36.7916C52.9429 37.2047 52.9428 37.2047 52.9428 37.2046C52.9428 37.2046 52.9428 37.2046 52.9428 37.2046C52.9428 37.2046 52.9428 37.2045 52.9427 37.2045C52.9427 37.2045 52.9427 37.2045 52.9427 37.2045C52.9427 37.2044 52.9427 37.2045 52.9428 37.2046C52.943 37.2048 52.9433 37.2053 52.9437 37.206C52.9446 37.2074 52.9461 37.2097 52.9482 37.2128C52.9523 37.2191 52.9585 37.2287 52.9662 37.2408C52.9818 37.2651 53.0031 37.2987 53.0259 37.3359C53.0489 37.3736 53.0718 37.4121 53.0911 37.4466C53.1007 37.4638 53.1085 37.4782 53.1145 37.4899C53.1207 37.5021 53.1232 37.5077 53.1232 37.5077L53.8104 37.2074ZM53.5689 36.7916L54.1394 36.3048L49.7509 31.1624L49.1804 31.6493L48.6099 32.1361L52.9984 37.2785L53.5689 36.7916ZM49.1804 31.6493C49.7387 31.1485 49.7387 31.1485 49.7388 31.1485C49.7388 31.1485 49.7388 31.1485 49.7388 31.1485C49.7388 31.1485 49.7388 31.1485 49.7388 31.1485C49.7388 31.1485 49.7388 31.1485 49.7387 31.1485C49.7387 31.1484 49.7385 31.1483 49.7383 31.1481C49.738 31.1476 49.7373 31.1469 49.7365 31.1459C49.7347 31.144 49.732 31.141 49.7285 31.137C49.7214 31.1291 49.711 31.1173 49.698 31.1026C49.672 31.0731 49.6362 31.0323 49.597 30.9868C49.513 30.8893 49.4333 30.793 49.3937 30.7385L48.7871 31.1796L48.1806 31.6208C48.2606 31.7308 48.3775 31.8694 48.4603 31.9655C48.5045 32.0169 48.5446 32.0626 48.5736 32.0954C48.5881 32.1119 48.6 32.1253 48.6083 32.1346C48.6125 32.1393 48.6158 32.143 48.6181 32.1456C48.6193 32.1469 48.6202 32.148 48.6209 32.1487C48.6212 32.1491 48.6215 32.1494 48.6217 32.1496C48.6218 32.1497 48.6219 32.1498 48.6219 32.1499C48.622 32.1499 48.622 32.1499 48.622 32.15C48.622 32.15 48.622 32.15 48.6221 32.15C48.6221 32.15 48.6221 32.15 49.1804 31.6493ZM48.7871 31.1796L49.3937 30.7385C49.3404 30.6652 49.2554 30.5275 49.1728 30.3868C49.1341 30.3208 49.0998 30.2608 49.0751 30.2173C49.0629 30.1956 49.0531 30.1782 49.0465 30.1664C49.0432 30.1605 49.0407 30.156 49.039 30.1531C49.0382 30.1516 49.0376 30.1505 49.0373 30.1499C49.0371 30.1496 49.037 30.1494 49.0369 30.1493C49.0369 30.1492 49.0369 30.1492 49.0369 30.1492C49.0369 30.1492 49.0369 30.1492 49.0369 30.1492C49.0369 30.1492 49.0369 30.1492 49.0369 30.1492C49.0369 30.1492 49.0369 30.1492 48.3808 30.5125C47.7247 30.8758 47.7247 30.8759 47.7247 30.8759C47.7247 30.8759 47.7247 30.8759 47.7247 30.8759C47.7247 30.876 47.7248 30.876 47.7248 30.8761C47.7248 30.8762 47.7249 30.8763 47.725 30.8765C47.7252 30.8768 47.7254 30.8773 47.7257 30.8778C47.7263 30.8789 47.7272 30.8804 47.7283 30.8823C47.7304 30.8862 47.7334 30.8917 47.7373 30.8986C47.7451 30.9124 47.7562 30.9322 47.7699 30.9564C47.7972 31.0047 47.8355 31.0716 47.879 31.1458C47.9609 31.2853 48.079 31.4812 48.1806 31.6208L48.7871 31.1796ZM48.3808 30.5125C49.0651 30.2056 49.0651 30.2056 49.0651 30.2056C49.0651 30.2056 49.0651 30.2057 49.0651 30.2057C49.0651 30.2057 49.0651 30.2057 49.0651 30.2057C49.0651 30.2057 49.0651 30.2056 49.0651 30.2056C49.065 30.2054 49.0649 30.2052 49.0647 30.2048C49.0644 30.204 49.0638 30.2028 49.0631 30.2011C49.0616 30.1977 49.0593 30.1925 49.0562 30.1857C49.0502 30.172 49.0413 30.1519 49.0303 30.1267C49.0083 30.0763 48.9781 30.0066 48.9456 29.9291C48.8766 29.7643 48.8111 29.5979 48.7817 29.502L48.0647 29.7219L47.3476 29.9418C47.4014 30.1172 47.494 30.3461 47.5622 30.5089C47.5984 30.5951 47.6317 30.6721 47.6559 30.7276C47.668 30.7554 47.678 30.7779 47.685 30.7937C47.6885 30.8016 47.6913 30.8078 47.6932 30.8122C47.6942 30.8144 47.695 30.8161 47.6955 30.8173C47.6958 30.8179 47.696 30.8184 47.6962 30.8188C47.6962 30.8189 47.6963 30.8191 47.6964 30.8192C47.6964 30.8193 47.6964 30.8193 47.6964 30.8194C47.6964 30.8194 47.6964 30.8194 47.6964 30.8194C47.6965 30.8195 47.6965 30.8195 48.3808 30.5125ZM48.0647 29.7219L48.7817 29.502C48.702 29.2422 48.6436 28.976 48.6087 28.7093L47.865 28.8065L47.1214 28.9038C47.1675 29.2564 47.2442 29.6045 47.3476 29.9418L48.0647 29.7219ZM47.865 28.8065L48.6087 28.7093C48.5748 28.4499 48.5644 28.1807 48.5728 27.9056L47.8231 27.8829L47.0734 27.8603C47.0631 28.2013 47.0754 28.552 47.1214 28.9038L47.865 28.8065ZM47.8231 27.8829L48.5728 27.9057C48.5764 27.786 48.5973 27.5816 48.6212 27.3848C48.6326 27.2912 48.6437 27.2067 48.652 27.1456C48.6561 27.1151 48.6596 27.0907 48.6619 27.074C48.6631 27.0657 48.664 27.0593 48.6646 27.0551C48.6649 27.053 48.6651 27.0515 48.6652 27.0505C48.6653 27.05 48.6653 27.0497 48.6654 27.0495C48.6654 27.0494 48.6654 27.0494 48.6654 27.0493C48.6654 27.0493 48.6654 27.0493 48.6654 27.0493C48.6654 27.0493 48.6654 27.0494 48.6654 27.0494C48.6654 27.0494 48.6654 27.0494 47.9231 26.9421C47.1808 26.8348 47.1808 26.8349 47.1808 26.8349C47.1808 26.8349 47.1808 26.8349 47.1808 26.8349C47.1808 26.835 47.1808 26.835 47.1808 26.8351C47.1808 26.8352 47.1807 26.8354 47.1807 26.8356C47.1806 26.836 47.1806 26.8366 47.1805 26.8373C47.1803 26.8387 47.18 26.8407 47.1796 26.8433C47.1789 26.8484 47.1778 26.8558 47.1765 26.8652C47.1739 26.884 47.1701 26.9109 47.1656 26.944C47.1567 27.01 47.1446 27.1016 47.1322 27.2038C47.1085 27.3986 47.0794 27.6646 47.0734 27.8601L47.8231 27.8829ZM47.9231 26.9421L48.6631 27.0643L49.732 20.5928L48.992 20.4706L48.252 20.3483L47.1831 26.8199L47.9231 26.9421ZM48.992 20.4706L49.7355 20.5689L49.7856 20.1899L49.0421 20.0915L48.2986 19.9932L48.2485 20.3722L48.992 20.4706ZM37.6762 11.0166L37.4671 10.2963L7.20332 19.0818L7.41241 19.802L7.6215 20.5223L37.8853 11.7369L37.6762 11.0166ZM25.6332 51.1771L26.2692 51.5746L27.116 50.2195L26.48 49.822L25.844 49.4246L24.9972 50.7796L25.6332 51.1771ZM26.48 49.822C27.152 50.1552 27.152 50.1551 27.152 50.1551C27.152 50.155 27.1521 50.1549 27.1521 50.1549C27.1522 50.1548 27.1522 50.1546 27.1523 50.1545C27.1525 50.1542 27.1526 50.1539 27.1528 50.1535C27.1531 50.1528 27.1536 50.152 27.1541 50.1509C27.1551 50.1489 27.1563 50.1463 27.1578 50.1432C27.1609 50.1369 27.165 50.1285 27.17 50.118C27.1799 50.0971 27.1935 50.068 27.2095 50.0325C27.2412 49.9622 27.2836 49.8636 27.3259 49.7517C27.3676 49.6416 27.4133 49.5079 27.4476 49.3693C27.4794 49.2412 27.5147 49.0585 27.5027 48.867L26.7542 48.9138L26.0056 48.9605C26.0035 48.9269 26.0095 48.9366 25.9917 49.0084C25.9765 49.0697 25.9524 49.1434 25.9231 49.2208C25.8944 49.2965 25.8646 49.3659 25.8418 49.4165C25.8305 49.4415 25.8213 49.4612 25.8153 49.4739C25.8123 49.4803 25.8101 49.4848 25.8088 49.4874C25.8082 49.4887 25.8078 49.4894 25.8077 49.4897C25.8076 49.4898 25.8076 49.4898 25.8077 49.4897C25.8077 49.4896 25.8078 49.4895 25.8078 49.4894C25.8079 49.4893 25.8079 49.4892 25.808 49.4891C25.808 49.4891 25.808 49.489 25.808 49.489C25.8081 49.4889 25.8081 49.4888 26.48 49.822ZM26.7542 48.9138L27.5027 48.867C27.4825 48.5439 27.3702 48.2709 27.2645 48.0652C27.1686 47.8786 27.0301 47.6639 26.9663 47.5563L26.3212 47.9389L25.6762 48.3215C25.7937 48.5197 25.8606 48.615 25.9303 48.7507C25.9902 48.8672 26.0037 48.9288 26.0056 48.9605L26.7542 48.9138ZM26.3212 47.9389L26.9663 47.5563C26.7971 47.271 26.5177 46.9088 26.3051 46.6438C26.1941 46.5055 26.0924 46.3827 26.0185 46.2945C25.9815 46.2504 25.9513 46.2147 25.9301 46.1898C25.9195 46.1773 25.9112 46.1676 25.9054 46.1608C25.9025 46.1574 25.9002 46.1548 25.8986 46.1529C25.8978 46.152 25.8972 46.1513 25.8967 46.1507C25.8965 46.1505 25.8963 46.1503 25.8962 46.1501C25.8961 46.15 25.8961 46.1499 25.896 46.1499C25.896 46.1499 25.896 46.1498 25.8959 46.1498C25.8959 46.1498 25.8959 46.1497 25.3276 46.6392C24.7593 47.1287 24.7593 47.1286 24.7593 47.1286C24.7593 47.1286 24.7593 47.1286 24.7593 47.1286C24.7593 47.1286 24.7593 47.1286 24.7593 47.1286C24.7593 47.1287 24.7594 47.1287 24.7595 47.1289C24.7598 47.1291 24.7602 47.1296 24.7607 47.1303C24.7619 47.1316 24.7636 47.1337 24.7661 47.1365C24.7709 47.1421 24.7782 47.1507 24.7877 47.1619C24.8067 47.1842 24.8346 47.2171 24.869 47.2581C24.9379 47.3404 25.0325 47.4546 25.1351 47.5825C25.3498 47.85 25.5672 48.1377 25.6762 48.3215L26.3212 47.9389ZM25.3276 46.6392L25.8597 46.1106L24.4005 44.6417L23.8684 45.1703L23.3363 45.6989L24.7955 47.1678L25.3276 46.6392ZM23.8684 45.1703L24.406 44.6474L23.5917 43.8103L23.0541 44.3333L22.5165 44.8562L23.3308 45.6933L23.8684 45.1703ZM57 20.4213L57.736 20.2773L57.1256 17.1563L56.3895 17.3003L55.6535 17.4442L56.2639 20.5652L57 20.4213ZM56.3895 17.3003C57.1182 17.1229 57.1182 17.1229 57.1182 17.1229C57.1182 17.1229 57.1182 17.1229 57.1182 17.1228C57.1182 17.1228 57.1182 17.1227 57.1182 17.1226C57.1181 17.1225 57.1181 17.1222 57.118 17.1219C57.1179 17.1214 57.1177 17.1206 57.1174 17.1195C57.1169 17.1174 57.1162 17.1144 57.1152 17.1105C57.1133 17.1027 57.1105 17.0913 57.1069 17.0767C57.0997 17.0476 57.0893 17.0058 57.0764 16.9542C57.0505 16.851 57.0141 16.7082 56.9723 16.5497C56.8908 16.2405 56.7817 15.8447 56.6872 15.5723L55.9786 15.8182L55.2701 16.0642C55.3437 16.2761 55.44 16.6213 55.5219 16.932C55.5618 17.0835 55.5967 17.2204 55.6215 17.3194C55.634 17.3689 55.6438 17.4088 55.6506 17.4362C55.654 17.4498 55.6566 17.4604 55.6583 17.4674C55.6591 17.4709 55.6598 17.4735 55.6602 17.4753C55.6604 17.4761 55.6606 17.4767 55.6607 17.4771C55.6607 17.4773 55.6607 17.4775 55.6608 17.4775C55.6608 17.4776 55.6608 17.4776 55.6608 17.4776C55.6608 17.4776 55.6608 17.4776 55.6608 17.4776C55.6608 17.4776 55.6608 17.4776 56.3895 17.3003ZM55.9786 15.8182L56.6872 15.5723C56.4998 15.0324 56.2825 14.4662 55.9927 13.9234L55.3311 14.2767L54.6695 14.6299C54.9047 15.0705 55.092 15.551 55.2701 16.0642L55.9786 15.8182ZM55.3311 14.2767L55.9927 13.9234C55.7513 13.4714 55.463 13.0586 55.1741 12.6801L54.5779 13.1351L53.9817 13.5901C54.246 13.9364 54.4814 14.2776 54.6695 14.6299L55.3311 14.2767ZM54.5779 13.1351L55.1741 12.6801C54.9387 12.3716 54.6809 12.0925 54.436 11.838L53.8955 12.358L53.355 12.8779C53.5881 13.1203 53.7988 13.3505 53.9817 13.5901L54.5779 13.1351ZM53.8955 12.358L54.436 11.838C54.1312 11.5212 53.8042 11.1987 53.4465 10.8997L52.9655 11.4752L52.4845 12.0506C52.7827 12.2998 53.0671 12.5787 53.355 12.8779L53.8955 12.358ZM52.9655 11.4752L53.4465 10.8997C53.1356 10.6399 52.809 10.4127 52.5027 10.206L52.0831 10.8276L51.6636 11.4493C51.962 11.6507 52.2356 11.8425 52.4845 12.0506L52.9655 11.4752ZM52.0831 10.8276L52.5027 10.206C52.0837 9.92315 51.608 9.5943 51.0896 9.33411L50.7532 10.0044L50.4167 10.6747C50.8303 10.8823 51.2183 11.1487 51.6636 11.4493L52.0831 10.8276ZM50.7532 10.0044L51.0896 9.33411C50.612 9.09433 50.1179 8.91245 49.6395 8.75988L49.4116 9.47443L49.1837 10.189C49.6215 10.3286 50.0349 10.483 50.4167 10.6747L50.7532 10.0044ZM49.4116 9.47443L49.6395 8.75988C49.3027 8.65247 48.9653 8.57831 48.6519 8.51599L48.5056 9.25159L48.3593 9.98718C48.656 10.0462 48.928 10.1074 49.1838 10.189L49.4116 9.47443ZM48.5056 9.25159L48.6519 8.51599C48.1483 8.41586 47.5877 8.30482 47.0116 8.26791L46.9637 9.01638L46.9157 9.76485C47.3774 9.79442 47.843 9.88453 48.3593 9.98719L48.5056 9.25159ZM46.9637 9.01638L47.0116 8.26791C46.4754 8.23356 45.9393 8.25008 45.4149 8.3049L45.4929 9.05084L45.5708 9.79677C46.0219 9.74963 46.4731 9.73649 46.9157 9.76485L46.9637 9.01638ZM45.4929 9.05084L45.4149 8.3049C45.1304 8.33464 44.7359 8.40936 44.436 8.47047C44.281 8.50205 44.142 8.53192 44.0418 8.55389C43.9916 8.5649 43.951 8.57396 43.9227 8.58032C43.9085 8.58349 43.8974 8.586 43.8898 8.58774C43.886 8.5886 43.883 8.58928 43.8809 8.58975C43.8799 8.58999 43.8791 8.59017 43.8785 8.59031C43.8782 8.59037 43.878 8.59043 43.8778 8.59047C43.8777 8.59049 43.8776 8.5905 43.8776 8.59052C43.8776 8.59052 43.8775 8.59053 43.8775 8.59053C43.8775 8.59054 43.8775 8.59055 44.0449 9.32162C44.2123 10.0527 44.2122 10.0527 44.2122 10.0527C44.2122 10.0527 44.2122 10.0527 44.2122 10.0527C44.2122 10.0527 44.2122 10.0527 44.2123 10.0527C44.2123 10.0527 44.2124 10.0527 44.2126 10.0526C44.213 10.0525 44.2135 10.0524 44.2143 10.0522C44.2159 10.0519 44.2184 10.0513 44.2217 10.0506C44.2284 10.049 44.2384 10.0468 44.2514 10.0438C44.2775 10.038 44.3156 10.0295 44.3631 10.0191C44.458 9.99826 44.5895 9.97001 44.7354 9.94028C45.0374 9.87875 45.367 9.81808 45.5708 9.79677L45.4929 9.05084ZM44.0449 9.32162L43.8869 8.58846L42.1924 8.95363L42.3505 9.68679L42.5085 10.42L44.2029 10.0548L44.0449 9.32162ZM42.3505 9.68679L42.1452 8.96542L37.4709 10.2952L37.6762 11.0166L37.8814 11.738L42.5557 10.4082L42.3505 9.68679ZM7.41241 19.802L6.86127 19.2934L6.1294 20.0864L6.68054 20.595L7.23168 21.1037L7.96355 20.3107L7.41241 19.802ZM6.68054 20.595C5.97426 20.3427 5.97424 20.3427 5.97423 20.3428C5.97422 20.3428 5.97421 20.3428 5.9742 20.3429C5.97417 20.3429 5.97415 20.343 5.97412 20.3431C5.97406 20.3433 5.97398 20.3435 5.97389 20.3437C5.97371 20.3442 5.97347 20.3449 5.97318 20.3457C5.9726 20.3474 5.9718 20.3496 5.97079 20.3525C5.96877 20.3582 5.96593 20.3663 5.96235 20.3765C5.95521 20.3969 5.94514 20.426 5.93298 20.4617C5.90875 20.5329 5.87581 20.632 5.84104 20.743C5.77664 20.9487 5.6879 21.2515 5.65356 21.49L6.3959 21.5969L7.13824 21.7038C7.15339 21.5986 7.20697 21.4005 7.27251 21.1912C7.30272 21.0947 7.33166 21.0077 7.35307 20.9448C7.36373 20.9134 7.37241 20.8884 7.37833 20.8715C7.38128 20.863 7.38353 20.8566 7.38498 20.8525C7.38571 20.8505 7.38623 20.849 7.38655 20.8481C7.3867 20.8477 7.3868 20.8474 7.38685 20.8473C7.38687 20.8472 7.38688 20.8472 7.38688 20.8472C7.38688 20.8472 7.38687 20.8472 7.38686 20.8472C7.38686 20.8472 7.38685 20.8473 7.38685 20.8473C7.38684 20.8473 7.38682 20.8473 6.68054 20.595ZM6.3959 21.5969L5.65356 21.49C5.59503 21.8963 5.59233 22.4664 5.59975 22.8945C5.60361 23.1171 5.61063 23.3171 5.61667 23.4615C5.61969 23.5338 5.62249 23.5925 5.62454 23.6334C5.62557 23.6539 5.62642 23.6699 5.62701 23.681C5.62731 23.6866 5.62755 23.6909 5.62772 23.694C5.6278 23.6955 5.62787 23.6967 5.62792 23.6975C5.62794 23.698 5.62796 23.6983 5.62798 23.6986C5.62799 23.6987 5.62799 23.6988 5.628 23.6989C5.628 23.699 5.628 23.699 5.628 23.699C5.62801 23.6991 5.62801 23.6991 6.37679 23.6564C7.12557 23.6137 7.12557 23.6137 7.12557 23.6137C7.12557 23.6137 7.12558 23.6137 7.12558 23.6137C7.12558 23.6137 7.12558 23.6137 7.12557 23.6137C7.12557 23.6136 7.12556 23.6135 7.12555 23.6132C7.12552 23.6128 7.12548 23.612 7.12541 23.6109C7.12529 23.6086 7.1251 23.6051 7.12485 23.6004C7.12434 23.591 7.12359 23.5767 7.12265 23.5581C7.12078 23.5209 7.11819 23.4665 7.11536 23.3988C7.10968 23.2632 7.10312 23.0758 7.09953 22.8685C7.09204 22.4366 7.09889 21.977 7.13824 21.7038L6.3959 21.5969ZM6.37679 23.6564L5.63157 23.5718L5.29525 26.5351L6.04046 26.6197L6.78568 26.7043L7.12201 23.741L6.37679 23.6564ZM6.04046 26.6197L5.34847 26.3305L5.06719 27.0035L5.75919 27.2927L6.45119 27.5819L6.73246 26.9089L6.04046 26.6197ZM5.75919 27.2927L5.1998 26.7931L4.6586 27.3991L5.21799 27.8987L5.77738 28.3983L6.31858 27.7923L5.75919 27.2927ZM5.21799 27.8987L4.73694 27.3233L4.03805 27.9076L4.5191 28.483L5.00015 29.0584L5.69904 28.4741L5.21799 27.8987ZM4.5191 28.483L4.05552 27.8934L3.56825 28.2766L4.03184 28.8661L4.49543 29.4557L4.98269 29.0726L4.5191 28.483ZM4.03184 28.8661L3.46013 28.3807L3.01555 28.9043L3.58727 29.3897L4.15898 29.8752L4.60356 29.3516L4.03184 28.8661ZM3.58727 29.3897L2.92526 29.0372L2.59043 29.6661L3.25243 30.0186L3.91444 30.3711L4.24927 29.7422L3.58727 29.3897ZM3.25243 30.0186L2.55974 29.731L2.37847 30.1678L3.07117 30.4553L3.76386 30.7428L3.94513 30.3061L3.25243 30.0186ZM3.07117 30.4553L2.32715 30.3607L2.25599 30.9206L3 31.0152L3.74401 31.1098L3.81518 30.5498L3.07117 30.4553ZM3 31.0152L2.25009 31.0267L2.2632 31.881L3.01311 31.8695L3.76302 31.858L3.74991 31.0037L3 31.0152ZM3.01311 31.8695L2.29221 32.0764L2.44989 32.6258L3.17079 32.419L3.89169 32.2121L3.73401 31.6626L3.01311 31.8695ZM3.17079 32.419L2.481 32.7134L2.72257 33.2793L3.41236 32.9849L4.10214 32.6904L3.86057 32.1245L3.17079 32.419ZM3.41236 32.9849L2.77555 33.3811L3.09129 33.8886L3.7281 33.4924L4.36491 33.0962L4.04917 32.5887L3.41236 32.9849ZM3.7281 33.4924L3.1841 34.0087L3.60994 34.4574L4.15394 33.9411L4.69794 33.4248L4.27209 32.9761L3.7281 33.4924ZM4.15394 33.9411L3.74916 34.5725L6.06151 36.0549L6.46629 35.4235L6.87106 34.7921L4.55871 33.3097L4.15394 33.9411ZM6.46629 35.4235L6.08024 36.0665L8.02777 37.2357L8.41382 36.5927L8.79987 35.9497L6.85234 34.7805L6.46629 35.4235ZM8.41382 36.5927L7.91482 37.1526L8.23842 37.441L8.73742 36.8811L9.23641 36.3212L8.91282 36.0328L8.41382 36.5927ZM8.73742 36.8811L8.08214 37.246L8.34094 37.7108L8.99621 37.3459L9.65149 36.9811L9.39269 36.5163L8.73742 36.8811ZM8.99621 37.3459L8.27715 37.5591L8.43595 38.0947L9.15501 37.8815L9.87407 37.6683L9.71528 37.1327L8.99621 37.3459ZM9.15501 37.8815L8.40539 37.9054L8.42636 38.5645L9.17598 38.5407L9.9256 38.5168L9.90463 37.8577L9.15501 37.8815ZM9.17598 38.5407L8.44928 38.3552L8.3534 38.7309L9.0801 38.9164L9.8068 39.1018L9.90268 38.7262L9.17598 38.5407ZM9.0801 38.9164L8.40775 38.584L8.24633 38.9106L8.91868 39.2429L9.59103 39.5753L9.75245 39.2487L9.0801 38.9164ZM8.91868 39.2429L8.3531 38.7504L7.89317 39.2785L8.45875 39.771L9.02433 40.2636L9.48426 39.7355L8.91868 39.2429ZM8.45875 39.771L8.08786 39.1192L7.71857 39.3293L8.08946 39.9811L8.46035 40.633L8.82964 40.4229L8.45875 39.771ZM8.08946 39.9811L7.91441 39.2519L7.25748 39.4095L7.43252 40.1388L7.60757 40.8681L8.2645 40.7104L8.08946 39.9811ZM7.43252 40.1388L7.24722 39.4121L6.72287 39.5458L6.90817 40.2725L7.09348 40.9993L7.61783 40.8656L7.43252 40.1388ZM6.90817 40.2725L6.55354 39.6117L5.99586 39.9109L6.35049 40.5718L6.70512 41.2327L7.2628 40.9334L6.90817 40.2725ZM6.35049 40.5718L5.76977 40.0972L5.32071 40.6466L5.90142 41.1212L6.48214 41.5959L6.9312 41.0464L6.35049 40.5718ZM5.90142 41.1212L5.16676 40.9703L5.03343 41.6194L5.76809 41.7703L6.50275 41.9212L6.63608 41.2721L5.90142 41.1212ZM5.76809 41.7703L5.03911 41.9466L5.16383 42.4623L5.89281 42.286L6.6218 42.1097L6.49708 41.594L5.76809 41.7703ZM5.89281 42.286L5.30438 42.751L5.53584 43.0439L6.12428 42.5789L6.71271 42.1139L6.48125 41.821L5.89281 42.286ZM6.12428 42.5789L5.73302 43.2188L6.61505 43.7581L7.0063 43.1182L7.39756 42.4784L6.51553 41.939L6.12428 42.5789ZM7.0063 43.1182L6.7085 43.8066L25.3354 51.8654L25.6332 51.1771L25.931 50.4888L7.30411 42.4299L7.0063 43.1182Z" fill="white"/>
<defs>
<pattern id="pattern0_217_12" patternUnits="userSpaceOnUse" patternTransform="matrix(12 0 0 12 0 0)" preserveAspectRatio="none" viewBox="0 0 12 12" width="1" height="1">
<g id="pattern0_217_12_inner">
<rect y="2" width="3" height="1" fill="#D9D9D9"/>
<rect y="8" width="3" height="1" fill="#D9D9D9"/>
<rect x="6" y="2" width="3" height="1" fill="#D9D9D9"/>
<rect x="6" y="8" width="3" height="1" fill="#D9D9D9"/>
<rect x="5" y="3" width="3" height="1" transform="rotate(180 5 3)" fill="#D9D9D9"/>
<rect x="5" y="9" width="3" height="1" transform="rotate(180 5 9)" fill="#D9D9D9"/>
<rect x="11" y="3" width="3" height="1" transform="rotate(180 11 3)" fill="#D9D9D9"/>
<rect x="11" y="9" width="3" height="1" transform="rotate(180 11 9)" fill="#D9D9D9"/>
<rect x="2" width="1" height="2" fill="#D9D9D9"/>
<rect x="2" y="6" width="1" height="2" fill="#D9D9D9"/>
<rect x="8" width="1" height="2" fill="#D9D9D9"/>
<rect x="8" y="6" width="1" height="2" fill="#D9D9D9"/>
<rect x="3" y="5" width="1" height="2" transform="rotate(180 3 5)" fill="#D9D9D9"/>
<rect x="3" y="11" width="1" height="2" transform="rotate(180 3 11)" fill="#D9D9D9"/>
<rect x="9" y="5" width="1" height="2" transform="rotate(180 9 5)" fill="#D9D9D9"/>
<rect x="9" y="11" width="1" height="2" transform="rotate(180 9 11)" fill="#D9D9D9"/>
</g>
</pattern></defs>
</svg>
