<svg width="60" height="60" viewBox="0 0 60 60" fill="none" xmlns="http://www.w3.org/2000/svg" xmlns:xlink="http://www.w3.org/1999/xlink">
<rect width="60" height="60" fill="url(#pattern0_246_33)" fill-opacity="0.1"/>
<path d="M3.01815 26.7183C2.94963 27.1916 3.06945 27.7023 3.47393 28.1866C3.96559 28.7727 4.49344 29.2547 5.14778 29.6538C6.09986 30.2346 7.23062 30.5315 8.22814 31.0489C8.67144 31.2789 9.10571 31.5536 9.47022 31.896C11.1924 33.5134 12.7572 35.3584 14.4882 36.9284C14.6617 37.0857 14.9598 37.1287 15.1838 37.0778C15.8375 36.9294 16.48 36.4418 17.1214 36.3305C17.3412 36.2923 17.5979 36.4658 17.7673 36.6294C18.9393 37.7612 19.9623 39.084 21.1458 40.2168C21.7841 40.8279 22.4586 41.4689 23.2325 41.8611C23.9988 42.2495 24.9101 42.3821 25.7663 42.5587C26.6822 42.7475 27.6161 42.8964 28.5486 42.9573C29.6531 43.0293 30.7691 42.9969 31.8774 42.9573C33.0877 42.9139 34.3047 42.8697 35.5043 42.7081C37.6335 42.4213 39.7475 41.9971 41.8637 41.612C44.4011 41.1501 46.925 40.612 49.4653 40.167C51.7609 39.7649 54.1343 39.5644 56.3712 39.0709C56.6185 39.0163 56.9016 38.7652 56.9444 38.4888C56.9633 38.3664 56.9895 37.5027 56.9895 37.5027C56.9895 37.5027 57.0501 36.5615 56.8801 36.2206C56.7616 35.9828 56.5676 35.786 56.2763 35.7562C54.2425 35.5478 52.0534 35.8521 50.0645 35.5009C49.3549 35.3756 48.5474 34.8735 48.1806 34.3265C47.8855 33.8863 48.0157 33.1191 48.0788 32.5393C48.1176 32.183 48.3178 31.8422 48.4861 31.5181C48.7421 31.0252 49.1556 30.5956 49.3517 30.0883C49.478 29.7616 49.5181 29.356 49.4535 29.016C49.3823 28.6412 49.2117 28.2118 48.9444 27.9437C48.5837 27.582 48.0905 27.2004 47.5696 27.1267C44.3567 26.6727 41.0189 26.6091 37.7429 26.3608C37.2002 26.3197 36.647 26.2101 36.1135 26.2587C35.7135 26.2952 35.274 26.4108 34.9425 26.6161C34.697 26.7682 34.6043 27.13 34.3824 27.331C34.0782 27.6066 33.7488 27.9815 33.3641 28.0459C32.7305 28.1518 31.9513 28.1068 31.3274 27.8416C27.267 26.1154 23.3221 23.9835 19.3113 22.0716C15.0737 20.0517 10.8469 17.8074 6.58227 16.0463C6.2305 15.9011 5.74233 16.1235 5.46212 16.3527C5.0974 16.6511 4.71015 17.1802 4.64746 17.6292C4.59135 18.0312 4.72742 18.6801 5.10571 18.9058C8.66492 21.029 12.7289 22.6632 16.46 24.6758C17.2095 25.0801 17.9389 25.5748 18.5475 26.1566C19.0251 26.6131 19.4279 27.1983 19.7186 27.7905C19.971 28.3046 20.1311 28.907 20.1768 29.4756C20.216 29.9622 20.2246 30.5866 19.9732 30.9564C19.7154 31.3355 19.1218 31.6948 18.6494 31.7223C17.9508 31.7629 17.1051 31.52 16.46 31.1606C15.4249 30.5839 14.5092 29.7177 13.6087 28.9139C12.9647 28.3391 12.4856 27.5767 11.8266 27.0246C11.1532 26.4604 10.3773 26.0065 9.61494 25.5606L9.58632 25.5438C8.72851 25.042 7.86059 24.4513 6.93868 24.1652C6.43494 24.0088 5.81824 24.074 5.30937 24.2162C4.78294 24.3634 4.19524 24.6374 3.83281 25.0332C3.4315 25.4714 3.10238 26.1363 3.01815 26.7183Z" stroke="white" stroke-width="1.5"/>
<defs>
<pattern id="pattern0_246_33" patternUnits="userSpaceOnUse" patternTransform="matrix(12 0 0 12 0 0)" preserveAspectRatio="none" viewBox="0 0 12 12" width="1" height="1">
<g id="pattern0_246_33_inner">
<rect y="2" width="3" height="1" fill="#D9D9D9"/>
<rect y="8" width="3" height="1" fill="#D9D9D9"/>
<rect x="6" y="2" width="3" height="1" fill="#D9D9D9"/>
<rect x="6" y="8" width="3" height="1" fill="#D9D9D9"/>
<rect x="5" y="3" width="3" height="1" transform="rotate(180 5 3)" fill="#D9D9D9"/>
<rect x="5" y="9" width="3" height="1" transform="rotate(180 5 9)" fill="#D9D9D9"/>
<rect x="11" y="3" width="3" height="1" transform="rotate(180 11 3)" fill="#D9D9D9"/>
<rect x="11" y="9" width="3" height="1" transform="rotate(180 11 9)" fill="#D9D9D9"/>
<rect x="2" width="1" height="2" fill="#D9D9D9"/>
<rect x="2" y="6" width="1" height="2" fill="#D9D9D9"/>
<rect x="8" width="1" height="2" fill="#D9D9D9"/>
<rect x="8" y="6" width="1" height="2" fill="#D9D9D9"/>
<rect x="3" y="5" width="1" height="2" transform="rotate(180 3 5)" fill="#D9D9D9"/>
<rect x="3" y="11" width="1" height="2" transform="rotate(180 3 11)" fill="#D9D9D9"/>
<rect x="9" y="5" width="1" height="2" transform="rotate(180 9 5)" fill="#D9D9D9"/>
<rect x="9" y="11" width="1" height="2" transform="rotate(180 9 11)" fill="#D9D9D9"/>
</g>
</pattern></defs>
</svg>
