<svg width="60" height="60" viewBox="0 0 60 60" fill="none" xmlns="http://www.w3.org/2000/svg" xmlns:xlink="http://www.w3.org/1999/xlink">
<rect width="60" height="60" fill="url(#pattern0_246_32)" fill-opacity="0.1"/>
<path d="M19.7756 48.2517C19.1008 48.3692 18.4304 48.5114 17.7564 48.6334C17.1942 48.7351 16.6326 48.8471 16.067 48.9229C15.7484 48.9656 15.4251 48.9773 15.1036 48.9887C14.8092 48.9992 14.5127 49.0077 14.2193 48.9887C13.9716 48.9726 13.7235 48.9333 13.4803 48.8834C13.2528 48.8368 13.0107 48.8018 12.8072 48.6992C12.6016 48.5956 12.4224 48.4263 12.2529 48.2649C11.9385 47.9656 11.6668 47.6162 11.3554 47.3173C11.3104 47.2741 11.2422 47.2282 11.1839 47.2383C11.0135 47.2677 10.8428 47.3965 10.6691 47.4357C10.6096 47.4492 10.5305 47.4378 10.4844 47.3963C10.0245 46.9816 9.60887 46.4942 9.15139 46.067C9.05456 45.9766 8.9392 45.904 8.82144 45.8433C8.55646 45.7066 8.25609 45.6282 8.00318 45.4748C7.82936 45.3694 7.67186 45.2216 7.54125 45.0668C7.4387 44.9452 7.35224 44.798 7.30369 44.6457C7.17187 44.2321 7.14603 43.7738 7.00014 43.3691C6.94366 43.2123 6.81894 43.0692 6.6966 42.9611C6.62537 42.8981 6.51526 42.8741 6.41944 42.8558C6.3085 42.8346 6.18924 42.8318 6.0763 42.8426C5.96048 42.8537 5.84889 42.9129 5.73316 42.9216C5.61573 42.9304 5.48771 42.9291 5.37681 42.8953C5.27214 42.8633 5.17629 42.791 5.08646 42.7242C4.93433 42.6111 4.79098 42.4841 4.65093 42.3557C4.51822 42.234 4.3741 42.119 4.2682 41.974C3.85498 41.4083 3.44956 40.8226 3.09359 40.2236C3.02723 40.112 2.99296 39.9674 3.00121 39.842C3.01056 39.6998 3.0777 39.5518 3.14638 39.4208C3.32846 39.0736 3.54051 38.7381 3.75348 38.4074C3.84846 38.26 3.94688 38.1112 4.07023 37.9863C5.09949 36.9443 6.14617 35.9121 7.21131 34.9067C7.38236 34.7452 7.57444 34.6027 7.77882 34.4855C12.2509 31.9223 16.7464 29.3893 21.2406 26.8655C21.3085 26.8273 21.3908 26.7957 21.4649 26.7996C21.5536 26.8044 21.6385 26.8711 21.7289 26.8918C21.8496 26.9194 21.9834 26.9655 22.0984 26.9444C22.1989 26.926 22.3033 26.8496 22.3756 26.7733C22.4529 26.6917 22.4902 26.5716 22.5472 26.4706C22.609 26.3611 22.6551 26.2398 22.7319 26.1416C22.8267 26.0205 22.9272 25.8899 23.0619 25.8126C28.4923 22.6962 33.9963 19.6737 39.4272 16.5606C39.5218 16.5063 39.5819 16.4017 39.6383 16.3105C39.6743 16.2525 39.692 16.1807 39.7043 16.1131C39.7184 16.036 39.7038 15.9535 39.7175 15.8762C39.7302 15.8043 39.743 15.7231 39.7835 15.6656C39.8266 15.6046 39.8988 15.5512 39.9683 15.5209C40.0395 15.4898 40.1259 15.4826 40.2058 15.4814C40.4206 15.4782 40.6379 15.5155 40.8525 15.5077C40.9986 15.5024 41.1511 15.4888 41.2881 15.4419C41.4459 15.3879 41.5882 15.2858 41.7368 15.205C42.2657 14.9173 42.7836 14.6072 43.3205 14.3364C43.5579 14.2167 43.8039 14.1075 44.0596 14.0337C46.5095 13.3266 48.9737 12.6579 51.4372 11.9938C52.6999 11.6533 53.9671 11.316 55.2381 11.0199C55.3793 10.987 55.5285 11.0042 55.6737 11.0067C56.0388 11.013 56.4142 10.9997 56.7691 11.0462C56.8497 11.0568 56.9374 11.1174 56.9802 11.1778C57.0122 11.2227 56.9966 11.3006 56.9934 11.3621C56.869 13.8055 56.7528 16.2519 56.5975 18.6926C56.5856 18.8797 56.5397 19.064 56.4919 19.2454C56.0293 21.003 55.5674 22.7634 55.0666 24.5097C54.9911 24.7726 54.8795 25.0252 54.763 25.273C53.894 27.1222 53.0519 29.0031 52.1103 30.8005C52.0269 30.9597 51.8422 31.0487 51.6879 31.1427C51.2879 31.3865 50.8336 31.562 50.4473 31.8139C50.3761 31.8604 50.3235 31.9562 50.3154 32.0376C50.3015 32.1755 50.3081 32.3469 50.3813 32.4719C50.8449 33.2638 51.4282 34.0078 51.9255 34.7882C51.9649 34.8501 51.9992 34.935 51.9915 34.9988C51.986 35.0447 51.9337 35.0947 51.8859 35.1173C50.0684 35.9764 48.2145 36.7821 46.3956 37.6441C46.2613 37.7078 46.1437 37.8033 46.0261 37.8942C45.1671 38.5578 44.3226 39.241 43.4657 39.9078C43.1612 40.1447 42.8417 40.363 42.5418 40.6053C42.3314 40.7754 42.1254 40.9532 41.9347 41.1449C41.5931 41.4884 41.2916 41.8732 40.9449 42.2109C40.7285 42.4216 40.495 42.6261 40.2454 42.79C40.1343 42.863 39.9938 42.8942 39.8627 42.9216C39.7211 42.9512 39.5716 42.9673 39.4272 42.9611C39.2681 42.9542 39.0996 42.9376 38.952 42.8821C38.796 42.8235 38.6631 42.7043 38.5165 42.6189C38.2188 42.4454 37.9274 42.2546 37.6191 42.1056C37.5007 42.0484 37.3663 42.0155 37.2363 42.0003C37.1023 41.9848 36.9623 41.998 36.8272 42.0135C36.6939 42.0287 36.5608 42.0566 36.4313 42.0925C36.0857 42.1882 35.7375 42.2857 35.4018 42.4083C35.2932 42.448 35.1894 42.5095 35.0983 42.5794C35.0178 42.6412 34.9444 42.7195 34.8871 42.8031C34.8212 42.8993 34.7838 43.0149 34.7287 43.119C34.6562 43.2562 34.5887 43.3973 34.5044 43.527C34.4347 43.6342 34.3628 43.7474 34.2668 43.8297C34.1428 43.936 33.9877 44.0094 33.8445 44.0929C33.7545 44.1454 33.6669 44.2145 33.5673 44.2377C33.403 44.2759 33.2242 44.2746 33.0526 44.2772C32.9295 44.279 32.7978 44.2883 32.6831 44.2508C32.5295 44.2006 32.3885 44.0999 32.2476 44.0139C32.0146 43.8718 31.8016 43.6906 31.5613 43.5665C31.4364 43.502 31.2911 43.4608 31.1521 43.448C31.0052 43.4345 30.8455 43.4437 30.7034 43.4875C30.3616 43.5929 30.0396 43.7731 29.7004 43.8955C29.3709 44.0144 29.035 44.1195 28.6973 44.2113C28.5511 44.2511 28.3995 44.2787 28.2486 44.2903C28.0563 44.3051 27.8593 44.272 27.6679 44.2903C27.5382 44.3027 27.4026 44.3253 27.2852 44.3824C26.6899 44.6719 26.1191 45.022 25.5299 45.33C24.751 45.7371 23.9479 46.1061 23.1807 46.5276C23.0856 46.5799 22.9993 46.6658 22.9431 46.7514C22.9157 46.793 22.9514 46.8631 22.9299 46.9093C22.8942 46.986 22.8462 47.0771 22.7715 47.1199C22.4942 47.2789 22.1483 47.3549 21.8741 47.5147C21.8095 47.5523 21.7696 47.632 21.7649 47.7108C21.763 47.7448 21.7674 47.7761 21.7624 47.8084C21.751 47.8814 21.6758 47.9478 21.6101 47.9622C21.0159 48.0925 20.3854 48.1455 19.7756 48.2517Z" stroke="white" stroke-width="1.5"/>
<defs>
<pattern id="pattern0_246_32" patternUnits="userSpaceOnUse" patternTransform="matrix(12 0 0 12 0 0)" preserveAspectRatio="none" viewBox="0 0 12 12" width="1" height="1">
<g id="pattern0_246_32_inner">
<rect y="2" width="3" height="1" fill="#D9D9D9"/>
<rect y="8" width="3" height="1" fill="#D9D9D9"/>
<rect x="6" y="2" width="3" height="1" fill="#D9D9D9"/>
<rect x="6" y="8" width="3" height="1" fill="#D9D9D9"/>
<rect x="5" y="3" width="3" height="1" transform="rotate(180 5 3)" fill="#D9D9D9"/>
<rect x="5" y="9" width="3" height="1" transform="rotate(180 5 9)" fill="#D9D9D9"/>
<rect x="11" y="3" width="3" height="1" transform="rotate(180 11 3)" fill="#D9D9D9"/>
<rect x="11" y="9" width="3" height="1" transform="rotate(180 11 9)" fill="#D9D9D9"/>
<rect x="2" width="1" height="2" fill="#D9D9D9"/>
<rect x="2" y="6" width="1" height="2" fill="#D9D9D9"/>
<rect x="8" width="1" height="2" fill="#D9D9D9"/>
<rect x="8" y="6" width="1" height="2" fill="#D9D9D9"/>
<rect x="3" y="5" width="1" height="2" transform="rotate(180 3 5)" fill="#D9D9D9"/>
<rect x="3" y="11" width="1" height="2" transform="rotate(180 3 11)" fill="#D9D9D9"/>
<rect x="9" y="5" width="1" height="2" transform="rotate(180 9 5)" fill="#D9D9D9"/>
<rect x="9" y="11" width="1" height="2" transform="rotate(180 9 11)" fill="#D9D9D9"/>
</g>
</pattern></defs>
</svg>
