<svg width="60" height="60" viewBox="0 0 60 60" fill="none" xmlns="http://www.w3.org/2000/svg" xmlns:xlink="http://www.w3.org/1999/xlink">
<rect width="60" height="60" fill="url(#pattern0_246_30)" fill-opacity="0.1"/>
<path d="M36.6202 33.7356L14.2007 33.627C14.0029 33.627 13.6142 33.586 13.429 33.7753C13.2707 33.9371 13.2069 34.2563 13.2504 34.4889L13.407 35.3245C13.459 35.6021 13.3382 36.0194 13.18 36.1704C12.898 36.4393 12.5433 36.3219 12.5433 36.3219L8.27084 34.7977C8.07583 34.725 7.8391 34.7554 7.64985 34.8426C7.45847 34.9307 7.19404 35.0788 7.20006 35.2937L7.28212 38.2163C7.28722 38.3978 7.21664 38.5984 7.08832 38.7237C6.91244 38.8956 6.39741 38.9627 6.39741 38.9627C6.39741 38.9627 4.76868 39.012 4.77758 38.7369C4.78648 38.4618 4.78239 32.4451 4.78239 32.4451C4.7813 32.2694 4.7324 32.0646 4.60076 31.952C4.41335 31.7916 4.12062 31.8603 3.88022 31.8162C3.66735 31.7771 3.41475 31.8341 3.24107 31.7022C3.10243 31.5968 3.03028 31.4039 3.00804 31.2285C2.97963 31.0046 3.02683 30.7565 3.14486 30.5658L4.11756 28.9938L4.12975 22.172C4.12817 21.9761 4.24808 21.7742 4.39786 21.6522C4.55784 21.522 4.78631 21.4978 4.9906 21.4917L18.5646 20.8636C19.7317 20.8096 25.2005 20.1666 25.2005 20.1666L27.2617 20.0026C27.4974 19.9838 27.6451 20.0726 27.7486 20.1304C28.1176 20.3366 27.9481 20.7502 27.9936 21.1735C28.0128 21.3523 28.1943 21.5212 28.4227 21.5349L32.5021 21.7782C32.6609 21.7782 32.8073 21.7143 32.8946 21.5785C33.0058 21.4052 32.953 21.1848 33.0232 20.9903C33.0771 20.8413 33.2069 20.6606 33.3377 20.575C33.514 20.4596 33.7563 20.4927 33.9634 20.5236L37.3529 21.0308C37.8819 21.1099 38.4193 20.9466 38.9501 20.8816C39.2968 20.8392 39.6372 20.732 39.9862 20.7246C40.6223 20.711 41.2606 20.8009 41.8841 20.9302C43.375 21.2395 43.3633 21.2324 45.0431 21.778C45.5095 21.9296 47.0819 22.4497 48.0405 22.9299C49.266 23.5438 50.4104 24.3224 51.5275 25.124C52.2809 25.6646 52.9945 26.2636 53.6883 26.8821C54.0105 27.1693 54.4439 27.3869 54.616 27.7873L56.5827 32.362C56.7895 32.843 56.9908 33.3552 56.9964 33.8807C56.9999 34.2051 57.0375 34.6651 56.7612 34.8237C56.5101 34.9678 56.1064 34.8009 55.9361 34.5633L53.9362 31.7728C53.6092 31.3165 52.9621 31.2403 52.4338 31.254C52.0207 31.2646 51.5842 31.4326 51.2807 31.7197C51.0772 31.9122 50.9569 32.2036 50.9155 32.4841L50.5042 35.276C50.4783 35.4519 50.4009 35.6465 50.2565 35.7456C49.9579 35.9505 49.5434 35.8598 49.1839 35.8615C48.6826 35.8493 47.8559 35.6123 47.5021 35.9548C47.2755 36.2329 47.3912 37.0688 47.2597 37.2668C47.1444 37.4234 46.2088 37.5923 45.6695 37.6899L38.6768 38.956C38.2391 39.0353 37.7485 39.0181 37.3505 38.8156C37.0989 38.6877 36.8764 38.4534 36.775 38.1852C36.7017 37.9912 36.6522 37.7202 36.7831 37.5611L39.0834 34.7645C39.226 34.5912 39.0981 34.2746 38.9616 34.0962C38.7693 33.845 38.3872 33.6945 38.1099 33.7006C37.318 33.7178 37.235 33.7174 36.6202 33.7356Z" stroke="white" stroke-width="1.5"/>
<defs>
<pattern id="pattern0_246_30" patternUnits="userSpaceOnUse" patternTransform="matrix(12 0 0 12 0 0)" preserveAspectRatio="none" viewBox="0 0 12 12" width="1" height="1">
<g id="pattern0_246_30_inner">
<rect y="2" width="3" height="1" fill="#D9D9D9"/>
<rect y="8" width="3" height="1" fill="#D9D9D9"/>
<rect x="6" y="2" width="3" height="1" fill="#D9D9D9"/>
<rect x="6" y="8" width="3" height="1" fill="#D9D9D9"/>
<rect x="5" y="3" width="3" height="1" transform="rotate(180 5 3)" fill="#D9D9D9"/>
<rect x="5" y="9" width="3" height="1" transform="rotate(180 5 9)" fill="#D9D9D9"/>
<rect x="11" y="3" width="3" height="1" transform="rotate(180 11 3)" fill="#D9D9D9"/>
<rect x="11" y="9" width="3" height="1" transform="rotate(180 11 9)" fill="#D9D9D9"/>
<rect x="2" width="1" height="2" fill="#D9D9D9"/>
<rect x="2" y="6" width="1" height="2" fill="#D9D9D9"/>
<rect x="8" width="1" height="2" fill="#D9D9D9"/>
<rect x="8" y="6" width="1" height="2" fill="#D9D9D9"/>
<rect x="3" y="5" width="1" height="2" transform="rotate(180 3 5)" fill="#D9D9D9"/>
<rect x="3" y="11" width="1" height="2" transform="rotate(180 3 11)" fill="#D9D9D9"/>
<rect x="9" y="5" width="1" height="2" transform="rotate(180 9 5)" fill="#D9D9D9"/>
<rect x="9" y="11" width="1" height="2" transform="rotate(180 9 11)" fill="#D9D9D9"/>
</g>
</pattern></defs>
</svg>
