<svg width="60" height="60" viewBox="0 0 60 60" fill="none" xmlns="http://www.w3.org/2000/svg" xmlns:xlink="http://www.w3.org/1999/xlink">
<rect width="60" height="60" fill="url(#pattern0_2021_436)" fill-opacity="0.1"/>
<path fill-rule="evenodd" clip-rule="evenodd" d="M26.1167 18.001C30.0613 17.9758 33.9898 18.4158 37.9318 18.5415C40.0094 18.6032 42.0878 18.6359 44.1665 18.6396C45.547 18.6424 49.9814 18.4358 50.835 19.4753C52.1213 21.0413 50.2672 24.7291 51.5078 26.4791C53.3542 26.5548 53.8476 23.95 55.7247 24.83C57.4546 25.641 57.2729 27.2883 56.0847 28.4592C54.7121 29.8113 53.182 30.7774 51.7185 31.9708C49.1169 34.0925 46.6305 36.2948 43.8322 38.153C40.5541 40.2959 37.0475 41.6352 33.0769 41.028C30.7841 40.6772 28.9702 39.986 26.8907 39.0474C25.6739 38.481 24.4667 37.8565 23.2531 37.3033C21.973 36.7197 20.7204 36.1846 19.4482 35.561C17.3498 34.527 15.2732 33.4491 13.2199 32.3282C12.5821 32.7292 12.2745 33.7215 11.6044 34.2245C10.948 34.7172 10.256 34.5677 9.51127 34.8984C8.73071 35.2449 8.16701 36.1033 7.35878 36.2683C6.87105 36.3666 6.36424 36.2654 5.95163 35.9874C5.21511 35.4969 4.94965 34.7329 4.78447 33.9083C3.80678 33.2645 2.75342 32.6044 2.29596 31.4661C1.75281 30.1146 2.02271 28.5939 2.57755 27.2849C3.06054 26.1474 3.95958 24.577 5.13334 24.0749C6.20205 23.6771 7.42435 24.3354 8.30391 24.8501C11.8262 26.9111 15.3841 29.3071 19.1203 30.9373C19.3655 30.5927 19.6286 30.2438 19.7681 29.8354C20.2392 28.4563 20.1215 26.8932 20.1084 25.4605C20.115 24.6814 20.091 23.9309 20.0749 23.1507C20.0429 21.6118 19.6376 18.8729 21.6445 18.3737C22.7641 18.0951 24.2122 18.0552 25.3665 18.0199C25.6126 18.0043 25.8697 18.0026 26.1167 18.001ZM27.3896 19.8015C26.6687 19.7884 25.8653 19.7533 25.1514 19.7977C23.9977 19.8047 22.847 19.9146 21.7129 20.1259C21.5776 21.1848 21.5788 22.1199 21.6242 23.1882C21.7323 25.7264 22.2616 28.5082 21.1467 30.9014C20.7163 31.8253 19.9816 32.7965 18.8432 32.5911C17.5404 32.3561 16.3445 31.4805 15.2194 30.8199C13.1666 29.6065 11.1059 28.4063 9.03749 27.2195C8.05021 26.6473 6.84191 25.6364 5.6912 25.5849C4.84389 26.0134 4.10279 27.7805 3.80923 28.6582C3.56435 29.3904 3.40636 30.2082 3.77714 30.9257C4.30613 31.9491 5.3755 32.1083 6.12941 32.9174C6.6035 33.4261 6.24452 34.359 6.9075 34.6255C7.03525 34.6768 7.23159 34.6425 7.3409 34.5693C7.82213 34.247 8.12246 33.6737 8.68102 33.4231C9.18531 33.1969 10.1296 33.2474 10.5658 32.9468C11.6072 32.2289 12.0282 30.3021 13.6427 30.7503C14.8418 31.0832 15.9906 31.8166 17.0841 32.4078C18.4005 33.1195 19.7069 33.8803 21.0335 34.5709C21.7932 34.9663 22.6369 35.3236 23.4218 35.6812L26.4675 37.0873C30.7087 39.026 34.3797 40.5221 39.0564 38.7839C40.3365 38.3031 41.5569 37.6771 42.6941 36.918C44.1368 35.9734 45.4387 34.9179 46.7843 33.8455C48.3173 32.6372 49.841 31.4176 51.3559 30.1868C52.7229 29.0911 54.7322 28.2631 55.2123 26.4608C53.8891 26.8911 53.3203 28.0746 51.8368 28.1076C50.8086 28.1305 50.0007 27.6083 49.7195 26.5962C49.2996 25.0833 49.5904 23.4489 49.5977 21.9019C49.6013 21.459 49.5601 20.9845 49.5308 20.5471C45.5806 20.2396 41.6208 20.0667 37.659 20.0288C36.0711 20.0017 34.465 20.0308 32.879 20.0035C31.0565 19.9722 29.2132 19.8347 27.3896 19.8015Z" fill="white"/>
<defs>
<pattern id="pattern0_2021_436" patternUnits="userSpaceOnUse" patternTransform="matrix(12 0 0 12 0 0)" preserveAspectRatio="none" viewBox="0 0 12 12" width="1" height="1">
<g id="pattern0_2021_436_inner">
<rect y="2" width="3" height="1" fill="#D9D9D9"/>
<rect y="8" width="3" height="1" fill="#D9D9D9"/>
<rect x="6" y="2" width="3" height="1" fill="#D9D9D9"/>
<rect x="6" y="8" width="3" height="1" fill="#D9D9D9"/>
<rect x="5" y="3" width="3" height="1" transform="rotate(180 5 3)" fill="#D9D9D9"/>
<rect x="5" y="9" width="3" height="1" transform="rotate(180 5 9)" fill="#D9D9D9"/>
<rect x="11" y="3" width="3" height="1" transform="rotate(180 11 3)" fill="#D9D9D9"/>
<rect x="11" y="9" width="3" height="1" transform="rotate(180 11 9)" fill="#D9D9D9"/>
<rect x="2" width="1" height="2" fill="#D9D9D9"/>
<rect x="2" y="6" width="1" height="2" fill="#D9D9D9"/>
<rect x="8" width="1" height="2" fill="#D9D9D9"/>
<rect x="8" y="6" width="1" height="2" fill="#D9D9D9"/>
<rect x="3" y="5" width="1" height="2" transform="rotate(180 3 5)" fill="#D9D9D9"/>
<rect x="3" y="11" width="1" height="2" transform="rotate(180 3 11)" fill="#D9D9D9"/>
<rect x="9" y="5" width="1" height="2" transform="rotate(180 9 5)" fill="#D9D9D9"/>
<rect x="9" y="11" width="1" height="2" transform="rotate(180 9 11)" fill="#D9D9D9"/>
</g>
</pattern></defs>
</svg>
