<svg width="60" height="60" viewBox="0 0 60 60" fill="none" xmlns="http://www.w3.org/2000/svg" xmlns:xlink="http://www.w3.org/1999/xlink">
<rect width="60" height="60" fill="url(#pattern0_176_47)" fill-opacity="0.1"/>
<path fill-rule="evenodd" clip-rule="evenodd" d="M26.3072 19.001C30.1194 18.9766 33.916 19.4018 37.7257 19.5234C39.7336 19.5829 41.7422 19.6145 43.7511 19.6181C45.0853 19.6208 49.3708 19.4211 50.1958 20.4258C51.4389 21.9392 49.6471 25.5033 50.846 27.1945C52.6305 27.2677 53.1073 24.7502 54.9214 25.6007C56.5932 26.3845 56.4176 27.9766 55.2693 29.1081C53.9428 30.4148 52.4641 31.3485 51.0497 32.5019C48.5354 34.5523 46.1324 36.6807 43.4281 38.4765C40.26 40.5475 36.8711 41.8419 33.0338 41.255C30.818 40.9161 29.0649 40.248 27.0552 39.3409C25.8793 38.7935 24.7126 38.19 23.5397 37.6553C22.3026 37.0914 21.0921 36.5742 19.8625 35.9716C17.8346 34.9723 15.8277 33.9306 13.8433 32.8472C13.2269 33.2348 12.9296 34.1938 12.282 34.6799C11.6476 35.1561 10.9789 35.0116 10.2592 35.3312C9.50478 35.6661 8.96001 36.4957 8.1789 36.6551C7.70755 36.7501 7.21775 36.6523 6.81899 36.3836C6.10719 35.9096 5.85064 35.1712 5.691 34.3743C4.74613 33.7521 3.72813 33.1142 3.28602 32.0141C2.7611 30.7079 3.02195 29.2383 3.55817 27.9733C4.02494 26.8739 4.89381 25.3563 6.02817 24.871C7.06101 24.4866 8.24228 25.1228 9.09231 25.6201C12.4964 27.6119 15.9348 29.9275 19.5456 31.5031C19.7826 31.17 20.0369 30.8328 20.1717 30.4381C20.627 29.1053 20.5132 27.5947 20.5006 26.2101C20.507 25.4571 20.4838 24.7318 20.4682 23.9778C20.4373 22.4906 20.0456 19.8436 21.9851 19.3611C23.0671 19.0919 24.4666 19.0533 25.5822 19.0192C25.82 19.0042 26.0685 19.0025 26.3072 19.001Z" stroke="white" stroke-width="1.5" stroke-linejoin="round"/>
<defs>
<pattern id="pattern0_176_47" patternUnits="userSpaceOnUse" patternTransform="matrix(12 0 0 12 0 0)" preserveAspectRatio="none" viewBox="0 0 12 12" width="1" height="1">
<g id="pattern0_176_47_inner">
<rect y="2" width="3" height="1" fill="#D9D9D9"/>
<rect y="8" width="3" height="1" fill="#D9D9D9"/>
<rect x="6" y="2" width="3" height="1" fill="#D9D9D9"/>
<rect x="6" y="8" width="3" height="1" fill="#D9D9D9"/>
<rect x="5" y="3" width="3" height="1" transform="rotate(180 5 3)" fill="#D9D9D9"/>
<rect x="5" y="9" width="3" height="1" transform="rotate(180 5 9)" fill="#D9D9D9"/>
<rect x="11" y="3" width="3" height="1" transform="rotate(180 11 3)" fill="#D9D9D9"/>
<rect x="11" y="9" width="3" height="1" transform="rotate(180 11 9)" fill="#D9D9D9"/>
<rect x="2" width="1" height="2" fill="#D9D9D9"/>
<rect x="2" y="6" width="1" height="2" fill="#D9D9D9"/>
<rect x="8" width="1" height="2" fill="#D9D9D9"/>
<rect x="8" y="6" width="1" height="2" fill="#D9D9D9"/>
<rect x="3" y="5" width="1" height="2" transform="rotate(180 3 5)" fill="#D9D9D9"/>
<rect x="3" y="11" width="1" height="2" transform="rotate(180 3 11)" fill="#D9D9D9"/>
<rect x="9" y="5" width="1" height="2" transform="rotate(180 9 5)" fill="#D9D9D9"/>
<rect x="9" y="11" width="1" height="2" transform="rotate(180 9 11)" fill="#D9D9D9"/>
</g>
</pattern></defs>
</svg>
