<svg width="60" height="60" viewBox="0 0 60 60" fill="none" xmlns="http://www.w3.org/2000/svg" xmlns:xlink="http://www.w3.org/1999/xlink">
<rect width="60" height="60" fill="url(#pattern0_246_28)" fill-opacity="0.1"/>
<path d="M23.6569 34.2711L23.9929 34.9416L23.9929 34.9416L23.6569 34.2711ZM23.6738 34.2627L23.3391 33.5915L23.339 33.5916L23.6738 34.2627ZM24.7903 32.6109L24.1403 32.2368L24.1403 32.2368L24.7903 32.6109ZM36.9436 21.7106L36.1938 21.6928V21.6929L36.9436 21.7106ZM36.9421 21.7754L36.1923 21.7577L36.1923 21.7577L36.9421 21.7754ZM36.4691 19.3988L35.804 19.7454L35.804 19.7454L36.4691 19.3988ZM36.5107 19.4784L35.8456 19.8251L37.1758 19.1319L36.5107 19.4784ZM36.4925 19.4435L35.8274 19.7902L35.8274 19.7903L36.4925 19.4435ZM4.12095 45.9968L4.04906 46.7433H4.04906L4.12095 45.9968ZM3.7092 45.4737L2.99046 45.688H2.99046L3.7092 45.4737ZM4.8091 39.9861L5.274 40.5746L5.274 40.5746L4.8091 39.9861ZM6.45432 38.7314L6.04836 38.1008H6.04836L6.45432 38.7314ZM10.0995 36.9749L10.4459 37.6401L10.4459 37.6401L10.0995 36.9749ZM12.2525 35.3804L11.7941 34.7868V34.7868L12.2525 35.3804ZM13.985 34.1201L13.6646 33.4419L13.6646 33.4419L13.985 34.1201ZM15.102 33.9009L15.0176 33.1557V33.1557L15.102 33.9009ZM16.611 33.5526L16.1563 32.9561L16.1563 32.9561L16.611 33.5526ZM17.0474 32.2484L16.3957 31.8772L16.3957 31.8772L17.0474 32.2484ZM17.7236 31.4718L17.5463 30.743H17.5463L17.7236 31.4718ZM18.09 31.5513L18.3933 30.8654H18.3933L18.09 31.5513ZM18.816 31.8709L18.5143 32.5576L18.5143 32.5576L18.816 31.8709ZM20.6098 32.9835L21.0342 32.3651H21.0342L20.6098 32.9835ZM22.2268 34.0334L21.8974 34.7072H21.8974L22.2268 34.0334ZM23.7623 34.2154L24.1557 34.8539L24.1558 34.8539L23.7623 34.2154ZM25.6503 31.2769L25.1024 30.7648H25.1024L25.6503 31.2769ZM27.6841 30.8135L27.7003 31.5633V31.5633L27.6841 30.8135ZM29.1747 30.7302L29.4687 31.4202L29.4687 31.4202L29.1747 30.7302ZM30.1914 29.9469L30.6983 30.4997V30.4997L30.1914 29.9469ZM31.8023 29.1024L31.7294 28.3559H31.7294L31.8023 29.1024ZM32.9431 28.7186L32.6303 28.0369V28.0369L32.9431 28.7186ZM34.4046 28.0704L34.6992 28.7602L34.6992 28.7602L34.4046 28.0704ZM35.6181 27.2861L36.2798 27.6392L36.2798 27.6392L35.6181 27.2861ZM35.6359 26.1795L34.8935 26.2865V26.2865L35.6359 26.1795ZM35.8843 25.1281L35.2934 24.6662V24.6662L35.8843 25.1281ZM36.8884 20.3235L36.163 20.514V20.514L36.8884 20.3235ZM36.2471 18.3012L35.6248 17.8825L35.6248 17.8825L36.2471 18.3012ZM37.7069 16.8086L38.2342 17.342V17.342L37.7069 16.8086ZM40.8272 16.1077L40.5058 16.7853V16.7853L40.8272 16.1077ZM43.2261 17.0398L43.1764 17.7881V17.7881L43.2261 17.0398ZM44.5913 16.8566L44.7475 17.5901H44.7475L44.5913 16.8566ZM45.7039 16.5829L45.3734 15.9097L45.3734 15.9097L45.7039 16.5829ZM45.9893 15.8839L46.7365 15.82L46.7365 15.82L45.9893 15.8839ZM45.7905 15.4665L46.2662 14.8867V14.8867L45.7905 15.4665ZM42.0593 14.2116L42.2261 13.4803V13.4803L42.0593 14.2116ZM41.2738 14.0185L41.4576 13.2914L41.4576 13.2914L41.2738 14.0185ZM40.5483 13.84L40.715 13.1088L40.715 13.1088L40.5483 13.84ZM39.7019 13.599L40.104 12.9659L40.1039 12.9659L39.7019 13.599ZM39.6028 13.1324L38.9492 12.7644L38.9492 12.7644L39.6028 13.1324ZM40.2895 13.1642L39.9463 13.831V13.831L40.2895 13.1642ZM40.4822 13.2547L40.2305 13.9613L40.2366 13.9634L40.4822 13.2547ZM40.8471 13.3812L40.6016 14.0898L40.6979 14.1232L40.7997 14.1297L40.8471 13.3812ZM42.4396 13.4821L42.4871 12.7336V12.7336L42.4396 13.4821ZM43.8232 13.5425L43.8376 12.7926V12.7926L43.8232 13.5425ZM44.3085 13.6015L44.5315 12.8855V12.8855L44.3085 13.6015ZM47.8678 14.4826L47.9756 13.7404V13.7404L47.8678 14.4826ZM51.6111 15.0892L51.4879 15.829V15.829L51.6111 15.0892ZM55.2493 15.681L55.141 16.4231L55.141 16.4231L55.2493 15.681ZM56.8268 16.554L56.145 16.8666V16.8666L56.8268 16.554ZM56.9241 23.5167L57.674 23.5315V23.5315L56.9241 23.5167ZM56.7837 30.114L57.4907 30.3641L57.5299 30.2534L57.5333 30.136L56.7837 30.114ZM41.8699 32.0376L42.2664 32.6742L42.278 32.6669L42.2894 32.6592L41.8699 32.0376ZM41.4283 32.3126L41.0318 31.6759L41.0028 31.694L40.9755 31.7147L41.4283 32.3126ZM37.0322 35.642L37.485 36.2399V36.2399L37.0322 35.642ZM26.2634 43.7596L26.6987 44.3703H26.6987L26.2634 43.7596ZM24.9277 44.3242L25.0726 45.06H25.0726L24.9277 44.3242ZM17.0222 45.0636L17.0834 45.8111L17.0222 45.0636ZM42.6916 31.5438L42.49 30.8213V30.8213L42.6916 31.5438ZM43.0549 31.4424L43.0565 30.6924L42.953 30.6922L42.8534 30.72L43.0549 31.4424ZM46.7087 31.4502L46.7137 30.7002L46.7103 30.7002L46.7087 31.4502ZM56.5011 30.9129L57.1362 31.3118L57.1805 31.2414L57.2082 31.163L56.5011 30.9129ZM23.6569 34.2711L23.9929 34.9416C23.998 34.9391 24.0029 34.9367 24.0086 34.9338L23.6738 34.2627L23.339 33.5916C23.3337 33.5942 23.3274 33.5973 23.3209 33.6006L23.6569 34.2711ZM24.8544 32.4996L24.2043 32.1255C24.1533 32.2142 24.1051 32.2979 24.0594 32.3772L24.7095 32.7514L25.3595 33.1255C25.4051 33.0462 25.4535 32.9622 25.5044 32.8737L24.8544 32.4996ZM24.7095 32.7514L25.3595 33.1255C25.3856 33.0802 25.4125 33.0333 25.4403 32.985L24.7903 32.6109L24.1403 32.2368C24.1124 32.2852 24.0855 32.3319 24.0594 32.3772L24.7095 32.7514ZM24.7903 32.6109L25.4403 32.985L25.5044 32.8737L24.8544 32.4996L24.2043 32.1255L24.1403 32.2368L24.7903 32.6109ZM36.9436 21.7106L36.1938 21.6929C36.1933 21.7142 36.1928 21.7356 36.1923 21.7577L36.9421 21.7754L37.6919 21.7931C37.6924 21.7713 37.6929 21.7495 37.6934 21.7282L36.9436 21.7106ZM36.9421 21.7754L37.6919 21.7931L37.6934 21.7283L36.9436 21.7106L36.1938 21.6929L36.1923 21.7577L36.9421 21.7754ZM36.4691 19.3988L35.804 19.7454C35.8112 19.7591 35.8182 19.7726 35.8251 19.7859C35.8321 19.7992 35.8389 19.8122 35.8456 19.8251L36.5107 19.4784L37.1757 19.1318C37.169 19.1189 37.1622 19.1058 37.1552 19.0925C37.1483 19.0792 37.1413 19.0658 37.1342 19.0522L36.4691 19.3988ZM36.5107 19.4784L37.1758 19.1319C37.1698 19.1204 37.1637 19.1087 37.1575 19.0968L36.4925 19.4435L35.8274 19.7903C35.8335 19.802 35.8395 19.8135 35.8455 19.825L36.5107 19.4784ZM36.4925 19.4435L37.1575 19.0968L37.1342 19.0521L36.4691 19.3988L35.8041 19.7455L35.8274 19.7902L36.4925 19.4435ZM4.12095 45.9968L4.19284 45.2502C4.1844 45.2494 4.23336 45.2524 4.30256 45.2872C4.33835 45.3052 4.37338 45.3286 4.40533 45.3568C4.43676 45.3846 4.45914 45.4116 4.47397 45.4325C4.49973 45.4689 4.50227 45.4867 4.48781 45.4479C4.47375 45.4101 4.45653 45.3554 4.42794 45.2594L3.7092 45.4737L2.99046 45.688C3.0334 45.832 3.1054 46.0956 3.25012 46.2998C3.34171 46.4291 3.46552 46.5453 3.62871 46.6274C3.78141 46.7041 3.93112 46.732 4.04906 46.7433L4.12095 45.9968ZM3.7092 45.4737L4.42794 45.2594C4.35836 45.0261 4.18785 44.264 4.02835 43.498C3.95038 43.1235 3.87781 42.7616 3.82503 42.4829C3.79855 42.3431 3.77772 42.2277 3.76378 42.1435C3.74435 42.0261 3.75 42.0345 3.75 42.086H3H2.25C2.25 42.1869 2.27277 42.3211 2.28393 42.3885C2.30059 42.4891 2.32382 42.6173 2.35122 42.762C2.40621 43.0524 2.4807 43.4236 2.55985 43.8038C2.71462 44.5471 2.89871 45.3802 2.99046 45.688L3.7092 45.4737ZM3 42.086H3.75C3.75 41.9849 3.7596 41.9532 3.76488 41.9384C3.77041 41.923 3.7898 41.8755 3.87567 41.7758C4.0721 41.5478 4.46002 41.2176 5.274 40.5746L4.8091 39.9861L4.34421 39.3976C3.56592 40.0123 3.04929 40.4369 2.73924 40.7968C2.57186 40.991 2.43753 41.1958 2.35264 41.4329C2.26751 41.6707 2.25 41.8919 2.25 42.086H3ZM4.8091 39.9861L5.274 40.5746C6.02334 39.9827 6.72933 39.4464 6.86028 39.3621L6.45432 38.7314L6.04836 38.1008C5.84118 38.2342 5.06647 38.827 4.34421 39.3976L4.8091 39.9861ZM6.45432 38.7314L6.86028 39.3621C6.85939 39.3626 6.87307 39.3541 6.91021 39.3336C6.94412 39.3149 6.98863 39.2912 7.04362 39.2626C7.15344 39.2054 7.29647 39.1333 7.46364 39.0509C7.79754 38.8862 8.21862 38.6849 8.64495 38.4873L8.32955 37.8068L8.01414 37.1264C7.57816 37.3285 7.14616 37.535 6.80029 37.7055C6.47619 37.8653 6.17731 38.0178 6.04836 38.1008L6.45432 38.7314ZM8.32955 37.8068L8.64495 38.4873C9.49556 38.093 10.3149 37.7083 10.4459 37.6401L10.0995 36.9749L9.75315 36.3096C9.75338 36.3095 9.75225 36.3101 9.74932 36.3116C9.74651 36.313 9.74274 36.3149 9.73787 36.3173C9.72807 36.3221 9.71529 36.3284 9.69934 36.3361C9.66745 36.3516 9.6256 36.3717 9.57452 36.3961C9.47249 36.4447 9.33695 36.5088 9.17716 36.5839C8.85777 36.734 8.44431 36.927 8.01414 37.1264L8.32955 37.8068ZM10.0995 36.9749L10.4459 37.6401C10.7788 37.4668 10.966 37.3213 12.7108 35.974L12.2525 35.3804L11.7941 34.7868C9.96835 36.1965 9.93225 36.2164 9.75315 36.3096L10.0995 36.9749ZM12.2525 35.3804L12.7108 35.974C13.1116 35.6646 13.5035 35.3706 13.8108 35.1471C13.9648 35.035 14.0946 34.9429 14.1921 34.8761C14.3121 34.7939 14.3349 34.7843 14.3053 34.7982L13.985 34.1201L13.6646 33.4419C13.5641 33.4894 13.4361 33.5758 13.3447 33.6384C13.2308 33.7164 13.0884 33.8177 12.9284 33.9341C12.6077 34.1674 12.2043 34.4701 11.7941 34.7868L12.2525 35.3804ZM13.985 34.1201L14.3053 34.7982C14.3757 34.765 14.4912 34.7249 15.1864 34.6462L15.102 33.9009L15.0176 33.1557C14.3685 33.2292 13.9981 33.2844 13.6646 33.4419L13.985 34.1201ZM15.102 33.9009L15.1864 34.6462C15.6562 34.593 16.0181 34.5415 16.2976 34.4769C16.5765 34.4126 16.8397 34.3213 17.0657 34.149L16.611 33.5526L16.1563 32.9561C16.1757 32.9413 16.1509 32.9713 15.9602 33.0154C15.77 33.0593 15.4807 33.1033 15.0176 33.1557L15.102 33.9009ZM16.611 33.5526L17.0657 34.149C17.1622 34.0754 17.3504 33.9231 17.4392 33.6361C17.4979 33.4464 17.4943 33.2364 17.4943 33.1221H16.7443H15.9943C15.9943 33.1955 15.9933 33.2323 15.992 33.2527C15.9905 33.2743 15.9904 33.2438 16.0063 33.1925C16.0152 33.1639 16.0284 33.1304 16.0478 33.0948C16.0674 33.059 16.089 33.0287 16.1098 33.0041C16.1464 32.9609 16.1766 32.9407 16.1563 32.9561L16.611 33.5526ZM16.7443 33.1221H17.4943C17.4943 33.0352 17.4954 33.0064 17.4969 32.9905C17.4973 32.9863 17.4973 32.988 17.4963 32.9928C17.4952 32.9979 17.4942 33.0009 17.4944 33.0003C17.4961 32.9955 17.5051 32.9713 17.5402 32.9046C17.5754 32.8377 17.6244 32.7507 17.6991 32.6196L17.0474 32.2484L16.3957 31.8772C16.2642 32.1081 16.1446 32.3147 16.0773 32.5086C15.9921 32.754 15.9943 32.9602 15.9943 33.1221H16.7443ZM17.0474 32.2484L17.6991 32.6196C17.7662 32.5018 17.8723 32.3557 17.9749 32.2378C18.0258 32.1794 18.0646 32.1409 18.0863 32.1218C18.0974 32.112 18.0945 32.1158 18.0789 32.126C18.0738 32.1294 18.0086 32.1743 17.9009 32.2005L17.7236 31.4718L17.5463 30.743C17.4064 30.7771 17.302 30.8415 17.252 30.8746C17.1916 30.9145 17.1383 30.9579 17.095 30.996C17.0078 31.0728 16.9216 31.1632 16.8436 31.2528C16.6884 31.4311 16.5207 31.6577 16.3957 31.8772L17.0474 32.2484ZM17.7236 31.4718L17.9009 32.2005C17.8603 32.2104 17.8268 32.2142 17.8038 32.2157C17.7803 32.2172 17.762 32.2168 17.7502 32.2162C17.7275 32.2149 17.7164 32.2122 17.7189 32.2128C17.7244 32.214 17.749 32.2206 17.7866 32.2372L18.09 31.5513L18.3933 30.8654C18.2803 30.8154 18.1586 30.7733 18.037 30.7469C17.9389 30.7256 17.7503 30.6934 17.5463 30.743L17.7236 31.4718ZM18.09 31.5513L17.7866 32.2372C17.9228 32.2974 18.2502 32.4416 18.5143 32.5576L18.816 31.8709L19.1176 31.1843C18.8538 31.0684 18.5277 30.9248 18.3933 30.8654L18.09 31.5513ZM18.816 31.8709L18.5143 32.5576C18.7829 32.6756 19.2332 32.9483 20.1854 33.6019L20.6098 32.9835L21.0342 32.3651C20.103 31.726 19.5373 31.3686 19.1176 31.1843L18.816 31.8709ZM20.6098 32.9835L20.1854 33.6019C20.5514 33.853 20.9193 34.0987 21.2183 34.2929C21.4957 34.473 21.7635 34.6417 21.8974 34.7072L22.2268 34.0334L22.5562 33.3596C22.5604 33.3617 22.5496 33.3564 22.5163 33.337C22.4865 33.3196 22.4474 33.2961 22.3992 33.2664C22.3029 33.207 22.1789 33.1282 22.0352 33.0348C21.7481 32.8484 21.3908 32.6099 21.0342 32.3651L20.6098 32.9835ZM22.2268 34.0334L21.8974 34.7072C22.2437 34.8765 22.5994 34.9991 22.9336 35.0546C23.2446 35.1063 23.6419 35.1176 23.9929 34.9416L23.6569 34.2711L23.3209 33.6006C23.3853 33.5683 23.3639 33.6056 23.1796 33.5749C23.0186 33.5482 22.8025 33.48 22.5562 33.3596L22.2268 34.0334ZM23.6738 34.2627L24.0085 34.9338C24.0353 34.9205 24.095 34.8913 24.1557 34.8539L23.7623 34.2154L23.3689 33.5769C23.3744 33.5735 23.3764 33.5726 23.3714 33.5752C23.3689 33.5765 23.3653 33.5784 23.3597 33.5812C23.354 33.5841 23.3477 33.5872 23.3391 33.5915L23.6738 34.2627ZM23.7623 34.2154L24.1558 34.8539C24.3932 34.7076 24.5372 34.5064 24.6864 34.2711C24.8393 34.0297 25.0665 33.6346 25.4403 32.985L24.7903 32.6109L24.1403 32.2368C23.7562 32.9042 23.5504 33.2613 23.4194 33.468C23.2846 33.6806 23.2935 33.6233 23.3688 33.5769L23.7623 34.2154ZM24.8544 32.4996L25.5044 32.8737C25.6595 32.6042 25.8166 32.3476 25.9495 32.1434C26.016 32.0412 26.0743 31.9556 26.1216 31.8898C26.1451 31.857 26.1643 31.8314 26.1791 31.8126C26.195 31.7923 26.2009 31.7862 26.1982 31.789L25.6503 31.2769L25.1024 30.7648C24.9814 30.8942 24.8297 31.1141 24.6924 31.3251C24.5426 31.5551 24.3713 31.8354 24.2043 32.1255L24.8544 32.4996ZM25.6503 31.2769L26.1982 31.789C26.2988 31.6814 26.3273 31.6576 26.3412 31.6477C26.343 31.6465 26.3424 31.6469 26.3431 31.6466C26.3451 31.6458 26.3571 31.6407 26.3866 31.634C26.5554 31.5956 26.8689 31.5813 27.7003 31.5633L27.6841 30.8135L27.6679 30.0637C26.9198 30.0798 26.4099 30.0903 26.0534 30.1715C25.8408 30.22 25.6535 30.2974 25.4772 30.4216C25.3203 30.5322 25.1953 30.6654 25.1024 30.7648L25.6503 31.2769ZM27.6841 30.8135L27.7003 31.5633C28.1113 31.5545 28.4743 31.5414 28.7474 31.5261C28.8831 31.5186 29.0031 31.5101 29.0984 31.5006C29.1454 31.4959 29.1945 31.4902 29.2402 31.483C29.26 31.4798 29.3636 31.465 29.4687 31.4202L29.1747 30.7302L28.8807 30.0402C28.967 30.0035 29.0353 29.9967 29.0046 30.0016C28.9997 30.0024 28.9829 30.0047 28.95 30.008C28.8857 30.0144 28.7899 30.0214 28.6638 30.0285C28.4133 30.0425 28.0686 30.055 27.6679 30.0637L27.6841 30.8135ZM29.1747 30.7302L29.4687 31.4202C29.8173 31.2717 30.2166 30.9413 30.6983 30.4997L30.1914 29.9469L29.6846 29.394C29.4428 29.6157 29.2593 29.7728 29.1181 29.8816C28.971 29.995 28.8999 30.0321 28.8807 30.0402L29.1747 30.7302ZM30.1914 29.9469L30.6983 30.4997C31.1421 30.0928 31.272 29.9851 31.3697 29.9339C31.4232 29.9059 31.4686 29.8886 31.8753 29.8488L31.8023 29.1024L31.7294 28.3559C31.3794 28.3901 31.0304 28.4182 30.6732 28.6054C30.3601 28.7696 30.063 29.0472 29.6846 29.394L30.1914 29.9469ZM31.8023 29.1024L31.8753 29.8488C32.3399 29.8034 32.6 29.7012 33.2559 29.4002L32.9431 28.7186L32.6303 28.0369C32.3035 28.1869 32.1355 28.2583 32.0155 28.2987C31.9194 28.331 31.854 28.3438 31.7294 28.3559L31.8023 29.1024ZM32.9431 28.7186L33.2559 29.4002C33.6651 29.2125 34.3166 28.9235 34.6992 28.7602L34.4046 28.0704L34.11 27.3807C33.7144 27.5497 33.0506 27.844 32.6303 28.0369L32.9431 28.7186ZM34.4046 28.0704L34.6992 28.7602C35.0777 28.5985 35.3941 28.4439 35.6432 28.2829C35.888 28.1246 36.1289 27.922 36.2798 27.6392L35.6181 27.2861L34.9564 26.933C34.977 26.8944 34.9759 26.9281 34.829 27.0231C34.6862 27.1153 34.461 27.2308 34.11 27.3807L34.4046 28.0704ZM35.6181 27.2861L36.2798 27.6392C36.4135 27.3886 36.4365 27.0941 36.4399 26.8854C36.4437 26.645 36.4208 26.3683 36.3782 26.0724L35.6359 26.1795L34.8935 26.2865C34.9292 26.5335 34.9422 26.7261 34.9401 26.8613C34.939 26.9287 34.9343 26.9703 34.9307 26.9907C34.9262 27.0167 34.9274 26.9874 34.9564 26.933L35.6181 27.2861ZM35.6359 26.1795L36.3782 26.0724C36.3416 25.8186 36.354 25.7698 36.3547 25.7669C36.3547 25.7669 36.3547 25.7669 36.3546 25.767C36.3546 25.7671 36.3546 25.7671 36.3546 25.7671C36.3546 25.7672 36.3547 25.7668 36.3552 25.7656C36.3561 25.7633 36.359 25.7565 36.3663 25.7437C36.3826 25.7152 36.413 25.6695 36.4751 25.5901L35.8843 25.1281L35.2934 24.6662C35.1348 24.869 34.9694 25.1065 34.8949 25.422C34.8238 25.7226 34.8547 26.0169 34.8935 26.2865L35.6359 26.1795ZM35.8843 25.1281L36.4751 25.5901C36.9399 24.9956 37.2776 24.5404 37.4647 23.9473C37.6438 23.3796 37.6698 22.7294 37.6919 21.793L36.9421 21.7754L36.1923 21.7577C36.169 22.7461 36.1372 23.1697 36.0342 23.4959C35.9393 23.7967 35.7708 24.0555 35.2934 24.6662L35.8843 25.1281ZM36.9436 21.7106L37.6934 21.7283C37.71 21.027 37.728 20.5677 37.6138 20.1329L36.8884 20.3235L36.163 20.514C36.2103 20.694 36.2127 20.8959 36.1938 21.6928L36.9436 21.7106ZM36.8884 20.3235L37.6138 20.1329C37.5238 19.7905 37.3566 19.4787 37.1575 19.0968L36.4925 19.4435L35.8274 19.7903C36.0545 20.2259 36.1254 20.3707 36.163 20.514L36.8884 20.3235ZM36.4691 19.3988L37.1342 19.0522C37.0494 18.8894 36.9913 18.7709 36.9519 18.6802C36.9116 18.5873 36.902 18.5483 36.9006 18.5415C36.9005 18.5407 36.9028 18.5522 36.903 18.5728C36.9032 18.5945 36.9009 18.6207 36.8945 18.6487C36.8813 18.7062 36.8594 18.7347 36.8694 18.7198L36.2471 18.3012L35.6248 17.8825C35.5527 17.9898 35.4738 18.1327 35.4322 18.3142C35.3898 18.4999 35.3975 18.6765 35.4304 18.8389C35.4872 19.1198 35.6373 19.4255 35.804 19.7454L36.4691 19.3988ZM36.2471 18.3012L36.8694 18.7198C36.8422 18.7602 36.822 18.7797 36.8539 18.7441C36.8723 18.7235 36.9003 18.6931 36.9388 18.6522C37.0151 18.5712 37.122 18.4603 37.2529 18.3265C37.5139 18.0596 37.8622 17.7097 38.2342 17.342L37.7069 16.8086L37.1796 16.2753C36.803 16.6476 36.4486 17.0036 36.1805 17.2777C36.0467 17.4145 35.9325 17.5329 35.847 17.6236C35.8045 17.6687 35.7665 17.7098 35.7356 17.7443C35.7182 17.7637 35.6656 17.8219 35.6248 17.8825L36.2471 18.3012ZM37.7069 16.8086L38.2342 17.342C38.9104 16.6733 39.227 16.3622 39.4019 16.2115C39.4922 16.1336 39.4898 16.1482 39.4392 16.1712C39.3452 16.214 39.2564 16.213 39.268 16.213V15.463V14.713C39.182 14.713 39.0152 14.7161 38.8177 14.806C38.6636 14.8762 38.532 14.9809 38.4226 15.0753C38.1977 15.2691 37.8314 15.6308 37.1796 16.2753L37.7069 16.8086ZM39.268 15.463V16.213C39.1984 16.213 39.1678 16.1983 39.2126 16.2118C39.25 16.2232 39.3161 16.2466 39.4262 16.2921C39.646 16.383 39.9813 16.5365 40.5058 16.7853L40.8272 16.1077L41.1487 15.4301C40.6258 15.1821 40.2587 15.0132 39.9993 14.906C39.8697 14.8524 39.752 14.8078 39.6463 14.7759C39.548 14.7462 39.4148 14.713 39.268 14.713V15.463ZM40.8272 16.1077L40.5058 16.7853C42.2213 17.5992 42.529 17.7451 43.1764 17.7881L43.2261 17.0398L43.2758 16.2914C42.9803 16.2718 42.9712 16.2947 41.1487 15.4301L40.8272 16.1077ZM43.2261 17.0398L43.1764 17.7881C43.6215 17.8177 43.9191 17.7665 44.7475 17.5901L44.5913 16.8566L44.4351 16.123C43.5932 16.3023 43.4863 16.3054 43.2758 16.2914L43.2261 17.0398ZM44.5913 16.8566L44.7475 17.5901C45.0235 17.5313 45.2912 17.4701 45.5017 17.4183C45.6065 17.3926 45.7012 17.3681 45.7774 17.3468C45.8223 17.3342 45.9414 17.3018 46.0345 17.2561L45.7039 16.5829L45.3734 15.9097C45.4176 15.888 45.4477 15.8797 45.4269 15.8865C45.4182 15.8893 45.4009 15.8945 45.3731 15.9023C45.3182 15.9177 45.2404 15.9379 45.1435 15.9617C44.9507 16.0092 44.6984 16.0669 44.4351 16.123L44.5913 16.8566ZM45.7039 16.5829L46.0345 17.2561C46.6383 16.9596 46.7765 16.2871 46.7365 15.82L45.9893 15.8839L45.242 15.9478C45.2476 16.0127 45.2359 16.0408 45.2382 16.0351C45.2402 16.0301 45.2714 15.9597 45.3734 15.9097L45.7039 16.5829ZM45.9893 15.8839L46.7365 15.82C46.7269 15.7076 46.7103 15.5068 46.6167 15.3103C46.5128 15.0921 46.3547 14.9593 46.2662 14.8867L45.7905 15.4665L45.3147 16.0463C45.3283 16.0575 45.3353 16.0636 45.3385 16.0665C45.3415 16.0692 45.3379 16.0662 45.3308 16.0584C45.3233 16.0502 45.3117 16.0367 45.2988 16.0181C45.2856 15.999 45.2732 15.9779 45.2625 15.9554C45.2408 15.9098 45.2345 15.8767 45.2341 15.8747C45.234 15.8741 45.2349 15.879 45.2365 15.892C45.2381 15.9051 45.2399 15.9229 45.242 15.9479L45.9893 15.8839ZM45.7905 15.4665L46.2662 14.8867C46.1483 14.79 45.9946 14.7187 45.9116 14.6809C45.8001 14.63 45.6649 14.5746 45.5178 14.5175C45.222 14.4029 44.8481 14.2704 44.4554 14.1389C43.6763 13.8781 42.778 13.6062 42.2261 13.4803L42.0593 14.2116L41.8926 14.9428C42.3707 15.0518 43.2128 15.3047 43.9792 15.5613C44.3592 15.6886 44.7093 15.8129 44.9757 15.9162C45.1097 15.9681 45.215 16.0118 45.2894 16.0457C45.3924 16.0927 45.3701 16.0918 45.3147 16.0463L45.7905 15.4665ZM42.0593 14.2116L42.2261 13.4803C42.0144 13.4321 41.7392 13.3626 41.4576 13.2914L41.2738 14.0185L41.09 14.7457C41.3659 14.8154 41.6601 14.8898 41.8926 14.9428L42.0593 14.2116ZM41.2738 14.0185L41.4576 13.2914C41.1935 13.2247 40.9216 13.1559 40.715 13.1088L40.5483 13.84L40.3815 14.5713C40.5671 14.6136 40.8195 14.6773 41.09 14.7457L41.2738 14.0185ZM40.5483 13.84L40.715 13.1088C40.5258 13.0657 40.3435 13.0189 40.2046 12.9794C40.1345 12.9594 40.0815 12.943 40.0468 12.9312C40.0292 12.9252 40.0223 12.9224 40.0233 12.9228C40.0239 12.9231 40.0304 12.9257 40.0408 12.9307C40.049 12.9346 40.0731 12.9463 40.104 12.9659L39.7019 13.599L39.2998 14.2321C39.4046 14.2986 39.528 14.3391 39.5635 14.3512C39.631 14.3742 39.7105 14.3983 39.7938 14.422C39.9617 14.4698 40.1701 14.523 40.3815 14.5713L40.5483 13.84ZM39.7019 13.599L40.1039 12.9659C40.1805 13.0145 40.2556 13.1021 40.2854 13.2239C40.3162 13.3494 40.2845 13.4502 40.2563 13.5004L39.6028 13.1324L38.9492 12.7644C38.8135 13.0055 38.758 13.293 38.8285 13.5808C38.8981 13.8649 39.0765 14.0903 39.2998 14.2321L39.7019 13.599ZM39.6028 13.1324L40.2563 13.5004C40.2367 13.5352 40.2043 13.58 40.1544 13.6234C40.1036 13.6675 40.0453 13.7007 39.985 13.722C39.8691 13.7628 39.7829 13.7478 39.7681 13.745C39.7521 13.7419 39.7594 13.7413 39.8 13.759C39.8393 13.7762 39.8825 13.7982 39.9463 13.831L40.2895 13.1642L40.6328 12.4973C40.5404 12.4498 40.301 12.3195 40.0489 12.2715C39.9101 12.2451 39.7061 12.2297 39.486 12.3074C39.2463 12.3919 39.0647 12.5593 38.9492 12.7644L39.6028 13.1324ZM40.2895 13.1642L39.9463 13.831C40.0017 13.8595 40.1184 13.9213 40.2305 13.9612L40.4822 13.2547L40.7338 12.5482C40.7432 12.5515 40.7404 12.5512 40.7179 12.5403C40.6962 12.5299 40.6709 12.517 40.6328 12.4973L40.2895 13.1642ZM40.4822 13.2547L40.2366 13.9634L40.6016 14.0898L40.8471 13.3812L41.0927 12.6725L40.7277 12.546L40.4822 13.2547ZM40.8471 13.3812L40.7997 14.1297L42.3922 14.2306L42.4396 13.4821L42.4871 12.7336L40.8946 12.6327L40.8471 13.3812ZM42.4396 13.4821L42.3922 14.2306C43.1723 14.28 43.572 14.2878 43.8089 14.2923L43.8232 13.5425L43.8376 12.7926C43.6164 12.7884 43.2396 12.7813 42.4871 12.7336L42.4396 13.4821ZM43.8232 13.5425L43.8089 14.2923C43.8762 14.2936 43.9211 14.2945 43.9575 14.2958C43.9927 14.2971 44.0088 14.2985 44.0166 14.2994C44.0187 14.2996 44.0248 14.2987 44.0856 14.3176L44.3085 13.6015L44.5315 12.8855C44.422 12.8513 44.3155 12.8234 44.1826 12.8086C44.0729 12.7964 43.9535 12.7948 43.8376 12.7926L43.8232 13.5425ZM44.3085 13.6015L44.0856 14.3176C45.2534 14.6813 46.9843 15.1121 47.7599 15.2248L47.8678 14.4826L47.9756 13.7404C47.3121 13.6439 45.6662 13.2388 44.5315 12.8855L44.3085 13.6015ZM47.8678 14.4826L47.7599 15.2248C48.1831 15.2863 49.8591 15.5578 51.4879 15.829L51.6111 15.0892L51.7343 14.3494C50.1105 14.079 48.4175 13.8046 47.9756 13.7404L47.8678 14.4826ZM51.6111 15.0892L51.4879 15.829C53.1111 16.0993 54.7571 16.3671 55.141 16.4231L55.2493 15.681L55.3576 14.9388C54.9922 14.8855 53.3638 14.6207 51.7343 14.3494L51.6111 15.0892ZM55.2493 15.681L55.141 16.4231C55.6253 16.4938 55.8409 16.5629 55.9533 16.6251C56.0186 16.6612 56.0695 16.7018 56.145 16.8666L56.8268 16.554L57.5085 16.2414C57.3361 15.8653 57.0935 15.5417 56.6796 15.3127C56.3129 15.1097 55.8638 15.0127 55.3576 14.9388L55.2493 15.681ZM56.8268 16.554L56.145 16.8666C56.1745 16.9308 56.2335 17.0419 56.2468 17.9936C56.2598 18.9219 56.233 20.5345 56.1743 23.5019L56.9241 23.5167L57.674 23.5315C57.7324 20.5766 57.7601 18.9327 57.7467 17.9727C57.7336 17.0361 57.6854 16.627 57.5085 16.2414L56.8268 16.554ZM56.9241 23.5167L56.1743 23.5019C56.1137 26.561 56.0506 29.5251 56.034 30.092L56.7837 30.114L57.5333 30.136C57.5502 29.5601 57.6135 26.5866 57.674 23.5315L56.9241 23.5167ZM41.8699 32.0376L41.4734 31.4009L41.0318 31.6759L41.4283 32.3126L41.8248 32.9492L42.2664 32.6742L41.8699 32.0376ZM41.4283 32.3126L40.9755 31.7147L36.5794 35.0441L37.0322 35.642L37.485 36.2399L41.8811 32.9105L41.4283 32.3126ZM37.0322 35.642L36.5794 35.0441C31.2786 39.0586 26.2737 42.8312 25.828 43.1489L26.2634 43.7596L26.6987 44.3703C27.1676 44.036 32.2004 40.2421 37.485 36.2399L37.0322 35.642ZM26.2634 43.7596L25.828 43.1489C25.4754 43.4003 25.2576 43.4948 24.7828 43.5883L24.9277 44.3242L25.0726 45.06C25.7424 44.9281 26.161 44.7536 26.6987 44.3703L26.2634 43.7596ZM24.9277 44.3242L24.7828 43.5883C24.0695 43.7288 23.8326 43.7531 16.9609 44.3161L17.0222 45.0636L17.0834 45.8111C23.8862 45.2538 24.2509 45.2218 25.0726 45.06L24.9277 44.3242ZM17.0222 45.0636L16.9609 44.3161C12.9427 44.6453 9.8214 44.8881 7.65515 45.0437C6.57163 45.1215 5.72952 45.1773 5.13452 45.2112C4.83661 45.2282 4.60414 45.2395 4.43582 45.2453C4.24592 45.2519 4.18481 45.2494 4.19284 45.2502L4.12095 45.9968L4.04906 46.7433C4.15834 46.7538 4.32513 46.7501 4.48792 46.7444C4.67228 46.738 4.91729 46.726 5.21983 46.7088C5.8257 46.6743 6.6763 46.6179 7.76261 46.5398C9.93599 46.3837 13.0628 46.1405 17.0834 45.8111L17.0222 45.0636ZM41.8699 32.0376C42.2894 32.6592 42.2894 32.6592 42.2894 32.6592C42.2894 32.6592 42.2894 32.6593 42.2894 32.6593C42.2894 32.6593 42.2894 32.6593 42.2894 32.6592C42.2894 32.6592 42.2895 32.6592 42.2896 32.6591C42.2898 32.659 42.2902 32.6587 42.2907 32.6583C42.2918 32.6576 42.2935 32.6565 42.2957 32.655C42.3002 32.652 42.3069 32.6475 42.3157 32.6416C42.3333 32.6299 42.3588 32.6129 42.3899 32.5923C42.4526 32.5509 42.5368 32.4959 42.6248 32.4401C42.7141 32.3835 42.8013 32.3299 42.8715 32.2896C42.9069 32.2693 42.9318 32.256 42.9468 32.2485C42.9733 32.2353 42.9469 32.2512 42.8931 32.2662L42.6916 31.5438L42.49 30.8213C42.3446 30.8619 42.1906 30.9509 42.1253 30.9884C42.0271 31.0447 41.9185 31.1118 41.8215 31.1733C41.7233 31.2356 41.6309 31.296 41.5634 31.3406C41.5295 31.3629 41.5017 31.3815 41.4821 31.3946C41.4723 31.4011 41.4645 31.4063 41.4591 31.4099C41.4564 31.4118 41.4543 31.4132 41.4529 31.4142C41.4521 31.4147 41.4515 31.4151 41.4511 31.4154C41.4509 31.4155 41.4507 31.4156 41.4506 31.4157C41.4505 31.4158 41.4505 31.4158 41.4504 31.4158C41.4504 31.4158 41.4504 31.4159 41.4504 31.4159C41.4503 31.4159 41.4503 31.4159 41.8699 32.0376ZM42.6916 31.5438L42.8931 32.2662L43.2565 32.1648L43.0549 31.4424L42.8534 30.72L42.49 30.8213L42.6916 31.5438ZM43.0549 31.4424L43.0533 32.1924L46.7071 32.2002L46.7087 31.4502L46.7103 30.7002L43.0565 30.6924L43.0549 31.4424ZM46.7087 31.4502L46.7038 32.2002C48.7474 32.2137 51.546 32.2247 52.924 32.2247V31.4747V30.7247C51.5505 30.7247 48.7554 30.7137 46.7137 30.7002L46.7087 31.4502ZM52.924 31.4747V32.2247C54.3608 32.2247 55.2425 32.2238 55.7959 32.1416C56.0887 32.0982 56.3678 32.0229 56.6161 31.8631C56.8727 31.6979 57.026 31.4873 57.1362 31.3118L56.5011 30.9129L55.866 30.5141C55.8037 30.6132 55.7912 30.6101 55.8042 30.6018C55.8089 30.5988 55.7665 30.6296 55.5757 30.6579C55.1618 30.7193 54.4274 30.7247 52.924 30.7247V31.4747ZM56.5011 30.9129L57.2082 31.163L57.4907 30.3641L56.7837 30.114L56.0766 29.864L55.794 30.6629L56.5011 30.9129Z" fill="white"/>
<defs>
<pattern id="pattern0_246_28" patternUnits="userSpaceOnUse" patternTransform="matrix(12 0 0 12 0 0)" preserveAspectRatio="none" viewBox="0 0 12 12" width="1" height="1">
<g id="pattern0_246_28_inner">
<rect y="2" width="3" height="1" fill="#D9D9D9"/>
<rect y="8" width="3" height="1" fill="#D9D9D9"/>
<rect x="6" y="2" width="3" height="1" fill="#D9D9D9"/>
<rect x="6" y="8" width="3" height="1" fill="#D9D9D9"/>
<rect x="5" y="3" width="3" height="1" transform="rotate(180 5 3)" fill="#D9D9D9"/>
<rect x="5" y="9" width="3" height="1" transform="rotate(180 5 9)" fill="#D9D9D9"/>
<rect x="11" y="3" width="3" height="1" transform="rotate(180 11 3)" fill="#D9D9D9"/>
<rect x="11" y="9" width="3" height="1" transform="rotate(180 11 9)" fill="#D9D9D9"/>
<rect x="2" width="1" height="2" fill="#D9D9D9"/>
<rect x="2" y="6" width="1" height="2" fill="#D9D9D9"/>
<rect x="8" width="1" height="2" fill="#D9D9D9"/>
<rect x="8" y="6" width="1" height="2" fill="#D9D9D9"/>
<rect x="3" y="5" width="1" height="2" transform="rotate(180 3 5)" fill="#D9D9D9"/>
<rect x="3" y="11" width="1" height="2" transform="rotate(180 3 11)" fill="#D9D9D9"/>
<rect x="9" y="5" width="1" height="2" transform="rotate(180 9 5)" fill="#D9D9D9"/>
<rect x="9" y="11" width="1" height="2" transform="rotate(180 9 11)" fill="#D9D9D9"/>
</g>
</pattern></defs>
</svg>
