<svg width="60" height="60" viewBox="0 0 60 60" fill="none" xmlns="http://www.w3.org/2000/svg" xmlns:xlink="http://www.w3.org/1999/xlink">
<rect width="60" height="60" fill="url(#pattern0_246_27)" fill-opacity="0.1"/>
<path d="M7.6757 44.6137L4.98138 28.5261L4.92739 28.3702L4.82354 28.2923L4.68231 28.2513L4.458 28.239L4.13815 28.2349L3.90969 28.2226L3.74354 28.1898L3.58985 28.1324L3.43615 27.997L3.32815 27.8371L3.25754 27.6116L3.22015 27.3614L3.14954 26.9021L3.04569 26.2172L3 25.7415L3.02492 25.3273L3.08723 24.9214L3.19939 24.6015L3.32815 24.298L3.46938 24.0315L3.61892 23.7936L3.81831 23.5106L4.03015 23.2646L4.25031 23.0636L4.52031 22.8586L4.79031 22.6536L5.18908 22.387L13.9412 17.0271L14.3079 16.8106L14.678 16.6135L15.1538 16.3641L15.5357 16.1669L15.9939 15.9581L16.411 15.7899L16.8281 15.6159L17.251 15.4651L17.7327 15.2854L18.2732 15.1114L18.8254 14.949L19.3071 14.8214L19.7829 14.7286L20.2705 14.659L20.8285 14.5952L21.4395 14.5604H22.0798L22.602 14.5584L23.1088 14.5748L23.5075 14.6486L23.9105 14.7388L24.3591 14.8495L24.9199 15.0095L25.3394 15.1448L25.8503 15.3252L26.2782 15.5098L26.6603 15.7189L26.9802 15.9322L27.192 16.0757L27.3 16.1659L27.5368 15.9158L27.6863 15.7763L27.8483 15.6902L28.0103 15.6451L28.1557 15.641L28.3343 15.6779L28.5088 15.7435L28.6957 15.8911L28.8494 16.006L28.9948 16.0306L29.1319 16.047L29.2731 16.0388L29.5223 15.9855L29.7923 15.9034L30.4112 15.7271L30.9305 15.5631L31.296 15.4523L31.5286 15.3662L31.7322 15.276L31.9399 15.1571L32.1517 15.0218L32.3885 14.8454L32.6335 14.665L32.8786 14.5255L33.1735 14.4107L33.51 14.2836L33.8257 14.1811L34.1123 14.099L34.4862 13.9924L34.7603 13.9391L35.0386 13.8817L35.3751 13.8243L35.6368 13.7874L35.9317 13.7177L36.1975 13.6397L36.4177 13.5495L36.642 13.4224L36.8455 13.283L37.0117 13.1845L37.1737 13.1025L37.3274 13.0492L37.4769 13.0246L37.6015 13.0205L37.7802 13.0533L37.8715 13.123L37.9754 13.2297L38.1125 13.3896L38.2329 13.5741L38.37 13.7464L38.5486 13.9473L38.6816 14.058L38.8726 14.1319L39.0222 14.1483L39.1966 14.1647H39.3254L39.4708 14.1524L39.6411 14.1237L39.7865 14.0662L39.9485 13.9883L40.152 13.8735L40.3888 13.73L40.6629 13.57L40.9246 13.4347L41.1655 13.3158L41.3566 13.2338L41.5435 13.1681L41.7596 13.0984L41.9382 13.0779L42.258 13.0451L42.6194 13.041L42.9476 13.0328L45.8345 13L46.0463 13.0041L46.2291 13.0451L46.3869 13.0984L46.4991 13.1599L46.6694 13.2543L46.8148 13.365L47.01 13.5372L47.1886 13.6931L47.5583 14.1278L47.6871 14.3123L47.8242 14.5009L47.9779 14.7142L48.1316 14.8782L48.3019 15.0505L48.4472 15.1735L48.6591 15.3211L48.8336 15.4113L49.0579 15.5057L49.2946 15.5139H49.5605L49.7765 15.4975L49.98 15.4893L50.196 15.4482L50.3996 15.3539L50.6529 15.2432L51.0849 15.0546L51.4879 14.8782L51.7745 14.7593L52.0486 14.6486L52.3519 14.5255L52.7839 14.382L53.1536 14.3041L53.4734 14.2549L53.7891 14.2057L54.0342 14.2016L54.4122 14.259L54.7486 14.3123L55.0269 14.4148L55.2886 14.5501L55.5046 14.6937L55.65 14.7962L55.8245 14.9356L55.9574 15.0669L56.1194 15.2268L56.2772 15.4113L56.4725 15.6984L56.6262 15.928L56.7466 16.1413L56.8671 16.3915L56.9294 16.6334L56.9626 16.859L56.9959 17.1173L57 17.5561L56.9792 18.1548L56.892 18.4706L56.8214 18.6675L56.73 18.8725L56.6137 19.0857L56.4434 19.4097L56.2606 19.6599L56.0612 19.8485L55.8203 20.0741L55.5919 20.275L55.3177 20.4637L55.0436 20.64L54.6448 20.8327L54.1712 21.0132L53.7808 21.1239L53.3862 21.1567L53.0289 21.1608L52.6385 21.128L52.2646 21.0706L51.8451 20.9517L51.3466 20.7425L50.8565 20.517L50.3331 20.2668L49.818 19.9674L49.4026 19.7009L49.0122 19.4261L48.6882 19.1842L48.2188 18.8192L47.6414 18.3681L47.1014 17.9293L46.5988 17.5356L46.1419 17.1911L45.6476 16.8303L45.1906 16.4694L44.7503 16.1618L44.3557 15.9034L43.9777 15.6738L43.6122 15.4482L43.3131 15.2965L43.1303 15.235L42.9974 15.2063C42.9974 15.2063 42.9226 15.2145 42.9019 15.2186C42.8811 15.2227 42.798 15.2678 42.798 15.2678L42.6526 15.3908L42.3992 15.6738L41.9963 16.1659L41.61 16.6826L41.0991 17.388L40.7294 17.9047L40.5383 18.1754L40.3265 18.3804L40.1852 18.528L40.0232 18.6757L39.8612 18.7946L39.7117 18.9135L39.5456 19.0406L39.4043 19.1432L39.1426 19.2662L38.8768 19.3441L38.6109 19.4179L38.3534 19.4671L37.5268 19.4712L35.5745 19.4302L35.0594 19.4261L34.7562 19.4712L34.4197 19.5451L34.0957 19.6845L33.8963 19.8034L33.6595 19.9633L33.4394 20.1069L33.2317 20.2627L33.024 20.4185L32.8579 20.5785L32.6875 20.7507L32.5962 20.882L32.4632 21.0624L32.3552 21.2469L32.2722 21.3782L32.1932 21.534L32.0935 21.7349L31.998 22.0097L31.944 22.2558L31.9108 22.5223L31.8859 22.7192L31.8983 25.5734L31.9191 25.8276L31.9523 26.0286L31.9897 26.1885L32.052 26.3485L32.1724 26.6232L32.4051 27.103L32.5255 27.3204L32.6501 27.5418L32.6917 27.6361L32.7125 27.7264L32.7166 27.7838V27.8945L32.6709 27.9806L32.592 28.0667L32.4383 28.2021L31.8817 28.6245L31.0759 29.1617L30.1246 29.7399L28.9283 30.4207L28.3426 30.7446L27.8359 30.9989L27.4662 31.1834L27.246 31.3721L27.0715 31.5935L26.976 31.7617L26.9345 31.9216L26.868 32.1759L26.8597 32.3645L26.8555 32.7213V33.0206L26.9095 33.4963L26.976 33.9105L27.0258 34.1402L27.0549 34.4149L27.0798 34.6938L27.0923 34.9645L27.0881 35.272L27.0798 35.6452L26.9967 36.002L26.9137 36.3342L26.8181 36.6253L26.7143 36.8632L26.5398 37.1174L26.4235 37.2979L26.2615 37.4906L26.0621 37.6916L25.842 37.872L25.5969 38.0361L25.3103 38.1796L24.9572 38.2903L24.5958 38.3723L24.0849 38.4502L23.7069 38.5036L23.2624 38.561L22.7557 38.6307L22.2489 38.7291L21.6133 38.8398L21.0692 38.9259L20.2135 39.0613L19.578 39.1761L18.8012 39.3278L17.879 39.4837L17.3847 39.5452L16.9444 39.5985L16.7035 39.6313L16.5913 39.6887L16.5332 39.7502L16.5041 39.8035L16.475 39.8733L16.4958 39.9758L16.529 40.0373L16.583 40.1111L16.637 40.1726L16.6952 40.2546L16.8364 40.4802L16.9237 40.636L17.0109 40.7837L17.0566 40.878L17.1023 41.0871L17.1272 41.3578L17.3017 42.5347L17.3723 42.9612V43.2565L17.3806 43.5354L17.3681 43.8347L17.3557 43.9701L17.3141 44.0849L17.256 44.1382L17.1563 44.2284L17.0317 44.3063L16.8946 44.3597L15.9226 44.6672L15.3577 44.8354L14.9215 44.9502L14.3068 45.0896L13.4469 45.2413L12.3877 45.4259L11.5694 45.5817L10.6597 45.7253L9.70014 45.9016L9.33876 45.9877L9.08122 46L8.83199 45.9877L8.64091 45.9672L8.40414 45.877L8.21722 45.7458L8.07183 45.5981L7.92645 45.4013L7.80599 45.1716L7.7146 44.8846L7.6757 44.6137Z" stroke="white" stroke-width="1.5" stroke-linejoin="round"/>
<defs>
<pattern id="pattern0_246_27" patternUnits="userSpaceOnUse" patternTransform="matrix(12 0 0 12 0 0)" preserveAspectRatio="none" viewBox="0 0 12 12" width="1" height="1">
<g id="pattern0_246_27_inner">
<rect y="2" width="3" height="1" fill="#D9D9D9"/>
<rect y="8" width="3" height="1" fill="#D9D9D9"/>
<rect x="6" y="2" width="3" height="1" fill="#D9D9D9"/>
<rect x="6" y="8" width="3" height="1" fill="#D9D9D9"/>
<rect x="5" y="3" width="3" height="1" transform="rotate(180 5 3)" fill="#D9D9D9"/>
<rect x="5" y="9" width="3" height="1" transform="rotate(180 5 9)" fill="#D9D9D9"/>
<rect x="11" y="3" width="3" height="1" transform="rotate(180 11 3)" fill="#D9D9D9"/>
<rect x="11" y="9" width="3" height="1" transform="rotate(180 11 9)" fill="#D9D9D9"/>
<rect x="2" width="1" height="2" fill="#D9D9D9"/>
<rect x="2" y="6" width="1" height="2" fill="#D9D9D9"/>
<rect x="8" width="1" height="2" fill="#D9D9D9"/>
<rect x="8" y="6" width="1" height="2" fill="#D9D9D9"/>
<rect x="3" y="5" width="1" height="2" transform="rotate(180 3 5)" fill="#D9D9D9"/>
<rect x="3" y="11" width="1" height="2" transform="rotate(180 3 11)" fill="#D9D9D9"/>
<rect x="9" y="5" width="1" height="2" transform="rotate(180 9 5)" fill="#D9D9D9"/>
<rect x="9" y="11" width="1" height="2" transform="rotate(180 9 11)" fill="#D9D9D9"/>
</g>
</pattern></defs>
</svg>
