<svg width="60" height="60" viewBox="0 0 60 60" fill="none" xmlns="http://www.w3.org/2000/svg" xmlns:xlink="http://www.w3.org/1999/xlink">
<rect width="60" height="60" fill="url(#pattern0_246_26)" fill-opacity="0.1"/>
<path d="M41.8233 20.9555C41.4082 20.9909 41.188 20.9159 39.4463 22.0844C35.0395 24.805 31.7883 26.9286 27.4187 29.6528C26.156 30.4399 24.8734 31.2945 23.4832 31.7345C21.9611 32.2162 20.3769 32.5379 18.8472 33.0116C18.0674 33.2531 17.2284 33.4501 16.5547 33.8801C15.9208 34.2845 15.3367 34.8857 14.9244 35.5148C14.5555 36.0777 14.2813 36.7647 13.931 37.3411C13.619 37.8545 13.3779 38.4275 12.8612 38.6693C12.359 38.9043 11.6916 38.9413 11.1545 38.797C10.7406 38.6858 10.4178 38.3425 10.1993 37.9669C9.94229 37.5251 9.72962 36.9205 9.80446 36.4088C9.91642 35.6433 10.2302 34.868 10.6451 34.1866C11.0284 33.5568 11.5988 33.0324 12.1225 32.5008C12.9573 31.6531 13.8263 30.8254 14.7716 30.1125C15.8132 29.3269 16.823 28.6266 17.9939 28.0819C18.4702 27.8603 19.4596 27.7437 19.9807 27.7754C20.5804 27.8118 21.022 27.9603 21.6237 28.0691C22.0578 28.1476 22.7491 28.2886 23.1265 28.0691C27.6398 25.4449 34.7852 20.2512 36.1175 19.6784C38.4762 18.6642 42.0215 17.3276 44.6253 15.847C45.1215 15.5648 46.9254 13.8508 48.115 12.7436C48.3969 12.4812 48.7891 12.2606 48.9174 11.939C48.9929 11.7497 49.0399 11.2847 48.926 11.1186C48.8531 11.0122 48.3679 10.9462 48.0795 11.0582C40.8822 13.1632 34.896 14.7087 27.7753 17.0986C26.575 17.5014 24.3139 18.6241 23.2539 19.3208C18.7439 22.2852 15.319 24.8033 10.9635 27.9797C10.2755 28.4814 8.79152 29.7631 8.26339 30.4318C7.11034 31.8917 5.9733 33.4026 4.93923 34.9528C4.25816 35.9739 3.83109 36.8502 3.34721 37.9541C3.15182 38.3998 2.97324 39.0731 3.00333 39.5633C3.04117 40.1799 3.04208 40.8631 3.25805 41.4407C3.50058 42.0892 3.93038 42.6831 4.34064 43.2414C4.64361 43.6537 5.04876 44.0068 5.47415 44.2887C5.99973 44.6369 6.52733 44.9739 7.12987 45.1699C7.78397 45.3826 8.48805 45.4674 9.16766 45.4764C9.77866 45.4844 10.4294 45.4441 11.0017 45.221C11.652 44.9673 12.2637 44.5592 12.8357 44.1482C13.2825 43.827 13.7102 43.4483 14.0584 43.0243C14.4234 42.5798 14.6425 42.0166 14.9754 41.5428C15.1689 41.2673 15.3584 40.9624 15.6377 40.7765C17.4302 39.5831 19.2916 38.4178 21.1906 37.4049C21.686 37.1407 22.2678 37.0179 22.8209 36.9452C23.3037 36.8817 23.8312 36.8472 24.2983 36.9962C27.5672 38.0392 30.7954 39.3187 34.0287 40.5211C36.2584 41.3503 41.8468 43.4084 44.074 44.2244C44.4207 44.3513 45.1663 44.6165 47.4018 45.4381C47.6501 45.5293 47.9396 45.7199 48.0258 45.9361C48.1094 46.1456 47.9134 46.5992 47.9494 46.8429C47.9814 47.059 48.042 47.3686 48.2424 47.4432C49.0948 47.7603 50.1095 47.8538 51.0698 47.954C51.9274 48.0435 52.8417 47.9869 53.6043 47.9157C53.9017 47.8879 54.2241 47.5759 54.2029 47.2644C54.1222 46.0774 53.5784 44.8219 53.3368 43.5862C52.9161 41.4333 52.3982 39.272 52.1524 37.0984C52.0246 35.9685 52.0475 34.7912 52.2161 33.6757C52.3871 32.5434 52.8755 31.4556 53.235 30.3552C54.1492 27.5561 55.1703 24.7895 56.0369 21.9772C56.393 20.8218 56.6904 19.6398 56.903 18.4523C57.0471 17.6475 57.0167 16.7899 56.903 16.0002C56.796 15.2574 56.5117 14.3743 56.0624 13.8674C55.8324 13.608 55.4234 13.429 55.0817 13.5481C54.6422 13.7014 54.2516 14.3099 53.8972 14.672C52.4516 16.149 51.1552 17.7874 49.6306 19.1675C48.718 19.9936 47.7042 20.5797 46.6408 21.1943L46.6121 21.2109C46.2425 21.4246 45.74 21.548 45.3258 21.6068C44.5583 21.7158 43.7796 21.3309 42.995 21.1598C42.6078 21.0754 42.2064 20.9228 41.8233 20.9555Z" stroke="white" stroke-width="1.5" stroke-linejoin="round"/>
<defs>
<pattern id="pattern0_246_26" patternUnits="userSpaceOnUse" patternTransform="matrix(12 0 0 12 0 0)" preserveAspectRatio="none" viewBox="0 0 12 12" width="1" height="1">
<g id="pattern0_246_26_inner">
<rect y="2" width="3" height="1" fill="#D9D9D9"/>
<rect y="8" width="3" height="1" fill="#D9D9D9"/>
<rect x="6" y="2" width="3" height="1" fill="#D9D9D9"/>
<rect x="6" y="8" width="3" height="1" fill="#D9D9D9"/>
<rect x="5" y="3" width="3" height="1" transform="rotate(180 5 3)" fill="#D9D9D9"/>
<rect x="5" y="9" width="3" height="1" transform="rotate(180 5 9)" fill="#D9D9D9"/>
<rect x="11" y="3" width="3" height="1" transform="rotate(180 11 3)" fill="#D9D9D9"/>
<rect x="11" y="9" width="3" height="1" transform="rotate(180 11 9)" fill="#D9D9D9"/>
<rect x="2" width="1" height="2" fill="#D9D9D9"/>
<rect x="2" y="6" width="1" height="2" fill="#D9D9D9"/>
<rect x="8" width="1" height="2" fill="#D9D9D9"/>
<rect x="8" y="6" width="1" height="2" fill="#D9D9D9"/>
<rect x="3" y="5" width="1" height="2" transform="rotate(180 3 5)" fill="#D9D9D9"/>
<rect x="3" y="11" width="1" height="2" transform="rotate(180 3 11)" fill="#D9D9D9"/>
<rect x="9" y="5" width="1" height="2" transform="rotate(180 9 5)" fill="#D9D9D9"/>
<rect x="9" y="11" width="1" height="2" transform="rotate(180 9 11)" fill="#D9D9D9"/>
</g>
</pattern></defs>
</svg>
