<svg width="60" height="60" viewBox="0 0 60 60" fill="none" xmlns="http://www.w3.org/2000/svg" xmlns:xlink="http://www.w3.org/1999/xlink">
<rect width="60" height="60" fill="url(#pattern0_246_24)" fill-opacity="0.1"/>
<path d="M45.7441 9.7082C48.2276 8.93718 51.837 7.40427 54.4488 8.24461C55.1797 8.47977 56.7956 9.36274 56.9657 10.1766C57.123 10.9309 56.7129 11.5413 56.2812 12.122C55.7842 12.8526 55.2393 13.5706 54.7795 14.318C54.4032 14.8043 54.0401 15.3556 53.6944 15.8665C51.899 18.5181 50.0018 21.1089 48.3309 23.8424C47.6907 24.8899 47.2599 26.0302 46.7174 27.1214C46.5421 27.4755 46.0099 27.6155 45.6487 27.6039C44.3048 27.3668 43.1107 26.6075 41.7114 27.1583C41.2454 27.3418 40.6277 27.4646 40.5934 28.0726C40.5563 28.7311 40.8936 29.6166 41.0815 30.2483L41.4652 31.5994C41.7165 32.5027 41.9368 33.367 41.9876 34.3089C42.0942 36.2942 41.367 39.9582 40.3768 41.7067C38.8643 44.3765 36.0858 45.0874 33.4003 46.0232C32.2561 46.4221 31.0986 46.8927 29.9313 47.215C28.3934 47.6395 26.5909 47.2658 25.0183 47.1124C24.6664 47.078 24.1789 46.9734 23.8328 47.0517C23.6236 47.0991 23.4665 47.2913 23.3637 47.4681C23.0616 47.9874 22.9275 48.5776 22.5816 49.0829C21.9914 49.944 19.6373 50.6294 18.6116 50.9123C18.0697 51.0618 17.5877 51.0289 17.0931 50.7455C16.6753 50.5058 16.3078 50.079 16.1794 49.6094C16.011 48.9932 16.787 42.929 16.925 41.9472C17.1731 40.7343 17.0982 39.375 17.4194 38.1465C17.6914 36.8136 20.2961 36.5681 20.414 35.3843C20.6267 33.2496 22.0739 32.743 23.9466 31.9771C24.0804 31.9468 25.3937 31.4373 25.5945 31.363L26.1392 31.1832C26.5422 31.0343 27.0343 30.8867 27.4485 30.7505L28.0735 30.5388C28.0735 30.5388 28.7991 30.3091 29.0756 29.8525C29.371 29.3649 29.1407 28.559 29.1407 28.559C29.1388 28.553 28.4953 26.5377 28.1615 25.5332C27.7215 24.2065 27.5427 23.3898 26.732 22.227C24.7544 19.3908 24.2991 21.7785 23.1153 23.6279C22.7693 24.1685 22.3997 24.6935 22.0075 25.2014C21.1098 26.3411 19.791 27.4167 18.6389 28.3026C18.2283 28.5954 17.8049 28.8699 17.3701 29.1253C17.2186 29.2159 16.7583 29.4543 16.6431 29.5511L15.9514 29.8373C15.5946 29.9581 14.9144 30.1648 14.5924 30.3044L11.8972 31.2145L10.4448 31.6956C10.4448 31.6956 7.61716 32.5935 6.2947 33.2449C5.66944 33.553 5.26619 33.8889 4.70476 34.2141C4.35154 34.3095 4.19605 34.303 3.83654 34.2452L3.77791 34.2257C3.39024 34.0653 3.24523 33.924 3.04813 33.5683C2.85358 32.6153 3.25196 31.9251 4.18677 31.6737C4.57458 31.6575 4.96091 31.7065 5.29911 31.9011C5.94124 32.2705 6.93741 31.6228 7.69956 31.3022C8.31185 31.0644 8.94642 30.8606 9.57004 30.6524C10.0022 30.5177 10.4324 30.3765 10.8605 30.2292L11.4332 30.0504C12.7224 29.6249 14.3606 29.1277 15.5946 28.5794L15.7127 28.5261C18.3491 27.2758 20.4134 25.7144 21.9614 23.1951C22.4774 22.3554 22.8745 21.4038 23.3641 20.5509C24.6451 18.3197 26.9543 16.0832 29.1831 14.7973C31.2273 13.618 33.8987 13.0172 36.1831 12.3881L42.3812 10.668C43.5067 10.3631 44.6275 10.0431 45.7441 9.7082Z" stroke="white" stroke-width="1.5"/>
<defs>
<pattern id="pattern0_246_24" patternUnits="userSpaceOnUse" patternTransform="matrix(12 0 0 12 0 0)" preserveAspectRatio="none" viewBox="0 0 12 12" width="1" height="1">
<g id="pattern0_246_24_inner">
<rect y="2" width="3" height="1" fill="#D9D9D9"/>
<rect y="8" width="3" height="1" fill="#D9D9D9"/>
<rect x="6" y="2" width="3" height="1" fill="#D9D9D9"/>
<rect x="6" y="8" width="3" height="1" fill="#D9D9D9"/>
<rect x="5" y="3" width="3" height="1" transform="rotate(180 5 3)" fill="#D9D9D9"/>
<rect x="5" y="9" width="3" height="1" transform="rotate(180 5 9)" fill="#D9D9D9"/>
<rect x="11" y="3" width="3" height="1" transform="rotate(180 11 3)" fill="#D9D9D9"/>
<rect x="11" y="9" width="3" height="1" transform="rotate(180 11 9)" fill="#D9D9D9"/>
<rect x="2" width="1" height="2" fill="#D9D9D9"/>
<rect x="2" y="6" width="1" height="2" fill="#D9D9D9"/>
<rect x="8" width="1" height="2" fill="#D9D9D9"/>
<rect x="8" y="6" width="1" height="2" fill="#D9D9D9"/>
<rect x="3" y="5" width="1" height="2" transform="rotate(180 3 5)" fill="#D9D9D9"/>
<rect x="3" y="11" width="1" height="2" transform="rotate(180 3 11)" fill="#D9D9D9"/>
<rect x="9" y="5" width="1" height="2" transform="rotate(180 9 5)" fill="#D9D9D9"/>
<rect x="9" y="11" width="1" height="2" transform="rotate(180 9 11)" fill="#D9D9D9"/>
</g>
</pattern></defs>
</svg>
