<svg width="60" height="60" viewBox="0 0 60 60" fill="none" xmlns="http://www.w3.org/2000/svg" xmlns:xlink="http://www.w3.org/1999/xlink">
<rect width="60" height="60" fill="url(#pattern0_246_23)" fill-opacity="0.1"/>
<path d="M19.0868 11.7737C32.9334 13.9087 40.3225 14.6447 44.9362 15.3938C48.013 15.8936 53.4566 16.7771 54.8619 17.136C56.1432 17.4636 56.1693 17.4296 56.0453 18.3862C55.9396 19.1888 55.8757 19.5646 55.7374 20.3725C55.6748 20.7431 55.9683 20.9023 56.4681 21.3812C56.7682 21.6696 57.0448 21.868 56.9939 22.129C56.4863 24.7364 56.2176 25.1332 55.5704 26.5256C55.2664 27.1821 54.9806 27.5135 54.6296 28.1452C52.4976 31.5708 50.3642 34.9965 48.2309 38.4222C47.1009 40.2375 45.7961 41.9484 44.5631 43.684C44.4391 43.8576 44.276 44.0886 44.2982 44.3013C44.336 44.6511 45.5378 45.2161 45.8914 45.4445C46.2476 45.6755 46.348 45.823 46.2998 46.1949C46.2658 46.4637 45.9566 46.6347 45.7478 46.7809C44.7275 47.4947 43.7476 48.1668 42.7285 48.8793C42.5902 48.9759 42.4154 49.0372 42.2588 48.9746C42.0879 48.9067 41.8582 48.7371 41.6586 48.6196C41.455 48.4983 41.4864 48.2699 41.5203 48.035C42.0344 44.514 42.555 40.8782 43.0678 37.3586C43.1304 36.9345 42.9451 36.4803 42.5811 36.2532C41.8974 35.8304 41.4289 35.4976 40.7622 35.0905C40.085 34.6768 39.5735 33.6876 39.3334 32.9307C39.0385 31.9976 38.2752 31.0971 37.3423 30.917C35.9292 30.643 34.5161 30.4302 33.1043 30.1797C32.2758 30.0322 31.4537 29.672 31.0858 28.6632C30.8692 28.0734 30.7074 27.537 30.5025 26.9419C30.3525 26.5087 29.8554 26.2398 29.4522 26.0206C28.1252 25.2963 26.7434 24.5629 25.4151 23.8386C24.4809 23.3296 23.3914 23.0477 22.3397 22.8781C18.7071 22.2882 15.1033 21.7036 11.4707 21.115C10.8366 21.0119 10.192 20.7848 10.0863 19.8087C9.91799 18.244 9.80578 16.6858 9.65573 15.125C9.62833 14.8313 9.61528 14.462 9.25776 14.3211C9.02681 14.2297 8.7528 14.2702 8.60406 14.4685C8.37833 14.7661 8.13824 15.031 7.91382 15.3299C7.71288 15.5961 7.19357 15.5895 6.88955 15.4512C6.54769 15.2946 6.23715 14.9997 5.86528 14.9488C5.10588 14.847 4.39607 14.8118 3.63668 14.7087C3.30395 14.6643 2.96731 14.2571 3.00254 13.923C3.03777 13.5824 3.0717 13.4859 3.16043 13.247C3.52447 12.2709 4.24733 11.1851 5.15416 10.6513C5.98663 10.1594 6.9587 9.86051 8.0717 10.0654L19.0868 11.7737Z" stroke="white" stroke-width="1.5" stroke-miterlimit="10"/>
<defs>
<pattern id="pattern0_246_23" patternUnits="userSpaceOnUse" patternTransform="matrix(12 0 0 12 0 0)" preserveAspectRatio="none" viewBox="0 0 12 12" width="1" height="1">
<g id="pattern0_246_23_inner">
<rect y="2" width="3" height="1" fill="#D9D9D9"/>
<rect y="8" width="3" height="1" fill="#D9D9D9"/>
<rect x="6" y="2" width="3" height="1" fill="#D9D9D9"/>
<rect x="6" y="8" width="3" height="1" fill="#D9D9D9"/>
<rect x="5" y="3" width="3" height="1" transform="rotate(180 5 3)" fill="#D9D9D9"/>
<rect x="5" y="9" width="3" height="1" transform="rotate(180 5 9)" fill="#D9D9D9"/>
<rect x="11" y="3" width="3" height="1" transform="rotate(180 11 3)" fill="#D9D9D9"/>
<rect x="11" y="9" width="3" height="1" transform="rotate(180 11 9)" fill="#D9D9D9"/>
<rect x="2" width="1" height="2" fill="#D9D9D9"/>
<rect x="2" y="6" width="1" height="2" fill="#D9D9D9"/>
<rect x="8" width="1" height="2" fill="#D9D9D9"/>
<rect x="8" y="6" width="1" height="2" fill="#D9D9D9"/>
<rect x="3" y="5" width="1" height="2" transform="rotate(180 3 5)" fill="#D9D9D9"/>
<rect x="3" y="11" width="1" height="2" transform="rotate(180 3 11)" fill="#D9D9D9"/>
<rect x="9" y="5" width="1" height="2" transform="rotate(180 9 5)" fill="#D9D9D9"/>
<rect x="9" y="11" width="1" height="2" transform="rotate(180 9 11)" fill="#D9D9D9"/>
</g>
</pattern></defs>
</svg>
