<svg width="60" height="60" viewBox="0 0 60 60" fill="none" xmlns="http://www.w3.org/2000/svg" xmlns:xlink="http://www.w3.org/1999/xlink">
<rect width="60" height="60" fill="url(#pattern0_184_955)" fill-opacity="0.1"/>
<path d="M34.1742 22.4737C32.9285 23.1415 30.4372 24.4771 28.4196 25.561C26.4021 26.645 24.8588 27.4776 24.0463 27.9189C23.2337 28.3602 23.1522 28.4102 23.0694 28.4704C22.9866 28.5306 22.9024 28.6012 22.8269 28.6784C22.7514 28.7556 22.6845 28.8395 22.6359 28.9127C22.5873 28.9859 22.5569 29.0483 22.5317 29.1415C22.5064 29.2346 22.4864 29.3585 22.4874 29.4629C22.4885 29.5672 22.5106 29.652 22.5481 29.7349C22.5856 29.8178 22.6385 29.8987 22.7178 29.9857C22.7971 30.0727 22.9029 30.1659 23.0499 30.2797C23.1968 30.3935 23.385 30.528 23.5632 30.6558C23.7415 30.7836 23.9098 30.9046 24.0282 31.0008C24.1466 31.0969 24.2151 31.1683 24.2795 31.2471C24.3438 31.3259 24.4041 31.4122 24.46 31.5124C24.5159 31.6125 24.5675 31.7265 24.6065 31.8679C24.6456 32.0094 24.6721 32.1783 24.6734 32.5384C24.6747 32.8985 24.6508 33.4497 24.647 33.7777C24.6432 34.1058 24.6595 34.2107 24.6962 34.347C24.7329 34.4833 24.79 34.6509 24.8567 34.801C24.9234 34.9512 24.9997 35.0839 25.0732 35.1885C25.1468 35.2931 25.2176 35.3696 25.2973 35.4478C25.3769 35.5259 25.4654 35.6057 25.5763 35.699C25.6872 35.7924 25.8204 35.8993 25.9817 36.0048C26.143 36.1103 26.3324 36.2143 26.5132 36.3065C26.6941 36.3988 26.8666 36.4793 27.0743 36.5687C27.282 36.6582 27.525 36.7567 27.7673 36.8386C28.0097 36.9205 28.2514 36.9858 28.4734 37.0339C28.6954 37.0819 28.8978 37.1126 29.2885 37.1418C29.6792 37.1709 30.2582 37.1984 30.6511 37.2035C31.044 37.2085 31.2508 37.1911 31.4388 37.164C31.6269 37.137 31.7962 37.1003 32.0059 37.0397C32.2156 36.9792 32.4657 36.8947 32.7475 36.7836C33.0293 36.6724 33.3428 36.5346 34.6512 35.8554C35.9596 35.1762 38.2629 33.9558 39.5134 33.2981C40.7638 32.6404 40.9613 32.5456 41.126 32.4715C41.2907 32.3974 41.4225 32.344 41.5845 32.3006C41.7465 32.2573 41.9386 32.224 42.0984 32.2022C42.2583 32.1804 42.3859 32.1701 42.5257 32.1755C42.6654 32.1809 42.8172 32.2021 42.9563 32.2253C43.0953 32.2485 43.2215 32.2737 43.3796 32.3307C43.5377 32.3877 43.7276 32.4765 43.922 32.582C44.1164 32.6875 44.3152 32.8097 44.5287 32.9477C44.7421 33.0858 44.9702 33.2396 45.1771 33.3837C45.384 33.5279 45.5696 33.6623 45.7261 33.7587C45.8827 33.8551 46.0102 33.9134 46.1571 33.9636C46.304 34.0139 46.4702 34.0559 46.7098 34.0792C46.9493 34.1025 47.2621 34.107 47.4954 34.0944C47.7287 34.0818 47.8825 34.0521 48.0437 33.9948C48.205 33.9374 48.3736 33.8524 48.5617 33.7274C48.7497 33.6024 48.9571 33.4374 49.1768 33.2512C49.3964 33.0651 49.6284 32.8578 49.8176 32.7011C50.0069 32.5443 50.1535 32.438 50.3369 32.3332C50.5204 32.2283 50.7406 32.1249 50.9394 32.0499C51.1383 31.9749 51.3156 31.9284 51.487 31.9057C51.6583 31.8831 51.8236 31.8844 52.0152 31.8982C52.2068 31.912 52.4246 31.9382 52.644 31.9874C52.8635 32.0367 53.0846 32.1088 53.3164 32.2005C53.5482 32.2922 53.7907 32.4034 54.0053 32.5109C54.22 32.6184 54.4068 32.7224 54.5864 32.8464C54.7661 32.9704 54.9386 33.1144 55.0959 33.2579C55.2532 33.4014 55.3952 33.5443 55.5146 33.7131C55.634 33.8818 55.7308 34.0764 55.8017 34.2483C55.8727 34.4203 55.9178 34.5696 55.95 34.6892C55.9823 34.8087 56.0017 34.8985 55.9999 35.0766C55.9981 35.2546 55.975 35.5209 55.9503 35.6993C55.9256 35.8777 55.8992 35.9683 55.8364 36.0765C55.7737 36.1848 55.6747 36.3107 55.5558 36.4231C55.437 36.5356 55.2983 36.6345 55.1618 36.7093C55.0253 36.7842 54.8911 36.835 54.7499 36.8664C54.6087 36.8978 54.4607 36.9099 54.3044 36.9064C54.148 36.9028 53.9834 36.8837 53.8156 36.8467C53.6479 36.8097 53.477 36.7547 53.2547 36.7143C53.0323 36.6739 52.7585 36.648 52.4711 36.6458C52.1837 36.6435 51.8826 36.6649 51.5837 36.6979C51.2847 36.7308 50.9879 36.7753 50.5353 36.8659C50.0827 36.9565 49.4744 37.0932 49.0242 37.189C48.5739 37.2848 48.2818 37.3396 47.8781 37.3825C47.4744 37.4253 46.9593 37.4563 46.6305 37.4715C46.3017 37.4868 46.1592 37.4863 44.7582 37.399C43.357 37.3116 40.6974 37.1373 39.1259 37.0484C37.5544 36.9595 37.0711 36.9561 36.6852 36.9666C36.2993 36.9771 36.0109 37.0015 35.7411 37.0356C35.4714 37.0696 35.2204 37.1134 34.9559 37.1743C34.6915 37.2353 34.4137 37.3136 34.1028 37.425C33.7919 37.5363 33.4479 37.6808 33.1042 37.8175C32.7605 37.9543 32.4171 38.0835 32.0906 38.2019C31.7642 38.3203 31.4547 38.4279 31.1893 38.5155C30.9238 38.6032 30.7024 38.6709 30.4095 38.7436C30.1166 38.8162 29.7523 38.8936 29.4373 38.9476C29.1222 39.0015 28.8565 39.0319 28.5323 39.0588C28.2081 39.0857 27.8256 39.109 27.2865 39.1009C26.7474 39.0927 26.0518 39.053 25.5699 39.0165C25.0879 38.98 24.8195 38.9467 24.4528 38.888C24.0862 38.8293 23.6213 38.7451 23.1141 38.6364C22.6069 38.5277 22.0574 38.3944 21.554 38.2528C21.0506 38.1112 20.5934 37.9612 19.895 37.6987C19.1967 37.4363 18.257 37.0615 17.2225 36.6398C16.188 36.218 15.0587 35.7494 14.3035 35.4403C13.5483 35.1312 13.1672 34.9818 12.6694 34.7584C12.1716 34.535 11.557 34.2377 10.7772 33.8405C9.99741 33.4433 9.05238 32.9461 8.25958 32.5123C7.46679 32.0786 6.82628 31.7084 6.45045 31.4707C6.07466 31.2331 5.96359 31.128 5.87821 31.033C5.79284 30.9379 5.73317 30.8529 5.69875 30.7661C5.66433 30.6793 5.65517 30.5908 5.66551 30.5094C5.67585 30.4279 5.70572 30.3535 5.78218 30.2602C5.85865 30.1669 5.98173 30.0547 6.2007 29.9058C6.41966 29.7569 6.7345 29.5711 6.94226 29.456C7.15002 29.3408 7.2507 29.2961 7.37029 29.2279C7.48988 29.1596 7.62836 29.0679 7.75045 28.9584C7.87254 28.8488 7.97822 28.7216 8.05668 28.6005C8.13515 28.4794 8.18638 28.3645 8.22211 28.2318C8.25784 28.0992 8.27806 27.9488 8.27314 27.7975C8.26821 27.6462 8.23813 27.4939 8.18922 27.34C8.14031 27.186 8.07258 27.0305 7.98797 26.8923C7.90337 26.754 7.8019 26.6332 7.67261 26.5337C7.54332 26.4342 7.38623 26.3562 6.93235 26.3019C6.47845 26.2476 5.72782 26.2171 5.30224 26.1846C4.8767 26.1521 4.77626 26.1177 4.65395 26.057C4.53164 25.9962 4.38744 25.9092 4.25624 25.8151C4.12504 25.721 4.00684 25.6197 3.80212 25.3217C3.59741 25.0237 3.30617 24.529 3.15568 24.2599C3.00518 23.9907 2.99542 23.9471 3.00119 23.8964C3.00696 23.8458 3.02828 23.7881 3.07354 23.7358C3.11881 23.6834 3.18805 23.6365 3.26013 23.5986C3.33221 23.5607 3.40711 23.5318 3.47147 23.4961C3.53582 23.4604 3.58963 23.418 3.63196 23.3764C3.67429 23.3348 3.70513 23.294 3.72436 23.2248C3.7436 23.1556 3.7512 23.0579 3.74793 22.9452C3.74467 22.8325 3.73054 22.7047 3.6787 22.4667C3.62686 22.2287 3.53731 21.8805 3.46901 21.6093C3.40072 21.3382 3.35369 21.1442 3.32432 20.966C3.29495 20.7878 3.28325 20.6254 3.28256 20.5262C3.28186 20.427 3.2922 20.391 3.31713 20.3387C3.34206 20.2865 3.3816 20.2181 3.43076 20.164C3.47991 20.1099 3.5387 20.0702 3.61664 20.0452C3.69457 20.0203 3.79164 20.01 11.4708 20.0048C19.1499 19.9996 34.4099 19.9994 42.0525 20.0007C49.6951 20.002 49.7192 20.0048 49.7578 20.0198C49.7964 20.0349 49.8493 20.0621 49.8994 20.0928C49.9494 20.1236 49.9967 20.1578 50.0464 20.2209C50.0962 20.284 50.1484 20.376 50.1795 20.4563C50.2105 20.5367 50.2204 20.6055 50.2164 20.6854C50.2124 20.7653 50.1945 20.8563 50.1616 20.9405C50.1286 21.0247 50.0806 21.102 49.9963 21.1887C49.912 21.2754 49.7913 21.3714 49.4119 21.6221C49.0324 21.8728 48.3943 22.278 47.9874 22.5168C47.5805 22.7556 47.405 22.828 47.2031 22.8849C47.0012 22.9419 46.7729 22.9834 46.5453 23.0088C46.3176 23.0341 46.0906 23.0433 45.8268 23.0241C45.5631 23.0049 45.2627 22.9572 44.9707 22.8794C44.6787 22.8015 44.395 22.6933 44.1674 22.5784C43.9397 22.4634 43.7682 22.3416 43.5683 22.2061C43.3684 22.0707 43.1403 21.9215 42.8635 21.7776C42.5866 21.6338 42.2609 21.4952 41.8989 21.3642C41.537 21.2333 41.1388 21.1099 40.7984 21.0265C40.458 20.9432 40.1754 20.8999 39.8292 20.8739C39.4829 20.8479 39.0731 20.8392 38.7256 20.8473C38.378 20.8554 38.0928 20.8803 37.7847 20.9368C37.4767 20.9932 37.1459 21.0811 36.8324 21.1859C36.5189 21.2907 36.2227 21.4124 35.9901 21.5185C35.7575 21.6247 35.5885 21.7153 35.504 21.7606C35.4195 21.8058 35.4199 21.8059 34.1742 22.4737Z" stroke="white" stroke-width="1.5"/>
<defs>
<pattern id="pattern0_184_955" patternUnits="userSpaceOnUse" patternTransform="matrix(12 0 0 12 0 0)" preserveAspectRatio="none" viewBox="0 0 12 12" width="1" height="1">
<g id="pattern0_184_955_inner">
<rect y="2" width="3" height="1" fill="#D9D9D9"/>
<rect y="8" width="3" height="1" fill="#D9D9D9"/>
<rect x="6" y="2" width="3" height="1" fill="#D9D9D9"/>
<rect x="6" y="8" width="3" height="1" fill="#D9D9D9"/>
<rect x="5" y="3" width="3" height="1" transform="rotate(180 5 3)" fill="#D9D9D9"/>
<rect x="5" y="9" width="3" height="1" transform="rotate(180 5 9)" fill="#D9D9D9"/>
<rect x="11" y="3" width="3" height="1" transform="rotate(180 11 3)" fill="#D9D9D9"/>
<rect x="11" y="9" width="3" height="1" transform="rotate(180 11 9)" fill="#D9D9D9"/>
<rect x="2" width="1" height="2" fill="#D9D9D9"/>
<rect x="2" y="6" width="1" height="2" fill="#D9D9D9"/>
<rect x="8" width="1" height="2" fill="#D9D9D9"/>
<rect x="8" y="6" width="1" height="2" fill="#D9D9D9"/>
<rect x="3" y="5" width="1" height="2" transform="rotate(180 3 5)" fill="#D9D9D9"/>
<rect x="3" y="11" width="1" height="2" transform="rotate(180 3 11)" fill="#D9D9D9"/>
<rect x="9" y="5" width="1" height="2" transform="rotate(180 9 5)" fill="#D9D9D9"/>
<rect x="9" y="11" width="1" height="2" transform="rotate(180 9 11)" fill="#D9D9D9"/>
</g>
</pattern></defs>
</svg>
