<svg width="60" height="60" viewBox="0 0 60 60" fill="none" xmlns="http://www.w3.org/2000/svg" xmlns:xlink="http://www.w3.org/1999/xlink">
<rect width="60" height="60" fill="url(#pattern0_184_955)" fill-opacity="0.1"/>
<path d="M34.7895 22.4737C33.5438 23.1415 31.0526 24.4771 29.035 25.561C27.0174 26.645 25.4741 27.4776 24.6616 27.9189C23.8491 28.3602 23.7676 28.4102 23.6847 28.4704C23.6019 28.5306 23.5178 28.6012 23.4423 28.6784C23.3668 28.7556 23.2999 28.8395 23.2513 28.9127C23.2027 28.9859 23.1723 29.0483 23.147 29.1415C23.1218 29.2346 23.1017 29.3585 23.1028 29.4629C23.1038 29.5672 23.126 29.652 23.1635 29.7349C23.201 29.8178 23.2538 29.8987 23.3331 29.9857C23.4125 30.0727 23.5182 30.1659 23.6652 30.2797C23.8122 30.3935 24.0004 30.528 24.1786 30.6558C24.3568 30.7836 24.5252 30.9046 24.6436 31.0008C24.762 31.0969 24.8305 31.1683 24.8948 31.2471C24.9592 31.3259 25.0195 31.4122 25.0754 31.5124C25.1313 31.6125 25.1828 31.7265 25.2219 31.8679C25.2609 32.0094 25.2875 32.1783 25.2888 32.5384C25.2901 32.8985 25.2662 33.4497 25.2624 33.7777C25.2586 34.1058 25.2749 34.2107 25.3116 34.347C25.3483 34.4833 25.4054 34.6509 25.4721 34.801C25.5388 34.9512 25.615 35.0839 25.6886 35.1885C25.7621 35.2931 25.833 35.3696 25.9126 35.4478C25.9923 35.5259 26.0808 35.6057 26.1917 35.699C26.3026 35.7924 26.4358 35.8993 26.5971 36.0048C26.7584 36.1103 26.9477 36.2143 27.1286 36.3065C27.3095 36.3988 27.4819 36.4793 27.6896 36.5687C27.8973 36.6582 28.1403 36.7567 28.3827 36.8386C28.625 36.9205 28.8667 36.9858 29.0888 37.0339C29.3108 37.0819 29.5132 37.1126 29.9039 37.1418C30.2946 37.1709 30.8736 37.1984 31.2665 37.2035C31.6594 37.2085 31.8661 37.1911 32.0542 37.164C32.2422 37.137 32.4116 37.1003 32.6213 37.0397C32.831 36.9792 33.0811 36.8947 33.3629 36.7836C33.6446 36.6724 33.9581 36.5346 35.2665 35.8554C36.575 35.1762 38.8783 33.9558 40.1287 33.2981C41.3792 32.6404 41.5766 32.5456 41.7414 32.4715C41.906 32.3974 42.0379 32.344 42.1998 32.3006C42.3618 32.2573 42.5539 32.224 42.7138 32.2022C42.8737 32.1804 43.0013 32.1701 43.141 32.1755C43.2807 32.1809 43.4326 32.2021 43.5716 32.2253C43.7106 32.2485 43.8369 32.2737 43.995 32.3307C44.1531 32.3877 44.343 32.4765 44.5374 32.582C44.7317 32.6875 44.9305 32.8097 45.144 32.9477C45.3575 33.0858 45.5856 33.2396 45.7924 33.3837C45.9993 33.5279 46.1849 33.6623 46.3415 33.7587C46.498 33.8551 46.6255 33.9134 46.7724 33.9636C46.9193 34.0139 47.0856 34.0559 47.3251 34.0792C47.5647 34.1025 47.8774 34.107 48.1107 34.0944C48.344 34.0818 48.4978 34.0521 48.6591 33.9948C48.8203 33.9374 48.989 33.8524 49.177 33.7274C49.3651 33.6024 49.5724 33.4374 49.7921 33.2512C50.0118 33.0651 50.2437 32.8578 50.433 32.7011C50.6222 32.5443 50.7688 32.438 50.9523 32.3332C51.1357 32.2283 51.356 32.1249 51.5548 32.0499C51.7536 31.9749 51.931 31.9284 52.1023 31.9057C52.2737 31.8831 52.439 31.8844 52.6306 31.8982C52.8221 31.912 53.0399 31.9382 53.2594 31.9874C53.4788 32.0367 53.6999 32.1088 53.9317 32.2005C54.1635 32.2922 54.406 32.4034 54.6207 32.5109C54.8353 32.6184 55.0221 32.7224 55.2018 32.8464C55.3814 32.9704 55.554 33.1144 55.7112 33.2579C55.8685 33.4014 56.0105 33.5443 56.13 33.7131C56.2494 33.8818 56.3461 34.0764 56.4171 34.2483C56.488 34.4203 56.5331 34.5696 56.5654 34.6892C56.5976 34.8087 56.6171 34.8985 56.6152 35.0766C56.6134 35.2546 56.5904 35.5209 56.5657 35.6993C56.5409 35.8777 56.5145 35.9683 56.4518 36.0765C56.3891 36.1848 56.29 36.3107 56.1712 36.4231C56.0523 36.5356 55.9136 36.6345 55.7772 36.7093C55.6407 36.7842 55.5064 36.835 55.3653 36.8664C55.2241 36.8978 55.0761 36.9099 54.9197 36.9064C54.7634 36.9028 54.5987 36.8837 54.431 36.8467C54.2632 36.8097 54.0924 36.7547 53.87 36.7143C53.6477 36.6739 53.3739 36.648 53.0865 36.6458C52.7991 36.6435 52.498 36.6649 52.199 36.6979C51.9001 36.7308 51.6032 36.7753 51.1506 36.8659C50.698 36.9565 50.0898 37.0932 49.6395 37.189C49.1893 37.2848 48.8971 37.3396 48.4934 37.3825C48.0898 37.4253 47.5746 37.4563 47.2458 37.4715C46.917 37.4868 46.7745 37.4863 45.3735 37.399C43.9724 37.3116 41.3128 37.1373 39.7412 37.0484C38.1697 36.9595 37.6865 36.9561 37.3006 36.9666C36.9147 36.9771 36.6262 37.0015 36.3565 37.0356C36.0867 37.0696 35.8357 37.1134 35.5713 37.1743C35.3069 37.2353 35.029 37.3136 34.7181 37.425C34.4072 37.5363 34.0632 37.6808 33.7195 37.8175C33.3758 37.9543 33.0324 38.0835 32.706 38.2019C32.3796 38.3203 32.0701 38.4279 31.8046 38.5155C31.5391 38.6032 31.3177 38.6709 31.0249 38.7436C30.732 38.8162 30.3677 38.8936 30.0527 38.9476C29.7376 39.0015 29.4718 39.0319 29.1477 39.0588C28.8235 39.0857 28.4409 39.109 27.9019 39.1009C27.3628 39.0927 26.6672 39.053 26.1852 39.0165C25.7032 38.98 25.4348 38.9467 25.0682 38.888C24.7015 38.8293 24.2366 38.7451 23.7294 38.6364C23.2222 38.5277 22.6728 38.3944 22.1694 38.2528C21.666 38.1112 21.2088 37.9612 20.5104 37.6987C19.812 37.4363 18.8724 37.0615 17.8379 36.6398C16.8034 36.218 15.6741 35.7494 14.9189 35.4403C14.1637 35.1312 13.7826 34.9818 13.2848 34.7584C12.7869 34.535 12.1724 34.2377 11.3926 33.8405C10.6128 33.4433 9.66773 32.9461 8.87494 32.5123C8.08215 32.0786 7.44163 31.7084 7.06581 31.4707C6.69001 31.2331 6.57895 31.128 6.49357 31.033C6.4082 30.9379 6.34853 30.8529 6.3141 30.7661C6.27968 30.6793 6.27052 30.5908 6.28086 30.5094C6.2912 30.4279 6.32107 30.3535 6.39754 30.2602C6.47401 30.1669 6.59709 30.0547 6.81605 29.9058C7.03502 29.7569 7.34986 29.5711 7.55761 29.456C7.76537 29.3408 7.86606 29.2961 7.98565 29.2279C8.10524 29.1596 8.24372 29.0679 8.36581 28.9584C8.4879 28.8488 8.59357 28.7216 8.67204 28.6005C8.7505 28.4794 8.80173 28.3645 8.83746 28.2318C8.8732 28.0992 8.89342 27.9488 8.88849 27.7975C8.88357 27.6462 8.85349 27.4939 8.80458 27.34C8.75567 27.186 8.68793 27.0305 8.60333 26.8923C8.51872 26.754 8.41726 26.6332 8.28797 26.5337C8.15868 26.4342 8.00159 26.3562 7.5477 26.3019C7.09381 26.2476 6.34317 26.2171 5.9176 26.1846C5.49206 26.1521 5.39162 26.1177 5.26931 26.057C5.14699 25.9962 5.0028 25.9092 4.8716 25.8151C4.7404 25.721 4.6222 25.6197 4.41748 25.3217C4.21276 25.0237 3.92153 24.529 3.77104 24.2599C3.62054 23.9907 3.61078 23.9471 3.61655 23.8964C3.62232 23.8458 3.64363 23.7881 3.6889 23.7358C3.73416 23.6834 3.8034 23.6365 3.87548 23.5986C3.94756 23.5607 4.02246 23.5318 4.08682 23.4961C4.15118 23.4604 4.20498 23.418 4.24732 23.3764C4.28965 23.3348 4.32048 23.294 4.33972 23.2248C4.35895 23.1556 4.36655 23.0579 4.36329 22.9452C4.36003 22.8325 4.34589 22.7047 4.29405 22.4667C4.24221 22.2287 4.15266 21.8805 4.08437 21.6093C4.01608 21.3382 3.96904 21.1442 3.93967 20.966C3.9103 20.7878 3.89861 20.6254 3.89791 20.5262C3.89722 20.427 3.90755 20.391 3.93248 20.3387C3.95741 20.2865 3.99696 20.2181 4.04611 20.164C4.09527 20.1099 4.15405 20.0702 4.23199 20.0452C4.30993 20.0203 4.407 20.01 12.0862 20.0048C19.7652 19.9996 35.0252 19.9994 42.6679 20.0007C50.3105 20.002 50.3346 20.0048 50.3731 20.0198C50.4117 20.0349 50.4646 20.0621 50.5147 20.0928C50.5648 20.1236 50.6121 20.1578 50.6618 20.2209C50.7115 20.284 50.7637 20.376 50.7948 20.4563C50.8259 20.5367 50.8358 20.6055 50.8318 20.6854C50.8278 20.7653 50.8099 20.8563 50.7769 20.9405C50.744 21.0247 50.696 21.102 50.6117 21.1887C50.5273 21.2754 50.4067 21.3714 50.0272 21.6221C49.6478 21.8728 49.0096 22.278 48.6028 22.5168C48.1959 22.7556 48.0204 22.828 47.8185 22.8849C47.6166 22.9419 47.3883 22.9834 47.1606 23.0088C46.9329 23.0341 46.7059 23.0433 46.4422 23.0241C46.1785 23.0049 45.8781 22.9572 45.586 22.8794C45.294 22.8015 45.0104 22.6933 44.7827 22.5784C44.5551 22.4634 44.3835 22.3416 44.1837 22.2061C43.9838 22.0707 43.7557 21.9215 43.4788 21.7776C43.2019 21.6338 42.8763 21.4952 42.5143 21.3642C42.1524 21.2333 41.7541 21.1099 41.4137 21.0265C41.0733 20.9432 40.7908 20.8999 40.4445 20.8739C40.0983 20.8479 39.6884 20.8392 39.3409 20.8473C38.9934 20.8554 38.7082 20.8803 38.4001 20.9368C38.0921 20.9932 37.7612 21.0811 37.4477 21.1859C37.1342 21.2907 36.8381 21.4124 36.6055 21.5185C36.3729 21.6247 36.2038 21.7153 36.1193 21.7606C36.0349 21.8058 36.0352 21.8059 34.7895 22.4737Z" stroke="white" stroke-width="1.5"/>
<defs>
<pattern id="pattern0_184_955" patternUnits="userSpaceOnUse" patternTransform="matrix(12 0 0 12 0 0)" preserveAspectRatio="none" viewBox="0 0 12 12" width="1" height="1">
<g id="pattern0_184_955_inner">
<rect y="2" width="3" height="1" fill="#D9D9D9"/>
<rect y="8" width="3" height="1" fill="#D9D9D9"/>
<rect x="6" y="2" width="3" height="1" fill="#D9D9D9"/>
<rect x="6" y="8" width="3" height="1" fill="#D9D9D9"/>
<rect x="5" y="3" width="3" height="1" transform="rotate(180 5 3)" fill="#D9D9D9"/>
<rect x="5" y="9" width="3" height="1" transform="rotate(180 5 9)" fill="#D9D9D9"/>
<rect x="11" y="3" width="3" height="1" transform="rotate(180 11 3)" fill="#D9D9D9"/>
<rect x="11" y="9" width="3" height="1" transform="rotate(180 11 9)" fill="#D9D9D9"/>
<rect x="2" width="1" height="2" fill="#D9D9D9"/>
<rect x="2" y="6" width="1" height="2" fill="#D9D9D9"/>
<rect x="8" width="1" height="2" fill="#D9D9D9"/>
<rect x="8" y="6" width="1" height="2" fill="#D9D9D9"/>
<rect x="3" y="5" width="1" height="2" transform="rotate(180 3 5)" fill="#D9D9D9"/>
<rect x="3" y="11" width="1" height="2" transform="rotate(180 3 11)" fill="#D9D9D9"/>
<rect x="9" y="5" width="1" height="2" transform="rotate(180 9 5)" fill="#D9D9D9"/>
<rect x="9" y="11" width="1" height="2" transform="rotate(180 9 11)" fill="#D9D9D9"/>
</g>
</pattern></defs>
</svg>
