<svg width="60" height="60" viewBox="0 0 60 60" fill="none" xmlns="http://www.w3.org/2000/svg" xmlns:xlink="http://www.w3.org/1999/xlink">
<rect width="60" height="60" fill="url(#pattern0_246_22)" fill-opacity="0.1"/>
<path d="M4.06201 38.6911C4.06217 38.691 4.06234 38.6908 4.0625 38.6906C4.16832 38.5812 4.26125 38.4851 4.32178 38.4164C5.42968 37.1587 6.4991 35.9384 7.55328 34.7355C10.1601 31.761 12.6746 28.8918 15.4528 25.8193C15.8072 25.4274 16.2297 25.1176 16.6393 24.8172C16.7101 24.7652 16.7805 24.7136 16.8501 24.6618C17.4396 24.2237 18.0473 23.8041 18.6765 23.4206C18.7554 23.3725 18.8343 23.3243 18.9133 23.2761C19.9108 22.6671 20.9169 22.0529 21.9757 21.5374C25.8771 19.6379 29.3784 17.9368 33.359 16.2539C33.594 16.1546 33.9299 16.0765 34.2696 16.0335C34.4395 16.0121 34.6079 15.9995 34.7653 16C34.9227 16.0006 35.0686 16.0153 35.1943 16.0503C35.6269 16.1707 35.9922 16.5768 36.219 16.919C36.5467 17.4138 36.7685 18.0545 36.9589 18.6043L36.9605 18.6089C37.0316 18.8142 37.079 19.0025 37.1234 19.1792C37.2002 19.4841 37.2682 19.7547 37.4344 20.019C37.6286 20.328 38.0309 20.6415 38.3706 20.7382C38.7929 20.8585 39.3895 20.7835 39.8063 20.6081C40.0996 20.4846 40.3505 20.1924 40.6156 19.8835C40.6966 19.7892 40.779 19.6932 40.8642 19.6001C41.0992 19.3435 41.3206 19.0547 41.5441 18.7632C41.7054 18.5527 41.8679 18.3408 42.0374 18.1384L42.0557 18.1166L42.0804 18.087M42.0804 18.087L42.0812 18.0861M42.1897 17.9568C42.1695 17.9807 42.1494 18.0047 42.1293 18.0287C42.1132 18.0478 42.0972 18.067 42.0812 18.0861C42.0809 18.0864 42.0807 18.0867 42.0804 18.087M55.2229 26.6029C55.2252 26.6001 55.2276 26.5972 55.2299 26.5944C55.232 26.5919 55.234 26.5894 55.2361 26.5869L55.3553 26.4415C55.3923 26.3965 55.4292 26.3515 55.4661 26.3066C55.9499 25.7174 56.3941 25.0902 56.6918 24.3912C56.8991 23.9043 57.129 23.2488 56.9134 22.7104C56.667 22.0951 56.1174 21.6073 55.6127 21.1595C55.5319 21.0878 55.4523 21.0171 55.3752 20.9471C54.76 20.3881 54.0851 19.8025 53.3183 19.4854C52.9149 19.3185 52.4994 19.349 52.0971 19.3785C51.9816 19.387 51.8672 19.3954 51.7545 19.399C51.3598 19.4117 50.9664 19.4445 50.5762 19.4771C49.9495 19.5293 49.3312 19.5809 48.7294 19.5472C48.294 19.5229 47.8706 19.3595 47.4909 19.1374C47.2927 19.0214 47.0866 18.7985 46.8823 18.5776C46.8146 18.5045 46.7471 18.4315 46.6802 18.3627C46.5939 18.2741 46.5083 18.1844 46.4225 18.0946C46.006 17.6583 45.5867 17.2193 45.0843 16.8855C44.8086 16.7024 44.4597 16.6368 44.1353 16.687C43.7632 16.7446 43.3509 16.8721 43.0326 17.1124C42.6826 17.3765 42.4043 17.7006 42.1293 18.0287M55.2361 26.5869L55.2299 26.5944M55.2361 26.5869C55.1668 26.6713 55.0975 26.7557 55.0282 26.8401M54.9754 26.9044C54.9813 26.8973 54.9872 26.8901 54.993 26.883M10.0279 38.4777C10.2988 38.1483 11.0037 37.2913 12.8311 35.0676C14.0416 33.9048 15.0602 32.724 16.1087 31.4929C16.1786 31.4108 16.2486 31.3285 16.3189 31.246M16.3189 31.246C15.1952 32.5664 14.1223 33.8273 12.8311 35.0676M16.3189 31.246C16.7182 30.7767 17.1239 30.2999 17.5481 29.8138C18.6397 28.5631 19.549 27.5306 20.7052 26.3543C21.0213 26.0326 21.6435 25.5199 22.0026 25.3953C22.5162 25.217 23.0196 25.0916 23.5613 25.1078C24.0733 25.1232 24.6002 25.2015 25.0892 25.3476C25.162 25.3693 25.2621 25.4121 25.3735 25.4662C25.642 25.6114 26.1231 25.8934 26.2483 26.0127C27.8762 27.5648 29.4431 29.2129 31.0123 30.8635L31.0124 30.8636C31.8867 31.7832 32.7617 32.7036 33.6485 33.6085C34.0611 34.0297 34.4456 34.3865 34.8192 34.7333C35.3637 35.2387 35.8851 35.7226 36.4367 36.3527C36.6911 36.6434 36.9096 37.0142 36.9887 37.3659C37.071 37.7317 37.0379 38.156 37.0044 38.5848C36.9976 38.6721 36.9907 38.7596 36.9848 38.8469C36.9723 39.0326 36.9343 39.2244 36.895 39.4224C36.843 39.6842 36.7889 39.9568 36.7889 40.2403C36.7889 40.5629 36.8559 40.9087 37.0015 41.2018C37.1487 41.4981 37.3622 41.8219 37.6534 42.0268L38.3617 42.3503C38.5442 42.4002 38.7318 42.4289 38.9137 42.4289C39.3923 42.4289 39.9587 42.3305 40.3763 42.0564C40.8012 41.7775 41.0923 41.2892 41.3151 40.859C41.7067 40.1026 42.0298 39.2812 42.259 38.4589C42.3496 38.1337 42.3887 37.803 42.4267 37.4811C42.4549 37.2417 42.4826 37.0071 42.5305 36.7833C42.5537 36.6749 42.5751 36.5664 42.5964 36.4587C42.6795 36.0388 42.7603 35.6298 42.9339 35.2803C43.1363 34.873 43.3976 34.4423 43.7178 34.2053C43.8466 34.11 44.1958 33.9756 44.5823 33.8663C44.9688 33.7571 45.401 33.6604 45.7375 33.5918C46.8976 33.3551 48.2197 33.0265 48.8933 32.7436C49.5795 32.4555 50.3438 32.0537 50.8938 31.5127C52.3592 30.0715 53.6833 28.4779 54.993 26.883M10.0279 38.4777L10.0267 38.4791M10.0279 38.4777C10.0253 38.4808 10.0228 38.4839 10.0203 38.4869M10.0267 38.4791L10.0203 38.4869M10.0267 38.4791C10.0246 38.4817 10.0224 38.4843 10.0203 38.4869M9.99626 38.5162C10.0039 38.5069 10.0119 38.4972 10.0203 38.4869M10.0203 38.4869C9.87169 38.6676 9.85976 38.6821 9.85992 38.6823C9.85992 38.6823 9.86008 38.6821 9.86022 38.682M9.85992 38.6823C9.86004 38.6822 9.86022 38.682 9.86022 38.682M4.06201 38.6911L4.06243 38.6907L4.0625 38.6906M9.86022 38.682L9.86023 38.6821C9.85893 38.685 9.74286 38.8307 6.87688 42.3297C6.65153 42.6132 6.21565 42.8187 5.89582 42.9045C5.42083 43.032 5.02869 43.0175 4.5664 42.9445C4.13463 42.8763 3.70957 42.6148 3.43806 42.2974C3.14103 41.9503 3.04112 41.504 3.00644 41.0678C2.97095 40.6213 3.08492 40.0263 3.27924 39.6254C3.37621 39.4254 3.57527 39.2056 3.78386 38.9822C3.87816 38.8813 3.97451 38.7816 4.06201 38.6911M4.08174 38.6707C4.07538 38.6773 4.06896 38.6839 4.0625 38.6906M6.87688 42.3297C9.74275 38.8308 9.85892 38.6851 9.86023 38.6821M9.86023 38.6821C9.8596 38.6835 9.8345 38.7154 9.52792 39.0907C9.86277 38.6808 9.86207 38.6803 9.86022 38.682M55.0282 26.8401C55.0931 26.761 55.158 26.682 55.2229 26.6029M55.2229 26.6029C55.158 26.6819 55.0931 26.7611 55.0282 26.8401C55.0165 26.8544 55.0048 26.8687 54.993 26.883M55.2229 26.6029L55.2299 26.5944M55.2299 26.5944C55.151 26.6905 55.072 26.7868 54.993 26.883" stroke="white" stroke-width="1.5" stroke-linecap="round" stroke-linejoin="round"/>
<defs>
<pattern id="pattern0_246_22" patternUnits="userSpaceOnUse" patternTransform="matrix(12 0 0 12 0 0)" preserveAspectRatio="none" viewBox="0 0 12 12" width="1" height="1">
<g id="pattern0_246_22_inner">
<rect y="2" width="3" height="1" fill="#D9D9D9"/>
<rect y="8" width="3" height="1" fill="#D9D9D9"/>
<rect x="6" y="2" width="3" height="1" fill="#D9D9D9"/>
<rect x="6" y="8" width="3" height="1" fill="#D9D9D9"/>
<rect x="5" y="3" width="3" height="1" transform="rotate(180 5 3)" fill="#D9D9D9"/>
<rect x="5" y="9" width="3" height="1" transform="rotate(180 5 9)" fill="#D9D9D9"/>
<rect x="11" y="3" width="3" height="1" transform="rotate(180 11 3)" fill="#D9D9D9"/>
<rect x="11" y="9" width="3" height="1" transform="rotate(180 11 9)" fill="#D9D9D9"/>
<rect x="2" width="1" height="2" fill="#D9D9D9"/>
<rect x="2" y="6" width="1" height="2" fill="#D9D9D9"/>
<rect x="8" width="1" height="2" fill="#D9D9D9"/>
<rect x="8" y="6" width="1" height="2" fill="#D9D9D9"/>
<rect x="3" y="5" width="1" height="2" transform="rotate(180 3 5)" fill="#D9D9D9"/>
<rect x="3" y="11" width="1" height="2" transform="rotate(180 3 11)" fill="#D9D9D9"/>
<rect x="9" y="5" width="1" height="2" transform="rotate(180 9 5)" fill="#D9D9D9"/>
<rect x="9" y="11" width="1" height="2" transform="rotate(180 9 11)" fill="#D9D9D9"/>
</g>
</pattern></defs>
</svg>
