<svg width="60" height="60" viewBox="0 0 60 60" fill="none" xmlns="http://www.w3.org/2000/svg" xmlns:xlink="http://www.w3.org/1999/xlink">
<rect width="60" height="60" fill="url(#pattern0_241_2396)" fill-opacity="0.1"/>
<path d="M3 28C3 21.9249 7.92487 17 14 17H46C52.0751 17 57 21.9249 57 28L57 32C57 38.0751 52.0751 43 46 43H14C7.92487 43 3 38.0751 3 32V28Z" stroke="white" stroke-width="1.5"/>
<defs>
<pattern id="pattern0_241_2396" patternUnits="userSpaceOnUse" patternTransform="matrix(12 0 0 12 0 0)" preserveAspectRatio="none" viewBox="0 0 12 12" width="1" height="1">
<g id="pattern0_241_2396_inner">
<rect y="2" width="3" height="1" fill="#D9D9D9"/>
<rect y="8" width="3" height="1" fill="#D9D9D9"/>
<rect x="6" y="2" width="3" height="1" fill="#D9D9D9"/>
<rect x="6" y="8" width="3" height="1" fill="#D9D9D9"/>
<rect x="5" y="3" width="3" height="1" transform="rotate(180 5 3)" fill="#D9D9D9"/>
<rect x="5" y="9" width="3" height="1" transform="rotate(180 5 9)" fill="#D9D9D9"/>
<rect x="11" y="3" width="3" height="1" transform="rotate(180 11 3)" fill="#D9D9D9"/>
<rect x="11" y="9" width="3" height="1" transform="rotate(180 11 9)" fill="#D9D9D9"/>
<rect x="2" width="1" height="2" fill="#D9D9D9"/>
<rect x="2" y="6" width="1" height="2" fill="#D9D9D9"/>
<rect x="8" width="1" height="2" fill="#D9D9D9"/>
<rect x="8" y="6" width="1" height="2" fill="#D9D9D9"/>
<rect x="3" y="5" width="1" height="2" transform="rotate(180 3 5)" fill="#D9D9D9"/>
<rect x="3" y="11" width="1" height="2" transform="rotate(180 3 11)" fill="#D9D9D9"/>
<rect x="9" y="5" width="1" height="2" transform="rotate(180 9 5)" fill="#D9D9D9"/>
<rect x="9" y="11" width="1" height="2" transform="rotate(180 9 11)" fill="#D9D9D9"/>
</g>
</pattern></defs>
</svg>
