<svg width="60" height="60" viewBox="0 0 60 60" fill="none" xmlns="http://www.w3.org/2000/svg" xmlns:xlink="http://www.w3.org/1999/xlink">
<rect width="60" height="60" fill="url(#pattern0_313_312)" fill-opacity="0.1"/>
<path fill-rule="evenodd" clip-rule="evenodd" d="M32.7738 25.8422C30.6678 30.313 28.604 34.8353 26.3332 39.1962C25.9036 40.0211 24.992 40.3223 24.06 40.3289C22.9093 40.3372 22.0339 40.2534 20.8989 40.2335C20.6128 40.2285 20.041 40.3654 19.786 40.77C18.3128 43.1073 17.0536 45.3992 15.6067 47.8047C15.1625 48.5431 14.1568 49.0435 13.3217 48.997C10.0141 48.8127 6.67309 48.5212 3.54237 47.9955C2.91531 47.8902 2.85337 46.8019 3.24638 46.3381C3.8552 45.6198 4.34344 45.044 5.01045 44.3827C5.24153 44.1537 5.68004 44.0014 5.98128 44.1204C7.4652 44.7068 8.53579 45.2307 10.0777 45.6704C10.3196 45.7394 10.9733 45.6915 11.1551 45.5154C15.125 41.6695 19.5927 37.2392 22.6274 33.64C25.5956 30.1197 28.3511 25.7462 30.986 21.4664C31.7613 20.2072 31.7153 18.9913 30.4333 18.3425C29.5861 17.9138 27.7004 18.3523 26.5818 18.8433C22.269 20.7364 18.2799 23.3177 14.0913 25.4845C13.8091 25.6305 12.8095 25.7476 12.4929 25.7349C10.0746 25.6383 9.34027 25.3718 9.02602 24.4537C8.51541 22.9618 10.1992 21.7042 11.0012 21.371C19.3895 17.8864 27.8785 14.3695 36.3611 11.1529C36.8922 10.9515 37.6955 10.9773 38.2554 11.0694C42.4312 11.7563 45.7702 12.4143 49.8935 13.3587C50.4902 13.4953 51.7233 14.1573 52.1785 14.5629C53.7754 15.9856 54.4017 16.1968 55.6775 17.8672C55.9802 18.2635 56.0566 18.9541 55.9616 19.4529C55.5514 21.609 55.6724 21.5086 55 23.5218C54.6955 24.4334 53.1245 24.5302 52.9481 23.5218C52.4886 20.8961 52.8054 20.4466 51.7878 18.8791C51.3472 18.2004 50.9702 17.5332 50.4263 17.3172C47.0079 15.9593 43.662 14.8276 40.1142 13.9548C39.5261 13.8102 38.3554 13.9089 38.0068 14.6225C36.1927 18.3364 34.6143 21.935 32.7738 25.8422Z" stroke="white" stroke-width="1.5" stroke-linejoin="round"/>
<defs>
<pattern id="pattern0_313_312" patternUnits="userSpaceOnUse" patternTransform="matrix(12 0 0 12 0 0)" preserveAspectRatio="none" viewBox="0 0 12 12" width="1" height="1">
<g id="pattern0_313_312_inner">
<rect y="2" width="3" height="1" fill="#D9D9D9"/>
<rect y="8" width="3" height="1" fill="#D9D9D9"/>
<rect x="6" y="2" width="3" height="1" fill="#D9D9D9"/>
<rect x="6" y="8" width="3" height="1" fill="#D9D9D9"/>
<rect x="5" y="3" width="3" height="1" transform="rotate(180 5 3)" fill="#D9D9D9"/>
<rect x="5" y="9" width="3" height="1" transform="rotate(180 5 9)" fill="#D9D9D9"/>
<rect x="11" y="3" width="3" height="1" transform="rotate(180 11 3)" fill="#D9D9D9"/>
<rect x="11" y="9" width="3" height="1" transform="rotate(180 11 9)" fill="#D9D9D9"/>
<rect x="2" width="1" height="2" fill="#D9D9D9"/>
<rect x="2" y="6" width="1" height="2" fill="#D9D9D9"/>
<rect x="8" width="1" height="2" fill="#D9D9D9"/>
<rect x="8" y="6" width="1" height="2" fill="#D9D9D9"/>
<rect x="3" y="5" width="1" height="2" transform="rotate(180 3 5)" fill="#D9D9D9"/>
<rect x="3" y="11" width="1" height="2" transform="rotate(180 3 11)" fill="#D9D9D9"/>
<rect x="9" y="5" width="1" height="2" transform="rotate(180 9 5)" fill="#D9D9D9"/>
<rect x="9" y="11" width="1" height="2" transform="rotate(180 9 11)" fill="#D9D9D9"/>
</g>
</pattern></defs>
</svg>
