<svg width="60" height="60" viewBox="0 0 60 60" fill="none" xmlns="http://www.w3.org/2000/svg" xmlns:xlink="http://www.w3.org/1999/xlink">
<rect width="60" height="60" fill="url(#pattern0_246_20)" fill-opacity="0.1"/>
<path d="M5.71814 29.4057C6.09251 28.3947 6.83231 26.5097 7.24472 25.7018C7.65712 24.894 7.5395 25.0509 7.96089 24.4672C8.38227 23.8835 9.23891 22.9307 9.63823 22.4402C10.0376 21.9497 10.1337 21.8476 10.279 21.611C10.4243 21.3744 10.6073 20.901 10.7502 20.708C10.8931 20.5151 11.0039 20.4191 11.146 20.3579C11.288 20.2967 11.3629 20.3048 11.504 20.3395C11.6452 20.3742 11.7951 20.5141 12.0694 20.6343C12.3437 20.7546 12.4112 20.7888 12.7479 20.8923C13.0847 20.9958 16.221 21.6491 17.4219 21.869C18.6228 22.0888 18.9987 22.0808 19.9473 22.2375C20.8959 22.3942 21.829 22.4504 22.8874 22.7166C23.9458 22.9828 25.4121 23.6487 26.2798 23.8223C27.1475 23.9958 27.1811 23.9622 27.9948 23.9881C28.8085 24.014 30.3355 23.9418 31.2176 24.0249C32.0997 24.1081 32.5692 24.2726 33.3849 24.4672C34.2007 24.6618 35.2102 25.0764 36.0612 25.1859C36.9121 25.2953 37.6967 25.2167 38.3604 25.1122C39.0242 25.0076 39.5245 24.8593 39.9813 24.633C40.438 24.4068 40.7174 24.1272 40.9801 23.8038C41.2428 23.4804 41.4005 23.0429 41.489 22.6798C41.5774 22.3166 41.5965 21.9653 41.5644 21.5188C41.5323 21.0724 41.3982 20.6443 41.2628 20.1184C41.1274 19.5925 40.8283 19.0969 40.7728 18.5705C40.7174 18.0441 40.7909 17.438 40.9236 17.0226C41.0563 16.6072 41.3417 16.2552 41.5267 16.046C41.7116 15.8367 41.784 15.6763 43.9013 14.4796C46.0187 13.283 49.7076 11.4314 50.2903 11.218C50.8731 11.0047 50.906 10.9751 51.1196 11.0153C51.3332 11.0555 51.5048 11.1856 51.6473 11.3286C51.7898 11.4716 51.8748 11.6241 51.9488 11.8446C52.0229 12.065 52.0833 12.3665 52.0431 12.6369C52.0028 12.9074 51.7885 13.1484 51.7038 13.4109C51.6191 13.6734 51.5612 13.8726 51.5342 14.2032C51.5072 14.5339 51.5596 14.9801 51.5908 15.3826C51.6219 15.7851 51.7069 16.3216 51.7227 16.6172C51.7384 16.9128 51.6781 17.0519 51.7038 17.2069C51.7296 17.3619 51.7591 17.4438 51.8546 17.5386C51.9501 17.6334 52.1084 17.6677 52.2315 17.6676C52.3547 17.6674 52.4479 17.6303 52.5519 17.557C52.656 17.4837 52.7147 17.3437 52.7592 17.17C52.8038 16.9963 52.7376 16.8327 52.6462 16.5251C52.5548 16.2174 52.247 14.7745 52.2504 14.2769C52.2538 13.7794 52.2972 13.8383 52.3823 13.6504C52.4675 13.4625 52.5614 13.2769 52.7404 13.1713C52.9194 13.0657 53.1088 13.0833 53.3812 13.0792C53.6535 13.075 54.3612 13.1897 54.3612 13.1897C54.3612 13.1897 56.0656 13.6193 56.472 13.8347C56.8785 14.0501 56.8173 14.0419 56.9055 14.1848C56.9937 14.3277 57.0018 14.4572 56.9997 14.6271C56.9977 14.797 56.9888 14.875 56.8678 15.1799C56.7468 15.4847 56.1705 16.3961 56.1705 16.3961L51.9111 22.1454C51.9111 22.1454 51.1001 23.2919 50.6673 23.7485C50.2344 24.2051 49.904 24.4947 49.348 24.891C48.792 25.2873 48.0148 25.7257 47.3126 26.0704C46.6103 26.415 45.8824 26.7151 45.1452 26.9549C44.408 27.1947 43.9198 27.3373 42.9025 27.5077C41.8851 27.6781 40.2527 27.7996 39.0389 27.8578C37.8251 27.916 36.6795 27.9503 35.6277 27.8762C34.5759 27.8022 33.9955 27.6967 32.7442 27.4524C31.4929 27.2081 28.2721 26.2711 28.1456 26.3284C28.0191 26.3856 27.9894 26.3957 27.9006 26.5126C27.8118 26.6295 27.7767 26.9423 27.6933 27.047C27.6099 27.1518 27.626 27.1285 27.5048 27.176C27.3836 27.2236 26.4926 27.0189 26.2232 26.8812C25.9539 26.7434 25.9561 26.664 25.8463 26.5495C25.7365 26.435 25.6882 26.2918 25.5636 26.1994C25.439 26.1069 22.2466 25.1306 22.2466 25.1306L14.4818 22.8825C14.4818 22.8825 13.8132 22.744 13.5772 22.7535C13.3412 22.7629 13.2897 22.7763 13.0872 22.864C12.8846 22.9517 12.4087 23.3247 12.4087 23.3247C12.4087 23.3247 11.643 24.0352 11.259 24.4856C10.8751 24.9361 10.4633 25.5379 10.1282 26.0335C9.79316 26.5291 9.54052 26.8593 9.37572 27.1918C9.21093 27.5243 9.09541 28.028 9.06503 28.1692C9.03465 28.3104 8.95986 28.4945 8.98507 28.9692C9.01029 29.4439 9.25165 29.7214 9.35877 29.9701C9.75188 30.7457 9.75861 30.9614 9.57578 31.7367C9.51045 32.0212 9.52465 32.0464 9.37628 32.513C9.2279 32.9797 7.94204 37.2741 7.94204 37.2741C7.94204 37.2741 7.85087 37.7173 7.75357 37.8269C7.65628 37.9366 7.63795 37.9194 7.48972 37.9559C7.34149 37.9925 7.04748 37.95 6.86778 37.9744C6.68809 37.9987 6.55186 37.9929 6.41547 38.0849C6.27907 38.1769 6.22696 38.2722 6.11392 38.5088C6.00088 38.7453 5.89543 39.0534 5.83122 39.5222C5.76701 39.9911 5.80813 40.7411 5.83122 41.3097C5.85431 41.8783 5.85447 42.35 5.96315 42.9313C6.07183 43.5125 6.30701 44.2972 6.5097 44.774C6.71239 45.2508 6.88738 45.5515 7.09394 45.8059C7.30051 46.0604 7.54971 46.1921 7.67819 46.3219C7.80667 46.4516 7.82473 46.4351 7.8855 46.5614C7.94627 46.6878 7.9743 46.888 7.97973 47.0774C7.98517 47.2668 7.97338 47.5469 7.90435 47.6855C7.83532 47.8242 7.82227 47.8358 7.67819 47.9066C7.53411 47.9774 7.47427 48.0065 7.0374 47.9988C6.60054 47.991 5.6306 47.7358 5.0962 47.6487C4.56181 47.5615 4.11367 47.5907 3.83348 47.4644C3.5533 47.3381 3.49949 47.2667 3.40001 47.0958C3.30054 46.925 3.27907 46.7016 3.28693 46.4877C3.29479 46.2739 3.40977 46.0488 3.45655 45.8428C3.50333 45.6368 3.57386 45.4633 3.56963 45.2531C3.5654 45.0429 3.51441 44.9987 3.41886 44.6082C3.3233 44.2177 3.12215 43.6308 3.06534 43.0953C3.00853 42.5598 2.9749 42.4654 3.02308 41.5861C3.07126 40.7068 3.21591 38.6401 3.34347 37.6427C3.47103 36.6453 3.54676 36.3337 3.64502 35.8368C3.74327 35.3399 3.7547 35.3127 3.90887 34.6575C4.06304 34.0022 4.57925 32.7316 4.98312 31.5985C5.387 30.4654 5.34378 30.4167 5.71814 29.4057Z" stroke="white" stroke-width="1.5"/>
<defs>
<pattern id="pattern0_246_20" patternUnits="userSpaceOnUse" patternTransform="matrix(12 0 0 12 0 0)" preserveAspectRatio="none" viewBox="0 0 12 12" width="1" height="1">
<g id="pattern0_246_20_inner">
<rect y="2" width="3" height="1" fill="#D9D9D9"/>
<rect y="8" width="3" height="1" fill="#D9D9D9"/>
<rect x="6" y="2" width="3" height="1" fill="#D9D9D9"/>
<rect x="6" y="8" width="3" height="1" fill="#D9D9D9"/>
<rect x="5" y="3" width="3" height="1" transform="rotate(180 5 3)" fill="#D9D9D9"/>
<rect x="5" y="9" width="3" height="1" transform="rotate(180 5 9)" fill="#D9D9D9"/>
<rect x="11" y="3" width="3" height="1" transform="rotate(180 11 3)" fill="#D9D9D9"/>
<rect x="11" y="9" width="3" height="1" transform="rotate(180 11 9)" fill="#D9D9D9"/>
<rect x="2" width="1" height="2" fill="#D9D9D9"/>
<rect x="2" y="6" width="1" height="2" fill="#D9D9D9"/>
<rect x="8" width="1" height="2" fill="#D9D9D9"/>
<rect x="8" y="6" width="1" height="2" fill="#D9D9D9"/>
<rect x="3" y="5" width="1" height="2" transform="rotate(180 3 5)" fill="#D9D9D9"/>
<rect x="3" y="11" width="1" height="2" transform="rotate(180 3 11)" fill="#D9D9D9"/>
<rect x="9" y="5" width="1" height="2" transform="rotate(180 9 5)" fill="#D9D9D9"/>
<rect x="9" y="11" width="1" height="2" transform="rotate(180 9 11)" fill="#D9D9D9"/>
</g>
</pattern></defs>
</svg>
