<svg width="60" height="60" viewBox="0 0 60 60" fill="none" xmlns="http://www.w3.org/2000/svg" xmlns:xlink="http://www.w3.org/1999/xlink">
<rect width="60" height="60" fill="url(#pattern0_246_19)" fill-opacity="0.1"/>
<path d="M19.1671 47.165L4.0454 34.8057C2.39386 33.1647 3.03817 32.3343 3.68413 31.3185C4.48125 30.0649 5.59807 30.1389 7.09036 30.1389C9.82568 30.1389 11.9919 31.0815 14.677 29.8312C18.0355 28.2674 20.2508 22.1901 20.2508 22.1901C20.2508 22.1901 20.8417 18.3863 22.7281 17.831C24.1216 17.4208 23.3358 14.9487 24.7925 14.6514C30.5728 13.4719 44.7139 9.83095 48.1717 9.16417C51.083 8.60279 55.6993 9.44981 56.7905 12.1898C58.2619 15.8844 51.5768 18.1148 49.3588 21.4208C41.7206 32.8057 30.9341 48.7547 30.9341 48.7547C29.6439 50.0368 23.5023 51.3189 19.1671 47.165Z" stroke="white" stroke-width="1.5"/>
<defs>
<pattern id="pattern0_246_19" patternUnits="userSpaceOnUse" patternTransform="matrix(12 0 0 12 0 0)" preserveAspectRatio="none" viewBox="0 0 12 12" width="1" height="1">
<g id="pattern0_246_19_inner">
<rect y="2" width="3" height="1" fill="#D9D9D9"/>
<rect y="8" width="3" height="1" fill="#D9D9D9"/>
<rect x="6" y="2" width="3" height="1" fill="#D9D9D9"/>
<rect x="6" y="8" width="3" height="1" fill="#D9D9D9"/>
<rect x="5" y="3" width="3" height="1" transform="rotate(180 5 3)" fill="#D9D9D9"/>
<rect x="5" y="9" width="3" height="1" transform="rotate(180 5 9)" fill="#D9D9D9"/>
<rect x="11" y="3" width="3" height="1" transform="rotate(180 11 3)" fill="#D9D9D9"/>
<rect x="11" y="9" width="3" height="1" transform="rotate(180 11 9)" fill="#D9D9D9"/>
<rect x="2" width="1" height="2" fill="#D9D9D9"/>
<rect x="2" y="6" width="1" height="2" fill="#D9D9D9"/>
<rect x="8" width="1" height="2" fill="#D9D9D9"/>
<rect x="8" y="6" width="1" height="2" fill="#D9D9D9"/>
<rect x="3" y="5" width="1" height="2" transform="rotate(180 3 5)" fill="#D9D9D9"/>
<rect x="3" y="11" width="1" height="2" transform="rotate(180 3 11)" fill="#D9D9D9"/>
<rect x="9" y="5" width="1" height="2" transform="rotate(180 9 5)" fill="#D9D9D9"/>
<rect x="9" y="11" width="1" height="2" transform="rotate(180 9 11)" fill="#D9D9D9"/>
</g>
</pattern></defs>
</svg>
