<svg width="60" height="60" viewBox="0 0 60 60" fill="none" xmlns="http://www.w3.org/2000/svg" xmlns:xlink="http://www.w3.org/1999/xlink">
<rect width="60" height="60" fill="url(#pattern0_246_18)" fill-opacity="0.1"/>
<path d="M16.8619 26.2649C15.5118 25.6319 14.1721 24.9756 12.8324 24.3201C12.0996 23.9616 11.3503 23.6295 10.6446 23.223C10.1019 22.9105 9.56875 22.5642 9.08712 22.1634C8.32034 21.5253 7.62451 20.7964 6.8993 20.1064C6.60682 19.8281 6.34852 19.5002 6.03406 19.2586C5.89942 19.1552 5.71522 19.0652 5.552 19.0716C5.29496 19.0818 5.00981 19.1842 4.77328 19.3085C4.5195 19.4419 4.33639 19.744 4.08109 19.8446C3.90377 19.9144 3.64023 19.9028 3.47542 19.8196C3.31062 19.7365 3.17096 19.5256 3.09225 19.3459C3.01439 19.1682 2.98685 18.9421 3.00572 18.7475C3.02393 18.5597 3.09515 18.3549 3.20349 18.199C3.37532 17.9518 3.60527 17.7267 3.84624 17.5382C4.50347 17.0244 5.11615 17.0961 5.81933 16.6482C6.05555 16.4977 6.32164 16.3926 6.58568 16.2991C7.17864 16.0892 7.77661 15.8748 8.39033 15.7381C9.71722 15.4426 11.0752 15.1805 12.4075 15.0026C12.5378 14.9852 12.6903 15.0572 12.7783 15.1522C13.0405 15.4353 13.175 15.8818 13.4582 16.1371C13.6406 16.3016 13.9226 16.3999 14.1751 16.4113C15.2946 16.4622 16.4555 16.4524 17.5742 16.3241C18.2313 16.2487 18.8512 15.91 19.5025 15.8005C19.8895 15.7354 20.3026 15.738 20.6891 15.8005C21.1514 15.8752 21.647 15.9709 22.0488 16.2119C23.0396 16.8062 23.9367 17.5962 24.867 18.3063C25.2922 18.6309 26.1444 19.2744 26.588 19.5544C26.75 19.6567 26.9695 19.6999 27.1566 19.6915C27.3404 19.6833 27.5569 19.6167 27.7004 19.5045C27.8494 19.3881 27.946 19.1837 28.0342 19.0059C28.1231 18.8264 28.2588 18.6514 28.3895 18.5118C28.609 18.2774 28.9323 18.0633 29.2423 17.9633C29.538 17.868 29.8954 17.8667 30.2065 17.9259C30.703 18.0204 30.7257 17.977 31.1924 18.1862C31.5786 18.3593 31.7785 18.5225 32.135 18.7551C33.4472 19.6112 34.7685 20.46 36.0409 21.3731C36.6391 21.8023 37.1806 22.3091 37.7467 22.7818C38.2107 23.1693 38.7003 23.5303 39.1311 23.9537C39.8334 24.644 40.5173 25.3633 41.1458 26.1229C41.8481 26.9715 42.4625 27.8945 43.1235 28.7783C43.3607 29.0954 43.6297 29.3938 43.8404 29.7257C43.9305 29.8676 44.04 30.0482 44.0258 30.1995C44.0112 30.3557 43.8387 30.4954 43.7539 30.6483C43.6451 30.8444 43.5033 31.0352 43.4449 31.2467C43.392 31.4383 43.3713 31.6653 43.4202 31.8575C43.4991 32.1681 43.6567 32.4762 43.8281 32.7551C44.2542 33.4486 44.7069 34.1359 45.2125 34.7747C46.1737 35.9893 47.1842 37.1718 48.2284 38.3153C48.9147 39.0668 49.6481 39.7813 50.4039 40.4595C50.7688 40.787 51.1845 41.0568 51.5905 41.3322C52.128 41.6968 52.6666 42.0665 53.2345 42.3794C53.9109 42.7522 54.6221 43.0636 55.3234 43.3892C55.7676 43.5955 56.2332 43.7594 56.6707 43.9751C56.7894 44.0337 56.9624 44.1053 56.9921 44.212C57.0283 44.3422 56.9322 44.5392 56.8685 44.6857C56.8292 44.776 56.7681 44.8852 56.6831 44.9226C56.5415 44.9849 56.3458 45.0227 56.1886 44.9849C55.8267 44.898 55.4548 44.7358 55.1256 44.5486C54.9068 44.4242 54.7563 44.1902 54.5447 44.0499C54.1671 43.7996 53.7707 43.558 53.3581 43.3767C53.0991 43.263 52.8083 43.225 52.5299 43.1648C51.7329 42.9923 50.9214 42.8819 50.132 42.6786C48.6305 42.2918 47.1426 41.6848 45.6574 41.2356C44.6828 40.9409 43.714 40.6236 42.7527 40.2882C42.2966 40.1291 41.8432 39.9569 41.4054 39.7521C39.7378 38.972 38.0953 38.0549 36.4365 37.2541C33.4725 35.8234 30.4924 34.3466 27.5368 32.8986C26.1579 32.2231 24.821 31.3215 23.5119 30.5659C23.3954 30.4987 23.3519 30.3238 23.3389 30.1919C23.319 29.9913 23.4408 29.7645 23.413 29.5686C23.3954 29.4445 23.3069 29.3066 23.2029 29.232C22.9361 29.0406 22.6047 28.9176 22.3006 28.7707C21.4345 28.3524 20.5659 27.9389 19.6925 27.5365C18.753 27.1037 17.7985 26.704 16.8619 26.2649Z" stroke="white" stroke-width="1.5"/>
<defs>
<pattern id="pattern0_246_18" patternUnits="userSpaceOnUse" patternTransform="matrix(12 0 0 12 0 0)" preserveAspectRatio="none" viewBox="0 0 12 12" width="1" height="1">
<g id="pattern0_246_18_inner">
<rect y="2" width="3" height="1" fill="#D9D9D9"/>
<rect y="8" width="3" height="1" fill="#D9D9D9"/>
<rect x="6" y="2" width="3" height="1" fill="#D9D9D9"/>
<rect x="6" y="8" width="3" height="1" fill="#D9D9D9"/>
<rect x="5" y="3" width="3" height="1" transform="rotate(180 5 3)" fill="#D9D9D9"/>
<rect x="5" y="9" width="3" height="1" transform="rotate(180 5 9)" fill="#D9D9D9"/>
<rect x="11" y="3" width="3" height="1" transform="rotate(180 11 3)" fill="#D9D9D9"/>
<rect x="11" y="9" width="3" height="1" transform="rotate(180 11 9)" fill="#D9D9D9"/>
<rect x="2" width="1" height="2" fill="#D9D9D9"/>
<rect x="2" y="6" width="1" height="2" fill="#D9D9D9"/>
<rect x="8" width="1" height="2" fill="#D9D9D9"/>
<rect x="8" y="6" width="1" height="2" fill="#D9D9D9"/>
<rect x="3" y="5" width="1" height="2" transform="rotate(180 3 5)" fill="#D9D9D9"/>
<rect x="3" y="11" width="1" height="2" transform="rotate(180 3 11)" fill="#D9D9D9"/>
<rect x="9" y="5" width="1" height="2" transform="rotate(180 9 5)" fill="#D9D9D9"/>
<rect x="9" y="11" width="1" height="2" transform="rotate(180 9 11)" fill="#D9D9D9"/>
</g>
</pattern></defs>
</svg>
