<svg width="60" height="60" viewBox="0 0 60 60" fill="none" xmlns="http://www.w3.org/2000/svg" xmlns:xlink="http://www.w3.org/1999/xlink">
<rect width="60" height="60" fill="url(#pattern0_246_16)" fill-opacity="0.1"/>
<path fill-rule="evenodd" clip-rule="evenodd" d="M50.6352 45.302C48.7834 46.4796 46.9691 47.5871 45.1549 48.6824C44.7406 48.9325 44.2461 49.063 43.772 49.1433C43.2388 49.2337 42.6254 49.1713 42.0947 49.0793C41.345 48.9494 40.58 48.7502 39.9435 48.3495C39.1971 47.8795 38.017 46.5256 37.7156 45.6862C36.3625 41.9175 35.7956 39.9668 34.2584 35.9549C33.9899 35.2542 33.1204 33.7969 32.6067 33.266C32.0961 32.7384 31.3832 32.327 30.7116 32.024C29.9832 31.6953 29.2037 31.4861 28.4068 31.3709C27.7867 31.2813 27.1257 31.2672 26.5118 31.3709C25.9136 31.4721 24.464 32.2293 24.0278 32.6514C21.912 34.6985 20.5168 36.0634 18.4451 38.3109C18.093 38.6928 17.3324 39.2194 16.8445 39.3608C16.1544 39.5609 15.3945 39.6301 14.6806 39.5529C14.1311 39.4935 13.5817 39.144 13.1441 38.8103C12.5744 38.3757 12.1804 37.8795 11.8508 37.2353C11.4292 36.4113 10.9325 35.3117 10.8265 34.38C10.6081 32.4606 10.6221 30.7043 10.6857 28.7589C10.7537 26.6762 10.9145 24.5715 10.7881 22.5103C10.7438 21.7887 10.4484 21.0825 10.1735 20.4104C9.83382 19.5802 9.45716 18.7306 8.94426 18.0032C8.51818 17.399 7.96757 16.8472 7.35652 16.4155C6.23732 15.6247 4.61759 14.7508 3.52803 13.9058C2.72712 13.2847 2.97782 11.9956 3.36158 11.2938C3.59738 10.8625 3.9725 10.2322 4.34751 10.0645C4.89785 9.81843 5.39328 10.3349 5.73038 10.6279C6.50631 11.3024 7.27171 11.8246 8.1888 12.3437C9.08139 12.8489 10.0851 13.2757 11.0954 13.3937C13.4484 13.6684 15.9098 13.4021 18.317 13.3937C20.7755 13.385 23.2645 13.2859 25.7051 13.5217C29.1365 13.8545 35.8344 14.3692 39.3161 15.3399C44.2389 16.7124 48.4925 18.7407 53.132 20.8842C54.1093 21.3357 55.4776 22.2819 56.013 23.1634C56.5026 23.9694 56.9222 25.0279 56.9861 26.0187C57.0588 27.1449 56.8431 28.399 56.4227 29.4375C55.9724 30.5501 54.8705 31.3842 54.4893 32.5105C54.2155 33.3193 54.2389 34.4216 54.6173 35.1866C55.1443 36.252 55.8162 37.1129 56.4739 38.1828C56.7815 38.6832 56.8429 39.4195 56.73 39.9755C56.621 40.5122 56.4249 41.1175 55.9914 41.4964C54.3933 42.893 52.4458 44.1506 50.6352 45.302Z" stroke="white" stroke-width="1.5" stroke-linecap="round" stroke-linejoin="round"/>
<defs>
<pattern id="pattern0_246_16" patternUnits="userSpaceOnUse" patternTransform="matrix(12 0 0 12 0 0)" preserveAspectRatio="none" viewBox="0 0 12 12" width="1" height="1">
<g id="pattern0_246_16_inner">
<rect y="2" width="3" height="1" fill="#D9D9D9"/>
<rect y="8" width="3" height="1" fill="#D9D9D9"/>
<rect x="6" y="2" width="3" height="1" fill="#D9D9D9"/>
<rect x="6" y="8" width="3" height="1" fill="#D9D9D9"/>
<rect x="5" y="3" width="3" height="1" transform="rotate(180 5 3)" fill="#D9D9D9"/>
<rect x="5" y="9" width="3" height="1" transform="rotate(180 5 9)" fill="#D9D9D9"/>
<rect x="11" y="3" width="3" height="1" transform="rotate(180 11 3)" fill="#D9D9D9"/>
<rect x="11" y="9" width="3" height="1" transform="rotate(180 11 9)" fill="#D9D9D9"/>
<rect x="2" width="1" height="2" fill="#D9D9D9"/>
<rect x="2" y="6" width="1" height="2" fill="#D9D9D9"/>
<rect x="8" width="1" height="2" fill="#D9D9D9"/>
<rect x="8" y="6" width="1" height="2" fill="#D9D9D9"/>
<rect x="3" y="5" width="1" height="2" transform="rotate(180 3 5)" fill="#D9D9D9"/>
<rect x="3" y="11" width="1" height="2" transform="rotate(180 3 11)" fill="#D9D9D9"/>
<rect x="9" y="5" width="1" height="2" transform="rotate(180 9 5)" fill="#D9D9D9"/>
<rect x="9" y="11" width="1" height="2" transform="rotate(180 9 11)" fill="#D9D9D9"/>
</g>
</pattern></defs>
</svg>
