<svg width="60" height="60" viewBox="0 0 60 60" fill="none" xmlns="http://www.w3.org/2000/svg" xmlns:xlink="http://www.w3.org/1999/xlink">
<rect width="60" height="60" fill="url(#pattern0_246_15)" fill-opacity="0.1"/>
<path d="M47.2628 26.7971C47.1933 26.7891 47.1248 26.7812 47.0576 26.7734C47.1249 26.7812 47.1933 26.7891 47.2628 26.7971ZM50.1615 21.4055C50.2729 21.3662 50.3162 21.3509 50.3591 21.3344C50.3863 21.3238 50.4136 21.3127 50.4579 21.2946C50.5624 21.2519 50.7628 21.1701 51.2875 20.9637C52.7319 20.3954 54.0956 19.9556 54.8144 19.8264C55.9986 19.6134 56.8816 19.8519 57.3586 20.5135C57.6486 20.9158 57.7625 21.3764 57.7506 22.0989C57.7472 22.3038 57.7525 22.8084 57.7624 23.2202C57.7867 24.2369 57.6644 25.5134 57.4949 26.0126C57.1698 26.9703 56.6674 27.4506 55.5726 27.6769C55.5726 27.6769 55.4503 27.709 55.3882 27.7205C55.3369 27.73 55.2851 27.7379 55.233 27.7413C55.154 27.7464 55.0483 27.7459 54.9955 27.7401C53.2609 27.551 49.9721 27.1186 49.9721 27.1186C48.9269 26.9893 48.0275 26.8854 47.2628 26.7971C46.1506 26.6687 45.3224 26.573 44.7424 26.4795C44.6039 26.4571 44.4795 26.4351 44.3687 26.4138C44.3038 26.4045 44.209 26.3904 44.0964 26.3736C43.7369 26.3201 43.1948 26.2395 42.855 26.2013C42.4006 26.1502 41.232 25.9928 39.7131 25.7883C38.1875 25.5828 36.3086 25.3298 34.4453 25.0891C30.1934 24.5398 27.6274 24.1925 27.5302 24.153C27.4451 24.1184 27.3201 24.0299 27.2523 23.9562C27.0375 23.7228 27.0047 23.504 27.0185 22.4C27.0246 21.9088 27.0043 21.7583 26.9232 21.6913C26.8169 21.6036 26.5386 21.6795 26.0629 21.9261C25.2537 22.3454 25.1569 22.3892 24.2802 22.7312C24.1401 22.7859 24.0106 22.8383 23.885 22.8891C23.5844 23.0107 23.3054 23.1236 22.953 23.2386C22.5025 23.3856 21.8996 23.5414 21.5459 23.6318C18.8563 24.3196 17.6052 24.8206 16.5682 25.6252C15.3939 26.5364 14.3712 27.981 13.0888 30.54C12.1138 32.4856 11.8128 32.9284 10.8099 33.8929C10.2866 34.396 10.0758 34.6778 10.0455 34.9147C10.0199 35.1141 10.1425 35.4882 10.3617 35.8794C10.6357 36.3687 10.6849 36.5764 10.6295 37.0095C10.58 37.3966 10.4616 37.6904 10.1491 38.202C9.78406 38.7996 9.16881 39.4599 8.75939 39.6935C8.45462 39.8674 8.00886 39.9673 7.7092 39.9289C7.41588 39.8914 7.07558 39.933 6.78375 40.042C6.49548 40.1498 6.27411 40.3262 5.61667 40.9722C5.16645 41.4145 4.78435 41.6691 4.47655 41.7318C4.20933 41.7863 3.88249 41.7366 3.64112 41.6047C3.36673 41.4549 3.1932 41.2712 3.08348 41.0146C2.99609 40.8102 2.99408 40.7651 3.0536 40.3426C3.11226 39.9261 3.16187 39.7769 3.66977 38.4893C4.45691 36.4939 4.7349 36.0036 5.50684 35.2493C7.00191 33.7884 8.11151 32.5688 8.6151 31.8331C9.20654 30.969 9.41044 30.4736 9.79991 28.955C10.0553 27.9591 10.4113 26.6916 10.7942 25.4153C11.15 24.2288 11.596 23.7654 12.7769 23.3548C13.1382 23.2292 14.8962 22.7326 15.9662 22.4539C16.1661 22.4018 16.6989 22.253 17.1503 22.1231C19.4464 21.4626 20.265 21.1088 22.1197 19.9756C23.182 19.3265 23.8639 18.9365 24.6358 18.5366C24.8945 18.4026 25.1604 18.2546 25.2268 18.2077C25.3768 18.1016 25.9356 17.9617 26.3067 17.9373C26.4676 17.9267 26.7202 17.9466 26.9031 17.9842C27.4551 18.0978 27.8019 18.4233 28.3328 19.3262C29.0878 20.6105 29.2612 20.8211 29.761 21.0618C30.1526 21.2503 30.7711 21.3027 31.4282 21.2031C31.9521 21.1236 32.2231 20.9871 33.0444 20.389C33.9671 19.717 34.4594 19.5796 35.2147 19.7834C35.8395 19.9519 36.4849 20.2949 37.8236 21.1701C38.1802 21.4032 38.6381 21.685 38.8412 21.7964C39.3461 22.0733 40.1542 22.3759 40.7678 22.5177C42.097 22.825 46.5478 22.3633 46.7817 22.3389C46.9415 22.3222 47.201 22.2543 47.3293 22.2207L47.3301 22.2205C47.3653 22.2113 47.3905 22.2047 47.4008 22.2026C48.0758 22.0612 49.3466 21.6929 50.1183 21.4207L50.1615 21.4055C50.1715 21.402 50.181 21.3986 50.1899 21.3955" stroke="white" stroke-width="1.5"/>
<defs>
<pattern id="pattern0_246_15" patternUnits="userSpaceOnUse" patternTransform="matrix(12 0 0 12 0 0)" preserveAspectRatio="none" viewBox="0 0 12 12" width="1" height="1">
<g id="pattern0_246_15_inner">
<rect y="2" width="3" height="1" fill="#D9D9D9"/>
<rect y="8" width="3" height="1" fill="#D9D9D9"/>
<rect x="6" y="2" width="3" height="1" fill="#D9D9D9"/>
<rect x="6" y="8" width="3" height="1" fill="#D9D9D9"/>
<rect x="5" y="3" width="3" height="1" transform="rotate(180 5 3)" fill="#D9D9D9"/>
<rect x="5" y="9" width="3" height="1" transform="rotate(180 5 9)" fill="#D9D9D9"/>
<rect x="11" y="3" width="3" height="1" transform="rotate(180 11 3)" fill="#D9D9D9"/>
<rect x="11" y="9" width="3" height="1" transform="rotate(180 11 9)" fill="#D9D9D9"/>
<rect x="2" width="1" height="2" fill="#D9D9D9"/>
<rect x="2" y="6" width="1" height="2" fill="#D9D9D9"/>
<rect x="8" width="1" height="2" fill="#D9D9D9"/>
<rect x="8" y="6" width="1" height="2" fill="#D9D9D9"/>
<rect x="3" y="5" width="1" height="2" transform="rotate(180 3 5)" fill="#D9D9D9"/>
<rect x="3" y="11" width="1" height="2" transform="rotate(180 3 11)" fill="#D9D9D9"/>
<rect x="9" y="5" width="1" height="2" transform="rotate(180 9 5)" fill="#D9D9D9"/>
<rect x="9" y="11" width="1" height="2" transform="rotate(180 9 11)" fill="#D9D9D9"/>
</g>
</pattern></defs>
</svg>
