<svg width="60" height="60" viewBox="0 0 60 60" fill="none" xmlns="http://www.w3.org/2000/svg" xmlns:xlink="http://www.w3.org/1999/xlink">
<rect width="60" height="60" fill="url(#pattern0_176_53)" fill-opacity="0.1"/>
<path fill-rule="evenodd" clip-rule="evenodd" d="M41.6523 5.07583C41.741 2.72254 45.1245 2.1879 46.0237 4.42184C46.255 5.00891 46.3965 5.63398 46.5647 6.23291L50.3228 19.7649L55.0682 36.9478C55.6777 39.1962 56.3085 41.4377 56.9211 43.6847C57.0006 43.9761 57.0188 44.356 56.9812 44.6576C56.8925 45.3725 55.9545 46.2651 55.2606 46.3732C54.4361 46.5017 53.5011 46.4245 52.6614 46.4762C50.2572 46.5343 47.8566 46.5729 45.453 46.6645C44.0541 47.7941 42.0075 49.3101 41.3392 51.0402C41.385 51.1574 41.4364 51.2795 41.4894 51.4053C41.7835 52.1032 42.1247 52.9129 41.8048 53.6053C41.0956 55.1419 39.158 55.1366 37.5206 55.132C37.1914 55.1311 36.8743 55.1302 36.5817 55.1419C33.4404 55.2746 14.2264 55.8652 11.0834 55.94C10.7006 55.9297 10.3046 55.9489 9.90569 55.9683C8.55932 56.0337 7.18129 56.1006 6.17585 55.0391C5.31054 54.1254 5.33464 53.0066 5.35931 51.8611C5.36285 51.6967 5.3664 51.5318 5.36734 51.3668C5.38238 48.7293 7.91933 48.463 9.96535 48.2482C11.7661 48.0593 13.5589 47.7844 15.3535 47.5449L26.9094 45.9478C29.7205 45.5726 32.6408 45.2124 35.4554 44.8117C35.5225 44.7999 35.5944 44.7894 35.6689 44.7784C36.2044 44.6997 36.8722 44.6016 36.8221 43.9143C36.6983 42.2196 35.5896 38.9265 33.4823 39.0156C31.9379 39.0809 30.2267 39.5876 28.6357 40.0587C28.2346 40.1775 27.8412 40.294 27.46 40.4006C25.2655 41.0095 23.0741 41.6297 20.886 42.2612C16.7956 43.4331 12.7084 44.4659 8.5758 45.6679C6.91975 46.1496 4.40011 46.7311 4.01031 43.9945C3.97656 43.7578 4.03188 43.4186 4.08646 43.1834C5.3531 39.8949 6.69917 36.6307 8.12804 33.4088C8.54847 32.4608 8.9558 31.676 9.72424 30.9648C11.5784 29.249 13.7619 29.1186 16.0942 28.9793C16.3386 28.9647 16.5847 28.95 16.8322 28.9334C19.4192 28.7814 22.007 28.5901 24.5963 28.4842C25.4524 28.4491 26.8351 28.3926 27.2704 28.223C28.9898 27.5533 29.0426 26.2659 29.0995 24.8792C29.1566 23.4848 29.2179 21.99 30.9816 20.9215C31.8674 20.3847 32.6439 20.2361 33.6882 20.2347C34.0767 20.2342 34.8107 20.3613 35.1264 20.5043C36.0431 20.92 37.003 21.4947 37.8839 21.9887L42.971 24.8507C43.169 24.9627 43.3629 25.0882 43.5548 25.2125C44.3547 25.7302 45.1206 26.226 46.0073 25.6376C46.2609 25.2006 46.0315 24.2663 45.8841 23.6659C45.5667 22.3734 45.2683 21.0755 44.9643 19.7797L42.4648 9.19983C42.4171 8.99554 42.3535 8.74266 42.2827 8.46139C42.0072 7.3667 41.6234 5.84181 41.6523 5.07583Z" stroke="white" stroke-width="1.5"/>
<defs>
<pattern id="pattern0_176_53" patternUnits="userSpaceOnUse" patternTransform="matrix(12 0 0 12 0 0)" preserveAspectRatio="none" viewBox="0 0 12 12" width="1" height="1">
<g id="pattern0_176_53_inner">
<rect y="2" width="3" height="1" fill="#D9D9D9"/>
<rect y="8" width="3" height="1" fill="#D9D9D9"/>
<rect x="6" y="2" width="3" height="1" fill="#D9D9D9"/>
<rect x="6" y="8" width="3" height="1" fill="#D9D9D9"/>
<rect x="5" y="3" width="3" height="1" transform="rotate(180 5 3)" fill="#D9D9D9"/>
<rect x="5" y="9" width="3" height="1" transform="rotate(180 5 9)" fill="#D9D9D9"/>
<rect x="11" y="3" width="3" height="1" transform="rotate(180 11 3)" fill="#D9D9D9"/>
<rect x="11" y="9" width="3" height="1" transform="rotate(180 11 9)" fill="#D9D9D9"/>
<rect x="2" width="1" height="2" fill="#D9D9D9"/>
<rect x="2" y="6" width="1" height="2" fill="#D9D9D9"/>
<rect x="8" width="1" height="2" fill="#D9D9D9"/>
<rect x="8" y="6" width="1" height="2" fill="#D9D9D9"/>
<rect x="3" y="5" width="1" height="2" transform="rotate(180 3 5)" fill="#D9D9D9"/>
<rect x="3" y="11" width="1" height="2" transform="rotate(180 3 11)" fill="#D9D9D9"/>
<rect x="9" y="5" width="1" height="2" transform="rotate(180 9 5)" fill="#D9D9D9"/>
<rect x="9" y="11" width="1" height="2" transform="rotate(180 9 11)" fill="#D9D9D9"/>
</g>
</pattern></defs>
</svg>
