<svg width="60" height="60" viewBox="0 0 60 60" fill="none" xmlns="http://www.w3.org/2000/svg" xmlns:xlink="http://www.w3.org/1999/xlink">
<rect width="60" height="60" fill="url(#pattern0_2021_451)" fill-opacity="0.1"/>
<path fill-rule="evenodd" clip-rule="evenodd" d="M41.7836 4.19333C41.8773 1.70683 45.4523 1.14193 46.4023 3.50232C46.6468 4.12262 46.7963 4.78307 46.974 5.4159L50.9448 19.7138L55.9588 37.8694C56.6029 40.245 57.2693 42.6134 57.9166 44.9876C58.0006 45.2956 58.0199 45.6969 57.9801 46.0156C57.8865 46.7709 56.8953 47.7141 56.1621 47.8283C55.291 47.964 54.303 47.8825 53.4158 47.9371C50.8755 47.9985 48.339 48.0393 45.7994 48.1361C44.3213 49.3296 42.1589 50.9314 41.4527 52.7595C41.5011 52.8833 41.5555 53.0123 41.6115 53.1452C41.9222 53.8826 42.2827 54.7381 41.9447 55.4697C41.1953 57.0934 39.148 57.0877 37.418 57.0829C37.0701 57.0819 36.7351 57.081 36.426 57.0933C33.1069 57.2335 12.8052 57.8575 9.4844 57.9366C9.07993 57.9257 8.66142 57.946 8.23998 57.9665C6.8174 58.0356 5.36137 58.1062 4.29901 56.9847C3.38472 56.0193 3.41018 54.8372 3.43625 53.6269C3.43999 53.4532 3.44375 53.2789 3.44474 53.1046C3.46063 50.3177 6.14118 50.0364 8.30302 49.8095C10.2057 49.6098 12.1 49.3194 13.9961 49.0663L26.2062 47.3788C29.1763 46.9824 32.262 46.6017 35.2359 46.1784C35.3068 46.166 35.3828 46.1548 35.4615 46.1432C36.0273 46.0601 36.7329 45.9564 36.68 45.2302C36.5491 43.4396 35.3777 39.9601 33.1511 40.0543C31.5193 40.1232 29.7112 40.6586 28.0302 41.1564C27.6064 41.2818 27.1907 41.4049 26.7879 41.5176C24.4692 42.161 22.1538 42.8163 19.8418 43.4835C15.5199 44.7218 11.2013 45.8131 6.83481 47.0831C5.08502 47.592 2.42276 48.2064 2.0109 45.315C1.97523 45.0648 2.03368 44.7065 2.09135 44.4579C3.42969 40.9833 4.85196 37.5343 6.3617 34.13C6.80593 33.1284 7.23632 32.2992 8.04826 31.5477C10.0074 29.7348 12.3145 29.597 14.7788 29.4498C15.037 29.4344 15.297 29.4189 15.5585 29.4013C18.292 29.2408 21.0262 29.0386 23.7621 28.9267C24.6667 28.8896 26.1277 28.8299 26.5876 28.6507C28.4043 27.9431 28.4601 26.5829 28.5202 25.1176C28.5806 23.6443 28.6454 22.0649 30.5088 20.936C31.4448 20.3688 32.2653 20.2117 33.3686 20.2103C33.7792 20.2097 34.5547 20.344 34.8882 20.4951C35.8569 20.9344 36.8711 21.5415 37.8019 22.0636L43.1769 25.0875C43.3861 25.2059 43.591 25.3385 43.7938 25.4698C44.6389 26.0168 45.4482 26.5406 46.3851 25.9189C46.653 25.4572 46.4107 24.47 46.2549 23.8357C45.9196 22.47 45.6042 21.0986 45.283 19.7295L42.642 8.55077C42.5917 8.33491 42.5244 8.06772 42.4496 7.77052C42.1585 6.61387 41.753 5.00266 41.7836 4.19333ZM43.5985 3.54635C43.8365 3.15905 44.8603 3.5934 44.9738 3.93272C45.7802 6.34941 46.4223 8.87426 47.1106 11.3411L53.8918 35.8164L55.6585 42.284C55.9414 43.3088 56.2313 44.3313 56.52 45.3542C56.6809 45.9256 56.2827 46.1569 55.872 46.4165C53.5935 46.3954 51.1982 46.5884 48.91 46.6073C48.6082 46.6458 48.1318 46.6389 47.6129 46.6315C46.6756 46.6181 45.6 46.6027 45.1656 46.8485C44.4855 47.2337 43.139 48.5247 42.2979 49.3311C42.1189 49.5027 41.9627 49.6525 41.8408 49.7668C41.2904 50.425 40.6693 51.0049 40.2748 51.76C39.8649 52.8232 40.0388 53.2277 40.3256 53.8949C40.4338 54.1466 40.5581 54.4356 40.6732 54.8115C40.4968 55.012 40.2966 55.2542 40.0939 55.4214C39.4877 55.5501 38.5547 55.5686 37.7832 55.5839C36.1364 55.6166 34.49 55.689 32.8438 55.7444L24.8207 56.0306L11.8038 56.3721C10.4064 56.5723 8.67336 56.4293 7.29758 56.5254C5.42691 56.6559 4.74855 55.6586 4.89453 53.9234C4.90295 53.8233 4.90543 53.7 4.90816 53.564C4.91999 52.976 4.93659 52.1504 5.45916 51.9348C6.76099 51.3981 8.33357 51.2289 9.83208 51.0676C10.3512 51.0117 10.8615 50.9568 11.3485 50.8879L27.0485 48.7425L31.965 48.0967C32.2059 48.0665 32.486 48.0365 32.7908 48.0039C34.2412 47.8487 36.2542 47.6332 37.3048 47.0431C37.9315 46.6914 38.2483 45.5164 38.1246 44.7619C37.8135 42.8654 37.0077 40.6551 35.5073 39.3589C33.882 38.0198 31.4772 38.6934 29.6241 39.2125C28.0701 39.6478 26.5159 40.0826 24.9618 40.5179C20.0466 41.9199 15.1227 43.2919 10.1908 44.6337L7.10132 45.4917C6.3496 45.7052 5.54833 45.9961 4.77025 46.0775C4.42591 46.1135 4.03292 46.0892 3.76254 45.8464C3.58968 45.6912 3.45932 45.4184 3.45307 45.187C3.43409 44.4733 7.35825 35.3529 8.0076 34.071C8.22858 33.6347 8.48617 33.2 8.82049 32.8411C9.58366 32.0218 10.6816 31.5032 11.7528 31.2291C12.7647 30.9703 13.8627 30.9302 14.938 30.891C15.3528 30.8758 15.7643 30.8608 16.1661 30.8334C19.3036 30.5897 22.4457 30.4067 25.5903 30.2847C26.6765 30.2429 27.4833 30.0038 28.3506 29.3443C29.8089 28.2354 29.8667 26.8741 29.9231 25.5471C29.9677 24.4965 30.0114 23.4674 30.7486 22.6023C31.4049 21.8326 32.8586 21.4916 33.8368 21.7297C34.7991 21.9641 35.7704 22.5942 36.655 23.091L41.6284 25.8965C42.5586 26.4267 43.4521 26.955 44.4118 27.4449C45.8538 28.2092 48.1093 27.2198 47.9823 25.4398C47.8954 24.2159 47.5688 22.9373 47.2541 21.7054C46.1957 17.5615 45.2784 13.3785 44.2983 9.21544C44.2392 8.96027 44.1506 8.63873 44.051 8.27726C43.6294 6.74729 43.0106 4.50198 43.5985 3.54635Z" fill="white"/>
<defs>
<pattern id="pattern0_2021_451" patternUnits="userSpaceOnUse" patternTransform="matrix(12 0 0 12 0 0)" preserveAspectRatio="none" viewBox="0 0 12 12" width="1" height="1">
<g id="pattern0_2021_451_inner">
<rect y="2" width="3" height="1" fill="#D9D9D9"/>
<rect y="8" width="3" height="1" fill="#D9D9D9"/>
<rect x="6" y="2" width="3" height="1" fill="#D9D9D9"/>
<rect x="6" y="8" width="3" height="1" fill="#D9D9D9"/>
<rect x="5" y="3" width="3" height="1" transform="rotate(180 5 3)" fill="#D9D9D9"/>
<rect x="5" y="9" width="3" height="1" transform="rotate(180 5 9)" fill="#D9D9D9"/>
<rect x="11" y="3" width="3" height="1" transform="rotate(180 11 3)" fill="#D9D9D9"/>
<rect x="11" y="9" width="3" height="1" transform="rotate(180 11 9)" fill="#D9D9D9"/>
<rect x="2" width="1" height="2" fill="#D9D9D9"/>
<rect x="2" y="6" width="1" height="2" fill="#D9D9D9"/>
<rect x="8" width="1" height="2" fill="#D9D9D9"/>
<rect x="8" y="6" width="1" height="2" fill="#D9D9D9"/>
<rect x="3" y="5" width="1" height="2" transform="rotate(180 3 5)" fill="#D9D9D9"/>
<rect x="3" y="11" width="1" height="2" transform="rotate(180 3 11)" fill="#D9D9D9"/>
<rect x="9" y="5" width="1" height="2" transform="rotate(180 9 5)" fill="#D9D9D9"/>
<rect x="9" y="11" width="1" height="2" transform="rotate(180 9 11)" fill="#D9D9D9"/>
</g>
</pattern></defs>
</svg>
