<svg width="60" height="60" viewBox="0 0 60 60" fill="none" xmlns="http://www.w3.org/2000/svg" xmlns:xlink="http://www.w3.org/1999/xlink">
<rect width="60" height="60" fill="url(#pattern0_136_566)" fill-opacity="0.1"/>
<path d="M8.46839 24.8563C8.99515 24.7649 9.48172 24.6802 9.89137 24.5681C10.3068 24.4543 10.6054 24.322 10.78 24.1573C11.0257 23.9254 11.1292 23.5003 11.1851 22.9536C11.2012 22.796 11.2121 22.6433 11.2231 22.4893C11.2311 22.3774 11.2391 22.2648 11.2492 22.1492C11.2722 21.8872 11.3042 21.6236 11.3699 21.3965C11.7367 20.1286 13.0101 19.2695 14.2982 19.308C14.721 19.3208 15.1433 19.4103 15.5349 19.4933C15.61 19.5092 15.684 19.5249 15.7566 19.5397C16.7642 19.7455 17.7755 19.9449 18.7878 20.1445C20.6196 20.5057 22.4547 20.8675 24.2773 21.2691C24.9578 21.4191 25.7553 21.5932 26.2452 21.5986C26.4607 21.6009 26.7041 21.4828 26.9864 21.2471C27.2649 21.0145 27.5428 20.7011 27.831 20.3757L27.8344 20.3718C28.0411 20.1384 28.2533 19.8988 28.4639 19.6968C28.6739 19.4954 28.9002 19.3137 29.1381 19.2122C29.7112 18.9678 30.3243 18.9626 30.9154 19.0561C31.5021 19.149 32.0897 19.3432 32.6177 19.5176C32.6197 19.5183 32.6217 19.519 32.6237 19.5196C33.4295 19.7859 34.2414 20.0303 35.0566 20.2757C35.3898 20.376 35.7236 20.4765 36.0577 20.5787C36.4005 20.6829 36.7429 20.7875 37.085 20.8921C37.8296 21.1196 38.5733 21.3469 39.3192 21.5689C39.3285 21.5716 39.3377 21.5744 39.3469 21.5771C39.8861 21.7376 40.4229 21.8973 40.9797 22.1176C41.501 22.3239 41.8287 22.6114 42.0714 22.966C42.2673 23.2524 42.4076 23.5854 42.5517 23.9273C42.5784 23.9906 42.6052 24.0543 42.6325 24.118C42.7364 24.3545 42.8344 24.6132 42.9313 24.8735C42.9467 24.915 42.9621 24.9565 42.9775 24.998C43.0597 25.2196 43.1424 25.4424 43.231 25.6607C43.443 26.1827 43.6785 26.6537 43.9846 26.9889C44.2022 27.227 44.61 27.4491 45.0801 27.6132C45.5451 27.7755 46.0316 27.8674 46.3748 27.8708C47.2547 27.8794 48.1569 27.791 49.0757 27.701C49.1593 27.6928 49.2431 27.6846 49.3271 27.6764C50.3268 27.5793 51.3447 27.4903 52.3377 27.5423C52.8119 27.5673 53.3594 27.7316 53.8584 27.9646C54.2949 28.1686 54.7132 28.4344 55.0267 28.7279L55.155 28.8552L55.1578 28.8581C56.2561 30.0702 56.5099 31.4698 56.4544 32.9939L56.4535 32.9949C56.4457 33.1768 56.4396 33.3637 56.4333 33.5537C56.4156 34.0911 56.3971 34.6544 56.3395 35.205C56.2612 35.9541 56.1088 36.7058 55.7774 37.3874C54.9247 39.1408 53.3919 39.4758 51.767 39.8309C51.7549 39.8335 51.7427 39.8362 51.7306 39.8388C50.7342 40.0567 49.7428 40.2599 48.7532 40.4628C47.5223 40.7152 46.2942 40.967 45.0629 41.2455M32.6237 19.5196L32.6177 19.5176M39.3192 21.5689L39.3469 21.5771M51.7306 39.8388L51.767 39.8309M45.0629 41.2455L45.0477 41.249M40.635 39.2815C40.6387 39.2908 40.6425 39.3001 40.6463 39.3094C40.8586 39.8295 41.0924 40.4027 41.4776 40.8146C41.9689 41.3398 42.5928 41.5078 43.2214 41.5156C43.8358 41.5231 44.4811 41.3771 45.0477 41.249C45.0528 41.2478 45.0578 41.2467 45.0629 41.2455M40.6463 39.3094L40.635 39.2815C40.4381 38.7991 40.256 38.3587 39.9953 38.0261C39.7468 37.7092 39.4313 37.4972 38.9534 37.464C38.4496 37.4548 37.6321 37.5531 36.9798 37.6325C36.3461 37.7097 35.7134 37.7831 35.0814 37.8564C33.8118 38.0038 32.5453 38.1508 31.2802 38.3268C31.2751 38.3275 31.27 38.3282 31.2649 38.3289M31.2802 38.3268L31.2649 38.3289M31.3654 31.7031C32.2802 31.7401 33.1976 31.7548 34.1113 31.7694C34.4758 31.7753 34.8396 31.7811 35.2025 31.7883L46.0684 32.0536C46.3726 32.065 46.6788 32.0703 46.9854 32.0756C47.7438 32.0888 48.5044 32.102 49.2428 32.2078C50.2648 32.3542 51.2 32.6755 51.9451 33.399C52.2832 33.7566 52.5431 34.3502 52.4871 34.8182C52.4115 35.4457 52.1914 35.8398 51.903 36.0879C51.6109 36.3392 51.2195 36.4658 50.7577 36.5016C49.8221 36.574 48.6974 36.2675 47.7987 36.0199C46.4586 35.6508 45.1066 35.3139 43.7538 34.9867L39.7042 34.0099L37.5601 33.4747C37.462 33.45 37.3615 33.4236 37.2591 33.3967C36.898 33.3017 36.514 33.2007 36.1324 33.1519C35.1741 33.0297 34.4731 33.3931 33.8665 33.7076C33.8618 33.7101 33.857 33.7126 33.8523 33.715C33.3687 33.9657 32.9608 34.1728 32.4877 34.1842C32.2362 34.1902 31.9583 34.1306 31.6715 34.0691C31.6509 34.0647 31.6303 34.0603 31.6096 34.0559C31.1324 33.954 30.6615 33.8067 30.1772 33.6552C30.0173 33.6052 29.856 33.5547 29.6925 33.5053C29.0426 33.3087 28.3674 33.1325 27.671 33.1002C26.7842 33.0593 25.7581 33.2924 25.0587 33.9362C24.4836 34.4655 24.2261 35.1655 24.194 35.9069C24.1631 36.6243 24.4541 37.2607 24.917 37.7628C25.2517 38.1256 25.7273 38.4883 26.2548 38.6112C26.8317 38.7454 27.7033 38.725 28.6028 38.6495C29.506 38.5737 30.4729 38.4391 31.2649 38.3289M33.8523 33.715L33.8665 33.7076M31.3654 31.7031L31.2895 31.7M8.45626 24.8584C7.81458 24.9697 7.1184 25.0905 6.47946 25.2834C5.83762 25.4772 5.22761 25.7508 4.77686 26.1826C4.24271 26.6943 4.01015 27.3944 4.00025 28.0939C3.99232 28.6574 4.17339 29.1971 4.5863 29.6146C5.14778 30.1821 5.93362 30.385 6.64321 30.4573C7.23737 30.5177 7.87295 30.4897 8.47374 30.4632C8.69466 30.4535 8.91087 30.4439 9.11859 30.4391C9.55205 30.429 9.98519 30.4158 10.4179 30.4026C11.9385 30.3562 13.4534 30.3101 14.9561 30.3989C16.2545 30.4755 17.56 30.568 18.8391 30.7445C19.4412 30.8277 20.0516 30.9268 20.6655 31.0266C21.5958 31.1778 22.5343 31.3302 23.4643 31.4302C24.0418 31.4922 24.6313 31.5159 25.2074 31.5391C25.3776 31.5459 25.5465 31.5527 25.7137 31.5604C26.9951 31.6296 28.2781 31.669 29.5613 31.6801L29.5776 31.6811L29.5929 31.6792C29.7314 31.6626 30.0102 31.6604 30.3485 31.6677C30.654 31.6742 30.9928 31.688 31.2895 31.7C31.3151 31.7011 31.3405 31.7021 31.3654 31.7031M8.46839 24.8563L8.45626 24.8584M8.46839 24.8563C8.46435 24.857 8.46031 24.8577 8.45626 24.8584" stroke="white" stroke-width="1.5"/>
<defs>
<pattern id="pattern0_136_566" patternUnits="userSpaceOnUse" patternTransform="matrix(12 0 0 12 0 0)" preserveAspectRatio="none" viewBox="0 0 12 12" width="1" height="1">
<g id="pattern0_136_566_inner">
<rect y="2" width="3" height="1" fill="#D9D9D9"/>
<rect y="8" width="3" height="1" fill="#D9D9D9"/>
<rect x="6" y="2" width="3" height="1" fill="#D9D9D9"/>
<rect x="6" y="8" width="3" height="1" fill="#D9D9D9"/>
<rect x="5" y="3" width="3" height="1" transform="rotate(180 5 3)" fill="#D9D9D9"/>
<rect x="5" y="9" width="3" height="1" transform="rotate(180 5 9)" fill="#D9D9D9"/>
<rect x="11" y="3" width="3" height="1" transform="rotate(180 11 3)" fill="#D9D9D9"/>
<rect x="11" y="9" width="3" height="1" transform="rotate(180 11 9)" fill="#D9D9D9"/>
<rect x="2" width="1" height="2" fill="#D9D9D9"/>
<rect x="2" y="6" width="1" height="2" fill="#D9D9D9"/>
<rect x="8" width="1" height="2" fill="#D9D9D9"/>
<rect x="8" y="6" width="1" height="2" fill="#D9D9D9"/>
<rect x="3" y="5" width="1" height="2" transform="rotate(180 3 5)" fill="#D9D9D9"/>
<rect x="3" y="11" width="1" height="2" transform="rotate(180 3 11)" fill="#D9D9D9"/>
<rect x="9" y="5" width="1" height="2" transform="rotate(180 9 5)" fill="#D9D9D9"/>
<rect x="9" y="11" width="1" height="2" transform="rotate(180 9 11)" fill="#D9D9D9"/>
</g>
</pattern></defs>
</svg>
