<svg width="60" height="60" viewBox="0 0 60 60" fill="none" xmlns="http://www.w3.org/2000/svg" xmlns:xlink="http://www.w3.org/1999/xlink">
<rect width="60" height="60" fill="url(#pattern0_136_566)" fill-opacity="0.1"/>
<path fill-rule="evenodd" clip-rule="evenodd" d="M30.198 18.5763C29.5952 18.481 28.97 18.4862 28.3855 18.7355C28.1429 18.8389 27.9121 19.0242 27.698 19.2296C27.4832 19.4357 27.2668 19.68 27.056 19.918L27.0525 19.922C26.7586 20.2538 26.4753 20.5734 26.1912 20.8107C25.9033 21.051 25.655 21.1714 25.4353 21.1691C24.9357 21.1636 24.1225 20.9861 23.4285 20.8331C21.5697 20.4235 19.6983 20.0545 17.8302 19.6862C16.7979 19.4827 15.7665 19.2793 14.739 19.0695C14.6649 19.0543 14.5895 19.0383 14.5129 19.0221C14.1135 18.9374 13.6828 18.8461 13.2517 18.8331C11.9381 18.7939 10.6394 19.67 10.2654 20.963C10.1984 21.1946 10.1657 21.4634 10.1423 21.7306C10.132 21.8485 10.1238 21.9633 10.1157 22.0774C10.1044 22.2345 10.0933 22.3903 10.0769 22.5509C10.0199 23.1085 9.91437 23.542 9.66381 23.7784C9.48571 23.9464 9.18121 24.0814 8.75756 24.1974C8.33979 24.3117 7.84359 24.3981 7.30639 24.4913L7.29403 24.4935C6.63963 24.607 5.92966 24.7302 5.27807 24.9269C4.62351 25.1245 4.00142 25.4036 3.54174 25.8439C2.99701 26.3657 2.75985 27.0797 2.74975 27.7931C2.74166 28.3677 2.92632 28.9181 3.34741 29.3439C3.92001 29.9227 4.72142 30.1296 5.44506 30.2032C6.05099 30.2649 6.69916 30.2363 7.31185 30.2093C7.53714 30.1994 7.75764 30.1896 7.96948 30.1847C8.41152 30.1744 8.85324 30.1609 9.29448 30.1475C10.8452 30.1002 12.3901 30.0532 13.9226 30.1437C15.2467 30.2219 16.5781 30.3162 17.8826 30.4962C18.4965 30.581 19.119 30.6821 19.7451 30.7839C20.6939 30.938 21.6509 31.0935 22.5994 31.1954C23.1882 31.2587 23.7894 31.2829 24.377 31.3065C24.5505 31.3135 24.7228 31.3204 24.8933 31.3282C26.2001 31.3988 27.5085 31.4389 28.8171 31.4503L28.8337 31.4513L28.8494 31.4493C28.9906 31.4324 29.2748 31.4302 29.6199 31.4376C29.9315 31.4443 30.277 31.4583 30.5795 31.4706L30.657 31.4738C31.5898 31.5115 32.5254 31.5265 33.4572 31.5414C33.8289 31.5474 34.2 31.5533 34.5701 31.5607L45.6511 31.8312C45.9614 31.8428 46.2737 31.8482 46.5863 31.8537C47.3598 31.8671 48.1354 31.8805 48.8884 31.9884C49.9307 32.1378 50.8844 32.4654 51.6443 33.2032C51.989 33.5679 52.2541 34.1733 52.197 34.6505C52.1199 35.2905 51.8955 35.6924 51.6013 35.9454C51.3034 36.2017 50.9043 36.3308 50.4333 36.3673C49.4792 36.4411 48.3322 36.1286 47.4158 35.8761C46.0491 35.4996 44.6703 35.156 43.2908 34.8224L39.1609 33.8263L36.9744 33.2804C36.8743 33.2553 36.7718 33.2283 36.6674 33.2009C36.2991 33.104 35.9076 33.001 35.5183 32.9513C34.5411 32.8266 33.8262 33.1973 33.2076 33.518L33.1931 33.5255C32.7 33.7812 32.2839 33.9923 31.8015 34.004C31.545 34.0102 31.2615 33.9494 30.9691 33.8867C30.9481 33.8822 30.9271 33.8777 30.906 33.8732C30.4193 33.7693 29.9391 33.6191 29.4452 33.4645C29.2822 33.4135 29.1177 33.3621 28.9509 33.3116C28.2881 33.1112 27.5996 32.9315 26.8894 32.8986C25.985 32.8568 24.9386 33.0946 24.2253 33.7511C23.6388 34.2909 23.3762 35.0047 23.3435 35.7609C23.312 36.4924 23.6087 37.1414 24.0808 37.6534C24.4221 38.0235 24.9072 38.3934 25.4451 38.5187C26.0335 38.6556 26.9223 38.6347 27.8396 38.5577C28.7607 38.4804 29.7467 38.3432 30.5544 38.2308L30.5701 38.2286C31.8602 38.0491 33.1518 37.8992 34.4466 37.749C35.091 37.6742 35.7363 37.5993 36.3826 37.5206C37.0477 37.4397 37.8815 37.3393 38.3953 37.3488C38.8826 37.3826 39.2043 37.5988 39.4578 37.922C39.7236 38.2612 39.9093 38.7103 40.1101 39.2023L40.1217 39.2307C40.3381 39.7612 40.5766 40.3456 40.9695 40.7657C41.4704 41.3013 42.1068 41.4727 42.7478 41.4806C43.3744 41.4882 44.0324 41.3394 44.6103 41.2087L44.6257 41.2052C45.8815 40.9212 47.1339 40.6644 48.3892 40.407C49.3983 40.2001 50.4094 39.9928 51.4255 39.7706L51.4626 39.7625C53.1197 39.4004 54.6828 39.0588 55.5525 37.2706C55.8905 36.5755 56.0458 35.809 56.1257 35.045C56.1844 34.4835 56.2033 33.9091 56.2214 33.361C56.2278 33.1672 56.2341 32.9767 56.2419 32.7911L56.2429 32.7902C56.2995 31.2359 56.0407 29.8085 54.9207 28.5724L54.9177 28.5695L54.7869 28.4396C54.4672 28.1403 54.0406 27.8692 53.5955 27.6613C53.0865 27.4236 52.5283 27.256 52.0447 27.2306C51.0319 27.1776 49.9939 27.2683 48.9744 27.3673C48.8888 27.3756 48.8033 27.384 48.718 27.3924C47.7811 27.4842 46.8609 27.5744 45.9636 27.5656C45.6137 27.5621 45.1175 27.4683 44.6433 27.3029C44.1639 27.1355 43.748 26.909 43.5261 26.6661C43.2139 26.3243 42.9738 25.844 42.7576 25.3116C42.6672 25.089 42.5829 24.8619 42.4991 24.6359C42.4833 24.5935 42.4676 24.5512 42.4519 24.5089C42.3531 24.2435 42.2532 23.9796 42.1472 23.7384C42.1193 23.6734 42.092 23.6085 42.0648 23.5439C41.9178 23.1952 41.7748 22.8557 41.5749 22.5636C41.3275 22.202 40.9933 21.9088 40.4617 21.6984C39.8938 21.4737 39.3464 21.3108 38.7965 21.1472L38.7683 21.1388C38.0076 20.9124 37.2492 20.6807 36.4898 20.4486C36.1409 20.342 35.7918 20.2353 35.4421 20.129C35.1014 20.0248 34.761 19.9223 34.4212 19.82C33.5899 19.5698 32.7619 19.3205 31.9402 19.049L31.9341 19.0469C31.3955 18.869 30.7963 18.671 30.198 18.5763ZM29.0437 19.8673C29.1469 19.8027 29.3118 19.765 29.5417 19.7667C29.767 19.7685 30.0275 19.8075 30.2986 19.8673C30.7121 19.9585 31.122 20.0913 31.4458 20.1962C31.5498 20.2299 31.6448 20.2606 31.7283 20.2863C32.097 20.3994 32.4657 20.5127 32.8346 20.626C34.709 21.2019 36.5851 21.7783 38.4656 22.338C39.0203 22.5031 39.5728 22.6684 40.0915 22.8732C40.3718 22.9838 40.5634 23.2079 40.7224 23.5099C40.8018 23.6609 40.8704 23.826 40.9373 23.9982C40.9572 24.0496 40.9774 24.1028 40.9978 24.1565C41.0439 24.2778 41.0911 24.4021 41.1394 24.5167C41.2313 24.7324 41.3209 24.9666 41.4148 25.212C41.5081 25.456 41.6061 25.7112 41.7117 25.962C41.9218 26.4614 42.1719 26.9653 42.5095 27.3634C42.8835 27.8042 43.4197 28.1366 43.9802 28.3712C44.5427 28.6066 45.1477 28.7512 45.6775 28.8058C46.2177 28.8614 46.9245 28.8073 47.4747 28.7652C47.5296 28.761 47.583 28.7569 47.6345 28.7531H47.6365L50.2312 28.5363C51.7375 28.4076 53.1415 28.3818 54.1423 29.5353C54.7877 30.2793 54.9902 31.1813 55.0164 32.1603C55.0294 32.6503 54.9984 33.1533 54.9587 33.6603C54.9501 33.7702 54.9411 33.8805 54.9321 33.991C54.8998 34.3858 54.8673 34.7821 54.8542 35.1642C54.8243 35.9694 54.4161 36.9425 53.8201 37.4738C53.5239 37.7216 53.1129 37.9092 52.6511 38.0587C52.193 38.2071 51.7054 38.3115 51.2634 38.4062L51.2537 38.4083C50.2353 38.6265 49.2168 38.8444 48.198 39.0597L45.1394 39.7003C44.9795 39.7329 44.8184 39.7677 44.6568 39.8027C43.9321 39.9595 43.1989 40.1181 42.53 40.0802C42.2959 40.0668 42.0965 39.9181 41.9148 39.6622C41.7332 39.4064 41.6002 39.0865 41.488 38.8107L41.4821 38.796C41.2396 38.1999 40.9726 37.5432 40.5691 37.0187C40.1531 36.478 39.5847 36.0691 38.7517 35.9825C38.1393 35.9195 37.1242 36.044 36.3984 36.1331L36.3835 36.1349C35.6826 36.2209 34.979 36.3023 34.2744 36.3837C32.9036 36.5423 31.529 36.7013 30.1619 36.8956C28.7047 37.1028 27.1567 37.3212 25.8874 37.1769C25.4029 37.1214 24.9818 36.6783 24.822 36.1046C24.6649 35.5396 24.7885 34.9431 25.2761 34.6036C26.0328 34.0771 26.8567 34.0789 27.7419 34.2755C28.1667 34.3699 28.5955 34.5066 29.0321 34.6459L29.0925 34.6652C29.4318 34.7733 29.7768 34.8828 30.1189 34.9679L30.4607 35.0441C31.276 35.2459 31.8531 35.285 32.364 35.2013C32.8669 35.1188 33.2874 34.9194 33.7757 34.6879L33.7927 34.6798C34.1 34.5341 34.4419 34.372 34.865 34.2042C34.9033 34.189 34.9894 34.1758 35.1335 34.1818C35.2703 34.1874 35.4337 34.2086 35.6091 34.2394C35.9598 34.301 36.3355 34.3967 36.6062 34.4659C38.9139 35.0567 41.229 35.6238 43.5424 36.1906C44.5829 36.4455 45.623 36.7003 46.6619 36.9572H46.6638C46.9202 37.0188 47.1779 37.0859 47.4375 37.1535C48.2823 37.3735 49.1465 37.5985 50.0457 37.6564C51.5035 37.7501 52.6528 37.0423 53.2156 36.0031C53.7778 34.9644 53.7435 33.6147 52.8865 32.4542L52.8855 32.4532C51.9917 31.2547 50.5844 30.7642 49.1248 30.5616C48.03 30.4097 46.8666 30.4159 45.8265 30.4214C45.4842 30.4233 45.1552 30.425 44.8464 30.421C42.6427 30.3925 40.4421 30.3313 38.2395 30.27C36.7912 30.2297 35.342 30.1894 33.8904 30.1583L30.8972 30.1007C30.3543 30.0954 26.9846 30.0273 26.2546 30.0001C24.7886 29.9455 23.2799 29.864 22.9607 29.8263C21.5746 29.6625 19.4995 29.3589 18.0818 29.1241L18.0496 29.1193L18.0173 29.1222C17.9954 29.1242 17.927 29.1207 17.8191 29.1085C17.7314 29.0986 17.636 29.0849 17.5531 29.0729C17.5426 29.0714 17.5323 29.0699 17.5222 29.0685C17.0312 28.9981 16.5377 28.9603 16.0535 28.9249C16.0192 28.9224 15.9849 28.9199 15.9508 28.9174C15.4994 28.8846 15.0556 28.8523 14.615 28.796L14.6042 28.7941H14.5925C14.4064 28.7871 14.208 28.7769 14.0051 28.7666C13.595 28.7457 13.1667 28.7239 12.7849 28.7247C11.2924 28.7281 9.79812 28.7685 8.30803 28.8089C7.81215 28.8223 7.31674 28.8357 6.82202 28.8478C6.28185 28.8609 5.58108 28.8757 5.02221 28.715C4.7464 28.6356 4.52798 28.5187 4.38159 28.3585C4.24103 28.2045 4.14822 27.99 4.15698 27.672C4.1749 27.0268 4.5404 26.6457 5.08081 26.381C5.5568 26.1478 6.13091 26.0235 6.66468 25.9078C6.75597 25.888 6.84608 25.8685 6.93432 25.8488H6.93725C7.22385 25.7815 7.53571 25.7274 7.86498 25.671C8.1914 25.6151 8.53468 25.5561 8.87084 25.4786C9.5401 25.3244 10.2176 25.09 10.7361 24.6212C11.0485 24.3386 11.2188 23.8764 11.322 23.4484C11.4276 23.0099 11.4746 22.5511 11.5066 22.2316L11.5076 22.2238C11.5386 21.767 11.5628 21.4398 11.6648 21.1564C11.7612 20.8886 11.9333 20.6468 12.2917 20.3907C12.9002 19.9562 13.5082 20.076 14.281 20.2423C16.1862 20.6522 18.0998 21.0323 20.0109 21.4119C20.8857 21.5857 21.7599 21.7593 22.6326 21.9357C22.8197 21.9738 23.0182 22.0172 23.2238 22.0622C23.9726 22.2262 24.8148 22.4106 25.5427 22.4298C26.3806 22.4517 27.0246 21.9074 27.5554 21.3517C27.6906 21.2101 27.8224 21.064 27.9499 20.921C27.9705 20.898 27.9909 20.875 28.0113 20.8522C28.118 20.7323 28.222 20.6156 28.3259 20.504C28.5749 20.2367 28.809 20.0144 29.0437 19.8673Z" fill="white"/>
<defs>
<pattern id="pattern0_136_566" patternUnits="userSpaceOnUse" patternTransform="matrix(12 0 0 12 0 0)" preserveAspectRatio="none" viewBox="0 0 12 12" width="1" height="1">
<g id="pattern0_136_566_inner">
<rect y="2" width="3" height="1" fill="#D9D9D9"/>
<rect y="8" width="3" height="1" fill="#D9D9D9"/>
<rect x="6" y="2" width="3" height="1" fill="#D9D9D9"/>
<rect x="6" y="8" width="3" height="1" fill="#D9D9D9"/>
<rect x="5" y="3" width="3" height="1" transform="rotate(180 5 3)" fill="#D9D9D9"/>
<rect x="5" y="9" width="3" height="1" transform="rotate(180 5 9)" fill="#D9D9D9"/>
<rect x="11" y="3" width="3" height="1" transform="rotate(180 11 3)" fill="#D9D9D9"/>
<rect x="11" y="9" width="3" height="1" transform="rotate(180 11 9)" fill="#D9D9D9"/>
<rect x="2" width="1" height="2" fill="#D9D9D9"/>
<rect x="2" y="6" width="1" height="2" fill="#D9D9D9"/>
<rect x="8" width="1" height="2" fill="#D9D9D9"/>
<rect x="8" y="6" width="1" height="2" fill="#D9D9D9"/>
<rect x="3" y="5" width="1" height="2" transform="rotate(180 3 5)" fill="#D9D9D9"/>
<rect x="3" y="11" width="1" height="2" transform="rotate(180 3 11)" fill="#D9D9D9"/>
<rect x="9" y="5" width="1" height="2" transform="rotate(180 9 5)" fill="#D9D9D9"/>
<rect x="9" y="11" width="1" height="2" transform="rotate(180 9 11)" fill="#D9D9D9"/>
</g>
</pattern></defs>
</svg>
