<svg width="60" height="60" viewBox="0 0 60 60" fill="none" xmlns="http://www.w3.org/2000/svg" xmlns:xlink="http://www.w3.org/1999/xlink">
<rect width="60" height="60" fill="url(#pattern0_246_14)" fill-opacity="0.1"/>
<path d="M56.8085 38.3385L56.8087 38.3388C56.8738 38.4185 56.9394 38.498 57.0109 38.5721C57.1712 42.0871 57.026 45.634 57.0254 49.1491C57.0251 49.6934 57.0475 50.4358 57.0147 50.9575C55.9294 51.7842 54.2015 51.4113 52.9167 51.5958C52.2648 51.6922 51.6252 51.847 50.9866 52.0073C50.9765 52.0098 50.882 52.0015 50.7233 51.9876C50.882 52.0015 50.9764 52.0098 50.9866 52.0073C50.9866 52.0073 50.9866 52.0073 50.9866 52.0073C51.6252 51.847 52.2648 51.6922 52.9167 51.5958C54.2015 51.4113 55.9294 51.7842 57.0147 50.9575C57.0475 50.4358 57.0251 49.6934 57.0254 49.1491C57.026 45.634 57.1712 42.0871 57.0109 38.5721C56.9394 38.498 56.8738 38.4185 56.8087 38.3388L56.8085 38.3385C56.3865 37.8224 55.7487 37.8782 55.1369 37.8626C52.9372 37.8072 50.7096 37.8096 48.5129 37.8559C46.9756 37.8881 45.5069 37.7732 44.015 37.9845C43.431 38.0673 43.0224 38.1907 42.762 38.4212C42.5157 38.6393 42.3666 38.9875 42.3912 39.6176C42.401 39.8755 42.4263 40.0558 42.2873 40.287C41.1957 40.1849 40.3114 39.5892 39.1532 39.6333C38.3715 39.6632 37.6704 40.1343 36.9392 40.3702C36.6764 40.455 36.4127 40.5015 36.1367 40.4887C35.6531 40.0991 35.3394 39.548 34.961 39.0638C33.4036 37.0732 31.3646 35.5937 29.393 33.9473L14.5929 21.6576C12.3284 19.7456 10.9394 16.8316 10.7568 13.8902C10.6671 12.7643 10.8634 11.6303 10.7408 10.5062C10.5962 9.18143 9.06328 9.6172 8.12668 9.44756C7.7822 9.38046 7.55248 8.86532 7.30478 8.6655C6.40012 7.93588 4.88258 7.94559 3.71448 8.05348C3.32747 8.33553 3.33144 8.33108 3.06252 8.72839C3.02615 9.3731 2.8994 10.2442 3.16257 10.8112C3.28304 11.0707 3.50859 11.2996 3.94515 11.6196C5.10856 11.7427 6.48717 11.2247 7.58866 10.9357C8.02333 10.8189 8.46395 10.6723 8.91811 10.6865C9.96061 10.7191 9.46078 12.7147 9.48865 13.2839C9.5366 14.104 9.62784 14.9462 9.82801 15.744C10.3323 17.74 11.2896 19.6162 12.6128 21.1935C13.651 22.4093 14.9865 23.3409 16.2144 24.3565C20.8808 28.2255 25.4881 32.2172 30.2499 35.9812C34.6839 39.246 37.5773 44.2668 37.8373 49.8235C37.8911 50.9731 37.7397 52.2916 39.1368 52.704C39.8085 52.786 40.547 52.719 41.2756 52.7395C42.4541 52.718 43.6341 52.7781 44.8119 52.7158C45.1252 51.4974 49.5829 51.8877 50.7233 51.9876C50.882 52.0015 50.9765 52.0098 50.9866 52.0073C50.9866 52.0073 50.9866 52.0073 50.9866 52.0073C50.9764 52.0098 50.882 52.0015 50.7233 51.9876C49.5829 51.8877 45.1252 51.4974 44.8119 52.7158C43.6341 52.7781 42.4541 52.718 41.2756 52.7395C40.547 52.719 39.8085 52.786 39.1368 52.704C37.7397 52.2916 37.8911 50.9731 37.8373 49.8235C37.5773 44.2668 34.6839 39.246 30.2499 35.9812C25.4881 32.2172 20.8808 28.2255 16.2144 24.3565C14.9865 23.3409 13.651 22.4093 12.6128 21.1935C11.2896 19.6162 10.3323 17.74 9.82801 15.744C9.62784 14.9462 9.5366 14.104 9.48865 13.2839C9.46078 12.7147 9.96061 10.7191 8.91811 10.6865C8.46395 10.6723 8.02333 10.8189 7.58866 10.9357C6.48717 11.2247 5.10856 11.7427 3.94515 11.6196C3.50859 11.2996 3.28304 11.0707 3.16257 10.8112C2.8994 10.2442 3.02615 9.3731 3.06252 8.72839C3.33144 8.33108 3.32747 8.33553 3.71448 8.05348C4.88258 7.94559 6.40012 7.93588 7.30478 8.6655C7.55248 8.86532 7.7822 9.38046 8.12668 9.44756C9.06328 9.6172 10.5962 9.18143 10.7408 10.5062C10.8634 11.6303 10.6671 12.7643 10.7568 13.8902C10.9394 16.8316 12.3284 19.7456 14.5929 21.6576L29.393 33.9473C31.3646 35.5937 33.4036 37.0732 34.961 39.0638C35.3394 39.548 35.6531 40.0991 36.1367 40.4887C36.4127 40.5015 36.6764 40.455 36.9392 40.3702C37.6704 40.1343 38.3715 39.6632 39.1532 39.6333C40.3114 39.5892 41.1957 40.1849 42.2873 40.287C42.4263 40.0558 42.401 39.8755 42.3912 39.6176C42.3666 38.9875 42.5157 38.6393 42.762 38.4212C43.0224 38.1907 43.431 38.0673 44.015 37.9845C45.5069 37.7732 46.9756 37.8881 48.5129 37.8559C50.7096 37.8096 52.9372 37.8072 55.1369 37.8626C55.7487 37.8782 56.3865 37.8224 56.8085 38.3385Z" fill="#D9D9D9"/>
<path d="M56.8087 38.3388C56.8052 38.3346 56.8016 38.3302 56.7983 38.326M50.9866 52.0073C50.9051 52.0277 45.1688 51.3276 44.8119 52.7158C43.6341 52.7781 42.4541 52.718 41.2756 52.7395C40.547 52.719 39.8085 52.786 39.1368 52.704C37.7397 52.2916 37.8911 50.9731 37.8373 49.8235C37.5773 44.2668 34.6839 39.246 30.2499 35.9812C25.4881 32.2172 20.8808 28.2255 16.2144 24.3565C14.9865 23.3409 13.651 22.4093 12.6128 21.1935C11.2896 19.6162 10.3323 17.74 9.82801 15.744C9.62784 14.9462 9.5366 14.104 9.48865 13.2839C9.46078 12.7147 9.96061 10.7191 8.91811 10.6865C8.46395 10.6723 8.02333 10.8189 7.58866 10.9357C6.48717 11.2247 5.10856 11.7427 3.94515 11.6196C3.50859 11.2996 3.28304 11.0707 3.16257 10.8112C2.8994 10.2442 3.02615 9.3731 3.06252 8.72839C3.33144 8.33108 3.32747 8.33553 3.71448 8.05348C4.88258 7.94559 6.40012 7.93588 7.30478 8.6655C7.55248 8.86532 7.7822 9.38046 8.12668 9.44756C9.06328 9.6172 10.5962 9.18143 10.7408 10.5062C10.8634 11.6303 10.6671 12.7643 10.7568 13.8902C10.9394 16.8316 12.3284 19.7456 14.5929 21.6576L29.393 33.9473C31.3646 35.5937 33.4036 37.0732 34.961 39.0638C35.3394 39.548 35.6531 40.0991 36.1367 40.4887C36.4127 40.5015 36.6764 40.455 36.9392 40.3702C37.6704 40.1343 38.3715 39.6632 39.1532 39.6333C40.3114 39.5892 41.1957 40.1849 42.2873 40.287C42.4263 40.0558 42.401 39.8755 42.3912 39.6176C42.3666 38.9875 42.5157 38.6393 42.762 38.4212C43.0224 38.1907 43.431 38.0673 44.015 37.9845C45.5069 37.7732 46.9756 37.8881 48.5129 37.8559C50.7096 37.8096 52.9372 37.8072 55.1369 37.8626C55.7488 37.8782 56.3867 37.8224 56.8087 38.3388C56.8738 38.4185 56.9394 38.498 57.0109 38.5721C57.1712 42.0871 57.026 45.634 57.0254 49.1491C57.0251 49.6934 57.0475 50.4358 57.0147 50.9575C55.9294 51.7842 54.2015 51.4113 52.9167 51.5958C52.2648 51.6922 51.6252 51.847 50.9866 52.0073ZM44.8119 52.7158C45.1688 51.3278 50.9035 52.0275 50.9866 52.0073M50.9866 52.0073L50.9855 52.0076M50.9866 52.0073C50.9866 52.0073 50.9866 52.0073 50.9866 52.0073Z" stroke="white" stroke-width="1.5"/>
<defs>
<pattern id="pattern0_246_14" patternUnits="userSpaceOnUse" patternTransform="matrix(12 0 0 12 0 0)" preserveAspectRatio="none" viewBox="0 0 12 12" width="1" height="1">
<g id="pattern0_246_14_inner">
<rect y="2" width="3" height="1" fill="#D9D9D9"/>
<rect y="8" width="3" height="1" fill="#D9D9D9"/>
<rect x="6" y="2" width="3" height="1" fill="#D9D9D9"/>
<rect x="6" y="8" width="3" height="1" fill="#D9D9D9"/>
<rect x="5" y="3" width="3" height="1" transform="rotate(180 5 3)" fill="#D9D9D9"/>
<rect x="5" y="9" width="3" height="1" transform="rotate(180 5 9)" fill="#D9D9D9"/>
<rect x="11" y="3" width="3" height="1" transform="rotate(180 11 3)" fill="#D9D9D9"/>
<rect x="11" y="9" width="3" height="1" transform="rotate(180 11 9)" fill="#D9D9D9"/>
<rect x="2" width="1" height="2" fill="#D9D9D9"/>
<rect x="2" y="6" width="1" height="2" fill="#D9D9D9"/>
<rect x="8" width="1" height="2" fill="#D9D9D9"/>
<rect x="8" y="6" width="1" height="2" fill="#D9D9D9"/>
<rect x="3" y="5" width="1" height="2" transform="rotate(180 3 5)" fill="#D9D9D9"/>
<rect x="3" y="11" width="1" height="2" transform="rotate(180 3 11)" fill="#D9D9D9"/>
<rect x="9" y="5" width="1" height="2" transform="rotate(180 9 5)" fill="#D9D9D9"/>
<rect x="9" y="11" width="1" height="2" transform="rotate(180 9 11)" fill="#D9D9D9"/>
</g>
</pattern></defs>
</svg>
