<svg width="60" height="60" viewBox="0 0 60 60" fill="none" xmlns="http://www.w3.org/2000/svg" xmlns:xlink="http://www.w3.org/1999/xlink">
<rect width="60" height="60" fill="url(#pattern0_84_154)" fill-opacity="0.1"/>
<path d="M12.1925 56.5262C12.1925 56.6605 12.2414 56.8436 12.3757 57.0268C12.4856 57.1977 12.6809 57.271 12.8763 57.1489H12.8885C13.0838 57.1489 13.2425 57.0878 13.3524 57.0268C13.4623 56.9657 13.5356 56.9047 13.5478 56.9047L13.5722 56.8925L13.5844 56.8803C13.5844 56.8803 13.792 56.6483 14.0239 56.3675C14.2559 56.0866 14.5123 55.757 14.6222 55.4762C14.6222 55.464 14.7077 55.3541 14.842 55.2564C15.0373 55.1099 15.3426 54.9512 15.5868 54.8291C15.7089 54.768 15.8187 54.7192 15.892 54.6826C15.9653 54.6459 16.0141 54.6337 16.0141 54.6337L16.0629 54.6093L16.0996 54.5727C16.1118 54.5727 16.1972 54.4872 16.2827 54.3529C16.3682 54.2186 16.478 54.0355 16.478 53.8035C16.478 53.6814 16.4414 53.5349 16.356 53.425C16.2705 53.3029 16.1484 53.2174 15.9897 53.1564C15.7821 53.0709 15.6844 52.961 15.6234 52.8633C15.5623 52.7657 15.5501 52.6558 15.5501 52.5947V52.5459C15.5868 52.4482 15.7455 51.9232 15.9164 51.3982C16.0996 50.8122 16.2949 50.2017 16.3071 50.1651C16.3193 50.1284 16.3926 49.9575 16.4658 49.811C16.5513 49.8598 16.6368 49.8842 16.7222 49.8965C16.8321 49.9209 16.9542 49.9209 17.0397 49.9209C17.1374 49.9209 17.2228 49.9087 17.2228 49.9087H17.2961L17.3571 49.872C17.3571 49.8598 17.6746 49.6523 18.0286 49.3959C18.2118 49.2738 18.3827 49.1395 18.5414 49.0174C18.688 48.8953 18.81 48.7976 18.8955 48.6877C18.9321 48.6389 19.1275 48.4069 19.3961 48.1017C20.2019 47.1738 21.7647 45.44 22.4607 44.7929C22.9368 44.3534 23.2909 44.3045 23.5839 44.3045C23.7182 44.3045 23.8403 44.3167 23.9624 44.3167C24.0113 44.3167 24.0723 44.3045 24.1334 44.2923C24.2066 44.2801 24.2799 44.2435 24.3409 44.1702C24.4874 43.9871 24.5363 43.7917 24.5729 43.5842C24.6095 43.4132 24.6217 43.2545 24.634 43.1568L24.7194 43.0714C24.8049 42.9859 24.9392 42.8882 25.0613 42.7906C25.1956 42.6929 25.3055 42.6074 25.3909 42.4731C25.4764 42.3144 25.5252 42.1679 25.6351 41.9359C25.745 41.7039 25.9282 41.4109 26.27 40.9958C26.9537 40.1777 27.7718 39.4696 28.4067 38.9568C28.7241 38.7004 29.0049 38.4928 29.2003 38.3585C29.298 38.2853 29.3834 38.2364 29.4323 38.1998C29.4689 38.1754 29.4933 38.1632 29.5055 38.151C29.6398 38.0655 32.8509 36.1608 36.0986 34.2195C37.7591 33.2306 39.4318 32.2294 40.7016 31.4602C41.3365 31.0817 41.8737 30.7521 42.2644 30.5201C42.4597 30.4102 42.6185 30.3125 42.7283 30.2393C42.7772 30.2026 42.826 30.1782 42.8626 30.1538C42.8993 30.1294 42.9115 30.1172 42.9481 30.0927C43.29 29.8119 43.7417 29.2015 43.815 28.1026V28.0171C43.815 27.7119 43.6929 27.4433 43.5097 27.2357C43.2411 26.9305 42.8504 26.7351 42.4475 26.5764C42.0446 26.4177 41.6173 26.2834 41.2754 26.1247C41.1289 26.0636 41.0434 25.9904 40.9946 25.9171C40.9458 25.8439 40.9213 25.7706 40.9213 25.6851C40.9213 25.5386 40.9946 25.3433 41.0923 25.1968C41.1899 25.0502 41.3365 24.9404 41.3731 24.9282C41.4708 24.8793 41.6295 24.8549 41.7882 24.8549C42.0446 24.8549 42.3254 24.9282 42.4475 25.0136C42.5574 25.0747 42.6673 25.1235 42.7894 25.1601C43.1679 25.27 43.6807 25.3433 44.0225 25.3433C44.0836 25.3433 44.1324 25.3311 44.1813 25.3311C44.2301 25.3311 44.2789 25.3189 44.34 25.2944C44.401 25.2578 44.6819 25.1723 45.0237 25.0869C45.3656 24.9892 45.7929 24.9037 46.1958 24.8671C46.6598 24.8183 47.0016 24.6718 47.2825 24.5008C47.5755 24.3299 47.7953 24.1345 48.0517 23.9758C48.3447 23.7927 48.5522 23.6095 48.6865 23.4142C48.8209 23.2188 48.8941 23.0235 48.9185 22.8525C48.9185 22.8403 48.9429 22.7671 48.9918 22.6694C49.1383 22.3764 49.4802 21.9246 49.761 21.5461C49.8587 21.4118 49.9319 21.3019 49.9807 21.2165C50.0662 21.0944 50.0906 21.07 50.1883 21.0089C50.286 20.9479 50.5058 20.8868 50.9209 20.8014C51.2383 20.7403 51.4825 20.6304 51.6656 20.4839C51.9465 20.2641 52.0686 19.9833 52.1174 19.7514C52.1418 19.6415 52.154 19.5316 52.154 19.4461V19.2874C52.1662 19.2141 52.1662 19.1409 52.1662 19.0432C52.1662 18.799 52.154 18.4449 52.1174 17.9932C52.1052 17.9199 52.1052 17.8467 52.1052 17.7856C52.1052 17.5659 52.1296 17.3705 52.154 17.2484C52.1662 17.1874 52.1784 17.1507 52.1907 17.1141C52.3372 16.9554 52.7767 16.4914 53.0575 15.8932C53.204 15.5879 53.2162 15.3193 53.2529 15.2339C53.2529 15.2216 53.2651 15.2094 53.2651 15.2094C53.2651 15.2094 53.3139 15.1972 53.4116 15.1972C53.5215 15.1972 53.7046 15.2094 53.961 15.2583C54.0831 15.2705 54.193 15.2827 54.3029 15.2827C54.9134 15.2949 55.3285 14.9653 55.5483 14.66C55.7192 14.428 55.8047 14.1961 55.8291 14.0984C55.8901 14.0129 56 13.8298 56 13.5734C56 13.4024 55.9267 13.1827 55.7558 13.0239C55.5849 12.8652 55.3407 12.7431 54.9866 12.6577C54.6936 12.5844 54.5349 12.4745 54.4372 12.3646C54.3395 12.2548 54.3029 12.1205 54.3029 11.9495C54.3029 11.6443 54.4616 11.2292 54.6325 10.8751C54.718 10.7042 54.7546 10.5332 54.7546 10.3745C54.7546 10.0204 54.5593 9.77624 54.4128 9.60531C54.3395 9.51984 54.2663 9.44658 54.2174 9.39775C54.193 9.37333 54.1808 9.34891 54.1686 9.3367C54.1564 9.3367 54.1564 9.32449 54.1564 9.32449C54.1197 9.15356 54.0221 9.05588 53.9122 8.95821C53.5947 8.6896 53.1064 8.50646 52.8866 8.4332C52.7889 8.39657 52.7279 8.35994 52.6546 8.2989C52.5814 8.23785 52.5081 8.14017 52.4104 7.99366C52.1907 7.6518 52.0197 7.55412 51.9465 7.5297C51.9465 7.5297 51.4581 7.38319 50.9209 7.22447C50.3837 7.06574 49.7854 6.8826 49.59 6.80934C49.5412 6.78493 49.4802 6.77272 49.4191 6.77272C49.1993 6.77272 49.0528 6.89481 48.9307 7.01691C48.7476 7.21226 48.6133 7.46865 48.5034 7.72505C48.3935 7.98145 48.3203 8.25006 48.2714 8.44541C48.2348 8.59192 48.2226 8.6896 48.2226 8.78727C48.2226 8.92158 48.2836 9.06809 48.3325 9.12914C48.3569 9.16577 48.3569 9.17798 48.3691 9.19019C48.3569 9.2146 48.3325 9.25123 48.3081 9.28786C48.2348 9.38554 48.1249 9.51984 48.015 9.65414L48.003 9.66878C47.8964 9.79908 47.7804 9.94071 47.7098 10.0937C47.6732 10.1792 47.5389 10.289 47.3191 10.3745C47.0993 10.4722 46.8185 10.5454 46.5499 10.6187C46.2569 10.7042 45.7685 10.8995 45.3167 11.1193L45.3166 11.1193C45.0969 11.2292 44.8772 11.3391 44.6941 11.4489C44.5109 11.5588 44.3766 11.6443 44.2667 11.7664C44.1568 11.9129 44.0958 12.0838 44.0225 12.1937C43.9859 12.2425 43.9615 12.2914 43.9371 12.3036C43.9249 12.3036 43.815 12.3036 43.6318 12.1205C43.5097 11.9984 43.5097 11.9373 43.5097 11.9373C43.5 12 43.4975 11.9251 43.5464 11.8763C43.6196 11.8152 43.7661 11.742 43.9127 11.6931C43.9859 11.6687 44.047 11.6443 44.108 11.6321C44.1446 11.6199 44.1691 11.6199 44.1935 11.6077C44.2179 11.5954 44.2423 11.5954 44.2911 11.5588C44.3034 11.5466 44.4132 11.4978 44.5353 11.4245C44.926 11.2047 45.6098 10.814 45.9638 10.2768C46.0615 10.1181 46.1226 9.97159 46.1226 9.81287C46.1348 9.69077 46.0859 9.56868 46.0249 9.48321C45.9394 9.34891 45.8051 9.27565 45.683 9.22681C45.5609 9.17798 45.4388 9.15356 45.329 9.15356C45.2679 9.16577 45.2069 9.16577 45.1336 9.19019C44.9505 9.26344 44.7063 9.37333 44.3278 9.37333H44.2423H44.1813C43.8882 9.37333 43.5952 9.44658 43.3022 9.54426C43.0092 9.64193 42.7161 9.75182 42.4353 9.8495C42.0324 9.9838 41.8004 10.2768 41.5318 10.5576C41.2754 10.8385 40.9824 11.1315 40.5306 11.3513C40.2865 11.4245 40.0789 11.4489 39.8958 11.4489C39.3952 11.4489 39.0411 11.2536 38.6748 10.9728C38.3207 10.6919 37.9789 10.3379 37.5393 10.0571C37.0143 9.7274 36.3306 9.56868 35.598 9.471C34.8655 9.37333 34.0841 9.36112 33.3515 9.36112C32.6556 9.36112 32.1916 9.25123 31.7887 9.0803C31.3736 8.92158 31.0073 8.6896 30.5311 8.46983L30.5189 8.45762H30.5067C30.2137 8.37215 29.9939 8.20122 29.8108 7.98145C29.5421 7.6518 29.3712 7.18784 29.2857 6.7483C29.1881 6.30876 29.1759 5.88143 29.1759 5.62503V5.44189V5.39305C29.1881 5.31979 29.2369 5.00235 29.2369 4.62386C29.2247 4.23315 29.1881 3.7814 28.9927 3.3907C28.9317 3.26861 28.834 3.17093 28.7241 3.09768C28.6142 3.02442 28.4921 3 28.37 3C28.0282 3 27.7474 3.17093 27.491 3.35407C27.2468 3.53721 27.027 3.74478 26.9171 3.85466C26.8805 3.89129 26.7828 3.95234 26.6729 4.01338C26.502 4.11106 26.2822 4.19653 26.0991 4.25757C26.0014 4.2942 25.9282 4.31862 25.8671 4.33083C25.8305 4.33083 25.8061 4.34304 25.7938 4.34304H25.7816H25.7328C25.4276 4.39188 23.6328 4.69711 23.6328 4.69711H23.6206H23.6084C23.5839 4.69711 23.2421 4.79479 22.8636 5.01456C22.6682 5.12444 22.4851 5.27096 22.3264 5.46631C22.1676 5.66166 22.0578 5.91806 22.0578 6.21108V6.29655V6.41864C22.0578 6.80935 21.9479 6.96807 21.8502 7.06574C21.7525 7.16342 21.5938 7.20005 21.4351 7.20005C21.3374 7.20005 21.2519 7.18784 21.1787 7.17563C21.1054 7.16342 21.0688 7.15121 21.0444 7.139C20.9467 7.11458 19.8723 6.87039 19.2374 6.87039C19.1519 6.87039 19.0665 6.8826 18.981 6.89481L18.981 6.89481C18.6635 6.95586 18.4438 7.139 18.2606 7.30993C18.1141 7.44424 17.992 7.59075 17.8943 7.67622C17.8455 7.60296 17.7845 7.48086 17.7478 7.37098C17.7356 7.29772 17.7112 7.23668 17.699 7.20005C17.6868 7.16342 17.6868 7.139 17.6868 7.139L17.6624 7.04132L17.5769 6.98028C17.5769 6.98028 16.5879 6.34539 16.1118 6.07678C15.9408 5.9791 15.7333 5.93027 15.5135 5.93027C15.2205 5.93027 14.903 6.01573 14.6344 6.22329C14.3658 6.43085 14.146 6.7483 14.0484 7.18784C13.9385 7.67622 13.7676 7.96924 13.6455 8.14017C13.5966 8.21343 13.5478 8.25006 13.5112 8.28669H13.4257C13.2548 8.28669 12.9984 8.31111 12.742 8.44541C12.4733 8.5675 12.217 8.8239 12.0949 9.22681C12.0582 9.36112 12.0338 9.49542 12.0338 9.61752C12.0338 9.83729 12.0949 10.0326 12.2047 10.1792C12.3635 10.3989 12.5832 10.5332 12.7786 10.6309C12.9739 10.7164 13.1693 10.7652 13.2792 10.7896C13.3891 10.814 13.4989 10.814 13.6088 10.8263C13.7798 10.8263 13.9385 10.8507 14.0484 10.8873C14.0972 10.9117 14.1338 10.9361 14.1583 10.9606C14.1827 10.985 14.2071 11.0216 14.2193 11.0826V11.1071L14.2315 11.1315C14.4024 11.5222 14.4635 11.8518 14.4635 12.1205C14.4635 12.4989 14.3414 12.7676 14.2315 12.9385L13.2792 13.8298C13.096 14.0007 12.9129 14.1961 12.7542 14.367C12.5954 14.5379 12.4733 14.6844 12.4001 14.8676C12.3879 14.9164 12.3146 15.0141 12.217 15.1118C12.0582 15.2705 11.8385 15.4414 11.6309 15.5879C11.4233 15.7344 11.228 15.8565 11.1181 15.942C11.0082 16.0275 10.935 16.1496 10.8861 16.2595C10.7396 16.6013 10.7518 16.9798 10.7518 17.1019C10.764 17.2118 10.7762 17.2728 10.7762 17.3339C10.7762 17.3827 10.764 17.4193 10.7396 17.4804C10.7152 17.5414 10.6664 17.6147 10.5565 17.7124C10.3977 17.8467 10.3123 18.0176 10.2634 18.1885C10.2146 18.3595 10.2024 18.5304 10.2024 18.6891C10.2024 18.8723 10.2146 19.0432 10.2146 19.1897C10.2146 19.2752 10.2146 19.3606 10.2024 19.4095C10.1658 19.6048 10.1047 19.8124 9.90937 20.1543C9.71402 20.4961 9.39657 20.9723 8.84715 21.6682C8.34656 22.3275 7.3698 23.0113 6.53956 23.5241C6.11223 23.7805 5.73374 23.988 5.45293 24.1345C5.31871 24.2078 5.19669 24.2688 5.12341 24.3054L5.12327 24.3055C5.08665 24.3177 5.06223 24.3299 5.03782 24.3421L5.0378 24.3421C4.87908 24.3665 4.47617 24.452 4.15872 24.8549C4.06105 24.977 4 25.1235 4 25.27C4 25.4043 4.04884 25.5264 4.10989 25.6241C4.31745 25.9049 4.6471 26.0636 5.0256 26.2346C5.28199 26.3444 5.59944 26.5764 5.83142 26.784C5.95351 26.8939 6.05119 26.9793 6.12445 27.0526L6.20991 27.1381C6.332 27.3822 7.02794 28.7863 7.54074 29.6654C7.78493 30.0805 7.94365 30.7765 8.02911 31.3625C8.06574 31.6556 8.10237 31.912 8.11458 32.1073C8.139 32.3027 8.139 32.4125 8.139 32.4125V32.4247V32.437V32.4736C8.15121 32.5468 8.16342 32.7544 8.16342 33.0352C8.16342 33.5969 8.09016 34.4393 7.76051 35.1963C7.57736 35.6114 7.50411 35.9777 7.50411 36.2951C7.50411 37.0033 7.87039 37.394 7.94365 37.4672L9.8239 39.5673L11.5943 40.8859L11.6065 40.8981C11.6187 40.8981 11.6919 40.9469 11.7652 41.0324C11.8385 41.1179 11.8995 41.2278 11.9117 41.3621C11.9483 41.6551 12.0826 41.8749 12.217 41.9969C12.3513 42.1313 12.4734 42.1801 12.4856 42.1923L12.5344 42.2167H12.5832C12.5832 42.2167 12.6321 42.2167 12.7297 42.2289C12.8763 42.2411 13.096 42.2656 13.3036 42.3022C13.5112 42.3388 13.7187 42.3876 13.8042 42.4243C13.8774 42.4609 13.9019 42.4853 13.9019 42.4853C13.9019 42.4975 13.9019 42.4731 13.9263 42.5586C13.9507 42.6318 13.9751 42.7661 14.0606 42.9127C14.1216 42.9981 14.146 43.0714 14.2681 43.1324C14.2803 43.1446 14.3048 43.1568 14.317 43.1568C14.3536 43.2057 14.4391 43.34 14.5612 43.572C14.7199 43.8894 14.9397 44.0848 15.1472 44.2069C15.3548 44.3167 15.5623 44.3534 15.7211 44.3534C15.8798 44.3534 15.9897 44.3167 16.0263 44.3045C16.0263 44.3045 16.2217 44.2435 16.5391 44.2435C16.9054 44.2435 17.4182 44.3167 18.0164 44.6342C18.224 44.7563 18.4438 44.8051 18.6635 44.8051C19.3106 44.7929 19.8234 44.3778 20.2019 43.9993C20.5316 43.6696 20.7513 43.34 20.8002 43.2545C20.8124 43.2301 20.849 43.1935 20.8979 43.1691C20.9589 43.1202 21.0322 43.0958 21.081 43.0958C21.1421 43.108 21.2031 43.108 21.3374 43.2789C21.4595 43.4621 21.4961 43.5964 21.4961 43.6819C21.4961 43.7551 21.4717 43.8039 21.4351 43.865C21.374 43.9505 21.2519 44.0359 21.1421 44.0848C21.0932 44.1092 21.0566 44.1214 21.0322 44.1336C20.9833 44.1092 20.9223 44.097 20.8368 44.097C20.7391 44.097 20.5926 44.1336 20.4949 44.2435C20.3973 44.3534 20.3484 44.4877 20.324 44.6464C20.2996 44.8173 20.2019 44.9638 20.1043 45.0615C20.0554 45.1104 20.0066 45.147 19.9699 45.1714C19.9577 45.1714 19.9455 45.1836 19.9455 45.1836C19.8112 45.208 19.4083 45.3057 18.9077 45.4034C18.3095 45.5255 17.5647 45.672 17.0519 45.733C15.953 45.8796 15.6356 46.1482 15.5745 46.2092C15.5745 46.2092 15.3304 46.4656 15.0007 46.8197C14.671 47.1615 14.2437 47.6133 13.8652 47.9674C13.5844 48.2482 13.4135 48.5046 13.4135 48.7976C13.4135 49.0662 13.5722 49.2738 13.7553 49.4081C13.9263 49.5424 14.146 49.6278 14.3658 49.7011C14.6344 49.7866 14.7321 49.8965 14.7931 49.9819C14.8175 50.0185 14.8298 50.0429 14.842 50.0673L14.842 50.0674L14.1216 52.4971C14.0484 52.607 13.8774 52.8756 13.8774 53.2907C13.8774 53.4372 13.9019 53.5837 13.9507 53.7546C14.0117 53.9378 14.0239 54.0721 14.0239 54.182C14.0239 54.3041 13.9995 54.3895 13.9873 54.4384C13.9873 54.4506 13.9751 54.4628 13.9751 54.475L12.3024 56.2087L12.2902 56.2209C12.2658 56.2576 12.1925 56.3552 12.1925 56.5262Z" stroke="white" stroke-width="1.5" stroke-linejoin="round"/>
<defs>
<pattern id="pattern0_84_154" patternUnits="userSpaceOnUse" patternTransform="matrix(12 0 0 12 0 0)" preserveAspectRatio="none" viewBox="0 0 12 12" width="1" height="1">
<g id="pattern0_84_154_inner">
<rect y="2" width="3" height="1" fill="#D9D9D9"/>
<rect y="8" width="3" height="1" fill="#D9D9D9"/>
<rect x="6" y="2" width="3" height="1" fill="#D9D9D9"/>
<rect x="6" y="8" width="3" height="1" fill="#D9D9D9"/>
<rect x="5" y="3" width="3" height="1" transform="rotate(180 5 3)" fill="#D9D9D9"/>
<rect x="5" y="9" width="3" height="1" transform="rotate(180 5 9)" fill="#D9D9D9"/>
<rect x="11" y="3" width="3" height="1" transform="rotate(180 11 3)" fill="#D9D9D9"/>
<rect x="11" y="9" width="3" height="1" transform="rotate(180 11 9)" fill="#D9D9D9"/>
<rect x="2" width="1" height="2" fill="#D9D9D9"/>
<rect x="2" y="6" width="1" height="2" fill="#D9D9D9"/>
<rect x="8" width="1" height="2" fill="#D9D9D9"/>
<rect x="8" y="6" width="1" height="2" fill="#D9D9D9"/>
<rect x="3" y="5" width="1" height="2" transform="rotate(180 3 5)" fill="#D9D9D9"/>
<rect x="3" y="11" width="1" height="2" transform="rotate(180 3 11)" fill="#D9D9D9"/>
<rect x="9" y="5" width="1" height="2" transform="rotate(180 9 5)" fill="#D9D9D9"/>
<rect x="9" y="11" width="1" height="2" transform="rotate(180 9 11)" fill="#D9D9D9"/>
</g>
</pattern></defs>
</svg>
