<svg width="60" height="60" viewBox="0 0 60 60" fill="none" xmlns="http://www.w3.org/2000/svg" xmlns:xlink="http://www.w3.org/1999/xlink">
<rect width="60" height="60" fill="url(#pattern0_84_154)" fill-opacity="0.1"/>
<path d="M11.731 56.8338C11.731 56.9681 11.7798 57.1512 11.9141 57.3344C12.024 57.5053 12.2194 57.5786 12.4147 57.4565H12.4269C12.6223 57.4565 12.781 57.3954 12.8909 57.3344C13.0008 57.2733 13.074 57.2123 13.0862 57.2123L13.1107 57.2001L13.1229 57.1879C13.1229 57.1879 13.3304 56.9559 13.5624 56.6751C13.7944 56.3943 14.0508 56.0646 14.1607 55.7838C14.1607 55.7716 14.2461 55.6617 14.3804 55.564C14.5758 55.4175 14.881 55.2588 15.1252 55.1367C15.2473 55.0756 15.3572 55.0268 15.4304 54.9902C15.5037 54.9535 15.5525 54.9413 15.5525 54.9413L15.6014 54.9169L15.638 54.8803C15.6502 54.8803 15.7357 54.7948 15.8211 54.6605C15.9066 54.5262 16.0165 54.3431 16.0165 54.1111C16.0165 53.989 15.9799 53.8425 15.8944 53.7326C15.8089 53.6105 15.6868 53.525 15.5281 53.464C15.3206 53.3785 15.2229 53.2686 15.1618 53.171C15.1008 53.0733 15.0886 52.9634 15.0886 52.9024V52.8535C15.1252 52.7558 15.2839 52.2308 15.4549 51.7058C15.638 51.1198 15.8334 50.5093 15.8456 50.4727C15.8578 50.4361 15.931 50.2651 16.0043 50.1186C16.0898 50.1674 16.1752 50.1919 16.2607 50.2041C16.3706 50.2285 16.4927 50.2285 16.5781 50.2285C16.6758 50.2285 16.7613 50.2163 16.7613 50.2163H16.8345L16.8956 50.1797C16.8956 50.1674 17.213 49.9599 17.5671 49.7035C17.7502 49.5814 17.9212 49.4471 18.0799 49.325C18.2264 49.2029 18.3485 49.1052 18.434 48.9953C18.4706 48.9465 18.6659 48.7145 18.9346 48.4093C19.7404 47.4814 21.3032 45.7476 21.9991 45.1005C22.4753 44.661 22.8294 44.6121 23.1224 44.6121C23.2567 44.6121 23.3788 44.6244 23.5009 44.6244C23.5497 44.6244 23.6108 44.6122 23.6718 44.5999C23.7451 44.5877 23.8183 44.5511 23.8794 44.4778C24.0259 44.2947 24.0747 44.0994 24.1114 43.8918C24.148 43.7209 24.1602 43.5621 24.1724 43.4645L24.2579 43.379C24.3433 43.2935 24.4776 43.1959 24.5997 43.0982C24.734 43.0005 24.8439 42.915 24.9294 42.7807C25.0149 42.622 25.0637 42.4755 25.1736 42.2435C25.2835 42.0115 25.4666 41.7185 25.8085 41.3034C26.4922 40.4854 27.3102 39.7772 27.9451 39.2644C28.2626 39.008 28.5434 38.8005 28.7387 38.6662C28.8364 38.5929 28.9219 38.5441 28.9707 38.5074C29.0073 38.483 29.0318 38.4708 29.044 38.4586C29.1783 38.3731 32.3894 36.4685 35.6371 34.5272C37.2976 33.5382 38.9702 32.537 40.24 31.7678C40.8749 31.3893 41.4121 31.0597 41.8028 30.8277C41.9982 30.7178 42.1569 30.6201 42.2668 30.5469C42.3156 30.5102 42.3645 30.4858 42.4011 30.4614C42.4377 30.437 42.4499 30.4248 42.4866 30.4004C42.8284 30.1195 43.2802 29.5091 43.3534 28.4102V28.3248C43.3534 28.0195 43.2313 27.7509 43.0482 27.5434C42.7796 27.2381 42.3889 27.0428 41.986 26.884C41.5831 26.7253 41.1557 26.591 40.8139 26.4323C40.6674 26.3712 40.5819 26.298 40.5331 26.2247C40.4842 26.1515 40.4598 26.0782 40.4598 25.9928C40.4598 25.8462 40.5331 25.6509 40.6307 25.5044C40.7284 25.3579 40.8749 25.248 40.9115 25.2358C41.0092 25.1869 41.1679 25.1625 41.3267 25.1625C41.5831 25.1625 41.8639 25.2358 41.986 25.3212C42.0959 25.3823 42.2057 25.4311 42.3278 25.4677C42.7063 25.5776 43.2191 25.6509 43.561 25.6509C43.622 25.6509 43.6709 25.6387 43.7197 25.6387C43.7686 25.6387 43.8174 25.6265 43.8784 25.6021C43.9395 25.5654 44.2203 25.48 44.5622 25.3945C44.904 25.2968 45.3314 25.2114 45.7343 25.1747C46.1982 25.1259 46.5401 24.9794 46.8209 24.8084C47.1139 24.6375 47.3337 24.4422 47.5901 24.2834C47.8831 24.1003 48.0907 23.9172 48.225 23.7218C48.3593 23.5264 48.4326 23.3311 48.457 23.1602C48.457 23.148 48.4814 23.0747 48.5302 22.977C48.6768 22.684 49.0186 22.2322 49.2994 21.8538C49.3971 21.7194 49.4704 21.6096 49.5192 21.5241C49.6047 21.402 49.6291 21.3776 49.7268 21.3165C49.8244 21.2555 50.0442 21.1944 50.4593 21.109C50.7768 21.0479 51.021 20.938 51.2041 20.7915C51.4849 20.5718 51.607 20.2909 51.6559 20.059C51.6803 19.9491 51.6925 19.8392 51.6925 19.7537V19.595C51.7047 19.5218 51.7047 19.4485 51.7047 19.3508C51.7047 19.1066 51.6925 18.7526 51.6559 18.3008C51.6436 18.2276 51.6436 18.1543 51.6436 18.0932C51.6436 17.8735 51.6681 17.6781 51.6925 17.556C51.7047 17.495 51.7169 17.4584 51.7291 17.4217C51.8756 17.263 52.3152 16.799 52.596 16.2008C52.7425 15.8955 52.7547 15.6269 52.7913 15.5415C52.7913 15.5293 52.8035 15.5171 52.8035 15.5171C52.8035 15.5171 52.8524 15.5048 52.9501 15.5048C53.0599 15.5048 53.2431 15.5171 53.4995 15.5659C53.6216 15.5781 53.7315 15.5903 53.8413 15.5903C54.4518 15.6025 54.8669 15.2729 55.0867 14.9676C55.2576 14.7357 55.3431 14.5037 55.3675 14.406C55.4286 14.3205 55.5385 14.1374 55.5385 13.881C55.5385 13.7101 55.4652 13.4903 55.2943 13.3316C55.1233 13.1728 54.8791 13.0507 54.5251 12.9653C54.232 12.892 54.0733 12.7821 53.9756 12.6723C53.878 12.5624 53.8413 12.4281 53.8413 12.2571C53.8413 11.9519 54.0001 11.5368 54.171 11.1827C54.2565 11.0118 54.2931 10.8408 54.2931 10.6821C54.2931 10.328 54.0977 10.0839 53.9512 9.91292C53.878 9.82746 53.8047 9.7542 53.7559 9.70536C53.7315 9.68094 53.7192 9.65653 53.707 9.64432C53.6948 9.64432 53.6948 9.63211 53.6948 9.63211C53.6582 9.46117 53.5605 9.3635 53.4506 9.26582C53.1332 8.99722 52.6448 8.81407 52.425 8.74082C52.3274 8.70419 52.2663 8.66756 52.1931 8.60651C52.1198 8.54547 52.0466 8.44779 51.9489 8.30128C51.7291 7.95941 51.5582 7.86174 51.4849 7.83732C51.4849 7.83732 50.9965 7.69081 50.4593 7.53208C49.9221 7.37336 49.3238 7.19022 49.1285 7.11696C49.0797 7.09254 49.0186 7.08033 48.9576 7.08033C48.7378 7.08033 48.5913 7.20243 48.4692 7.32452C48.286 7.51987 48.1517 7.77627 48.0419 8.03267C47.932 8.28907 47.8587 8.55768 47.8099 8.75303C47.7733 8.89954 47.761 8.99722 47.761 9.09489C47.761 9.2292 47.8221 9.37571 47.8709 9.43676C47.8953 9.47338 47.8953 9.48559 47.9076 9.4978C47.8953 9.52222 47.8709 9.55885 47.8465 9.59548C47.7733 9.69315 47.6634 9.82746 47.5535 9.96176L47.5415 9.9764C47.4348 10.1067 47.3189 10.2483 47.2482 10.4013C47.2116 10.4868 47.0773 10.5967 46.8575 10.6821C46.6378 10.7798 46.357 10.8531 46.0883 10.9263C45.7953 11.0118 45.3069 11.2071 44.8552 11.4269L44.8551 11.4269C44.6354 11.5368 44.4156 11.6467 44.2325 11.7565C44.0494 11.8664 43.9151 11.9519 43.8052 12.074C43.6953 12.2205 43.6343 12.3914 43.561 12.5013C43.5244 12.5502 43.4999 12.599 43.4755 12.6112C43.4633 12.6112 43.3534 12.6112 43.1703 12.4281C43.0482 12.306 43.0482 12.2449 43.0482 12.2449C43.0385 12.3076 43.036 12.2327 43.0848 12.1839C43.1581 12.1228 43.3046 12.0496 43.4511 12.0007C43.5244 11.9763 43.5854 11.9519 43.6465 11.9397C43.6831 11.9275 43.7075 11.9275 43.7319 11.9153C43.7563 11.9031 43.7808 11.9031 43.8296 11.8664C43.8418 11.8542 43.9517 11.8054 44.0738 11.7321C44.4645 11.5124 45.1482 11.1217 45.5023 10.5844C45.6 10.4257 45.661 10.2792 45.661 10.1205C45.6732 9.99839 45.6244 9.8763 45.5633 9.79083C45.4779 9.65653 45.3436 9.58327 45.2215 9.53443C45.0994 9.48559 44.9773 9.46117 44.8674 9.46117C44.8064 9.47338 44.7453 9.47338 44.6721 9.4978C44.4889 9.57106 44.2447 9.68094 43.8662 9.68094H43.7808H43.7197C43.4267 9.68094 43.1337 9.7542 42.8406 9.85188C42.5476 9.94955 42.2546 10.0594 41.9738 10.1571C41.5709 10.2914 41.3389 10.5844 41.0703 10.8653C40.8139 11.1461 40.5208 11.4391 40.0691 11.6589C39.8249 11.7321 39.6173 11.7565 39.4342 11.7565C38.9336 11.7565 38.5795 11.5612 38.2133 11.2804C37.8592 10.9996 37.5173 10.6455 37.0778 10.3647C36.5528 10.035 35.869 9.8763 35.1365 9.77862C34.4039 9.68094 33.6225 9.66874 32.8899 9.66874C32.194 9.66874 31.73 9.55885 31.3271 9.38792C30.912 9.2292 30.5457 8.99722 30.0696 8.77745L30.0574 8.76524H30.0451C29.7521 8.67977 29.5324 8.50884 29.3492 8.28907C29.0806 7.95941 28.9097 7.49545 28.8242 7.05591C28.7265 6.61637 28.7143 6.18904 28.7143 5.93265V5.74951V5.70067C28.7265 5.62741 28.7754 5.30997 28.7754 4.93147C28.7632 4.54077 28.7265 4.08902 28.5312 3.69832C28.4701 3.57622 28.3725 3.47855 28.2626 3.40529C28.1527 3.33204 28.0306 3.30762 27.9085 3.30762C27.5666 3.30762 27.2858 3.47855 27.0294 3.66169C26.7852 3.84483 26.5655 4.05239 26.4556 4.16228C26.4189 4.19891 26.3213 4.25995 26.2114 4.321C26.0404 4.41868 25.8207 4.50414 25.6375 4.56519C25.5399 4.60182 25.4666 4.62624 25.4056 4.63845C25.3689 4.63845 25.3445 4.65066 25.3323 4.65066H25.3201H25.2713C24.966 4.69949 23.1712 5.00473 23.1712 5.00473H23.159H23.1468C23.1224 5.00473 22.7805 5.1024 22.402 5.32217C22.2067 5.43206 22.0235 5.57857 21.8648 5.77392C21.7061 5.96927 21.5962 6.22567 21.5962 6.5187V6.60417V6.72626C21.5962 7.11696 21.4863 7.27569 21.3887 7.37336C21.291 7.47104 21.1323 7.50766 20.9735 7.50766C20.8759 7.50766 20.7904 7.49545 20.7171 7.48324C20.6439 7.47104 20.6072 7.45883 20.5828 7.44662C20.4852 7.4222 19.4107 7.17801 18.7758 7.17801C18.6904 7.17801 18.6049 7.19022 18.5195 7.20243L18.5194 7.20243C18.202 7.26348 17.9822 7.44662 17.7991 7.61755C17.6526 7.75185 17.5305 7.89837 17.4328 7.98383C17.384 7.91058 17.3229 7.78848 17.2863 7.6786C17.2741 7.60534 17.2497 7.54429 17.2374 7.50766C17.2252 7.47104 17.2252 7.44662 17.2252 7.44662L17.2008 7.34894L17.1153 7.28789C17.1153 7.28789 16.1264 6.653 15.6502 6.3844C15.4793 6.28672 15.2717 6.23788 15.052 6.23788C14.7589 6.23788 14.4415 6.32335 14.1729 6.53091C13.9043 6.73847 13.6845 7.05592 13.5868 7.49546C13.4769 7.98383 13.306 8.27686 13.1839 8.44779C13.1351 8.52105 13.0862 8.55768 13.0496 8.5943H12.9641C12.7932 8.5943 12.5368 8.61872 12.2804 8.75303C12.0118 8.87512 11.7554 9.13152 11.6333 9.53443C11.5967 9.66874 11.5723 9.80304 11.5723 9.92513C11.5723 10.1449 11.6333 10.3403 11.7432 10.4868C11.9019 10.7065 12.1217 10.8408 12.317 10.9385C12.5124 11.024 12.7077 11.0728 12.8176 11.0972C12.9275 11.1217 13.0374 11.1217 13.1473 11.1339C13.3182 11.1339 13.4769 11.1583 13.5868 11.1949C13.6357 11.2193 13.6723 11.2438 13.6967 11.2682C13.7211 11.2926 13.7455 11.3292 13.7578 11.3903V11.4147L13.77 11.4391C13.9409 11.8298 14.0019 12.1595 14.0019 12.4281C14.0019 12.8066 13.8798 13.0752 13.77 13.2461L12.8176 14.1374C12.6345 14.3083 12.4513 14.5037 12.2926 14.6746C12.1339 14.8455 12.0118 14.9921 11.9385 15.1752C11.9263 15.224 11.8531 15.3217 11.7554 15.4194C11.5967 15.5781 11.3769 15.749 11.1694 15.8955C10.9618 16.0421 10.7664 16.1642 10.6566 16.2496C10.5467 16.3351 10.4734 16.4572 10.4246 16.5671C10.2781 16.9089 10.2903 17.2874 10.2903 17.4095C10.3025 17.5194 10.3147 17.5805 10.3147 17.6415C10.3147 17.6903 10.3025 17.727 10.2781 17.788C10.2536 17.8491 10.2048 17.9223 10.0949 18.02C9.9362 18.1543 9.85073 18.3252 9.80189 18.4962C9.75306 18.6671 9.74085 18.838 9.74085 18.9967C9.74085 19.1799 9.75306 19.3508 9.75306 19.4973C9.75306 19.5828 9.75306 19.6683 9.74085 19.7171C9.70422 19.9125 9.64317 20.12 9.44782 20.4619C9.25247 20.8037 8.93503 21.2799 8.3856 21.9758C7.88501 22.6352 6.90826 23.3189 6.07801 23.8317C5.65068 24.0881 5.2722 24.2956 4.99138 24.4422C4.85716 24.5154 4.73514 24.5764 4.66186 24.613L4.66172 24.6131C4.6251 24.6253 4.60068 24.6375 4.57627 24.6497L4.57625 24.6497C4.41753 24.6741 4.01462 24.7596 3.69717 25.1625C3.5995 25.2846 3.53845 25.4311 3.53845 25.5776C3.53845 25.7119 3.58729 25.834 3.64834 25.9317C3.8559 26.2125 4.18556 26.3712 4.56405 26.5422C4.82045 26.6521 5.13789 26.884 5.36987 27.0916C5.49196 27.2015 5.58964 27.287 5.6629 27.3602L5.74836 27.4457C5.87045 27.6899 6.56639 29.094 7.07919 29.973C7.32338 30.3882 7.4821 31.0841 7.56757 31.6701C7.6042 31.9632 7.64083 32.2196 7.65303 32.4149C7.67745 32.6103 7.67745 32.7202 7.67745 32.7202V32.7324V32.7446V32.7812C7.68966 32.8545 7.70187 33.062 7.70187 33.3428C7.70187 33.9045 7.62861 34.7469 7.29896 35.5039C7.11582 35.919 7.04256 36.2853 7.04256 36.6028C7.04256 37.3109 7.40884 37.7016 7.4821 37.7749L9.36236 39.8749L11.1327 41.1935L11.1449 41.2057C11.1571 41.2057 11.2304 41.2546 11.3037 41.34C11.3769 41.4255 11.438 41.5354 11.4502 41.6697C11.4868 41.9627 11.6211 42.1825 11.7554 42.3046C11.8897 42.4389 12.0118 42.4877 12.024 42.4999L12.0729 42.5243H12.1217C12.1217 42.5243 12.1705 42.5243 12.2682 42.5365C12.4147 42.5488 12.6345 42.5732 12.842 42.6098C13.0496 42.6464 13.2572 42.6953 13.3426 42.7319C13.4159 42.7685 13.4403 42.7929 13.4403 42.7929C13.4403 42.8052 13.4403 42.7807 13.4647 42.8662C13.4891 42.9395 13.5136 43.0738 13.599 43.2203C13.6601 43.3057 13.6845 43.379 13.8066 43.44C13.8188 43.4523 13.8432 43.4645 13.8554 43.4645C13.8921 43.5133 13.9775 43.6476 14.0996 43.8796C14.2583 44.197 14.4781 44.3924 14.6857 44.5145C14.8932 44.6244 15.1008 44.661 15.2595 44.661C15.4182 44.661 15.5281 44.6244 15.5647 44.6121C15.5647 44.6121 15.7601 44.5511 16.0775 44.5511C16.4438 44.5511 16.9566 44.6244 17.5549 44.9418C17.7624 45.0639 17.9822 45.1127 18.202 45.1127C18.8491 45.1005 19.3619 44.6854 19.7404 44.3069C20.07 43.9773 20.2898 43.6476 20.3386 43.5621C20.3508 43.5377 20.3875 43.5011 20.4363 43.4767C20.4974 43.4278 20.5706 43.4034 20.6195 43.4034C20.6805 43.4156 20.7416 43.4156 20.8759 43.5866C20.998 43.7697 21.0346 43.904 21.0346 43.9895C21.0346 44.0627 21.0102 44.1116 20.9735 44.1726C20.9125 44.2581 20.7904 44.3435 20.6805 44.3924C20.6317 44.4168 20.595 44.429 20.5706 44.4412C20.5218 44.4168 20.4607 44.4046 20.3753 44.4046C20.2776 44.4046 20.1311 44.4412 20.0334 44.5511C19.9357 44.661 19.8869 44.7953 19.8625 44.954C19.8381 45.1249 19.7404 45.2715 19.6427 45.3691C19.5939 45.418 19.545 45.4546 19.5084 45.479C19.4962 45.479 19.484 45.4912 19.484 45.4912C19.3497 45.5156 18.9468 45.6133 18.4462 45.711C17.8479 45.8331 17.1031 45.9796 16.5903 46.0407C15.4915 46.1872 15.174 46.4558 15.113 46.5168C15.113 46.5168 14.8688 46.7732 14.5392 47.1273C14.2095 47.4692 13.7822 47.9209 13.4037 48.275C13.1229 48.5558 12.9519 48.8122 12.9519 49.1052C12.9519 49.3738 13.1107 49.5814 13.2938 49.7157C13.4647 49.85 13.6845 49.9355 13.9043 50.0087C14.1729 50.0942 14.2706 50.2041 14.3316 50.2895C14.356 50.3261 14.3682 50.3505 14.3804 50.3749L14.3804 50.375L13.6601 52.8047C13.5868 52.9146 13.4159 53.1832 13.4159 53.5983C13.4159 53.7448 13.4403 53.8913 13.4891 54.0623C13.5502 54.2454 13.5624 54.3797 13.5624 54.4896C13.5624 54.6117 13.538 54.6971 13.5258 54.746C13.5258 54.7582 13.5136 54.7704 13.5136 54.7826L11.8409 56.5164L11.8287 56.5286C11.8042 56.5652 11.731 56.6629 11.731 56.8338Z" stroke="white" stroke-width="1.5" stroke-linejoin="round"/>
<defs>
<pattern id="pattern0_84_154" patternUnits="userSpaceOnUse" patternTransform="matrix(12 0 0 12 0 0)" preserveAspectRatio="none" viewBox="0 0 12 12" width="1" height="1">
<g id="pattern0_84_154_inner">
<rect y="2" width="3" height="1" fill="#D9D9D9"/>
<rect y="8" width="3" height="1" fill="#D9D9D9"/>
<rect x="6" y="2" width="3" height="1" fill="#D9D9D9"/>
<rect x="6" y="8" width="3" height="1" fill="#D9D9D9"/>
<rect x="5" y="3" width="3" height="1" transform="rotate(180 5 3)" fill="#D9D9D9"/>
<rect x="5" y="9" width="3" height="1" transform="rotate(180 5 9)" fill="#D9D9D9"/>
<rect x="11" y="3" width="3" height="1" transform="rotate(180 11 3)" fill="#D9D9D9"/>
<rect x="11" y="9" width="3" height="1" transform="rotate(180 11 9)" fill="#D9D9D9"/>
<rect x="2" width="1" height="2" fill="#D9D9D9"/>
<rect x="2" y="6" width="1" height="2" fill="#D9D9D9"/>
<rect x="8" width="1" height="2" fill="#D9D9D9"/>
<rect x="8" y="6" width="1" height="2" fill="#D9D9D9"/>
<rect x="3" y="5" width="1" height="2" transform="rotate(180 3 5)" fill="#D9D9D9"/>
<rect x="3" y="11" width="1" height="2" transform="rotate(180 3 11)" fill="#D9D9D9"/>
<rect x="9" y="5" width="1" height="2" transform="rotate(180 9 5)" fill="#D9D9D9"/>
<rect x="9" y="11" width="1" height="2" transform="rotate(180 9 11)" fill="#D9D9D9"/>
</g>
</pattern></defs>
</svg>
