<svg width="60" height="60" viewBox="0 0 60 60" fill="none" xmlns="http://www.w3.org/2000/svg" xmlns:xlink="http://www.w3.org/1999/xlink">
<rect width="60" height="60" fill="url(#pattern0_246_10)" fill-opacity="0.1"/>
<path fill-rule="evenodd" clip-rule="evenodd" d="M53.4669 23.2692C53.2393 20.3062 52.4248 17.4562 51.4954 14.648C50.917 12.8994 49.626 10.517 47.6692 10.0781C46.8052 9.89214 45.9028 10.0411 45.1445 10.4949C44.5175 10.868 44.0733 11.3219 43.587 11.8189C42.9675 12.4521 42.3349 13.0721 41.7215 13.7114L38.8538 16.6277C36.9497 18.5818 35.0295 20.5882 32.7374 22.0953C31.476 22.9244 29.952 23.4766 28.4937 23.8255C27.6154 24.0355 26.7933 24.128 25.894 24.2105C22.8744 24.4877 19.8357 24.3822 16.9531 23.3536C15.8236 22.9622 14.7395 22.4294 13.6628 21.9103C12.6857 21.4391 11.7884 21.0064 10.6304 21.071C9.33739 21.1432 8.37063 21.6358 7.32685 22.288L7.11699 22.4206C6.74809 22.6696 6.37855 22.9184 6.04111 23.2098C4.51983 24.5486 3.49408 26.361 3.12945 28.3544C2.99607 29.045 3.02165 29.3347 3.00382 30.0045C2.96536 31.4509 3.21078 32.5636 4.03823 33.7738C4.50409 34.455 5.20991 35.0905 6.05729 35.2364C7.17584 35.4289 7.93288 35.1358 8.8308 34.5268C9.62782 33.9863 10.2363 33.2552 10.8826 32.5552C12.1794 31.1509 13.4763 30.4139 15.4475 30.8031C16.5814 31.0271 17.3473 31.3691 18.4201 31.6909C20.1601 32.2128 22.3222 32.4368 24.1455 32.4061C25.8881 32.3856 27.6199 32.1297 29.294 31.6453C29.983 31.4402 30.6587 31.1936 31.318 30.9071C31.7855 30.7004 32.2604 30.4232 32.7265 30.2372C34.1219 29.6805 35.8828 29.6434 37.1223 30.5866C37.2855 30.7109 37.4031 30.939 37.5161 31.111C37.7115 31.6169 37.1514 32.0678 36.6981 32.4328C36.3315 32.7279 36.0177 33.0946 35.6253 33.3568C33.8782 34.9244 31.8188 37.1185 32.1927 39.5974C32.2323 39.8585 32.2288 40.0827 32.3078 40.3822C32.8597 42.4743 35.4602 42.8237 37.3794 42.6128C39.5182 42.3774 41.8579 41.3635 43.2703 39.6947C44.1635 38.5548 44.8392 37.2675 45.4903 35.9775C46.0374 34.8932 46.4962 33.7136 47.2676 32.76C48.2446 31.5526 50.2303 31.5535 51.3508 32.5424C52.5788 33.6258 51.9633 34.8772 51.1251 35.9488C49.6048 38.0902 47.7579 39.6725 45.5829 41.1095C44.3272 41.939 43.0145 42.7559 41.9469 43.8144C41.8589 43.9018 41.7703 44.0037 41.6871 44.0906C39.8314 46.0201 40.1422 49.7925 43.4635 49.5309C44.3918 49.4578 45.3114 48.8468 46.0894 48.3298C47.7992 47.1938 49.4071 45.925 50.8744 44.4873C53.877 41.5659 56.4962 37.5576 56.9498 33.3232C57.0105 32.7556 56.9841 32.2122 56.9972 31.6553C57.033 30.1197 56.7295 28.657 55.953 27.3221C55.5891 26.686 55.1614 26.2998 54.765 25.9419C54.143 25.3804 53.5982 24.8886 53.4982 23.6098C53.4994 23.5015 53.4754 23.3784 53.4669 23.2692Z" stroke="white" stroke-width="1.5"/>
<defs>
<pattern id="pattern0_246_10" patternUnits="userSpaceOnUse" patternTransform="matrix(12 0 0 12 0 0)" preserveAspectRatio="none" viewBox="0 0 12 12" width="1" height="1">
<g id="pattern0_246_10_inner">
<rect y="2" width="3" height="1" fill="#D9D9D9"/>
<rect y="8" width="3" height="1" fill="#D9D9D9"/>
<rect x="6" y="2" width="3" height="1" fill="#D9D9D9"/>
<rect x="6" y="8" width="3" height="1" fill="#D9D9D9"/>
<rect x="5" y="3" width="3" height="1" transform="rotate(180 5 3)" fill="#D9D9D9"/>
<rect x="5" y="9" width="3" height="1" transform="rotate(180 5 9)" fill="#D9D9D9"/>
<rect x="11" y="3" width="3" height="1" transform="rotate(180 11 3)" fill="#D9D9D9"/>
<rect x="11" y="9" width="3" height="1" transform="rotate(180 11 9)" fill="#D9D9D9"/>
<rect x="2" width="1" height="2" fill="#D9D9D9"/>
<rect x="2" y="6" width="1" height="2" fill="#D9D9D9"/>
<rect x="8" width="1" height="2" fill="#D9D9D9"/>
<rect x="8" y="6" width="1" height="2" fill="#D9D9D9"/>
<rect x="3" y="5" width="1" height="2" transform="rotate(180 3 5)" fill="#D9D9D9"/>
<rect x="3" y="11" width="1" height="2" transform="rotate(180 3 11)" fill="#D9D9D9"/>
<rect x="9" y="5" width="1" height="2" transform="rotate(180 9 5)" fill="#D9D9D9"/>
<rect x="9" y="11" width="1" height="2" transform="rotate(180 9 11)" fill="#D9D9D9"/>
</g>
</pattern></defs>
</svg>
