<svg width="60" height="60" viewBox="0 0 60 60" fill="none" xmlns="http://www.w3.org/2000/svg" xmlns:xlink="http://www.w3.org/1999/xlink">
<rect width="60" height="60" fill="url(#pattern0_246_9)" fill-opacity="0.1"/>
<path d="M33.6658 36.0125C31.7588 35.3809 29.8521 34.7485 27.9434 34.1218C25.6448 33.3669 23.3453 32.6144 21.044 31.8679C20.6949 31.7546 20.3501 31.5977 19.9922 31.5423C19.7031 31.4975 19.3938 31.5239 19.1032 31.5673C18.8637 31.6032 18.6221 31.6801 18.402 31.7802C18.2089 31.868 18.026 31.9935 17.8635 32.1308C17.6754 32.2898 17.5347 32.5052 17.3502 32.6692C17.1967 32.8057 17.0336 32.9466 16.8493 33.0324C16.612 33.1428 16.3454 33.2107 16.0855 33.2578C15.7694 33.315 15.432 33.3918 15.1213 33.3454C14.7892 33.2958 14.4585 33.1325 14.1571 32.9698C13.8324 32.7944 13.5133 32.5797 13.2431 32.3312C13.0458 32.1498 12.8725 31.9196 12.7547 31.68C12.6263 31.4188 12.5301 31.1181 12.5043 30.8286C12.4758 30.5087 12.5248 30.1688 12.5919 29.8519C12.6459 29.597 12.7444 29.3427 12.8674 29.1131C12.9948 28.8753 13.154 28.6407 13.3432 28.4495C13.5505 28.24 13.7919 28.035 14.057 27.911C14.3721 27.7637 14.7355 27.6877 15.0837 27.6356C15.4326 27.5833 15.7969 27.5492 16.1481 27.598C20.2755 28.1711 24.392 28.8952 28.5194 29.5013C29.1669 29.5964 29.838 29.7432 30.4728 29.7016C30.7939 29.6806 31.1267 29.5019 31.3869 29.3134C31.6108 29.1513 31.7701 28.8869 31.9253 28.6498C32.0789 28.4152 32.2356 28.1633 32.3135 27.8985C32.3817 27.6666 32.3876 27.4016 32.3636 27.1597C32.3416 26.9383 32.2663 26.7138 32.1758 26.5086C32.0618 26.2505 31.9434 25.9671 31.75 25.7698C31.5302 25.5456 31.2277 25.3744 30.9361 25.2439C30.6308 25.1073 30.2896 25.0413 29.9594 24.9684C28.0399 24.5447 26.105 24.1863 24.187 23.7538C20.921 23.0176 17.6769 22.1438 14.4076 21.4624C14.0122 21.38 13.5894 21.4067 13.193 21.4624C12.8465 21.5111 12.4856 21.6035 12.1787 21.7754C11.033 22.4174 9.90991 23.1481 8.83545 23.9041C8.62853 24.0497 8.46622 24.2659 8.33459 24.4801C8.18657 24.7209 8.05865 24.9908 7.9965 25.269C7.69969 26.5977 7.4397 27.9558 7.25773 29.3009C7.22683 29.5293 7.271 29.7807 7.3579 29.9896C7.46718 30.2523 7.69112 30.469 7.84624 30.7159C7.98747 30.9406 8.15673 31.1591 8.24694 31.4046C8.3362 31.6475 8.38079 31.921 8.38467 32.1809C8.38914 32.4803 8.35543 32.796 8.27198 33.0825C8.201 33.3261 8.0709 33.565 7.92137 33.7711C7.76204 33.9908 7.55741 34.1891 7.34538 34.3597C7.17341 34.498 6.97486 34.6186 6.76938 34.6977C6.51991 34.7939 6.2463 34.8629 5.98052 34.8856C5.75796 34.9046 5.52472 34.869 5.30435 34.823C5.04473 34.7688 4.77259 34.71 4.54053 34.5851C4.17573 34.3886 3.81106 34.1427 3.51376 33.8588C3.34776 33.7003 3.22982 33.4741 3.15063 33.2578C3.05869 33.0066 2.99449 32.7275 3.00037 32.4564C3.06127 29.6514 3.15395 26.8187 3.35098 24.0293C3.36681 23.8052 3.49672 23.5817 3.63898 23.4158C3.79724 23.2311 4.05314 23.1303 4.25254 22.9775C4.49974 22.7881 4.79034 22.6257 4.97879 22.389C5.13259 22.1958 5.24938 21.9354 5.27931 21.6878C5.34121 21.1757 5.20688 20.6287 5.25427 20.1101C5.28201 19.8065 5.37352 19.4941 5.5047 19.221C5.62813 18.964 5.82504 18.7341 6.01809 18.5198C6.24243 18.2708 6.49112 18.0352 6.75686 17.8311C7.01285 17.6345 7.28549 17.4358 7.58329 17.3177C7.97 17.1645 8.39613 17.06 8.81041 17.0172C9.16412 16.9807 9.53643 17.0026 9.88727 17.0798C14.6578 18.1296 19.4064 19.3169 24.1744 20.3981C28.518 21.383 32.9074 22.2253 37.222 23.278C37.5947 23.369 37.9457 23.5891 38.2362 23.829C38.4966 24.044 38.7348 24.3311 38.8748 24.6429C39.3401 25.6792 39.6521 26.7995 40.0519 27.8735C40.1446 28.1226 40.2084 28.3974 40.3524 28.6122C40.463 28.7772 40.6424 28.9105 40.8157 29.0129C41.0097 29.1276 41.2294 29.2242 41.4543 29.2634C43.9383 29.6959 46.4479 30.0292 48.9422 30.4279C50.3129 30.647 51.6997 30.8251 53.0493 31.1166C53.3234 31.1757 53.5886 31.317 53.8131 31.4797C54.0435 31.6467 54.2564 31.8681 54.4142 32.1058C54.5945 32.3773 54.7289 32.6921 54.8274 33.0073C55.5804 35.4177 56.3297 37.8478 56.9686 40.2824C57.0351 40.5358 56.9811 40.8128 56.9435 41.0713C56.9101 41.3011 56.8592 41.5424 56.7557 41.7474C56.6464 41.964 56.4742 42.158 56.3049 42.3359C56.1486 42.5003 55.978 42.6825 55.779 42.7742C55.6065 42.8536 55.3874 42.8458 55.1905 42.8493C54.9199 42.8542 54.6358 42.8794 54.3766 42.7992C50.103 41.477 45.8504 40.0375 41.592 38.6421C38.9468 37.7752 36.3083 36.8877 33.6658 36.0125Z" stroke="white" stroke-width="1.5"/>
<defs>
<pattern id="pattern0_246_9" patternUnits="userSpaceOnUse" patternTransform="matrix(12 0 0 12 0 0)" preserveAspectRatio="none" viewBox="0 0 12 12" width="1" height="1">
<g id="pattern0_246_9_inner">
<rect y="2" width="3" height="1" fill="#D9D9D9"/>
<rect y="8" width="3" height="1" fill="#D9D9D9"/>
<rect x="6" y="2" width="3" height="1" fill="#D9D9D9"/>
<rect x="6" y="8" width="3" height="1" fill="#D9D9D9"/>
<rect x="5" y="3" width="3" height="1" transform="rotate(180 5 3)" fill="#D9D9D9"/>
<rect x="5" y="9" width="3" height="1" transform="rotate(180 5 9)" fill="#D9D9D9"/>
<rect x="11" y="3" width="3" height="1" transform="rotate(180 11 3)" fill="#D9D9D9"/>
<rect x="11" y="9" width="3" height="1" transform="rotate(180 11 9)" fill="#D9D9D9"/>
<rect x="2" width="1" height="2" fill="#D9D9D9"/>
<rect x="2" y="6" width="1" height="2" fill="#D9D9D9"/>
<rect x="8" width="1" height="2" fill="#D9D9D9"/>
<rect x="8" y="6" width="1" height="2" fill="#D9D9D9"/>
<rect x="3" y="5" width="1" height="2" transform="rotate(180 3 5)" fill="#D9D9D9"/>
<rect x="3" y="11" width="1" height="2" transform="rotate(180 3 11)" fill="#D9D9D9"/>
<rect x="9" y="5" width="1" height="2" transform="rotate(180 9 5)" fill="#D9D9D9"/>
<rect x="9" y="11" width="1" height="2" transform="rotate(180 9 11)" fill="#D9D9D9"/>
</g>
</pattern></defs>
</svg>
