<svg width="60" height="60" viewBox="0 0 60 60" fill="none" xmlns="http://www.w3.org/2000/svg" xmlns:xlink="http://www.w3.org/1999/xlink">
<rect width="60" height="60" fill="url(#pattern0_246_8)" fill-opacity="0.1"/>
<path fill-rule="evenodd" clip-rule="evenodd" d="M43.9243 34.3845C41.7255 35.2799 39.7044 36.2595 37.6814 37.3646C37.2437 37.6038 36.832 37.9371 36.3622 38.0714C35.8426 38.2198 35.2504 38.2656 34.7131 38.2127C34.2923 38.1713 33.7889 37.9709 33.5234 37.6473C32.8778 36.8606 32.4836 36.4027 31.8979 35.7156C31.3057 35.0207 30.5498 34.3346 29.9544 33.6425C28.7123 32.1987 27.4887 30.7737 26.3735 29.2489C25.9496 28.6692 25.619 27.9955 25.337 27.3289C24.928 26.3621 24.6106 25.2775 24.0531 24.4312C23.7311 23.9425 23.206 23.6535 22.6631 23.43C22.138 23.2138 21.478 23.1857 20.9316 23.2886C20.3943 23.3899 19.7526 23.6297 19.3179 24.0072C14.8695 27.8692 10.9942 31.418 6.43156 35.162C5.91495 35.5859 5.30748 36.4686 5.06518 37.0819C4.8049 37.7408 4.69622 38.4974 4.72359 39.2022C4.75904 40.115 4.93648 41.076 5.27721 41.9349C5.69034 42.9764 6.16858 43.7856 6.58468 44.8208C6.8125 45.3876 7.05751 46.172 6.90272 46.6819C6.79052 47.0515 6.37377 47.3648 5.97217 47.4593C5.57279 47.5533 5.10612 47.439 4.78249 47.2002C4.44649 46.9522 4.23685 46.4355 4.13464 45.9869C3.67145 43.9541 3.11327 41.9299 3.00385 39.8618C2.95622 38.9616 3.36062 38.0188 3.68703 37.1762C4.03595 36.2755 4.61067 35.5554 4.93561 34.6672C5.08183 34.2676 4.89031 33.6393 4.99451 33.2537C5.04737 33.0582 5.38577 32.9285 5.58346 32.8297C6.07681 32.583 6.66226 32.4887 7.10296 32.1701C7.68311 31.7506 7.99605 31.1415 8.48111 30.5917C11.8753 26.744 15.2227 23.0364 18.564 19.2602C18.8437 18.9441 19.2388 19.0692 19.4945 19.1424C19.9133 19.2622 20.3447 19.3018 20.6842 19.166C20.9729 19.0505 21.2252 18.6761 21.3792 18.3297C21.7906 17.404 22.0371 16.2947 22.5689 15.5027C22.7753 15.1953 23.2107 15.0432 23.5937 15.008C24.4043 14.9333 25.2772 15.127 26.1026 15.2318C28.2142 15.4998 30.0297 15.9118 31.7801 16.233C32.8428 16.428 34.5544 16.3254 35.6437 16.1623C37.4871 15.8863 39.2479 15.748 41.0856 15.3142C41.7765 15.1511 42.6047 14.652 43.2294 14.3012C44.1291 13.796 44.9667 13.4072 45.9503 13.1115C46.6493 12.9014 47.6805 12.995 48.3297 13.3353C48.958 13.6647 49.6797 14.0964 50.0612 14.6899C50.8105 15.8554 51.0537 17.2322 51.5925 18.5652C52.2473 20.1849 53.0302 21.7793 53.7481 23.3711C54.8363 25.7842 55.8568 27.7217 56.8931 30.1205C57.112 30.6272 56.9655 31.2998 56.7164 31.5929C56.4315 31.928 56.02 32.2107 55.5621 32.2761C53.8212 32.5248 52.0287 32.7191 50.2261 32.547C49.8041 32.5067 49.3491 32.5459 48.9422 32.653C47.2602 33.0956 45.5444 33.7248 43.9243 34.3845Z" stroke="white" stroke-width="1.5" stroke-linejoin="round"/>
<defs>
<pattern id="pattern0_246_8" patternUnits="userSpaceOnUse" patternTransform="matrix(12 0 0 12 0 0)" preserveAspectRatio="none" viewBox="0 0 12 12" width="1" height="1">
<g id="pattern0_246_8_inner">
<rect y="2" width="3" height="1" fill="#D9D9D9"/>
<rect y="8" width="3" height="1" fill="#D9D9D9"/>
<rect x="6" y="2" width="3" height="1" fill="#D9D9D9"/>
<rect x="6" y="8" width="3" height="1" fill="#D9D9D9"/>
<rect x="5" y="3" width="3" height="1" transform="rotate(180 5 3)" fill="#D9D9D9"/>
<rect x="5" y="9" width="3" height="1" transform="rotate(180 5 9)" fill="#D9D9D9"/>
<rect x="11" y="3" width="3" height="1" transform="rotate(180 11 3)" fill="#D9D9D9"/>
<rect x="11" y="9" width="3" height="1" transform="rotate(180 11 9)" fill="#D9D9D9"/>
<rect x="2" width="1" height="2" fill="#D9D9D9"/>
<rect x="2" y="6" width="1" height="2" fill="#D9D9D9"/>
<rect x="8" width="1" height="2" fill="#D9D9D9"/>
<rect x="8" y="6" width="1" height="2" fill="#D9D9D9"/>
<rect x="3" y="5" width="1" height="2" transform="rotate(180 3 5)" fill="#D9D9D9"/>
<rect x="3" y="11" width="1" height="2" transform="rotate(180 3 11)" fill="#D9D9D9"/>
<rect x="9" y="5" width="1" height="2" transform="rotate(180 9 5)" fill="#D9D9D9"/>
<rect x="9" y="11" width="1" height="2" transform="rotate(180 9 11)" fill="#D9D9D9"/>
</g>
</pattern></defs>
</svg>
