<svg width="60" height="60" viewBox="0 0 60 60" fill="none" xmlns="http://www.w3.org/2000/svg" xmlns:xlink="http://www.w3.org/1999/xlink">
<rect width="60" height="60" fill="url(#pattern0_312_306)" fill-opacity="0.1"/>
<path d="M36.7313 42.563C38.8537 41.4035 40.9743 40.3757 43.2812 39.4363C44.981 38.7442 46.7812 38.084 48.5459 37.6196C48.9728 37.5073 49.4502 37.4661 49.893 37.5084C51.7842 37.6889 53.6649 37.4851 55.4913 37.2241C55.9718 37.1555 56.4036 36.859 56.7025 36.5073C56.9638 36.1999 57.1175 35.4942 56.8878 34.9625C55.8006 32.4457 54.7299 30.4129 53.5881 27.8812C52.835 26.2111 52.0135 24.5382 51.3266 22.839C50.7612 21.4404 50.5061 19.9959 49.72 18.773C49.3197 18.1504 48.5625 17.6974 47.9033 17.3518C47.2221 16.9947 46.1402 16.8965 45.4069 17.117C44.3749 17.4273 43.4961 17.8351 42.5521 18.3652C41.8967 18.7333 41.0277 19.2569 40.3029 19.428C38.3748 19.8831 36.5274 20.0283 34.5933 20.3178C33.4504 20.4889 31.6546 20.5966 30.5397 20.392C28.7032 20.055 26.7984 19.6227 24.583 19.3415C23.717 19.2316 22.8011 19.0284 21.9506 19.1067C21.5488 19.1437 21.092 19.3033 20.8754 19.6258C20.3175 20.4567 20.0589 21.6206 19.6273 22.5918C19.4657 22.9553 19.201 23.3481 18.8981 23.4692C18.5419 23.6117 18.0893 23.5702 17.6499 23.4445C17.3816 23.3677 16.967 23.2365 16.6736 23.5681C13.168 27.53 9.74715 31.8809 6.09478 35.4569C2.4424 39.0328 2.44249 42.1804 3.94443 40.2519C8.23539 34.7425 12.7974 32.6005 17.4645 28.5485C17.9207 28.1525 18.5939 27.9009 19.1576 27.7947C19.7309 27.6867 20.4234 27.7161 20.9743 27.943C21.5439 28.1775 22.0948 28.4807 22.4326 28.9934C23.0176 29.8814 23.3505 31.0193 23.7797 32.0336C24.0756 32.733 24.4224 33.4398 24.8672 34.048C26.0373 35.6479 27.321 37.1429 28.6242 38.6577C29.2489 39.3839 30.0419 40.1037 30.6633 40.8328C31.2778 41.5537 31.6914 42.0341 32.3688 42.8596C32.6473 43.199 33.1755 43.4093 33.617 43.4528C34.1806 43.5082 34.802 43.4602 35.3471 43.3045C35.8401 43.1636 36.272 42.8139 36.7313 42.563Z" stroke="white" stroke-width="1.5" stroke-linejoin="round"/>
<defs>
<pattern id="pattern0_312_306" patternUnits="userSpaceOnUse" patternTransform="matrix(12 0 0 12 0 0)" preserveAspectRatio="none" viewBox="0 0 12 12" width="1" height="1">
<g id="pattern0_312_306_inner">
<rect y="2" width="3" height="1" fill="#D9D9D9"/>
<rect y="8" width="3" height="1" fill="#D9D9D9"/>
<rect x="6" y="2" width="3" height="1" fill="#D9D9D9"/>
<rect x="6" y="8" width="3" height="1" fill="#D9D9D9"/>
<rect x="5" y="3" width="3" height="1" transform="rotate(180 5 3)" fill="#D9D9D9"/>
<rect x="5" y="9" width="3" height="1" transform="rotate(180 5 9)" fill="#D9D9D9"/>
<rect x="11" y="3" width="3" height="1" transform="rotate(180 11 3)" fill="#D9D9D9"/>
<rect x="11" y="9" width="3" height="1" transform="rotate(180 11 9)" fill="#D9D9D9"/>
<rect x="2" width="1" height="2" fill="#D9D9D9"/>
<rect x="2" y="6" width="1" height="2" fill="#D9D9D9"/>
<rect x="8" width="1" height="2" fill="#D9D9D9"/>
<rect x="8" y="6" width="1" height="2" fill="#D9D9D9"/>
<rect x="3" y="5" width="1" height="2" transform="rotate(180 3 5)" fill="#D9D9D9"/>
<rect x="3" y="11" width="1" height="2" transform="rotate(180 3 11)" fill="#D9D9D9"/>
<rect x="9" y="5" width="1" height="2" transform="rotate(180 9 5)" fill="#D9D9D9"/>
<rect x="9" y="11" width="1" height="2" transform="rotate(180 9 11)" fill="#D9D9D9"/>
</g>
</pattern></defs>
</svg>
