<svg width="60" height="60" viewBox="0 0 60 60" fill="none" xmlns="http://www.w3.org/2000/svg" xmlns:xlink="http://www.w3.org/1999/xlink">
<rect width="60" height="60" fill="url(#pattern0_40_231)" fill-opacity="0.1"/>
<mask id="mask0_40_231" style="mask-type:luminance" maskUnits="userSpaceOnUse" x="14" y="18" width="32" height="23">
<path d="M43.75 18.5H16.75C16.1533 18.5 15.581 18.7371 15.159 19.159C14.7371 19.581 14.5 20.1533 14.5 20.75V38.75C14.5 39.3467 14.7371 39.919 15.159 40.341C15.581 40.7629 16.1533 41 16.75 41H43.75C44.3467 41 44.919 40.7629 45.341 40.341C45.7629 39.919 46 39.3467 46 38.75V20.75C46 20.1533 45.7629 19.581 45.341 19.159C44.919 18.7371 44.3467 18.5 43.75 18.5Z" fill="url(#paint0_linear_40_231)"/>
</mask>
<g mask="url(#mask0_40_231)">
<path d="M46 18.5H14.5V41H46V18.5Z" fill="url(#paint1_linear_40_231)"/>
<path d="M46 18.5H14.5V26H46V18.5Z" fill="url(#paint2_linear_40_231)"/>
<path d="M46 33.5H14.5V41H46V33.5Z" fill="url(#paint3_linear_40_231)"/>
<path d="M46 26H14.5V33.5H46V26Z" fill="url(#paint4_linear_40_231)"/>
<path d="M30.25 32C30.8467 32 31.419 31.7629 31.841 31.341C32.2629 30.919 32.5 30.3467 32.5 29.75C32.5 29.1533 32.2629 28.581 31.841 28.159C31.419 27.7371 30.8467 27.5 30.25 27.5C29.6533 27.5 29.081 27.7371 28.659 28.159C28.2371 28.581 28 29.1533 28 29.75C28 30.3467 28.2371 30.919 28.659 31.341C29.081 31.7629 29.6533 32 30.25 32ZM30.25 32.75C29.4544 32.75 28.6913 32.4339 28.1287 31.8713C27.5661 31.3087 27.25 30.5456 27.25 29.75C27.25 28.9544 27.5661 28.1913 28.1287 27.6287C28.6913 27.0661 29.4544 26.75 30.25 26.75C31.0456 26.75 31.8087 27.0661 32.3713 27.6287C32.9339 28.1913 33.25 28.9544 33.25 29.75C33.25 30.5456 32.9339 31.3087 32.3713 31.8713C31.8087 32.4339 31.0456 32.75 30.25 32.75Z" fill="#398153"/>
<path d="M30.25 31.25C30.6478 31.25 31.0294 31.092 31.3107 30.8107C31.592 30.5294 31.75 30.1478 31.75 29.75C31.75 29.3522 31.592 28.9706 31.3107 28.6893C31.0294 28.408 30.6478 28.25 30.25 28.25C29.8522 28.25 29.4706 28.408 29.1893 28.6893C28.908 28.9706 28.75 29.3522 28.75 29.75C28.75 30.1478 28.908 30.5294 29.1893 30.8107C29.4706 31.092 29.8522 31.25 30.25 31.25Z" fill="#E5CF58"/>
</g>
<defs>
<linearGradient id="paint0_linear_40_231" x1="1589.5" y1="18.5" x2="1589.5" y2="2268.5" gradientUnits="userSpaceOnUse">
<stop stop-color="white"/>
<stop offset="1" stop-color="#F0F0F0"/>
</linearGradient>
<linearGradient id="paint1_linear_40_231" x1="1589.5" y1="18.5" x2="1589.5" y2="2268.5" gradientUnits="userSpaceOnUse">
<stop stop-color="white"/>
<stop offset="1" stop-color="#F0F0F0"/>
</linearGradient>
<linearGradient id="paint2_linear_40_231" x1="1589.5" y1="18.5" x2="1589.5" y2="768.5" gradientUnits="userSpaceOnUse">
<stop stop-color="#E33F39"/>
<stop offset="1" stop-color="#D32E28"/>
</linearGradient>
<linearGradient id="paint3_linear_40_231" x1="1589.5" y1="33.5" x2="1589.5" y2="783.5" gradientUnits="userSpaceOnUse">
<stop stop-color="#124BBA"/>
<stop offset="1" stop-color="#073DA6"/>
</linearGradient>
<linearGradient id="paint4_linear_40_231" x1="1589.5" y1="26" x2="1589.5" y2="776" gradientUnits="userSpaceOnUse">
<stop stop-color="white"/>
<stop offset="1" stop-color="#F0F0F0"/>
</linearGradient>
<pattern id="pattern0_40_231" patternUnits="userSpaceOnUse" patternTransform="matrix(12 0 0 12 0 0)" preserveAspectRatio="none" viewBox="0 0 12 12" width="1" height="1">
<g id="pattern0_40_231_inner">
<rect y="2" width="3" height="1" fill="#D9D9D9"/>
<rect y="8" width="3" height="1" fill="#D9D9D9"/>
<rect x="6" y="2" width="3" height="1" fill="#D9D9D9"/>
<rect x="6" y="8" width="3" height="1" fill="#D9D9D9"/>
<rect x="5" y="3" width="3" height="1" transform="rotate(180 5 3)" fill="#D9D9D9"/>
<rect x="5" y="9" width="3" height="1" transform="rotate(180 5 9)" fill="#D9D9D9"/>
<rect x="11" y="3" width="3" height="1" transform="rotate(180 11 3)" fill="#D9D9D9"/>
<rect x="11" y="9" width="3" height="1" transform="rotate(180 11 9)" fill="#D9D9D9"/>
<rect x="2" width="1" height="2" fill="#D9D9D9"/>
<rect x="2" y="6" width="1" height="2" fill="#D9D9D9"/>
<rect x="8" width="1" height="2" fill="#D9D9D9"/>
<rect x="8" y="6" width="1" height="2" fill="#D9D9D9"/>
<rect x="3" y="5" width="1" height="2" transform="rotate(180 3 5)" fill="#D9D9D9"/>
<rect x="3" y="11" width="1" height="2" transform="rotate(180 3 11)" fill="#D9D9D9"/>
<rect x="9" y="5" width="1" height="2" transform="rotate(180 9 5)" fill="#D9D9D9"/>
<rect x="9" y="11" width="1" height="2" transform="rotate(180 9 11)" fill="#D9D9D9"/>
</g>
</pattern></defs>
</svg>
