<svg width="60" height="60" viewBox="0 0 60 60" fill="none" xmlns="http://www.w3.org/2000/svg" xmlns:xlink="http://www.w3.org/1999/xlink">
<rect width="60" height="60" fill="url(#pattern0_2021_441)" fill-opacity="0.1"/>
<path fill-rule="evenodd" clip-rule="evenodd" d="M4.98106 2.00282C5.26845 1.98625 5.55361 2.04477 5.83755 2.12463C6.07496 2.19141 6.26803 2.24806 6.45426 2.3529C6.54556 2.40431 6.63049 2.46469 6.71706 2.53418L6.99041 2.77013L7.21292 2.99265C7.43597 3.23493 7.65922 3.53388 7.85457 3.8367C8.11565 4.24142 8.3522 4.69224 8.48183 5.07974L8.55664 5.32432C8.73113 5.95458 8.90741 6.95119 8.92974 7.44978L8.9307 7.45554C8.93729 7.65412 8.97805 7.9701 9.0151 8.13461L9.0525 8.27081C9.06241 8.29755 9.07034 8.31017 9.07744 8.32068C9.10251 8.3577 9.15339 8.41365 9.31914 8.55855L9.8831 8.99975C10.7695 9.67564 12.5732 11.0176 14.8417 12.6848L16.289 13.7571C16.7509 14.0999 17.2669 14.4815 17.4467 14.6098L17.4572 14.6174L18.2849 15.2332L21.4289 17.5572C26.8752 21.5832 29.1359 23.2543 29.5421 23.5547L29.544 23.5566L29.6246 23.6171C30.0596 23.942 30.9511 24.607 32.2036 25.5373L33.3757 26.4053C33.6665 26.6208 34.09 26.9265 34.3319 27.1045L34.5439 27.258L34.635 27.2273C34.799 27.1705 35.1628 27.0217 35.4704 26.8964C35.782 26.7619 36.0731 26.6611 36.3259 26.6019C36.5592 26.5474 36.8355 26.5089 37.0711 26.5751C37.202 26.6119 37.3234 26.6862 37.4078 26.7439C37.5027 26.8088 37.5996 26.8874 37.6888 26.9674C37.8089 27.075 37.9541 27.2197 38.06 27.3692L38.1501 27.5198L38.1559 27.5313C38.2217 27.6749 38.3293 28.0267 38.3985 28.2977L38.4542 28.5049C38.5073 28.6866 38.556 28.802 38.647 28.9499C38.7861 29.1761 39.0195 29.4718 39.5054 30.0731C40.4317 31.2086 40.8923 31.7698 41.2385 32.1352C41.5669 32.4819 41.7852 32.6449 42.2513 32.9793C43.0472 33.5494 44.8019 34.8335 46.6901 36.2269C47.0828 36.5156 47.7035 36.97 48.053 37.2273C48.4101 37.4827 49.1338 38.0169 49.6633 38.4099C49.9414 38.6133 50.2435 38.8374 50.517 39.0391L51.2008 39.535L51.2123 39.5427L52.8764 40.7732C54.0666 41.6562 54.7829 42.1984 55.161 42.5102L55.348 42.6704L55.3528 42.6743C56.1993 43.4555 56.6893 44.5572 56.9027 45.7934L56.9622 46.1444C56.9792 46.2591 56.9927 46.3733 56.9977 46.4907C57.0082 46.7379 56.9829 46.9879 56.9152 47.3155C56.7848 47.9461 56.4746 48.9516 55.864 50.9353C55.5416 52.0438 55.2681 52.9841 55.0593 53.6727C54.9548 54.0175 54.8648 54.3044 54.7927 54.5187C54.7568 54.6252 54.7243 54.7184 54.6949 54.794C54.676 54.8425 54.6489 54.9014 54.62 54.957L54.621 54.958C54.181 55.9174 53.0967 56.7171 52.0295 56.9175C51.1953 57.0911 50.5057 56.9922 49.6528 56.6067C49.1799 56.3968 48.7262 56.0208 48.3772 55.5996C48.0427 55.1959 47.7648 54.7013 47.6789 54.2041C47.624 54.0249 47.5867 53.8553 47.6022 53.6535C47.6162 53.4725 47.6744 53.2832 47.7326 53.0829L47.7374 53.0656L47.7442 53.0483C47.9339 52.5389 48.208 52.1404 48.8548 51.5636C49.4818 51.0044 50.4948 50.245 52.1916 49.019C52.837 48.5274 53.1676 47.9883 53.1948 47.5889V47.586C53.2176 47.2808 53.2104 47.1214 53.1843 47.0182C53.1649 46.9418 53.1309 46.8792 53.0298 46.788C52.8754 46.6487 52.8354 46.6438 52.7824 46.6403C52.6652 46.6327 52.4581 46.6669 51.9662 46.8053L51.9537 46.8082C50.1663 47.2574 48.3418 47.1108 46.6066 46.3698C45.6064 45.9434 45.0442 45.5995 44.3489 44.9848L44.347 44.9829C43.6619 44.3692 43.1578 43.6645 42.5055 42.4805L42.5045 42.4776C42.3001 42.1012 42.199 41.9293 42.117 41.8216C42.0538 41.7385 42.0021 41.6941 41.8571 41.5943C41.6585 41.4633 41.5132 41.3916 41.3756 41.3506C41.2383 41.3098 41.0817 41.2908 40.852 41.295C40.3572 41.3111 40.042 41.456 39.8794 41.6278C39.8123 41.7031 39.779 41.7474 39.724 41.8772C39.6537 42.0434 39.5631 42.3123 39.3903 42.8479L39.3912 42.8488C39.2649 43.2481 39.1595 43.5583 39.0728 43.7821C39.0297 43.8933 38.988 43.9915 38.9481 44.0717C38.9162 44.1359 38.8597 44.244 38.7736 44.3278L38.7716 44.3288C38.609 44.4857 38.3833 44.5807 38.2029 44.6309C38.0277 44.6796 37.7769 44.7196 37.5497 44.6558C37.5445 44.6545 37.4446 44.6314 37.3502 44.582C37.2513 44.5301 37.1676 44.4588 37.0874 44.3786C36.9341 44.2253 36.7059 43.9481 36.3105 43.4358C35.5085 42.3965 33.941 40.2914 30.7352 35.9919C24.3199 27.3984 22.9914 25.629 22.4254 24.9033L22.4245 24.9014L22.3621 24.8208C22.0675 24.4409 21.5026 23.7125 21.051 23.1365L21.0491 23.1346C20.8085 22.8236 20.5708 22.5239 20.3816 22.2935C20.2867 22.1779 20.2056 22.082 20.1437 22.0115L20.066 21.9242C20.063 21.9218 20.0601 21.9196 20.0574 21.9175C20.0226 21.9217 19.9747 21.9285 19.903 21.9405C19.7854 21.9634 19.5067 22.0496 19.2105 22.1525L18.9074 22.2618C18.4216 22.4436 18.0405 22.5633 17.6951 22.609C17.3303 22.6572 17.0254 22.6207 16.6938 22.5275C16.3994 22.4447 16.1759 22.3562 15.8728 22.1141C15.605 21.9002 15.2616 21.5558 14.7007 20.9833L14.6988 20.9813C14.3073 20.5776 14.0503 20.2987 13.7963 19.956C13.5455 19.6177 13.3043 19.2252 12.934 18.6017C12.3604 17.6399 11.4574 16.3967 10.637 15.4442L10.635 15.4423C10.0549 14.7629 9.92413 14.6406 9.14074 14.0132C8.2525 13.3073 7.19107 12.3143 6.17708 11.2662L6.17516 11.2643C5.85534 10.9297 5.60155 10.6592 5.40979 10.4337C5.22071 10.2113 5.06744 10.0042 4.97051 9.79392C4.86528 9.56556 4.83022 9.3431 4.85925 9.10814C4.88534 8.89758 4.96232 8.69218 5.03765 8.50196L5.03957 8.49716C5.23117 8.02568 5.32345 7.76565 5.36087 7.59173C5.39104 7.45137 5.38033 7.39393 5.35512 7.31742L5.35416 7.31358C5.31834 7.20175 5.28447 7.1416 5.25057 7.09969C5.21777 7.05923 5.16338 7.00946 5.05012 6.95103C4.7978 6.82099 4.35823 6.69534 3.51266 6.50695L2.61876 6.30744L2.40584 6.26045L2.29842 6.0715L2.16031 5.82787C2.1054 5.73157 2.04692 5.61243 2.01836 5.47203C1.98789 5.32213 1.99628 5.17597 2.03658 5.03179C2.10611 4.78334 2.27939 4.5242 2.48161 4.23762C3.16254 3.27077 3.65282 2.63073 4.13896 2.29919C4.40468 2.11807 4.67864 2.02031 4.98106 2.00282ZM5.09232 3.4751C5.01373 3.48862 4.98527 3.49788 4.96668 3.50675C4.94933 3.51506 4.91472 3.53483 4.84966 3.59787C4.70137 3.74161 4.48695 4.01573 4.05648 4.59442L4.05456 4.59634C3.90971 4.78904 3.79837 4.94023 3.71311 5.06056C4.58875 5.27753 5.08879 5.40449 5.39636 5.50464C5.56235 5.55871 5.69746 5.61203 5.81549 5.68017C5.93822 5.75103 6.02334 5.82632 6.09555 5.89405L6.22887 6.02737C6.53051 6.34888 6.76112 6.74829 6.84079 7.14477L6.85613 7.24836C6.88052 7.49728 6.82913 7.794 6.76502 8.04829C6.68566 8.36298 6.56083 8.71006 6.40727 9.01606L6.40631 9.01702C6.35397 9.12079 6.33802 9.16565 6.33245 9.18487C6.33396 9.18836 6.33554 9.19298 6.33821 9.1983C6.36519 9.25191 6.42846 9.3443 6.57319 9.51002C6.71429 9.67156 6.90918 9.87671 7.17743 10.1555C8.25303 11.2743 8.66206 11.6892 9.0832 12.0546L9.53302 12.4277L9.53398 12.4287C10.7753 13.4305 11.6587 14.2876 12.3567 15.1929C13.0518 16.093 13.4445 16.6403 13.8682 17.3098L14.3142 18.0377L14.3152 18.0387C14.7507 18.7699 14.9748 19.1031 15.445 19.6155L16.0147 20.2092L16.0157 20.2112C16.315 20.519 16.5712 20.7589 16.7715 20.9257C16.8718 21.0093 16.9528 21.0696 17.0141 21.1099C17.0832 21.1553 17.1003 21.1564 17.0784 21.1502C17.1425 21.1681 17.2714 21.1799 17.4918 21.1415C17.7074 21.104 17.9809 21.0237 18.3156 20.8921L18.3214 20.8902C19.0001 20.6332 19.5366 20.4721 19.9797 20.4557C20.2121 20.4472 20.4318 20.4774 20.6396 20.5612C20.8469 20.645 21.0168 20.7714 21.1632 20.92C21.2478 21.0056 21.4454 21.2485 21.6879 21.553C21.9413 21.8712 22.2701 22.2902 22.6326 22.7567C23.3579 23.69 24.2237 24.8187 24.9095 25.7262L24.9105 25.7281C25.4682 26.4719 26.1709 27.4016 26.7338 28.1461C27.0151 28.5183 27.2616 28.8439 27.4378 29.0765C27.5257 29.1926 27.5955 29.2859 27.644 29.3499C27.6682 29.3818 27.6869 29.407 27.6996 29.4237C27.7059 29.4321 27.7108 29.4386 27.714 29.4429C27.7156 29.445 27.717 29.4466 27.7178 29.4477L27.7188 29.4487L27.7245 29.4554L27.7361 29.4707C27.7438 29.4812 27.7547 29.4973 27.7696 29.5177C27.7996 29.5585 27.8439 29.6187 27.9001 29.6952C28.0124 29.8481 28.1732 30.0675 28.3681 30.332C28.7583 30.8613 29.284 31.5724 29.826 32.3002L29.8758 32.3664L31.3663 34.37C31.7728 34.9195 32.0568 35.3069 32.1202 35.3992L32.1269 35.4088L32.3273 35.6927L32.5316 35.9497L32.5403 35.9603C32.7312 36.19 34.3975 38.3948 35.6478 40.0817C36.8387 41.6844 37.4622 42.5234 37.8096 42.9534C37.8663 42.7893 37.9366 42.5802 38.0168 42.3203C38.1119 42.0054 38.213 41.6978 38.3007 41.4533C38.3445 41.331 38.386 41.2208 38.4225 41.132C38.4457 41.0756 38.4793 41.0023 38.5156 40.9372C38.6502 40.6673 38.833 40.4746 38.9778 40.3512C39.0511 40.2888 39.1178 40.241 39.1677 40.2083C39.1925 40.1922 39.2138 40.1794 39.2301 40.1699C39.2382 40.1652 39.2455 40.1606 39.2512 40.1575C39.2539 40.156 39.2567 40.1548 39.2589 40.1536C39.2597 40.1532 39.261 40.153 39.2617 40.1527L39.2637 40.1517L39.2646 40.1508L39.3039 40.1306L39.3452 40.1172C39.9062 39.9406 40.3181 39.8369 40.6927 39.8141C41.0833 39.7904 41.4036 39.8558 41.7737 39.9599C42.2199 40.082 42.5758 40.2156 42.9141 40.5382C43.2235 40.8335 43.4951 41.2683 43.8617 41.8993C44.3362 42.7077 44.7194 43.2553 45.1229 43.6785C45.5209 44.0958 45.9533 44.4079 46.5424 44.7239L46.8445 44.8688C47.1774 45.0154 47.5963 45.1648 48.0213 45.2898C48.5938 45.4582 49.1212 45.5652 49.4255 45.5766C50.1966 45.5958 50.9775 45.5275 51.43 45.4203C51.6875 45.3311 52.0533 45.2403 52.2817 45.2045C52.9004 45.1056 53.4833 45.2496 53.9295 45.615C54.3716 45.9771 54.6372 46.522 54.6987 47.1525L54.7121 47.3098C54.7292 47.6578 54.6584 47.8907 54.5414 48.2929C54.2802 49.1904 53.7737 49.6927 52.722 50.4817L52.72 50.4836L52.509 50.6399C51.1361 51.6581 50.3873 52.2136 49.9396 52.5918C49.5131 52.9521 49.4003 53.1169 49.2826 53.3495L49.272 53.3706L49.2596 53.3907C49.1963 53.4907 49.1557 53.5561 49.1282 53.6056C49.1139 53.6313 49.1062 53.6475 49.1023 53.6564L49.1186 53.7696L49.1224 53.7955L49.1243 53.8224C49.1479 54.2154 49.4038 54.6518 49.8532 54.9983C50.295 55.3387 50.8663 55.5439 51.4166 55.5248C51.921 55.4933 52.2899 55.3477 52.7335 55.028C52.9137 54.8728 53.0054 54.7947 53.0874 54.6933C53.1653 54.5968 53.2477 54.4621 53.3569 54.1926C53.5845 53.6305 53.8801 52.6171 54.505 50.4692L55.5667 46.8158L55.5216 46.4139L55.5197 46.3986L55.5187 46.3823C55.5073 46.1408 55.4347 45.7811 55.3192 45.4107C55.2034 45.0391 55.0602 44.7064 54.9318 44.5081L54.9078 44.4726L54.8915 44.4333C54.8914 44.4333 54.8879 44.4255 54.879 44.4103C54.87 44.3949 54.8578 44.3754 54.8416 44.3518C54.8085 44.3035 54.7653 44.2459 54.715 44.1839C54.6161 44.0623 54.5012 43.9363 54.4081 43.8415C54.3364 43.7732 54.1149 43.5925 53.7079 43.2776C53.3062 42.9667 52.7452 42.5415 52.0189 41.9981C50.5664 40.9112 48.4582 39.3552 45.6552 37.3031C45.2998 37.0489 44.6082 36.5443 44.1206 36.1818L42.0345 34.6597C41.2954 34.1229 40.8189 33.7586 40.3877 33.3533C39.956 32.9474 39.5789 32.5096 39.0277 31.836C38.1897 30.8159 37.724 30.2411 37.4452 29.8083C37.2186 29.4566 37.1099 29.1895 37.0193 28.878L36.9311 28.5471C36.8676 28.2943 36.8375 28.2066 36.815 28.1634C36.809 28.1518 36.8062 28.1489 36.8035 28.1461C36.7973 28.1397 36.7815 28.1257 36.7393 28.0953L36.7335 28.0905C36.6833 28.0532 36.66 28.0407 36.652 28.0368C36.6479 28.037 36.6416 28.0384 36.6328 28.0397C36.5209 28.0557 36.3186 28.1291 35.8214 28.3437L35.8195 28.3447C35.5373 28.4655 35.2977 28.566 35.0925 28.6334C34.8856 28.7013 34.6788 28.748 34.4643 28.7398C34.1337 28.7272 33.8612 28.5828 33.5963 28.4003L33.3315 28.2085C33.061 28.0069 31.6573 26.9688 30.2125 25.9056C28.8641 24.9107 27.6671 24.015 27.4665 23.8578L25.5071 22.4124C24.4954 21.6702 23.4767 20.919 23.2474 20.7473C23.0212 20.578 22.5347 20.2162 22.1694 19.9484C21.8009 19.6782 21.1498 19.1959 20.7221 18.876C19.3997 17.8929 18.3606 17.1259 16.5854 15.8173L16.3044 15.6111L16.3034 15.6102C15.2494 14.8297 14.1788 14.0377 13.9171 13.8444L13.9095 13.8386C13.6551 13.6434 12.4 12.7157 11.1136 11.7688L11.1117 11.7669C9.8475 10.8261 8.62638 9.90575 8.41949 9.72774L8.41853 9.72678C8.08195 9.43573 7.82494 9.16825 7.66467 8.75421C7.51773 8.37445 7.46659 7.9023 7.41817 7.2474L7.41721 7.24453C7.33366 6.0473 6.95911 5.01699 6.40151 4.32106C6.14589 4.00405 6.00049 3.84238 5.87975 3.73982C5.77541 3.65121 5.68015 3.59844 5.49994 3.52977C5.374 3.48179 5.31325 3.46766 5.27167 3.46263C5.23553 3.45828 5.19025 3.45834 5.09232 3.4751Z" fill="white"/>
<defs>
<pattern id="pattern0_2021_441" patternUnits="userSpaceOnUse" patternTransform="matrix(12 0 0 12 0 0)" preserveAspectRatio="none" viewBox="0 0 12 12" width="1" height="1">
<g id="pattern0_2021_441_inner">
<rect y="2" width="3" height="1" fill="#D9D9D9"/>
<rect y="8" width="3" height="1" fill="#D9D9D9"/>
<rect x="6" y="2" width="3" height="1" fill="#D9D9D9"/>
<rect x="6" y="8" width="3" height="1" fill="#D9D9D9"/>
<rect x="5" y="3" width="3" height="1" transform="rotate(180 5 3)" fill="#D9D9D9"/>
<rect x="5" y="9" width="3" height="1" transform="rotate(180 5 9)" fill="#D9D9D9"/>
<rect x="11" y="3" width="3" height="1" transform="rotate(180 11 3)" fill="#D9D9D9"/>
<rect x="11" y="9" width="3" height="1" transform="rotate(180 11 9)" fill="#D9D9D9"/>
<rect x="2" width="1" height="2" fill="#D9D9D9"/>
<rect x="2" y="6" width="1" height="2" fill="#D9D9D9"/>
<rect x="8" width="1" height="2" fill="#D9D9D9"/>
<rect x="8" y="6" width="1" height="2" fill="#D9D9D9"/>
<rect x="3" y="5" width="1" height="2" transform="rotate(180 3 5)" fill="#D9D9D9"/>
<rect x="3" y="11" width="1" height="2" transform="rotate(180 3 11)" fill="#D9D9D9"/>
<rect x="9" y="5" width="1" height="2" transform="rotate(180 9 5)" fill="#D9D9D9"/>
<rect x="9" y="11" width="1" height="2" transform="rotate(180 9 11)" fill="#D9D9D9"/>
</g>
</pattern></defs>
</svg>
