<svg width="60" height="60" viewBox="0 0 60 60" fill="none" xmlns="http://www.w3.org/2000/svg" xmlns:xlink="http://www.w3.org/1999/xlink">
<rect width="60" height="60" fill="url(#pattern0_176_51)" fill-opacity="0.1"/>
<path fill-rule="evenodd" clip-rule="evenodd" d="M5.87266 3.00271C6.1496 2.98675 6.42439 3.04314 6.698 3.1201C6.92678 3.18445 7.11283 3.23904 7.29229 3.34007C7.38026 3.38961 7.46211 3.44779 7.54553 3.51476L7.80894 3.74213L8.02336 3.95655C8.2383 4.19002 8.45343 4.4781 8.64168 4.76991C8.89326 5.15992 9.12121 5.59434 9.24613 5.96775L9.31822 6.20344C9.48636 6.81078 9.65624 7.77114 9.67775 8.25161L9.67867 8.25715C9.68502 8.44851 9.7243 8.753 9.76 8.91153L9.79605 9.04278C9.80559 9.06855 9.81324 9.08071 9.82008 9.09084C9.84424 9.12651 9.89327 9.18042 10.053 9.32006L10.5964 9.74522C11.4506 10.3965 13.1887 11.6897 15.3747 13.2962L16.7694 14.3296C17.2145 14.6599 17.7117 15.0277 17.885 15.1512L17.8951 15.1586L18.6928 15.752L21.7224 17.9915C26.9707 21.8711 29.1491 23.4814 29.5405 23.7709L29.5424 23.7728L29.62 23.831C30.0393 24.1441 30.8983 24.7849 32.1053 25.6814L33.2347 26.5178C33.515 26.7255 33.9231 27.02 34.1562 27.1916L34.3604 27.3395L34.4482 27.3099C34.6063 27.2552 34.9569 27.1119 35.2533 26.9911C35.5535 26.8615 35.8341 26.7643 36.0777 26.7073C36.3025 26.6548 36.5687 26.6176 36.7958 26.6814C36.9219 26.7169 37.0389 26.7885 37.1202 26.8441C37.2117 26.9067 37.305 26.9824 37.391 27.0594C37.5068 27.1631 37.6467 27.3026 37.7487 27.4467L37.8356 27.5918L37.8411 27.6029C37.9046 27.7413 38.0082 28.0803 38.075 28.3414L38.1286 28.541C38.1798 28.7161 38.2267 28.8274 38.3143 28.9699C38.4484 29.1878 38.6734 29.4729 39.1415 30.0522C40.0342 31.1465 40.4781 31.6872 40.8116 32.0394C41.1281 32.3734 41.3384 32.5305 41.7876 32.8527C42.5546 33.4022 44.2455 34.6395 46.065 35.9823C46.4434 36.2605 47.0416 36.6984 47.3783 36.9463C47.7224 37.1924 48.4198 37.7072 48.9301 38.0859C49.198 38.2819 49.4892 38.4979 49.7527 38.6922L50.4117 39.1701L50.4228 39.1775L52.0263 40.3633C53.1733 41.2142 53.8635 41.7366 54.2279 42.0371L54.4081 42.1915L54.4127 42.1952C55.2284 42.948 55.7006 44.0097 55.9063 45.2009L55.9636 45.5392C55.98 45.6497 55.9929 45.7597 55.9978 45.8728C56.0079 46.1111 55.9836 46.352 55.9183 46.6677C55.7926 47.2754 55.4937 48.2443 54.9053 50.1559C54.5946 51.224 54.3311 52.1301 54.1299 52.7937C54.0292 53.1259 53.9425 53.4024 53.873 53.6089C53.8384 53.7115 53.807 53.8014 53.7787 53.8742C53.7605 53.9209 53.7344 53.9777 53.7066 54.0313L53.7075 54.0322C53.2835 54.9568 52.2386 55.7274 51.2102 55.9205C50.4064 56.0878 49.7419 55.9925 48.92 55.621C48.4643 55.4188 48.027 55.0564 47.6907 54.6506C47.3684 54.2615 47.1006 53.7849 47.0179 53.3058C46.9649 53.1331 46.929 52.9696 46.9439 52.7752C46.9574 52.6008 47.0135 52.4183 47.0696 52.2253L47.0743 52.2087L47.0807 52.192C47.2635 51.7012 47.5277 51.3171 48.151 50.7613C48.7552 50.2224 49.7314 49.4907 51.3664 48.3092C51.9884 47.8355 52.3069 47.316 52.3332 46.9311V46.9283C52.3551 46.6343 52.3482 46.4806 52.323 46.3812C52.3043 46.3076 52.2716 46.2472 52.1742 46.1594C52.0254 46.0251 51.9868 46.0204 51.9358 46.017C51.8228 46.0097 51.6232 46.0427 51.1492 46.176L51.1372 46.1788C49.4148 46.6117 47.6567 46.4704 45.9846 45.7564C45.0207 45.3454 44.4789 45.014 43.8089 44.4217L43.8071 44.4199C43.1469 43.8285 42.6612 43.1494 42.0325 42.0085L42.0316 42.0057C41.8346 41.643 41.7373 41.4773 41.6582 41.3735C41.5973 41.2935 41.5475 41.2506 41.4078 41.1545C41.2164 41.0283 41.0763 40.9592 40.9438 40.9197C40.8114 40.8803 40.6606 40.8621 40.4392 40.8661C39.9624 40.8816 39.6586 41.0213 39.502 41.1868C39.4373 41.2593 39.4052 41.3021 39.3523 41.4271C39.2845 41.5873 39.1972 41.8464 39.0306 42.3625L39.0315 42.3634C38.9098 42.7482 38.8083 43.0471 38.7247 43.2627C38.6832 43.3699 38.643 43.4645 38.6045 43.5418C38.5738 43.6037 38.5194 43.7079 38.4363 43.7886L38.4345 43.7895C38.2777 43.9408 38.0603 44.0323 37.8864 44.0807C37.7176 44.1276 37.4759 44.1661 37.257 44.1047C37.252 44.1034 37.1557 44.0812 37.0648 44.0335C36.9694 43.9835 36.8887 43.9148 36.8115 43.8376C36.6638 43.6898 36.4439 43.4227 36.0629 42.9291C35.29 41.9275 33.7795 39.899 30.6903 35.7558C24.5082 27.4749 23.2281 25.7698 22.6827 25.0704L22.6818 25.0686L22.6217 24.9909C22.3378 24.6249 21.7934 23.923 21.3583 23.3679L21.3564 23.3661C21.1245 23.0663 20.8955 22.7776 20.7131 22.5555C20.6217 22.4442 20.5436 22.3517 20.4839 22.2838L20.4091 22.1997C20.4062 22.1974 20.4033 22.1952 20.4008 22.1932C20.3672 22.1973 20.3211 22.2038 20.252 22.2154C20.1387 22.2375 19.8701 22.3205 19.5847 22.4196L19.2926 22.525C18.8245 22.7002 18.4572 22.8156 18.1244 22.8596C17.7728 22.906 17.479 22.8709 17.1595 22.781C16.8758 22.7012 16.6604 22.6159 16.3683 22.3827C16.1103 22.1766 15.7793 21.8447 15.2389 21.293L15.237 21.2911C14.8597 20.902 14.6121 20.6333 14.3673 20.3031C14.1257 19.9771 13.8933 19.5988 13.5364 18.998C12.9836 18.0711 12.1135 16.8732 11.3229 15.9553L11.321 15.9535C10.762 15.2988 10.636 15.181 9.88108 14.5763C9.02514 13.8961 8.00231 12.9392 7.02518 11.9293L7.02334 11.9274C6.71515 11.605 6.47059 11.3443 6.28579 11.127C6.1036 10.9127 5.95589 10.7131 5.86249 10.5105C5.76108 10.2905 5.7273 10.0761 5.75528 9.84966C5.78042 9.64676 5.8546 9.44883 5.92719 9.26552L5.92904 9.2609C6.11367 8.80656 6.20259 8.55599 6.23866 8.3884C6.26773 8.25314 6.25741 8.19779 6.23311 8.12406L6.23219 8.12036C6.19768 8.01259 6.16504 7.95463 6.13237 7.91425C6.10076 7.87526 6.04835 7.8273 5.93921 7.77099C5.69606 7.64568 5.27247 7.5246 4.45765 7.34306L3.59626 7.15081L3.39108 7.10552L3.28757 6.92344L3.15448 6.68868C3.10157 6.59587 3.04521 6.48107 3.01769 6.34578C2.98833 6.20133 2.99642 6.06048 3.03525 5.92154C3.10225 5.68212 3.26923 5.43241 3.4641 5.15625C4.12026 4.22456 4.59272 3.60779 5.06118 3.28831C5.31724 3.11378 5.58124 3.01957 5.87266 3.00271Z" stroke="white" stroke-width="1.5" stroke-linejoin="round"/>
<defs>
<pattern id="pattern0_176_51" patternUnits="userSpaceOnUse" patternTransform="matrix(12 0 0 12 0 0)" preserveAspectRatio="none" viewBox="0 0 12 12" width="1" height="1">
<g id="pattern0_176_51_inner">
<rect y="2" width="3" height="1" fill="#D9D9D9"/>
<rect y="8" width="3" height="1" fill="#D9D9D9"/>
<rect x="6" y="2" width="3" height="1" fill="#D9D9D9"/>
<rect x="6" y="8" width="3" height="1" fill="#D9D9D9"/>
<rect x="5" y="3" width="3" height="1" transform="rotate(180 5 3)" fill="#D9D9D9"/>
<rect x="5" y="9" width="3" height="1" transform="rotate(180 5 9)" fill="#D9D9D9"/>
<rect x="11" y="3" width="3" height="1" transform="rotate(180 11 3)" fill="#D9D9D9"/>
<rect x="11" y="9" width="3" height="1" transform="rotate(180 11 9)" fill="#D9D9D9"/>
<rect x="2" width="1" height="2" fill="#D9D9D9"/>
<rect x="2" y="6" width="1" height="2" fill="#D9D9D9"/>
<rect x="8" width="1" height="2" fill="#D9D9D9"/>
<rect x="8" y="6" width="1" height="2" fill="#D9D9D9"/>
<rect x="3" y="5" width="1" height="2" transform="rotate(180 3 5)" fill="#D9D9D9"/>
<rect x="3" y="11" width="1" height="2" transform="rotate(180 3 11)" fill="#D9D9D9"/>
<rect x="9" y="5" width="1" height="2" transform="rotate(180 9 5)" fill="#D9D9D9"/>
<rect x="9" y="11" width="1" height="2" transform="rotate(180 9 11)" fill="#D9D9D9"/>
</g>
</pattern></defs>
</svg>
