<svg width="60" height="60" viewBox="0 0 60 60" fill="none" xmlns="http://www.w3.org/2000/svg" xmlns:xlink="http://www.w3.org/1999/xlink">
<rect width="60" height="60" fill="url(#pattern0_246_7)" fill-opacity="0.1"/>
<path d="M3.00139 42.9438C3.10596 37.9684 3.58487 16.0958 3.58487 16.0958C3.58487 16.0958 3.6334 15.7677 3.66132 15.6796C3.86488 15.0367 4.29114 14.5073 4.77349 14.0361C5.24856 13.572 5.64029 13.3138 6.27811 13.1288C6.90676 12.9465 7.69654 12.968 8.33103 13.1288C8.82584 13.2542 9.29839 13.5461 9.67754 13.8879C10.3171 14.4644 10.7361 15.1497 11.0767 15.9405C11.5309 16.995 11.5135 17.3601 11.6276 18.2357C11.6427 18.3513 11.7083 18.7598 11.7136 18.9723C11.728 19.5595 11.8411 20.5922 11.9648 21.0163C12.2905 22.1326 12.6225 22.6931 13.0067 23.507C13.4737 24.4964 14.2691 25.5678 14.5392 26.4095C14.9135 27.5755 15.074 28.8454 15.0232 30.069C14.978 31.1574 14.5677 32.1876 14.4201 33.2669C14.2626 34.4181 14.1021 35.8519 14.364 36.9839C14.6019 38.0121 14.9842 38.7862 15.7666 39.4945C16.6168 40.2643 17.7645 40.8141 18.9084 40.8972C20.4201 41.0069 21.9791 40.2974 23.2449 39.4645C24.2907 38.7764 24.8674 37.4746 25.826 36.6695C26.7765 35.8712 27.4448 35.1524 28.6074 34.8512C29.4229 34.6399 31.4198 34.894 31.4198 34.894L52.0058 36.8539C52.0058 36.8539 52.381 36.914 52.5628 36.9673C53.5087 37.2447 54.5497 37.4211 55.3203 38.0358C56.0258 38.5987 56.5711 39.417 56.8351 40.28C57.0649 41.0311 57.0448 41.8794 56.8351 42.6364C56.6023 43.4771 56.1004 44.2586 55.4886 44.8806C54.6698 45.713 53.578 46.2488 52.5151 46.732C51.4355 47.2228 50.2804 47.5653 49.1125 47.7714C48.2232 47.9283 46.4072 47.9143 46.4072 47.9143L6.29894 47.8681C5.45517 47.8812 4.26373 47.6223 3.77975 47.0817C3.18682 46.3859 3.05378 45.3691 3.0221 44.446C3.00822 43.8915 2.99575 43.3795 3.00139 42.9438Z" stroke="white" stroke-width="1.5"/>
<defs>
<pattern id="pattern0_246_7" patternUnits="userSpaceOnUse" patternTransform="matrix(12 0 0 12 0 0)" preserveAspectRatio="none" viewBox="0 0 12 12" width="1" height="1">
<g id="pattern0_246_7_inner">
<rect y="2" width="3" height="1" fill="#D9D9D9"/>
<rect y="8" width="3" height="1" fill="#D9D9D9"/>
<rect x="6" y="2" width="3" height="1" fill="#D9D9D9"/>
<rect x="6" y="8" width="3" height="1" fill="#D9D9D9"/>
<rect x="5" y="3" width="3" height="1" transform="rotate(180 5 3)" fill="#D9D9D9"/>
<rect x="5" y="9" width="3" height="1" transform="rotate(180 5 9)" fill="#D9D9D9"/>
<rect x="11" y="3" width="3" height="1" transform="rotate(180 11 3)" fill="#D9D9D9"/>
<rect x="11" y="9" width="3" height="1" transform="rotate(180 11 9)" fill="#D9D9D9"/>
<rect x="2" width="1" height="2" fill="#D9D9D9"/>
<rect x="2" y="6" width="1" height="2" fill="#D9D9D9"/>
<rect x="8" width="1" height="2" fill="#D9D9D9"/>
<rect x="8" y="6" width="1" height="2" fill="#D9D9D9"/>
<rect x="3" y="5" width="1" height="2" transform="rotate(180 3 5)" fill="#D9D9D9"/>
<rect x="3" y="11" width="1" height="2" transform="rotate(180 3 11)" fill="#D9D9D9"/>
<rect x="9" y="5" width="1" height="2" transform="rotate(180 9 5)" fill="#D9D9D9"/>
<rect x="9" y="11" width="1" height="2" transform="rotate(180 9 11)" fill="#D9D9D9"/>
</g>
</pattern></defs>
</svg>
