<svg width="60" height="60" viewBox="0 0 60 60" fill="none" xmlns="http://www.w3.org/2000/svg" xmlns:xlink="http://www.w3.org/1999/xlink">
<rect width="60" height="60" fill="url(#pattern0_82_129)" fill-opacity="0.1"/>
<path d="M48.5 40C47.5 37 45.5 34.5 42 34.5H10.1491C9.71918 34.5 9.29207 34.4307 8.8842 34.2947L6.12064 33.3735C5.38916 33.1297 4.74374 32.6797 4.26207 32.0776L3.70555 31.3819C3.2442 30.8053 2.95151 30.1121 2.85991 29.3793L2.59268 27.2414C2.53142 26.7514 2.56144 26.2542 2.68122 25.7751L3.39351 22.926C3.46429 22.6428 3.56585 22.3683 3.69637 22.1073L4.36933 20.7613C4.77314 19.9537 5.48124 19.3396 6.33785 19.054C7.38094 18.7064 8.52774 18.8838 9.41695 19.5305L11.7162 21.2027C12.4113 21.7082 13.3781 21.1594 13.3003 20.3035L13.103 18.1332C13.0357 17.3924 13.1762 16.6475 13.5089 15.9822L13.7924 15.4152C13.9303 15.1393 14.0997 14.8803 14.2972 14.6434L15.6723 12.9932C16.2079 12.3505 16.9474 11.9105 17.7677 11.7465C18.5664 11.5867 19.3955 11.6978 20.124 12.062L21.5848 12.7924C21.8607 12.9303 22.1197 13.0997 22.3566 13.2972L27.2197 17.3498C27.7318 17.7765 28.3424 18.0685 28.996 18.1992L29.891 18.3782C30.2946 18.4589 30.7082 18.4769 31.1172 18.4314L35 18H37.7953C38.2615 18 38.7241 18.0815 39.1623 18.2408L43.4089 19.7851C43.7982 19.9266 44.1518 20.1518 44.4447 20.4447L44.5211 20.5211C44.8345 20.8345 45.0568 21.2271 45.1642 21.657L45.2029 21.8115C45.3872 22.5488 45.1712 23.3288 44.6337 23.8663C44.228 24.272 43.6776 24.5 43.1038 24.5H40.4924C40.1654 24.5 39.8396 24.5401 39.5223 24.6194L36.4225 25.3944C36.1543 25.4614 35.9289 25.6423 35.8052 25.8895C35.6229 26.2541 35.6944 26.6944 35.9826 26.9826L36.1775 27.1775C36.3865 27.3865 36.6593 27.5199 36.9526 27.5566L43.6075 28.3884C44.1952 28.4619 44.7592 28.6649 45.2588 28.9829L49.2877 31.5467C49.7574 31.8456 50.1578 32.2361 50.4602 32.7036C51.569 34.4176 54.4136 38.9307 56 42.5C57.0031 44.757 56.5 48 54 48.5C50.123 49.2754 49.7503 43.7509 48.5 40Z" stroke="white" stroke-width="1.5"/>
<defs>
<pattern id="pattern0_82_129" patternUnits="userSpaceOnUse" patternTransform="matrix(12 0 0 12 0 0)" preserveAspectRatio="none" viewBox="0 0 12 12" width="1" height="1">
<g id="pattern0_82_129_inner">
<rect y="2" width="3" height="1" fill="#D9D9D9"/>
<rect y="8" width="3" height="1" fill="#D9D9D9"/>
<rect x="6" y="2" width="3" height="1" fill="#D9D9D9"/>
<rect x="6" y="8" width="3" height="1" fill="#D9D9D9"/>
<rect x="5" y="3" width="3" height="1" transform="rotate(180 5 3)" fill="#D9D9D9"/>
<rect x="5" y="9" width="3" height="1" transform="rotate(180 5 9)" fill="#D9D9D9"/>
<rect x="11" y="3" width="3" height="1" transform="rotate(180 11 3)" fill="#D9D9D9"/>
<rect x="11" y="9" width="3" height="1" transform="rotate(180 11 9)" fill="#D9D9D9"/>
<rect x="2" width="1" height="2" fill="#D9D9D9"/>
<rect x="2" y="6" width="1" height="2" fill="#D9D9D9"/>
<rect x="8" width="1" height="2" fill="#D9D9D9"/>
<rect x="8" y="6" width="1" height="2" fill="#D9D9D9"/>
<rect x="3" y="5" width="1" height="2" transform="rotate(180 3 5)" fill="#D9D9D9"/>
<rect x="3" y="11" width="1" height="2" transform="rotate(180 3 11)" fill="#D9D9D9"/>
<rect x="9" y="5" width="1" height="2" transform="rotate(180 9 5)" fill="#D9D9D9"/>
<rect x="9" y="11" width="1" height="2" transform="rotate(180 9 11)" fill="#D9D9D9"/>
</g>
</pattern></defs>
</svg>
