<svg width="60" height="60" viewBox="0 0 60 60" fill="none" xmlns="http://www.w3.org/2000/svg" xmlns:xlink="http://www.w3.org/1999/xlink">
<rect width="60" height="60" fill="url(#pattern0_82_129)" fill-opacity="0.1"/>
<path d="M49.0769 39.8076C48.0769 36.8076 46.0769 34.3076 42.5769 34.3076H10.726C10.2961 34.3076 9.86897 34.2383 9.4611 34.1024L6.69754 33.1812C5.96607 32.9373 5.32065 32.4873 4.83898 31.8852L4.28245 31.1896C3.82111 30.6129 3.52842 29.9197 3.43682 29.1869L3.16958 27.049C3.10833 26.559 3.13835 26.0619 3.25812 25.5827L3.97041 22.7336C4.04119 22.4505 4.14275 22.1759 4.27327 21.9149L4.94623 20.569C5.35005 19.7613 6.05814 19.1472 6.91476 18.8617C7.95785 18.514 9.10464 18.6914 9.99385 19.3381L12.2932 21.0103C12.9882 21.5159 13.955 20.967 13.8772 20.1111L13.6799 17.9408C13.6126 17.2001 13.7531 16.4552 14.0858 15.7898L14.3693 15.2229C14.5072 14.947 14.6766 14.6879 14.8741 14.451L16.2492 12.8008C16.7848 12.1581 17.5243 11.7181 18.3446 11.5541C19.1433 11.3943 19.9724 11.5054 20.7009 11.8696L22.1617 12.6C22.4376 12.7379 22.6966 12.9073 22.9335 13.1048L27.7966 17.1574C28.3087 17.5841 28.9193 17.8761 29.5729 18.0068L30.4679 18.1858C30.8715 18.2665 31.2851 18.2845 31.6941 18.239L35.5769 17.8076H38.3722C38.8384 17.8076 39.301 17.8891 39.7392 18.0484L43.9858 19.5927C44.3751 19.7342 44.7287 19.9594 45.0216 20.2524L45.098 20.3287C45.4114 20.6421 45.6337 21.0347 45.7412 21.4646L45.7798 21.6191C45.9641 22.3565 45.7481 23.1365 45.2106 23.6739C44.8049 24.0797 44.2545 24.3076 43.6807 24.3076H41.0693C40.7423 24.3076 40.4165 24.3477 40.0992 24.427L36.9994 25.202C36.7312 25.269 36.5058 25.4499 36.3821 25.6972C36.1999 26.0617 36.2713 26.502 36.5595 26.7902L36.7544 26.9851C36.9634 27.1941 37.2362 27.3275 37.5295 27.3642L44.1844 28.1961C44.7721 28.2695 45.3361 28.4726 45.8358 28.7905L49.8646 31.3543C50.3343 31.6532 50.7347 32.0437 51.0371 32.5112C52.1459 34.2253 54.9905 38.7383 56.5769 42.3076C57.58 44.5646 57.0769 47.8076 54.5769 48.3076C50.6999 49.083 50.3272 43.5585 49.0769 39.8076Z" stroke="white" stroke-width="1.5"/>
<defs>
<pattern id="pattern0_82_129" patternUnits="userSpaceOnUse" patternTransform="matrix(12 0 0 12 0 0)" preserveAspectRatio="none" viewBox="0 0 12 12" width="1" height="1">
<g id="pattern0_82_129_inner">
<rect y="2" width="3" height="1" fill="#D9D9D9"/>
<rect y="8" width="3" height="1" fill="#D9D9D9"/>
<rect x="6" y="2" width="3" height="1" fill="#D9D9D9"/>
<rect x="6" y="8" width="3" height="1" fill="#D9D9D9"/>
<rect x="5" y="3" width="3" height="1" transform="rotate(180 5 3)" fill="#D9D9D9"/>
<rect x="5" y="9" width="3" height="1" transform="rotate(180 5 9)" fill="#D9D9D9"/>
<rect x="11" y="3" width="3" height="1" transform="rotate(180 11 3)" fill="#D9D9D9"/>
<rect x="11" y="9" width="3" height="1" transform="rotate(180 11 9)" fill="#D9D9D9"/>
<rect x="2" width="1" height="2" fill="#D9D9D9"/>
<rect x="2" y="6" width="1" height="2" fill="#D9D9D9"/>
<rect x="8" width="1" height="2" fill="#D9D9D9"/>
<rect x="8" y="6" width="1" height="2" fill="#D9D9D9"/>
<rect x="3" y="5" width="1" height="2" transform="rotate(180 3 5)" fill="#D9D9D9"/>
<rect x="3" y="11" width="1" height="2" transform="rotate(180 3 11)" fill="#D9D9D9"/>
<rect x="9" y="5" width="1" height="2" transform="rotate(180 9 5)" fill="#D9D9D9"/>
<rect x="9" y="11" width="1" height="2" transform="rotate(180 9 11)" fill="#D9D9D9"/>
</g>
</pattern></defs>
</svg>
