<svg width="60" height="60" viewBox="0 0 60 60" fill="none" xmlns="http://www.w3.org/2000/svg" xmlns:xlink="http://www.w3.org/1999/xlink">
<rect width="60" height="60" fill="url(#pattern0_246_6)" fill-opacity="0.1"/>
<path d="M24.3733 34.8417C30.2761 34.9299 36.2279 34.9824 42.1287 35.0666C46.7614 35.1327 48.5222 38.3286 49.3658 42.5733C49.5917 43.7074 49.5441 44.959 49.9951 45.9895C50.5661 47.2944 51.6654 48.3438 53.0854 48.5852C54.6816 48.8566 56.0332 47.7692 56.5461 46.5511C57.0868 45.2668 57.204 43.9384 56.569 42.7868C54.5805 39.1807 52.6623 35.9266 50.4896 32.4711C50.1751 31.971 49.5988 31.3252 49.1297 30.9649C48.565 30.5311 47.8557 30.1142 47.2079 29.8299C46.3873 29.4699 45.6052 29.0743 44.7134 28.9308C42.0908 28.5086 39.601 28.1968 37.1169 27.8743C36.6048 27.8078 36.2598 27.6207 36.1726 27.2113C35.9904 26.355 36.137 25.9877 36.9596 25.7056C38.1711 25.2901 39.4008 25.0029 40.6903 24.8628C42.0159 24.7189 42.9205 24.811 44.297 24.7279C44.7785 24.6989 45.4012 24.1189 45.6795 23.7726C45.9218 23.4712 46.0293 22.9 45.9719 22.4915C45.8945 21.9411 45.7232 21.4962 45.3762 21.0871C45.0174 20.664 44.4603 20.3671 43.9938 20.1992C42.0031 19.483 40.2082 18.54 38.1281 18.345C35.8929 18.1355 33.4888 18.8375 31.2282 18.8168C30.2224 18.8075 29.0916 18.6567 28.2614 18.1088C26.0949 16.6789 24.431 14.5845 22.3056 13.0409C21.5841 12.5168 20.6555 12.1747 19.7884 12.052C18.9624 11.935 17.9902 12.0115 17.2262 12.3217C16.4768 12.6259 15.714 13.226 15.2484 13.8949C14.6502 14.7543 14.2889 15.8666 14.0347 16.9066C13.7945 17.8894 13.88 18.9474 13.765 19.9632C13.7002 20.5357 13.7064 21.2325 13.4165 21.5926C13.2119 21.8468 12.5768 21.8965 12.2592 21.6937C11.3332 21.1024 10.7367 19.8652 9.76443 19.289C9.11851 18.9062 8.1929 18.9377 7.44952 19.0307C6.87436 19.1026 6.14616 19.4639 5.76378 19.9072C5.1123 20.6626 4.71498 21.5665 4.32543 22.5254C3.74105 23.9639 3.41786 25.1851 3.11209 26.6942C2.95337 27.4775 2.96532 28.6244 3.13453 29.4028C3.33991 30.3475 3.69584 31.1496 4.2471 31.9197C4.71472 32.573 5.30712 33.1486 6.04487 33.5043C6.98527 33.9577 8.23628 34.5125 9.29281 34.5384C14.2916 34.6608 19.2482 34.7651 24.3733 34.8417Z" stroke="white" stroke-width="1.5" stroke-linejoin="round"/>
<defs>
<pattern id="pattern0_246_6" patternUnits="userSpaceOnUse" patternTransform="matrix(12 0 0 12 0 0)" preserveAspectRatio="none" viewBox="0 0 12 12" width="1" height="1">
<g id="pattern0_246_6_inner">
<rect y="2" width="3" height="1" fill="#D9D9D9"/>
<rect y="8" width="3" height="1" fill="#D9D9D9"/>
<rect x="6" y="2" width="3" height="1" fill="#D9D9D9"/>
<rect x="6" y="8" width="3" height="1" fill="#D9D9D9"/>
<rect x="5" y="3" width="3" height="1" transform="rotate(180 5 3)" fill="#D9D9D9"/>
<rect x="5" y="9" width="3" height="1" transform="rotate(180 5 9)" fill="#D9D9D9"/>
<rect x="11" y="3" width="3" height="1" transform="rotate(180 11 3)" fill="#D9D9D9"/>
<rect x="11" y="9" width="3" height="1" transform="rotate(180 11 9)" fill="#D9D9D9"/>
<rect x="2" width="1" height="2" fill="#D9D9D9"/>
<rect x="2" y="6" width="1" height="2" fill="#D9D9D9"/>
<rect x="8" width="1" height="2" fill="#D9D9D9"/>
<rect x="8" y="6" width="1" height="2" fill="#D9D9D9"/>
<rect x="3" y="5" width="1" height="2" transform="rotate(180 3 5)" fill="#D9D9D9"/>
<rect x="3" y="11" width="1" height="2" transform="rotate(180 3 11)" fill="#D9D9D9"/>
<rect x="9" y="5" width="1" height="2" transform="rotate(180 9 5)" fill="#D9D9D9"/>
<rect x="9" y="11" width="1" height="2" transform="rotate(180 9 11)" fill="#D9D9D9"/>
</g>
</pattern></defs>
</svg>
