<svg width="60" height="60" viewBox="0 0 60 60" fill="none" xmlns="http://www.w3.org/2000/svg" xmlns:xlink="http://www.w3.org/1999/xlink">
<rect width="60" height="60" fill="url(#pattern0_139_1157)" fill-opacity="0.1"/>
<path fill-rule="evenodd" clip-rule="evenodd" d="M36.5042 18.6232C37.0696 18.558 37.6981 18.5459 38.176 18.672L38.3714 18.7345L38.551 18.8126C38.9649 19.0141 39.3364 19.347 39.5188 19.8331C39.6299 20.1293 39.6561 20.4281 39.6614 20.6925C39.664 20.8245 39.6614 20.9573 39.6594 21.0773C39.6575 21.2002 39.6557 21.3127 39.6594 21.421L39.6604 21.4249C39.6985 22.8608 39.7655 24.3258 39.7639 25.7814C39.7631 26.5944 39.7688 27.3239 40.0452 27.9415C40.4878 28.9308 41.255 29.642 42.263 30.0509L42.5266 30.1632C42.6124 30.202 42.6965 30.2417 42.7776 30.2804C42.9436 30.3596 43.0955 30.434 43.2503 30.5021L44.8528 31.2042C44.9841 31.2603 45.1141 31.3204 45.2346 31.3761C45.3575 31.4329 45.4733 31.4865 45.5891 31.5343C45.7594 31.6045 45.9443 31.696 46.1028 31.7706C46.2707 31.8497 46.4252 31.918 46.5735 31.965C46.8663 32.0575 47.0707 32.0492 47.2503 31.9269L47.2522 31.9249C47.369 31.846 47.4492 31.7226 47.4739 31.5831C47.49 31.4893 47.4804 31.3926 47.4456 31.3038C47.4138 31.2222 47.3405 31.0897 47.2346 30.9249C47.1329 30.7666 47.0173 30.6017 46.9153 30.4562C46.5133 29.8827 46.1169 29.3015 45.7219 28.7296L45.7171 28.7228L45.7132 28.7159C45.5649 28.4834 45.3642 28.1855 45.2093 28.0021L45.1819 27.9698L45.1614 27.9327C44.9915 27.6258 44.7679 27.3194 44.5198 26.9806C44.2778 26.6501 44.0133 26.2897 43.7962 25.9054L43.7708 25.8605L43.7571 25.8107C43.7064 25.6288 43.6204 25.3099 43.5872 25.0909L43.5862 25.0812L43.5843 25.0714C43.5429 24.6746 43.6054 24.2733 43.7639 23.9073C44.1012 23.1382 44.797 22.6606 45.4866 22.4103C46.5454 22.0261 47.8978 21.9603 48.9593 22.6534L48.9632 22.6564L49.6966 23.1437L49.7356 23.17L49.7669 23.2042C50.2129 23.6841 50.6022 24.21 50.9524 24.7462L53.7239 28.8126C54.1349 29.4107 54.5439 30.0031 54.845 30.7667C55.2949 31.9088 55.4341 32.9483 55.4251 34.1388C55.3974 37.6507 52.7938 40.4117 49.5042 41.1827C48.7411 41.3615 47.9485 41.3503 47.2239 41.3419H47.2219L47.221 41.3409C42.9015 41.2911 38.5837 41.3134 34.2571 41.2999L9.51785 41.2277C8.45337 41.222 7.36961 41.2311 6.29226 41.2062C5.58256 41.1897 5.10423 40.8951 4.78054 40.4523C4.48345 40.0457 4.3269 39.5236 4.19363 39.0909C3.92901 38.2318 3.63297 37.3883 3.34402 36.5206L3.34304 36.5177C3.20428 36.0909 3.06114 35.6703 2.90164 35.2589C2.68494 34.7 2.41588 34.0404 2.69558 33.2286L2.69949 33.2169C3.01138 32.392 3.46374 31.6085 3.90945 30.88C4.18589 30.4281 4.45798 29.9156 4.76785 29.3741C5.0692 28.8476 5.39831 28.3088 5.76296 27.8712L5.77175 27.8605L5.78152 27.8507C6.1536 27.4594 6.68949 27.3225 7.16628 27.3917C7.64542 27.4613 8.12396 27.7492 8.33816 28.2716C8.62127 28.9625 8.78229 29.7875 8.92214 30.4484L9.1741 31.4679C9.44921 32.4834 10.0162 33.2394 10.9749 33.2833C11.6819 33.3156 12.3941 33.3004 13.1292 33.3028L17.1839 33.3321H17.1907C20.1504 33.3995 23.1111 33.4357 26.0716 33.4405C26.2981 33.4399 26.53 33.4408 26.762 33.4415C27.8706 33.4451 28.9741 33.4386 30.0872 33.4386L30.7219 33.4357H30.7239L31.2053 33.4425C31.3743 33.4456 31.6226 33.4736 31.8567 33.4962C32.1055 33.5202 32.3715 33.5424 32.6243 33.5421C32.8818 33.5417 33.0975 33.5177 33.2532 33.4669C33.4058 33.417 33.4478 33.36 33.4622 33.3263C33.4673 33.3119 33.4663 33.2956 33.4602 33.2814V33.2794C33.4631 33.2862 33.4535 33.2623 33.3919 33.215C33.3329 33.1697 33.2495 33.1211 33.1448 33.0714C32.9224 32.9658 32.7079 32.8975 32.4993 32.8146L30.9876 32.2179L30.9759 32.214C30.6671 32.0813 30.2565 31.9015 29.9954 31.8341L29.9524 31.8234L29.9134 31.8038C29.4241 31.5623 28.9079 31.3682 28.3704 31.1612C28.1053 31.0592 27.8394 30.9489 27.5794 30.8409C27.3175 30.7322 27.06 30.6257 26.802 30.5275C26.285 30.3306 25.7826 30.1739 25.2815 30.1085C24.1841 29.9654 23.0724 30.1717 21.9007 30.3937C21.083 30.5486 19.4817 30.9865 18.0042 31.1837C17.2518 31.2841 16.4858 31.3308 15.805 31.2501C15.1295 31.17 14.4801 30.9582 14.0286 30.4884C13.7517 30.2003 13.527 29.8775 13.3255 29.5675C13.1162 29.2455 12.9448 28.958 12.7444 28.6749C12.4788 28.2997 12.1824 27.8811 11.9319 27.4591C11.6831 27.0399 11.4621 26.5884 11.3636 26.1427C11.2635 25.69 11.2833 25.2068 11.5667 24.7765C11.8444 24.3549 12.3276 24.0568 12.9944 23.8634H12.9964C13.1564 23.818 13.3741 23.8233 13.552 23.8341C13.7526 23.8463 13.9895 23.8722 14.2317 23.9044C14.7178 23.9691 15.2542 24.0617 15.6184 24.1241C18.0309 24.5377 20.4446 24.8907 22.8665 25.2589L25.2913 25.6349C25.7145 25.701 26.0761 25.7708 26.4378 25.7677C27.1016 25.7391 27.8691 25.4991 28.4036 25.1251C28.8713 24.7977 29.2675 24.3615 29.7005 23.8956L29.7024 23.8937C30.7235 22.8003 31.7336 21.7548 32.7434 20.6652C33.2813 20.0848 33.8726 19.4382 34.718 19.0587C35.1589 18.8611 35.8434 18.6993 36.5042 18.6232ZM37.636 19.9855C36.6674 19.9887 35.7132 20.0504 34.9885 20.5001L34.9895 20.5011C34.5403 20.78 34.1681 21.1849 33.762 21.6319C32.7754 22.7181 31.7398 23.7771 30.7454 24.8341C30.3855 25.2166 29.9134 25.7192 29.5511 26.0196L29.5481 26.0226C29.1092 26.3794 28.6127 26.6597 28.0803 26.8507L28.0794 26.8497C27.4336 27.0828 26.7146 27.2176 25.9983 27.1495C25.4155 27.0942 24.8292 26.9921 24.263 26.8946C23.6907 26.7962 23.1377 26.7017 22.595 26.6525L22.554 26.6485L22.5139 26.6368C22.3714 26.5951 22.013 26.5421 21.6956 26.4972L21.6897 26.4962L14.4524 25.3644C14.0494 25.3008 13.7377 25.2402 13.3792 25.2316C13.1241 25.2254 12.9206 25.3379 12.8098 25.4884C12.7049 25.6311 12.6664 25.8278 12.7727 26.0548C12.9087 26.345 13.0787 26.6231 13.2669 26.9103C13.4488 27.1878 13.6629 27.4943 13.8499 27.796C14.1605 28.2765 14.4129 28.7664 14.7639 29.2003C15.1031 29.6195 15.4547 29.8765 15.8772 29.9122C16.265 29.9448 16.7273 29.9022 17.219 29.8263C17.7147 29.7498 18.1933 29.6478 18.6516 29.5646L20.6936 29.1954C21.3721 29.0721 22.049 28.9462 22.7249 28.8116L22.7386 28.8087L22.7532 28.8068H22.7552C23.6907 28.6855 24.5895 28.5661 25.6126 28.7286C26.8085 28.9187 27.9288 29.4856 28.9368 29.8751C29.7327 30.1827 30.5222 30.5057 31.3069 30.8263C31.6998 30.9868 32.0917 31.1471 32.4837 31.3048L33.6624 31.7696L33.6731 31.7735C33.8382 31.8425 33.961 31.8939 34.1096 31.9855L34.2698 32.0929L34.2962 32.1114L34.3186 32.1349C34.4303 32.2441 34.4972 32.3114 34.5774 32.4161L34.6917 32.5753L34.721 32.6485C34.7439 32.7048 34.7669 32.7598 34.7884 32.8204L34.8489 33.0275L34.8548 33.0538L34.8577 33.0812C34.9256 33.7378 34.6312 34.381 33.9778 34.6749C33.7218 34.79 33.4311 34.8325 33.1692 34.8487C32.9039 34.8652 32.63 34.8558 32.4007 34.8487C31.693 34.827 30.9913 34.8435 30.262 34.8448L30.263 34.8458C25.9066 34.869 21.5499 34.8335 17.1946 34.7403C15.6742 34.729 14.1664 34.702 12.6555 34.7111C12.617 34.7113 12.5781 34.7118 12.5393 34.712C11.9999 34.7154 11.4362 34.7195 10.887 34.6857C9.09966 34.5754 8.18294 33.2138 7.80496 31.7853C7.62107 31.0882 7.44549 30.3766 7.29812 29.6661C7.25475 29.457 7.21144 29.2481 7.14675 29.0685C7.07823 28.8782 7.01243 28.7976 6.97585 28.7726C6.98441 28.7783 6.96415 28.7595 6.89187 28.7814C6.8179 28.8039 6.75488 28.8525 6.72781 28.8888C6.47208 29.2369 6.25964 29.6352 6.01296 30.0607L6.01394 30.0616C5.5086 30.9387 5.00442 31.8278 4.48953 32.7062C4.27696 33.0688 4.12031 33.3422 4.04714 33.6183C3.98919 33.8374 3.98352 34.0646 4.08425 34.3409L4.13406 34.463L4.14382 34.4855L4.15164 34.5089C4.22987 34.7537 4.37524 35.1662 4.49929 35.4796L4.61355 35.7511L4.62234 35.7696L4.62917 35.7902C4.71653 36.0444 4.80868 36.2983 4.90457 36.5519L4.90554 36.5528C4.90666 36.5558 4.90749 36.559 4.90847 36.5616C4.90994 36.5655 4.91116 36.5691 4.91238 36.5724C4.95591 36.6872 5.00042 36.8018 5.04421 36.9122L5.05007 36.9259C5.11568 37.0916 5.18146 37.2538 5.25125 37.4122C5.35397 37.6454 5.43853 37.8854 5.51589 38.1105C5.59498 38.3406 5.66642 38.5536 5.74929 38.7599C5.86407 39.0455 5.94395 39.2716 6.06863 39.462L6.07058 39.465C6.07185 39.4669 6.07288 39.4694 6.07449 39.4718L6.07644 39.4737L6.095 39.4991L6.09597 39.5001L6.10183 39.5079L6.10476 39.5109L6.13015 39.5372L6.20632 39.5919L6.20828 39.5939L6.24441 39.6105L6.24636 39.6114C6.25109 39.6134 6.25659 39.6159 6.26296 39.6183L6.26589 39.6193C6.30326 39.6332 6.34668 39.6446 6.39578 39.6534L6.39968 39.6544C6.44319 39.6622 6.49146 39.6675 6.54519 39.671H6.55007L6.55398 39.672L6.7239 39.6759C6.7823 39.6756 6.8433 39.6744 6.9075 39.672C7.02996 39.6675 7.17574 39.6597 7.31668 39.6593H7.32058C7.5484 39.6611 7.77707 39.661 8.00515 39.6603H8.02273C8.75871 39.658 9.41647 39.6863 10.1233 39.672H10.1614C10.1737 39.6721 10.1908 39.6728 10.2122 39.673C10.2556 39.6733 10.3171 39.6735 10.3928 39.6739C10.5445 39.6748 10.7557 39.6758 11.0061 39.6769C11.5075 39.679 12.1671 39.6815 12.8264 39.6837C13.4859 39.6859 14.1457 39.6877 14.6468 39.6886H15.4905L15.5042 39.6876H15.5188L46.4651 39.7765L46.4661 39.7745C46.6475 39.7756 46.8341 39.7762 47.0266 39.7784C48.6835 39.7978 49.6071 39.7852 50.9856 38.9562L51.0149 38.9376L51.0471 38.9249C51.1765 38.8731 51.3697 38.7494 51.5872 38.5821C51.7923 38.4244 51.9908 38.2501 52.1341 38.1202C53.8212 36.4723 54.3116 34.0995 53.6946 31.8185L53.6419 31.6359L53.5618 31.3976C53.3587 30.8434 53.0525 30.3023 52.6966 29.8165L52.6917 29.8107L52.0891 28.9562L52.0764 28.9376L52.0647 28.9171C51.9537 28.7161 51.7854 28.4524 51.596 28.17L51.0022 27.3077C50.539 26.6433 50.0839 25.9737 49.6311 25.3058C49.3745 24.9273 49.1381 24.5812 48.8577 24.3116L48.8557 24.3107C48.5259 23.9901 48.1229 23.7531 47.6819 23.6232C47.0521 23.4395 46.1567 23.5543 45.5637 23.921C45.2754 24.0995 45.093 24.3155 45.0208 24.548C44.9515 24.7718 44.9626 25.0793 45.1936 25.4913C45.2634 25.6158 45.3426 25.7364 45.428 25.8585L45.7024 26.2325L45.7034 26.2345C46.4649 27.2623 47.1894 28.4019 47.9094 29.4152C48.0719 29.6438 48.267 29.9171 48.4358 30.1905C48.5597 30.3912 48.6811 30.6102 48.7669 30.8263L48.8391 31.0411L48.8489 31.0743L48.8518 31.1085C48.8772 31.2799 48.8844 31.4545 48.8801 31.6183V31.6349L48.8782 31.6505L48.8587 31.8419L48.8557 31.8751L48.8469 31.9083C48.785 32.1425 48.7323 32.2634 48.6301 32.4669L48.6155 32.4972L48.596 32.5245C48.4352 32.7488 48.2559 32.9471 48.0296 33.1017C47.8004 33.258 47.5428 33.3557 47.2425 33.4083C46.787 33.4878 46.3717 33.3915 46.012 33.2579C45.8327 33.1913 45.6591 33.1124 45.4983 33.0372C45.3329 32.9599 45.1849 32.8884 45.0344 32.8243L45.0218 32.8194L45.01 32.8126C44.8971 32.7558 44.7799 32.7059 44.6458 32.6476H44.6438C44.1399 32.4287 43.6453 32.2097 43.1448 31.9952C42.37 31.6632 41.4285 31.2611 40.7747 30.8624C39.6129 30.1542 38.5551 28.6938 38.4221 27.2843C38.3709 26.7426 38.3617 26.1974 38.3616 25.67L38.3352 24.5694C38.3011 23.4577 38.2512 22.317 38.261 21.2052C38.263 20.9772 38.2647 20.7593 38.2405 20.5675C38.215 20.3662 38.1688 20.2696 38.136 20.2325L38.1243 20.2189C38.0852 20.171 38.0077 20.1074 37.9026 20.0568C37.7976 20.0062 37.6997 19.9853 37.636 19.9855Z" fill="white"/>
<defs>
<pattern id="pattern0_139_1157" patternUnits="userSpaceOnUse" patternTransform="matrix(12 0 0 12 0 0)" preserveAspectRatio="none" viewBox="0 0 12 12" width="1" height="1">
<g id="pattern0_139_1157_inner">
<rect y="2" width="3" height="1" fill="#D9D9D9"/>
<rect y="8" width="3" height="1" fill="#D9D9D9"/>
<rect x="6" y="2" width="3" height="1" fill="#D9D9D9"/>
<rect x="6" y="8" width="3" height="1" fill="#D9D9D9"/>
<rect x="5" y="3" width="3" height="1" transform="rotate(180 5 3)" fill="#D9D9D9"/>
<rect x="5" y="9" width="3" height="1" transform="rotate(180 5 9)" fill="#D9D9D9"/>
<rect x="11" y="3" width="3" height="1" transform="rotate(180 11 3)" fill="#D9D9D9"/>
<rect x="11" y="9" width="3" height="1" transform="rotate(180 11 9)" fill="#D9D9D9"/>
<rect x="2" width="1" height="2" fill="#D9D9D9"/>
<rect x="2" y="6" width="1" height="2" fill="#D9D9D9"/>
<rect x="8" width="1" height="2" fill="#D9D9D9"/>
<rect x="8" y="6" width="1" height="2" fill="#D9D9D9"/>
<rect x="3" y="5" width="1" height="2" transform="rotate(180 3 5)" fill="#D9D9D9"/>
<rect x="3" y="11" width="1" height="2" transform="rotate(180 3 11)" fill="#D9D9D9"/>
<rect x="9" y="5" width="1" height="2" transform="rotate(180 9 5)" fill="#D9D9D9"/>
<rect x="9" y="11" width="1" height="2" transform="rotate(180 9 11)" fill="#D9D9D9"/>
</g>
</pattern></defs>
</svg>
