<svg width="60" height="60" viewBox="0 0 60 60" fill="none" xmlns="http://www.w3.org/2000/svg" xmlns:xlink="http://www.w3.org/1999/xlink">
<rect width="60" height="60" fill="url(#pattern0_139_1157)" fill-opacity="0.1"/>
<path d="M32.2524 22.7936C31.8233 23.2464 31.3951 23.6987 30.9729 24.1507M45.8325 31.7292C45.7251 31.6795 45.6146 31.6283 45.5071 31.5824L43.9036 30.8802C43.7662 30.8198 43.6293 30.7542 43.4954 30.6901C43.4686 30.6772 43.4419 30.6644 43.4153 30.6517C43.3392 30.6154 43.2627 30.5792 43.1858 30.5443L42.9221 30.431C41.7949 29.9713 40.9199 29.1648 40.4173 28.0413C40.0864 27.3019 40.0873 26.4536 40.0881 25.6719L40.0882 25.6556C40.0893 24.6318 40.0563 23.6067 40.0233 22.5805C40.0104 22.1783 39.9975 21.7759 39.9866 21.3734L39.9846 21.3148C39.9803 21.1902 39.9817 21.0637 39.9837 20.9437L39.9841 20.9165C39.986 20.8023 39.9878 20.6894 39.9856 20.5785C39.9808 20.3387 39.9573 20.1115 39.8782 19.9007C39.7566 19.5772 39.5052 19.3389 39.1888 19.1839L39.052 19.1244L38.9007 19.0765C38.6187 19.0039 38.2446 18.9868 37.8479 19.0091L37.4417 19.0443C36.8119 19.1169 36.1883 19.2688 35.8177 19.4349C35.0904 19.7613 34.571 20.3208 34.0218 20.9134C33.4677 21.5113 32.9025 22.1076 32.3382 22.703C31.8805 23.186 31.4232 23.6686 30.9729 24.1507L30.9641 24.1595C30.9442 24.181 30.9241 24.2026 30.904 24.2243C30.5063 24.653 30.0879 25.1041 29.593 25.4505C28.964 25.8905 28.0933 26.1591 27.3362 26.1917L27.3167 26.1927C27.1069 26.1945 26.8962 26.1744 26.6887 26.1468L26.0813 26.0531L23.6565 25.6761C23.1794 25.6036 22.7017 25.5316 22.2243 25.4596M30.9641 24.1595L30.904 24.2243M23.6565 25.6761C23.6193 25.6704 23.582 25.6648 23.5447 25.6591C23.1047 25.5923 22.6646 25.526 22.2243 25.4596M31.0169 31.179C30.5396 30.9445 30.0406 30.7527 29.5509 30.5644C29.5148 30.5505 29.4787 30.5367 29.4427 30.5228C29.198 30.4286 28.9517 30.3263 28.7039 30.2234L28.6653 30.2074C28.404 30.0989 28.139 29.9896 27.8723 29.888C27.3389 29.6849 26.7899 29.5113 26.2268 29.4378C25.0287 29.2817 23.8279 29.5091 22.6731 29.7279C22.3701 29.7853 21.9989 29.871 21.5834 29.9669C20.7675 30.1552 19.7811 30.3828 18.8059 30.513C18.0739 30.6107 17.3597 30.6514 16.7444 30.5785C16.1265 30.5052 15.6251 30.32 15.3001 29.9818C15.0602 29.7322 14.8578 29.4451 14.6614 29.1429C14.5994 29.0475 14.5375 28.9498 14.4752 28.8515C14.343 28.6429 14.209 28.4314 14.0677 28.2318C13.7998 27.8535 13.5168 27.4528 13.2796 27.0531C13.042 26.6527 12.8546 26.2603 12.7747 25.8988C12.6953 25.5392 12.7244 25.2212 12.9007 24.9535C13.0792 24.6828 13.4233 24.4406 14.0218 24.2669C14.0796 24.2505 14.2071 24.2469 14.3929 24.2581C14.575 24.2692 14.7979 24.2932 15.0335 24.3246C15.4895 24.3852 15.9939 24.4717 16.3579 24.5342L16.3997 24.5413C18.3407 24.8741 20.2834 25.167 22.2243 25.4596M14.4752 28.8515C14.4752 28.8515 14.4752 28.8514 14.4752 28.8515ZM21.5834 29.9669C21.6094 29.9609 21.6352 29.9549 21.6608 29.949C22.045 29.8604 22.3891 29.7817 22.6731 29.7279M29.4427 30.5228L29.5509 30.5644M34.8557 32.9779C34.8562 32.9793 34.8546 32.973 34.8557 32.9779L34.8411 32.9388L33.7845 32.2562C33.7684 32.2502 33.7526 32.2443 33.7372 32.2386C33.677 32.2162 33.6226 32.196 33.5774 32.1781L32.0637 31.5814L32.0432 31.5726L32.0057 31.5564C31.7215 31.4339 31.3079 31.2557 31.0169 31.179C30.5993 30.9738 30.165 30.8013 29.7349 30.6353C29.6735 30.6115 29.6121 30.588 29.5509 30.5644M33.7372 32.2386L33.7845 32.2562M29.6591 33.8656C30.0936 33.8646 30.5284 33.8636 30.9622 33.8636L31.5921 33.8607L32.0696 33.8665C32.1796 33.8686 32.334 33.884 32.5177 33.9024C32.5693 33.9075 32.6231 33.9129 32.679 33.9183C32.9294 33.9424 33.2179 33.9675 33.4993 33.9671C33.7796 33.9667 34.0622 33.9415 34.2981 33.8646C34.5398 33.7855 34.7439 33.6466 34.8421 33.4173L34.8489 33.4017L34.8548 33.3851C34.9002 33.2573 34.8973 33.1276 34.8645 33.013C34.8617 33.0026 34.8572 32.9842 34.8557 32.9779M30.9622 33.8636C30.6909 33.8636 30.4195 33.864 30.148 33.8645C29.9851 33.8649 29.8221 33.8652 29.6591 33.8656M29.6591 33.8656C28.9844 33.8672 28.3094 33.8687 27.635 33.8665L27.6 33.8664M13.4309 33.7284C13.5678 33.728 13.7044 33.7276 13.8402 33.7276C13.8934 33.7276 13.9464 33.7277 13.9993 33.7279L18.053 33.7562C21.0165 33.8236 23.9813 33.8607 26.9456 33.8656C27.0355 33.8653 27.1267 33.8653 27.2187 33.8654C27.3449 33.8656 27.4724 33.866 27.6 33.8664M27.6 33.8664C27.3794 33.8657 27.1588 33.865 26.9456 33.8656M39.4293 40.6299C37.9968 40.6294 36.5646 40.6288 35.1331 40.6244L10.3948 40.5521C10.061 40.5503 9.72768 40.5501 9.39468 40.5498C8.65569 40.5492 7.91821 40.5486 7.17996 40.5316C6.64413 40.5192 6.3234 40.3094 6.09891 40.0023C5.86666 39.6843 5.73385 39.2581 5.59402 38.804C5.40507 38.1905 5.1989 37.581 4.99343 36.9736C4.96956 36.903 4.94569 36.8325 4.92186 36.7619C4.86101 36.5818 4.8004 36.4019 4.74051 36.222C4.60077 35.7923 4.45372 35.3589 4.28934 34.9349C4.06649 34.3602 3.88381 33.8813 4.09012 33.2826C4.38246 32.5108 4.81081 31.7654 5.2532 31.0423C5.43351 30.7476 5.61698 30.4184 5.80373 30.0833C5.90793 29.8963 6.01314 29.7075 6.11941 29.5218C6.41699 29.0019 6.72521 28.5019 7.05496 28.1048C7.28625 27.8616 7.63467 27.7634 7.96219 27.8109C8.28951 27.8585 8.57747 28.0481 8.7034 28.3548C8.94465 28.9436 9.09277 29.6472 9.22802 30.2897L9.25906 30.4369L9.26297 30.4554L9.51492 31.4749L9.51785 31.4867C9.81619 32.5878 10.505 33.6469 11.8245 33.7074C12.3564 33.7316 12.8967 33.73 13.4309 33.7284C13.6213 33.7278 13.8111 33.7273 13.9993 33.7279M4.74051 36.222C4.82382 36.4722 4.90862 36.7229 4.99343 36.9736M35.1331 40.6244C36.4757 40.6285 37.819 40.6293 39.1625 40.6298C39.2514 40.6298 39.3404 40.6299 39.4293 40.6299M47.3769 28.7683C47.2704 28.6136 47.1638 28.4588 47.0569 28.304L47.0491 28.2923C46.9012 28.0605 46.6873 27.7398 46.5081 27.5267C46.3194 27.1889 46.0781 26.8582 45.8382 26.5306C45.5959 26.1998 45.3547 25.8693 45.1575 25.5228C45.1063 25.3383 45.0338 25.068 45.0061 24.8919L45.0052 24.8744C44.9771 24.5778 45.024 24.2758 45.1429 24.0013C45.4 23.4169 45.9464 23.0209 46.5491 22.8021L46.7307 22.7406C47.6473 22.4535 48.7068 22.4578 49.5179 22.9788L49.5335 22.9896L50.2483 23.4642C50.6631 23.9121 51.0304 24.4077 51.3665 24.9222L51.3723 24.931L54.1463 29.001C54.5595 29.6024 54.9339 30.1472 55.2083 30.8431C55.6266 31.905 55.7579 32.8717 55.7493 34.0091C55.724 37.2296 53.3343 39.7996 50.2532 40.5218C49.6152 40.6713 48.9446 40.6743 48.262 40.6673L48.1018 40.6654C45.5736 40.6362 43.044 40.6317 40.515 40.6304C40.1538 40.6302 39.7905 40.63 39.4293 40.6299M39.4293 40.6299C42.3192 40.631 45.2125 40.632 48.1018 40.6654M47.0569 28.304C47.1648 28.4603 47.2693 28.6121 47.3769 28.7683M47.3769 28.7683C47.6024 29.0958 47.8311 29.4279 48.0581 29.7538C48.1188 29.841 48.1796 29.928 48.2405 30.015M46.2542 31.9173C46.3703 31.9652 46.4916 32.0231 46.6186 32.0836C46.6596 32.1032 46.7012 32.123 46.7434 32.1429C46.9141 32.2233 47.0968 32.3059 47.2825 32.3646C47.6567 32.4828 48.0593 32.512 48.4348 32.2562L48.4768 32.2269L48.4905 32.2122C48.6997 32.0498 48.8434 31.8165 48.8899 31.554C48.9227 31.3625 48.903 31.1609 48.8313 30.9779C48.7781 30.8418 48.6797 30.6706 48.5716 30.5023C48.4628 30.3331 48.3413 30.1588 48.2405 30.015C47.9516 29.6028 47.6627 29.1833 47.3769 28.7683M45.8325 31.7292C45.8478 31.7363 45.863 31.7433 45.8782 31.7503C45.9985 31.8059 46.1256 31.8643 46.2542 31.9173C46.3485 31.9562 46.4463 32.0017 46.5478 32.0499C46.5711 32.061 46.5949 32.0723 46.6186 32.0836M45.8782 31.7503L45.8325 31.7292M43.4954 30.6901L43.4153 30.6517M39.9841 20.9165C39.9848 20.8737 39.9855 20.831 39.986 20.7886C39.9868 20.7179 39.987 20.6478 39.9856 20.5785" stroke="white" stroke-width="1.5"/>
<defs>
<pattern id="pattern0_139_1157" patternUnits="userSpaceOnUse" patternTransform="matrix(12 0 0 12 0 0)" preserveAspectRatio="none" viewBox="0 0 12 12" width="1" height="1">
<g id="pattern0_139_1157_inner">
<rect y="2" width="3" height="1" fill="#D9D9D9"/>
<rect y="8" width="3" height="1" fill="#D9D9D9"/>
<rect x="6" y="2" width="3" height="1" fill="#D9D9D9"/>
<rect x="6" y="8" width="3" height="1" fill="#D9D9D9"/>
<rect x="5" y="3" width="3" height="1" transform="rotate(180 5 3)" fill="#D9D9D9"/>
<rect x="5" y="9" width="3" height="1" transform="rotate(180 5 9)" fill="#D9D9D9"/>
<rect x="11" y="3" width="3" height="1" transform="rotate(180 11 3)" fill="#D9D9D9"/>
<rect x="11" y="9" width="3" height="1" transform="rotate(180 11 9)" fill="#D9D9D9"/>
<rect x="2" width="1" height="2" fill="#D9D9D9"/>
<rect x="2" y="6" width="1" height="2" fill="#D9D9D9"/>
<rect x="8" width="1" height="2" fill="#D9D9D9"/>
<rect x="8" y="6" width="1" height="2" fill="#D9D9D9"/>
<rect x="3" y="5" width="1" height="2" transform="rotate(180 3 5)" fill="#D9D9D9"/>
<rect x="3" y="11" width="1" height="2" transform="rotate(180 3 11)" fill="#D9D9D9"/>
<rect x="9" y="5" width="1" height="2" transform="rotate(180 9 5)" fill="#D9D9D9"/>
<rect x="9" y="11" width="1" height="2" transform="rotate(180 9 11)" fill="#D9D9D9"/>
</g>
</pattern></defs>
</svg>
