<svg width="60" height="60" viewBox="0 0 60 60" fill="none" xmlns="http://www.w3.org/2000/svg" xmlns:xlink="http://www.w3.org/1999/xlink">
<rect width="60" height="60" fill="url(#pattern0_184_945)" fill-opacity="0.1"/>
<path d="M3.47194 14.6479C3.47194 14.6479 7.08726 18.4783 9.13576 21.1517C13.8666 27.3258 14.4387 32.1313 18.8367 38.5467C19.6695 39.7615 21.0231 41.6197 21.0231 41.6197C22.9608 44.049 23.7661 45.3889 23.7661 45.3889C24.0731 45.957 24.5876 46.8924 24.5876 46.8924C24.9597 47.076 25.4187 46.9087 25.8147 46.8235C29.1694 45.9912 32.525 45.1589 35.8806 44.3266L36.0397 44.2871C41.1169 43.0022 46.1949 41.7172 51.273 40.4323L51.392 40.4022L55.1813 38.5926C56.4295 37.9844 56.0086 36.8242 56.0086 36.8242L54.2565 30.2097C53.6788 28.8353 52.1801 28.8019 52.1801 28.8019L48.3631 28.7999L32.4818 28.7645C30.4294 28.9013 28.8838 30.027 28.8838 30.027L25.6999 33.3534C23.0937 35.0424 21.1598 32.8274 21.1598 32.8274L17.8994 26.7752C17.5465 26.0493 17.4939 25.4621 17.4939 25.4621C17.361 22.9763 19.621 22.0697 19.621 22.0697C21.2392 21.2959 24.6383 22.4283 24.6383 22.4283C29.4825 23.3742 30.5843 22.9811 30.5843 22.9811C35.068 22.4494 37.0736 18.4544 37.0736 18.4544C37.8177 16.7587 36.1047 16.3981 36.1047 16.3981L29.3142 15.875L22.7771 15.2151L15.6404 13.9124L10.8382 13L3.96163 13.1702C2.31468 13.527 3.47194 14.6479 3.47194 14.6479Z" stroke="white" stroke-width="1.5" stroke-miterlimit="10"/>
<defs>
<pattern id="pattern0_184_945" patternUnits="userSpaceOnUse" patternTransform="matrix(12 0 0 12 0 0)" preserveAspectRatio="none" viewBox="0 0 12 12" width="1" height="1">
<g id="pattern0_184_945_inner">
<rect y="2" width="3" height="1" fill="#D9D9D9"/>
<rect y="8" width="3" height="1" fill="#D9D9D9"/>
<rect x="6" y="2" width="3" height="1" fill="#D9D9D9"/>
<rect x="6" y="8" width="3" height="1" fill="#D9D9D9"/>
<rect x="5" y="3" width="3" height="1" transform="rotate(180 5 3)" fill="#D9D9D9"/>
<rect x="5" y="9" width="3" height="1" transform="rotate(180 5 9)" fill="#D9D9D9"/>
<rect x="11" y="3" width="3" height="1" transform="rotate(180 11 3)" fill="#D9D9D9"/>
<rect x="11" y="9" width="3" height="1" transform="rotate(180 11 9)" fill="#D9D9D9"/>
<rect x="2" width="1" height="2" fill="#D9D9D9"/>
<rect x="2" y="6" width="1" height="2" fill="#D9D9D9"/>
<rect x="8" width="1" height="2" fill="#D9D9D9"/>
<rect x="8" y="6" width="1" height="2" fill="#D9D9D9"/>
<rect x="3" y="5" width="1" height="2" transform="rotate(180 3 5)" fill="#D9D9D9"/>
<rect x="3" y="11" width="1" height="2" transform="rotate(180 3 11)" fill="#D9D9D9"/>
<rect x="9" y="5" width="1" height="2" transform="rotate(180 9 5)" fill="#D9D9D9"/>
<rect x="9" y="11" width="1" height="2" transform="rotate(180 9 11)" fill="#D9D9D9"/>
</g>
</pattern></defs>
</svg>
