<svg width="60" height="60" viewBox="0 0 60 60" fill="none" xmlns="http://www.w3.org/2000/svg" xmlns:xlink="http://www.w3.org/1999/xlink">
<rect width="60" height="60" fill="url(#pattern0_184_951)" fill-opacity="0.1"/>
<path d="M11.4725 23.6547L9.05886 21.1141L3.39504 14.6103C3.39504 14.6103 2.23778 13.4894 3.88472 13.1326L10.7613 12.9624L15.5635 13.8748L22.7002 15.1775L29.2373 15.8374L36.0278 16.3605C36.0278 16.3605 37.7408 16.7211 36.9967 18.4168C36.9967 18.4168 34.9911 22.4118 30.5074 22.9435C30.5074 22.9435 29.4056 23.3366 24.5614 22.3907C24.5614 22.3907 21.1623 21.2583 19.5441 22.0321C19.5441 22.0321 17.2841 22.9387 17.417 25.4245C17.417 25.4245 17.4696 26.0117 17.8225 26.7376L21.0829 32.7898C21.0829 32.7898 23.0168 35.0048 25.623 33.3158L28.8069 29.9894C28.8069 29.9894 30.3525 28.8637 32.4049 28.727L48.2862 28.7623L52.1032 28.7643C52.1032 28.7643 53.6019 28.7977 54.1796 30.1721L55.9317 36.7866C55.9317 36.7866 56.3526 37.9468 55.1044 38.555L51.3151 40.3646C46.1974 41.6596 41.0796 42.9545 35.9628 44.2495C32.5541 45.095 29.1455 45.9405 25.7378 46.7859C25.3418 46.8711 24.8828 47.0384 24.5107 46.8548C24.5107 46.8548 23.9962 45.9194 23.6892 45.3513C23.6892 45.3513 22.8839 44.0114 20.9462 41.5821L18.7598 38.5091L16.8777 34.7572L15.733 32.5128C15.733 32.5128 15.3029 31.7469 15.0621 31.38C14.8656 31.0807 14.6513 30.7933 14.4319 30.5104C14.1778 30.1827 13.9099 29.8657 13.638 29.5526C13.4333 29.3168 13.2317 29.0994 13.0078 28.8594C12.9126 28.7573 12.7822 28.6232 12.7054 28.5066C12.6659 28.4466 12.6367 28.3764 12.6298 28.3049C12.6199 28.2032 12.65 28.1001 12.6802 28.0025C12.8644 27.4052 13.2049 26.868 13.4672 26.3007C13.5157 26.1958 13.5572 26.1884 13.575 26.0742C13.5854 26.0073 13.6187 25.8445 13.5876 25.7844C13.5387 25.69 13.3769 25.5344 13.2984 25.4628C13.2164 25.3882 12.8747 25.0191 12.7762 24.9294C12.0768 24.2927 11.4725 23.6547 11.4725 23.6547Z" stroke="white" stroke-width="1.5" stroke-miterlimit="10"/>
<defs>
<pattern id="pattern0_184_951" patternUnits="userSpaceOnUse" patternTransform="matrix(12 0 0 12 0 0)" preserveAspectRatio="none" viewBox="0 0 12 12" width="1" height="1">
<g id="pattern0_184_951_inner">
<rect y="2" width="3" height="1" fill="#D9D9D9"/>
<rect y="8" width="3" height="1" fill="#D9D9D9"/>
<rect x="6" y="2" width="3" height="1" fill="#D9D9D9"/>
<rect x="6" y="8" width="3" height="1" fill="#D9D9D9"/>
<rect x="5" y="3" width="3" height="1" transform="rotate(180 5 3)" fill="#D9D9D9"/>
<rect x="5" y="9" width="3" height="1" transform="rotate(180 5 9)" fill="#D9D9D9"/>
<rect x="11" y="3" width="3" height="1" transform="rotate(180 11 3)" fill="#D9D9D9"/>
<rect x="11" y="9" width="3" height="1" transform="rotate(180 11 9)" fill="#D9D9D9"/>
<rect x="2" width="1" height="2" fill="#D9D9D9"/>
<rect x="2" y="6" width="1" height="2" fill="#D9D9D9"/>
<rect x="8" width="1" height="2" fill="#D9D9D9"/>
<rect x="8" y="6" width="1" height="2" fill="#D9D9D9"/>
<rect x="3" y="5" width="1" height="2" transform="rotate(180 3 5)" fill="#D9D9D9"/>
<rect x="3" y="11" width="1" height="2" transform="rotate(180 3 11)" fill="#D9D9D9"/>
<rect x="9" y="5" width="1" height="2" transform="rotate(180 9 5)" fill="#D9D9D9"/>
<rect x="9" y="11" width="1" height="2" transform="rotate(180 9 11)" fill="#D9D9D9"/>
</g>
</pattern></defs>
</svg>
