<svg width="60" height="60" viewBox="0 0 60 60" fill="none" xmlns="http://www.w3.org/2000/svg" xmlns:xlink="http://www.w3.org/1999/xlink">
<rect width="60" height="60" fill="url(#pattern0_184_951)" fill-opacity="0.1"/>
<path d="M12.3186 23.6923L9.90499 21.1517L4.24117 14.6479C4.24117 14.6479 3.08391 13.527 4.73085 13.1702L11.6075 13L16.4096 13.9124L23.5464 15.2151L30.0834 15.875L36.874 16.3981C36.874 16.3981 38.5869 16.7587 37.8428 18.4544C37.8428 18.4544 35.8372 22.4494 31.3536 22.9811C31.3536 22.9811 30.2518 23.3742 25.4075 22.4283C25.4075 22.4283 22.0084 21.2959 20.3902 22.0697C20.3902 22.0697 18.1302 22.9763 18.2631 25.4621C18.2631 25.4621 18.3157 26.0493 18.6687 26.7752L21.9291 32.8274C21.9291 32.8274 23.8629 35.0424 26.4692 33.3534L29.6531 30.027C29.6531 30.027 31.1986 28.9013 33.2511 28.7645L49.1323 28.7999L52.9493 28.8019C52.9493 28.8019 54.4481 28.8353 55.0257 30.2097L56.7779 36.8242C56.7779 36.8242 57.1987 37.9844 55.9506 38.5926L52.1613 40.4022C47.0435 41.6972 41.9257 42.9921 36.8089 44.2871C33.4003 45.1326 29.9916 45.9781 26.5839 46.8235C26.188 46.9087 25.7289 47.076 25.3568 46.8924C25.3568 46.8924 24.8423 45.957 24.5353 45.3889C24.5353 45.3889 23.73 44.049 21.7923 41.6197L19.6059 38.5467L17.7239 34.7947L16.5791 32.5504C16.5791 32.5504 16.149 31.7845 15.9082 31.4176C15.7118 31.1183 15.4974 30.8309 15.2781 30.548C15.0239 30.2203 14.756 29.9033 14.4841 29.5902C14.2794 29.3544 14.0778 29.137 13.854 28.897C13.7587 28.7949 13.6283 28.6608 13.5515 28.5442C13.512 28.4842 13.4828 28.414 13.4759 28.3425C13.466 28.2408 13.4962 28.1377 13.5263 28.0401C13.7105 27.4428 14.051 26.9056 14.3133 26.3383C14.3619 26.2334 14.4033 26.226 14.4211 26.1118C14.4315 26.0449 14.4649 25.8821 14.4337 25.822C14.3848 25.7276 14.2231 25.572 14.1445 25.5004C14.0625 25.4258 13.7208 25.0567 13.6223 24.967C12.9229 24.3303 12.3186 23.6923 12.3186 23.6923Z" stroke="white" stroke-width="1.5" stroke-miterlimit="10"/>
<defs>
<pattern id="pattern0_184_951" patternUnits="userSpaceOnUse" patternTransform="matrix(12 0 0 12 0 0)" preserveAspectRatio="none" viewBox="0 0 12 12" width="1" height="1">
<g id="pattern0_184_951_inner">
<rect y="2" width="3" height="1" fill="#D9D9D9"/>
<rect y="8" width="3" height="1" fill="#D9D9D9"/>
<rect x="6" y="2" width="3" height="1" fill="#D9D9D9"/>
<rect x="6" y="8" width="3" height="1" fill="#D9D9D9"/>
<rect x="5" y="3" width="3" height="1" transform="rotate(180 5 3)" fill="#D9D9D9"/>
<rect x="5" y="9" width="3" height="1" transform="rotate(180 5 9)" fill="#D9D9D9"/>
<rect x="11" y="3" width="3" height="1" transform="rotate(180 11 3)" fill="#D9D9D9"/>
<rect x="11" y="9" width="3" height="1" transform="rotate(180 11 9)" fill="#D9D9D9"/>
<rect x="2" width="1" height="2" fill="#D9D9D9"/>
<rect x="2" y="6" width="1" height="2" fill="#D9D9D9"/>
<rect x="8" width="1" height="2" fill="#D9D9D9"/>
<rect x="8" y="6" width="1" height="2" fill="#D9D9D9"/>
<rect x="3" y="5" width="1" height="2" transform="rotate(180 3 5)" fill="#D9D9D9"/>
<rect x="3" y="11" width="1" height="2" transform="rotate(180 3 11)" fill="#D9D9D9"/>
<rect x="9" y="5" width="1" height="2" transform="rotate(180 9 5)" fill="#D9D9D9"/>
<rect x="9" y="11" width="1" height="2" transform="rotate(180 9 11)" fill="#D9D9D9"/>
</g>
</pattern></defs>
</svg>
