<svg width="60" height="60" viewBox="0 0 60 60" fill="none" xmlns="http://www.w3.org/2000/svg" xmlns:xlink="http://www.w3.org/1999/xlink">
<rect width="60" height="60" fill="url(#pattern0_246_2)" fill-opacity="0.1"/>
<path d="M4.20715 15.0006C4.44577 15.006 4.69026 15.0512 4.94157 15.1103C5.2127 15.1741 5.46014 15.2498 5.71889 15.3177C6.54426 15.541 7.35128 15.8086 8.16811 16.0862L8.17015 16.0869L8.1722 16.0876C8.97826 16.3455 9.79385 16.5945 10.6245 16.7664C12.3527 17.1291 14.1813 17.2544 15.9688 17.2746C16.6541 17.2827 17.3395 17.2867 18.0248 17.2867C19.9136 17.2867 21.8041 17.2596 23.694 17.2324L23.6983 17.2324C25.5903 17.2052 27.4818 17.178 29.374 17.178L29.5897 17.1782C30.0931 17.179 30.5991 17.1825 31.1027 17.186C32.7267 17.202 34.3727 17.33 35.9508 17.6599C37.2875 17.9415 38.4722 18.3665 39.6165 18.8386C40.1525 19.0598 40.6774 19.2907 41.2058 19.5231L41.3138 19.5706C41.8778 19.8187 42.4464 20.0676 43.0319 20.3046L43.032 20.3047C44.8613 21.0444 46.5354 21.8056 48.3297 22.5735L48.3752 22.5929H48.4328C48.4736 22.5929 48.512 22.5828 48.5272 22.5788C48.5506 22.5725 48.5767 22.5641 48.6039 22.5542L48.617 22.5495L48.6294 22.5433L48.6314 22.5423C48.6711 22.5224 48.7403 22.4878 48.8114 22.4375L48.8115 22.4375C48.8122 22.437 48.8128 22.4365 48.8135 22.436L48.8147 22.4352C48.9503 22.3411 49.084 22.2153 49.1927 22.0935L49.195 22.0909L49.1973 22.0883C49.2637 22.0094 49.328 21.9275 49.3727 21.8579C49.4335 21.7633 49.5077 21.6757 49.5953 21.5983C49.6902 21.5143 49.7874 21.4422 49.8948 21.3851L49.8968 21.384L49.8988 21.3829C50.1183 21.261 50.3761 21.1878 50.6511 21.1878L50.6737 21.188C50.9076 21.1918 51.1551 21.2541 51.3875 21.3888L51.388 21.3891L51.3885 21.3894C51.768 21.6068 52.1732 21.8689 52.5597 22.1225C52.9458 22.3799 53.3126 22.6218 53.5956 22.8037C53.8231 22.9509 54.0578 23.0837 54.333 23.2685C54.5933 23.4433 54.8505 23.6461 55.0595 23.8955L55.0608 23.897L55.0621 23.8985C55.2011 24.0589 55.315 24.2438 55.3972 24.458C55.7482 25.3832 56.0036 26.209 56.2356 27.057C56.4681 27.907 56.6765 28.7685 56.9266 29.7732L56.9269 29.7742L56.9272 29.7753C56.9812 29.9841 57 30.1924 57 30.3992L56.9997 30.4399C56.9971 30.643 56.9755 30.8412 56.9465 31.0261C56.9156 31.2231 56.8768 31.4018 56.8414 31.5513L56.8402 31.5563L56.8393 31.5614C56.8301 31.609 56.82 31.6534 56.8099 31.6974L56.8089 31.7016C56.8 31.7404 56.7903 31.7826 56.7832 31.8213C56.7739 31.8681 56.7615 31.912 56.7416 31.9651L56.74 31.9692L56.7386 31.9735C56.724 32.0173 56.6988 32.0717 56.6609 32.1518C56.5954 32.2901 56.4977 32.4565 56.3679 32.6531C56.1077 33.0453 55.7154 33.5445 55.1574 34.1225L55.1563 34.1236C55.1562 34.1237 55.1562 34.1237 55.1561 34.1238L55.156 34.1239L55.1522 34.1277C55.152 34.1279 55.1521 34.1278 55.1519 34.128L55.1514 34.1285L55.1513 34.1286L55.1503 34.1296L55.1503 34.1296C55.1502 34.1297 55.1501 34.1298 55.1501 34.1298L55.1475 34.1324C55.1474 34.1325 55.1476 34.1323 55.1474 34.1325L55.1474 34.1325L55.1433 34.1366L55.1433 34.1367C55.1432 34.1368 55.1432 34.1367 55.1431 34.1368L55.1424 34.1375L55.1423 34.1376C55.129 34.151 55.1178 34.1643 55.1132 34.1697L55.1122 34.1709C55.1076 34.1764 55.1068 34.1772 55.1061 34.1779L55.0954 34.1885L55.0862 34.2004C55.0617 34.2319 55.0332 34.2623 54.9803 34.3249C54.8884 34.4327 54.7619 34.5797 54.6112 34.7629C54.3087 35.1219 53.9096 35.6056 53.4604 36.147L53.4601 36.1474C52.562 37.2348 51.4715 38.5588 50.6061 39.6012L50.6058 39.6016C50.0298 40.2985 49.5599 40.8648 49.3115 41.1572L49.3112 41.1576L49.3108 41.1579C49.2633 41.2144 49.1964 41.2888 49.1629 41.3297C48.8885 41.6374 48.574 42.0376 48.2524 42.4386C47.9279 42.8433 47.5845 43.2534 47.228 43.61L47.1783 43.6589C46.6634 44.1631 46.0867 44.622 45.4811 45.0068L45.4805 45.0072C45.2443 45.1581 44.9881 45.2993 44.7233 45.4092C44.4525 45.5159 44.1854 45.5898 43.9118 45.5972H43.858C43.5262 45.5935 43.1871 45.5167 42.8534 45.3978L42.8522 45.3974L42.8511 45.397L42.7888 45.375C42.5198 45.2775 42.2588 45.1533 42.0109 45.0267L41.8974 44.9682C41.084 44.5385 40.3696 44.0168 39.7032 43.3835L39.6388 43.3218C39.5379 43.2242 39.4385 43.1138 39.3407 42.9926L39.2988 42.94C39.185 42.7908 39.0706 42.633 38.951 42.4655C38.7205 42.1389 38.4631 41.7503 38.222 41.4143L38.2218 41.414L38.1585 41.3268C38.0102 41.1247 37.859 40.9323 37.7102 40.7581L37.7087 40.7564L37.7072 40.7547L37.669 40.7122C37.4757 40.5008 37.2526 40.3037 37.0193 40.1209C36.7677 39.9239 36.497 39.745 36.2327 39.5881C36.0061 39.4523 35.7296 39.3528 35.4601 39.2643C35.1797 39.1723 34.9094 39.0937 34.6515 38.9761L34.6505 38.9756L34.6494 38.9752L34.618 38.961C34.4627 38.8897 34.3175 38.8055 34.1941 38.6986C34.1482 38.6555 34.1092 38.6104 34.0766 38.5634C34.0408 38.5058 34.0157 38.4591 34.0005 38.4186L33.9994 38.4156L33.9981 38.4125L33.9901 38.3923C33.9616 38.3182 33.9416 38.2447 33.924 38.1703L33.9055 38.0887C33.8938 38.033 33.882 37.9733 33.8693 37.92L33.7944 37.6701C33.7622 37.5379 33.7142 37.4147 33.6846 37.2741L33.6845 37.2736L33.6844 37.2733L33.666 37.1879C33.6224 36.9881 33.5749 36.785 33.5238 36.6024L33.5234 36.601L33.5229 36.5994C33.4868 36.4767 33.4489 36.36 33.4062 36.2559L33.3875 36.212C33.2758 35.9505 33.1227 35.6789 32.949 35.4331L32.9484 35.4323L32.9478 35.4315L32.9147 35.3862C32.7473 35.1607 32.5531 34.9523 32.3467 34.8018C31.9107 34.4832 31.4527 34.2381 30.9791 34.0136C30.9766 34.0124 30.9648 34.0069 30.9643 34.0067L30.7598 33.91L30.759 33.9115C30.5825 33.8311 30.403 33.7525 30.222 33.6732L30.2211 33.6728C30.0542 33.5997 29.8858 33.5259 29.715 33.4488L29.7264 33.4243L29.4921 33.3289C29.2771 33.2414 29.0537 33.1524 28.8407 33.066C28.4523 32.9065 28.1217 32.7783 27.8171 32.6299C27.516 32.4832 27.2421 32.3172 26.9894 32.0942L26.9876 32.0926L26.9858 32.0911L26.9542 32.0638C26.7967 31.9258 26.6454 31.7591 26.4942 31.5611L26.4933 31.5598L26.4923 31.5587L26.4732 31.5339C26.3792 31.4096 26.3021 31.2741 26.2364 31.129L26.2354 31.1268L26.2344 31.1247C26.1599 30.9682 26.0993 30.8059 26.0452 30.636L26.0444 30.6336C25.9878 30.4617 25.9377 30.2878 25.8878 30.1127C25.8384 29.9391 25.789 29.7628 25.7353 29.5935L25.7342 29.5901L25.7064 29.5076C25.6451 29.3287 25.5776 29.1496 25.4973 28.9861L25.4786 28.9486C25.3168 28.6297 25.0851 28.323 24.8306 28.0273C24.7037 27.88 24.5697 27.7318 24.4377 27.5847C24.3049 27.4368 24.1733 27.2894 24.0472 27.1396L24.0471 27.1395L23.9843 27.0641C23.8391 26.8878 23.7042 26.7087 23.5882 26.523L23.5878 26.5224L23.5874 26.5217L23.5565 26.4719C23.4048 26.2219 23.2948 25.9596 23.1945 25.6956C23.0898 25.4203 22.9878 25.124 22.872 24.8593L22.8714 24.8579L22.8707 24.8566L22.8411 24.7918C22.7759 24.6509 22.7029 24.5059 22.6139 24.3692L22.5931 24.3378C22.4501 24.1155 22.2703 23.9138 22.0295 23.7354C21.8976 23.6377 21.7475 23.5641 21.5908 23.5031C21.4272 23.4395 21.2508 23.396 21.0737 23.3589C20.8937 23.3213 20.7046 23.2912 20.5179 23.2617L20.5063 23.2598C20.3215 23.2306 20.1381 23.2016 19.9563 23.1652C17.3004 22.6212 14.0482 22.04 11.5102 21.749C10.6654 21.652 9.89748 21.5868 9.25633 21.5664C8.54179 21.5425 7.86646 21.4906 7.19783 21.4382C6.52918 21.3858 5.86381 21.3371 5.16497 21.3168L5.16308 21.3167L5.13214 21.3157C4.97625 21.3092 4.80199 21.2782 4.61682 21.2284C4.42071 21.1756 4.22758 21.1047 4.05594 21.017L4.05504 21.0165L4.05414 21.0161L4.00995 20.9935C3.909 20.9409 3.82299 20.8877 3.74763 20.8268L3.74677 20.8261C3.69515 20.7848 3.6504 20.7428 3.61415 20.7005C3.43059 20.4843 3.27915 20.2129 3.17075 19.9139C3.06606 19.625 3.00398 19.3096 3.0002 18.9996L3 18.9696V18.8432C3.05243 17.842 3.09636 16.7829 3.19988 15.8313L3.2033 15.8035C3.22213 15.6658 3.26892 15.5345 3.34099 15.4085C3.4138 15.289 3.51422 15.1858 3.63538 15.1107C3.7133 15.0663 3.80334 15.0333 3.89911 15.0178C3.98775 15.0069 4.07674 15 4.1595 15L4.20715 15.0006Z" stroke="white" stroke-width="1.5"/>
<defs>
<pattern id="pattern0_246_2" patternUnits="userSpaceOnUse" patternTransform="matrix(12 0 0 12 0 0)" preserveAspectRatio="none" viewBox="0 0 12 12" width="1" height="1">
<g id="pattern0_246_2_inner">
<rect y="2" width="3" height="1" fill="#D9D9D9"/>
<rect y="8" width="3" height="1" fill="#D9D9D9"/>
<rect x="6" y="2" width="3" height="1" fill="#D9D9D9"/>
<rect x="6" y="8" width="3" height="1" fill="#D9D9D9"/>
<rect x="5" y="3" width="3" height="1" transform="rotate(180 5 3)" fill="#D9D9D9"/>
<rect x="5" y="9" width="3" height="1" transform="rotate(180 5 9)" fill="#D9D9D9"/>
<rect x="11" y="3" width="3" height="1" transform="rotate(180 11 3)" fill="#D9D9D9"/>
<rect x="11" y="9" width="3" height="1" transform="rotate(180 11 9)" fill="#D9D9D9"/>
<rect x="2" width="1" height="2" fill="#D9D9D9"/>
<rect x="2" y="6" width="1" height="2" fill="#D9D9D9"/>
<rect x="8" width="1" height="2" fill="#D9D9D9"/>
<rect x="8" y="6" width="1" height="2" fill="#D9D9D9"/>
<rect x="3" y="5" width="1" height="2" transform="rotate(180 3 5)" fill="#D9D9D9"/>
<rect x="3" y="11" width="1" height="2" transform="rotate(180 3 11)" fill="#D9D9D9"/>
<rect x="9" y="5" width="1" height="2" transform="rotate(180 9 5)" fill="#D9D9D9"/>
<rect x="9" y="11" width="1" height="2" transform="rotate(180 9 11)" fill="#D9D9D9"/>
</g>
</pattern></defs>
</svg>
