<svg width="60" height="60" viewBox="0 0 60 60" fill="none" xmlns="http://www.w3.org/2000/svg" xmlns:xlink="http://www.w3.org/1999/xlink">
<rect width="60" height="60" fill="url(#pattern0_246_3)" fill-opacity="0.1"/>
<path d="M26.5676 48.8904C23.793 48.8904 23.0397 48.9748 21.2757 48.957C20.7336 48.9515 20.1922 48.9173 19.6502 48.9037C18.882 48.8844 18.1137 48.8663 17.3453 48.8637C16.5014 48.8608 15.6575 48.8745 14.8138 48.8904C13.4945 48.9151 12.1762 48.9829 10.8567 48.9969C10.0662 49.0054 9.27564 48.994 8.48517 48.9836C8.05432 48.978 7.62239 48.9902 7.19279 48.957C6.96046 48.939 6.72405 48.9276 6.49997 48.8637C6.27058 48.7983 6.05464 48.6882 5.84712 48.5706C5.59739 48.429 5.3464 48.2781 5.14097 48.0776C4.94773 47.889 4.79024 47.662 4.66133 47.4248C4.49358 47.116 4.37284 46.7799 4.28828 46.4388C4.11594 45.7438 4.11577 45.017 4.02181 44.3071C3.88706 43.2891 3.7629 42.2692 3.59545 41.256C3.52984 40.859 3.43008 40.468 3.36896 40.0702C3.2759 39.4648 3.19626 38.8561 3.15578 38.2449C3.04571 36.5829 2.91362 34.9063 3.07584 33.2486C3.10061 32.9955 3.13637 32.7366 3.23572 32.5025C3.30459 32.3402 3.41148 32.1933 3.53067 32.0634C3.68867 31.8911 3.86717 31.7311 4.07693 31.6237C4.32258 31.498 4.604 31.4501 4.87732 31.412C5.11489 31.3789 5.35738 31.384 5.59679 31.3987C7.51759 31.5167 9.41161 31.9118 11.3126 32.2114C12.7729 32.4416 14.2362 32.6255 15.6827 32.9176C16.9146 33.1663 18.1488 33.3894 19.3466 33.757C20.1228 33.9951 20.8562 34.3554 21.6172 34.6384C23.031 35.164 24.4594 35.6159 25.8807 36.104C27.3931 36.6233 28.9187 37.1058 30.4184 37.6607C31.4448 38.0405 32.4416 38.4975 33.4695 38.8732C34.138 39.1175 34.8194 39.2912 35.4946 39.4994C36.9208 39.9391 38.3294 40.4411 39.7743 40.8148C40.5283 41.0099 41.2865 41.2106 42.0605 41.2973C42.4117 41.3367 42.7685 41.3435 43.1207 41.3134C43.3897 41.2905 43.6798 41.2936 43.9166 41.1641C44.1379 41.043 44.3479 40.8496 44.4354 40.6129C44.5603 40.2754 44.4431 39.8939 44.4354 39.5345C44.38 36.9185 44.3962 34.2919 44.1031 31.6918C44.0839 31.5213 44.0719 31.3455 44.0098 31.1855C43.9583 31.0527 43.8841 30.8929 43.7833 30.7725C43.6735 30.6412 43.5459 30.4823 43.3836 30.3994C43.1942 30.3027 42.973 30.2476 42.7574 30.2262C42.527 30.2035 42.2956 30.2262 42.0646 30.2262C41.2815 30.2258 40.4983 30.2112 39.7154 30.2242C38.9334 30.2371 38.1525 30.2959 37.3704 30.3041C37.0332 30.3076 36.6925 30.3385 36.3586 30.2908C36.0793 30.2508 35.7592 30.1982 35.4926 30.0643C35.2322 29.9335 34.9752 29.7335 34.7598 29.518C34.517 29.2752 34.3108 28.9712 34.0936 28.692C33.6609 28.1355 33.2094 27.5677 32.7746 26.9999C32.001 25.9895 31.2251 24.9551 30.4297 23.9488C29.1541 22.3352 28.0197 20.5865 26.5371 19.1608C26.4537 19.0806 26.2557 18.8264 26.0575 18.8011C25.9487 18.7872 25.7079 18.7111 25.5512 18.7744C25.3467 18.8572 25.0963 18.9644 24.8984 19.1075C24.1698 19.6342 23.4943 20.2819 22.7792 20.8529C22.351 21.1947 21.9487 21.5762 21.4793 21.8588C21.212 22.0198 20.9183 22.1342 20.6266 22.2452C20.4211 22.3234 20.2102 22.3889 19.9966 22.4413C19.7198 22.5091 19.4392 22.5691 19.1553 22.5936C18.9701 22.6096 18.7825 22.6095 18.5977 22.5898C18.3526 22.5637 18.1124 22.5004 17.8737 22.439C17.6673 22.3859 17.4625 22.3249 17.2625 22.2511C16.9524 22.1367 16.6398 22.0204 16.3524 21.857C16.0952 21.7108 15.8467 21.5419 15.6329 21.3374C15.4199 21.1338 15.1979 20.9019 15.0334 20.6446C14.8811 20.4064 14.7365 20.143 14.6337 19.8718C14.5232 19.5806 14.4053 19.2777 14.3539 18.9658C14.2953 18.6108 14.2736 18.2473 14.2739 17.8866C14.2744 17.4982 14.2732 17.1027 14.3623 16.7247C14.4541 16.3355 14.6239 15.965 14.8153 15.6139C15.0022 15.2712 15.2187 14.9381 15.4871 14.6547C15.7175 14.4113 15.9958 14.2147 16.2781 14.0341C16.6311 13.8082 17.0055 13.6102 17.3972 13.4612C17.9771 13.2405 18.6179 13.1009 19.1989 12.9933C21.2748 12.6087 23.2715 12.2734 25.3029 11.8869C26.4863 11.6618 27.6562 11.3622 28.847 11.1808C29.2691 11.1165 29.6948 11.0754 30.1208 11.0457C30.493 11.0198 30.8672 10.9836 31.2395 11.0082C31.509 11.0259 31.7855 11.0478 32.0389 11.1414C32.7989 11.422 33.4772 11.9189 34.1384 12.3959C34.7139 12.8111 35.22 13.3152 35.7513 13.7858C36.5066 14.455 37.2596 15.1276 37.9896 15.8243C38.9529 16.7436 39.8452 17.7356 40.8142 18.6489C41.3204 19.126 41.844 19.6057 42.3997 20.0345C42.9568 20.4645 43.5688 20.8439 44.1717 21.2203C45.2721 21.9073 46.3894 22.5698 47.5362 23.176C48.1368 23.4936 48.7481 23.7934 49.3749 24.0554C50.0761 24.3485 50.7964 24.5956 51.52 24.8282C52.1089 25.0175 52.7101 25.166 53.3053 25.3344C54.0602 25.5481 54.8362 25.6973 55.5703 25.974C55.8789 26.0903 56.209 26.19 56.463 26.4003C56.6538 26.5584 56.8084 26.7707 56.9026 26.9999C56.9829 27.1951 57.0115 27.4156 56.9959 27.6261C56.952 28.2187 56.6697 28.7696 56.4763 29.3315C56.2549 29.9749 56.0007 30.6068 55.7435 31.2367C55.5405 31.734 55.3988 32.2667 55.104 32.7157C54.7763 33.2147 54.2872 33.5865 53.8782 34.0214C53.5144 34.4081 53.1017 34.7538 52.7857 35.1805C52.5939 35.4395 52.4376 35.7257 52.306 36.0199C52.1799 36.3019 52.0735 36.5962 52.0129 36.8992C51.965 37.1394 51.9702 37.3873 51.9596 37.632C51.9423 38.0335 51.8948 38.4384 51.9428 38.8374C52.0125 39.4159 52.1894 39.9733 52.3559 40.5295C52.6059 41.365 52.9952 42.1515 53.2086 42.9943C53.3356 43.4961 53.3738 44.0139 53.4351 44.5265C53.4981 45.0535 53.5587 45.582 53.555 46.112C53.5529 46.4152 53.4941 46.7174 53.4484 47.018C53.4247 47.1741 53.4284 47.3407 53.3614 47.4837C53.1731 47.886 52.8483 48.2203 52.5123 48.5109C52.3397 48.6602 52.1338 48.7544 51.9274 48.8412C51.5995 48.979 51.2527 49.0657 50.9023 49.1125C50.2795 49.1958 49.6456 49.1038 49.0173 49.1006C46.7909 49.0894 44.5645 49.0769 42.338 49.0754C40.9671 49.0744 39.5962 49.0977 38.2253 49.0852C35.0708 49.0565 30.4915 48.8903 28.7635 48.8903L26.5676 48.8904Z" stroke="white" stroke-width="1.5"/>
<defs>
<pattern id="pattern0_246_3" patternUnits="userSpaceOnUse" patternTransform="matrix(12 0 0 12 0 0)" preserveAspectRatio="none" viewBox="0 0 12 12" width="1" height="1">
<g id="pattern0_246_3_inner">
<rect y="2" width="3" height="1" fill="#D9D9D9"/>
<rect y="8" width="3" height="1" fill="#D9D9D9"/>
<rect x="6" y="2" width="3" height="1" fill="#D9D9D9"/>
<rect x="6" y="8" width="3" height="1" fill="#D9D9D9"/>
<rect x="5" y="3" width="3" height="1" transform="rotate(180 5 3)" fill="#D9D9D9"/>
<rect x="5" y="9" width="3" height="1" transform="rotate(180 5 9)" fill="#D9D9D9"/>
<rect x="11" y="3" width="3" height="1" transform="rotate(180 11 3)" fill="#D9D9D9"/>
<rect x="11" y="9" width="3" height="1" transform="rotate(180 11 9)" fill="#D9D9D9"/>
<rect x="2" width="1" height="2" fill="#D9D9D9"/>
<rect x="2" y="6" width="1" height="2" fill="#D9D9D9"/>
<rect x="8" width="1" height="2" fill="#D9D9D9"/>
<rect x="8" y="6" width="1" height="2" fill="#D9D9D9"/>
<rect x="3" y="5" width="1" height="2" transform="rotate(180 3 5)" fill="#D9D9D9"/>
<rect x="3" y="11" width="1" height="2" transform="rotate(180 3 11)" fill="#D9D9D9"/>
<rect x="9" y="5" width="1" height="2" transform="rotate(180 9 5)" fill="#D9D9D9"/>
<rect x="9" y="11" width="1" height="2" transform="rotate(180 9 11)" fill="#D9D9D9"/>
</g>
</pattern></defs>
</svg>
