<svg width="60" height="60" viewBox="0 0 60 60" fill="none" xmlns="http://www.w3.org/2000/svg" xmlns:xlink="http://www.w3.org/1999/xlink">
<rect width="60" height="60" fill="url(#pattern0_231_24)" fill-opacity="0.1"/>
<path fill-rule="evenodd" clip-rule="evenodd" d="M27.003 29.5862C31.8884 26.1819 35.8922 23.5733 41.1297 20.3142C41.5775 20.0356 42.3361 19.5882 42.8465 19.6186C43.3282 19.6472 43.9194 19.8043 44.295 20.0803C44.8143 20.4619 45.0958 21.3162 45.0353 21.9452C44.9987 22.3266 44.8487 22.857 44.5857 23.1432C44.0455 23.731 43.4718 24.225 43.0771 24.8974C42.5151 25.8548 42.0902 26.9356 42.0437 28.0626C42.0082 28.9233 42.2696 29.7915 42.5865 30.5839C42.7656 31.0316 43.167 31.3794 43.5679 31.6686C44.1001 32.0526 44.6031 32.2461 45.2823 32.4523C46.6464 32.8662 47.4881 33.4843 48.0541 34.7261C48.3052 35.277 47.9571 36.0774 47.6784 36.593C47.4283 37.0555 46.7731 37.7493 46.3624 38.0659C45.1255 39.0196 44.388 39.007 43.5949 38.3718C43.2723 38.1135 42.8613 37.7284 42.8604 37.2612C42.8583 36.102 42.9366 35.4009 42.9569 34.7122C42.9789 33.9576 42.173 32.9263 41.8326 32.5901C40.7592 31.53 39.7781 31.1695 38.5644 30.557C37.4587 29.999 36.2224 30.8149 35.3765 31.306C33.0476 32.6584 32.8037 34.2139 33.4881 35.8146C34.0549 37.1401 34.6987 38.5313 35.4538 39.9069C35.8025 40.542 37.2124 41.6528 37.8368 42.0228C38.8069 42.5977 39.6344 43.0636 40.7274 43.2318C41.7839 43.3943 42.7714 43.3103 43.7938 42.9694C44.7555 42.6489 46.3345 41.8603 47.1241 41.1921C50.3502 38.4623 52.419 37.0684 55.21 33.9148C56.2819 32.7037 57.0573 32.1998 56.9967 31.0046C56.9253 29.5958 56.6065 28.0151 55.9816 26.6819C54.8149 24.1926 53.079 22.2842 51.8225 19.9251C51.4776 19.2774 50.6377 18.9685 50.1659 18.7808C48.2669 18.0251 47.0469 17.5011 45.7062 16.9675C44.8752 16.6367 43.8878 16.4824 42.4645 17.1862C39.4143 18.6944 37.046 20.4664 34.0022 22.3879C33.4367 22.745 32.8477 22.8077 32.0626 22.7727C25.6964 22.4892 19.9019 22.46 13.6807 21.7001C11.8569 21.4774 9.9946 21.0838 8.16702 21.0493C7.34478 21.0339 6.38816 21.2883 5.65079 21.5537C4.91184 21.8197 4.24603 22.3753 3.78946 22.9753C3.41928 23.4618 3.01236 24.3336 3.00129 24.9757C2.98874 25.7036 3.0692 26.4809 3.18703 27.2111C4.17955 31.3997 5.01614 35.4902 6.14676 39.6182C6.9095 42.403 7.5394 43.5909 11.6153 40.5782C16.6876 36.8291 21.8377 33.1855 27.003 29.5862Z" stroke="white" stroke-width="1.5" stroke-linejoin="round"/>
<defs>
<pattern id="pattern0_231_24" patternUnits="userSpaceOnUse" patternTransform="matrix(12 0 0 12 0 0)" preserveAspectRatio="none" viewBox="0 0 12 12" width="1" height="1">
<g id="pattern0_231_24_inner">
<rect y="2" width="3" height="1" fill="#D9D9D9"/>
<rect y="8" width="3" height="1" fill="#D9D9D9"/>
<rect x="6" y="2" width="3" height="1" fill="#D9D9D9"/>
<rect x="6" y="8" width="3" height="1" fill="#D9D9D9"/>
<rect x="5" y="3" width="3" height="1" transform="rotate(180 5 3)" fill="#D9D9D9"/>
<rect x="5" y="9" width="3" height="1" transform="rotate(180 5 9)" fill="#D9D9D9"/>
<rect x="11" y="3" width="3" height="1" transform="rotate(180 11 3)" fill="#D9D9D9"/>
<rect x="11" y="9" width="3" height="1" transform="rotate(180 11 9)" fill="#D9D9D9"/>
<rect x="2" width="1" height="2" fill="#D9D9D9"/>
<rect x="2" y="6" width="1" height="2" fill="#D9D9D9"/>
<rect x="8" width="1" height="2" fill="#D9D9D9"/>
<rect x="8" y="6" width="1" height="2" fill="#D9D9D9"/>
<rect x="3" y="5" width="1" height="2" transform="rotate(180 3 5)" fill="#D9D9D9"/>
<rect x="3" y="11" width="1" height="2" transform="rotate(180 3 11)" fill="#D9D9D9"/>
<rect x="9" y="5" width="1" height="2" transform="rotate(180 9 5)" fill="#D9D9D9"/>
<rect x="9" y="11" width="1" height="2" transform="rotate(180 9 11)" fill="#D9D9D9"/>
</g>
</pattern></defs>
</svg>
