<svg width="60" height="60" viewBox="0 0 60 60" fill="none" xmlns="http://www.w3.org/2000/svg" xmlns:xlink="http://www.w3.org/1999/xlink">
<rect width="60" height="60" fill="url(#pattern0_231_22)" fill-opacity="0.1"/>
<path d="M16.0734 38.1474C24.7281 41.5047 33.3836 44.8601 42.0503 48.1863C43.0691 48.5773 44.0898 48.9665 45.1293 49.2988C45.3616 49.3731 45.6112 49.4283 45.8537 49.4023C46.1087 49.375 46.3704 49.2939 46.5782 49.1436C46.7921 48.9889 46.9196 48.7397 47.0698 48.5226C48.7397 46.1088 50.3374 43.6449 52.0375 41.2522C52.2035 41.0185 52.403 40.7873 52.6584 40.6571C52.8672 40.5507 53.1237 40.5583 53.357 40.5795C53.6071 40.6022 53.8303 40.7865 54.0815 40.7865C54.3326 40.7865 54.6073 40.7332 54.8059 40.5795C55.0884 40.361 55.2608 40.0267 55.4528 39.7257C55.9602 38.93 56.4768 38.1361 56.9017 37.2936C56.9918 37.1149 57.0256 36.8931 56.9793 36.6985C56.9333 36.5053 56.8076 36.3178 56.643 36.2069C56.3918 36.0376 56.0719 36.0047 55.7891 35.8964C52.4237 34.6075 49.0514 33.3362 45.6985 32.0154C45.3504 31.8782 45.0081 31.6618 44.7024 31.4462C35.7327 25.1215 26.8611 18.7181 17.8845 12.4033C17.1731 11.9029 16.4281 11.4375 15.6335 11.0837C15.0793 10.837 14.4768 10.6876 13.8741 10.618C13.3423 10.5567 12.7982 10.6088 12.27 10.6956C11.5331 10.8168 10.8133 11.0151 10.1095 11.2649C9.77446 11.3838 9.33662 11.3882 8.95816 11.2907C8.44868 11.1596 7.92863 11.0642 7.40576 11.0061C7.07146 10.969 6.72635 10.9394 6.39669 11.0061C5.35507 11.2171 4.32599 11.498 3.31775 11.8341C3.19612 11.8746 3.09848 11.9967 3.05902 12.1187C2.9979 12.3076 2.97609 12.5236 3.03314 12.7138C3.44541 14.088 3.90228 15.4524 4.45618 16.7759C4.8791 17.7864 5.5957 18.6803 5.87922 19.7384C6.11588 20.6216 7.11911 25.6677 7.53512 28.6777C7.56366 28.8842 7.41236 29.0889 7.27639 29.2469C6.81885 29.7785 6.25267 30.2075 5.77573 30.7217C5.69704 30.8065 5.62448 30.9165 5.62049 31.0322C5.61522 31.1849 5.64348 31.3623 5.74986 31.472C7.02794 32.7903 8.37796 34.0379 9.73437 35.2754C10.0529 35.5661 10.3765 35.8737 10.7693 36.0516C12.5009 36.8361 14.301 37.4598 16.0734 38.1474Z" stroke="white" stroke-width="1.5"/>
<defs>
<pattern id="pattern0_231_22" patternUnits="userSpaceOnUse" patternTransform="matrix(12 0 0 12 0 0)" preserveAspectRatio="none" viewBox="0 0 12 12" width="1" height="1">
<g id="pattern0_231_22_inner">
<rect y="2" width="3" height="1" fill="#D9D9D9"/>
<rect y="8" width="3" height="1" fill="#D9D9D9"/>
<rect x="6" y="2" width="3" height="1" fill="#D9D9D9"/>
<rect x="6" y="8" width="3" height="1" fill="#D9D9D9"/>
<rect x="5" y="3" width="3" height="1" transform="rotate(180 5 3)" fill="#D9D9D9"/>
<rect x="5" y="9" width="3" height="1" transform="rotate(180 5 9)" fill="#D9D9D9"/>
<rect x="11" y="3" width="3" height="1" transform="rotate(180 11 3)" fill="#D9D9D9"/>
<rect x="11" y="9" width="3" height="1" transform="rotate(180 11 9)" fill="#D9D9D9"/>
<rect x="2" width="1" height="2" fill="#D9D9D9"/>
<rect x="2" y="6" width="1" height="2" fill="#D9D9D9"/>
<rect x="8" width="1" height="2" fill="#D9D9D9"/>
<rect x="8" y="6" width="1" height="2" fill="#D9D9D9"/>
<rect x="3" y="5" width="1" height="2" transform="rotate(180 3 5)" fill="#D9D9D9"/>
<rect x="3" y="11" width="1" height="2" transform="rotate(180 3 11)" fill="#D9D9D9"/>
<rect x="9" y="5" width="1" height="2" transform="rotate(180 9 5)" fill="#D9D9D9"/>
<rect x="9" y="11" width="1" height="2" transform="rotate(180 9 11)" fill="#D9D9D9"/>
</g>
</pattern></defs>
</svg>
