<svg width="60" height="60" viewBox="0 0 60 60" fill="none" xmlns="http://www.w3.org/2000/svg" xmlns:xlink="http://www.w3.org/1999/xlink">
<rect width="60" height="60" fill="url(#pattern0_60_15)" fill-opacity="0.1"/>
<path d="M14.423 51.269H50.1804C50.976 51.269 51.7391 50.953 52.3017 50.3904L52.5443 50.1477C53.107 49.5851 53.423 48.822 53.423 48.0264V46.3552C53.423 45.6534 53.6691 44.9738 54.1184 44.4346L55.1245 43.2273C55.6264 42.6251 55.8106 41.8194 55.6205 41.0589C55.4923 40.546 55.202 40.0882 54.7929 39.7535L50.5381 36.2723C50.135 35.9425 49.8247 35.5134 49.6378 35.0273L47.7634 30.1539C47.5419 29.578 47.5033 28.9479 47.653 28.3493L47.8335 27.6273C47.893 27.3894 47.923 27.145 47.923 26.8997V14.269C47.923 12.6122 46.5799 11.269 44.923 11.269H41.423C40.7739 11.269 40.1423 11.4796 39.623 11.869L38.8662 12.4367C38.5732 12.6564 38.2425 12.8206 37.8904 12.9212L35.9486 13.476C35.2852 13.6656 34.5768 13.6207 33.9427 13.3489L32.1873 12.5966C31.6874 12.3823 31.2559 12.035 30.9397 11.5924C29.8799 10.1087 27.7463 9.92037 26.443 11.1955L18.1629 19.2969C17.8451 19.6078 17.4622 19.8442 17.0419 19.9889L11.0777 22.0435C10.6469 22.1919 10.2556 22.4365 9.93344 22.7586L7.01061 25.6815C6.62613 26.0659 6.35337 26.5477 6.2215 27.0752L6.01321 27.9083C5.95354 28.147 5.85327 28.3737 5.7168 28.5784L5.47773 28.937C5.14184 29.4408 5.14184 30.0972 5.47773 30.6011C5.75593 31.0184 6.22428 31.269 6.72581 31.269H22.5914C22.8115 31.269 23.0305 31.2392 23.2426 31.1803L24.5563 30.8154C29.2464 29.5125 33.1654 26.2844 35.3423 21.9306C35.9098 20.7956 37.357 20.4362 38.3895 21.1737L39.1706 21.7316C39.66 22.0811 40.2463 22.269 40.8477 22.269H40.923C42.5799 22.269 43.923 23.6122 43.923 25.269V29.9238C43.923 30.1535 43.9428 30.3828 43.9822 30.6092L45.3212 38.3086C45.6372 40.1253 44.2548 41.7943 42.411 41.8223L13.32 42.263C13.0565 42.267 12.7947 42.3057 12.5413 42.3781L10.5976 42.9335C9.84456 43.1486 9.20553 43.6497 8.81699 44.3296L8.73698 44.4696C7.98634 45.7833 8.33134 47.4503 9.54171 48.3581L12.623 50.669C13.1423 51.0585 13.7739 51.269 14.423 51.269Z" stroke="white" stroke-width="1.5"/>
<defs>
<pattern id="pattern0_60_15" patternUnits="userSpaceOnUse" patternTransform="matrix(12 0 0 12 0 0)" preserveAspectRatio="none" viewBox="0 0 12 12" width="1" height="1">
<g id="pattern0_60_15_inner">
<rect y="2" width="3" height="1" fill="#D9D9D9"/>
<rect y="8" width="3" height="1" fill="#D9D9D9"/>
<rect x="6" y="2" width="3" height="1" fill="#D9D9D9"/>
<rect x="6" y="8" width="3" height="1" fill="#D9D9D9"/>
<rect x="5" y="3" width="3" height="1" transform="rotate(180 5 3)" fill="#D9D9D9"/>
<rect x="5" y="9" width="3" height="1" transform="rotate(180 5 9)" fill="#D9D9D9"/>
<rect x="11" y="3" width="3" height="1" transform="rotate(180 11 3)" fill="#D9D9D9"/>
<rect x="11" y="9" width="3" height="1" transform="rotate(180 11 9)" fill="#D9D9D9"/>
<rect x="2" width="1" height="2" fill="#D9D9D9"/>
<rect x="2" y="6" width="1" height="2" fill="#D9D9D9"/>
<rect x="8" width="1" height="2" fill="#D9D9D9"/>
<rect x="8" y="6" width="1" height="2" fill="#D9D9D9"/>
<rect x="3" y="5" width="1" height="2" transform="rotate(180 3 5)" fill="#D9D9D9"/>
<rect x="3" y="11" width="1" height="2" transform="rotate(180 3 11)" fill="#D9D9D9"/>
<rect x="9" y="5" width="1" height="2" transform="rotate(180 9 5)" fill="#D9D9D9"/>
<rect x="9" y="11" width="1" height="2" transform="rotate(180 9 11)" fill="#D9D9D9"/>
</g>
</pattern></defs>
</svg>
