<svg width="60" height="60" viewBox="0 0 60 60" fill="none" xmlns="http://www.w3.org/2000/svg" xmlns:xlink="http://www.w3.org/1999/xlink">
<rect width="60" height="60" fill="url(#pattern0_231_20)" fill-opacity="0.1"/>
<path d="M21.7193 31.2974C15.9546 31.823 10.3046 32.3486 4.54094 32.873C3.76736 32.944 2.8408 32.0044 3.02327 30.9325C3.26038 29.5339 4.44807 29.3449 5.26973 29.6137C5.69258 29.7514 7.38835 30.7784 7.92702 29.9021C8.9224 28.284 6.54593 27.2929 5.92203 25.3885C4.75401 21.8243 5.85866 17.8154 8.25808 15.7875C10.1167 14.2174 17.9366 12.3523 23.5866 9.58134C24.5525 9.10714 27.8818 7.6299 28.4565 7.82001C29.6191 8.20462 29.3284 10.1091 29.5306 11.2957C30.0102 14.1103 30.5697 16.7195 31.1739 19.4063C31.6262 21.4233 34.0399 23.0142 36.2328 23.1267C38.7961 23.2578 40.0133 22.0691 40.9584 20.7972C41.9156 19.5101 43.5239 18.8665 45.1225 19.0086C46.792 19.1572 48.2365 20.7218 49.0417 21.6582C51.8695 24.9471 53.9378 27.2186 56.6847 30.5009C56.9295 30.7948 57.0912 31.2668 56.9437 31.6198C56.4334 32.8359 55.9231 34.0531 55.414 35.2692C55.2075 35.7608 54.6295 36.0537 54.0974 36.0646C48.6746 36.1826 41.484 37.237 38.2476 37.614C34.2704 38.0772 32.8926 38.0292 32.838 38.9655C32.7997 39.6069 33.3209 39.7326 33.746 40.0221C34.725 40.6908 35.421 40.9596 36.353 41.6928C38.2039 43.1481 37.8619 46.1638 37.2926 48.1262C36.8731 49.5707 35.9105 51.7887 34.2715 52.1635C33.3515 52.3744 32.6031 51.5461 32.0425 51.0839C29.099 48.6561 26.4592 46.2785 23.5156 43.8518C22.742 43.2126 21.3817 42.9285 20.3164 43.4322C18.9408 44.0824 18.2743 44.4429 16.8975 45.0898C14.6314 46.1562 13.1585 45.7847 11.4038 45.1684C9.60202 44.5358 7.84725 42.2511 8.05485 40.9825C8.1816 40.2122 9.27423 39.8047 9.98663 39.6801C22.6524 37.4675 35.3172 35.2539 47.9819 33.0413C48.9401 32.8741 49.7771 32.0142 49.6984 31.127C49.6012 30.0344 48.8768 29.2356 47.2291 29.4148L21.7193 31.2974Z" stroke="white" stroke-width="1.5" stroke-miterlimit="10"/>
<defs>
<pattern id="pattern0_231_20" patternUnits="userSpaceOnUse" patternTransform="matrix(12 0 0 12 0 0)" preserveAspectRatio="none" viewBox="0 0 12 12" width="1" height="1">
<g id="pattern0_231_20_inner">
<rect y="2" width="3" height="1" fill="#D9D9D9"/>
<rect y="8" width="3" height="1" fill="#D9D9D9"/>
<rect x="6" y="2" width="3" height="1" fill="#D9D9D9"/>
<rect x="6" y="8" width="3" height="1" fill="#D9D9D9"/>
<rect x="5" y="3" width="3" height="1" transform="rotate(180 5 3)" fill="#D9D9D9"/>
<rect x="5" y="9" width="3" height="1" transform="rotate(180 5 9)" fill="#D9D9D9"/>
<rect x="11" y="3" width="3" height="1" transform="rotate(180 11 3)" fill="#D9D9D9"/>
<rect x="11" y="9" width="3" height="1" transform="rotate(180 11 9)" fill="#D9D9D9"/>
<rect x="2" width="1" height="2" fill="#D9D9D9"/>
<rect x="2" y="6" width="1" height="2" fill="#D9D9D9"/>
<rect x="8" width="1" height="2" fill="#D9D9D9"/>
<rect x="8" y="6" width="1" height="2" fill="#D9D9D9"/>
<rect x="3" y="5" width="1" height="2" transform="rotate(180 3 5)" fill="#D9D9D9"/>
<rect x="3" y="11" width="1" height="2" transform="rotate(180 3 11)" fill="#D9D9D9"/>
<rect x="9" y="5" width="1" height="2" transform="rotate(180 9 5)" fill="#D9D9D9"/>
<rect x="9" y="11" width="1" height="2" transform="rotate(180 9 11)" fill="#D9D9D9"/>
</g>
</pattern></defs>
</svg>
