<svg width="60" height="60" viewBox="0 0 60 60" fill="none" xmlns="http://www.w3.org/2000/svg" xmlns:xlink="http://www.w3.org/1999/xlink">
<rect width="60" height="60" fill="url(#pattern0_59_7)" fill-opacity="0.1"/>
<path d="M5.41421 47.4724H44.5C44.5 47.4724 49.5 47.4722 52.5 46.9724C54.4067 46.6548 55.4232 45.05 56 43.4724C56.6361 41.7326 55.8925 40.8911 54.5 39.9724C53.7659 39.4881 52.5906 39.5491 51.7035 39.6949C51.0756 39.7981 50.7975 40.493 51.1132 41.0455L51.6205 41.9333C52.0069 42.6094 51.5064 43.4482 50.7279 43.4292L33.1542 43.0005C32.44 42.9831 31.7893 42.586 31.4472 41.9588L30.0062 39.3172C29.603 38.5779 30.2382 37.7017 31.0662 37.855L33.6259 38.329C37.0378 38.9609 39.5808 35.2461 37.7574 32.2939L36.8783 30.8706C34.7861 27.4832 37.2995 23.1283 41.2793 23.2453L47.0871 23.4161C48.3509 23.4533 49.6103 23.2505 50.7985 22.8184L52.2806 22.2794C52.9682 22.0294 52.9275 21.0435 52.2216 20.851L47.1831 19.4769C44.7717 18.8192 42.2323 18.8447 39.7747 19.3004C37.903 19.6475 35.5933 19.9721 33.5 19.9722C32.2651 19.9722 31.1045 20.0248 30 19.4724C28 18.4722 28.5 14.7227 31.5 16.9724C33.5 18.4722 37 15.9726 33 13.4724C31.1121 12.2924 29 12.4726 27.5 14.9724L17.1884 43.0949C16.7715 44.2318 15.712 45.0067 14.5021 45.0593L5 45.4724L4.70711 45.7653C4.07714 46.3953 4.52331 47.4724 5.41421 47.4724Z" stroke="white" stroke-width="1.5"/>
<defs>
<pattern id="pattern0_59_7" patternUnits="userSpaceOnUse" patternTransform="matrix(12 0 0 12 0 0)" preserveAspectRatio="none" viewBox="0 0 12 12" width="1" height="1">
<g id="pattern0_59_7_inner">
<rect y="2" width="3" height="1" fill="#D9D9D9"/>
<rect y="8" width="3" height="1" fill="#D9D9D9"/>
<rect x="6" y="2" width="3" height="1" fill="#D9D9D9"/>
<rect x="6" y="8" width="3" height="1" fill="#D9D9D9"/>
<rect x="5" y="3" width="3" height="1" transform="rotate(180 5 3)" fill="#D9D9D9"/>
<rect x="5" y="9" width="3" height="1" transform="rotate(180 5 9)" fill="#D9D9D9"/>
<rect x="11" y="3" width="3" height="1" transform="rotate(180 11 3)" fill="#D9D9D9"/>
<rect x="11" y="9" width="3" height="1" transform="rotate(180 11 9)" fill="#D9D9D9"/>
<rect x="2" width="1" height="2" fill="#D9D9D9"/>
<rect x="2" y="6" width="1" height="2" fill="#D9D9D9"/>
<rect x="8" width="1" height="2" fill="#D9D9D9"/>
<rect x="8" y="6" width="1" height="2" fill="#D9D9D9"/>
<rect x="3" y="5" width="1" height="2" transform="rotate(180 3 5)" fill="#D9D9D9"/>
<rect x="3" y="11" width="1" height="2" transform="rotate(180 3 11)" fill="#D9D9D9"/>
<rect x="9" y="5" width="1" height="2" transform="rotate(180 9 5)" fill="#D9D9D9"/>
<rect x="9" y="11" width="1" height="2" transform="rotate(180 9 11)" fill="#D9D9D9"/>
</g>
</pattern></defs>
</svg>
