<svg width="60" height="60" viewBox="0 0 60 60" fill="none" xmlns="http://www.w3.org/2000/svg" xmlns:xlink="http://www.w3.org/1999/xlink">
<rect width="60" height="60" fill="url(#pattern0_231_19)" fill-opacity="0.1"/>
<path d="M4.82612 49.8741L4.95517 49.1353L4.95421 49.1352L4.82612 49.8741ZM4.50156 42.5869L3.7987 42.3251L3.79843 42.3259L4.50156 42.5869ZM4.50199 42.5857L5.20484 42.8474L5.20512 42.8467L4.50199 42.5857ZM9.06984 30.5825L8.37956 30.2892L8.36865 30.3149L8.35967 30.3413L9.06984 30.5825ZM9.996 28.3542L10.6978 28.6188V28.6188L9.996 28.3542ZM10.1732 27.892L10.8701 28.1692L10.8702 28.1689L10.1732 27.892ZM11.5029 24.5451L12.1999 24.8221L12.2004 24.8207L11.5029 24.5451ZM15.7927 13.6867L15.0955 13.4103L15.0952 13.4112L15.7927 13.6867ZM16.6084 11.5985L17.3084 11.8678L17.3104 11.8625L16.6084 11.5985ZM16.7736 11.148L16.0685 10.8926L16.0685 10.8926L16.7736 11.148ZM17.698 9.11987L17.0836 8.68963L17.0797 8.69537L17.698 9.11987ZM20.2988 7.30689L20.0777 6.59022V6.59022L20.2988 7.30689ZM25.5847 7.62436L25.936 6.96162L25.9264 6.95673L25.5847 7.62436ZM27.8658 13.6028L28.5264 13.9579L28.5264 13.9579L27.8658 13.6028ZM25.6374 15.6379L25.8644 16.3527L25.8644 16.3527L25.6374 15.6379ZM22.8485 14.4367L23.4477 13.9857L23.4477 13.9857L22.8485 14.4367ZM22.5817 13.9328L23.2717 13.6389L23.2717 13.6389L22.5817 13.9328ZM22.4248 13.5976L23.0813 13.2349L23.0632 13.2021L23.0419 13.1713L22.4248 13.5976ZM20.7108 12.721L20.4632 12.013L20.4631 12.0131L20.7108 12.721ZM19.6772 13.6755L19.0218 13.3108L19.0208 13.3126L19.6772 13.6755ZM19.6376 14.7633L18.9318 15.0171L18.9318 15.0171L19.6376 14.7633ZM22.1961 17.8912L22.5378 17.2235L22.5378 17.2235L22.1961 17.8912ZM24.8886 18.237L24.9842 18.9809L24.9846 18.9808L24.8886 18.237ZM24.8904 18.2368L24.7949 17.4929L24.7943 17.493L24.8904 18.2368ZM24.8973 18.2359L24.9928 18.9798L24.9928 18.9798L24.8973 18.2359ZM25.0298 18.2189L25.1246 18.9629L25.1303 18.9622L25.0298 18.2189ZM27.6762 17.838L27.5661 17.0962L27.5631 17.0966L27.6762 17.838ZM36.6098 16.5735L36.7099 17.3168L36.7111 17.3166L36.6098 16.5735ZM38.846 16.2688L38.9472 17.012L38.9486 17.0118L38.846 16.2688ZM39.0398 16.2419L39.1435 16.9847L39.1435 16.9847L39.0398 16.2419ZM41.4985 16.0458L41.4785 15.296L41.4985 16.0458ZM53.3184 18.9028L53.5528 18.1904L53.3184 18.9028ZM56.2935 19.9507L55.9256 20.6043L55.9256 20.6043L56.2935 19.9507ZM56.2835 22.685L56.6273 23.3516L56.6273 23.3515L56.2835 22.685ZM53.5798 23.7382L53.3566 23.0222L53.3535 23.0232L53.5798 23.7382ZM50.8411 24.2944L50.9083 25.0414L50.9118 25.0411L50.8411 24.2944ZM48.0789 24.3067L48.0494 25.0561V25.0561L48.0789 24.3067ZM47.2987 24.2786L47.3205 23.5289L47.3205 23.5289L47.2987 24.2786ZM42.5391 23.9936L42.4828 24.7415V24.7415L42.5391 23.9936ZM39.5943 23.7894L39.5512 24.5382L39.5512 24.5382L39.5943 23.7894ZM38.866 23.742L38.9173 22.9937V22.9937L38.866 23.742ZM35.8475 23.6951L35.9311 24.4405L35.9311 24.4405L35.8475 23.6951ZM30.7289 26.6821L30.0584 26.3461L30.0584 26.3461L30.7289 26.6821ZM30.0573 33.1814L30.7739 32.9601L30.7739 32.96L30.0573 33.1814ZM32.1097 36.8827L31.4922 37.3083V37.3083L32.1097 36.8827ZM34.3955 42.5036L33.647 42.4564L33.647 42.4565L34.3955 42.5036ZM33.9426 44.2976L33.2845 43.9379L33.2843 43.9381L33.9426 44.2976ZM29.892 47.522L30.1344 48.2318L30.1345 48.2318L29.892 47.522ZM25.9311 47.2701L25.7308 47.9928V47.9928L25.9311 47.2701ZM24.0053 46.8346L24.0992 46.0906L24.0991 46.0905L24.0053 46.8346ZM22.6575 46.8396L22.7481 47.5841L22.6575 46.8396ZM10.5224 52.548L10.2932 51.8339L10.2931 51.8339L10.5224 52.548ZM6.99895 50.446L6.25374 50.5306L6.25402 50.533L6.99895 50.446ZM6.14288 50.104L6.01764 50.8434L6.01772 50.8434L6.14288 50.104ZM6.09339 50.0955L6.22312 49.3568L6.22244 49.3567L6.09339 50.0955ZM3.10552 48.848L3.81464 48.6037L3.81462 48.6037L3.10552 48.848ZM3.32371 46.0468L4.04661 46.2466L4.04662 46.2466L3.32371 46.0468ZM4.78894 41.809L4.08484 41.5507L4.08464 41.5512L4.78894 41.809ZM7.87367 33.6869L7.17645 33.4105L7.1756 33.4127L7.87367 33.6869ZM8.66323 31.6952L7.96615 31.4185L7.96602 31.4188L8.66323 31.6952ZM8.72093 31.5522L9.41586 31.8343H9.41587L8.72093 31.5522ZM4.50156 42.5869L5.20441 42.8486L5.20484 42.8474L4.50199 42.5857L3.79913 42.324L3.7987 42.3251L4.50156 42.5869ZM9.06984 30.5825C9.76013 30.8757 9.76014 30.8757 9.76014 30.8757C9.76015 30.8757 9.76016 30.8757 9.76017 30.8756C9.7602 30.8756 9.76023 30.8755 9.76028 30.8754C9.76038 30.8751 9.76052 30.8748 9.76071 30.8744C9.76109 30.8735 9.76164 30.8722 9.76238 30.8704C9.76384 30.867 9.76602 30.8619 9.76885 30.8552C9.77453 30.8418 9.78286 30.8222 9.79351 30.7971C9.8148 30.7469 9.84539 30.6747 9.8826 30.5867C9.95698 30.4109 10.0579 30.1718 10.1639 29.9192C10.3727 29.4219 10.611 28.8491 10.6978 28.6188L9.996 28.3542L9.29421 28.0896C9.21961 28.2875 8.99482 28.8289 8.78084 29.3386C8.67551 29.5896 8.57516 29.8273 8.50111 30.0023C8.4641 30.0898 8.43368 30.1616 8.41253 30.2115C8.40196 30.2364 8.3937 30.2559 8.38809 30.2691C8.38529 30.2757 8.38315 30.2808 8.38171 30.2841C8.38099 30.2858 8.38045 30.2871 8.38009 30.288C8.37991 30.2884 8.37977 30.2887 8.37968 30.2889C8.37964 30.289 8.37961 30.2891 8.37959 30.2891C8.37957 30.2892 8.37957 30.2892 8.37956 30.2892C8.37956 30.2892 8.37956 30.2892 9.06984 30.5825ZM9.996 28.3542L10.6978 28.6188C10.7602 28.4532 10.817 28.3026 10.8701 28.1692L10.1732 27.892L9.47632 27.6147C9.41726 27.7632 9.35541 27.9273 9.29421 28.0896L9.996 28.3542ZM10.1732 27.892L10.8702 28.1689L12.1999 24.8221L11.5029 24.5451L10.8059 24.2682L9.47619 27.615L10.1732 27.892ZM11.5029 24.5451L12.2004 24.8207L16.4902 13.9623L15.7927 13.6867L15.0952 13.4112L10.8054 24.2696L11.5029 24.5451ZM15.7927 13.6867L16.4899 13.9632C16.7663 13.2661 17.0391 12.5676 17.3084 11.8678L16.6084 11.5985L15.9085 11.3291C15.641 12.0242 15.37 12.7179 15.0955 13.4103L15.7927 13.6867ZM16.6084 11.5985L17.3104 11.8625C17.3673 11.7113 17.4235 11.556 17.4788 11.4035L16.7736 11.148L16.0685 10.8926C16.0126 11.0467 15.9595 11.1933 15.9064 11.3345L16.6084 11.5985ZM16.7736 11.148L17.4788 11.4035C17.739 10.6851 17.9793 10.0352 18.3163 9.54438L17.698 9.11987L17.0797 8.69537C16.6138 9.3739 16.313 10.2177 16.0685 10.8926L16.7736 11.148ZM17.698 9.11987L18.3123 9.5501C18.7656 8.90287 19.7097 8.27352 20.5199 8.02355L20.2988 7.30689L20.0777 6.59022C19.0119 6.91905 17.7627 7.71997 17.0836 8.68965L17.698 9.11987ZM20.2988 7.30689L20.5199 8.02355C21.1941 7.81555 22.0666 7.71664 22.9444 7.76004C23.8265 7.80365 24.6484 7.98765 25.243 8.29199L25.5847 7.62436L25.9264 6.95673C25.0829 6.52499 24.0339 6.31207 23.0185 6.26187C21.9989 6.21146 20.9475 6.32185 20.0777 6.59022L20.2988 7.30689ZM25.5847 7.62436L25.2335 8.28704C26.0981 8.74531 26.8446 9.56112 27.2411 10.4927C27.6343 11.4166 27.663 12.3962 27.2052 13.2476L27.8658 13.6028L28.5264 13.9579C29.2442 12.6226 29.1525 11.1536 28.6213 9.90535C28.0933 8.66476 27.1115 7.58473 25.9359 6.96168L25.5847 7.62436ZM27.8658 13.6028L27.2052 13.2476C26.739 14.1147 26.2204 14.6658 25.4104 14.9231L25.6374 15.6379L25.8644 16.3527C27.1849 15.9333 27.9586 15.0139 28.5264 13.9579L27.8658 13.6028ZM25.6374 15.6379L25.4104 14.9231C25.0122 15.0495 24.6899 15.0019 24.394 14.8531C24.0743 14.6923 23.7568 14.3964 23.4477 13.9857L22.8485 14.4367L22.2492 14.8876C22.6315 15.3957 23.1149 15.8888 23.72 16.1932C24.3491 16.5096 25.0755 16.6032 25.8644 16.3527L25.6374 15.6379ZM22.8485 14.4367L23.4477 13.9857C23.3906 13.9097 23.3497 13.8221 23.2717 13.6389L22.5817 13.9328L21.8916 14.2267C21.961 14.3895 22.0658 14.6439 22.2492 14.8876L22.8485 14.4367ZM22.5817 13.9328L23.2717 13.6389C23.2262 13.5321 23.164 13.3846 23.0813 13.2349L22.4248 13.5976L21.7684 13.9603C21.8082 14.0324 21.842 14.1101 21.8916 14.2267L22.5817 13.9328ZM22.4248 13.5976L23.0419 13.1713C22.8235 12.8551 22.4659 12.5104 22.0626 12.2679C21.6836 12.0401 21.0824 11.7965 20.4632 12.013L20.7108 12.721L20.9585 13.4289C20.9408 13.4351 21.0403 13.4036 21.2898 13.5535C21.515 13.6889 21.7137 13.8877 21.8078 14.0239L22.4248 13.5976ZM20.7108 12.721L20.4631 12.0131C19.7278 12.2704 19.3195 12.7758 19.0218 13.3108L19.6772 13.6755L20.3326 14.0402C20.534 13.6782 20.7018 13.5187 20.9585 13.4289L20.7108 12.721ZM19.6772 13.6755L19.0208 13.3126C18.685 13.9202 18.7489 14.5085 18.9318 15.0171L19.6376 14.7633L20.3433 14.5095C20.2526 14.2573 20.2729 14.1482 20.3336 14.0383L19.6772 13.6755ZM19.6376 14.7633L18.9318 15.0171C19.4376 16.4233 20.4009 17.8147 21.8543 18.5588L22.1961 17.8912L22.5378 17.2235C21.5195 16.7022 20.7622 15.674 20.3433 14.5095L19.6376 14.7633ZM22.1961 17.8912L21.8543 18.5588C22.4538 18.8657 22.9499 19.0256 23.4749 19.0711C23.9729 19.1142 24.461 19.0481 24.9842 18.9809L24.8886 18.237L24.793 17.4931C24.2285 17.5657 23.9105 17.6032 23.6042 17.5767C23.325 17.5525 23.0186 17.4697 22.5378 17.2235L22.1961 17.8912ZM24.8886 18.237L24.9846 18.9808L24.9864 18.9806L24.8904 18.2368L24.7943 17.493L24.7926 17.4932L24.8886 18.237ZM24.8904 18.2368L24.9859 18.9807L24.9928 18.9798L24.8973 18.2359L24.8018 17.492L24.7949 17.4929L24.8904 18.2368ZM24.8973 18.2359L24.9928 18.9798C25.0361 18.9742 25.08 18.9686 25.1246 18.9629L25.0298 18.2189L24.935 17.4749C24.8895 17.4807 24.8449 17.4865 24.8017 17.492L24.8973 18.2359ZM25.0298 18.2189L25.1303 18.9622C26.0178 18.8421 26.9042 18.7146 27.7894 18.5794L27.6762 17.838L27.5631 17.0966C26.6862 17.2305 25.8083 17.3568 24.9293 17.4757L25.0298 18.2189ZM27.6762 17.838L27.7864 18.5799C30.758 18.1388 33.7326 17.7177 36.7099 17.3168L36.6098 16.5735L36.5097 15.8302C33.5257 16.232 30.5445 16.654 27.5661 17.0962L27.6762 17.838ZM36.6098 16.5735L36.7111 17.3166L38.9472 17.012L38.846 16.2688L38.7447 15.5257L36.5086 15.8303L36.6098 16.5735ZM38.846 16.2688L38.9486 17.0118C39.0127 17.0029 39.0779 16.9938 39.1435 16.9847L39.0398 16.2419L38.9362 15.4991C38.8704 15.5082 38.8062 15.5172 38.7433 15.5259L38.846 16.2688ZM39.0398 16.2419L39.1435 16.9847C39.8943 16.8799 40.5819 16.8205 41.5185 16.7955L41.4985 16.0458L41.4785 15.296C40.4893 15.3224 39.7457 15.3861 38.9361 15.4991L39.0398 16.2419ZM41.4985 16.0458L41.5185 16.7955C46.0942 16.6734 48.4515 18.0916 53.0841 19.6153L53.3184 18.9028L53.5528 18.1904C49.164 16.7469 46.3986 15.1648 41.4785 15.296L41.4985 16.0458ZM53.3184 18.9028L53.0841 19.6153C53.6581 19.8041 54.2634 19.9681 54.6922 20.1018C55.1594 20.2475 55.5534 20.3948 55.9256 20.6043L56.2935 19.9507L56.6613 19.2971C56.1555 19.0125 55.647 18.8283 55.1388 18.6698C54.5921 18.4993 54.1489 18.3865 53.5528 18.1904L53.3184 18.9028ZM56.2935 19.9507L55.9256 20.6043C56.0869 20.6951 56.25 20.9516 56.25 21.3305C56.25 21.7097 56.0889 21.9415 55.9397 22.0185L56.2835 22.685L56.6273 23.3515C57.4369 22.9339 57.7501 22.0627 57.75 21.3304C57.7499 20.5979 57.4386 19.7345 56.6613 19.2971L56.2935 19.9507ZM56.2835 22.685L55.9397 22.0184C55.2101 22.3947 54.1999 22.7593 53.3566 23.0222L53.5798 23.7382L53.803 24.4542C54.6739 24.1827 55.7817 23.7877 56.6273 23.3516L56.2835 22.685ZM53.5798 23.7382L53.3535 23.0232C52.5136 23.2889 51.6478 23.4648 50.7705 23.5478L50.8411 24.2944L50.9118 25.0411C51.8948 24.9481 52.8649 24.751 53.806 24.4533L53.5798 23.7382ZM50.8411 24.2944L50.7739 23.5474C49.8941 23.6266 49.0365 23.5938 48.1084 23.5573L48.0789 24.3067L48.0494 25.0561C48.9633 25.0921 49.9166 25.1306 50.9083 25.0414L50.8411 24.2944ZM48.0789 24.3067L48.1084 23.5573C47.8505 23.5471 47.5869 23.5367 47.3205 23.5289L47.2987 24.2786L47.2768 25.0283C47.5343 25.0358 47.7902 25.0459 48.0494 25.0561L48.0789 24.3067ZM47.2987 24.2786L47.3205 23.5289C45.7518 23.4832 44.1831 23.3653 42.5954 23.2458L42.5391 23.9936L42.4828 24.7415C44.0647 24.8606 45.6678 24.9814 47.2768 25.0283L47.2987 24.2786ZM42.5391 23.9936L42.5954 23.2458C41.6146 23.1719 40.6265 23.0975 39.6373 23.0406L39.5943 23.7894L39.5512 24.5382C40.5249 24.5942 41.4998 24.6675 42.4828 24.7415L42.5391 23.9936ZM39.5943 23.7894L39.6374 23.0406C39.4113 23.0276 39.1708 23.0111 38.9173 22.9937L38.866 23.742L38.8146 24.4902C39.0663 24.5075 39.3153 24.5246 39.5512 24.5382L39.5943 23.7894ZM38.866 23.742L38.9173 22.9937C37.935 22.9263 36.7319 22.8412 35.7639 22.9498L35.8475 23.6951L35.9311 24.4405C36.736 24.3502 37.7895 24.4199 38.8146 24.4902L38.866 23.742ZM35.8475 23.6951L35.7639 22.9498C34.7353 23.0652 33.5849 23.3958 32.5619 23.9427C31.5436 24.4871 30.5939 25.2778 30.0584 26.3461L30.7289 26.6821L31.3994 27.0182C31.751 26.3167 32.4202 25.7194 33.2691 25.2655C34.1135 24.8141 35.0789 24.5361 35.9311 24.4405L35.8475 23.6951ZM30.7289 26.6821L30.0584 26.3461C28.9846 28.4884 28.6053 31.0232 29.3408 33.4029L30.0573 33.1814L30.7739 32.96C30.1718 31.0119 30.4676 28.8773 31.3994 27.0182L30.7289 26.6821ZM30.0573 33.1814L29.3407 33.4028C29.7858 34.8438 30.6834 36.1351 31.4922 37.3083L32.1097 36.8827L32.7272 36.457C31.8899 35.2423 31.139 34.1419 30.7739 32.9601L30.0573 33.1814ZM32.1097 36.8827L31.4922 37.3083C32.7361 39.1131 33.761 40.6486 33.647 42.4564L34.3955 42.5036L35.144 42.5508C35.2963 40.1356 33.9048 38.1656 32.7272 36.457L32.1097 36.8827ZM34.3955 42.5036L33.647 42.4565C33.6148 42.9694 33.4862 43.5687 33.2845 43.9379L33.9426 44.2976L34.6007 44.6572C34.9511 44.0162 35.1051 43.1699 35.144 42.5506L34.3955 42.5036ZM33.9426 44.2976L33.2843 43.9381C32.9706 44.5127 32.4103 45.1182 31.7274 45.6486C31.0481 46.1763 30.2973 46.591 29.6496 46.8123L29.892 47.522L30.1345 48.2318C30.9653 47.9479 31.8608 47.4444 32.6476 46.8332C33.4309 46.2247 34.1566 45.4706 34.6009 44.657L33.9426 44.2976ZM29.892 47.522L29.6496 46.8123C28.5349 47.193 27.4685 46.9179 26.1314 46.5473L25.9311 47.2701L25.7308 47.9928C26.9991 48.3443 28.515 48.7849 30.1344 48.2318L29.892 47.522ZM25.9311 47.2701L26.1314 46.5473C25.5048 46.3736 24.8138 46.1807 24.0992 46.0906L24.0053 46.8346L23.9114 47.5787C24.4998 47.653 25.0859 47.8141 25.7308 47.9928L25.9311 47.2701ZM24.0053 46.8346L24.0991 46.0905C23.614 46.0294 23.1487 46.0243 22.5668 46.0951L22.6575 46.8396L22.7481 47.5841C23.2112 47.5277 23.5525 47.5335 23.9115 47.5788L24.0053 46.8346ZM18.9198 48.8884L18.5619 48.2293C15.8462 49.7043 13.2234 50.8932 10.2932 51.8339L10.5224 52.548L10.7516 53.2621C13.7899 52.2868 16.4995 51.0565 19.2778 49.5474L18.9198 48.8884ZM10.5224 52.548L10.2931 51.8339C9.6682 52.0346 9.20832 52.1661 8.85208 52.2217C8.4924 52.278 8.34739 52.2378 8.28928 52.2085C8.25132 52.1895 8.15393 52.1285 8.0414 51.8352C7.92453 51.5305 7.82625 51.0643 7.74389 50.359L6.99895 50.446L6.25402 50.533C6.34006 51.2698 6.45492 51.8875 6.64089 52.3724C6.83121 52.8685 7.12638 53.3029 7.61568 53.5488C8.08483 53.7846 8.60178 53.7791 9.08374 53.7037C9.56914 53.6279 10.1306 53.4615 10.7517 53.262L10.5224 52.548ZM6.99895 50.446L7.74416 50.3614C7.69749 49.9503 7.39062 49.741 7.28217 49.6744C7.14005 49.5872 6.98626 49.5325 6.87268 49.4978C6.63834 49.4262 6.3829 49.3839 6.26804 49.3645L6.14288 50.104L6.01772 50.8434C6.14589 50.8651 6.30708 50.8934 6.4343 50.9323C6.50151 50.9528 6.51474 50.9634 6.4973 50.9527C6.48722 50.9465 6.44361 50.9191 6.39483 50.8619C6.34308 50.8012 6.27179 50.6896 6.25374 50.5306L6.99895 50.446ZM6.14288 50.104L6.26813 49.3645C6.24857 49.3612 6.23453 49.3588 6.22312 49.3568L6.09339 50.0955L5.96366 50.8342C5.98058 50.8372 5.99981 50.8404 6.01764 50.8434L6.14288 50.104ZM6.09339 50.0955L6.22244 49.3567L4.95517 49.1353L4.82612 49.8741L4.69707 50.613L5.96434 50.8343L6.09339 50.0955ZM4.82612 49.8741C4.95421 49.1352 4.95438 49.1352 4.95455 49.1352C4.95459 49.1352 4.95475 49.1353 4.95485 49.1353C4.95504 49.1353 4.95521 49.1353 4.95536 49.1354C4.95566 49.1354 4.95587 49.1354 4.956 49.1355C4.95626 49.1355 4.95619 49.1355 4.9558 49.1354C4.95501 49.1353 4.95294 49.1349 4.94967 49.1343C4.94311 49.133 4.93178 49.1308 4.9163 49.1276C4.88524 49.1211 4.83806 49.1107 4.77962 49.0958C4.661 49.0656 4.50463 49.0195 4.34593 48.9556C4.18365 48.8903 4.04326 48.816 3.94153 48.7384C3.83772 48.6593 3.8167 48.6097 3.81464 48.6037L3.10552 48.848L2.3964 49.0922C2.52766 49.4733 2.78837 49.7455 3.03216 49.9313C3.27804 50.1188 3.55114 50.2526 3.78568 50.3471C4.0238 50.443 4.24758 50.5082 4.40992 50.5495C4.49195 50.5704 4.56045 50.5857 4.60994 50.596C4.63474 50.6012 4.65491 50.6051 4.66978 50.6079C4.67722 50.6094 4.68335 50.6105 4.68808 50.6114C4.69045 50.6118 4.69246 50.6121 4.69413 50.6124C4.69496 50.6126 4.6957 50.6127 4.69635 50.6128C4.69667 50.6129 4.69697 50.6129 4.69725 50.613C4.69739 50.613 4.69759 50.613 4.69766 50.6131C4.69784 50.6131 4.69802 50.6131 4.82612 49.8741ZM3.10552 48.848L3.81462 48.6037C3.74386 48.3983 3.7273 48.0281 3.78487 47.5399C3.83946 47.077 3.94838 46.602 4.04661 46.2466L3.32371 46.0468L2.60081 45.847C2.48989 46.2483 2.36152 46.8018 2.2952 47.3642C2.23186 47.9013 2.21078 48.5534 2.39641 49.0922L3.10552 48.848ZM3.32371 46.0468L4.04662 46.2466C4.34631 45.1619 4.77984 43.9924 5.20468 42.8478L4.50156 42.5869L3.79843 42.3259C3.37864 43.4568 2.92082 44.6888 2.60079 45.8471L3.32371 46.0468ZM4.50199 42.5857L5.20512 42.8467C5.30255 42.5842 5.39947 42.323 5.49325 42.0668L4.78894 41.809L4.08464 41.5512C3.99223 41.8037 3.89651 42.0616 3.79886 42.3247L4.50199 42.5857ZM4.78894 41.809L5.49305 42.0674C6.48859 39.3539 7.51488 36.6515 8.57174 33.9611L7.87367 33.6869L7.1756 33.4127C6.11459 36.1137 5.08427 38.8267 4.08484 41.5507L4.78894 41.809ZM7.87367 33.6869L8.57088 33.9633L9.36044 31.9716L8.66323 31.6952L7.96602 31.4188L7.17646 33.4105L7.87367 33.6869ZM8.66323 31.6952L9.36031 31.9719C9.37353 31.9386 9.39217 31.8927 9.41586 31.8343L8.72093 31.5522L8.026 31.2702C8.00318 31.3264 7.982 31.3786 7.96615 31.4185L8.66323 31.6952ZM8.72093 31.5522L9.41587 31.8343C9.48347 31.6678 9.57623 31.4092 9.6479 31.2053C9.68471 31.1006 9.71765 31.0054 9.74137 30.9365C9.75325 30.902 9.76284 30.874 9.7695 30.8545C9.77283 30.8447 9.77543 30.8371 9.7772 30.8319C9.77809 30.8293 9.77878 30.8273 9.77925 30.8259C9.77949 30.8252 9.77967 30.8246 9.7798 30.8243C9.77986 30.8241 9.77991 30.8239 9.77995 30.8238C9.77996 30.8238 9.77998 30.8237 9.77999 30.8237C9.78 30.8237 9.78 30.8237 9.78 30.8237C9.78001 30.8236 9.78001 30.8236 9.06984 30.5825C8.35967 30.3413 8.35968 30.3413 8.35968 30.3413C8.35968 30.3413 8.35968 30.3413 8.35968 30.3413C8.35967 30.3413 8.35967 30.3413 8.35966 30.3414C8.35964 30.3414 8.35961 30.3415 8.35956 30.3416C8.35946 30.3419 8.35932 30.3424 8.35912 30.343C8.35871 30.3441 8.3581 30.3459 8.35728 30.3483C8.35565 30.3531 8.3532 30.3603 8.35004 30.3696C8.3437 30.3881 8.33447 30.4151 8.32299 30.4484C8.30003 30.5152 8.26821 30.6071 8.23278 30.7079C8.15996 30.9151 8.07827 31.1414 8.026 31.2702L8.72093 31.5522ZM22.6575 46.8396L22.5668 46.0951C22.1282 46.1485 21.7859 46.2182 21.4848 46.3381C21.1721 46.4626 20.9475 46.6245 20.7368 46.7892C20.3544 47.0882 19.8757 47.5157 18.5619 48.2293L18.9198 48.8884L19.2778 49.5474C20.7109 48.7691 21.2745 48.2729 21.6607 47.9709C21.8345 47.835 21.9259 47.777 22.0398 47.7316C22.1653 47.6817 22.3601 47.6314 22.7481 47.5841L22.6575 46.8396Z" fill="white"/>
<defs>
<pattern id="pattern0_231_19" patternUnits="userSpaceOnUse" patternTransform="matrix(12 0 0 12 0 0)" preserveAspectRatio="none" viewBox="0 0 12 12" width="1" height="1">
<g id="pattern0_231_19_inner">
<rect y="2" width="3" height="1" fill="#D9D9D9"/>
<rect y="8" width="3" height="1" fill="#D9D9D9"/>
<rect x="6" y="2" width="3" height="1" fill="#D9D9D9"/>
<rect x="6" y="8" width="3" height="1" fill="#D9D9D9"/>
<rect x="5" y="3" width="3" height="1" transform="rotate(180 5 3)" fill="#D9D9D9"/>
<rect x="5" y="9" width="3" height="1" transform="rotate(180 5 9)" fill="#D9D9D9"/>
<rect x="11" y="3" width="3" height="1" transform="rotate(180 11 3)" fill="#D9D9D9"/>
<rect x="11" y="9" width="3" height="1" transform="rotate(180 11 9)" fill="#D9D9D9"/>
<rect x="2" width="1" height="2" fill="#D9D9D9"/>
<rect x="2" y="6" width="1" height="2" fill="#D9D9D9"/>
<rect x="8" width="1" height="2" fill="#D9D9D9"/>
<rect x="8" y="6" width="1" height="2" fill="#D9D9D9"/>
<rect x="3" y="5" width="1" height="2" transform="rotate(180 3 5)" fill="#D9D9D9"/>
<rect x="3" y="11" width="1" height="2" transform="rotate(180 3 11)" fill="#D9D9D9"/>
<rect x="9" y="5" width="1" height="2" transform="rotate(180 9 5)" fill="#D9D9D9"/>
<rect x="9" y="11" width="1" height="2" transform="rotate(180 9 11)" fill="#D9D9D9"/>
</g>
</pattern></defs>
</svg>
