<svg width="60" height="60" viewBox="0 0 60 60" fill="none" xmlns="http://www.w3.org/2000/svg" xmlns:xlink="http://www.w3.org/1999/xlink">
<rect width="60" height="60" fill="url(#pattern0_231_18)" fill-opacity="0.1"/>
<path d="M4.0514 18.9392C4.34374 16.787 4.67104 15.2722 5.08945 13.1297C5.21943 12.4641 5.78618 11.8136 6.09469 11.5828C6.59597 11.2078 7.62703 10.7811 8.25457 10.6841C10.076 10.4026 11.4441 10.4358 13.3036 10.516C14.906 10.585 16.6099 10.8402 18.2419 11.2235C19.6041 11.5435 21.0652 12.0466 22.4668 12.1379C23.5302 12.2071 24.4642 11.9261 25.4373 11.5834C25.826 11.4464 26.5236 11.4205 27.0811 11.8373C27.6708 12.2782 28.3041 12.7474 28.9529 13.1403C29.535 13.4927 30.1735 13.8359 30.8146 13.9379C31.4716 14.0424 32.0728 13.8078 32.7382 13.6194C33.2375 13.478 33.5691 13.0757 34.2749 13.1004C34.9066 13.1225 35.3404 13.2807 35.7677 13.5399C36.1562 13.7756 36.4868 14.1381 36.6701 14.578C37.037 15.4581 37.1233 16.4756 37.5423 17.3289C37.928 18.1143 38.5464 18.8269 39.2101 19.4207C42.9943 22.8069 46.8714 26.2064 50.6416 29.7017C52.6153 31.5315 54.4847 33.393 56.2184 35.4027C56.6404 35.892 56.9804 36.6474 56.9991 37.2649C57.0177 37.8773 56.7383 38.6083 56.3777 39.1115C56.0164 39.6157 55.4239 39.9813 54.8266 40.2014C53.7627 40.5937 52.2 40.4683 51.1872 41.0174C48.8908 42.2624 46.785 43.3197 44.2594 44.5347C43.616 44.8442 43.6604 45.3261 43.7932 45.5715C44.0171 45.9851 44.4029 46.4053 44.4137 46.8218C44.4292 47.4144 44.2162 48.1 43.7107 48.5889C43.2257 49.0581 42.505 49.4485 41.8117 49.5217C41.0971 49.5972 40.2156 49.4444 39.5939 49.078C38.79 48.6041 38.1585 47.7491 37.5348 47.0007C34.4222 43.2657 31.6275 40.1074 28.2821 36.6047C27.3003 35.5768 28.4043 33.9194 28.7558 33.4416C28.9745 33.1443 30.4728 30.4781 30.7031 29.0877C30.9227 27.7614 29.8783 25.64 28.73 24.1101C27.6203 22.6318 26.7308 21.8523 26.8634 21.4084C26.9961 20.9646 26.8634 20.6405 29.1672 20.6405C31.6582 20.5508 32.2389 19.8726 30.7031 18.3367C27.6314 16.0329 26.432 15.7986 24.447 17.206C15.2467 23.7284 14.2502 24.013 8.4996 29.3124C8.08656 29.497 7.8183 30.0913 7.89695 30.4795C7.97986 30.8886 8.40595 31.3273 8.87544 31.4949C9.54055 31.7324 10.317 31.9954 10.9693 32.2593C11.3473 32.4122 11.6553 32.8902 11.7582 33.2759C11.8741 33.7106 11.8399 34.3293 11.6258 34.7204C11.3995 35.1338 10.8773 35.4836 10.43 35.5349C9.84794 35.6017 9.14948 35.2234 8.64283 34.8133C7.24872 33.6847 5.80851 32.5994 4.70222 31.2091C3.99633 30.3219 2.94215 28.844 3.00248 27.7334C3.16324 24.7741 3.63218 22.0255 4.0514 18.9392Z" stroke="white" stroke-width="1.5" stroke-linejoin="round"/>
<defs>
<pattern id="pattern0_231_18" patternUnits="userSpaceOnUse" patternTransform="matrix(12 0 0 12 0 0)" preserveAspectRatio="none" viewBox="0 0 12 12" width="1" height="1">
<g id="pattern0_231_18_inner">
<rect y="2" width="3" height="1" fill="#D9D9D9"/>
<rect y="8" width="3" height="1" fill="#D9D9D9"/>
<rect x="6" y="2" width="3" height="1" fill="#D9D9D9"/>
<rect x="6" y="8" width="3" height="1" fill="#D9D9D9"/>
<rect x="5" y="3" width="3" height="1" transform="rotate(180 5 3)" fill="#D9D9D9"/>
<rect x="5" y="9" width="3" height="1" transform="rotate(180 5 9)" fill="#D9D9D9"/>
<rect x="11" y="3" width="3" height="1" transform="rotate(180 11 3)" fill="#D9D9D9"/>
<rect x="11" y="9" width="3" height="1" transform="rotate(180 11 9)" fill="#D9D9D9"/>
<rect x="2" width="1" height="2" fill="#D9D9D9"/>
<rect x="2" y="6" width="1" height="2" fill="#D9D9D9"/>
<rect x="8" width="1" height="2" fill="#D9D9D9"/>
<rect x="8" y="6" width="1" height="2" fill="#D9D9D9"/>
<rect x="3" y="5" width="1" height="2" transform="rotate(180 3 5)" fill="#D9D9D9"/>
<rect x="3" y="11" width="1" height="2" transform="rotate(180 3 11)" fill="#D9D9D9"/>
<rect x="9" y="5" width="1" height="2" transform="rotate(180 9 5)" fill="#D9D9D9"/>
<rect x="9" y="11" width="1" height="2" transform="rotate(180 9 11)" fill="#D9D9D9"/>
</g>
</pattern></defs>
</svg>
