<svg width="60" height="60" viewBox="0 0 60 60" fill="none" xmlns="http://www.w3.org/2000/svg" xmlns:xlink="http://www.w3.org/1999/xlink">
<rect width="60" height="60" fill="url(#pattern0_231_17)" fill-opacity="0.1"/>
<path d="M38.7246 34.6719C38.8522 34.6373 42.3692 34.8181 42.3692 34.8181L43.3822 34.9016C43.3822 34.9016 43.5521 34.9154 43.7373 35.1209C43.9224 35.3265 43.898 35.3803 43.9461 35.6326C43.9943 35.885 43.9125 36.2944 43.967 36.5725C44.0216 36.8506 44.069 37.0779 44.2385 37.2827C44.408 37.4874 44.6638 37.6104 44.9487 37.7213C45.2335 37.8322 45.554 37.8677 45.9303 37.9092C46.3067 37.9508 54.2598 38.336 54.5145 38.3061C54.7692 38.2762 54.8663 38.2739 55 38.0493C55.1337 37.8248 56.7494 35.2776 56.7494 35.2776C56.7494 35.2776 56.8794 35.0429 56.9373 34.7972C56.9953 34.5515 57 34.3168 57 34.3168L54.2221 15.2686C54.2221 15.2686 54.2015 14.9824 54.1386 14.8927C54.0757 14.8029 54.0476 14.7815 53.9088 14.7464C53.7701 14.7114 53.4053 14.7497 53.1616 14.7291C52.9178 14.7086 52.5186 14.643 52.2066 14.5376C51.8947 14.4322 51.7383 14.3305 51.4652 14.1407C51.192 13.951 51.0153 13.7074 50.8386 13.4933C50.6619 13.2791 50.5513 13.013 50.4 12.8667C50.2486 12.7204 50.1477 12.6477 49.9822 12.5952C49.8168 12.5426 49.5771 12.4965 49.3801 12.5447C49.1831 12.593 49.0689 12.6535 48.943 12.8051C48.8171 12.9566 48.7891 12.913 48.6873 13.3888C48.5855 13.8647 48.4752 15.2106 48.4784 15.7908C48.4816 16.371 48.5089 16.4743 48.5829 16.856C48.6568 17.2376 48.6978 17.3359 48.9379 18.0674C49.178 18.7988 49.8008 20.3307 50.0867 21.2212C50.3725 22.1117 50.5604 22.8026 50.6924 23.3933C50.8243 23.9841 50.8857 24.3176 50.9221 24.7509C50.9585 25.1843 50.8767 25.5906 50.7892 25.9537C50.7017 26.3168 50.6112 26.5374 50.4035 26.7927C50.1959 27.048 49.8669 27.3094 49.6221 27.4427C49.3773 27.5761 48.6455 27.675 48.6455 27.675L37.4714 27.1737C37.4714 27.1737 34.1928 26.9615 33.5657 26.8396C32.9386 26.7176 32.7929 26.6307 32.7929 26.6307L22.0992 20.7199C22.0992 20.7199 21.679 20.4478 21.4308 20.4484C21.1826 20.449 21.0979 20.5366 20.8684 20.7408C20.6389 20.945 20.4611 21.289 20.1985 21.6807C19.9359 22.0724 18.8625 23.68 18.3814 24.563C17.9004 25.4459 17.2744 26.944 17.2744 26.944C17.2744 26.944 17.134 27.1443 17.0343 27.1737C16.9345 27.2032 16.7523 27.1111 16.7523 27.1111L13.6403 23.7902C13.6403 23.7902 12.817 23.0248 12.4289 22.8503C12.0407 22.6758 11.7315 22.6589 11.4263 22.6623C11.1212 22.6657 10.9062 22.6837 10.6326 22.8294C10.3591 22.9751 9.88073 23.5604 9.88073 23.5604L6.05856 30.9124L4.16478 34.5102C4.16478 34.5102 3.75021 35.2148 3.59093 35.4416C3.43165 35.6684 3.00206 36.2056 3 36.3471C3.05815 36.5949 3.14404 36.9438 3.41414 37.3395C3.6485 37.6558 3.78944 37.8884 4.11448 38.1898C4.20473 38.2598 4.83163 38.8508 5.19455 39.1544C5.55747 39.4579 5.48011 39.3881 5.69441 39.4986C5.90871 39.6092 6.24613 39.5152 6.33603 39.6464C6.43068 39.8378 6.28288 40.3679 6.39343 41.0064C6.50392 41.6446 6.66857 41.7898 6.81985 42.0313C6.97112 42.2728 7.21941 42.5422 7.52286 42.8134C7.8263 43.0845 10.3333 45.0732 10.3333 45.0732C10.3333 45.0732 11.5474 47.1782 11.7554 47.3304C11.9635 47.4826 12.0808 47.4714 12.2272 47.4751C12.3735 47.4789 12.5418 47.3669 12.6377 47.2663C12.7336 47.1656 12.8048 46.8277 12.8048 46.8277L14.3295 37.9719C14.3295 37.9719 14.4916 36.6759 14.6637 35.8833C14.8358 35.0906 14.9731 34.4894 15.3947 33.2307C15.8163 31.9721 17.3162 28.3851 17.3162 28.3851C17.3162 28.3851 17.4385 28.1703 17.546 28.1345C17.6535 28.0987 17.8801 28.1972 17.8801 28.1972C17.8801 28.1972 18.5506 28.5419 19.2586 29.0535C19.9667 29.5651 22.0365 31.3719 22.0365 31.3719L24.9188 33.6485C24.9188 33.6485 25.5066 33.9184 25.9631 34.0244C26.4197 34.1304 27.2085 34.1829 27.6549 34.2124L38.7246 34.6719Z" stroke="white" stroke-width="1.5"/>
<defs>
<pattern id="pattern0_231_17" patternUnits="userSpaceOnUse" patternTransform="matrix(12 0 0 12 0 0)" preserveAspectRatio="none" viewBox="0 0 12 12" width="1" height="1">
<g id="pattern0_231_17_inner">
<rect y="2" width="3" height="1" fill="#D9D9D9"/>
<rect y="8" width="3" height="1" fill="#D9D9D9"/>
<rect x="6" y="2" width="3" height="1" fill="#D9D9D9"/>
<rect x="6" y="8" width="3" height="1" fill="#D9D9D9"/>
<rect x="5" y="3" width="3" height="1" transform="rotate(180 5 3)" fill="#D9D9D9"/>
<rect x="5" y="9" width="3" height="1" transform="rotate(180 5 9)" fill="#D9D9D9"/>
<rect x="11" y="3" width="3" height="1" transform="rotate(180 11 3)" fill="#D9D9D9"/>
<rect x="11" y="9" width="3" height="1" transform="rotate(180 11 9)" fill="#D9D9D9"/>
<rect x="2" width="1" height="2" fill="#D9D9D9"/>
<rect x="2" y="6" width="1" height="2" fill="#D9D9D9"/>
<rect x="8" width="1" height="2" fill="#D9D9D9"/>
<rect x="8" y="6" width="1" height="2" fill="#D9D9D9"/>
<rect x="3" y="5" width="1" height="2" transform="rotate(180 3 5)" fill="#D9D9D9"/>
<rect x="3" y="11" width="1" height="2" transform="rotate(180 3 11)" fill="#D9D9D9"/>
<rect x="9" y="5" width="1" height="2" transform="rotate(180 9 5)" fill="#D9D9D9"/>
<rect x="9" y="11" width="1" height="2" transform="rotate(180 9 11)" fill="#D9D9D9"/>
</g>
</pattern></defs>
</svg>
