<svg width="60" height="60" viewBox="0 0 60 60" fill="none" xmlns="http://www.w3.org/2000/svg" xmlns:xlink="http://www.w3.org/1999/xlink">
<rect width="60" height="60" fill="url(#pattern0_231_16)" fill-opacity="0.1"/>
<path d="M29.3525 37.1234C29.3525 37.1234 12.3375 39.2445 10.804 39.394C9.27049 39.5435 9.45723 39.505 8.95874 39.458C8.46026 39.4109 8.31028 39.3941 7.96882 39.2905C7.62735 39.1869 7.22951 39.0388 6.91138 38.8503C6.59324 38.6619 6.36006 38.4434 5.96409 38.0508C5.56812 37.6583 4.8589 36.8663 4.589 36.4518C4.31909 36.0373 4.34064 35.9706 4.22231 35.6843C4.10398 35.3979 3.45836 28.0409 3.45836 28.0409L3 23.2759C3 23.2759 3.01697 22.6514 3.12223 22.4444C3.22749 22.2373 3.32952 22.1484 3.51948 22.0606C3.70944 21.9727 4.01851 21.9616 4.22231 21.9966C4.4261 22.0317 4.55394 22.0505 4.71123 22.2205C4.86852 22.3904 5.01681 23.02 5.01681 23.02L6.33078 32.9659C6.33078 32.9659 6.43193 33.8837 6.57525 34.2771C6.71856 34.6705 6.90712 35.0025 7.15584 35.3005C7.40456 35.5985 7.73745 35.8451 8.04201 36.036C8.34657 36.227 8.64809 36.373 8.95874 36.4518C9.2694 36.5306 9.58738 36.54 9.87547 36.5158C10.1636 36.4915 10.6137 36.265 10.6137 36.265C10.6137 36.265 16.1771 32.9852 19.12 31.6093C22.0629 30.2335 28.0168 28.19 28.2455 28.014C28.4741 27.8381 28.7212 27.7249 28.8212 27.4653C28.9213 27.2057 28.9074 26.8927 28.8518 26.6018C28.7961 26.311 28.7064 25.9754 28.4851 25.7703C28.2637 25.5652 27.6295 25.4825 27.6295 25.4825L17.3927 25.3226C17.3927 25.3226 16.7812 25.3195 16.4221 25.5195C16.0629 25.7196 15.7731 26.1541 15.7731 26.1541L11.5561 32.7101C11.5561 32.7101 11.0889 33.4752 10.8228 33.6695C10.5566 33.8637 10.3409 33.9392 10.0894 33.9253C9.8378 33.9115 9.71165 33.7755 9.41711 33.6055C9.12256 33.4355 8.58519 33.1359 8.34759 32.87C8.10999 32.6041 7.95034 32.1344 7.95034 32.1344L7.00305 26.9536C7.00305 26.9536 6.96932 26.5023 7.03361 26.2181C7.0979 25.9338 7.19106 25.6439 7.43086 25.2906C7.67066 24.9374 8.21722 24.4149 8.53094 24.2033C8.84465 23.9916 8.91162 23.9891 9.2032 23.9155C9.49479 23.8418 10.2727 23.8195 10.2727 23.8195H43.7334C43.7334 23.8195 44.4432 23.6986 44.7723 23.5637C45.1015 23.4287 45.3563 23.2768 45.689 23.02C46.0218 22.7633 46.3785 22.3953 46.728 21.9966C47.0775 21.598 47.3445 20.8175 47.6544 20.6215C47.9643 20.4255 48.3122 20.5255 48.3122 20.5255L55.6508 23.9474C55.6508 23.9474 56.4011 24.4866 56.6287 24.8109C56.8563 25.1352 56.8596 25.3246 56.9415 25.7729C57.0234 26.2211 56.9954 27.4653 56.9954 27.4653L56.3231 33.0619C56.3231 33.0619 56.0391 34.3996 55.7731 34.9807C55.507 35.5618 55.1113 36.1142 54.7647 36.5158C54.418 36.9173 54.1917 37.1029 53.7563 37.4112C53.3209 37.7195 52.6869 38.0892 52.1367 38.3067C51.5865 38.5242 51.04 38.6482 50.4866 38.7224C49.9332 38.7966 49.3968 38.8223 48.8365 38.7544C48.2761 38.6864 47.6541 38.5335 47.1558 38.3067C46.6576 38.0798 46.2749 37.8014 45.8724 37.4432C45.4699 37.085 45.1606 36.7707 44.7723 36.164C44.384 35.5572 43.8327 33.8979 43.6722 33.7654C43.5118 33.633 43.275 33.7335 43.275 33.7335C43.2367 33.721 33.8878 36.3771 33.5568 36.4644C33.2258 36.5518 29.3525 37.1234 29.3525 37.1234Z" stroke="white" stroke-width="1.5"/>
<defs>
<pattern id="pattern0_231_16" patternUnits="userSpaceOnUse" patternTransform="matrix(12 0 0 12 0 0)" preserveAspectRatio="none" viewBox="0 0 12 12" width="1" height="1">
<g id="pattern0_231_16_inner">
<rect y="2" width="3" height="1" fill="#D9D9D9"/>
<rect y="8" width="3" height="1" fill="#D9D9D9"/>
<rect x="6" y="2" width="3" height="1" fill="#D9D9D9"/>
<rect x="6" y="8" width="3" height="1" fill="#D9D9D9"/>
<rect x="5" y="3" width="3" height="1" transform="rotate(180 5 3)" fill="#D9D9D9"/>
<rect x="5" y="9" width="3" height="1" transform="rotate(180 5 9)" fill="#D9D9D9"/>
<rect x="11" y="3" width="3" height="1" transform="rotate(180 11 3)" fill="#D9D9D9"/>
<rect x="11" y="9" width="3" height="1" transform="rotate(180 11 9)" fill="#D9D9D9"/>
<rect x="2" width="1" height="2" fill="#D9D9D9"/>
<rect x="2" y="6" width="1" height="2" fill="#D9D9D9"/>
<rect x="8" width="1" height="2" fill="#D9D9D9"/>
<rect x="8" y="6" width="1" height="2" fill="#D9D9D9"/>
<rect x="3" y="5" width="1" height="2" transform="rotate(180 3 5)" fill="#D9D9D9"/>
<rect x="3" y="11" width="1" height="2" transform="rotate(180 3 11)" fill="#D9D9D9"/>
<rect x="9" y="5" width="1" height="2" transform="rotate(180 9 5)" fill="#D9D9D9"/>
<rect x="9" y="11" width="1" height="2" transform="rotate(180 9 11)" fill="#D9D9D9"/>
</g>
</pattern></defs>
</svg>
