<svg width="60" height="60" viewBox="0 0 60 60" fill="none" xmlns="http://www.w3.org/2000/svg" xmlns:xlink="http://www.w3.org/1999/xlink">
<rect width="60" height="60" fill="url(#pattern0_148_1613)" fill-opacity="0.1"/>
<path d="M38.0872 25.922H47.1242C48.1017 25.922 49.0644 26.1612 49.9282 26.6188L53.7107 28.6225C54.2775 28.9227 54.9652 28.8769 55.4871 28.5041L55.8474 28.2468C56.0326 28.1144 56.0284 27.8377 55.8391 27.7112L46.1907 21.2618C44.8073 20.3372 43.0375 20.2151 41.5402 20.941L37.4658 22.9165C36.9901 23.1471 36.4371 22.8006 36.4371 22.272V21.3233C36.4371 21.1468 36.2965 21.0025 36.1201 20.9978L23.5673 20.6689C22.2604 20.6347 20.993 21.1191 20.042 22.0162L19.7915 22.2525C18.721 23.2624 17.2134 23.6645 15.7822 23.3218L14.8016 23.087C13.9242 22.8769 13.0033 22.944 12.1656 23.2791L11.3878 23.5902C10.8178 23.8183 10.206 23.9234 9.59252 23.8987L3.63706 23.6594C3.41533 23.6505 3.23071 23.8279 3.23071 24.0498V24.7794C3.23071 24.9964 3.40755 25.1718 3.62453 25.17L22.6808 25.0164C25.2072 24.996 27.1734 27.2053 26.86 29.7123C26.5954 31.8296 24.4414 33.1601 22.4297 32.4489L16.5424 30.3678C14.0511 29.4872 11.2771 30.3429 9.71487 32.474L7.46355 35.5451C6.91584 36.2922 7.254 37.3563 8.13253 37.6502L13.9893 39.6094C14.9074 39.9165 15.9202 39.6442 16.5605 38.9181L17.0677 38.3429C18.0399 37.2404 19.5636 36.8022 20.973 37.2198L24.0954 38.1449C25.1555 38.459 26.2554 38.6185 27.361 38.6185H28.6807C30.5914 38.6185 31.8639 36.6448 31.0751 34.9045C30.2948 33.1827 30.7249 31.1535 32.1367 29.8963L35.4891 26.9111C36.2046 26.274 37.1292 25.922 38.0872 25.922Z" stroke="white" stroke-width="1.5"/>
<defs>
<pattern id="pattern0_148_1613" patternUnits="userSpaceOnUse" patternTransform="matrix(12 0 0 12 0 0)" preserveAspectRatio="none" viewBox="0 0 12 12" width="1" height="1">
<g id="pattern0_148_1613_inner">
<rect y="2" width="3" height="1" fill="#D9D9D9"/>
<rect y="8" width="3" height="1" fill="#D9D9D9"/>
<rect x="6" y="2" width="3" height="1" fill="#D9D9D9"/>
<rect x="6" y="8" width="3" height="1" fill="#D9D9D9"/>
<rect x="5" y="3" width="3" height="1" transform="rotate(180 5 3)" fill="#D9D9D9"/>
<rect x="5" y="9" width="3" height="1" transform="rotate(180 5 9)" fill="#D9D9D9"/>
<rect x="11" y="3" width="3" height="1" transform="rotate(180 11 3)" fill="#D9D9D9"/>
<rect x="11" y="9" width="3" height="1" transform="rotate(180 11 9)" fill="#D9D9D9"/>
<rect x="2" width="1" height="2" fill="#D9D9D9"/>
<rect x="2" y="6" width="1" height="2" fill="#D9D9D9"/>
<rect x="8" width="1" height="2" fill="#D9D9D9"/>
<rect x="8" y="6" width="1" height="2" fill="#D9D9D9"/>
<rect x="3" y="5" width="1" height="2" transform="rotate(180 3 5)" fill="#D9D9D9"/>
<rect x="3" y="11" width="1" height="2" transform="rotate(180 3 11)" fill="#D9D9D9"/>
<rect x="9" y="5" width="1" height="2" transform="rotate(180 9 5)" fill="#D9D9D9"/>
<rect x="9" y="11" width="1" height="2" transform="rotate(180 9 11)" fill="#D9D9D9"/>
</g>
</pattern></defs>
</svg>
