<svg width="60" height="60" viewBox="0 0 60 60" fill="none" xmlns="http://www.w3.org/2000/svg" xmlns:xlink="http://www.w3.org/1999/xlink">
<rect width="60" height="60" fill="url(#pattern0_231_15)" fill-opacity="0.1"/>
<path d="M43.7926 20.9098C45.8439 22.2991 50.5863 25.2413 52.7288 26.4909C53.8759 27.1601 55.0326 27.8817 56.1577 28.5868C56.8897 29.0456 57.237 30.1516 56.8222 30.9562C56.6031 31.3766 56.2223 31.6899 55.7675 31.8239C54.6459 32.1634 54.2586 31.7995 53.3798 31.3017L51.3392 29.9629L48.8594 28.3419C48.0908 27.8402 46.819 26.9382 45.9685 26.7066C45.5798 26.6008 44.1907 26.6346 43.7368 26.6348L39.6502 26.6404C38.9097 26.6291 38.1102 26.6405 37.3776 26.638C35.9631 26.6333 35.655 26.718 34.5717 27.5409C34.1217 27.8814 33.6744 28.2253 33.2295 28.5726C32.9958 28.7556 32.7015 29.0083 32.4561 29.1643C32.0722 29.4079 31.7106 29.5921 31.3613 29.9005C30.4626 30.6946 29.9571 32.7226 30.0953 33.8711C30.1694 34.4865 30.4629 35.2163 30.4231 35.8702C30.3808 36.5662 30.1348 37.2427 29.5998 37.7168C28.9233 38.3165 28.1373 38.3269 27.2955 38.3824C25.2773 38.5154 23.492 38.0962 21.5576 37.5903C20.7598 37.4167 20.0048 36.9873 19.1894 36.9312C17.6512 36.8254 16.9438 37.9298 15.997 38.9074C15.6043 39.3129 14.7637 39.5715 14.1869 39.5028C13.41 39.4104 12.5532 39.07 11.7959 38.8207L8.48602 37.7331L5.3989 36.7186C4.86078 36.5412 4.31502 36.366 3.78168 36.175C3.39525 36.0365 3.19441 35.7105 3.16838 35.3087C3.12759 34.6791 3.1302 34.044 3.11958 33.4114L3.06498 29.7736C3.03494 27.6117 2.9657 25.4411 3.02043 23.2782C3.0279 22.9833 3.13603 22.5367 3.38364 22.3537C4.31199 21.6687 5.55045 22.9441 6.34701 23.3826C7.07656 23.7841 7.51733 23.7743 8.33163 23.7973C9.07754 23.8185 9.95403 23.9137 10.6744 23.6355C11.5401 23.3012 12.3331 22.9414 13.279 22.8977C14.2306 22.83 15.0541 23.1835 15.9951 23.2709C17.0309 23.3672 17.9528 23.1429 18.785 22.5042L19.8313 21.634C20.9916 20.6673 22.3223 20.5051 23.771 20.8071C24.5978 20.9795 25.4734 21.3864 26.2608 21.7082C27.8202 22.3452 29.8934 23.1684 31.5846 23.2133C33.4416 23.2382 35.3627 23.0505 37.1174 22.4168C37.7713 22.1806 38.4715 21.7711 39.0671 21.4168C40.6035 20.5027 42.1078 20.1285 43.7926 20.9098Z" stroke="white" stroke-width="1.5"/>
<defs>
<pattern id="pattern0_231_15" patternUnits="userSpaceOnUse" patternTransform="matrix(12 0 0 12 0 0)" preserveAspectRatio="none" viewBox="0 0 12 12" width="1" height="1">
<g id="pattern0_231_15_inner">
<rect y="2" width="3" height="1" fill="#D9D9D9"/>
<rect y="8" width="3" height="1" fill="#D9D9D9"/>
<rect x="6" y="2" width="3" height="1" fill="#D9D9D9"/>
<rect x="6" y="8" width="3" height="1" fill="#D9D9D9"/>
<rect x="5" y="3" width="3" height="1" transform="rotate(180 5 3)" fill="#D9D9D9"/>
<rect x="5" y="9" width="3" height="1" transform="rotate(180 5 9)" fill="#D9D9D9"/>
<rect x="11" y="3" width="3" height="1" transform="rotate(180 11 3)" fill="#D9D9D9"/>
<rect x="11" y="9" width="3" height="1" transform="rotate(180 11 9)" fill="#D9D9D9"/>
<rect x="2" width="1" height="2" fill="#D9D9D9"/>
<rect x="2" y="6" width="1" height="2" fill="#D9D9D9"/>
<rect x="8" width="1" height="2" fill="#D9D9D9"/>
<rect x="8" y="6" width="1" height="2" fill="#D9D9D9"/>
<rect x="3" y="5" width="1" height="2" transform="rotate(180 3 5)" fill="#D9D9D9"/>
<rect x="3" y="11" width="1" height="2" transform="rotate(180 3 11)" fill="#D9D9D9"/>
<rect x="9" y="5" width="1" height="2" transform="rotate(180 9 5)" fill="#D9D9D9"/>
<rect x="9" y="11" width="1" height="2" transform="rotate(180 9 11)" fill="#D9D9D9"/>
</g>
</pattern></defs>
</svg>
