<svg width="60" height="60" viewBox="0 0 60 60" fill="none" xmlns="http://www.w3.org/2000/svg" xmlns:xlink="http://www.w3.org/1999/xlink">
<rect width="60" height="60" fill="url(#pattern0_184_932)" fill-opacity="0.1"/>
<path fill-rule="evenodd" clip-rule="evenodd" d="M44.7979 13.5678C45.4646 13.5577 46.1934 13.7453 46.6446 14.4662L46.6534 14.4799L46.6612 14.4945C46.8449 14.8359 47.0173 14.9185 47.169 14.9418C47.3712 14.9728 47.6574 14.9164 48.0899 14.7475C49.3438 14.2578 50.2954 14.2792 51.1055 14.7709C51.8504 15.2231 52.4026 16.0444 52.9727 16.8744C53.0409 16.9737 53.1102 17.0743 53.1807 17.1762L54.4082 18.9496C54.5505 19.1551 54.6979 19.3631 54.8477 19.5746C55.2577 20.1533 55.6901 20.7632 56.0528 21.3783C56.7092 22.492 56.6335 23.6412 55.8809 24.2816C55.1307 24.9196 53.9827 24.8176 52.9893 24.0062C52.4465 23.567 52.1373 22.9373 51.8829 22.434C51.8282 22.3259 51.7754 22.2214 51.7217 22.1195C51.5222 21.7412 51.3327 21.4451 51.087 21.2357C50.9763 21.1416 50.8493 21.0822 50.7012 21.0502C50.6963 21.0491 50.6924 21.0482 50.6924 21.0482C50.6445 21.0383 50.5933 21.0311 50.5391 21.0267C50.5187 21.0251 50.4979 21.0237 50.4766 21.0228C50.4125 21.0204 50.3449 21.0217 50.2745 21.0267C50.2504 21.0285 50.226 21.031 50.2012 21.0336C50.1426 21.0397 50.0815 21.0482 50.0196 21.059C49.9925 21.0637 49.9653 21.0683 49.9385 21.0736C49.7863 21.104 49.628 21.1469 49.4659 21.1976C49.1423 21.299 48.8191 21.4288 48.503 21.556C48.3074 21.6347 48.1098 21.7141 47.9288 21.7787H47.9268C47.1812 22.0413 46.423 22.2663 45.6553 22.4535L45.6495 22.4555C44.9527 22.6172 44.2487 22.7464 43.5401 22.8432H43.5372C43.3235 22.8709 43.1058 22.8967 42.8897 22.9223C41.0753 23.137 39.3814 23.3625 38.3467 24.6205C37.829 25.2503 37.735 26.0171 37.9385 26.7836C38.145 27.5607 38.6537 28.3062 39.2823 28.8109C40.4708 29.7651 41.8997 30.2078 43.4444 30.6801C44.3407 30.9541 45.2766 31.24 46.168 31.6478C46.8581 31.9518 47.6835 32.4107 48.2256 33.056C48.5029 33.3862 48.7196 33.7811 48.7911 34.2406C48.8631 34.7051 48.7808 35.1948 48.5274 35.6957C48.461 35.827 48.3913 35.9542 48.3272 36.0717C48.1361 36.422 47.9988 36.6812 47.9424 36.9379C47.8931 37.1628 47.9052 37.3951 48.0674 37.6879C48.5315 38.525 49.3262 38.9067 50.3204 39.3646C50.9274 39.6443 51.6109 39.9568 52.2022 40.4408C52.6736 40.8153 53.0044 41.2053 53.1905 41.6234C53.3805 42.0511 53.4037 42.4752 53.3164 42.8822C53.2316 43.2777 53.0442 43.6477 52.8291 43.9887C52.6141 44.3295 52.3516 44.6718 52.0987 45.0014C52.0542 45.0593 52.0092 45.1171 51.9649 45.1752C51.8393 45.3396 51.7227 45.5064 51.6026 45.6771C51.0532 46.4583 50.4455 47.3489 49.0567 47.4809L49.0508 47.4818C49.044 47.4825 49.0372 47.4832 49.0303 47.4838C48.7345 47.5206 48.4038 47.4813 48.0909 47.4135C47.7605 47.3418 47.4096 47.2307 47.0723 47.1068C46.398 46.8591 45.7407 46.5443 45.3428 46.3314C43.2711 45.2227 41.5113 43.6099 40.2266 41.642C39.7409 40.8983 39.313 40.1008 38.9034 39.3383C38.8136 39.1712 38.7239 39.0053 38.6348 38.8412L38.6172 38.807C37.9381 37.5552 37.3059 36.397 36.377 35.4242C35.3799 34.3801 34.4091 33.7615 33.1407 33.1205C31.7002 32.3927 30.6719 32.193 29.7588 32.2553C28.824 32.3191 27.9624 32.6568 26.8174 33.1117C26.2156 33.3508 25.5445 33.6177 24.7715 33.8725L24.7657 33.8744C22.2189 34.679 19.5385 35.0846 16.8643 35.0473C16.5881 35.0434 16.3313 34.9911 16.1143 34.8617C15.8876 34.7264 15.7461 34.5319 15.667 34.3226C15.6208 34.2002 15.5986 34.0747 15.587 33.9564C15.0675 34.2422 14.5022 34.5699 13.959 34.8871C13.6081 35.0921 13.2655 35.2915 12.9561 35.4672L6.17192 39.3275C6.10188 39.3674 5.97042 39.4451 5.79594 39.5482C5.44399 39.7563 4.93307 40.0586 4.48246 40.3109C4.25782 40.4367 4.04231 40.5536 3.86625 40.641C3.77877 40.6844 3.69436 40.724 3.62016 40.7543C3.56561 40.7766 3.45474 40.8204 3.34086 40.8295L3.24711 40.8305C3.15577 40.8256 3.0729 40.8044 3.0059 40.7787C2.91618 40.7443 2.81878 40.6885 2.73539 40.6068C2.60146 40.4753 2.54739 40.3184 2.52445 40.2123C2.50125 40.1046 2.49968 40.0038 2.50004 39.9418C2.50279 39.5029 2.63387 38.9427 2.7891 38.4389C2.9475 37.9249 3.14874 37.4142 3.32328 37.059C3.42703 36.8481 3.54463 36.6501 3.65043 36.4721C3.7195 36.3559 3.78426 36.2468 3.84477 36.1371C3.93744 35.9687 4.01461 35.7815 4.10356 35.5648C4.14447 35.4652 4.18811 35.3584 4.23442 35.2533L4.23539 35.2523C4.42861 34.8159 4.65746 34.3957 4.91899 33.9965C5.91029 32.4826 7.20221 31.4245 8.55277 30.3139C9.39427 29.6218 10.266 28.9043 11.1475 28.0258C11.4844 27.69 11.8344 27.3186 12.1651 26.9672C12.425 26.6911 12.6754 26.4247 12.8916 26.2064C13.0996 25.9966 13.306 25.7995 13.4717 25.684C13.4741 25.682 13.4783 25.6785 13.4834 25.6742C13.4967 25.6631 13.5141 25.6481 13.5352 25.6293C13.5782 25.591 13.6297 25.5441 13.6846 25.4935C13.77 25.4149 13.8779 25.3142 13.9512 25.2553C14.2559 25.0114 14.5733 24.7818 14.9004 24.5687L14.9014 24.5678C15.1843 24.3846 15.6224 24.123 16.0889 23.8627C17.053 23.3247 17.8841 22.9899 18.6836 22.6674C19.1562 22.4767 19.6151 22.2924 20.0957 22.0697L20.0948 22.0687C20.9746 21.6482 21.7461 21.2123 22.4873 20.6254L22.502 20.6137L22.5186 20.6029C22.5366 20.5908 22.5577 20.5748 22.5909 20.5502C22.6147 20.5325 22.649 20.5071 22.6885 20.4799L22.8204 20.3978C27.5075 17.898 32.7005 16.5695 37.7549 15.2738C38.3866 15.1119 39.0164 14.9498 39.6436 14.7865L42.584 14.016C42.6943 13.9872 42.814 13.9536 42.9434 13.9174C43.4591 13.7731 44.1487 13.5777 44.7979 13.5678ZM45.0098 15.1508C44.298 15.201 43.1651 15.5081 42.1905 15.7748C41.9455 15.8418 41.7117 15.9065 41.5049 15.9603C38.947 16.618 36.3909 17.2889 33.8399 17.973C33.1091 18.1747 32.3802 18.384 31.6534 18.6L31.2745 18.7191C31.0591 18.7885 30.8159 18.8673 30.6094 18.9213C28.1756 19.7517 25.8652 20.5635 23.6368 21.7767C23.5021 21.8503 23.3631 21.9613 23.1807 22.1098C23.0549 22.2122 22.9053 22.3348 22.7491 22.4379C21.6044 23.1929 20.3556 23.7246 19.1563 24.2367C18.0209 24.7215 16.9276 25.1893 15.9229 25.8207C14.8918 26.4688 14.0531 27.3396 13.1651 28.265C12.712 28.7372 12.2449 29.2243 11.7452 29.681C11.1742 30.201 10.5745 30.6912 9.98735 31.1713C9.09383 31.9018 8.22651 32.6114 7.45707 33.4144L7.22367 33.6644C6.68535 34.2568 6.19686 34.909 5.85258 35.5941L5.71586 35.8617C5.42176 36.4299 4.88788 37.4677 4.53031 38.4457C4.57793 38.4197 4.62694 38.393 4.6768 38.3656C5.46523 37.932 6.25305 37.4617 6.90531 37.0726C7.30142 36.8364 7.65218 36.6262 7.91703 36.4769L7.91801 36.4779C8.21334 36.3115 8.50669 36.1455 8.79594 35.9809L14.4258 32.7767L14.4248 32.7758C14.5071 32.7288 14.5933 32.6759 14.6895 32.6166C14.9 32.4869 15.1648 32.3224 15.4434 32.2103C15.7269 32.0964 16.0726 32.016 16.4444 32.1C16.4699 32.1058 16.4932 32.1127 16.5039 32.1156C16.5685 32.1334 16.7269 32.1871 16.8789 32.3129C17.0442 32.4497 17.2108 32.683 17.211 33.018V33.0375L17.1954 33.4467C17.2863 33.4476 17.3805 33.4479 17.4756 33.4467L18.2715 33.4203C20.5222 33.3141 22.7468 32.8853 24.875 32.1449C25.2212 32.0228 25.6106 31.8647 26.0332 31.6937C27.111 31.2579 28.4404 30.7133 29.5205 30.6527C31.0969 30.5644 32.7589 31.0722 34.2422 31.8607C35.729 32.6513 37.0785 33.7464 38.0332 34.8861L38.0342 34.8881C38.9254 35.9624 39.5984 37.2308 40.2354 38.4291C40.614 39.1413 40.9804 39.8305 41.3809 40.4701L41.3829 40.474C42.4883 42.2769 44.0385 43.7659 45.8838 44.7982L45.8848 44.7992C46.2684 45.0153 46.873 45.3196 47.4873 45.5531C48.126 45.7958 48.6773 45.9226 49.0049 45.8803C49.5377 45.7845 49.859 45.3641 50.3164 44.7064C50.3658 44.6355 50.4171 44.5615 50.4688 44.4887L50.4698 44.4896C50.6515 44.2289 50.8364 43.9698 51.0254 43.7142L51.0313 43.7055C51.2522 43.4084 51.4305 43.1679 51.5606 42.9496C51.6905 42.7315 51.7456 42.5781 51.7569 42.4613C51.7721 42.3024 51.7223 42.0209 50.9873 41.5326C50.576 41.2593 50.1038 41.0325 49.5909 40.7875C48.327 40.1839 46.7599 39.4664 46.3516 37.6078L46.3213 37.4457C46.203 36.643 46.5792 35.9499 46.833 35.4594C47.0649 35.0113 47.1964 34.7335 47.1934 34.4877C47.1915 34.3383 47.1346 34.1186 46.7559 33.8256L46.5733 33.6957L46.5713 33.6947C45.5393 33.0085 44.2635 32.6082 42.8907 32.182C40.9025 31.5648 38.6916 30.8948 37.3038 29.057C36.8628 28.4772 36.5432 27.8148 36.3643 27.1107L36.2959 26.806L36.295 26.8021C35.9433 24.9036 36.9274 23.3503 38.4551 22.4506C39.7637 21.68 41.2346 21.5093 42.5752 21.348C42.9968 21.2973 43.4069 21.2476 43.8096 21.183C44.0096 21.1509 44.2112 21.1155 44.4122 21.0766L45.0118 20.9506C45.7694 20.7808 46.5176 20.5691 47.252 20.3168H47.2539C47.5217 20.2257 47.7826 20.1221 48.0528 20.015C48.6224 19.7893 49.2381 19.5422 49.9268 19.4486L49.9014 19.3959L50.7198 19.4135C50.7387 19.4139 50.7576 19.4174 50.7764 19.4184L50.836 19.4203L50.8389 19.4232C51.2707 19.4575 51.6635 19.624 51.9786 19.8832L51.9883 19.8803L52.1748 20.0541C52.7547 20.5947 53.0417 21.1764 53.2891 21.6713C53.4799 22.053 53.6419 22.3728 53.8897 22.6684L53.9288 22.7152L53.9561 22.7699C54.0032 22.8667 54.0868 22.9432 54.1875 22.9809L54.2383 22.9994L54.2832 23.0287C54.3484 23.0706 54.4256 23.0951 54.5098 23.0951C54.742 23.0951 54.9307 22.9064 54.9307 22.6742C54.9306 22.5843 54.9022 22.502 54.8545 22.434L54.5674 22.0248L54.5733 22.0219L52.6465 19.226H52.6485L51.7403 17.9125C51.6843 17.8318 51.6237 17.7426 51.5625 17.6517C51.323 17.2958 51.051 16.8927 50.75 16.5629C50.4364 16.2192 50.1664 16.0407 49.9551 16.0072C49.5969 15.9505 49.1995 16.0692 48.6514 16.2484C48.2028 16.3952 47.6355 16.5873 47.0596 16.5502L47.0586 16.5512C46.1621 16.5243 45.7204 15.9078 45.4502 15.5502C45.3171 15.374 45.2357 15.2707 45.1543 15.2045C45.0948 15.1561 45.0595 15.1473 45.0098 15.1508Z" fill="white"/>
<defs>
<pattern id="pattern0_184_932" patternUnits="userSpaceOnUse" patternTransform="matrix(12 0 0 12 0 0)" preserveAspectRatio="none" viewBox="0 0 12 12" width="1" height="1">
<g id="pattern0_184_932_inner">
<rect y="2" width="3" height="1" fill="#D9D9D9"/>
<rect y="8" width="3" height="1" fill="#D9D9D9"/>
<rect x="6" y="2" width="3" height="1" fill="#D9D9D9"/>
<rect x="6" y="8" width="3" height="1" fill="#D9D9D9"/>
<rect x="5" y="3" width="3" height="1" transform="rotate(180 5 3)" fill="#D9D9D9"/>
<rect x="5" y="9" width="3" height="1" transform="rotate(180 5 9)" fill="#D9D9D9"/>
<rect x="11" y="3" width="3" height="1" transform="rotate(180 11 3)" fill="#D9D9D9"/>
<rect x="11" y="9" width="3" height="1" transform="rotate(180 11 9)" fill="#D9D9D9"/>
<rect x="2" width="1" height="2" fill="#D9D9D9"/>
<rect x="2" y="6" width="1" height="2" fill="#D9D9D9"/>
<rect x="8" width="1" height="2" fill="#D9D9D9"/>
<rect x="8" y="6" width="1" height="2" fill="#D9D9D9"/>
<rect x="3" y="5" width="1" height="2" transform="rotate(180 3 5)" fill="#D9D9D9"/>
<rect x="3" y="11" width="1" height="2" transform="rotate(180 3 11)" fill="#D9D9D9"/>
<rect x="9" y="5" width="1" height="2" transform="rotate(180 9 5)" fill="#D9D9D9"/>
<rect x="9" y="11" width="1" height="2" transform="rotate(180 9 11)" fill="#D9D9D9"/>
</g>
</pattern></defs>
</svg>
