<svg width="60" height="60" viewBox="0 0 60 60" fill="none" xmlns="http://www.w3.org/2000/svg" xmlns:xlink="http://www.w3.org/1999/xlink">
<rect width="60" height="60" fill="url(#pattern0_184_932)" fill-opacity="0.1"/>
<path fill-rule="evenodd" clip-rule="evenodd" d="M45.2979 13.0004C45.9646 12.9903 46.6934 13.1779 47.1446 13.8988L47.1534 13.9125L47.1612 13.9271C47.3449 14.2685 47.5173 14.3511 47.669 14.3744C47.8712 14.4054 48.1574 14.349 48.5899 14.1801C49.8438 13.6904 50.7954 13.7118 51.6055 14.2035C52.3504 14.6557 52.9026 15.477 53.4727 16.307C53.5409 16.4063 53.6102 16.5069 53.6807 16.6088L54.9082 18.3822C55.0505 18.5877 55.1979 18.7958 55.3477 19.0072C55.7577 19.5859 56.1901 20.1958 56.5528 20.8109C57.2092 21.9246 57.1335 23.0738 56.3809 23.7142C55.6307 24.3523 54.4827 24.2502 53.4893 23.4389C52.9465 22.9996 52.6373 22.3699 52.3829 21.8666C52.3282 21.7585 52.2754 21.654 52.2217 21.5521C52.0222 21.1738 51.8327 20.8777 51.587 20.6684C51.4763 20.5742 51.3493 20.5148 51.2012 20.4828C51.1963 20.4817 51.1924 20.4809 51.1924 20.4809C51.1445 20.4709 51.0933 20.4637 51.0391 20.4594C51.0187 20.4577 50.9979 20.4563 50.9766 20.4555C50.9125 20.453 50.8449 20.4543 50.7745 20.4594C50.7504 20.4611 50.726 20.4636 50.7012 20.4662C50.6426 20.4723 50.5815 20.4809 50.5196 20.4916C50.4925 20.4963 50.4653 20.5009 50.4385 20.5062C50.2863 20.5366 50.128 20.5795 49.9659 20.6303C49.6423 20.7316 49.3191 20.8615 49.003 20.9887C48.8074 21.0674 48.6098 21.1467 48.4288 21.2113H48.4268C47.6812 21.4739 46.923 21.6989 46.1553 21.8861L46.1495 21.8881C45.4527 22.0498 44.7487 22.179 44.0401 22.2758H44.0372C43.8235 22.3035 43.6058 22.3293 43.3897 22.3549C41.5753 22.5697 39.8814 22.7951 38.8467 24.0531C38.329 24.6829 38.235 25.4497 38.4385 26.2162C38.645 26.9933 39.1537 27.7388 39.7823 28.2435C40.9708 29.1977 42.3997 29.6404 43.9444 30.1127C44.8407 30.3867 45.7766 30.6726 46.668 31.0805C47.3581 31.3844 48.1835 31.8434 48.7256 32.4887C49.0029 32.8188 49.2196 33.2137 49.2911 33.6732C49.3631 34.1377 49.2808 34.6274 49.0274 35.1283C48.961 35.2596 48.8913 35.3868 48.8272 35.5043C48.6361 35.8546 48.4988 36.1138 48.4424 36.3705C48.3931 36.5955 48.4052 36.8277 48.5674 37.1205C49.0315 37.9577 49.8262 38.3393 50.8204 38.7973C51.4274 39.0769 52.1109 39.3894 52.7022 39.8734C53.1736 40.248 53.5044 40.6379 53.6905 41.056C53.8805 41.4837 53.9037 41.9078 53.8164 42.3148C53.7316 42.7103 53.5442 43.0804 53.3291 43.4213C53.1141 43.7621 52.8516 44.1044 52.5987 44.434C52.5542 44.4919 52.5092 44.5497 52.4649 44.6078C52.3393 44.7722 52.2227 44.939 52.1026 45.1098C51.5532 45.8909 50.9455 46.7816 49.5567 46.9135L49.5508 46.9144C49.544 46.9151 49.5372 46.9158 49.5303 46.9164C49.2345 46.9532 48.9038 46.9139 48.5909 46.8461C48.2605 46.7744 47.9096 46.6633 47.5723 46.5394C46.898 46.2918 46.2407 45.9769 45.8428 45.7641C43.7711 44.6553 42.0113 43.0425 40.7266 41.0746C40.2409 40.3309 39.813 39.5334 39.4034 38.7709C39.3136 38.6038 39.2239 38.438 39.1348 38.2738L39.1172 38.2396C38.4381 36.9879 37.8059 35.8296 36.877 34.8568C35.8799 33.8127 34.9091 33.1941 33.6407 32.5531C32.2002 31.8253 31.1719 31.6256 30.2588 31.6879C29.324 31.7517 28.4624 32.0894 27.3174 32.5443C26.7156 32.7834 26.0445 33.0503 25.2715 33.3051L25.2657 33.307C22.7189 34.1116 20.0385 34.5172 17.3643 34.4799C17.0881 34.476 16.8313 34.4237 16.6143 34.2943C16.3876 34.1591 16.2461 33.9645 16.167 33.7553C16.1208 33.6328 16.0986 33.5073 16.087 33.3891C15.5675 33.6748 15.0022 34.0025 14.459 34.3197C14.1081 34.5247 13.7655 34.7241 13.4561 34.8998L6.67192 38.7601C6.60188 38.8 6.47042 38.8777 6.29594 38.9809C5.94399 39.1889 5.43307 39.4912 4.98246 39.7435C4.75782 39.8693 4.54231 39.9862 4.36625 40.0736C4.27877 40.1171 4.19436 40.1566 4.12016 40.1869C4.06561 40.2092 3.95474 40.253 3.84086 40.2621L3.74711 40.2631C3.65577 40.2582 3.5729 40.237 3.5059 40.2113C3.41618 40.1769 3.31878 40.1211 3.23539 40.0394C3.10146 39.9079 3.04739 39.751 3.02445 39.6449C3.00125 39.5372 2.99968 39.4364 3.00004 39.3744C3.00279 38.9356 3.13387 38.3753 3.2891 37.8715C3.4475 37.3575 3.64874 36.8468 3.82328 36.4916C3.92703 36.2807 4.04463 36.0827 4.15043 35.9047C4.2195 35.7885 4.28426 35.6794 4.34477 35.5697C4.43744 35.4013 4.51461 35.2142 4.60356 34.9975C4.64447 34.8978 4.68811 34.791 4.73442 34.6859L4.73539 34.685C4.92861 34.2486 5.15746 33.8284 5.41899 33.4291C6.41029 31.9152 7.70221 30.8571 9.05277 29.7465C9.89427 29.0545 10.766 28.3369 11.6475 27.4584C11.9844 27.1226 12.3344 26.7512 12.6651 26.3998C12.925 26.1237 13.1754 25.8573 13.3916 25.6391C13.5996 25.4292 13.806 25.2322 13.9717 25.1166C13.9741 25.1146 13.9783 25.1111 13.9834 25.1068C13.9967 25.0957 14.0141 25.0807 14.0352 25.0619C14.0782 25.0236 14.1297 24.9768 14.1846 24.9262C14.27 24.8476 14.3779 24.7468 14.4512 24.6879C14.7559 24.444 15.0733 24.2145 15.4004 24.0014L15.4014 24.0004C15.6843 23.8173 16.1224 23.5556 16.5889 23.2953C17.553 22.7574 18.3841 22.4225 19.1836 22.1C19.6562 21.9094 20.1151 21.725 20.5957 21.5023L20.5948 21.5014C21.4746 21.0809 22.2461 20.6449 22.9873 20.058L23.002 20.0463L23.0186 20.0355C23.0366 20.0234 23.0577 20.0074 23.0909 19.9828C23.1147 19.9651 23.149 19.9398 23.1885 19.9125L23.3204 19.8305C28.0075 17.3307 33.2005 16.0021 38.2549 14.7064C38.8866 14.5445 39.5164 14.3824 40.1436 14.2191L43.084 13.4486C43.1943 13.4198 43.314 13.3862 43.4434 13.35C43.9591 13.2057 44.6487 13.0103 45.2979 13.0004Z" stroke="white" stroke-width="1.5"/>
<defs>
<pattern id="pattern0_184_932" patternUnits="userSpaceOnUse" patternTransform="matrix(12 0 0 12 0 0)" preserveAspectRatio="none" viewBox="0 0 12 12" width="1" height="1">
<g id="pattern0_184_932_inner">
<rect y="2" width="3" height="1" fill="#D9D9D9"/>
<rect y="8" width="3" height="1" fill="#D9D9D9"/>
<rect x="6" y="2" width="3" height="1" fill="#D9D9D9"/>
<rect x="6" y="8" width="3" height="1" fill="#D9D9D9"/>
<rect x="5" y="3" width="3" height="1" transform="rotate(180 5 3)" fill="#D9D9D9"/>
<rect x="5" y="9" width="3" height="1" transform="rotate(180 5 9)" fill="#D9D9D9"/>
<rect x="11" y="3" width="3" height="1" transform="rotate(180 11 3)" fill="#D9D9D9"/>
<rect x="11" y="9" width="3" height="1" transform="rotate(180 11 9)" fill="#D9D9D9"/>
<rect x="2" width="1" height="2" fill="#D9D9D9"/>
<rect x="2" y="6" width="1" height="2" fill="#D9D9D9"/>
<rect x="8" width="1" height="2" fill="#D9D9D9"/>
<rect x="8" y="6" width="1" height="2" fill="#D9D9D9"/>
<rect x="3" y="5" width="1" height="2" transform="rotate(180 3 5)" fill="#D9D9D9"/>
<rect x="3" y="11" width="1" height="2" transform="rotate(180 3 11)" fill="#D9D9D9"/>
<rect x="9" y="5" width="1" height="2" transform="rotate(180 9 5)" fill="#D9D9D9"/>
<rect x="9" y="11" width="1" height="2" transform="rotate(180 9 11)" fill="#D9D9D9"/>
</g>
</pattern></defs>
</svg>
