<svg width="60" height="60" viewBox="0 0 60 60" fill="none" xmlns="http://www.w3.org/2000/svg" xmlns:xlink="http://www.w3.org/1999/xlink">
<rect width="60" height="60" fill="url(#pattern0_71_56)" fill-opacity="0.1"/>
<path fill-rule="evenodd" clip-rule="evenodd" d="M32.2485 4.01766C33.9182 3.8703 35.0505 4.66258 35.8973 5.74668C36.7289 6.81132 37.3194 8.20706 37.8888 9.28552C38.3387 10.1376 38.724 10.9122 39.1498 11.7702L40.9204 15.2864L47.8917 29.0043L53.1031 39.2277C53.2807 39.5791 53.5284 40.0012 53.7952 40.4809C54.0587 40.9545 54.3354 41.4753 54.5564 42.003C54.9885 43.0355 55.2515 44.1969 54.6402 45.0867C53.8373 46.2556 52.5516 46.5286 51.2723 46.5783C50.6326 46.6031 49.9672 46.5725 49.3508 46.5606C48.726 46.5484 48.1467 46.5549 47.6433 46.6463C47.5642 46.6607 47.4578 46.7019 47.3504 46.7625C47.2453 46.822 47.1565 46.8912 47.102 46.9527C46.7702 47.3863 46.5161 47.925 46.265 48.5034C46.0169 49.0748 45.7688 49.6905 45.4536 50.2235C45.0866 50.844 44.6815 51.2332 44.2557 51.5664C44.0469 51.7297 43.8286 51.8835 43.6159 52.0383C43.4012 52.1945 43.1843 52.3567 42.9642 52.5486C42.8053 52.707 42.6541 52.8709 42.5008 53.0363C42.3456 53.2038 42.1878 53.3753 42.0246 53.5407C41.6973 53.8724 41.3379 54.1912 40.8928 54.4461C40.6547 54.5825 40.3972 54.8179 39.9572 54.8668C39.1389 54.9576 38.2799 54.9264 37.4866 54.9289L32.5521 54.9417L22.9308 54.9899C21.3567 54.9952 19.7667 55.0091 18.1886 54.9909C18.0689 54.9895 17.9575 54.9822 17.8465 54.9495C17.7335 54.9161 17.6363 54.861 17.533 54.789L17.4886 54.7584L17.461 54.7131C17.3747 54.57 17.198 54.3613 17.0046 54.1308C16.912 54.0205 16.8174 53.9076 16.7384 53.8038C16.6625 53.7041 16.5878 53.5965 16.5442 53.4993C16.2933 52.9391 16.1313 52.2173 16.0068 51.5063C15.9442 51.1486 15.8906 50.7879 15.8392 50.4462C15.7979 50.1708 15.7557 49.9087 15.715 49.6669C15.1447 49.5705 14.7561 49.5681 14.4698 49.6216C14.1642 49.6788 13.959 49.7993 13.76 49.9585C13.3504 50.2864 12.9296 50.8324 11.8286 51.1299L11.8207 51.1319L11.8119 51.1329C11.0082 51.2949 10.0051 51.3988 9.01192 51.3782C8.02232 51.3576 7.02072 51.2135 6.23268 50.8659L6.21887 50.86L6.20704 50.8531C5.29673 50.3191 5.07901 49.3327 5.03974 48.3832C5.01996 47.9041 5.04499 47.4071 5.06143 46.9527C5.07815 46.4904 5.08557 46.0744 5.03974 45.7281C4.91614 44.7935 5.0796 43.8602 5.54748 43.1498C6.02145 42.4304 6.79774 41.9584 7.8456 41.9479C8.98202 41.9365 10.1954 42.08 11.3268 42.1814C13.6638 42.3807 16.0042 42.5333 18.3474 42.6385H18.3493C19.6621 42.7101 20.9558 42.805 22.2594 42.8375C22.9578 42.8549 23.3497 42.74 23.6919 42.5478C23.8698 42.4479 24.0403 42.3236 24.241 42.1715C24.4394 42.0212 24.6659 41.8445 24.942 41.6553L29.9543 38.1696L34.5791 34.9017L34.5801 34.9007C34.7619 34.7734 35.1944 34.5032 35.5621 34.2564C35.7528 34.1284 35.9335 34.0016 36.0757 33.8909C36.1468 33.8356 36.2061 33.7867 36.2502 33.7451C36.2663 33.7299 36.2789 33.7153 36.2897 33.7037C36.2917 33.607 36.2742 33.4506 36.2295 33.2377C36.1773 32.9886 36.098 32.6948 36.0077 32.3934C35.9177 32.0928 35.8184 31.7887 35.7297 31.5185C35.642 31.2513 35.5625 31.0124 35.5138 30.8496C35.2991 30.1537 35.1238 29.4317 34.9479 28.7215C34.7712 28.0083 34.594 27.3057 34.3741 26.6339C33.6358 24.3787 33.0473 22.1333 32.4476 19.8488C32.2484 19.0894 32.5089 18.2444 32.7286 17.5307C32.8427 17.1599 32.9488 16.8201 33.0037 16.509C33.0586 16.1974 33.0559 15.9474 32.98 15.7494C32.736 15.1127 32.3761 14.4272 32.002 13.7199C31.6329 13.0221 31.2504 12.3028 30.9737 11.6155L30.8022 11.2599C30.6196 10.9046 30.407 10.5492 30.1949 10.1712C29.9167 9.67548 29.6435 9.14964 29.4791 8.58406C29.2171 7.68249 29.3071 6.77134 29.7404 5.94372C29.8369 5.75614 30.0013 5.557 30.188 5.36738C30.3775 5.17495 30.6032 4.97922 30.8377 4.79991C31.2984 4.44763 31.8275 4.13003 32.2031 4.02554L32.2248 4.01963L32.2485 4.01766Z" stroke="white" stroke-width="1.5" stroke-linejoin="round"/>
<defs>
<pattern id="pattern0_71_56" patternUnits="userSpaceOnUse" patternTransform="matrix(12 0 0 12 0 0)" preserveAspectRatio="none" viewBox="0 0 12 12" width="1" height="1">
<g id="pattern0_71_56_inner">
<rect y="2" width="3" height="1" fill="#D9D9D9"/>
<rect y="8" width="3" height="1" fill="#D9D9D9"/>
<rect x="6" y="2" width="3" height="1" fill="#D9D9D9"/>
<rect x="6" y="8" width="3" height="1" fill="#D9D9D9"/>
<rect x="5" y="3" width="3" height="1" transform="rotate(180 5 3)" fill="#D9D9D9"/>
<rect x="5" y="9" width="3" height="1" transform="rotate(180 5 9)" fill="#D9D9D9"/>
<rect x="11" y="3" width="3" height="1" transform="rotate(180 11 3)" fill="#D9D9D9"/>
<rect x="11" y="9" width="3" height="1" transform="rotate(180 11 9)" fill="#D9D9D9"/>
<rect x="2" width="1" height="2" fill="#D9D9D9"/>
<rect x="2" y="6" width="1" height="2" fill="#D9D9D9"/>
<rect x="8" width="1" height="2" fill="#D9D9D9"/>
<rect x="8" y="6" width="1" height="2" fill="#D9D9D9"/>
<rect x="3" y="5" width="1" height="2" transform="rotate(180 3 5)" fill="#D9D9D9"/>
<rect x="3" y="11" width="1" height="2" transform="rotate(180 3 11)" fill="#D9D9D9"/>
<rect x="9" y="5" width="1" height="2" transform="rotate(180 9 5)" fill="#D9D9D9"/>
<rect x="9" y="11" width="1" height="2" transform="rotate(180 9 11)" fill="#D9D9D9"/>
</g>
</pattern></defs>
</svg>
