<svg width="60" height="60" viewBox="0 0 60 60" fill="none" xmlns="http://www.w3.org/2000/svg" xmlns:xlink="http://www.w3.org/1999/xlink">
<rect width="60" height="60" fill="url(#pattern0_71_56)" fill-opacity="0.1"/>
<path fill-rule="evenodd" clip-rule="evenodd" d="M31.7399 4.7675C33.3938 4.62144 34.5154 5.40677 35.3542 6.48137C36.1779 7.53667 36.7628 8.92018 37.3268 9.98918C37.7725 10.8338 38.1542 11.6016 38.5759 12.4521L40.3298 15.9374L47.235 29.5351L52.3972 39.6689C52.5731 40.0172 52.8184 40.4356 53.0827 40.9111C53.3437 41.3806 53.6178 41.8968 53.8366 42.4198C54.2647 43.4433 54.5252 44.5944 53.9196 45.4765C53.1243 46.6351 51.8508 46.9057 50.5837 46.955C49.95 46.9796 49.2909 46.9493 48.6804 46.9374C48.0614 46.9254 47.4877 46.9319 46.989 47.0224C46.9106 47.0367 46.8053 47.0775 46.6989 47.1376C46.5947 47.1966 46.5068 47.2652 46.4528 47.3261C46.1241 47.7559 45.8725 48.2899 45.6237 48.8632C45.3779 49.4296 45.1322 50.0399 44.82 50.5683C44.4565 51.1833 44.0552 51.5691 43.6335 51.8993C43.4267 52.0613 43.2104 52.2136 42.9997 52.3671C42.7871 52.522 42.5722 52.6827 42.3542 52.873C42.1968 53.03 42.047 53.1924 41.8952 53.3564C41.7414 53.5225 41.5852 53.6924 41.4235 53.8564C41.0993 54.1852 40.7433 54.5011 40.3024 54.7538C40.0666 54.8891 39.8115 55.1224 39.3757 55.1708C38.5651 55.2609 37.7143 55.2299 36.9284 55.2323L32.0407 55.245L22.5104 55.2929C20.9513 55.2982 19.3763 55.3119 17.8132 55.2939C17.6946 55.2925 17.5842 55.2853 17.4743 55.2529C17.3623 55.2197 17.2661 55.1651 17.1638 55.0937L17.1198 55.0634L17.0925 55.0185C17.0069 54.8767 16.8319 54.6698 16.6403 54.4413C16.5486 54.332 16.4549 54.22 16.3766 54.1171C16.3015 54.0184 16.2275 53.9117 16.1843 53.8154C15.9357 53.26 15.7753 52.5445 15.652 51.8398C15.59 51.4853 15.5369 51.1277 15.486 50.789C15.4451 50.516 15.4033 50.2562 15.363 50.0165C14.7981 49.921 14.4131 49.9186 14.1296 49.9716C13.8268 50.0283 13.6236 50.1477 13.4265 50.3056C13.0207 50.6306 12.6039 51.1719 11.5134 51.4667L11.5056 51.4687L11.4968 51.4697C10.7007 51.6302 9.70708 51.7333 8.72333 51.7128C7.7431 51.6924 6.75098 51.5496 5.9704 51.205L5.95673 51.1991L5.94501 51.1923C5.04331 50.663 4.82765 49.6852 4.78876 48.7441C4.76916 48.2692 4.79396 47.7765 4.81024 47.3261C4.8268 46.8678 4.83415 46.4555 4.78876 46.1122C4.66633 45.1858 4.82823 44.2608 5.29169 43.5566C5.76117 42.8434 6.53011 42.3756 7.56805 42.3652C8.69371 42.3539 9.89561 42.4962 11.0163 42.5966C13.3312 42.7942 15.6495 42.9454 17.9704 43.0497H17.9724C19.2727 43.1207 20.5542 43.2148 21.8454 43.247C22.5372 43.2643 22.9254 43.1503 23.2643 42.9599C23.4406 42.8608 23.6095 42.7376 23.8083 42.5868C24.0048 42.4379 24.2291 42.2627 24.5026 42.0751L29.4675 38.62L34.0485 35.3808L34.0495 35.3798C34.2296 35.2536 34.658 34.9858 35.0222 34.7411C35.2111 34.6142 35.3901 34.4886 35.5309 34.3788C35.6013 34.324 35.66 34.2756 35.7038 34.2343C35.7197 34.2193 35.7321 34.2048 35.7429 34.1933C35.7448 34.0974 35.7275 33.9424 35.6833 33.7314C35.6316 33.4844 35.553 33.1932 35.4636 32.8945C35.3744 32.5965 35.276 32.2951 35.1882 32.0273C35.1013 31.7623 35.0226 31.5256 34.9743 31.3642C34.7617 30.6744 34.588 29.9587 34.4138 29.2548C34.2387 28.5479 34.0632 27.8513 33.8454 27.1855C33.1141 24.9501 32.5312 22.7243 31.9372 20.4599C31.7398 19.7071 31.9979 18.8695 32.2155 18.162C32.3286 17.7945 32.4336 17.4577 32.488 17.1493C32.5424 16.8405 32.5397 16.5927 32.4645 16.3964C32.2229 15.7653 31.8664 15.0858 31.4958 14.3847C31.1301 13.693 30.7512 12.98 30.4772 12.2988L30.3073 11.9462C30.1264 11.5941 29.9159 11.2418 29.7057 10.8671C29.4302 10.3757 29.1596 9.85449 28.9968 9.29387C28.7373 8.40021 28.8264 7.49704 29.2556 6.67668C29.3512 6.49074 29.514 6.29335 29.6989 6.10539C29.8867 5.91465 30.1102 5.72064 30.3425 5.54289C30.7988 5.1937 31.3229 4.87889 31.695 4.77532L31.7165 4.76946L31.7399 4.7675ZM32.3356 6.43352C31.9569 6.4821 31.7329 6.57962 31.5475 6.71672C31.3473 6.86488 31.1826 7.06303 30.9186 7.36028C30.6758 7.63378 30.5558 7.86661 30.5065 8.07024C30.4579 8.27162 30.4733 8.46571 30.5358 8.6718C30.5999 8.88287 30.7109 9.10061 30.8493 9.34953C30.9842 9.59213 31.1476 9.86699 31.2907 10.164C32.2619 12.179 33.4231 14.1772 34.1989 16.331C34.341 16.7253 34.2601 17.1518 34.1481 17.5175C34.091 17.704 34.021 17.8885 33.9577 18.0566C33.893 18.2283 33.8361 18.3816 33.7966 18.5195L33.7927 18.5322L33.7878 18.5448C33.4553 19.3661 33.4994 20.0621 33.6833 20.7675C33.7767 21.1256 33.9054 21.4825 34.0417 21.8652C34.1768 22.2443 34.3184 22.646 34.4294 23.0771C34.7875 24.4678 35.1985 25.8571 35.61 27.2519C35.9183 28.2967 36.2269 29.3449 36.5114 30.3964L36.7878 31.4491C36.8635 31.753 37.0827 32.5262 37.235 33.2587C37.3114 33.6259 37.3737 33.9957 37.3932 34.3046C37.403 34.4586 37.4031 34.6066 37.3854 34.7353C37.3687 34.8569 37.332 34.9979 37.2399 35.1044C36.9114 35.4837 36.2886 35.9552 35.6735 36.3876C35.3618 36.6067 35.0443 36.821 34.7575 37.0136C34.4694 37.207 34.2133 37.3782 34.0192 37.5136L29.5417 40.6523C29.0526 40.9928 28.5961 41.3449 28.1208 41.6982C27.6481 42.0495 27.1603 42.3981 26.6227 42.7197C26.2614 42.9358 25.905 43.2109 25.5222 43.495C25.1501 43.7712 24.7559 44.0534 24.3366 44.2646C22.8871 45.1823 21.5496 44.9724 20.028 44.8652C18.624 44.7659 17.2208 44.6519 15.819 44.5253C13.9101 44.3692 11.9414 44.3197 10.0036 44.1904C9.14926 44.1333 8.12391 44.013 7.33173 44.0937C7.2391 44.1033 7.10724 44.1607 6.94891 44.2597C6.81597 44.3429 6.68659 44.441 6.57196 44.5292C6.49589 44.6991 6.44155 44.8481 6.41864 45.0136C6.37462 45.3326 6.34275 46.3078 6.35126 47.2919C6.35548 47.7805 6.36993 48.2642 6.39716 48.6611C6.41078 48.8595 6.42719 49.0339 6.44696 49.1747C6.46745 49.3205 6.48943 49.4146 6.50751 49.4618C6.54106 49.5493 6.57825 49.6058 6.62079 49.6484C6.66433 49.6919 6.72448 49.7316 6.81708 49.7724C6.99517 49.8507 7.31639 49.9168 7.73602 49.9599C8.14765 50.0021 8.63032 50.0206 9.11591 50.0165C9.60149 50.0125 10.0864 49.9858 10.5016 49.9394C10.9229 49.8923 11.2527 49.8268 11.4411 49.7529C11.7277 49.6402 11.8794 49.4845 12.0261 49.2988C12.1712 49.1149 12.3392 48.8557 12.6257 48.6425C12.8276 48.4923 13.1192 48.4029 13.4206 48.3476C13.7294 48.2909 14.0812 48.2651 14.4294 48.2636C15.1145 48.2606 15.8399 48.3506 16.2272 48.5136C16.6132 48.6761 16.7869 48.9805 16.9059 49.2978C17.1306 49.8969 17.23 50.536 17.321 51.1493C17.4129 51.7694 17.4965 52.3633 17.6823 52.9189C17.8015 53.2477 17.8899 53.3996 17.9948 53.4833C18.0921 53.5607 18.2444 53.6101 18.5827 53.6113C19.8223 53.6155 21.0608 53.5987 22.3044 53.5898L35.2487 53.5234L36.9499 53.5273C37.5141 53.5282 38.0769 53.5246 38.6384 53.5029C38.9085 53.4924 39.131 53.4795 39.3307 53.3984C39.445 53.3518 39.6061 53.238 39.8063 53.0605C40.0018 52.8871 40.2164 52.6706 40.4352 52.4404C40.8625 51.9908 41.3231 51.4711 41.655 51.1904C41.9087 50.9759 42.204 50.8075 42.4401 50.6523C42.687 50.4899 42.8969 50.3266 43.0554 50.1005C43.445 49.5444 43.7871 48.8536 44.0827 48.2177C44.1821 48.0039 44.2702 47.7848 44.363 47.5585C44.4547 47.3348 44.5513 47.1047 44.6638 46.8837C44.89 46.4392 45.1886 46.015 45.6765 45.703C46.1224 45.418 46.7729 45.3128 47.4557 45.2695C48.146 45.2257 48.9309 45.2439 49.6618 45.2402C50.4041 45.2363 51.0926 45.2095 51.6325 45.0868C52.1795 44.9625 52.498 44.7569 52.6169 44.456C52.7215 44.1907 52.7104 43.9274 52.5895 43.665C52.4846 43.4373 52.3492 43.2196 52.2028 42.9892C52.0594 42.7633 51.903 42.5231 51.7751 42.2675C50.9317 40.584 50.1763 38.907 49.32 37.247C49.2018 37.0179 49.0719 36.7936 48.9391 36.5634C48.8073 36.3349 48.673 36.0996 48.5485 35.8583L48.5475 35.8573L41.694 22.372L36.6237 12.3632C36.2462 11.6256 35.6055 10.1041 34.8034 8.7509C34.4047 8.0782 33.9775 7.46963 33.5427 7.04192C33.103 6.60952 32.6982 6.40381 32.3356 6.43352Z" fill="white"/>
<defs>
<pattern id="pattern0_71_56" patternUnits="userSpaceOnUse" patternTransform="matrix(12 0 0 12 0 0)" preserveAspectRatio="none" viewBox="0 0 12 12" width="1" height="1">
<g id="pattern0_71_56_inner">
<rect y="2" width="3" height="1" fill="#D9D9D9"/>
<rect y="8" width="3" height="1" fill="#D9D9D9"/>
<rect x="6" y="2" width="3" height="1" fill="#D9D9D9"/>
<rect x="6" y="8" width="3" height="1" fill="#D9D9D9"/>
<rect x="5" y="3" width="3" height="1" transform="rotate(180 5 3)" fill="#D9D9D9"/>
<rect x="5" y="9" width="3" height="1" transform="rotate(180 5 9)" fill="#D9D9D9"/>
<rect x="11" y="3" width="3" height="1" transform="rotate(180 11 3)" fill="#D9D9D9"/>
<rect x="11" y="9" width="3" height="1" transform="rotate(180 11 9)" fill="#D9D9D9"/>
<rect x="2" width="1" height="2" fill="#D9D9D9"/>
<rect x="2" y="6" width="1" height="2" fill="#D9D9D9"/>
<rect x="8" width="1" height="2" fill="#D9D9D9"/>
<rect x="8" y="6" width="1" height="2" fill="#D9D9D9"/>
<rect x="3" y="5" width="1" height="2" transform="rotate(180 3 5)" fill="#D9D9D9"/>
<rect x="3" y="11" width="1" height="2" transform="rotate(180 3 11)" fill="#D9D9D9"/>
<rect x="9" y="5" width="1" height="2" transform="rotate(180 9 5)" fill="#D9D9D9"/>
<rect x="9" y="11" width="1" height="2" transform="rotate(180 9 11)" fill="#D9D9D9"/>
</g>
</pattern></defs>
</svg>
