<svg width="60" height="60" viewBox="0 0 60 60" fill="none" xmlns="http://www.w3.org/2000/svg" xmlns:xlink="http://www.w3.org/1999/xlink">
<rect width="60" height="60" fill="url(#pattern0_231_14)" fill-opacity="0.1"/>
<path d="M22.7975 40.3547C22.8064 41.088 23.2712 41.9136 23.9111 42.2798C24.3861 42.5484 25.2362 42.5566 25.745 42.3836C26.709 42.0639 27.6934 41.8011 28.6564 41.4764C30.1176 40.9837 31.6269 40.6092 33.0344 39.9727C37.0919 38.1377 41.1578 36.3214 45.2199 34.4965C47.5167 33.4614 49.8032 32.3994 52.1163 31.4012C52.8435 31.0874 53.629 30.7484 54.2126 30.4416C54.5515 30.3001 54.8872 30.1436 55.2269 30.0013C55.8963 29.7346 56.4617 29.4841 56.7563 28.7741C57.0946 27.9596 57.1584 26.7386 56.4381 26.1019C55.4978 25.271 54.4702 24.5509 53.511 23.7443C53.2925 23.5605 53.072 23.3751 52.8547 23.2233C52.6698 23.0939 52.4704 22.9863 52.2611 22.9027C51.974 22.7898 51.2101 22.7623 50.9713 22.8958C50.59 23.1091 50.2713 23.4297 49.9317 23.7041L47.894 25.3393L44.7677 27.8278C44.1571 28.3013 43.5618 28.7944 42.9515 29.2682C42.5064 29.6138 41.9296 30.0616 41.7864 30.5523C41.7057 30.8295 41.7047 31.1153 41.7037 31.3917C41.7017 31.9664 41.6998 32.5009 40.9817 32.8349C40.1468 33.2232 39.2764 33.5768 38.4471 33.9648C37.4327 34.4394 36.7448 34.1722 36.4062 33.0856C36.4836 32.856 36.5492 32.6196 36.6147 32.3834C37.0292 30.8888 37.5131 29.4128 37.9489 27.9242C38.2448 26.927 38.4425 25.8482 39.0707 24.9996C39.5985 24.2861 40.4563 24.2896 41.2501 24.2928C41.4949 24.2937 41.7337 24.2947 41.9547 24.2746C43.1006 24.1703 44.2256 24.2272 45.3683 24.1175C45.792 24.0768 46.2706 24.1648 46.6924 23.9955C48.2076 23.2305 48.0737 22.1926 47.9019 20.8607C47.8569 20.5118 47.8191 20.1639 47.7965 19.8127C47.7373 18.8908 47.681 18.0137 46.5425 17.6663C45.9257 17.4781 45.1969 17.4935 44.517 17.5078C43.5672 17.5279 42.6165 17.5156 41.6665 17.5159L13.5436 17.5177C12.6934 17.5178 11.7613 17.4972 10.9223 17.5238C10.7021 17.593 10.5428 17.5962 10.3672 17.5998C7.16427 17.6645 3.96879 19.8858 3.18105 23.0563C2.10183 27.3998 6.02194 31.1926 10.3013 29.9542C10.6126 29.8641 10.9554 29.7004 11.2609 29.5801C11.8436 29.3573 12.4244 29.1292 13.0031 28.8959C14.8249 28.1883 16.6518 27.4927 18.4682 26.7713C19.1737 26.4912 19.8961 26.2043 20.6411 26.6645C21.5053 27.1983 22.2683 28.1174 23.0113 28.8056C23.5794 29.3318 24.2692 29.8888 24.7649 30.4838C24.9026 30.6473 25.0048 30.8378 25.0651 31.0432C25.2166 31.5424 24.8626 32.6942 24.6351 33.4346C24.1706 34.9461 23.7535 36.4733 23.3151 37.9926C23.0959 38.7633 22.7877 39.5459 22.7975 40.3547Z" stroke="white" stroke-width="1.5"/>
<defs>
<pattern id="pattern0_231_14" patternUnits="userSpaceOnUse" patternTransform="matrix(12 0 0 12 0 0)" preserveAspectRatio="none" viewBox="0 0 12 12" width="1" height="1">
<g id="pattern0_231_14_inner">
<rect y="2" width="3" height="1" fill="#D9D9D9"/>
<rect y="8" width="3" height="1" fill="#D9D9D9"/>
<rect x="6" y="2" width="3" height="1" fill="#D9D9D9"/>
<rect x="6" y="8" width="3" height="1" fill="#D9D9D9"/>
<rect x="5" y="3" width="3" height="1" transform="rotate(180 5 3)" fill="#D9D9D9"/>
<rect x="5" y="9" width="3" height="1" transform="rotate(180 5 9)" fill="#D9D9D9"/>
<rect x="11" y="3" width="3" height="1" transform="rotate(180 11 3)" fill="#D9D9D9"/>
<rect x="11" y="9" width="3" height="1" transform="rotate(180 11 9)" fill="#D9D9D9"/>
<rect x="2" width="1" height="2" fill="#D9D9D9"/>
<rect x="2" y="6" width="1" height="2" fill="#D9D9D9"/>
<rect x="8" width="1" height="2" fill="#D9D9D9"/>
<rect x="8" y="6" width="1" height="2" fill="#D9D9D9"/>
<rect x="3" y="5" width="1" height="2" transform="rotate(180 3 5)" fill="#D9D9D9"/>
<rect x="3" y="11" width="1" height="2" transform="rotate(180 3 11)" fill="#D9D9D9"/>
<rect x="9" y="5" width="1" height="2" transform="rotate(180 9 5)" fill="#D9D9D9"/>
<rect x="9" y="11" width="1" height="2" transform="rotate(180 9 11)" fill="#D9D9D9"/>
</g>
</pattern></defs>
</svg>
