<svg width="60" height="60" viewBox="0 0 60 60" fill="none" xmlns="http://www.w3.org/2000/svg" xmlns:xlink="http://www.w3.org/1999/xlink">
<rect width="60" height="60" fill="url(#pattern0_139_1021)" fill-opacity="0.1"/>
<path d="M25.5502 29.3687L25.227 29.4091C24.7494 29.4688 24.2644 29.4127 23.813 29.2455L11.1182 24.5438C11.0397 24.5147 10.9652 24.4759 10.8963 24.4282L5.53864 20.7191C4.87467 20.2594 4.42508 19.5505 4.29232 18.7539L4.24993 18.4996C4.10755 17.6453 4.62905 16.8203 5.46176 16.5824C6.64359 16.2447 7.89832 16.7966 8.448 17.896L9.47273 19.9455C10.1426 21.2851 11.1939 22.3965 12.4944 23.1397C13.4945 23.7111 14.5598 24.16 15.6674 24.4764L16.2178 24.6337C17.062 24.8749 17.9493 24.9251 18.8153 24.7808C19.9022 24.5996 20.888 24.0344 21.5934 23.188L23.6882 20.6741C24.0151 20.2819 24.6385 20.6536 24.4489 21.1277C23.8287 22.6784 23.6538 24.3715 23.944 26.0162L24.837 31.0763C24.9287 31.5957 25.408 31.9547 25.9322 31.8964L29.07 31.5478C29.3444 31.5173 29.5939 31.3747 29.7596 31.1539L31.6981 28.5692C32.2235 27.8687 32.9236 27.3184 33.7285 26.9735L34.2948 26.7308C35.3763 26.2673 36.607 26.3035 37.6593 26.8297L39.5002 27.7501C40.3424 28.1712 40.7104 29.1758 40.3395 30.0412L40.1998 30.3671C39.769 31.3724 39.9266 32.5332 40.6098 33.3872L40.7032 33.5041C41.2068 34.1336 41.9693 34.5 42.7754 34.5C43.8241 34.5 44.7745 35.1176 45.2004 36.0759L45.6257 37.0329C46.1716 38.261 47.2977 39.1329 48.6234 39.3539L49.1226 39.4371C49.3656 39.4776 49.5851 39.6064 49.739 39.7988L52.4674 43.2093C53.0036 43.8795 54.0171 43.8967 54.5757 43.245C55.6809 41.9557 55.6733 40.0509 54.558 38.7703L45.3387 28.1852C43.7945 26.4122 41.918 24.959 39.8151 23.9075L38.5528 23.2764C38.214 23.107 37.8086 23.1436 37.5056 23.3708L36.549 24.0883C36.234 24.3245 35.7932 24.2932 35.5148 24.0148C35.2238 23.7238 34.7584 23.7045 34.4442 23.9703L30.7693 27.0798C29.2885 28.3328 27.4751 29.1281 25.5502 29.3687Z" stroke="white" stroke-width="1.5"/>
<defs>
<pattern id="pattern0_139_1021" patternUnits="userSpaceOnUse" patternTransform="matrix(12 0 0 12 0 0)" preserveAspectRatio="none" viewBox="0 0 12 12" width="1" height="1">
<g id="pattern0_139_1021_inner">
<rect y="2" width="3" height="1" fill="#D9D9D9"/>
<rect y="8" width="3" height="1" fill="#D9D9D9"/>
<rect x="6" y="2" width="3" height="1" fill="#D9D9D9"/>
<rect x="6" y="8" width="3" height="1" fill="#D9D9D9"/>
<rect x="5" y="3" width="3" height="1" transform="rotate(180 5 3)" fill="#D9D9D9"/>
<rect x="5" y="9" width="3" height="1" transform="rotate(180 5 9)" fill="#D9D9D9"/>
<rect x="11" y="3" width="3" height="1" transform="rotate(180 11 3)" fill="#D9D9D9"/>
<rect x="11" y="9" width="3" height="1" transform="rotate(180 11 9)" fill="#D9D9D9"/>
<rect x="2" width="1" height="2" fill="#D9D9D9"/>
<rect x="2" y="6" width="1" height="2" fill="#D9D9D9"/>
<rect x="8" width="1" height="2" fill="#D9D9D9"/>
<rect x="8" y="6" width="1" height="2" fill="#D9D9D9"/>
<rect x="3" y="5" width="1" height="2" transform="rotate(180 3 5)" fill="#D9D9D9"/>
<rect x="3" y="11" width="1" height="2" transform="rotate(180 3 11)" fill="#D9D9D9"/>
<rect x="9" y="5" width="1" height="2" transform="rotate(180 9 5)" fill="#D9D9D9"/>
<rect x="9" y="11" width="1" height="2" transform="rotate(180 9 11)" fill="#D9D9D9"/>
</g>
</pattern></defs>
</svg>
