<svg width="60" height="60" viewBox="0 0 60 60" fill="none" xmlns="http://www.w3.org/2000/svg" xmlns:xlink="http://www.w3.org/1999/xlink">
<rect width="60" height="60" fill="url(#pattern0_139_1021)" fill-opacity="0.1"/>
<path d="M24.9348 29.1378L24.6116 29.1782C24.1339 29.2379 23.6489 29.1818 23.1975 29.0146L10.5028 24.3128C10.4243 24.2838 10.3498 24.2449 10.2809 24.1973L4.92322 20.4881C4.25925 20.0284 3.80967 19.3195 3.6769 18.523L3.63451 18.2686C3.49214 17.4144 4.01363 16.5893 4.84635 16.3514C6.02817 16.0137 7.28291 16.5657 7.83258 17.665L8.85731 19.7145C9.52715 21.0542 10.5785 22.1656 11.879 22.9087C12.8791 23.4802 13.9444 23.929 15.0519 24.2454L15.6024 24.4027C16.4466 24.6439 17.3339 24.6942 18.1999 24.5498C19.2868 24.3687 20.2726 23.8035 20.978 22.957L23.0728 20.4432C23.3997 20.051 24.0231 20.4227 23.8335 20.8967C23.2132 22.4474 23.0384 24.1405 23.3286 25.7853L24.2216 30.8454C24.3132 31.3648 24.7926 31.7237 25.3168 31.6655L28.4546 31.3168C28.729 31.2863 28.9785 31.1438 29.1442 30.9229L31.0827 28.3383C31.6081 27.6378 32.3082 27.0875 33.1131 26.7426L33.6794 26.4998C34.7609 26.0364 35.9915 26.0725 37.0439 26.5987L38.8848 27.5192C39.727 27.9402 40.095 28.9448 39.7241 29.8103L39.5844 30.1361C39.1536 31.1414 39.3111 32.3022 39.9944 33.1563L40.0878 33.2731C40.5914 33.9026 41.3539 34.269 42.16 34.269C43.2087 34.269 44.1591 34.8866 44.585 35.845L45.0103 36.8019C45.5561 38.0301 46.6823 38.902 48.008 39.1229L48.5071 39.2061C48.7502 39.2466 48.9697 39.3754 49.1236 39.5678L51.852 42.9784C52.3882 43.6485 53.4017 43.6657 53.9603 43.0141C55.0654 41.7247 55.0579 39.8199 53.9426 38.5393L44.7233 27.9542C43.1791 26.1813 41.3026 24.728 39.1997 23.6766L37.9374 23.0454C37.5986 22.876 37.1932 22.9126 36.8902 23.1399L35.9335 23.8573C35.6186 24.0936 35.1778 24.0622 34.8994 23.7838C34.6084 23.4929 34.143 23.4735 33.8288 23.7393L30.1539 26.8488C28.673 28.1019 26.8597 28.8972 24.9348 29.1378Z" stroke="white" stroke-width="1.5"/>
<defs>
<pattern id="pattern0_139_1021" patternUnits="userSpaceOnUse" patternTransform="matrix(12 0 0 12 0 0)" preserveAspectRatio="none" viewBox="0 0 12 12" width="1" height="1">
<g id="pattern0_139_1021_inner">
<rect y="2" width="3" height="1" fill="#D9D9D9"/>
<rect y="8" width="3" height="1" fill="#D9D9D9"/>
<rect x="6" y="2" width="3" height="1" fill="#D9D9D9"/>
<rect x="6" y="8" width="3" height="1" fill="#D9D9D9"/>
<rect x="5" y="3" width="3" height="1" transform="rotate(180 5 3)" fill="#D9D9D9"/>
<rect x="5" y="9" width="3" height="1" transform="rotate(180 5 9)" fill="#D9D9D9"/>
<rect x="11" y="3" width="3" height="1" transform="rotate(180 11 3)" fill="#D9D9D9"/>
<rect x="11" y="9" width="3" height="1" transform="rotate(180 11 9)" fill="#D9D9D9"/>
<rect x="2" width="1" height="2" fill="#D9D9D9"/>
<rect x="2" y="6" width="1" height="2" fill="#D9D9D9"/>
<rect x="8" width="1" height="2" fill="#D9D9D9"/>
<rect x="8" y="6" width="1" height="2" fill="#D9D9D9"/>
<rect x="3" y="5" width="1" height="2" transform="rotate(180 3 5)" fill="#D9D9D9"/>
<rect x="3" y="11" width="1" height="2" transform="rotate(180 3 11)" fill="#D9D9D9"/>
<rect x="9" y="5" width="1" height="2" transform="rotate(180 9 5)" fill="#D9D9D9"/>
<rect x="9" y="11" width="1" height="2" transform="rotate(180 9 11)" fill="#D9D9D9"/>
</g>
</pattern></defs>
</svg>
