<svg width="60" height="60" viewBox="0 0 60 60" fill="none" xmlns="http://www.w3.org/2000/svg" xmlns:xlink="http://www.w3.org/1999/xlink">
<rect width="60" height="60" fill="url(#pattern0_82_136)" fill-opacity="0.1"/>
<path d="M17.3273 14.661L54.4674 22.2794C55.2852 22.4472 56.0218 22.8879 56.5563 23.5293L57.0035 24.0659C57.7384 24.9478 57.835 26.198 57.2444 27.1824C56.9129 27.7349 56.3947 28.1506 55.7835 28.3543L55.3934 28.4843C54.3381 28.8361 53.1817 28.7092 52.2278 28.1369L51.9774 27.9866C51.4843 27.6907 51.0533 27.302 50.7082 26.8419L50.5505 26.6316C50.0114 25.9128 49.3123 25.3294 48.5087 24.9276L47.9976 24.672C47.1645 24.2554 46.2458 24.0386 45.3143 24.0386H32.327C31.9331 24.0386 31.5428 24.1137 31.1771 24.26L29.9588 24.7473C29.5191 24.9232 29.2307 25.3491 29.2307 25.8227C29.2307 26.2615 29.4786 26.6625 29.871 26.8587L30.0526 26.9495C30.1708 27.0086 30.2964 27.0517 30.426 27.0776L36.9428 28.381C37.4657 28.4856 37.9724 28.6594 38.4494 28.8979L39.5375 29.442C40.3168 29.8316 40.9688 30.4354 41.4171 31.1825C41.9442 32.0611 42.1617 33.0911 42.0346 34.1078L41.7307 36.5386V41.7486C41.7307 42.2704 41.6311 42.7875 41.4373 43.2721L41.0805 44.164C40.8587 44.7187 40.4038 45.1475 39.8371 45.3364C39.4424 45.468 39.0168 45.4752 38.6179 45.357L26.3642 41.7263C25.9452 41.6021 25.5517 41.4043 25.2021 41.1421C24.2759 40.4474 23.7307 39.3572 23.7307 38.1993V38.1511C23.7307 37.7454 23.7961 37.3423 23.9244 36.9574L25.2307 33.0386L25.4633 32.1084C25.6358 31.418 25.5558 30.6887 25.2376 30.0523C24.9111 29.3993 24.3563 28.8888 23.6784 28.6177L22.9242 28.316C22.4643 28.132 21.9802 28.0158 21.4869 27.971L12.0973 27.1174C11.5226 27.0651 10.9433 27.0961 10.3774 27.2092L9.93197 27.2983C9.14118 27.4565 8.39584 27.7897 7.75068 28.2736L7.62514 28.3678C7.03694 28.8089 6.55953 29.3809 6.23071 30.0386C5.9019 30.6962 5.73071 31.4214 5.73071 32.1566V32.4676C5.73071 32.8473 5.76822 33.2261 5.84269 33.5985L6.1195 34.9825C6.19158 35.3429 6.14147 35.7171 5.9771 36.0458C5.81717 36.3657 5.5578 36.625 5.23794 36.785L5.1453 36.8313C4.87266 36.9676 4.57202 37.0386 4.26719 37.0386H3.93782C3.48507 37.0386 3.05086 36.8587 2.73071 36.5386C2.41057 36.2184 2.23071 35.7842 2.23071 35.3315V34.6016C2.23071 34.2287 2.29083 33.8582 2.40874 33.5045L6.85904 20.1536C7.10449 19.4172 7.49048 18.7355 7.9956 18.1462L9.05725 16.9076C9.82265 16.0146 10.8336 15.3663 11.9645 15.0432L12.9227 14.7694C13.4588 14.6163 14.0135 14.5386 14.571 14.5386H16.1217C16.5267 14.5386 16.9306 14.5796 17.3273 14.661Z" stroke="white" stroke-width="1.5"/>
<defs>
<pattern id="pattern0_82_136" patternUnits="userSpaceOnUse" patternTransform="matrix(12 0 0 12 0 0)" preserveAspectRatio="none" viewBox="0 0 12 12" width="1" height="1">
<g id="pattern0_82_136_inner">
<rect y="2" width="3" height="1" fill="#D9D9D9"/>
<rect y="8" width="3" height="1" fill="#D9D9D9"/>
<rect x="6" y="2" width="3" height="1" fill="#D9D9D9"/>
<rect x="6" y="8" width="3" height="1" fill="#D9D9D9"/>
<rect x="5" y="3" width="3" height="1" transform="rotate(180 5 3)" fill="#D9D9D9"/>
<rect x="5" y="9" width="3" height="1" transform="rotate(180 5 9)" fill="#D9D9D9"/>
<rect x="11" y="3" width="3" height="1" transform="rotate(180 11 3)" fill="#D9D9D9"/>
<rect x="11" y="9" width="3" height="1" transform="rotate(180 11 9)" fill="#D9D9D9"/>
<rect x="2" width="1" height="2" fill="#D9D9D9"/>
<rect x="2" y="6" width="1" height="2" fill="#D9D9D9"/>
<rect x="8" width="1" height="2" fill="#D9D9D9"/>
<rect x="8" y="6" width="1" height="2" fill="#D9D9D9"/>
<rect x="3" y="5" width="1" height="2" transform="rotate(180 3 5)" fill="#D9D9D9"/>
<rect x="3" y="11" width="1" height="2" transform="rotate(180 3 11)" fill="#D9D9D9"/>
<rect x="9" y="5" width="1" height="2" transform="rotate(180 9 5)" fill="#D9D9D9"/>
<rect x="9" y="11" width="1" height="2" transform="rotate(180 9 11)" fill="#D9D9D9"/>
</g>
</pattern></defs>
</svg>
