<svg width="60" height="60" viewBox="0 0 60 60" fill="none" xmlns="http://www.w3.org/2000/svg" xmlns:xlink="http://www.w3.org/1999/xlink">
<rect width="60" height="60" fill="url(#pattern0_82_136)" fill-opacity="0.1"/>
<path d="M17.0966 14.1224L54.2367 21.7409C55.0545 21.9086 55.7911 22.3493 56.3256 22.9907L56.7727 23.5273C57.5077 24.4092 57.6043 25.6595 57.0137 26.6438C56.6822 27.1963 56.164 27.612 55.5528 27.8157L55.1627 27.9458C54.1074 28.2975 52.951 28.1706 51.9971 27.5983L51.7467 27.448C51.2536 27.1522 50.8226 26.7634 50.4775 26.3033L50.3198 26.093C49.7807 25.3742 49.0816 24.7908 48.278 24.389L47.7669 24.1334C46.9337 23.7169 46.0151 23.5 45.0836 23.5H32.0963C31.7024 23.5 31.3121 23.5752 30.9464 23.7215L29.7281 24.2088C29.2883 24.3847 29 24.8106 29 25.2842C29 25.7229 29.2479 26.1239 29.6403 26.3201L29.8219 26.411C29.9401 26.4701 30.0657 26.5131 30.1952 26.5391L36.7121 27.8424C37.235 27.947 37.7417 28.1208 38.2187 28.3593L39.3068 28.9034C40.0861 29.293 40.7381 29.8968 41.1864 30.6439C41.7135 31.5225 41.9309 32.5525 41.8038 33.5692L41.5 36V41.21C41.5 41.7319 41.4004 42.249 41.2066 42.7335L40.8498 43.6254C40.628 44.1801 40.1731 44.609 39.6064 44.7979C39.2117 44.9294 38.7861 44.9366 38.3872 44.8184L26.1335 41.1877C25.7145 41.0636 25.321 40.8658 24.9714 40.6036C24.0451 39.9089 23.5 38.8186 23.5 37.6607V37.6126C23.5 37.2068 23.5654 36.8038 23.6937 36.4189L25 32.5L25.2326 31.5698C25.4051 30.8795 25.3251 30.1502 25.0068 29.5137C24.6804 28.8607 24.1256 28.3502 23.4477 28.0791L22.6935 27.7774C22.2336 27.5934 21.7494 27.4772 21.2562 27.4324L11.8666 26.5788C11.2919 26.5265 10.7126 26.5575 10.1467 26.6707L9.70126 26.7597C8.91046 26.9179 8.16513 27.2512 7.51996 27.735L7.39443 27.8292C6.80623 28.2703 6.32881 28.8424 6 29.5C5.67119 30.1576 5.5 30.8828 5.5 31.618V31.929C5.5 32.3087 5.53751 32.6875 5.61198 33.0599L5.88878 34.4439C5.96087 34.8043 5.91076 35.1785 5.74639 35.5072C5.58645 35.8271 5.32709 36.0865 5.00722 36.2464L4.91459 36.2927C4.64194 36.429 4.3413 36.5 4.03647 36.5H3.70711C3.25435 36.5 2.82014 36.3201 2.5 36C2.17986 35.6799 2 35.2456 2 34.7929V34.063C2 33.6901 2.06011 33.3197 2.17803 32.9659L6.62833 19.615C6.87378 18.8787 7.25976 18.1969 7.76489 17.6076L8.82654 16.369C9.59194 15.4761 10.6029 14.8277 11.7338 14.5046L12.692 14.2309C13.2281 14.0777 13.7828 14 14.3403 14H15.891C16.2959 14 16.6999 14.041 17.0966 14.1224Z" stroke="white" stroke-width="1.5"/>
<defs>
<pattern id="pattern0_82_136" patternUnits="userSpaceOnUse" patternTransform="matrix(12 0 0 12 0 0)" preserveAspectRatio="none" viewBox="0 0 12 12" width="1" height="1">
<g id="pattern0_82_136_inner">
<rect y="2" width="3" height="1" fill="#D9D9D9"/>
<rect y="8" width="3" height="1" fill="#D9D9D9"/>
<rect x="6" y="2" width="3" height="1" fill="#D9D9D9"/>
<rect x="6" y="8" width="3" height="1" fill="#D9D9D9"/>
<rect x="5" y="3" width="3" height="1" transform="rotate(180 5 3)" fill="#D9D9D9"/>
<rect x="5" y="9" width="3" height="1" transform="rotate(180 5 9)" fill="#D9D9D9"/>
<rect x="11" y="3" width="3" height="1" transform="rotate(180 11 3)" fill="#D9D9D9"/>
<rect x="11" y="9" width="3" height="1" transform="rotate(180 11 9)" fill="#D9D9D9"/>
<rect x="2" width="1" height="2" fill="#D9D9D9"/>
<rect x="2" y="6" width="1" height="2" fill="#D9D9D9"/>
<rect x="8" width="1" height="2" fill="#D9D9D9"/>
<rect x="8" y="6" width="1" height="2" fill="#D9D9D9"/>
<rect x="3" y="5" width="1" height="2" transform="rotate(180 3 5)" fill="#D9D9D9"/>
<rect x="3" y="11" width="1" height="2" transform="rotate(180 3 11)" fill="#D9D9D9"/>
<rect x="9" y="5" width="1" height="2" transform="rotate(180 9 5)" fill="#D9D9D9"/>
<rect x="9" y="11" width="1" height="2" transform="rotate(180 9 11)" fill="#D9D9D9"/>
</g>
</pattern></defs>
</svg>
