<svg width="60" height="60" viewBox="0 0 60 60" fill="none" xmlns="http://www.w3.org/2000/svg" xmlns:xlink="http://www.w3.org/1999/xlink">
<rect width="60" height="60" fill="url(#pattern0_176_63)" fill-opacity="0.1"/>
<path fill-rule="evenodd" clip-rule="evenodd" d="M39.483 19.6732C36.5428 18.4368 33.1383 16.9664 29.8958 17.0006C26.4673 17.1348 21.5317 17.9225 19.1342 20.4962C18.0136 21.6993 16.9772 25.3904 18.4789 26.7524C18.9188 27.1514 20.2701 27.0919 20.8902 27.1743C22.4795 27.3857 24.0048 27.8056 25.4258 28.5547C26.1415 28.9381 27.2288 29.775 28.0295 28.8899C28.2788 28.6144 28.414 28.2264 28.5846 27.9001C29.4762 25.7863 31.1433 25.9301 33.0836 26.1258C34.3132 26.2497 35.5413 26.3877 36.7674 26.5424C37.4947 26.6324 38.2875 26.7438 38.869 27.23C39.2086 27.5138 39.4561 27.93 39.6734 28.3144C39.9659 28.8315 40.5517 28.928 41.066 29.1514C42.1418 29.6185 43.1176 30.4811 43.1992 31.7231C43.2615 32.632 42.9324 33.6427 42.3322 34.3255C41.842 34.8827 41.1483 35.2194 40.4075 35.2599C38.8327 35.3575 38.0522 34.5368 36.629 34.2653C34.5123 33.8665 32.3893 33.4894 30.2784 33.0597C28.8771 32.7744 28.2738 33.9815 26.9508 34.0433C26.4578 34.0664 25.8309 33.9474 25.3531 33.8066C22.6792 33.0183 19.9095 32.5409 17.2926 31.5664C15.0699 30.7409 13.7964 28.5833 13.4686 26.3201C13.4512 25.9683 13.4994 25.3613 13.1737 25.1213C12.4679 24.6013 11.2768 24.4273 10.4141 24.4743C8.15747 24.5974 6.2598 26.6019 5.12986 28.4305C3.95651 30.4657 3.71862 32.5484 4.31596 34.8011C5.34381 38.6776 8.34936 41.6481 12.4282 41.9895C13.1715 42.0518 13.862 42.046 14.6106 42.046L43.1827 42.0454C45.1621 42.0463 46.8888 42.0955 48.8266 41.5558C51.2223 40.8887 53.1595 39.5782 54.4021 37.3962C55.6612 35.1968 55.9971 32.5879 55.3357 30.1414C54.701 27.8632 53.18 25.9343 51.1129 24.7855C50.3657 24.3648 49.2948 23.9195 48.4947 23.5654C45.4978 22.2512 42.4994 20.9423 39.483 19.6732Z" stroke="white" stroke-width="1.5"/>
<defs>
<pattern id="pattern0_176_63" patternUnits="userSpaceOnUse" patternTransform="matrix(12 0 0 12 0 0)" preserveAspectRatio="none" viewBox="0 0 12 12" width="1" height="1">
<g id="pattern0_176_63_inner">
<rect y="2" width="3" height="1" fill="#D9D9D9"/>
<rect y="8" width="3" height="1" fill="#D9D9D9"/>
<rect x="6" y="2" width="3" height="1" fill="#D9D9D9"/>
<rect x="6" y="8" width="3" height="1" fill="#D9D9D9"/>
<rect x="5" y="3" width="3" height="1" transform="rotate(180 5 3)" fill="#D9D9D9"/>
<rect x="5" y="9" width="3" height="1" transform="rotate(180 5 9)" fill="#D9D9D9"/>
<rect x="11" y="3" width="3" height="1" transform="rotate(180 11 3)" fill="#D9D9D9"/>
<rect x="11" y="9" width="3" height="1" transform="rotate(180 11 9)" fill="#D9D9D9"/>
<rect x="2" width="1" height="2" fill="#D9D9D9"/>
<rect x="2" y="6" width="1" height="2" fill="#D9D9D9"/>
<rect x="8" width="1" height="2" fill="#D9D9D9"/>
<rect x="8" y="6" width="1" height="2" fill="#D9D9D9"/>
<rect x="3" y="5" width="1" height="2" transform="rotate(180 3 5)" fill="#D9D9D9"/>
<rect x="3" y="11" width="1" height="2" transform="rotate(180 3 11)" fill="#D9D9D9"/>
<rect x="9" y="5" width="1" height="2" transform="rotate(180 9 5)" fill="#D9D9D9"/>
<rect x="9" y="11" width="1" height="2" transform="rotate(180 9 11)" fill="#D9D9D9"/>
</g>
</pattern></defs>
</svg>
