<svg width="60" height="60" viewBox="0 0 60 60" fill="none" xmlns="http://www.w3.org/2000/svg" xmlns:xlink="http://www.w3.org/1999/xlink">
<rect width="60" height="60" fill="url(#pattern0_2021_479)" fill-opacity="0.1"/>
<path fill-rule="evenodd" clip-rule="evenodd" d="M40.0965 18.933C43.1707 20.227 46.2259 21.5633 49.2782 22.9078C50.1418 23.2922 51.0583 23.6742 51.8648 24.1587C52.8385 24.7453 53.7134 25.4822 54.4573 26.3421C56.3071 28.5172 57.2084 31.343 56.9593 34.1875C56.7359 37.0117 55.4319 39.7874 53.2593 41.6309C50.9089 43.6253 47.8027 44.3639 44.7778 44.3932C34.7609 44.487 24.7395 44.3953 14.7222 44.3954C13.8331 44.3954 12.9365 44.4168 12.0515 44.3443C9.18503 44.1099 6.66041 42.8609 4.79976 40.66C2.78902 38.3105 1.79458 35.2581 2.03542 32.1751C2.27288 29.8881 3.21824 28.0374 4.77513 26.3653C6.22969 24.8031 7.91019 23.5364 10.1237 23.4629C10.9706 23.4348 11.8231 23.5776 12.6258 23.8336C13.7069 24.1784 14.5289 24.8177 14.7174 25.9853C14.7706 26.3149 14.7592 26.7298 14.8177 27.0238C15.1332 28.6116 16.0328 30.1317 17.608 30.7055C19.6309 31.4423 21.7489 31.8985 23.8335 32.4227C24.6285 32.6226 25.6267 32.977 26.4327 33.0456C26.642 33.0633 27.0787 32.8399 27.2586 32.7304C28.2432 32.131 29.0715 31.8627 30.2334 32.0834C30.7619 32.1837 31.2973 32.2901 31.834 32.3967L31.8343 32.3968L31.8347 32.3968C32.7858 32.5858 33.7375 32.7701 34.6926 32.9381L34.693 32.9381C35.8119 33.1349 37.0283 33.2631 38.0771 33.7328C38.8898 34.0966 40.0152 34.6647 40.7487 33.8573C41.0289 33.549 41.2135 32.9804 41.1784 32.5672C41.0809 31.5944 39.9037 31.3505 39.1739 31.0084C38.7103 30.791 38.2831 30.4855 38.0059 30.049C37.8192 29.7546 37.7104 29.4218 37.4301 29.1956C37.2821 29.0761 37.0751 29.0268 36.8925 28.9833L36.8907 28.9829C35.3225 28.7164 33.7208 28.5818 32.1382 28.4247C31.7016 28.3813 31.2676 28.3382 30.8253 28.368C30.0586 28.4196 29.8364 29.1078 29.5516 29.6978C29.3927 30.0275 29.2102 30.3341 28.9822 30.6181C28.4421 31.2636 27.9226 31.5184 27.1042 31.6029C26 31.7567 25.1529 31.1868 24.2271 30.6834C22.8003 29.9075 21.2557 29.5763 19.6453 29.4398C18.7361 29.3627 17.8265 29.3846 17.0869 28.7517C15.999 27.8295 15.9037 26.4783 15.7816 25.153C15.659 23.822 16.6031 21.1178 17.4631 20.1306C18.7295 18.7151 20.6136 18.1138 22.3141 17.4554C24.5104 16.605 26.463 16.1915 28.8028 16.0268C32.7436 15.7675 36.5447 17.4379 40.0965 18.933ZM39.133 20.3469C36.1927 19.1106 32.7883 17.6402 29.5458 17.6743C26.1172 17.8086 21.1817 18.5962 18.7842 21.17C17.6635 22.3731 16.6272 26.0641 18.1289 27.4262C18.5687 27.8252 19.92 27.7656 20.5401 27.8481C22.1294 28.0594 23.6547 28.4794 25.0757 29.2284C25.7915 29.6118 26.8787 30.4487 27.6794 29.5637C27.9287 29.2881 28.064 28.9002 28.2346 28.5739C29.1262 26.4601 30.7933 26.6038 32.7335 26.7995C33.9632 26.9234 35.1912 27.0615 36.4173 27.2162C37.1447 27.3062 37.9374 27.4176 38.519 27.9037C38.8585 28.1875 39.1061 28.6037 39.3233 28.9881C39.6158 29.5053 40.2017 29.6017 40.716 29.8251C41.7917 30.2922 42.7675 31.1548 42.8491 32.3968C42.9115 33.3057 42.5823 34.3165 41.9821 34.9993C41.4919 35.5564 40.7982 35.8932 40.0574 35.9337C38.4826 36.0313 37.7021 35.2105 36.2789 34.9391C34.1623 34.5402 32.0392 34.1631 29.9284 33.7334C28.5271 33.4482 27.9237 34.6552 26.6008 34.7171C26.1078 34.7401 25.4809 34.6212 25.003 34.4803C22.3292 33.6921 19.5595 33.2146 16.9426 32.2402C14.7198 31.4146 13.4464 29.257 13.1186 26.9938C13.1012 26.6421 13.1494 26.035 12.8236 25.795C12.1179 25.275 10.9267 25.101 10.064 25.1481C7.80742 25.2712 5.90975 27.2757 4.7798 29.1043C3.60646 31.1395 3.36857 33.2221 3.96591 35.4748C4.99376 39.3513 7.99931 42.3218 12.0781 42.6632C12.8215 42.7255 13.512 42.7197 14.2606 42.7197L42.8326 42.7191C44.812 42.7201 46.5387 42.7693 48.4766 42.2296C50.8722 41.5624 52.8095 40.252 54.0521 38.0699C55.3112 35.8705 55.647 33.2616 54.9857 30.8151C54.3509 28.537 52.8299 26.608 50.7628 25.4593C50.0156 25.0386 48.9448 24.5933 48.1447 24.2392C45.1478 22.925 42.1493 21.616 39.133 20.3469Z" fill="white"/>
<defs>
<pattern id="pattern0_2021_479" patternUnits="userSpaceOnUse" patternTransform="matrix(12 0 0 12 0 0)" preserveAspectRatio="none" viewBox="0 0 12 12" width="1" height="1">
<g id="pattern0_2021_479_inner">
<rect y="2" width="3" height="1" fill="#D9D9D9"/>
<rect y="8" width="3" height="1" fill="#D9D9D9"/>
<rect x="6" y="2" width="3" height="1" fill="#D9D9D9"/>
<rect x="6" y="8" width="3" height="1" fill="#D9D9D9"/>
<rect x="5" y="3" width="3" height="1" transform="rotate(180 5 3)" fill="#D9D9D9"/>
<rect x="5" y="9" width="3" height="1" transform="rotate(180 5 9)" fill="#D9D9D9"/>
<rect x="11" y="3" width="3" height="1" transform="rotate(180 11 3)" fill="#D9D9D9"/>
<rect x="11" y="9" width="3" height="1" transform="rotate(180 11 9)" fill="#D9D9D9"/>
<rect x="2" width="1" height="2" fill="#D9D9D9"/>
<rect x="2" y="6" width="1" height="2" fill="#D9D9D9"/>
<rect x="8" width="1" height="2" fill="#D9D9D9"/>
<rect x="8" y="6" width="1" height="2" fill="#D9D9D9"/>
<rect x="3" y="5" width="1" height="2" transform="rotate(180 3 5)" fill="#D9D9D9"/>
<rect x="3" y="11" width="1" height="2" transform="rotate(180 3 11)" fill="#D9D9D9"/>
<rect x="9" y="5" width="1" height="2" transform="rotate(180 9 5)" fill="#D9D9D9"/>
<rect x="9" y="11" width="1" height="2" transform="rotate(180 9 11)" fill="#D9D9D9"/>
</g>
</pattern></defs>
</svg>
