<svg width="60" height="60" viewBox="0 0 60 60" fill="none" xmlns="http://www.w3.org/2000/svg" xmlns:xlink="http://www.w3.org/1999/xlink">
<rect width="60" height="60" fill="url(#pattern0_231_13)" fill-opacity="0.1"/>
<path d="M16.6152 43.7255C17.9632 43.6358 19.3031 43.4458 20.6507 43.3499C21.0641 43.3205 21.4802 43.33 21.8942 43.3499C22.2945 43.3692 22.6968 43.3934 23.0907 43.4673C23.4508 43.5348 23.8051 43.6396 24.1465 43.7725C24.5116 43.9145 24.8599 44.0986 25.2023 44.2889C25.4944 44.4513 25.7464 44.6829 26.047 44.8288C26.2829 44.9434 26.5358 45.0089 26.7978 44.999C26.9868 44.9919 27.1595 44.8539 27.2905 44.7173C27.9012 44.0803 28.385 43.4772 28.9035 42.7631C28.9972 42.6339 29.021 42.4514 28.9973 42.2936C28.9714 42.1205 28.9357 41.9829 28.8624 41.8241C28.6072 41.2708 28.3357 40.724 28.1116 40.1574C28.053 40.009 27.9857 39.8442 28.0178 39.6879C28.0531 39.5156 28.1611 39.3504 28.2993 39.2418C29.5151 38.2871 30.8002 37.424 32.0533 36.5188C35.4144 34.0906 38.812 31.7125 42.142 29.2416C43.4742 28.2531 44.7716 27.2162 46.0367 26.143C48.5265 24.0307 51.0261 21.9501 53.3745 19.6815C54.554 18.5421 55.6428 17.4925 56.7589 16.2718C56.9128 16.1035 57.0088 15.8483 56.9994 15.6204C56.9913 15.4273 56.8684 15.2519 56.7237 15.1333C56.5217 14.9678 56.2606 14.9792 56.0081 15.0453C55.7143 15.1222 55.4859 15.3141 55.2632 15.5206C53.2309 17.4057 51.3627 19.3127 49.3448 21.2133C48.6955 21.8248 48.0293 22.4186 47.3506 22.9973C45.9643 24.1795 44.5827 25.3687 43.1508 26.4951C41.2892 27.9595 39.4262 29.4277 37.473 30.7675C36.1135 31.7001 34.6558 32.4814 33.2264 33.3027C32.7077 33.6008 32.1605 33.867 31.6075 34.095C30.7339 34.4552 29.8625 34.796 28.9563 35.0633C28.0302 35.3366 27.0933 35.586 26.1408 35.7441C25.2502 35.892 24.3454 35.9684 23.4427 35.9789C22.3231 35.9919 21.2003 35.9398 20.0876 35.8145C18.6937 35.6576 17.3177 35.3688 15.9348 35.1338C14.0486 34.8132 12.1716 34.4377 10.2804 34.1478C9.46429 34.0227 8.64191 33.9229 7.81692 33.8896C6.89469 33.8524 5.96733 33.8504 5.04839 33.9366C4.70605 33.9687 4.36775 34.0824 4.06298 34.2417C3.83214 34.3624 3.63957 34.555 3.47643 34.7582C3.28319 34.9988 3.13366 35.342 3.07171 35.6443C3.02174 35.8882 2.97705 36.2059 3.01305 36.4542C3.19694 37.7224 3.35348 38.8437 3.66413 40.0869C3.77795 40.5425 3.9726 40.9836 4.22722 41.378C4.4644 41.7455 4.76902 42.0781 5.11878 42.3405C5.59217 42.6957 6.1287 42.9638 6.66727 43.2091C7.26629 43.4819 7.87784 43.7491 8.52078 43.8898C9.14132 44.0257 9.76267 43.9966 10.3977 43.9837C12.4645 43.9418 14.5526 43.8628 16.6152 43.7255Z" stroke="white" stroke-width="1.5"/>
<defs>
<pattern id="pattern0_231_13" patternUnits="userSpaceOnUse" patternTransform="matrix(12 0 0 12 0 0)" preserveAspectRatio="none" viewBox="0 0 12 12" width="1" height="1">
<g id="pattern0_231_13_inner">
<rect y="2" width="3" height="1" fill="#D9D9D9"/>
<rect y="8" width="3" height="1" fill="#D9D9D9"/>
<rect x="6" y="2" width="3" height="1" fill="#D9D9D9"/>
<rect x="6" y="8" width="3" height="1" fill="#D9D9D9"/>
<rect x="5" y="3" width="3" height="1" transform="rotate(180 5 3)" fill="#D9D9D9"/>
<rect x="5" y="9" width="3" height="1" transform="rotate(180 5 9)" fill="#D9D9D9"/>
<rect x="11" y="3" width="3" height="1" transform="rotate(180 11 3)" fill="#D9D9D9"/>
<rect x="11" y="9" width="3" height="1" transform="rotate(180 11 9)" fill="#D9D9D9"/>
<rect x="2" width="1" height="2" fill="#D9D9D9"/>
<rect x="2" y="6" width="1" height="2" fill="#D9D9D9"/>
<rect x="8" width="1" height="2" fill="#D9D9D9"/>
<rect x="8" y="6" width="1" height="2" fill="#D9D9D9"/>
<rect x="3" y="5" width="1" height="2" transform="rotate(180 3 5)" fill="#D9D9D9"/>
<rect x="3" y="11" width="1" height="2" transform="rotate(180 3 11)" fill="#D9D9D9"/>
<rect x="9" y="5" width="1" height="2" transform="rotate(180 9 5)" fill="#D9D9D9"/>
<rect x="9" y="11" width="1" height="2" transform="rotate(180 9 11)" fill="#D9D9D9"/>
</g>
</pattern></defs>
</svg>
