<svg width="60" height="60" viewBox="0 0 60 60" fill="none" xmlns="http://www.w3.org/2000/svg" xmlns:xlink="http://www.w3.org/1999/xlink">
<rect width="60" height="60" fill="url(#pattern0_176_55)" fill-opacity="0.1"/>
<path d="M48.8335 31.4431L8.84866 55.9251C7.95096 56.4748 6.80931 56.4237 5.9643 55.796C4.77658 54.9138 4.57304 53.2153 5.5187 52.0774L6.25011 51.1974C6.72454 50.6265 7.36125 50.2133 8.07584 50.0124L17.3448 47.4074C18.923 46.9639 20.3194 46.03 21.332 44.7407L22.0386 43.841C22.5671 43.1681 23.2914 42.6758 24.1117 42.432L24.6961 42.2583C27.8086 41.3331 29.5581 38.0357 28.579 34.9397L27.7748 32.3967C27.3829 31.1577 28.4556 29.9449 29.7373 30.1594C30.7313 30.3257 31.6646 29.6043 31.7399 28.5993C31.7573 28.3666 31.727 28.1329 31.6509 27.9124L31.1645 26.5029C30.5855 24.8252 30.5344 23.0104 31.0183 21.3029C31.6119 19.2079 32.971 17.4123 34.8261 16.2722L38.91 13.7625C39.7549 13.2432 40.8595 13.49 41.403 14.3195C41.8374 14.9823 41.7966 15.8493 41.302 16.4685L39.716 18.4535C38.3903 20.1129 37.5895 22.1299 37.416 24.2468L37.0663 28.5156C36.8556 31.0872 39.6342 32.8257 41.8547 31.5115C43.8811 30.3122 45.0118 28.0324 44.7402 25.6934L44.2929 21.8412C44.1437 20.5565 44.5299 19.2671 45.3606 18.2759C47.0708 16.2353 47.0304 13.2504 45.2655 11.2569L42.2191 7.81579C41.4623 6.96086 41.523 5.65892 42.3561 4.87813C43.3356 3.96024 44.9118 4.17841 45.6051 5.32782L55.4093 21.582C56.5391 23.4552 55.2435 25.8533 53.0575 25.935C51.5386 25.9918 50.327 27.2221 50.2937 28.7417L50.29 28.9093C50.2672 29.9466 49.7185 30.9013 48.8335 31.4431Z" stroke="white" stroke-width="1.5"/>
<defs>
<pattern id="pattern0_176_55" patternUnits="userSpaceOnUse" patternTransform="matrix(12 0 0 12 0 0)" preserveAspectRatio="none" viewBox="0 0 12 12" width="1" height="1">
<g id="pattern0_176_55_inner">
<rect y="2" width="3" height="1" fill="#D9D9D9"/>
<rect y="8" width="3" height="1" fill="#D9D9D9"/>
<rect x="6" y="2" width="3" height="1" fill="#D9D9D9"/>
<rect x="6" y="8" width="3" height="1" fill="#D9D9D9"/>
<rect x="5" y="3" width="3" height="1" transform="rotate(180 5 3)" fill="#D9D9D9"/>
<rect x="5" y="9" width="3" height="1" transform="rotate(180 5 9)" fill="#D9D9D9"/>
<rect x="11" y="3" width="3" height="1" transform="rotate(180 11 3)" fill="#D9D9D9"/>
<rect x="11" y="9" width="3" height="1" transform="rotate(180 11 9)" fill="#D9D9D9"/>
<rect x="2" width="1" height="2" fill="#D9D9D9"/>
<rect x="2" y="6" width="1" height="2" fill="#D9D9D9"/>
<rect x="8" width="1" height="2" fill="#D9D9D9"/>
<rect x="8" y="6" width="1" height="2" fill="#D9D9D9"/>
<rect x="3" y="5" width="1" height="2" transform="rotate(180 3 5)" fill="#D9D9D9"/>
<rect x="3" y="11" width="1" height="2" transform="rotate(180 3 11)" fill="#D9D9D9"/>
<rect x="9" y="5" width="1" height="2" transform="rotate(180 9 5)" fill="#D9D9D9"/>
<rect x="9" y="11" width="1" height="2" transform="rotate(180 9 11)" fill="#D9D9D9"/>
</g>
</pattern></defs>
</svg>
