<svg width="60" height="60" viewBox="0 0 60 60" fill="none" xmlns="http://www.w3.org/2000/svg" xmlns:xlink="http://www.w3.org/1999/xlink">
<rect width="60" height="60" fill="url(#pattern0_229_1503)" fill-opacity="0.1"/>
<path d="M3.67472 24.7955V20.8182H19.4773V24.7955H14.0085V39H9.14347V24.7955H3.67472ZM21.335 39V20.8182H29.2185C30.6034 20.8182 31.7664 21.0046 32.7075 21.3775C33.6544 21.7504 34.3676 22.2771 34.847 22.9577C35.3324 23.6384 35.575 24.4403 35.575 25.3636C35.575 26.0324 35.4271 26.642 35.1311 27.1925C34.8411 27.7429 34.4327 28.2045 33.906 28.5774C33.3792 28.9444 32.7637 29.1989 32.0594 29.3409V29.5185C32.8406 29.5481 33.5509 29.7463 34.1901 30.1133C34.8293 30.4743 35.3383 30.9744 35.7171 31.6136C36.0959 32.2469 36.2852 32.9927 36.2852 33.8509C36.2852 34.8452 36.0248 35.73 35.504 36.5053C34.9891 37.2807 34.2552 37.8903 33.3023 38.3342C32.3494 38.7781 31.213 39 29.8932 39H21.335ZM26.271 35.0582H28.5793C29.4079 35.0582 30.0293 34.9044 30.4436 34.5966C30.8579 34.2829 31.0651 33.8213 31.0651 33.2116C31.0651 32.7855 30.9674 32.4245 30.7721 32.1286C30.5768 31.8326 30.2986 31.6077 29.9376 31.4538C29.5825 31.3 29.1534 31.223 28.6503 31.223H26.271V35.0582ZM26.271 28.169H28.2952C28.7272 28.169 29.109 28.101 29.4404 27.9648C29.7719 27.8287 30.0293 27.6334 30.2128 27.3789C30.4022 27.1185 30.4969 26.8018 30.4969 26.429C30.4969 25.8667 30.2957 25.4376 29.8932 25.1417C29.4907 24.8398 28.9817 24.6889 28.3662 24.6889H26.271V28.169ZM55.0086 27.6364H50.0015C49.966 27.2221 49.8713 26.8462 49.7174 26.5089C49.5695 26.1715 49.3623 25.8815 49.096 25.6388C48.8356 25.3903 48.5189 25.2009 48.146 25.0707C47.7732 24.9345 47.35 24.8665 46.8765 24.8665C46.0479 24.8665 45.3466 25.0677 44.7725 25.4702C44.2043 25.8726 43.7722 26.4497 43.4763 27.2013C43.1863 27.953 43.0413 28.8556 43.0413 29.9091C43.0413 31.0218 43.1892 31.954 43.4852 32.7056C43.787 33.4513 44.222 34.0136 44.7902 34.3924C45.3584 34.7653 46.042 34.9517 46.841 34.9517C47.2967 34.9517 47.7051 34.8955 48.0661 34.783C48.4272 34.6647 48.7409 34.496 49.0072 34.277C49.2735 34.058 49.4896 33.7946 49.6553 33.4869C49.8269 33.1732 49.9423 32.821 50.0015 32.4304L55.0086 32.4659C54.9494 33.2353 54.7334 34.0195 54.3605 34.8185C53.9877 35.6116 53.4579 36.3455 52.7714 37.0202C52.0908 37.689 51.2474 38.2276 50.2412 38.636C49.2351 39.0444 48.0661 39.2486 46.7345 39.2486C45.0654 39.2486 43.568 38.8905 42.2423 38.1744C40.9224 37.4582 39.8778 36.4047 39.1084 35.0138C38.3449 33.623 37.9632 31.9214 37.9632 29.9091C37.9632 27.8849 38.3538 26.1804 39.135 24.7955C39.9163 23.4046 40.9698 22.354 42.2955 21.6438C43.6213 20.9277 45.1009 20.5696 46.7345 20.5696C47.8827 20.5696 48.9391 20.7264 49.9039 21.0401C50.8686 21.3538 51.7149 21.8125 52.4429 22.4162C53.1709 23.014 53.7568 23.7508 54.2007 24.6268C54.6446 25.5027 54.9139 26.5059 55.0086 27.6364Z" fill="white"/>
<defs>
<pattern id="pattern0_229_1503" patternUnits="userSpaceOnUse" patternTransform="matrix(12 0 0 12 0 0)" preserveAspectRatio="none" viewBox="0 0 12 12" width="1" height="1">
<g id="pattern0_229_1503_inner">
<rect y="2" width="3" height="1" fill="#D9D9D9"/>
<rect y="8" width="3" height="1" fill="#D9D9D9"/>
<rect x="6" y="2" width="3" height="1" fill="#D9D9D9"/>
<rect x="6" y="8" width="3" height="1" fill="#D9D9D9"/>
<rect x="5" y="3" width="3" height="1" transform="rotate(180 5 3)" fill="#D9D9D9"/>
<rect x="5" y="9" width="3" height="1" transform="rotate(180 5 9)" fill="#D9D9D9"/>
<rect x="11" y="3" width="3" height="1" transform="rotate(180 11 3)" fill="#D9D9D9"/>
<rect x="11" y="9" width="3" height="1" transform="rotate(180 11 9)" fill="#D9D9D9"/>
<rect x="2" width="1" height="2" fill="#D9D9D9"/>
<rect x="2" y="6" width="1" height="2" fill="#D9D9D9"/>
<rect x="8" width="1" height="2" fill="#D9D9D9"/>
<rect x="8" y="6" width="1" height="2" fill="#D9D9D9"/>
<rect x="3" y="5" width="1" height="2" transform="rotate(180 3 5)" fill="#D9D9D9"/>
<rect x="3" y="11" width="1" height="2" transform="rotate(180 3 11)" fill="#D9D9D9"/>
<rect x="9" y="5" width="1" height="2" transform="rotate(180 9 5)" fill="#D9D9D9"/>
<rect x="9" y="11" width="1" height="2" transform="rotate(180 9 11)" fill="#D9D9D9"/>
</g>
</pattern></defs>
</svg>
