<svg width="60" height="60" viewBox="0 0 60 60" fill="none" xmlns="http://www.w3.org/2000/svg" xmlns:xlink="http://www.w3.org/1999/xlink">
<rect width="60" height="60" fill="url(#pattern0_229_1502)" fill-opacity="0.1"/>
<path d="M4.67472 24.7955V20.8182H20.4773V24.7955H15.0085V39H10.1435V24.7955H4.67472ZM22.335 39V20.8182H30.2185C31.6034 20.8182 32.7664 21.0046 33.7075 21.3775C34.6544 21.7504 35.3676 22.2771 35.847 22.9577C36.3324 23.6384 36.575 24.4403 36.575 25.3636C36.575 26.0324 36.4271 26.642 36.1311 27.1925C35.8411 27.7429 35.4327 28.2045 34.906 28.5774C34.3792 28.9444 33.7637 29.1989 33.0594 29.3409V29.5185C33.8406 29.5481 34.5509 29.7463 35.1901 30.1133C35.8293 30.4743 36.3383 30.9744 36.7171 31.6136C37.0959 32.2469 37.2852 32.9927 37.2852 33.8509C37.2852 34.8452 37.0248 35.73 36.504 36.5053C35.9891 37.2807 35.2552 37.8903 34.3023 38.3342C33.3494 38.7781 32.213 39 30.8932 39H22.335ZM27.271 35.0582H29.5793C30.4079 35.0582 31.0293 34.9044 31.4436 34.5966C31.8579 34.2829 32.0651 33.8213 32.0651 33.2116C32.0651 32.7855 31.9674 32.4245 31.7721 32.1286C31.5768 31.8326 31.2986 31.6077 30.9376 31.4538C30.5825 31.3 30.1534 31.223 29.6503 31.223H27.271V35.0582ZM27.271 28.169H29.2952C29.7272 28.169 30.109 28.101 30.4404 27.9648C30.7719 27.8287 31.0293 27.6334 31.2128 27.3789C31.4022 27.1185 31.4969 26.8018 31.4969 26.429C31.4969 25.8667 31.2957 25.4376 30.8932 25.1417C30.4907 24.8398 29.9817 24.6889 29.3662 24.6889H27.271V28.169ZM46.0299 39H39.0342V20.8182H45.9589C47.8292 20.8182 49.4449 21.1822 50.8062 21.9102C52.1734 22.6322 53.2269 23.6739 53.9667 25.0352C54.7124 26.3905 55.0853 28.0152 55.0853 29.9091C55.0853 31.803 54.7154 33.4306 53.9756 34.7919C53.2358 36.1473 52.1882 37.1889 50.8328 37.9169C49.4775 38.639 47.8765 39 46.0299 39ZM43.9703 34.8097H45.8524C46.752 34.8097 47.5184 34.6647 48.1517 34.3746C48.7909 34.0846 49.2762 33.5845 49.6077 32.8743C49.945 32.1641 50.1137 31.1757 50.1137 29.9091C50.1137 28.6425 49.9421 27.6541 49.5988 26.9439C49.2615 26.2337 48.7643 25.7335 48.1073 25.4435C47.4563 25.1535 46.6573 25.0085 45.7103 25.0085H43.9703V34.8097Z" fill="white"/>
<defs>
<pattern id="pattern0_229_1502" patternUnits="userSpaceOnUse" patternTransform="matrix(12 0 0 12 0 0)" preserveAspectRatio="none" viewBox="0 0 12 12" width="1" height="1">
<g id="pattern0_229_1502_inner">
<rect y="2" width="3" height="1" fill="#D9D9D9"/>
<rect y="8" width="3" height="1" fill="#D9D9D9"/>
<rect x="6" y="2" width="3" height="1" fill="#D9D9D9"/>
<rect x="6" y="8" width="3" height="1" fill="#D9D9D9"/>
<rect x="5" y="3" width="3" height="1" transform="rotate(180 5 3)" fill="#D9D9D9"/>
<rect x="5" y="9" width="3" height="1" transform="rotate(180 5 9)" fill="#D9D9D9"/>
<rect x="11" y="3" width="3" height="1" transform="rotate(180 11 3)" fill="#D9D9D9"/>
<rect x="11" y="9" width="3" height="1" transform="rotate(180 11 9)" fill="#D9D9D9"/>
<rect x="2" width="1" height="2" fill="#D9D9D9"/>
<rect x="2" y="6" width="1" height="2" fill="#D9D9D9"/>
<rect x="8" width="1" height="2" fill="#D9D9D9"/>
<rect x="8" y="6" width="1" height="2" fill="#D9D9D9"/>
<rect x="3" y="5" width="1" height="2" transform="rotate(180 3 5)" fill="#D9D9D9"/>
<rect x="3" y="11" width="1" height="2" transform="rotate(180 3 11)" fill="#D9D9D9"/>
<rect x="9" y="5" width="1" height="2" transform="rotate(180 9 5)" fill="#D9D9D9"/>
<rect x="9" y="11" width="1" height="2" transform="rotate(180 9 11)" fill="#D9D9D9"/>
</g>
</pattern></defs>
</svg>
