<svg width="60" height="60" viewBox="0 0 60 60" fill="none" xmlns="http://www.w3.org/2000/svg" xmlns:xlink="http://www.w3.org/1999/xlink">
<rect width="60" height="60" fill="url(#pattern0_231_11)" fill-opacity="0.1"/>
<path d="M4.60327 40.8374C4.45985 40.5125 4.30159 40.1933 4.17618 39.8614C3.9012 39.1338 3.63251 38.4011 3.40209 37.6589C3.27216 37.2405 3.16705 36.8108 3.09512 36.3796C3.03359 36.0107 2.9908 35.6312 3.0017 35.2586C3.01304 34.8706 3.06717 34.4746 3.16185 34.098C3.24957 33.7492 3.35964 33.3878 3.5489 33.0825C3.88016 32.5481 4.2831 32.0347 4.72339 31.579C5.2218 31.0631 5.79213 30.6054 6.365 30.1678C6.94883 29.7218 7.60309 29.3662 8.19346 28.9281C8.67525 28.5705 9.14645 28.1913 9.58149 27.7807C9.94279 27.4396 10.2838 27.0683 10.5825 26.6728C10.9378 26.2022 11.2492 25.6937 11.5434 25.1825C11.783 24.7661 12.0004 24.333 12.184 23.89C12.383 23.4098 12.5591 22.915 12.6912 22.4129C12.8483 21.8159 12.9596 21.2036 13.0516 20.5929C13.1331 20.0518 13.1281 19.498 13.2117 18.9575C13.2927 18.4341 13.3791 17.8996 13.5454 17.4012C13.6416 17.1127 13.7921 16.8063 13.9992 16.5967C14.1569 16.437 14.4111 16.3053 14.6398 16.2934C15.1674 16.2658 15.7234 16.4537 16.2681 16.478C16.9068 16.5065 17.5815 16.5556 18.1899 16.4516C18.4046 16.4149 18.6144 16.2407 18.7371 16.056C19.4642 14.9614 20.0061 13.709 20.7391 12.6137C20.927 12.333 21.1848 12.0291 21.4999 11.9279C22.2937 11.673 23.2068 11.6284 24.0656 11.5455C24.5726 11.4965 25.0912 11.4798 25.5972 11.5323C26.5315 11.6292 27.4756 11.7661 28.3866 11.9939C29.3219 12.2277 30.2415 12.5563 31.136 12.9171C31.9855 13.2597 32.8136 13.6682 33.6184 14.1041C34.2505 14.4464 34.8623 14.8361 35.4469 15.2515C35.7966 15.4999 36.0642 15.8626 36.4212 16.0955C36.7715 16.3242 37.1704 16.5021 37.569 16.6363C37.9801 16.7747 38.4189 16.8468 38.8502 16.9132C39.3887 16.9962 39.9372 17.0918 40.4785 17.0847C40.9427 17.0786 41.4207 17.0022 41.8665 16.8737C42.3505 16.7341 42.8119 16.5009 43.2679 16.2802C43.9108 15.969 44.5077 15.5591 45.1631 15.2778C45.9314 14.9481 46.7302 14.6564 47.5387 14.447C48.1049 14.3003 48.7026 14.2223 49.2871 14.2096C49.9127 14.1959 50.5507 14.2656 51.169 14.3678C51.6407 14.4458 52.1194 14.5641 52.557 14.7503C53.0492 14.9597 53.5168 15.2514 53.9584 15.5548C54.2909 15.7833 54.6115 16.0477 54.8793 16.3461C55.1676 16.6675 55.416 17.0369 55.6267 17.4144C55.892 17.8897 56.1266 18.3924 56.3073 18.9047C56.4647 19.3508 56.5409 19.8256 56.641 20.2895C56.7411 20.7532 56.8555 21.2173 56.9079 21.6875C56.9712 22.2548 56.9767 22.8302 56.988 23.402C56.999 23.9557 57.0135 24.5122 56.9747 25.0638C56.9334 25.6508 56.8568 26.2392 56.7478 26.8179C56.6166 27.5141 56.4976 28.2255 56.254 28.8885C55.937 29.751 55.5035 30.5803 55.0661 31.3943C54.3602 32.7081 53.6022 33.998 52.8239 35.2718C52.321 36.095 51.8087 36.9214 51.2224 37.6853C50.8166 38.2139 50.3605 38.7308 49.8477 39.1493C49.493 39.4386 49.0453 39.6246 48.6198 39.8087C48.0799 40.0423 47.519 40.2474 46.9515 40.4022C46.5358 40.5156 46.1004 40.5778 45.6702 40.6132C45.1929 40.6525 44.7082 40.6493 44.2288 40.6264C43.5115 40.5921 42.7977 40.4791 42.0801 40.4417C41.1917 40.3955 40.2994 40.3494 39.4108 40.3758C38.2307 40.4109 37.0501 40.5157 35.874 40.6264C35.0882 40.7003 34.3 40.7848 33.525 40.9297C32.3959 41.1409 31.2679 41.3875 30.1617 41.6947C29.1147 41.9854 28.0916 42.3643 27.0653 42.7234C26.3076 42.9885 25.551 43.2611 24.8098 43.5675C24.1363 43.8458 23.4614 44.133 22.8211 44.4775C22.1623 44.832 21.5408 45.2567 20.9126 45.6644C20.1794 46.1403 19.4739 46.6584 18.7371 47.1284C18.2816 47.419 17.8251 47.7222 17.3358 47.9461C16.922 48.1354 16.4739 48.2751 16.0278 48.3681C15.5886 48.4597 15.1291 48.5 14.6798 48.5C14.2393 48.5 13.7848 48.4639 13.3585 48.3681C13.0997 48.31 12.8139 48.2073 12.6245 48.0384C12.4491 47.882 12.3995 47.5976 12.2641 47.3922C12.1504 47.2195 12.0414 46.9976 11.8771 46.9042C11.7477 46.8306 11.528 46.8353 11.3833 46.891C11.1854 46.9672 11.0465 47.2102 10.8494 47.2998C10.7084 47.364 10.5253 47.3754 10.3689 47.3526C10.1027 47.3138 9.81552 47.2493 9.58149 47.1152C9.1482 46.8669 8.74176 46.5417 8.36696 46.2052C7.91428 45.7987 7.48679 45.3541 7.09905 44.8863C6.7216 44.4309 6.40164 43.9272 6.07138 43.4356C5.71653 42.9073 5.35581 42.3789 5.0437 41.8266C4.86644 41.5128 4.74903 41.1676 4.60327 40.8374Z" stroke="white" stroke-width="1.5"/>
<defs>
<pattern id="pattern0_231_11" patternUnits="userSpaceOnUse" patternTransform="matrix(12 0 0 12 0 0)" preserveAspectRatio="none" viewBox="0 0 12 12" width="1" height="1">
<g id="pattern0_231_11_inner">
<rect y="2" width="3" height="1" fill="#D9D9D9"/>
<rect y="8" width="3" height="1" fill="#D9D9D9"/>
<rect x="6" y="2" width="3" height="1" fill="#D9D9D9"/>
<rect x="6" y="8" width="3" height="1" fill="#D9D9D9"/>
<rect x="5" y="3" width="3" height="1" transform="rotate(180 5 3)" fill="#D9D9D9"/>
<rect x="5" y="9" width="3" height="1" transform="rotate(180 5 9)" fill="#D9D9D9"/>
<rect x="11" y="3" width="3" height="1" transform="rotate(180 11 3)" fill="#D9D9D9"/>
<rect x="11" y="9" width="3" height="1" transform="rotate(180 11 9)" fill="#D9D9D9"/>
<rect x="2" width="1" height="2" fill="#D9D9D9"/>
<rect x="2" y="6" width="1" height="2" fill="#D9D9D9"/>
<rect x="8" width="1" height="2" fill="#D9D9D9"/>
<rect x="8" y="6" width="1" height="2" fill="#D9D9D9"/>
<rect x="3" y="5" width="1" height="2" transform="rotate(180 3 5)" fill="#D9D9D9"/>
<rect x="3" y="11" width="1" height="2" transform="rotate(180 3 11)" fill="#D9D9D9"/>
<rect x="9" y="5" width="1" height="2" transform="rotate(180 9 5)" fill="#D9D9D9"/>
<rect x="9" y="11" width="1" height="2" transform="rotate(180 9 11)" fill="#D9D9D9"/>
</g>
</pattern></defs>
</svg>
