<svg width="60" height="60" viewBox="0 0 60 60" fill="none" xmlns="http://www.w3.org/2000/svg" xmlns:xlink="http://www.w3.org/1999/xlink">
<rect width="60" height="60" fill="url(#pattern0_231_10)" fill-opacity="0.1"/>
<path d="M43.9397 36.4278C43.9423 36.4254 43.945 36.423 43.9477 36.4206C44.1177 36.2124 44.3551 35.8595 44.3813 35.594C44.4582 34.8082 44.4211 33.8593 44.3887 33.0317C44.2759 30.1516 44.1714 27.2637 44.1623 24.3814C44.0692 22.0572 44.0304 19.7305 43.9705 17.4053C43.943 16.2491 43.9552 15.0899 43.8497 13.9372C43.7457 13.3421 43.2177 13.1576 42.823 13.0996C42.4132 13.0393 41.9945 13.078 41.5817 13.0779C41.1029 13.0777 40.6269 13.0775 40.5122 12.4986C40.4081 11.9719 40.4435 11.3745 40.4312 10.8387C40.4149 10.1106 40.1239 8.95997 40.7045 8.39142C41.637 8.28028 42.5714 8.18036 43.5021 8.05508C43.7079 8.02738 43.9343 7.99692 44.0916 7.98752C45.5012 7.90327 46.131 7.00649 45.9774 5.64413C45.9195 5.13155 45.6802 4.79758 45.2694 4.48016C44.9755 4.25394 44.6295 4.10544 44.2636 4.04825C43.3304 3.91174 41.7354 4.32027 40.7635 4.35241C40.4827 4.36735 40.1788 4.47323 39.9364 4.56186C39.8501 4.59339 39.6596 4.76182 39.4378 4.95788C39.0086 5.3374 38.4621 5.82051 38.3276 5.61496C38.1137 5.28808 38.0909 4.84207 38.0688 4.41096C38.0293 3.63784 37.9922 2.91267 36.8598 3.00856C36.4505 3.04451 36.0468 3.13198 35.6352 3.1472C33.6374 3.22108 33.938 4.10056 34.4153 5.49704C35.5739 8.88676 36.4158 12.3922 37.1484 15.8968C37.3809 17.0091 37.6004 18.0589 37.5162 19.2158C37.4612 20.0139 37.178 20.7792 36.7006 21.4198C36.2662 22.0062 35.653 22.391 35.0544 22.788C34.242 23.327 33.4396 23.8813 32.6332 24.4293L25.6843 29.1489C23.7736 30.449 21.8503 31.7321 19.9554 33.0555C19.3254 33.4955 18.5979 34.0035 18.089 34.2958C17.6211 34.0919 17.147 33.5747 16.6043 33.8328C16.1364 34.0552 14.8231 35.0609 14.5008 35.4001C14.3364 35.5722 14.2032 35.772 14.1072 35.99C13.956 36.3367 13.9691 36.9314 14.1192 37.2815C14.294 37.6894 14.5961 38.0569 14.8287 38.4369C15.6265 39.7396 16.3284 40.6298 16.7267 42.1337C17.1002 43.5442 17.0282 44.2137 17.0615 45.5823C17.1037 47.3142 16.8735 49.3884 17.4821 51.0054C17.6689 51.5017 18.0476 52.1138 18.3521 52.606C18.7958 53.3231 19.2328 54.044 19.6858 54.7553C19.8685 55.0419 20.0945 55.3751 20.2666 55.6611C21.3573 57.4749 21.7441 57.2077 23.1154 56.2606C23.966 55.6766 24.8191 55.0969 25.658 54.496C26.4631 53.9463 27.2803 53.3414 28.0784 52.7725C30.9763 50.715 33.8108 48.5457 36.7025 46.4805C37.213 46.1203 37.807 45.7012 38.2751 45.292C38.5598 45.043 38.6499 44.689 38.7396 44.3747C38.7843 44.2178 38.7908 43.9917 38.7976 43.7532C38.8106 43.2962 38.8249 42.7939 39.1126 42.6475C39.3026 42.5509 39.5112 42.5022 39.7152 42.4546C40.1889 42.344 40.6382 42.2391 40.7738 41.5527C40.8465 41.1846 40.8519 40.6495 40.8566 40.1836C40.8672 39.1387 40.9266 38.0947 40.9513 37.05C40.9595 36.7017 40.9693 36.287 41.0427 36.0006C41.5182 36.0507 41.8295 36.2454 42.1349 36.4364C42.4031 36.6041 42.6667 36.7689 43.0329 36.8305C43.4216 36.8956 43.6375 36.7007 43.9397 36.4278ZM43.9477 36.4206L43.9397 36.4278" stroke="white" stroke-width="1.5"/>
<defs>
<pattern id="pattern0_231_10" patternUnits="userSpaceOnUse" patternTransform="matrix(12 0 0 12 0 0)" preserveAspectRatio="none" viewBox="0 0 12 12" width="1" height="1">
<g id="pattern0_231_10_inner">
<rect y="2" width="3" height="1" fill="#D9D9D9"/>
<rect y="8" width="3" height="1" fill="#D9D9D9"/>
<rect x="6" y="2" width="3" height="1" fill="#D9D9D9"/>
<rect x="6" y="8" width="3" height="1" fill="#D9D9D9"/>
<rect x="5" y="3" width="3" height="1" transform="rotate(180 5 3)" fill="#D9D9D9"/>
<rect x="5" y="9" width="3" height="1" transform="rotate(180 5 9)" fill="#D9D9D9"/>
<rect x="11" y="3" width="3" height="1" transform="rotate(180 11 3)" fill="#D9D9D9"/>
<rect x="11" y="9" width="3" height="1" transform="rotate(180 11 9)" fill="#D9D9D9"/>
<rect x="2" width="1" height="2" fill="#D9D9D9"/>
<rect x="2" y="6" width="1" height="2" fill="#D9D9D9"/>
<rect x="8" width="1" height="2" fill="#D9D9D9"/>
<rect x="8" y="6" width="1" height="2" fill="#D9D9D9"/>
<rect x="3" y="5" width="1" height="2" transform="rotate(180 3 5)" fill="#D9D9D9"/>
<rect x="3" y="11" width="1" height="2" transform="rotate(180 3 11)" fill="#D9D9D9"/>
<rect x="9" y="5" width="1" height="2" transform="rotate(180 9 5)" fill="#D9D9D9"/>
<rect x="9" y="11" width="1" height="2" transform="rotate(180 9 11)" fill="#D9D9D9"/>
</g>
</pattern></defs>
</svg>
