<svg width="60" height="60" viewBox="0 0 60 60" fill="none" xmlns="http://www.w3.org/2000/svg" xmlns:xlink="http://www.w3.org/1999/xlink">
<rect width="60" height="60" fill="url(#pattern0_231_9)" fill-opacity="0.1"/>
<path d="M51.5933 23.9047C41.9335 29.4776 32.3175 35.128 22.5874 40.5772C21.6847 41.0828 20.7119 41.4837 19.7096 41.7406C17.4742 42.3136 15.1798 42.6247 12.913 43.057C10.4603 43.5249 8.27119 43.9779 5.83315 44.4076C4.21959 44.692 2.23191 44.0956 3.30326 41.9962C3.8561 40.9129 4.47139 39.824 4.92241 38.6791C5.30527 37.7072 5.51179 36.6721 5.71841 35.6482C5.97164 34.3932 6.22312 33.1297 6.3001 31.8519C6.41826 29.8904 6.33235 27.91 6.32545 25.9568C6.32322 25.3237 6.79698 24.7507 7.25983 24.7861C7.81515 24.8286 8.70684 24.7604 9.51888 24.713C9.82193 24.6953 10.1248 24.6555 10.4214 24.591C11.6951 24.3138 12.9499 23.9524 14.2265 23.6885C14.6433 23.6023 15.0696 23.558 15.4949 23.5421C15.942 23.5254 16.3904 23.5551 16.8364 23.5909C19.0252 23.7666 21.2044 24.0735 23.3978 24.1763C23.8184 24.1961 24.254 24.1209 24.6418 23.9568C25.1174 23.7556 25.5676 23.4664 25.9346 23.1031C27.2353 21.8151 28.3057 20.3062 29.6177 19.0297C29.8298 18.8233 30.1512 18.7041 30.447 18.7126C33.0058 18.7861 35.5482 19.1718 38.1061 19.2736C38.8232 19.3021 39.5377 19.2444 40.2525 19.1794C42.1314 19.0086 43.9862 18.7884 45.887 18.5662C46.156 18.5348 46.3094 18.2019 46.4237 17.9564C46.6981 17.3667 46.6922 16.6565 47.0334 16.1027C47.2157 15.8069 47.565 15.5649 47.9115 15.5416C48.9545 15.4717 50.0055 15.6463 51.0337 15.8343C51.3556 15.8932 51.6717 16.0511 51.9118 16.2734C53.2197 17.4844 54.4885 18.7456 55.6437 20.1029C55.9879 20.5072 56.1751 21.026 56.3755 21.5176C56.6075 22.0867 56.8369 22.6674 56.9365 23.2738C57.0261 23.8194 57.016 24.3854 56.9365 24.9325C56.2102 29.9286 55.4133 34.9153 54.5217 39.8846C54.4754 40.1427 54.3481 40.4199 54.1315 40.5676C53.9429 40.6962 53.6572 40.7088 53.4485 40.6164C53.1219 40.4718 52.893 40.1647 52.6436 39.909C51.9163 39.1636 51.214 38.5516 50.5827 37.7234C50.318 37.376 50.1576 36.847 50.0614 36.421C49.9826 36.072 50.0162 35.3038 50.1317 34.9651C51.3485 31.3955 52.4765 28.2852 53.7168 24.6886C53.814 24.4067 53.7288 24.0461 53.5461 23.8105C53.3786 23.5945 53.0688 23.4548 52.7899 23.4934C52.3721 23.5511 51.9586 23.6939 51.5933 23.9047Z" stroke="white" stroke-width="1.5"/>
<defs>
<pattern id="pattern0_231_9" patternUnits="userSpaceOnUse" patternTransform="matrix(12 0 0 12 0 0)" preserveAspectRatio="none" viewBox="0 0 12 12" width="1" height="1">
<g id="pattern0_231_9_inner">
<rect y="2" width="3" height="1" fill="#D9D9D9"/>
<rect y="8" width="3" height="1" fill="#D9D9D9"/>
<rect x="6" y="2" width="3" height="1" fill="#D9D9D9"/>
<rect x="6" y="8" width="3" height="1" fill="#D9D9D9"/>
<rect x="5" y="3" width="3" height="1" transform="rotate(180 5 3)" fill="#D9D9D9"/>
<rect x="5" y="9" width="3" height="1" transform="rotate(180 5 9)" fill="#D9D9D9"/>
<rect x="11" y="3" width="3" height="1" transform="rotate(180 11 3)" fill="#D9D9D9"/>
<rect x="11" y="9" width="3" height="1" transform="rotate(180 11 9)" fill="#D9D9D9"/>
<rect x="2" width="1" height="2" fill="#D9D9D9"/>
<rect x="2" y="6" width="1" height="2" fill="#D9D9D9"/>
<rect x="8" width="1" height="2" fill="#D9D9D9"/>
<rect x="8" y="6" width="1" height="2" fill="#D9D9D9"/>
<rect x="3" y="5" width="1" height="2" transform="rotate(180 3 5)" fill="#D9D9D9"/>
<rect x="3" y="11" width="1" height="2" transform="rotate(180 3 11)" fill="#D9D9D9"/>
<rect x="9" y="5" width="1" height="2" transform="rotate(180 9 5)" fill="#D9D9D9"/>
<rect x="9" y="11" width="1" height="2" transform="rotate(180 9 11)" fill="#D9D9D9"/>
</g>
</pattern></defs>
</svg>
