<svg width="60" height="60" viewBox="0 0 60 60" fill="none" xmlns="http://www.w3.org/2000/svg" xmlns:xlink="http://www.w3.org/1999/xlink">
<rect width="60" height="60" fill="url(#pattern0_231_8)" fill-opacity="0.1"/>
<path d="M32.119 30.4178C30.0433 31.2752 27.8408 32.4971 25.7552 33.4923C25.0895 33.81 24.5452 33.6587 24.1501 33.3297C23.1715 32.5149 22.2292 31.6807 21.1132 31.0223C20.1234 30.4383 19.4413 30.1831 18.5356 29.8935C18.0908 29.7512 17.3156 29.5898 16.8509 29.5339C15.6206 29.3859 14.5401 29.4124 13.3058 29.5593C12.4068 29.6663 11.3435 29.9355 10.5173 30.3146C9.3832 30.835 8.61358 31.235 7.75855 31.9099C6.99282 32.5144 6.22176 33.2811 5.67451 33.9642C4.7313 35.1416 4.0819 36.1653 3.38982 37.5186C3.19789 37.8939 2.98301 38.3274 3.00107 38.734C3.01659 39.0835 3.15051 39.5219 3.38792 39.7598C3.64813 40.0204 4.09514 40.2281 4.49393 40.2293C10.9593 40.2489 17.5944 40.2159 24.1446 40.2182C32.7281 40.2211 41.3045 40.1447 49.8757 40.1517C50.5345 40.1523 51.4116 40.0268 52.0525 39.599C52.6934 39.1713 53.0982 38.4412 53.2434 37.8156C54.4148 32.7665 55.7217 26.8204 56.9618 22.0785C57.0936 21.5746 56.8851 20.8519 56.3255 20.4833C55.7659 20.1146 54.8552 20.1 54.2459 20.7197C53.0723 21.9134 51.628 23.654 50.3108 24.8612C49.6304 25.4847 49.2956 26.0869 49.4114 27.1717C49.6453 29.3624 49.8806 31.2213 49.9648 33.3624C49.9793 33.7321 49.9761 34.3097 49.7612 34.7096C49.5462 35.1094 49.1196 35.3316 48.7764 35.3544C46.5811 35.5002 44.7152 35.3821 42.5933 35.3824C42.0202 35.3824 41.5323 34.9604 41.1877 34.4961C40.8957 34.1027 40.7236 33.3652 40.7082 32.8817C40.6953 32.4786 40.8549 31.8623 41.2361 31.3077C43.3196 28.2767 44.9436 25.9039 47.0688 22.8353C47.8208 21.7494 46.7745 19.9285 45.5457 19.8814C40.418 19.6846 35.2996 19.8013 30.1009 19.7789C29.5826 19.7767 28.9527 19.9424 28.4827 20.1623C26.2869 21.1897 24.01 22.2426 21.7964 23.2433C21.2795 23.477 20.7843 23.9017 20.5563 24.4058C20.3584 24.8435 20.2788 25.5189 20.359 25.9949C20.4494 26.5312 20.6332 27.0351 21.0583 27.4993C21.4437 27.9202 21.971 28.128 22.5073 28.1792C24.5572 28.3753 26.7183 28.3442 28.7821 28.2196C29.1901 28.1949 29.6083 27.9923 29.9227 27.7313C30.9991 26.838 31.8874 25.6764 32.9545 24.7565C33.4076 24.366 33.9159 23.9245 34.4833 23.8C35.4562 23.5864 35.6905 23.6255 37.3795 23.6932C38.6089 23.7425 38.6676 23.753 39.1956 23.9308C39.1956 23.9308 39.7186 24.1303 40.072 24.6031C40.4874 25.1589 40.4314 25.6083 40.3614 26.0486C40.2682 26.6356 39.7687 27.0167 39.4109 27.1747C36.7758 28.3386 34.8507 29.2893 32.119 30.4178Z" stroke="white" stroke-width="1.5" stroke-linejoin="round"/>
<defs>
<pattern id="pattern0_231_8" patternUnits="userSpaceOnUse" patternTransform="matrix(12 0 0 12 0 0)" preserveAspectRatio="none" viewBox="0 0 12 12" width="1" height="1">
<g id="pattern0_231_8_inner">
<rect y="2" width="3" height="1" fill="#D9D9D9"/>
<rect y="8" width="3" height="1" fill="#D9D9D9"/>
<rect x="6" y="2" width="3" height="1" fill="#D9D9D9"/>
<rect x="6" y="8" width="3" height="1" fill="#D9D9D9"/>
<rect x="5" y="3" width="3" height="1" transform="rotate(180 5 3)" fill="#D9D9D9"/>
<rect x="5" y="9" width="3" height="1" transform="rotate(180 5 9)" fill="#D9D9D9"/>
<rect x="11" y="3" width="3" height="1" transform="rotate(180 11 3)" fill="#D9D9D9"/>
<rect x="11" y="9" width="3" height="1" transform="rotate(180 11 9)" fill="#D9D9D9"/>
<rect x="2" width="1" height="2" fill="#D9D9D9"/>
<rect x="2" y="6" width="1" height="2" fill="#D9D9D9"/>
<rect x="8" width="1" height="2" fill="#D9D9D9"/>
<rect x="8" y="6" width="1" height="2" fill="#D9D9D9"/>
<rect x="3" y="5" width="1" height="2" transform="rotate(180 3 5)" fill="#D9D9D9"/>
<rect x="3" y="11" width="1" height="2" transform="rotate(180 3 11)" fill="#D9D9D9"/>
<rect x="9" y="5" width="1" height="2" transform="rotate(180 9 5)" fill="#D9D9D9"/>
<rect x="9" y="11" width="1" height="2" transform="rotate(180 9 11)" fill="#D9D9D9"/>
</g>
</pattern></defs>
</svg>
