<svg width="60" height="60" viewBox="0 0 60 60" fill="none" xmlns="http://www.w3.org/2000/svg" xmlns:xlink="http://www.w3.org/1999/xlink">
<rect width="60" height="60" fill="url(#pattern0_231_7)" fill-opacity="0.1"/>
<path d="M38.4988 6.51334C38.7939 6.46842 39.1183 6.54032 39.3065 6.67829C39.5843 6.88187 39.6999 7.13627 39.7379 7.48793C39.781 7.88542 39.7186 8.31581 39.6624 8.86361L39.395 11.4321C39.3153 12.1983 39.2668 12.797 39.2859 13.2792C39.3057 13.7791 39.3991 14.2009 39.6334 14.5932C39.8556 14.9652 40.1753 15.258 40.5284 15.5506C40.9228 15.8775 41.3033 16.1611 41.899 16.6647L49.68 23.2843C50.7938 24.2331 51.7365 25.013 52.0281 26.1899L52.0452 26.263C52.2101 27.0169 52.033 27.753 51.7069 28.592C51.5299 29.0471 51.3504 29.4366 51.1493 29.9287C50.9608 30.3902 50.7789 30.885 50.6687 31.4034C50.6001 31.7257 50.6309 32.0921 50.6619 32.317L50.6624 32.321L50.6631 32.3249C50.8562 33.6116 51.6949 34.2875 52.5569 34.7139C52.977 34.9216 53.4303 35.0845 53.8322 35.2311C54.2498 35.3834 54.6137 35.5187 54.927 35.6816L54.9314 35.6839L54.936 35.6862C55.5645 36.001 56.009 36.4068 56.2525 36.978C56.443 37.4257 56.4596 37.9104 56.5045 38.554L56.5261 38.84L56.7349 41.3726C56.7751 41.8582 56.862 42.6077 56.9199 43.2438C56.9772 43.8734 57.0135 44.4584 56.9952 44.8855C56.9831 44.9008 56.9675 44.9198 56.9472 44.9425C56.8521 45.0492 56.7118 45.1812 56.5424 45.3295C56.3743 45.4766 56.2001 45.6204 56.0342 45.7601C55.8826 45.8877 55.7152 46.0302 55.605 46.1465C54.9011 46.8888 54.2348 47.6877 53.5148 48.2441C52.0895 49.2602 50.9016 49.9706 49.8489 51.6955C49.2893 52.6131 48.2107 53.3279 47.1713 53.3213C46.4308 53.3164 45.6758 53.0853 44.8806 52.7355C44.1054 52.3944 43.4195 52.0046 42.6362 51.6169L42.4782 51.5394L32.6694 46.7054L30.216 45.5002C28.1004 44.449 26.3378 43.5138 23.6073 43.9131L23.5888 43.9159L23.5705 43.9196C23.0658 44.0226 22.5076 44.2049 21.9818 44.3896C21.4345 44.5819 20.943 44.7689 20.4877 44.9191L20.4827 44.9208L20.4774 44.9226C19.5037 45.2615 18.4647 45.5917 17.4657 45.9706C16.3325 46.3999 15.8049 47.3568 15.3308 47.9906L13.0422 51.0519C12.6504 51.5772 12.104 52.3563 11.7473 52.7256C11.5618 52.9151 11.3467 53.0727 11.1108 53.1915C9.94698 53.7769 8.49597 53.4329 7.00275 52.9565C6.4792 52.7896 5.97063 52.4387 5.41958 51.9822C4.91018 51.5602 4.29935 50.986 3.72937 50.5753C3.63033 50.5038 3.49133 50.3836 3.36374 50.2483C3.22715 50.1035 3.15228 49.9925 3.13007 49.9426C2.95912 49.5583 2.97627 49.2762 3.06924 49.0243C3.17507 48.7377 3.39731 48.443 3.73055 48.0918C3.89484 47.9187 4.06879 47.7492 4.25753 47.5621C4.4416 47.3797 4.63637 47.1839 4.81898 46.9781C5.17982 46.5716 5.53915 46.0769 5.69671 45.4703C5.93979 44.5499 5.89714 43.7555 5.89644 42.9661L5.89448 40.1996C5.89423 39.4619 5.87503 38.8224 5.95622 38.17C6.024 37.6418 6.14703 37.1223 6.32343 36.6202L6.32421 36.6179L6.32499 36.6156C6.40122 36.3934 6.4944 36.154 6.59312 35.9041C6.68967 35.6598 6.79313 35.4015 6.88004 35.1632C7.10569 34.5442 7.26255 34.2881 7.44057 34.1131C7.63556 33.9213 7.9062 33.7725 8.51817 33.476L8.83289 33.3235L8.88785 32.9768C8.94036 32.6454 8.94282 32.2592 8.95743 32.0246C8.97443 31.7517 9.00762 31.5493 9.08718 31.371C9.23035 31.0502 9.49923 30.6589 9.75267 30.2681L9.75371 30.2665L10.7897 28.6589L10.7902 28.658L12.5821 25.8677C12.909 25.3613 13.256 24.7854 13.569 24.3774C13.8721 23.9835 14.2255 23.6312 14.6199 23.3296L14.6211 23.3288L14.6221 23.3279C15.2206 22.8665 15.9028 22.5279 16.6593 22.1458C17.395 21.7741 18.1984 21.3622 18.912 20.7711L19.0222 20.6782C19.5885 20.1926 20.3823 19.4003 21.1062 18.7289C21.5061 18.358 21.8963 18.0119 22.2513 17.7338C22.6171 17.4473 22.9021 17.2681 23.0956 17.1923C23.6461 16.9767 24.2483 16.8923 24.9444 16.7785L28.1041 16.2703C28.5063 16.206 28.9471 16.1498 29.303 16.0838C29.6762 16.0146 30.0563 15.9195 30.4093 15.7416C31.1771 15.3547 31.6514 14.6648 31.9487 13.539C32.0765 13.0557 32.1732 12.5451 32.2667 12.0717C32.3624 11.5872 32.4555 11.1362 32.5788 10.7234L32.5796 10.7205L32.5805 10.7176C32.7507 10.1288 33.0185 9.57311 33.3725 9.07419L33.4444 8.97519C34.3851 7.72569 35.6071 7.15607 37.2084 6.80023L37.3974 6.75656C37.8178 6.65633 38.105 6.56746 38.489 6.51478L38.4939 6.514L38.4988 6.51334Z" stroke="white" stroke-width="1.5" stroke-linejoin="round"/>
<defs>
<pattern id="pattern0_231_7" patternUnits="userSpaceOnUse" patternTransform="matrix(12 0 0 12 0 0)" preserveAspectRatio="none" viewBox="0 0 12 12" width="1" height="1">
<g id="pattern0_231_7_inner">
<rect y="2" width="3" height="1" fill="#D9D9D9"/>
<rect y="8" width="3" height="1" fill="#D9D9D9"/>
<rect x="6" y="2" width="3" height="1" fill="#D9D9D9"/>
<rect x="6" y="8" width="3" height="1" fill="#D9D9D9"/>
<rect x="5" y="3" width="3" height="1" transform="rotate(180 5 3)" fill="#D9D9D9"/>
<rect x="5" y="9" width="3" height="1" transform="rotate(180 5 9)" fill="#D9D9D9"/>
<rect x="11" y="3" width="3" height="1" transform="rotate(180 11 3)" fill="#D9D9D9"/>
<rect x="11" y="9" width="3" height="1" transform="rotate(180 11 9)" fill="#D9D9D9"/>
<rect x="2" width="1" height="2" fill="#D9D9D9"/>
<rect x="2" y="6" width="1" height="2" fill="#D9D9D9"/>
<rect x="8" width="1" height="2" fill="#D9D9D9"/>
<rect x="8" y="6" width="1" height="2" fill="#D9D9D9"/>
<rect x="3" y="5" width="1" height="2" transform="rotate(180 3 5)" fill="#D9D9D9"/>
<rect x="3" y="11" width="1" height="2" transform="rotate(180 3 11)" fill="#D9D9D9"/>
<rect x="9" y="5" width="1" height="2" transform="rotate(180 9 5)" fill="#D9D9D9"/>
<rect x="9" y="11" width="1" height="2" transform="rotate(180 9 11)" fill="#D9D9D9"/>
</g>
</pattern></defs>
</svg>
