<svg width="60" height="60" viewBox="0 0 60 60" fill="none" xmlns="http://www.w3.org/2000/svg" xmlns:xlink="http://www.w3.org/1999/xlink">
<rect width="60" height="60" fill="url(#pattern0_231_6)" fill-opacity="0.1"/>
<path fill-rule="evenodd" clip-rule="evenodd" d="M18.8026 22.661C17.66 22.2715 17.2913 22.1684 16.6127 21.5269C15.2946 20.2809 14.4751 18.4182 13.1966 17.1281C12.7592 16.6867 12.0783 16.4805 11.4651 16.3325C9.81645 15.9346 8.06242 15.896 6.41115 15.4902C5.33264 15.2252 4.16426 14.8943 3.43959 14.2501C3.04115 13.8959 2.92827 13.0441 3.04182 12.4953C3.11545 12.1394 3.45027 11.621 3.83736 11.6061C8.33268 11.4338 13.0791 11.7063 17.689 11.9337C20.0361 12.0495 22.0776 12.3018 24.3692 12.5772C25.216 12.6789 25.4497 11.8264 26.2527 11.8869C26.9022 11.9359 27.1027 12.9484 28.2182 13.1036C29.0864 13.2244 30.2483 13.3875 31.0718 13.5043C34.1861 13.946 37.6037 14.4466 40.7128 14.9287C41.0887 14.9869 41.461 14.9006 41.7927 14.809C42.2 14.6965 42.7392 14.4744 43.193 14.4139C43.5313 14.3688 44.0272 14.2366 44.2225 14.4607C44.9086 15.2478 44.7762 16.2653 45.252 17.0813C45.5309 17.5597 46.3037 17.7633 46.8899 17.9236C48.1288 18.2625 49.4648 18.5788 50.7272 18.5788C51.399 18.5788 52.0256 18.088 52.6926 17.9236C53.1019 17.8228 53.5795 17.6468 53.9561 17.7832C54.6558 18.0368 55.4861 18.4839 55.9215 19.0935C56.5001 19.9034 57.0383 21.0096 56.9979 22.0417C56.8416 26.0321 56.7024 30.3235 56.3895 34.4427C56.328 35.2527 56.1817 36.0823 55.8748 36.8293C55.2458 38.3597 54.4411 39.8489 53.5817 41.2749C52.2885 43.421 50.8735 45.5144 49.4169 47.5456C49.1732 47.8854 48.8381 48.2451 48.481 48.388C48.2142 48.4947 47.7793 48.459 47.545 48.2944C47.2022 48.0534 46.8652 47.5878 46.7495 47.1713C46.6312 46.7454 46.6928 46.1977 46.8431 45.7674C47.036 45.215 47.3704 44.6544 47.779 44.2231C48.4935 43.4689 49.4626 42.9419 50.2124 42.2109C50.7105 41.7252 51.2695 41.1989 51.5227 40.573C51.8311 39.8106 51.9572 38.8574 51.8971 38.046C51.8636 37.5939 51.6434 36.9797 51.2419 36.7825C49.8964 36.1217 48.1722 35.7143 46.6559 35.4722C46.316 35.4179 45.8644 35.6256 45.6732 35.8934C45.3185 36.39 45.4376 37.3538 45.018 37.7652C44.6264 38.1493 43.8441 38.2188 43.2398 38.28C42.6118 38.3436 41.838 38.4173 41.3211 38.1396C40.7929 37.8558 40.7327 37.0766 40.315 36.5719C39.9839 36.1719 39.4892 35.7347 39.0983 35.402C38.7561 35.1107 38.4837 34.9874 38.139 34.7001C37.8286 34.4414 37.5419 33.8918 37.2031 33.6706C36.0132 32.8935 34.5254 32.5058 33.319 31.7285C31.8389 30.7749 29.8312 29.2883 28.7615 28.4006C27.6094 27.4445 26.6808 26.6765 26.0071 26.2767C25.3333 25.8769 24.3861 25.7662 23.6673 25.4695C22.912 25.1578 22.2224 24.9619 21.5497 24.5219C20.9823 24.1507 20.6575 23.5317 20.0815 23.194C19.5266 22.8687 19.4579 22.8843 18.8026 22.661Z" stroke="white" stroke-width="1.5" stroke-linejoin="round"/>
<defs>
<pattern id="pattern0_231_6" patternUnits="userSpaceOnUse" patternTransform="matrix(12 0 0 12 0 0)" preserveAspectRatio="none" viewBox="0 0 12 12" width="1" height="1">
<g id="pattern0_231_6_inner">
<rect y="2" width="3" height="1" fill="#D9D9D9"/>
<rect y="8" width="3" height="1" fill="#D9D9D9"/>
<rect x="6" y="2" width="3" height="1" fill="#D9D9D9"/>
<rect x="6" y="8" width="3" height="1" fill="#D9D9D9"/>
<rect x="5" y="3" width="3" height="1" transform="rotate(180 5 3)" fill="#D9D9D9"/>
<rect x="5" y="9" width="3" height="1" transform="rotate(180 5 9)" fill="#D9D9D9"/>
<rect x="11" y="3" width="3" height="1" transform="rotate(180 11 3)" fill="#D9D9D9"/>
<rect x="11" y="9" width="3" height="1" transform="rotate(180 11 9)" fill="#D9D9D9"/>
<rect x="2" width="1" height="2" fill="#D9D9D9"/>
<rect x="2" y="6" width="1" height="2" fill="#D9D9D9"/>
<rect x="8" width="1" height="2" fill="#D9D9D9"/>
<rect x="8" y="6" width="1" height="2" fill="#D9D9D9"/>
<rect x="3" y="5" width="1" height="2" transform="rotate(180 3 5)" fill="#D9D9D9"/>
<rect x="3" y="11" width="1" height="2" transform="rotate(180 3 11)" fill="#D9D9D9"/>
<rect x="9" y="5" width="1" height="2" transform="rotate(180 9 5)" fill="#D9D9D9"/>
<rect x="9" y="11" width="1" height="2" transform="rotate(180 9 11)" fill="#D9D9D9"/>
</g>
</pattern></defs>
</svg>
