<svg width="60" height="60" viewBox="0 0 60 60" fill="none" xmlns="http://www.w3.org/2000/svg" xmlns:xlink="http://www.w3.org/1999/xlink">
<rect width="60" height="60" fill="url(#pattern0_231_5)" fill-opacity="0.1"/>
<path d="M47.4306 19.6885C47.4222 19.7002 47.4139 19.7119 47.4057 19.7235C47.4138 19.7121 47.4224 19.7 47.4306 19.6885ZM47.4306 19.6885L47.4315 19.6872M47.4306 19.6885C47.4309 19.688 47.4312 19.6876 47.4315 19.6872M47.4306 19.6885C47.4033 19.7269 47.3763 19.7648 47.3497 19.8007C47.2466 19.9393 47.1486 20.0623 47.0653 20.1394C46.982 20.2166 46.9289 20.2375 46.8887 20.2411C45.5546 20.3586 45.1479 20.3769 44.3595 20.3258C44.3648 20.3261 44.3629 20.3251 44.3549 20.3208C44.3377 20.3115 44.2924 20.287 44.2303 20.2284C44.1626 20.1645 44.082 20.0729 43.9912 19.9697C43.96 19.9342 43.9277 19.8975 43.8942 19.8599C43.6322 19.5664 43.2738 19.1862 42.7266 19.1951C38.8809 19.2578 35.0942 19.2535 31.2788 19.2492C28.146 19.2456 24.9939 19.2421 21.7738 19.2756L21.7173 19.2761C21.1308 19.2821 20.4952 19.2885 19.8867 19.4492C19.4562 19.5629 19.0901 19.8217 18.7966 20.0929C17.8834 20.9366 17.0111 21.8242 16.1431 22.7072C15.0813 23.7875 14.0261 24.861 12.911 25.8393C12.6082 26.105 12.1577 26.2892 11.7305 26.3602C11.0422 26.4745 10.3161 26.5045 9.5757 26.535C8.81264 26.5665 8.03442 26.5986 7.26677 26.7244C6.75756 26.8078 6.2873 27.0573 5.91818 27.3596C5.56202 27.6513 5.17076 28.0509 5.0263 28.5791C4.20808 31.5712 3.52623 34.7031 3.01418 37.7472C2.93363 38.2261 3.21399 38.6005 3.40627 38.8525C3.59297 39.0971 3.87073 39.379 4.29384 39.4284C6.33963 39.667 8.4186 39.7972 10.4901 39.9269M47.4315 19.6872C47.6157 19.4279 47.829 19.1276 48.2373 19.0427C48.3869 19.0115 48.5413 18.9977 48.694 19.0003C48.7449 19.0012 48.794 19.0046 48.8448 19.0088C49.4539 19.0594 50.0588 19.3272 50.5424 19.5466C51.0604 19.7816 51.476 20.2045 51.7832 20.6222C52.1495 21.1201 52.5765 21.7345 52.6665 22.4262C52.7515 23.0791 52.5182 23.7284 52.3209 24.2776L52.3198 24.2806C52.3059 24.3193 52.2922 24.3576 52.2787 24.3953C52.0952 24.9108 51.8522 25.4845 51.4256 25.924C51.0489 26.3122 50.5909 26.5832 50.1608 26.8378C49.969 26.9513 49.7828 27.0616 49.6117 27.1775C48.9785 27.6064 48.3317 28.0186 47.6879 28.429C46.4585 29.2125 45.2401 29.989 44.1484 30.8616C43.9093 31.0528 43.7475 31.4847 43.6012 31.9161C43.4795 32.2747 43.3966 32.6729 43.4504 32.9493C43.5464 33.4432 43.769 34.0393 44.045 34.296C44.3363 34.5669 44.9304 34.7779 45.4237 34.8084C46.9677 34.9035 48.5479 34.8759 50.1361 34.8482C51.7336 34.8203 53.3392 34.7922 54.9242 34.8888C55.4713 34.9221 55.8917 35.2606 56.1996 35.541C56.5237 35.8363 56.7861 36.2395 56.9105 36.6631C57.0348 37.0867 57.0234 37.5568 56.9148 37.9674C56.8707 38.134 56.8025 38.3723 56.7123 38.6111C56.6221 38.85 56.5222 39.0872 56.3504 39.2802C56.155 39.4996 55.8846 39.6396 55.5963 39.7629C55.3081 39.8862 55.0176 39.9783 54.7519 39.9958C53.9209 40.0502 53.0945 40.1049 52.2732 40.1593M40.2616 29.3671V29.3671ZM52.2732 40.1593C52.2721 40.1594 52.2722 40.1594 52.2711 40.1595L52.2694 40.1596C47.2654 40.4909 42.4124 40.8123 37.3494 40.9995C37.0875 41.0091 36.8793 40.8871 36.7247 40.7623C36.5701 40.6375 36.4552 40.4954 36.3671 40.3812C36.149 40.0987 36.1151 39.7771 36.0913 39.5258C36.0866 39.4763 36.0802 39.4236 36.0735 39.3684C36.0367 39.0659 35.9904 38.6854 36.1646 38.3062C36.7933 36.9374 37.5231 35.594 38.2473 34.261C39.054 32.7762 39.8536 31.3042 40.499 29.8241C40.499 29.8241 40.5101 29.7789 40.4645 29.6802C40.4213 29.5865 40.3389 29.4732 40.2616 29.3671L40.2491 29.3499C40.1062 29.1531 39.8648 28.946 39.6588 28.8586C39.3887 28.744 39.0416 28.6766 38.7842 28.7189C35.3864 29.2775 31.9193 29.8975 28.6202 30.7261C28.4247 30.7753 28.1756 31.058 27.9524 31.3613C27.7227 31.6734 27.5193 32.0276 27.4827 32.3311C27.3635 33.3184 27.3376 34.3374 27.3114 35.3681C27.2864 36.3483 27.2612 37.3391 27.1553 38.3231C27.0936 38.8962 26.9908 39.5787 26.5995 40.0975C26.2707 40.5333 25.7111 40.9633 25.0484 40.9571C22.4198 40.9327 19.7485 40.6857 17.0881 40.4398C15.8265 40.3232 14.5671 40.2067 13.316 40.1144C12.3781 40.0452 11.4349 39.9861 10.4901 39.9269M52.2732 40.1593L52.2711 40.1595M10.4901 39.9269C10.5491 39.9306 10.6081 39.9343 10.667 39.938" stroke="white" stroke-width="1.5" stroke-linecap="round" stroke-linejoin="round"/>
<defs>
<pattern id="pattern0_231_5" patternUnits="userSpaceOnUse" patternTransform="matrix(12 0 0 12 0 0)" preserveAspectRatio="none" viewBox="0 0 12 12" width="1" height="1">
<g id="pattern0_231_5_inner">
<rect y="2" width="3" height="1" fill="#D9D9D9"/>
<rect y="8" width="3" height="1" fill="#D9D9D9"/>
<rect x="6" y="2" width="3" height="1" fill="#D9D9D9"/>
<rect x="6" y="8" width="3" height="1" fill="#D9D9D9"/>
<rect x="5" y="3" width="3" height="1" transform="rotate(180 5 3)" fill="#D9D9D9"/>
<rect x="5" y="9" width="3" height="1" transform="rotate(180 5 9)" fill="#D9D9D9"/>
<rect x="11" y="3" width="3" height="1" transform="rotate(180 11 3)" fill="#D9D9D9"/>
<rect x="11" y="9" width="3" height="1" transform="rotate(180 11 9)" fill="#D9D9D9"/>
<rect x="2" width="1" height="2" fill="#D9D9D9"/>
<rect x="2" y="6" width="1" height="2" fill="#D9D9D9"/>
<rect x="8" width="1" height="2" fill="#D9D9D9"/>
<rect x="8" y="6" width="1" height="2" fill="#D9D9D9"/>
<rect x="3" y="5" width="1" height="2" transform="rotate(180 3 5)" fill="#D9D9D9"/>
<rect x="3" y="11" width="1" height="2" transform="rotate(180 3 11)" fill="#D9D9D9"/>
<rect x="9" y="5" width="1" height="2" transform="rotate(180 9 5)" fill="#D9D9D9"/>
<rect x="9" y="11" width="1" height="2" transform="rotate(180 9 11)" fill="#D9D9D9"/>
</g>
</pattern></defs>
</svg>
