<svg width="60" height="60" viewBox="0 0 60 60" fill="none" xmlns="http://www.w3.org/2000/svg" xmlns:xlink="http://www.w3.org/1999/xlink">
<rect width="60" height="60" fill="url(#pattern0_231_4)" fill-opacity="0.1"/>
<path d="M15.4403 17.3137C15.5719 17.2461 15.6812 17.2115 15.809 17.1888C15.8809 17.176 15.9564 17.1682 16.0279 17.1833C16.0945 17.1973 16.1564 17.2321 16.2128 17.2704C16.3231 17.3453 16.4159 17.4431 16.5081 17.5404C16.5262 17.5595 16.5445 17.5789 16.5628 17.5978C16.7022 17.7425 16.8311 17.8971 16.9598 18.0517L17.0253 18.1302C19.6025 21.2115 24.5832 27.5169 24.5832 27.5169L26.9567 30.4494C26.9567 30.4494 28.7016 32.6395 29.6326 33.6842L29.656 33.7105C29.7366 33.8012 29.8176 33.8922 29.9088 33.9721C29.9954 34.0479 30.0854 34.1226 30.1874 34.176C30.2757 34.2222 30.3733 34.2485 30.4697 34.2745L30.4849 34.2786C30.6109 34.3126 30.7387 34.3454 30.8688 34.3546C30.997 34.3637 31.127 34.3546 31.2538 34.3337C31.3756 34.3137 31.4944 34.2766 31.6103 34.2344C31.7482 34.1842 31.8867 34.1301 32.0112 34.0523C32.1359 33.9744 32.2452 33.8744 32.354 33.7748C32.377 33.7539 32.3999 33.7329 32.4229 33.7122C32.5747 33.5756 32.7185 33.4305 32.8624 33.2855C32.9227 33.2246 32.9832 33.1637 33.0441 33.1034C33.6767 32.4782 34.9336 31.2197 34.9336 31.2197C34.9336 31.2197 36.5728 29.5673 37.356 28.7069L37.3788 28.6819C37.5121 28.5355 37.6458 28.3888 37.7651 28.2309C37.864 28.1 37.9575 27.964 38.0367 27.8203C38.0975 27.71 38.1486 27.5941 38.1917 27.4757C38.2383 27.3479 38.2765 27.2165 38.3029 27.083C38.3295 26.9489 38.3449 26.8121 38.3499 26.6754C38.3549 26.5406 38.3455 26.4053 38.3332 26.2708C38.32 26.1255 38.2984 25.9809 38.2717 25.8374C38.2233 25.5772 38.1601 25.32 38.0969 25.0629C38.0678 24.9447 38.0387 24.8263 38.0111 24.7078C37.9482 24.438 37.8206 23.8988 37.8206 23.8988L37.6129 23.073L37.5284 22.6308C37.5284 22.6308 37.465 22.0341 37.476 21.7354C37.4869 21.4404 37.537 21.1476 37.5928 20.8579C37.6268 20.6812 37.6657 20.5045 37.7254 20.3348C37.8226 20.0586 37.9541 19.795 38.0903 19.5358C38.1875 19.3506 38.2918 19.1683 38.4123 18.9974C38.5643 18.7818 38.7314 18.5755 38.9156 18.3867C39.0569 18.2421 39.2134 18.1123 39.3742 17.9898C39.5857 17.8287 39.8037 17.6735 40.0376 17.5472C40.2778 17.4175 40.5341 17.3184 40.7912 17.2269C41.405 17.0083 42.0359 16.8432 42.6668 16.678C43.2406 16.5278 43.8145 16.3776 44.3755 16.1872C44.8503 16.0261 45.3226 15.8529 45.7768 15.6404C45.9864 15.5424 46.1866 15.4254 46.3865 15.3087C46.4266 15.2852 46.4667 15.2618 46.5068 15.2386C47.047 14.9258 47.5939 14.609 48.1124 14.2614C49.1415 13.5715 51.1059 12.0582 51.1059 12.0582L53.4817 10.2277C53.4817 10.2277 55.5402 8.68684 56.483 7.81587L56.5066 7.79409C56.5949 7.7128 56.6844 7.63046 56.7514 7.53123C56.8468 7.38995 56.9212 7.23138 56.9655 7.06666C56.9959 6.95318 57.0042 6.83298 56.9982 6.71558C56.9899 6.55409 56.9572 6.3924 56.9042 6.23957C56.8419 6.05978 56.749 5.89019 56.6444 5.73121C56.5301 5.55753 56.4034 5.3874 56.2467 5.25076C56.1013 5.12396 55.9295 5.02785 55.755 4.94583C55.5908 4.86865 55.4185 4.79928 55.2391 4.77277C55.0956 4.75156 54.9497 4.76506 54.8043 4.7785C54.7587 4.78273 54.713 4.78695 54.6675 4.79008C54.4729 4.8035 54.278 4.821 54.0856 4.85281C53.7832 4.90279 53.4853 4.9754 53.1874 5.04802C53.0273 5.08706 52.8672 5.12609 52.7063 5.16162C50.5465 5.63862 46.2227 6.57387 46.2227 6.57387L37.7666 8.43276L28.0592 10.5347L25.5636 11.0514L22.5626 11.7623L15.6858 13.6637C15.6858 13.6637 12.0319 14.4979 10.1957 14.8714C10.1738 14.8759 10.1517 14.8797 10.1297 14.8834C10.0993 14.8886 10.0689 14.8937 10.039 14.9007C9.99863 14.9102 9.95832 14.9204 9.91932 14.9344C9.86955 14.9522 9.81604 14.9714 9.77131 14.9995C9.69908 15.0449 9.63376 15.1023 9.57684 15.1659C9.52199 15.2271 9.46902 15.2936 9.438 15.3698C9.40072 15.4614 9.38403 15.5631 9.38614 15.662C9.38801 15.7489 9.4137 15.8347 9.44267 15.9168C9.4823 16.029 9.53929 16.1351 9.60138 16.2367C9.68531 16.3739 9.78492 16.5006 9.88455 16.6273C9.93889 16.6964 9.99324 16.7655 10.045 16.8363C10.1029 16.9154 10.1643 16.9922 10.2258 17.069C10.3562 17.2321 10.4867 17.3953 10.5826 17.5797C10.5952 17.604 10.6117 17.6354 10.6111 17.6624C10.6106 17.6863 10.5976 17.7086 10.5854 17.7294C10.5534 17.7846 10.5076 17.8363 10.4645 17.8837L10.4439 17.9065C9.97177 18.4313 8.94269 19.4002 8.94269 19.4002C8.94269 19.4002 7.99131 20.3804 7.57285 20.9186C7.12277 21.4974 6.72012 22.1144 6.35291 22.7492C6.07032 23.2377 5.82569 23.7485 5.59959 24.2657C5.40322 24.7149 5.22803 25.1741 5.07704 25.6406C4.91734 26.134 4.77146 26.6339 4.67275 27.1431C4.63273 27.3496 4.61249 27.5591 4.59224 27.7687C4.58138 27.8811 4.57052 27.9936 4.55661 28.1055C4.19174 31.0416 3.43083 36.91 3.43083 36.91L3.08708 40.0373L3 42.5666L3.23099 46.4574L3.60443 49.8313C3.60443 49.8313 3.82868 51.8754 4.00277 52.8882L4.0152 52.9615C4.04147 53.1179 4.06785 53.2749 4.11772 53.4251C4.16524 53.5683 4.2322 53.7051 4.30644 53.8364C4.4248 54.0458 4.55322 54.2527 4.71308 54.4323C4.85124 54.5875 5.00883 54.729 5.1838 54.841C5.42627 54.9962 5.68887 55.1391 5.97089 55.1961C6.35206 55.2731 6.75355 55.2319 7.1367 55.1667C7.38696 55.1241 7.6326 55.0428 7.86141 54.9329C8.15173 54.7935 8.42201 54.6089 8.66782 54.4008C8.91919 54.188 9.15587 53.9499 9.34071 53.6772C9.52673 53.4028 9.67656 53.0974 9.76656 52.7782C9.85815 52.4532 9.89924 52.1078 9.87505 51.7709C9.84393 51.3375 9.70072 50.9182 9.55981 50.5055L9.52525 50.4042C9.49338 50.3103 9.45196 50.22 9.41061 50.1298C9.38906 50.0827 9.36752 50.0357 9.34737 49.9883C8.35881 47.6625 7.50743 45.413 6.66462 43.0922C6.61297 42.95 6.56176 42.8059 6.53634 42.6568C6.52248 42.5755 6.52154 42.4928 6.5206 42.4101C6.52022 42.3768 6.51984 42.3435 6.51861 42.3103L6.51668 42.2583C6.50942 42.0633 6.50216 41.8681 6.50423 41.673C6.51242 40.902 6.60556 39.3623 6.60556 39.3623C6.60556 39.3623 6.57124 38.1667 6.6372 37.5743C6.65149 37.446 6.67723 37.3183 6.7157 37.1952C6.75311 37.0754 6.80301 36.9591 6.86273 36.8488C6.91939 36.7441 6.98582 36.6441 7.06166 36.5524C7.22095 36.3599 7.59478 36.0255 7.59478 36.0255C7.59478 36.0255 9.17745 34.3673 10.0801 33.6681C10.1148 33.6412 10.1518 33.6166 10.1917 33.5982L10.2055 33.5917C10.2361 33.5772 10.268 33.5621 10.3012 33.5638C10.3393 33.5656 10.3754 33.5868 10.4066 33.6088C10.4822 33.662 10.5445 33.7414 10.5997 33.8118L10.6267 33.846C10.7258 33.9701 10.8183 34.0914 10.9115 34.2135L10.9985 34.3275C11.0399 34.3815 11.0806 34.4361 11.1213 34.4906C11.1889 34.581 11.2566 34.6718 11.3272 34.7598C11.3682 34.8111 11.4091 34.8625 11.45 34.914C11.6637 35.1828 11.8779 35.4522 12.118 35.6972L12.1636 35.7438C12.3813 35.9664 12.6024 36.1925 12.867 36.355C13.0177 36.4476 13.1864 36.5153 13.3593 36.5523C13.5349 36.5898 13.7192 36.5938 13.8977 36.5739C14.0871 36.5527 14.2698 36.4924 14.4516 36.4325C14.4979 36.4172 14.5442 36.4019 14.5905 36.3873C14.7837 36.3265 14.9775 36.2642 15.162 36.1804C15.3617 36.0897 15.5507 35.9772 15.7395 35.865C15.7762 35.8432 15.8129 35.8214 15.8496 35.7997C16.1727 35.6094 16.495 35.4166 16.8033 35.2031C16.8506 35.1703 16.8986 35.138 16.9466 35.1056C17.1449 34.972 17.3444 34.8376 17.5079 34.6648C17.6438 34.5211 17.7594 34.3541 17.8415 34.174C17.8899 34.068 17.9224 33.9523 17.931 33.8361C17.9421 33.6842 17.9151 33.5301 17.8798 33.3819C17.8355 33.1964 17.7608 33.0185 17.6801 32.8456C17.5417 32.5491 17.3685 32.2695 17.1947 31.9922C17.0541 31.7678 16.8999 31.552 16.7444 31.3375C16.6565 31.2162 16.4718 30.9802 16.4718 30.9802L15.8774 30.2591L12.7354 26.4007C12.7354 26.4007 12.1525 25.7115 11.8972 25.3402C11.7633 25.1455 11.629 24.9474 11.5351 24.7305C11.4715 24.5837 11.4224 24.428 11.4019 24.2694C11.3745 24.057 11.368 23.8356 11.4176 23.6274C11.4758 23.3837 11.7405 22.9489 11.7405 22.9489L13.5952 19.7852C13.5952 19.7852 13.998 19.001 14.2323 18.63C14.3434 18.4541 14.4692 18.2875 14.5994 18.1253C14.7387 17.9518 14.8794 17.7776 15.0415 17.6252C15.1639 17.51 15.2908 17.3906 15.4403 17.3137Z" stroke="white" stroke-width="1.5"/>
<defs>
<pattern id="pattern0_231_4" patternUnits="userSpaceOnUse" patternTransform="matrix(12 0 0 12 0 0)" preserveAspectRatio="none" viewBox="0 0 12 12" width="1" height="1">
<g id="pattern0_231_4_inner">
<rect y="2" width="3" height="1" fill="#D9D9D9"/>
<rect y="8" width="3" height="1" fill="#D9D9D9"/>
<rect x="6" y="2" width="3" height="1" fill="#D9D9D9"/>
<rect x="6" y="8" width="3" height="1" fill="#D9D9D9"/>
<rect x="5" y="3" width="3" height="1" transform="rotate(180 5 3)" fill="#D9D9D9"/>
<rect x="5" y="9" width="3" height="1" transform="rotate(180 5 9)" fill="#D9D9D9"/>
<rect x="11" y="3" width="3" height="1" transform="rotate(180 11 3)" fill="#D9D9D9"/>
<rect x="11" y="9" width="3" height="1" transform="rotate(180 11 9)" fill="#D9D9D9"/>
<rect x="2" width="1" height="2" fill="#D9D9D9"/>
<rect x="2" y="6" width="1" height="2" fill="#D9D9D9"/>
<rect x="8" width="1" height="2" fill="#D9D9D9"/>
<rect x="8" y="6" width="1" height="2" fill="#D9D9D9"/>
<rect x="3" y="5" width="1" height="2" transform="rotate(180 3 5)" fill="#D9D9D9"/>
<rect x="3" y="11" width="1" height="2" transform="rotate(180 3 11)" fill="#D9D9D9"/>
<rect x="9" y="5" width="1" height="2" transform="rotate(180 9 5)" fill="#D9D9D9"/>
<rect x="9" y="11" width="1" height="2" transform="rotate(180 9 11)" fill="#D9D9D9"/>
</g>
</pattern></defs>
</svg>
