<svg width="60" height="60" viewBox="0 0 60 60" fill="none" xmlns="http://www.w3.org/2000/svg" xmlns:xlink="http://www.w3.org/1999/xlink">
<rect width="60" height="60" fill="url(#pattern0_231_3)" fill-opacity="0.1"/>
<path d="M17.7127 8.22579C18.1244 7.20598 19.8397 6.89597 20.6536 7.19521C21.5801 7.53634 22.327 8.90925 22.0923 9.86801C21.8865 10.7095 20.328 14.2082 19.7547 15.593C17.842 20.2109 19.5572 22.1835 18.0083 24.235C17.4518 24.9724 14.6437 25.602 12.7609 26.3046C11.8847 26.6313 11.0983 27.717 11.4742 28.811C12.0583 30.513 13.7831 30.209 14.67 29.9265C18.9707 28.562 20.99 27.6571 23.1457 27.5302C26.3188 27.3447 27.9993 28.167 31.3675 28.8613C33.6202 29.3269 35.9985 28.7128 37.5462 27.6308C37.7437 27.4931 40.0921 25.985 40.7325 25.6833C41.805 25.1794 43.264 24.6324 44.7112 24.6791C46.989 24.7533 48.9316 24.8215 51.1089 24.9293C52.4004 24.9939 54.5286 25.3578 55.8823 27.3124C56.8794 28.7511 57.679 31.1821 56.1337 33.5988C54.1479 36.7049 53.2047 37.0927 50.1968 43.2929C49.5217 44.6838 47.6688 45.0213 44.1713 44.1559C41.933 43.6017 38.639 41.5095 38.6701 39.9211C38.6223 39.7775 38.6965 38.468 41.2891 37.5212C42.3077 37.149 44.3257 37.2447 47.299 36.0454C49.4918 35.162 49.6689 33.7831 49.4846 32.8148C49.1698 31.1594 47.8639 30.6854 45.725 30.4831C42.7386 30.2006 41.5943 30.1755 38.6893 30.4041C30.003 31.0864 24.4791 33.7987 20.3233 35.9999C19.5799 36.3949 19.3238 35.7234 18.9037 34.9932C18.2214 33.8107 17.4745 33.5701 16.4511 33.8908C15.3858 34.2248 14.9848 35.0579 15.2458 36.6774C16.0011 41.3598 16.5433 44.1212 17.2818 47.9359C18.0203 51.7446 15.8861 52.7716 14.3648 52.8482C7.87853 53.1738 6.53196 52.2904 4.40617 49.8965C3.07157 48.3931 2.29714 45.761 3.89388 41.8781C8.53925 30.5837 12.1325 21.9465 16.6773 10.6568L17.7127 8.22579Z" stroke="white" stroke-width="1.5" stroke-miterlimit="10"/>
<defs>
<pattern id="pattern0_231_3" patternUnits="userSpaceOnUse" patternTransform="matrix(12 0 0 12 0 0)" preserveAspectRatio="none" viewBox="0 0 12 12" width="1" height="1">
<g id="pattern0_231_3_inner">
<rect y="2" width="3" height="1" fill="#D9D9D9"/>
<rect y="8" width="3" height="1" fill="#D9D9D9"/>
<rect x="6" y="2" width="3" height="1" fill="#D9D9D9"/>
<rect x="6" y="8" width="3" height="1" fill="#D9D9D9"/>
<rect x="5" y="3" width="3" height="1" transform="rotate(180 5 3)" fill="#D9D9D9"/>
<rect x="5" y="9" width="3" height="1" transform="rotate(180 5 9)" fill="#D9D9D9"/>
<rect x="11" y="3" width="3" height="1" transform="rotate(180 11 3)" fill="#D9D9D9"/>
<rect x="11" y="9" width="3" height="1" transform="rotate(180 11 9)" fill="#D9D9D9"/>
<rect x="2" width="1" height="2" fill="#D9D9D9"/>
<rect x="2" y="6" width="1" height="2" fill="#D9D9D9"/>
<rect x="8" width="1" height="2" fill="#D9D9D9"/>
<rect x="8" y="6" width="1" height="2" fill="#D9D9D9"/>
<rect x="3" y="5" width="1" height="2" transform="rotate(180 3 5)" fill="#D9D9D9"/>
<rect x="3" y="11" width="1" height="2" transform="rotate(180 3 11)" fill="#D9D9D9"/>
<rect x="9" y="5" width="1" height="2" transform="rotate(180 9 5)" fill="#D9D9D9"/>
<rect x="9" y="11" width="1" height="2" transform="rotate(180 9 11)" fill="#D9D9D9"/>
</g>
</pattern></defs>
</svg>
