<svg width="60" height="60" viewBox="0 0 60 60" fill="none" xmlns="http://www.w3.org/2000/svg" xmlns:xlink="http://www.w3.org/1999/xlink">
<rect width="60" height="60" fill="url(#pattern0_231_2)" fill-opacity="0.1"/>
<path d="M36.9443 29.1587C36.9465 29.1946 36.9487 29.2303 36.9509 29.2657M36.9443 29.1587C36.9795 29.7327 37.0116 30.256 37.0135 30.6561C37.0167 31.3472 37.2243 33.1018 36.0611 32.8368C35.8215 32.7823 35.6738 32.6438 35.589 32.4694C35.5124 32.312 35.5 32.0708 35.5 32.0708C35.5 32.0708 35.2673 30.9505 34.8192 30.7296C34.43 30.5378 34.1245 30.4686 33.6946 30.4111C31.6574 30.4004 29.6207 30.3379 27.5833 30.3379C25.4338 30.3103 23.2764 30.1976 21.1416 30.5194C20.1632 30.6668 14.0256 33.2391 13.6485 31.1002C13.6104 30.8838 13.6686 30.6691 13.7603 30.4904C13.861 30.2942 14.007 30.1348 14.1757 29.9955C14.782 29.5056 15.5488 29.3052 16.2579 29.0132C17.6673 28.5123 19.1123 28.0203 20.6071 27.8589C21.1003 27.8056 21.6026 27.8732 22.0971 27.8963C23.1788 27.9487 24.2617 27.987 25.3422 28.0599C25.6755 28.0823 26.0193 28.1054 26.2947 28.1041C27.0102 28.1009 27.8823 27.7554 28.3808 27.2417C28.7299 26.882 28.9666 26.5906 29.0899 26.2982C29.2078 26.0183 29.2277 25.723 29.1057 25.339C28.9091 24.7201 28.5257 24.3682 28.0604 24.3039C25.8792 24.0024 23.7197 24.5418 21.5826 24.9259L7.24755 27.4565C6.44591 27.5972 5.64542 27.7474 4.84168 27.8757C4.55311 27.9217 4.23169 27.9732 3.93194 28.054C3.67619 28.1229 3.41166 28.2128 3.20287 28.3813C2.77742 28.7329 3.11015 29.4347 3.39121 29.7329L3.4329 29.776C3.79321 30.1304 4.37496 30.1356 4.7547 30.4689C4.96721 30.6555 5.08515 30.9167 5.05633 31.2842C5.0186 31.8441 4.6835 32.205 4.39755 32.6422C4.02615 33.21 3.75032 33.8731 3.59979 34.5357C3.36121 35.5857 3.49856 36.7461 3.71433 37.7871C3.88428 38.607 3.87052 39.9974 4.73244 40.3538C5.56776 40.6993 7.69753 39.7615 8.5164 39.5761C14.542 38.2124 20.566 36.8247 26.5875 35.4432C27.4799 35.2386 28.3747 34.9518 29.292 34.8875C29.3986 34.88 29.5137 34.8782 29.6023 34.9015C29.8715 34.9724 30.006 35.2131 30.0711 35.3754C30.2176 35.7488 30.2291 36.1508 30.2975 36.5413C30.3447 36.7939 30.4301 37.0377 30.4779 37.2903C30.5325 37.5784 30.5511 37.8719 30.599 38.161C30.7207 38.8689 31.0627 39.9164 31.858 40.1176C32.1642 40.195 32.5147 40.1216 32.8139 39.9575C33.2015 39.7412 33.522 39.4289 33.8643 39.1506L35.6368 37.7096L56.7026 20.8621C56.937 20.6235 57.1162 20.1416 56.9085 19.8235C56.7439 19.5719 56.3038 19.556 56.0412 19.5778C55.8305 19.5953 55.4138 19.6699 55.4138 19.6699C55.4138 19.6699 49.4609 20.5614 46.4874 21.0036C45.2541 21.1866 44.0221 21.3805 42.7864 21.5475C41.4696 21.7256 40.0884 21.9161 39.0253 22.5922C37.8053 23.574 36.8447 25.0915 36.8447 26.7144C36.8447 27.5301 36.894 28.3449 36.9443 29.1587Z" stroke="white" stroke-width="1.5"/>
<defs>
<pattern id="pattern0_231_2" patternUnits="userSpaceOnUse" patternTransform="matrix(12 0 0 12 0 0)" preserveAspectRatio="none" viewBox="0 0 12 12" width="1" height="1">
<g id="pattern0_231_2_inner">
<rect y="2" width="3" height="1" fill="#D9D9D9"/>
<rect y="8" width="3" height="1" fill="#D9D9D9"/>
<rect x="6" y="2" width="3" height="1" fill="#D9D9D9"/>
<rect x="6" y="8" width="3" height="1" fill="#D9D9D9"/>
<rect x="5" y="3" width="3" height="1" transform="rotate(180 5 3)" fill="#D9D9D9"/>
<rect x="5" y="9" width="3" height="1" transform="rotate(180 5 9)" fill="#D9D9D9"/>
<rect x="11" y="3" width="3" height="1" transform="rotate(180 11 3)" fill="#D9D9D9"/>
<rect x="11" y="9" width="3" height="1" transform="rotate(180 11 9)" fill="#D9D9D9"/>
<rect x="2" width="1" height="2" fill="#D9D9D9"/>
<rect x="2" y="6" width="1" height="2" fill="#D9D9D9"/>
<rect x="8" width="1" height="2" fill="#D9D9D9"/>
<rect x="8" y="6" width="1" height="2" fill="#D9D9D9"/>
<rect x="3" y="5" width="1" height="2" transform="rotate(180 3 5)" fill="#D9D9D9"/>
<rect x="3" y="11" width="1" height="2" transform="rotate(180 3 11)" fill="#D9D9D9"/>
<rect x="9" y="5" width="1" height="2" transform="rotate(180 9 5)" fill="#D9D9D9"/>
<rect x="9" y="11" width="1" height="2" transform="rotate(180 9 11)" fill="#D9D9D9"/>
</g>
</pattern></defs>
</svg>
